<?xml version="1.0" encoding="UTF-8"?>
<svg id="Layer_1" data-name="Layer 1" xmlns="http://www.w3.org/2000/svg" viewBox="0 0 268.27 447.21">
  <defs>
    <style>
      .cls-1 {
        stroke: #231f20;
      }

      .cls-1, .cls-2 {
        fill: none;
        stroke-miterlimit: 10;
        stroke-width: 2px;
      }

      .cls-2 {
        stroke: #000;
      }
    </style>
  </defs>
  <path class="cls-1" d="M96.55,269.31C61.48,188.21,43.44,113.68,44.21,40.58c40.61,23.06,87.21,118.22,131.69,215.2l2.9-.5c2.64-.45,5.27.91,6.43,3.33l81.5,170.53c1.22,2.55.34,5.59-2.02,7.15-9.61,6.33-19.55,10-29.97,9.92-2.56-.02-4.86-1.56-5.87-3.91-30.61-64.9-57.89-125.72-75.04-174.15-.84-1.95.05-4.21,1.99-5.07l2.06-.91-1.15-2.21c-4.14-7.96-13.76-11.32-21.95-7.67l-38.22,17.03Z"/>
  <path class="cls-1" d="M63.19,55.93c5.2,62.95,26.02,131.06,57.42,202.66"/>
  <line class="cls-1" x1="157.88" y1="262.17" x2="175.9" y2="255.78"/>
  <path class="cls-1" d="M169.97,310.34c11.07-.33,22.64-4.79,34.48-11.5"/>
  <path class="cls-2" d="M24.16,152.93c4.66,15.18,6.04,27.04-.27,31.1,10.8.09,12.11,8.57,8.83,21.1,6.78-22.76,17.26-3.26,28.2,21.55-10.16-22.75-18.19-41.54-6.52-43.8-7.22-1.94-8.83-6.32-5.39-12.89-10.07,6.81-18.02-1.2-24.84-17.05Z"/>
  <path class="cls-2" d="M24.07.32c-5.05,15.05-10.83,25.5-18.33,25.13,8.73,6.36,4.85,14.02-5.11,22.29,18.76-14.55,15.93,7.4,10.38,33.94,4.99-24.41,9.4-44.36,20.2-39.4-4.74-5.78-3.5-10.28,3.12-13.62-12.15-.33-13.95-11.47-10.27-28.33Z"/>
</svg>