<?xml version="1.0" encoding="UTF-8"?>
<svg id="Layer_1" data-name="Layer 1" xmlns="http://www.w3.org/2000/svg" viewBox="0 0 129.31 54.8">
  <defs>
    <style>
      .cls-1 {
        fill: #fff;
      }
    </style>
  </defs>
  <path class="cls-1" d="M0,54.8L20.31,0h3.67L3.67,54.8H0Z"/>
  <path class="cls-1" d="M76.97,44.28c0,3.17.29,5.69.5,6.84h-3.46c-.29-.86-.5-2.45-.65-5.54-1.22,2.66-4.39,6.41-11.81,6.41-8.35,0-11.95-5.4-11.95-10.8,0-7.92,6.12-11.52,16.92-11.52h6.84v-3.67c0-3.6-1.08-8.42-9.29-8.42-7.27,0-8.35,3.82-9.14,6.77h-3.6c.43-3.96,2.88-10.08,12.82-10.08,8.21,0,12.82,3.46,12.82,11.38v18.65ZM73.44,32.76h-7.06c-7.99,0-12.96,2.09-12.96,8.28,0,4.54,3.24,7.63,8.28,7.63,10.3,0,11.74-6.84,11.74-14.62v-1.3Z"/>
  <path class="cls-1" d="M105.33,54.8L125.64,0h3.67l-20.31,54.8h-3.67Z"/>
</svg>