<?xml version="1.0" encoding="UTF-8"?>
<svg id="Layer_1" data-name="Layer 1" xmlns="http://www.w3.org/2000/svg" viewBox="0 0 144.98 60.05">
  <defs>
    <style>
      .cls-1 {
        fill: #fff;
      }
    </style>
  </defs>
  <path class="cls-1" d="M26.86,0L5.38,60.05H0L21.44,0h5.42Z"/>
  <path class="cls-1" d="M144.98,0l-21.48,60.05h-5.38L139.57,0h5.42Z"/>
  <path class="cls-1" d="M68.17,33.27c-3.3.55-7.41,3.34-7.63,7.05-.65,10.71,20.89,10.64,23.84,2.63.34-.94.06-2.95.2-3.09.27-.3,8.04-.06,8.03.37-1.53,12.21-13.07,15.17-23.69,14.25-17.39-1.52-22.78-18.95-4.74-24.5-12.03-3.51-11.74-18.89.56-22.12,9.23-2.42,25.45-.12,24.95,12.24-1.93-.35-5.22.49-6.85.05-.51-.14-.85-3.1-2.25-4.45-4.48-4.33-18.28-4.31-17.92,4.03.18,4.21,2.55,4.21,5.31,5.57.54.26.5,1.15,1.11,1.35,2.7.89,6.24.08,8.98.35l.68,6.28c-3.26.37-7.47-.52-10.57,0Z"/>
</svg>