<?xml version="1.0" encoding="UTF-8"?>
<svg id="Layer_1" data-name="Layer 1" xmlns="http://www.w3.org/2000/svg" viewBox="0 0 144.98 60.05">
  <defs>
    <style>
      .cls-1 {
        fill: #fff;
      }
    </style>
  </defs>
  <path class="cls-1" d="M26.86,0L5.38,60.05H0L21.44,0h5.42Z"/>
  <path class="cls-1" d="M86.55,40.32l4.15,2.18c-1.36,2.67-2.93,4.83-4.72,6.47-1.78,1.64-3.79,2.89-6.02,3.74-2.23.86-4.75,1.28-7.57,1.28-6.24,0-11.12-2.04-14.64-6.13-3.52-4.09-5.28-8.71-5.28-13.87,0-4.85,1.49-9.18,4.47-12.97,3.78-4.83,8.83-7.24,15.17-7.24s11.73,2.47,15.62,7.42c2.77,3.49,4.18,7.85,4.22,13.08h-34.42c.09,4.44,1.51,8.08,4.26,10.93,2.75,2.84,6.14,4.26,10.17,4.26,1.95,0,3.84-.34,5.68-1.02,1.84-.68,3.41-1.58,4.7-2.7,1.29-1.12,2.69-2.93,4.19-5.43ZM86.55,30.02c-.66-2.62-1.61-4.72-2.87-6.29-1.26-1.57-2.92-2.84-4.98-3.8-2.07-.96-4.24-1.44-6.51-1.44-3.75,0-6.98,1.21-9.68,3.62-1.97,1.76-3.46,4.39-4.47,7.91h28.51Z"/>
  <path class="cls-1" d="M144.98,0l-21.48,60.05h-5.38L139.57,0h5.42Z"/>
</svg>