<?xml version="1.0" encoding="UTF-8"?>
<svg id="Layer_1" data-name="Layer 1" xmlns="http://www.w3.org/2000/svg" viewBox="0 0 144.98 60.05">
  <defs>
    <style>
      .cls-1 {
        fill: #fff;
      }
    </style>
  </defs>
  <g>
    <path class="cls-1" d="M26.86,0L5.38,60.05H0L21.44,0h5.42Z"/>
    <path class="cls-1" d="M144.98,0l-21.48,60.05h-5.38L139.57,0h5.42Z"/>
  </g>
  <path class="cls-1" d="M92.84,1.93c.59-.1,3.32,1.75,3.45,2.28.49,2-4.97,5.13-4.95,7.11,0,.74,2.17,3.53,2.71,4.9,9.55,24.42-6.62,48.53-33.59,38.16-1.05-.4-2.97-2.17-3.6-2.13-1.23.09-4.3,5.56-5.87,6.35-7.12-4.29,2.25-7.19,2.07-10.09-.03-.43-3.23-5.54-3.87-7.67-6.6-22.07,7.3-44.22,31.85-36.42,1.42.45,6.02,3.3,6.39,3.23,1.61-.27,3.99-5.5,5.41-5.73ZM57.19,42.96l1.94-.99c8.07-9.72,16.24-19.46,24.02-29.36-3.14-3.64-9.37-4.02-13.89-3.57-15.64,1.56-17.11,22.38-12.07,33.92ZM87.19,16.87c-1.14-.23-1.61.59-2.29,1.29-3.25,3.36-5.92,7.96-8.8,11.43-1.85,2.24-14.97,16.47-14.88,17.62,4.14,4.43,12.18,4.65,17.66,2.78,12.33-4.21,12.42-23,8.3-33.12Z"/>
</svg>