<?xml version="1.0" encoding="UTF-8"?>
<svg id="Layer_1" data-name="Layer 1" xmlns="http://www.w3.org/2000/svg" viewBox="0 0 144.98 60.05">
  <defs>
    <style>
      .cls-1 {
        fill: #fff;
      }
    </style>
  </defs>
  <g>
    <path class="cls-1" d="M26.86,0L5.38,60.05H0L21.44,0h5.42Z"/>
    <path class="cls-1" d="M144.98,0l-21.48,60.05h-5.38L139.57,0h5.42Z"/>
  </g>
  <path class="cls-1" d="M107.27,32.72h-31.47c-.21,10.7,7.09,17.9,18.1,15.04,2.89-.75,4.97-3.51,5.85-6.2.27-.81.03-2.7.16-2.83.25-.27,6.65-.12,7.4.31,1.07,8.03-7.11,14.24-14.43,15.05-8.96.99-16.56-1.64-21.43-9.35-3.95,9.05-15.75,11.07-24.43,8.34-13.44-4.23-15.87-22.24-11.04-33.71,5.9-14.03,27.35-15.34,35.49-2.68.85.19,4.17-4.57,5.72-5.63,5.34-3.64,14.57-3.61,20.3-.96,8.47,3.92,11.06,14.07,9.79,22.62ZM54.23,14.21c-11.51.33-13.44,11.52-12.56,20.84,1.59,16.81,22.41,17.73,25.81,2.39,2.22-10.03-.52-23.59-13.25-23.23ZM99.91,26.71c.67-17.18-24.11-16.9-24.1,0h24.1Z"/>
</svg>