<?xml version="1.0" encoding="UTF-8"?>
<svg id="Layer_1" data-name="Layer 1" xmlns="http://www.w3.org/2000/svg" viewBox="0 0 144.98 60.05">
  <defs>
    <style>
      .cls-1 {
        fill: #fff;
      }
    </style>
  </defs>
  <g>
    <path class="cls-1" d="M26.86,0L5.38,60.05H0L21.44,0h5.42Z"/>
    <path class="cls-1" d="M144.98,0l-21.48,60.05h-5.38L139.57,0h5.42Z"/>
  </g>
  <path class="cls-1" d="M72.18,12c5.73,0,10.48,2.07,14.24,6.22,3.42,3.78,5.14,8.26,5.14,13.43s-1.81,9.74-5.43,13.62c-3.62,3.89-8.27,5.83-13.95,5.83s-10.37-1.94-13.99-5.83c-3.62-3.88-5.43-8.43-5.43-13.62s1.71-9.62,5.14-13.4c3.77-4.17,8.53-6.25,14.28-6.25ZM72.16,16.69c-3.98,0-7.4,1.47-10.26,4.41-2.86,2.94-4.29,6.49-4.29,10.66,0,2.69.65,5.2,1.96,7.52,1.3,2.32,3.06,4.12,5.28,5.38s4.65,1.9,7.31,1.9,5.09-.63,7.31-1.9c2.22-1.26,3.98-3.06,5.28-5.38,1.3-2.32,1.96-4.83,1.96-7.52,0-4.17-1.44-7.72-4.31-10.66s-6.28-4.41-10.24-4.41Z"/>
</svg>