<?xml version="1.0" encoding="UTF-8"?>
<svg id="Layer_1" data-name="Layer 1" xmlns="http://www.w3.org/2000/svg" viewBox="0 0 144.98 60.05">
  <defs>
    <style>
      .cls-1 {
        fill: #fff;
      }
    </style>
  </defs>
  <g>
    <path class="cls-1" d="M26.86,0L5.38,60.05H0L21.44,0h5.42Z"/>
    <path class="cls-1" d="M144.98,0l-21.48,60.05h-5.38L139.57,0h5.42Z"/>
  </g>
  <path class="cls-1" d="M54.31,41.89l3.79-2.36c3.28,4.35,7.75,6.53,13.42,6.53,4.53,0,8.29-1.46,11.28-4.37,2.99-2.91,4.49-6.45,4.49-10.62,0-2.71-.69-5.26-2.07-7.65-1.38-2.39-3.27-4.24-5.67-5.56-2.4-1.32-5.09-1.98-8.07-1.98-5.46,0-9.92,2.18-13.38,6.53l-3.79-2.5c1.78-2.68,4.16-4.75,7.16-6.23,3-1.48,6.41-2.21,10.24-2.21,5.88,0,10.76,1.87,14.63,5.61,3.87,3.74,5.81,8.28,5.81,13.64,0,3.6-.91,6.94-2.72,10.03-1.81,3.09-4.3,5.5-7.47,7.23-3.17,1.73-6.71,2.6-10.63,2.6-2.46,0-4.84-.38-7.13-1.13s-4.23-1.73-5.83-2.94c-1.59-1.21-2.95-2.75-4.07-4.61Z"/>
</svg>