<?xml version="1.0" encoding="UTF-8"?>
<svg id="Layer_1" data-name="Layer 1" xmlns="http://www.w3.org/2000/svg" viewBox="0 0 144.98 60.05">
  <defs>
    <style>
      .cls-1 {
        fill: #fff;
      }
    </style>
  </defs>
  <g>
    <path class="cls-1" d="M26.86,0L5.38,60.05H0L21.44,0h5.42Z"/>
    <path class="cls-1" d="M144.98,0l-21.48,60.05h-5.38L139.57,0h5.42Z"/>
  </g>
  <path class="cls-1" d="M55.36,11.17h4.79v17.36c0,4.24.23,7.16.68,8.75.68,2.28,1.99,4.08,3.92,5.4,1.93,1.32,4.23,1.98,6.9,1.98s4.93-.64,6.79-1.93c1.86-1.29,3.14-2.98,3.85-5.08.48-1.44.72-4.48.72-9.13V11.17h4.89v18.25c0,5.13-.6,8.99-1.79,11.59s-3,4.63-5.4,6.1c-2.4,1.47-5.42,2.2-9.04,2.2s-6.65-.73-9.07-2.2-4.24-3.52-5.43-6.15-1.79-6.59-1.79-11.88V11.17Z"/>
</svg>