<?xml version="1.0" encoding="UTF-8"?>
<svg id="Layer_1" data-name="Layer 1" xmlns="http://www.w3.org/2000/svg" viewBox="0 0 144.98 60.05">
  <defs>
    <style>
      .cls-1 {
        fill: #fff;
      }
    </style>
  </defs>
  <g>
    <path class="cls-1" d="M26.86,0L5.38,60.05H0L21.44,0h5.42Z"/>
    <path class="cls-1" d="M144.98,0l-21.48,60.05h-5.38L139.57,0h5.42Z"/>
  </g>
  <path class="cls-1" d="M52.64,29.35h30.42c1.15-10.9-7.58-19.43-18.36-15.06-3.92,1.59-4.59,7.53-5.09,7.67-1.66.45-5.01-.41-6.96-.05,2.05-18.28,29.68-18.99,35.97-2.96,4.9,12.48,1.4,31.5-14.17,33.37s-22.29-8.98-21.8-22.97ZM83.06,34.56h-23c-.5,16.5,23.26,16.18,23,0Z"/>
</svg>