<?xml version="1.0" encoding="UTF-8"?>
<svg id="Layer_1" data-name="Layer 1" xmlns="http://www.w3.org/2000/svg" viewBox="0 0 319.5 428.48">
  <path d="M182.7,60.04l7.19-2.79c-1.84,4.2-9.55,7.39-10.83,11.55-1.42,4.61.31,9.54.52,14.03.06,1.22-1.06,4.16-.87,4.38,1.26,1.51,1.69-1.07,1.95-1.6,2.65-5.37,3.94-14.92,11.63-14.78-6.48,5.09-7.58,13.19-11.03,20.14-2.73,5.49-13.43,20.16-12.8,25.21.25,2.01,6.33,10.77,7.84,11.44,1.72.76,9.13-5.79,8.8-8.43l-3.19.4c5.64-3.51,8.34-11.2,12.26-15.31,1.72-1.8,5.23-3.39,7.3-5.08,1.63-1.33,6.24-6.52,7-6.98.39-.24,8.19-1.79,9.04-1.81,1.83-.05,7.2,1.83,7.51,1.61.35-.26,2.8-6.54,3.66-7.99.61-1.03-.14-2.01,1.98-1.57-1.05,7.36-4.6,15.96-8.38,22.39-6.61,11.26-17.67,18.29-18,33.15-.02.78.35,4.33,1.59,4.39-1.34-7.49,5.27-16.58,12.8-10.78,1.52,1.17,1.28,3.29,2.78,2.77,8.79-6.31,12.38-16.47,18.82-24.34,10.92-13.34,19.69-20.2,26.17-37.77,5.36-14.55.94-23.97,12.57-37.78.75-.89,7.59-8.1,8.4-7.18-.4,5.4-6,9.23-8.97,13.8-7.2,11.1-5.01,22.75-9.83,34.93-6.84,17.29-15.25,23.26-25.95,36.39-3.93,4.82-6.56,11.14-10.43,15.95-3.6,4.46-11.11,12.75-15.15,16.82-7.5,7.55-14.14,2.89-16.4-6.01-1.17,1.89-3.21,5.74-3.46,7.8-.62,5.26,6.22,11.07-.61,17.71s-16.54-3.86-19.51-1.97l-35.79,46.37,43.87,59.46c1.22.71,6.7-3.31,9.3-3.72,6.47-1.03,23.59,7.78,30.62,10.57,4.78,1.89,10.32,2.77,14.9,5.09,2.85,1.44,4.02,3.43,5.91,4.48,2.29,1.27,4.73.94,6.92,1.87,7.02,3,16.55,25.2,20.86,32.69,8.92,15.49,18.31,33.29,30.1,46.62,2.11,2.38,15.36,14.51,15.6,15.58,1,4.48-5.35-.7-6.4-1.6-26.85-22.76-37.29-55.36-55.31-83.77-2.17-3.42-4.77-7.52-9.43-6.95-.45.41,2.51,5.85,2.89,7.09.32,1.03.56,2.42-.89,1.69-1.1-.55-5.11-8.79-6.83-10.76-4.62-5.33-13.66-6.25-19.95-8.83-6.6-2.7-21.52-11.08-27.87-10.24-2.29.3-7.85,2.08-6.14,5.06l15.62,21.58c2.13.21,1.29.04,1.56-1.2.53-2.43.31-4.75,3.21-5.99-.29,3.76-1.49,7.6-.62,11.42.31,1.36,5.82,10.33,7.01,8.09.47-3.46,2.66-6.53,5.6-8.33-2.18,6.95-5.17,12.55-4.02,20.24,1.68,2.29,14.13,4.76,13.62,7.32s-8.16-1-9.56-1.62c-15.17-6.64-18.12-19.97-30.03-29.92-2.32-1.93-6.55-5.5-9.17-5.22,2.35,2.13,5.21,4.88,3.59,8.38-.44.94-6.49,6.6-7.57,6.89-1.97.54-3.8-1.45-5.61-2.08,2.84,10.82,13.5,17.51,20.39,25.56,13.1,15.3,15.71,34.62,32.35,49.17,9.58,8.37,17.79,9.58,28.29,14.87,7.31,3.68,17.47,13.17,22.86,19.51,2.36,2.78,8.73,11.01,10.03,13.96.97,2.19-1.6,3.58-3.5,1.09-1.8-2.35-3.29-5.58-5.39-8.2-3.1-3.87-6.64-7.34-9.57-11.33-3.25.65-4.34,3.5-7.79,5-6.71,2.91-15.54,2.26-21.6-1.88-7.52-5.14-2.94-8.2-4.07-14.28-.36-1.95-4.54-9.28-6.05-10.01-.92-.44-3.73,3.3-7.53,2.83-1.35-.17-11.69-6.11-12.88-7.16-3.21-2.83-3.37-7.98-4.57-9.42-1.26-1.51-6.01-1.13-9.43-6.96-2.18-3.71-3.4-12.79-4.15-13.83-.25-.34-5.61-3.16-7.03-4.56-6.79-6.68-3.89-18.36-2.39-26.78-1.22-1.19-7.23,5.44-13.2.81s-.4-13.51-.32-19.6c.03-1.96-.99-11.51-1.75-12.7-5.06-8.02-19,6.55-23.07,4.74l-32.02-44.37c-1.1-.75-3.91,3.41-4.75,4.42-28.73,34.76-54.02,72.67-82.76,107.47-4.26,2.19-13.06,14.74-16.38,15.66-4.03,1.11-8.37-4.49-6.33-9.59,2.94-7.36,10.87-17.11,14.77-24.38l84-109.16c-23.69-36.6-52.55-74.68-62.34-118.02-.96-4.25-4.48-20.01-2.57-23.05.85-1.35,1.58-.55,2.59-.15,2.63,1.04,10.69,7.6,13.4,9.78,15.55,12.5,29.02,27.66,41.97,42.75l37.96,49.11,33.69-43.09c.44-1.76-11.12-8.59-5.79-17.74,3.69-6.33,8.56-6.34,14.9-3.89-3.39-5.07-8.99-9.5-7.95-16.32.89-5.87,9.11-14.29,10.16-19.41,2.89-14.02-4.17-28.58,8.97-41.38,14.2-13.84,33.1-25.38,46.78-40.34.83-.91,9.73-13.42,10.77-12,.03,1.13.14,2.29-.19,3.4-.62,2.1-10.08,13.73-12.16,15.82-12.34,12.39-29.89,23.62-42.81,35.52-1.63,1.5-3.19,3.06-3.99,5.19ZM200.82,134.92c1.85-2.94,3.08-9.85,5.45-14.15,3.5-6.37,15.33-17.68,16.28-23.75.6-3.84-7.8-3.03-10.31-2.26-.79.24-11.69,8.8-13.13,10.05-8.74,7.59-9.9,21.87-22,26.76,6.75,3.38,12.05,8.57,17.19,13.98.81-2.53,1.88-4.83,3.26-7.12,1.09-1.8,2.81-2.79,3.27-3.52ZM37.21,96.81c3.61,37.58,23.06,71.02,42.83,102.23,19.75,31.18,41.8,61,63.5,90.82,1.7.83,13.16-6.77,17.97-6.84,1.53-.02,2.99.95,4.73.8,2.63-.23,12.43-8.54,13.7-11.14,2.12-4.34.86-4.72-1.39-8.29-22.21-28.99-43.52-58.7-65.88-87.58-22.46-28.99-44.86-59.04-75.45-80ZM195.48,160.74c3.22-8.56-6.93-17.66-13.32-22.24-3.13-2.24-15.46-9.84-18.65-6.52-1.54,1.6,4.53,2.36,5.58,2.8,9.34,3.94,17.7,11.46,23.54,19.62l2.84,6.33ZM210.15,133.85c-5.24,5.11-2.54,15.52,4.83,8.42,8.09-7.8-.08-13.06-4.83-8.42ZM180.3,159.93c3.97,1.15,7.65,3.89,12,3.63,2.58-1.67-2.83-8.79-4.03-10.39-4.47-5.94-15.78-15.26-23.11-16.86-10.68-2.32-.83,13.35,2.26,11.53.33-.19.4-2.36,2.24-2.94,5.22-1.63,13.79,4.46,13.05,9.78-.26,1.89-2.57,3.13-2.4,5.24ZM140.31,206.29l38.8-51.19c1.19-3.48-5.52-9.02-8.87-6.4l-36.8,47.93.08,1.68c2.25-.96,17.8-23.46,18.78-22.37-.61,2.62-2.89,4.96-4.47,7.11-4.04,5.47-8.39,10.85-12.73,16.08-1.25,1.07.93,3.96,1.63,3.97,2.12.02,21.8-30.16,26.77-32.75-.88,2.38-2.93,5.06-4.46,7.12-6.88,9.29-14.77,17.91-21.1,27.64.48.68,1.63,1.69,2.36,1.19ZM100.36,242.25c-.53-.54,4.82-4.84.01-4.78L13.64,350.97c-1.83,3.13,2.21,2.67,4.35,4.4,1.27,1.03,1.69,2.47,2.82,3.55l86.35-111.87-.81-2.38c-26.78,33.56-52.11,68.43-79.53,101.48l10.85-15.92c22.55-28.53,44.52-57.1,66.76-85.92,1.73-1.15-.36-4.45-1.27-4.43-.63,0-1.34,3.84-2.8,2.37ZM194.64,286.94c1.23-1.77-10.58-13.59-11.15-16.7-1.66,1.03-1.64,3.73-2.82,5.55-2.33,3.57-8.93,8.78-13.15,9.63l1.58,2.39c3.05-6.5,11.07-3.5,16.17-1.37,4.49,1.87,3.54,4.49,9.37.5ZM173.67,287.97c-8.53,2.59.43,15.55,3.71,14.89.45-.09,5.8-4.4,6.17-5.03,2.17-3.7-5.43-11.21-9.88-9.86ZM214.66,316.58c1.02-4.67-2.33-5.97-4.32-8.86-2.9-4.18-9.54-15.72-12.82-18.36-2.11-1.69-2.9.75-4.41,2.04,8.92,7,13.53,17.56,21.55,25.17ZM177.9,318.17l-7.98-11.97c-1.27,8.3-3.5,17.84,7.98,11.97ZM193.09,333.36l-9.58-9.58c-.84,6.12-2.98,19.67,4.23,22.6,1.77.72,2.46-.89,4.01-.84,1.09.04,5.23,1.86,6.1,2.65,2.92,2.65,1.79,10.96,5.51,4.1-4.2-6.69-5.26-19.57-15.85-17.33.14-3.81,3.19-1.7,5.59-1.6ZM197.88,353.34c-.22-3.23-3.15-5.78-6.39-5.58.51,1.04,5.47,6.53,6.39,5.58ZM17.74,357.62c-1.03-1.04-4.4-3.81-5.73-2.75-.67.52-8.48,13.6-8.77,14.51-.74,2.28,1.47,4.49,3.57,3.57,3.62-1.58,8.26-10.94,12.81-12.43.09-.18-1.46-2.47-1.88-2.9ZM205.82,356.58c-.49-.34-8.38,3.91-11.12-.84.84,6.05,3.29,11.2,9.19,13.58,1.01-5.03,2-4.13,6.79-4-1.13-1.18-4.34-8.38-4.86-8.74ZM215,372.24c-1.29-1.65-7.54-9.19-9.11-4.1-.82,2.65,7.67,6.45,9.6,5.6,2.14-.95-.27-1.22-.48-1.5ZM222.67,385.31c1.46.51,4.35-1.28,3.99-2.78-2.6-1-5.39-5.56-7.21-6.48-1.21-.61-2.79,1.36-5.13,1.32s-3.9-1.57-6.04-1.65c3.87,8.56,5.47,2.69,8.42,2.36,3.41-.37,7.02,3.85,5.97,7.22ZM221.06,385.31c.76-2.19-1.84-6.25-4.38-5.59-4.04,1.05,3.65,6.42,4.38,5.59ZM234.67,387.71c.89,3.01,3.25,5.29,3.8,8.58.94,5.65-3.21,9.15,3.47,12.52,7.26,3.66,18.18,3.32,23.09-3.91-8.26-9.43-20.14-11.19-30.35-17.18Z"/>
  <rect x="39.28" y="313.06" width="66.17" height="2.23" transform="translate(-221.18 180.86) rotate(-52.6)"/>
  <rect x="23.25" y="279.1" width="59.78" height="2.15" transform="translate(-200.67 150.16) rotate(-52.14)"/>
  <rect x="5.38" y="289.68" width="61.53" height="2.07" transform="translate(-214.45 138.98) rotate(-51.72)"/>
  <path d="M69.18,229.47c-14.67-2.01-29.61-2.72-44.25-4.9-1.27-.19-4.82-.35-5.3-1.48,12.53.42,25.41,1.51,37.85,3.3,3.57.52,9.18.61,11.7,3.08Z"/>
  <path d="M119.54,334.96c-.96,1.27-1.46.01-1.6-1.18-1.79-15.23-1.95-31.43-2.39-46.76l1.58,7.59,2.4,40.35Z"/>
  <path d="M84.36,241.46c-3.37-4.52-2.16-1.24-4,.79-.88.98-.42-2.48-1.98-1.58-1.67,4.62-6.36,6.23-8.01.81-2.65,6.02-8.97,6.02-5.59-.81l.4,3.99c2.56.26,2.51-3.3,4.55-3.89,2.28-.66,3.77,1.34,4.64,1.29s3.46-3.72,4.92-4.52c1.74-.94,3.48.12,4.66-1.66l.39,5.59Z"/>
  <path d="M69.19,330.97l16-22.75,3.97-3.62c-2.5,5.4-6.45,10.41-10.07,15.1-.78,1.01-9.22,12.01-9.9,11.27Z"/>
  <path d="M125.93,177.52c-1.19.2-.99-1.5-1.19-2.38-2.1-9.11-2.5-19.43-2.79-28.78l2.29,10.88,1.69,20.28Z"/>
  <path d="M108.34,286.21l-3.01-7.76c2.09-3.15-.02-3.72-.13-5.45-.17-2.56-.75-6.4,1.16-8.36,1.04.82-.53,2.32-.42,3.54.08.84,1.08,1.97,1.45,3.24s-.25,2.74,1.71,4.74l-.76,10.05Z"/>
  <path d="M127.53,307.79c-1.46-.38-1.68-3.49-2-4.78-1.86-7.61-3.14-15.45-4.38-23.18,1.37.36,1.84,3.4,2.16,4.63,1.93,7.45,3.17,15.7,4.22,23.34Z"/>
  <path d="M80.21,220.04c.16.06,1.56,2.62,1.99,2.79,1.37.54,2.73.03,4.25.99,1.07.68,2.68,3.91,4.32,4.85-3.23.97-3.63-3.29-5.32-3.86-3.48-1.16-9.77,1.65-9.87-4.12,1.39.41,3.67-1.03,4.63-.65Z"/>
  <path d="M181.09,196.72c.19,1.17-1.39,1.06-2.23,1.35-6.91,2.34-13.85,4.91-20.95,6.63,2.09-2.42,6.83-3.71,9.98-4.8,4.22-1.46,8.69-3.21,13.2-3.17Z"/>
  <path d="M69.98,217.5c.16,1.5-1.63.67-2.41.41-7.16-2.35-14.62-5.03-21.53-8.06-.98-.43-3.21-.77-3.24-1.95l27.17,9.59Z"/>
  <path d="M114.63,263.73c-.2.23-2.18-.29-1.47,1.3.38.86,2.18.79,2.41,1.77.21.91.36,3.83.42,5.04.25,5.41-2.67,3.59-2.84-1.2-.03-.84,2.39,1.44,1.6-.8-1.12-3.16-4.39-4.28-2.38-9.21.99,0,2.46,2.87,2.27,3.09Z"/>
  <path d="M177.1,211.88l-16.79.8c.31-1.46,1.57-1.48,2.77-1.62,2.46-.29,6.42-.73,8.8-.81,1.74-.06,4.52-.45,5.22,1.64Z"/>
  <path d="M93.16,233.48c-.91,2.64-3.88.68-5.76.55l-7.03-3.75c4.78-.83,7.89,3.38,12.79,3.2Z"/>
  <path d="M194.69,306.2l-7.99,7.98c.29-3.79,3.89-8.13,7.99-7.98Z"/>
  <path d="M131.53,179.12c-1.46-.23-.86-4.11-.78-5.18.16-2,.52-6.61,2.38-7.6l-1.6,12.78Z"/>
  <path d="M106.75,320.57c-5.71-.04-2.45-3.91-1.4-6.65.37-.95-.3-2.07-.2-2.13.68-.42,2.24.57,2.38,1.24.4,1.9-4.37,4.83-.78,7.53Z"/>
  <path d="M52.39,246.27c2.53,2.64-7.57.24-7.99,1.58-.18-4.03,6.45-3.19,7.99-1.58Z"/>
  <path d="M189.9,317.38c-.66-.68,5.98-8.25,7.18-8.79.95,2.32-6.41,9.59-7.18,8.79Z"/>
  <path d="M228.25,125.58l-7.99-5.59c2.23-1.5,9.25,4.31,7.99,5.59Z"/>
  <path d="M61.98,233.48l-6.03,1.26-1.96-2.06c3.09-.33,5.14-.64,7.99.8Z"/>
  <path d="M102.21,293.14c.27.38,3.56,2.93,2.95,3.46-3.29.1-5.63-2.5-3.99-5.58,1.4-.26.49,1.36,1.04,2.12Z"/>
  <path d="M230.66,119.98c-.81.09-7.96-2.7-6.39-3.98.71-.58,5.96,2.7,6.39,3.98Z"/>
  <path d="M109.14,261.44c-2.2-.78-2.15-3.47-.39-4.79l.39,4.79Z"/>
  <path d="M90.76,238.27v1.59s-3.19,0-3.19,0c.43-1.59,1.7-1.79,3.19-1.59Z"/>
  <path d="M102.75,271.03c.46.46-.67,2.38-1.2,2.38-2.21,0-.01-3.58,1.2-2.38Z"/>
  <path d="M142.72,278.22c-20.95-27.04-41.2-55.02-59.48-83.98-15.45-24.46-30.83-50.54-37.23-79.05l12.64,31.7c20.22,45.34,54.28,82.95,80.41,124.2,1.34,2.11,3.17,4.68,3.66,7.12Z"/>
  <rect x="3.2" y="299.86" width="104.14" height="1.89" transform="translate(-216.7 160.92) rotate(-52.37)"/>
</svg>