<?xml version="1.0" encoding="UTF-8"?>
<svg id="Layer_1" data-name="Layer 1" xmlns="http://www.w3.org/2000/svg" viewBox="0 0 548 325.32">
  <path d="M.02,269.45l11.79-.67c59.08-38.88,118.94-76.65,179.29-113.49,12.57-7.66,30.3-16.12,41.61-24.5,5.02-3.74.41-4.7,0-9.38-1.77-20.21,37.66-41.12,53.03-50.02,3.72-2.16,14.59-9.06,17.94-9.56,6.03-.89,19.63,1.51,26.54,1.7,4.4.11,9.01.18,13.39-.41L448.8,0c1.12-.07,1.47.64,2.02,1.4,1.22,1.63,7.43,13.88,6.88,14.82l-155.41,90.66c-2.68.94-8.65-4.56-11.47-3.85s.09,3.37.32,4.72c.76,4.63-.16,7.98-2.96,11.58-7.61,9.77-19.68,8.74-29.22,2.57-.83.05-.5,1.42-.28,1.97,1.51,3.76,28.05,21.49,32.25,21.86,1.58.14,2.98-.78,4.72-.5,19.68,3.12,28.3,20.69,50.32,14.7,5.89-1.61,21.65-11.01,24.72-16.05,8.19-13.51-8.97-11.08-17.2-13.44s-16.01-8.17-23.67-10.67c-6.17-2.02-13.12-2.5-19.5-5.41-3.53-1.63-6.49-2.66-5.41-7.04,13.37-.44,22.5,14.43,36.05,9.84,12.66-4.27,34.01-18.65,45.94-26.19,1.12-.71,5.62-1.24,1.97-2.73-3.23-1.33-8.94-1.4-12.87-2.59-2.66-.83-14.93-5.41-9.56-9.15,4.91-3.42,20.78,7.59,26.05,8.99,6.19,1.63,12.78-2.41,18.23-5,20.34-9.68,40.27-22.64,59.93-33.72,3.21-1.03,9.27,7.73,11.03,10.53,1.9,3,5.23,7.73,2.8,11.08-1.01,1.38-11.24,6.54-13.65,7.82-20.48,10.99-42.22,19.93-62.48,31.15l-.25,1.93c10.21,23.81,19.77,48.07,32.36,70.73,18.6,33.51,47.68,60.87,75.27,86.99,10.69,10.11,22.61,19.27,32.22,30.41-.92,1.47-1.88-.34-2.57-.87-12.48-9.5-27.59-24.45-39.11-35.57-20.62-19.89-46.4-44.29-61.28-68.55-15.94-25.99-27.27-55.99-39.59-83.85-11.86,4.63-23.03,10.94-34.66,16.05-.76.34-5.53,3.26-5.69,1.15-.05-.71,1.26-1.9,1.95-2.41,9.72-7.29,25.53-12.11,35.89-19.04,3.65-.11,4.75.16,8.23-1.15,15.8-6.01,37-17.66,52.41-25.71,3.17-1.65,18.74-9.47,19.63-11.35.76-1.54-7.41-13.94-9.04-15.64-.69-.71-1.28-1.19-2.32-1.28-18.9,9.52-36.63,21.4-55.57,30.8-8.03,3.99-16.81,6.86-24.47,10.73-15.02,7.57-29.54,18.83-45.09,26.17-2.64,1.24-5.23,2.91-8.28,2.45-.3,1.74,1.1,2.43,2.29,3.28,2.32,1.67,10.3,4.86,13.21,5.69,7.59,2.16,24.4-.28,20.5,12.8-3.46,11.63-32.29,26.47-44.59,21.15-1.47,1.38,6.77,6.33,7.75,7.27,4.29,4.17,4.31,7.5,6.83,12.06,10.11,18.23,22.34,39.59,34.89,56.12,18.28,24.08,68.49,53.49,76.38,83.3.39,1.44.57,2.8.41,4.31-4.22-5.09-6.58-11.97-10.28-17.61-14.45-22.11-35.92-35.32-59.43-46.19-16.35-7.57-36.47-13.14-51.65-22.18-11.17-6.65-14.01-15.78-22.52-24.7-1.77-.57-1.12,1.22-2.09,2.13-5.87,5.69-20.66,4.95-27.11.44s-2-8.35-3.37-10.34c-.5-.73-9.11-3.19-11.33-4.59-7.8-4.95-9.01-11.47-8.07-20.25l-2.61.39c-69.66,32.11-138.16,67.06-208.23,98.3-3.9,1.74-21.47,10.14-23.94,10.05-2.16-.07-4.24-3.49-3.85-5.67l261.83-138.71v-1.67c-5.6-1.67-19.61-15.16-23.6-15.92-3.17-.6,2,4.54.23,7.57L20.96,271.1c-4.63-.85,1.86-4.01,4.04-5.44,57.5-37.59,118.49-70.48,176.19-107.82,8.28-5.37,26.65-16.05,32.84-22.27.8-.8,2.91-3.07,1.72-4.29-73.62,43.55-145.6,89.13-217.5,135.32-1.56,1.01-2.29,2.73-4.79,3.83-4.84,2.18-8.21,1.65-13.46,1.58v-2.57h.02ZM454.22,16.2c1.47-1.7-4.56-14.15-7.16-13.62-4.36.89,4.98,6.03.67,9.47l-152.25,89.63c1.9,2.84,5.6,2.66,8.53,1.67,47.45-30.32,100.5-55.3,147.32-86.24.87-.57,2.73-.71,2.89-.92h0ZM445.23,6.24l-155.14,91.47,2.11,3.58L447.34,9.82s-2.11-3.58-2.11-3.58ZM338.39,65.21c-11.05,1.58-25.02-2.57-35.6-.83-2.57.44-16.4,9.06-19.82,11.1-11.7,7-39.84,23.58-45.73,34.95-1.15,2.2-3.12,9.33-2.64,11.61.11.5,2.34,4.63,2.59,4.77,2.16,1.26,13.35-6.86,16.63-7.55,1.33-2.41-.99-3.9-1.38-6.4-3-20.32,21.95-16.88,33.99-11.83,2.34-3.81,5.5-5.48,9.06-7.89,13.1-8.83,28.16-16.56,41.74-24.79l1.12-3.17.02.02ZM383.92,84.09c-1.93-2.09-13.97-7.98-15.46-4.7-.34,1.54,2.39,1.9,3.56,2.43,3.81,1.67,7.68,2.8,11.9,2.27ZM260.55,102.41c.44-.57,2.22-1.06,2.25-1.58-2-3.76-8.28,4.89-8.58,6.93-.18,1.26.05,3.26,1.31,3.78.48.21,3.78-7.55,5.02-9.13ZM260.59,105.88c-3.28,4.79-5.64,10.53-.3,14.63,7.09,5.44,20.28,5.14,26.19-2.06,7.25-8.81,1.54-15.18-8.14-16.83-6.58-1.1-13.72-1.67-17.75,4.24v.02ZM316.08,111.56l-7.73-1.72c-.46,2.39.64,1.38,1.83,2,1.58.8,6.33,3.39,5.89-.28h0ZM118.9,213.19c46.42-23.05,91.03-53.23,137.36-76.88,4.59-1.24-2.2-13.17-3.44-13.53-1.15-.34-11.61,4.95-12.68,6.01-2.04,2-1.08,4.77-3.39,7.34-1.97,2.2-9.31,6.63-12.32,8.74-31.83,22.27-67.48,42.98-100.62,63.55-1.35.85-8.37,4.06-8.72,4.4-1.06,1.08,0,1.7,1.33,1.72,2.52.07,1.93-1.08,2.48-1.35ZM263.39,177.32c2.55-7.02,41.81-18.44,42.36-20.73.37-1.51-1.24-1.7-2.18-2.11-5.55-2.41-14.01-6.97-19.68-5.99-82.02,42.02-162.2,87.84-244.08,130.27-3.69,1.93-10.5,4.13-13.51,6.24-3,2.11-2.02,4.13,1.97,2.82,14.86-4.84,35.69-16.31,50.62-23.23,61.72-28.58,122.96-58.3,184.49-87.27h0ZM310.91,152.76c-4.72-2.41-8.99-5.23-14.59-4.31-.46,2.45.69,1.38,1.88,1.95,1.9.89,8.3,3.56,9.93,3.9,1.51.3,2.32,0,2.78-1.54h0ZM405.89,265.53c-7.73-7.06-18.51-14.04-24.91-21.88-13.17-16.19-26.4-40.07-36.88-58.42-3.94-6.93-3.83-10.5-10.46-16.15-4.01-3.42-20.25-12.89-24.86-12.96-4.17-.05-.89,2.16-2.68,3.58-2.36,1.86-18.44,7.45-19.2,8.53-1.33,1.95,2.87,4.52,3.76,6.03,2.34,4.01,4.54,21.4,3.97,26.12-1.15,9.63-14.89,2.96-12.94,11.97.8,3.74,10.6,6.38,14.17,6.51,3.76.14,13.21-1.58,14.01-5.85,1.01-5.46-13.97-18.19-13.58-22.94.07-.87,1.38-.32,2.16-.46,8.6,11.26,15.41,23.97,24.15,35.11,8.21,10.48,12.36,12.84,24.52,18.42,17.39,7.98,35.69,13.78,53.03,22.52,3.72,1.88,8.23,5.99,12.11,5.92-2.04-2.11-4.22-4.13-6.38-6.08h0ZM284.29,170.76c-10.69,3.76-25.92,6.81-22.11,21.67,1.93,7.57,18.28,14.95,24.61,9.56,11.1-9.45-1.93-20.57-2.5-31.24Z"/>
</svg>