<?xml version="1.0" encoding="UTF-8"?>
<svg id="Layer_1" data-name="Layer 1" xmlns="http://www.w3.org/2000/svg" viewBox="0 0 384.29 381.21">
  <path d="M194.96,184.13c4.06-10.65,4.7-24.01,8.53-34.38,1.96-5.3,15.72-31.38,18.96-35.2,4.47-5.27,12-8.84,15.71-14.28,4.45-6.52,11.01-18.81,14.74-26.09,4.35-8.49,6.86-18.8,12.89-25.84-.37,6.67-3.75,14.33-6.51,20.55-4.49,10.11-10.7,19.33-15.97,29.02l2.49.82c-5.51,6.5-14.6,11.23-20.01,17.48-5.9,6.81-14.07,34.79-16.24,44.58-1.91,8.65-3.98,21.64-4.59,30.42-.12,1.71,0,1.09,1.23,1.25,3.97.53,6.59-1.33,8.98,3.55.89,1.81-.27,4.55,2.29,3.95,2.11-19.26,8.61-36.8,15.93-54.51.46-1.93,2.98-.2,3.23-.46.35-.37.53-7.97,2.08-9.17,1.88,1.45,1.22,3.28,1.03,5.17-.73,7.46-4.86,16.49-6.71,24.13-3.26,13.44-5.67,27.21-8.89,40.67,4.09-4,7.91-6.45,11.29-.04l1.2,6.7c2.39-7.63,4.04-15.5,6.45-23.12,3.94-12.44,8.66-28.92,13.54-40.61.7-1.68,2.09-5.53,3.78-6.22s1.29.68.88,1.72c-4.21,10.69-3.9,19.05-6.73,29.1-1.38,4.91-14.11,29.9-12.08,32.49,4.2-2.95,9.23-.25,9.17,5,.28.29.9-.46,1.22-.85,3.32-4.1,15.93-32.47,17.53-38.29,1.33-4.85,2.63-18.04,5.37-21.29,1.14-1.36,3.99-2.11,3.35,0-.28.93-1.25,1.92-1.61,3.4-1.8,7.38-2.41,15.57-4.8,22.69-1.43,4.27-10.8,20.42-10.12,22.91.27,1,2.34,2.53,2.8,3.93,6.52-7.41,11.17-16.79,14.99-25.83,2.19-5.19,8.35-20.19,9.22-24.94,1.81-9.83-1.24-20.14-.44-29.6.84-9.99,8.46-23.58,13.49-32.33,3.83-6.68,8.33-14.67,13.99-19.74.2,1.73-.05,3.15-.63,4.78-3.4,9.61-14.92,23.21-19.51,34.64-6.33,15.76-2.1,20.2-2.32,35.09-.14,9.81-6.27,18.6-8.36,27.95,17.35-3.41,38.73,1.49,35.84,23.33,10.48-7.59,19.1-15.52,33.04-15.77,6.4-.11,24.24,3.84,27.81,9.5,2.48,3.93,2.15,17.05.56,21.43-4.28,11.8-33.49,11.91-43.07,18.17l6.1,3.47c7.36,3.22,24.12,7.14,28.42,13.24,3.92,5.56,3.49,23.11-3.06,27.64-65.06,32.11-128.26,69.13-193.65,100.47-13.13,6.29-19.64,9.01-33.93,3.34L9.21,310.28c-3.74-2.38-4.67-7.43-5.05-11.61-.72-7.92-1.03-16.5,7.24-20.23,47.22-22.33,100.98-37.19,147.7-59.78.93-.45,4.04-1.02,3.37-2.44-1.56-3.29-30.17-18.23-32.09-22.94s7.49-17.11-2.27-25.18c-7.58-6.26-5.91.3-11.55,3.04-7.38,3.58-17.67-1.37-16.58-10.32-5.09,5.12-10.66,8.1-17.45,3.71-3.59-2.32-4.75-7.51-5.15-7.77-1.95-1.28-8.45,1.89-13.24-3.84-1.36-1.63-1.99-4.8-3.36-5.81-2.65-1.96-6.2-1.46-9.57-5.42-5.32-6.27-4.86-20.93-9.17-25.82-3.39-3.86-9.03.54-13.1-2.51-6.04-4.52-7.7-18.95-3.48-24.95,4.63-6.57,12.35-4.54,12.86-5.05,1.14-1.13-.22-17.72-4.6-19.15C30.24,60.47.04,41.69,0,39.6c-.07-3.83,8.05,2.16,8.92,2.73,6.45,4.19,28.08,18.51,30.91,24.08,4.38,8.61,1.24,15.76,1.78,24.88.63,10.54,6.11,34.25,10,44.15,1.62,4.13,4.7,7.01,9.2,7.87-.87-7.86,1.87-15.62.01-23.32,2.73.76,3.03,1.9,3.32,4.57,1.12,10.16-4.89,32.69,12.97,27.97.85-4.79,1.51-25.71,4.11-28.38.98-1,1.6-.95,2.92-.82-.75,9.54-5.21,24.4-3.15,33.56,1.12,5,8.34,7.92,12.74,4.75,8.59-6.18,4.13-31.31,12.73-42.25.79-1,.96-2.27,2.68-1.89-.61,3.13-2.8,5.51-3.26,8.82-1.04,7.59,1.5,15.53.75,23.24-.68,7.01-8.23,17.11,3.32,19.25,7.48,1.39,11.96-8.78,13.75-14.68,3.25-10.71,3.24-39.76.89-50.83-2.48-11.7-16.28-30.26-23.59-40.56-5.26-7.4-12.01-17.15-17.71-23.94-8.58-10.22-20.52-18.64-29.57-28.75-1.33-1.49-8.15-8.83-7.07-10,1.36-.23,2.25.64,3.26,1.31,5.86,3.89,31.69,29.63,36.71,35.77,9.1,11.14,35.92,47.92,40.05,59.93,2.06,6,2.29,12.44,3.92,18.58,1.37,5.17,8.52,26.47,11.18,29.65l53.19,38.86ZM38.32,86.67h-4.17c-.81.36,3.71,3,4.16,2.49v-2.49ZM40.81,110.82c.63-.68-2.34-17.15-2.91-18.32-.62-1.28-6.64-4.48-7.91-3.81-5.04,2.62-3.66,14.34-1.15,18.7,3.72,6.45,5.95,1.27,11.97,3.43ZM129.14,123.32v12.91c0,.34,4.78,3.73,5.84,3.32-1.38-4.65-2.61-9.43-4.39-13.94-.35-.89-.24-2.48-1.45-2.29ZM142.47,151.64c-.16-2.09-3.06-3.68-4.61-4.96-.87-.71-8.2-6.48-8.71-5.86.2,1.4-.47,3.68.18,4.82s10.82,7.5,13.14,6ZM201.63,189.13c2.28-16.35,4.35-31.88,10-47.48l-5.59,11.48c-1.91,6.99-2.85,14.17-4.64,21.19-.57,2.25-4.26,11.2-3.57,12.31.17.27,3.61,2.64,3.79,2.5ZM102.48,143.32v6.66s.84,0,.84,0v-6.66s-.84,0-.84,0ZM134.93,152.55c-.22-.32-5.79-2.83-6.61-4.23.85,2.65-4.59,13.5-4.16,14.1.22.31,5.69,2.68,6.64,3.39-1.08-2.43,4.6-12.59,4.13-13.26ZM279.97,268.26c-19.91-33.15-52.9-55.91-83.42-78.62-16.73-12.45-33.73-25.08-51.2-36.28-1.22-.2-7.1-.3-7.74.1-.59.36-4.9,12.19-4.93,12.92-.07,2.12,2.67,4.83,3.07,7.41.35,2.22.21,5.94.04,8.27-.27,3.58-2.9,8.59-.42,11.28l35.17,23.97c21.33-12.42,37.28,1.2,44.22,21.61.39,1.14-.03,2.69.36,3.8.61,1.71,18.17,10.7,21.21,12.12,13.78,6.4,28.46,11.6,43.63,13.44ZM224.13,189.13l5-22.48-4.58,13.32c-.28,2.1-1.05,4.16-1.23,6.28-.08.91-.61,3.1.81,2.89ZM299.55,179.97c3.8-.43,8.21.31,12.08,0-1.37-1.92-5.76-2.97-8.01-3.24-3.54-.43-17.66-.64-19.92,1.56-.66.64-2.88,6.11-2.48,7.52,5.48-1.85,12.66-5.2,18.32-5.84ZM314.79,181.82c-4.43-2.59-32.47,3.04-36.04,7.35-1.92,2.32-4.2,7.86-6.44,11.06-6.5,9.3-7.12,8.66-15.96,14.03-4.31,2.61-7.57,6.88-13.04,6.94,2.46,1.75,10.87,10.98,12.96,11.28,2.64.38,15.14-6.48,18.43-8.21,10.04-5.29,36.28-19.98,41.43-29.38,1.2-2.2,2.2-5,1.34-7.41-1.46-1.02-11.87,5.44-13.98,6.42-10.65,4.95-21.73,8.98-32.09,14.57l-3.08.25c14.54-7.68,29.52-14.45,44.41-21.41,1.93-.9,5.28-.22,3.89-2.73-.25-.45-1.67-2.67-1.81-2.75ZM354.96,239.96c-8.69-2.19-31.78-10.43-23.2-22.79,5.76-8.31,30.28-10.55,40.06-14.93,18.74-8.38,2.21-15.07-9.17-17.04-16.16-2.81-21.32,1.81-33.25,10.46-1.9,1.38-8.64,4.7-9.24,5.34-.74.79-.95,3.08-1.84,4.41-11.37,17.1-33.64,28.25-51.66,37.08l.38,2.46c2.97,3.01,19.7,24.05,17.91,26.66-11.24.31-23.01-3.13-33.54-6.87-3.64-1.29-13.94-6.78-16.66-6.32-14.05,6.44-28.05,15.4-43.19,18.58-1,.57,1.55,12.88-8.77,15.35-3.71.89-9.23-.53-11.45.21-1.03.35-2.62,4.78-7.49,6.68-4.19,1.63-7.5.77-10.04,1.63-.9.31-2.97,5.35-4.66,7-14.18,13.86-63.46,14.46-57.33-15.66,1.85-9.12,16.18-10.4,17.74-13.08,1.36-2.32-.37-7.43,3.29-10.87,5.68-5.34,14.85-2.05,16.99-3.42.49-.31.97-4.52,2.65-6.1,6.35-5.99,24.74-1.8,32.46.37-5.19-12.61-9.09-29.36,2.5-39.57l-1.25-.42c-51.58,22.15-104.74,41.15-155.82,64.15l-1.88,2.93c1.74,2.18,4.13,5.14,7.3,4.24,24.59-10.97,49.11-22.95,74.97-30.49l-74.15,32.47,22.91,10.78c5.3-3.61,39.1-19.36,42.91-14.93,2.73,3.17-14.7,12.99-17.27,13.98-.76.29-2.13.67-1.9-.65,4.58-2.82,11.95-6.09,15.76-9.66.87-.81,2.83-3.04.48-2.86-8.61.66-28.93,9.53-36.72,14.09-.77.45-1.63-.42-1.19,1.74,23.59,10.39,46.55,22.31,69.58,33.88,18.84-9.37,37.7-19.45,57.9-25.53l-54.99,25.83c-.98,1.3,26.64,13.84,28.81,14.98,2.38.16,20.38-11.1,24.25-13.17,19.57-10.44,39.39-20.71,59.43-30.13-4.44,3.34-9.85,6.3-14.73,9-21.43,11.86-43.7,22.24-65.22,33.93l-.87,2.04c10.14,3.12,20.05,2.24,29.46-2.61l192.47-97.48c11.65-6.35-5.7-14.59-11.45-14.01-1.76.18-13.93,6.29-16.63,7.6-10.48,5.1-20.32,11.77-31.36,15.7,4.96-4.75,11.94-6.5,17.48-10.42l29.18-14.55ZM221.63,204.13l.83-10.83-2.46,8.02,1.63,2.81ZM213.3,198.3c.55-2.67-1.85-4.1-4.16-4.16.92,1.59,2.57,3.24,4.16,4.16ZM257.47,234.13c-.27.36,5.78,6.44,6.23,6.45,1.35.03,20.93-11.08,23.7-12.78,11.5-7.07,27.88-17.82,30.06-32-1.96,1.52-3.28,4.4-5.08,6.16-3.77,3.71-9.68,7.9-14.15,10.84-12.46,8.21-27.17,15.23-40.76,21.32ZM335.9,228.18c1.18.69,8.31-3.9,10.54-4.67,6.98-2.4,29.77-5.28,33.07-11.93.72-1.46,1.92-9.91,1.28-10.79-8.03,8.95-41.67,10.02-46.7,18.7-1.35,2.33.14,7.72,1.81,8.69ZM257.47,209.12c1.96,1.81,7.08-4.96,4.99-7.49-1.5.19-5.45,7.06-4.99,7.49ZM233.1,205.16c-1.87-1.88-6.5-1.09-6.49,1.88,0,2.2,5.06,4.75,6.68,6.25.71-2.2,1.6-6.33-.19-8.12ZM241.84,216.42c5.29,5.21,9.62-7.33,5.62-9.41-3.47-1.81-8.61,6.47-5.62,9.41ZM196.64,218.3c-1.09-1-11.26-3.19-13.33-2.5l8.86,4.76c.48.01,6.36-.52,4.47-2.26ZM195.32,227.94c-18.7-19.42-36.5-4.85-30.77,19.52.69,2.94,3.23,10.27,5.04,12.46,2.09,2.53,6.65,3.64,9.49,5.51,6.73,4.43,13.29,12.42,21.44,5.06,11-9.92,3.8-33.2-5.2-42.54ZM206.64,229.94c.76-1.08-5.39-8.14-6.68-8.72-.94-.43-6.73-1.39-5.81.81.42,1.01,3.87,3.65,4.97,5.03,4.66,5.9,8.7,13.49,9.81,21.02.41,2.8-.14,5.62.21,8.13.15,1.1-.44,1.49,1.25,1.24,1.01-.15,9.65-4.06,11.02-4.81.96-.52,1.41.04,1.06-1.85-4.61-1.28-5.94-4.17-10.83-1.69,2.02-3.22-.91-14.16-2.92-16.65-1.47-1.82-3.61-.19-5.41,0l3.33-2.51ZM231.63,255.79c-2.2.07-5.39-3.03-7.08-3.03-.65,0-10.62,4.66-11.83,5.35-4.03,2.31-5.2,5.82-6.07,10.16l24.98-12.48ZM7.49,290.76c-.01,5.21-.63,10.92,2.47,15.43,46.49,24.51,93.8,48.57,141.33,71.13,7.95.69,14.75.09,21.73-3.96l196.4-101.89c4.72-3.45,3.8-10.53,3.87-15.7-16.33,9.92-33.71,18.43-50.79,27.11-49.24,25.01-98.95,49.14-148.06,74.4-21.93,11.92-41.92-6.06-61.55-14.05-1.71-.19-1.09.08-1.25,1.24-.38,2.72,1.3,7.24-1.66,8.77-.59-3.36,1.38-10.3-1.34-12.41l-68.27-33.39c-2.13-.63-1.16,5.53-1.23,7.07-.04,1.01.63,3.1-.82,2.9-1.43-2.72-.07-9.98-1.23-11.69-.68-1.01-19.32-9.2-22.12-9.95l.88,3.69-.87,8.79c-1.85-3.67-.78-10.43-1.8-13.61-.46-1.44-4.44-2.6-5.7-3.88ZM139.76,259.31c-10.63,1.76-3.47,8.44,1.61,12.15,9.3,6.8,31.78,14.13,43.01,11.63,6.68-1.49,2.99-7.25-.22-10.25-8.75-8.17-32.7-15.47-44.4-13.53ZM148.72,291.6c4.1.42,8.75-.31,12.92,0-.22-1.45-1.66-1.46-2.69-1.9-5.3-2.25-12.6-5.53-18.14-4.78l1.66-1.24c-1-2.22-3.65-1.6-4.77-2.31-1.4-.89-2.14-5.2-6.88-2.7l4.99,3.74c-2.51.77-8.9-3.56-6.67-5.82.44-.44,3.53.92,3.34-.83l-4.16-1.26,2.5-.42c.24-.2-1.88-5.8-2.18-5.88-3.2-.89-14.07.17-14.52,4.66-.95,9.52,27.46,17.98,34.61,18.71ZM176.64,286.6c-16.15-1.07-32.39-7.1-44.16-18.33,1.77,7.04,10.1,11.34,16.23,14.17,8.5,3.93,18.53,6.82,27.93,6.65v-2.49ZM156.64,294.93c-16.01-.44-33.21-4.34-44.16-16.66,1.13,7.54,10.05,11.39,16.45,13.95,8.83,3.52,18.18,5.37,27.71,5.21v-2.49ZM114.98,289.09c-1.43-1.39-3.73-5.74-5.36-5.81-1.52-.06-8.41,3.24-9.92,4.29-4.81,3.33-6.82,8.33-2.58,13.13,8.56,9.73,38.25,8.8,47.86-.37-3.44.15-10.56-3.57-13.08-3.59-1.28-.01-2.45,1.86-2.74,1.51.42-2.47-.63-2.86-2.85-3.36l-2.16,4.19c3.06-10.66-8.34-3.92-14.17-7.5.72-2.15,2.95-2.73,5-2.5ZM178.31,289.93c.27.37,9.43-2.21,7.48-4.16-1.54,1.08-9.85.9-7.48,4.16ZM118.31,291.59c-.81-2.35-3.79-1.6-5.83-1.65.81,2.35,3.79,1.6,5.83,1.65ZM165.81,294.1c-2.3.55-4.65.56-6.98.82-.94.11-.6,2.4-.51,2.5.28.31,7.26-1.77,7.49-3.32ZM143.31,307.42c.91.91,5.9-4,4.99-4.99-.95.44-6.2,3.78-4.99,4.99ZM142.47,306.59c-9.01,3.66-19.03,4.97-28.77,4.19-5.96-.48-10.85-2.75-16.22-5.02,7.7,10.38,34.6,9.14,44.43,3.34,1.13-.66.44-1.49.56-2.51Z"/>
  <path d="M121.64,214.95c-11.62-5.33-22.56-12.61-33.26-19.64-9.67-6.35-19.57-13.01-28.4-20.33l61.66,39.97Z"/>
  <path d="M107.48,219.11c-11.5-4.69-22.37-11.85-31.66-19.98l26.92,15.98,4.74,4Z"/>
  <path d="M122.48,204.12c-9.65-3.91-19.88-10.43-27.5-17.48l27.5,17.48Z"/>
  <path d="M90.82,115.83l-2.5-14.16c3.73,2.06,6.1,11.31,2.5,14.16Z"/>
  <path d="M262.46,124.16c-3.47-3.33-5.89-4.65-10.82-3.74,3.39-4.12,10.81-1.65,10.82,3.74Z"/>
  <path d="M237.47,117.48c-3.71-1.67-7.08.07-10.83-.4,2.65-2.78,9.04-3.5,10.83.4Z"/>
  <path d="M55.81,115.82c-4.5-1.02-5.67-5.05-4.99-9.15,1.81,1.03,1.63,4.16,2.6,6.13.37.76,2.74,2.69,2.39,3.02Z"/>
  <path d="M278.29,134.99l-4.99-6.66c3.5-.65,4.82,3.98,4.99,6.66Z"/>
  <path d="M120.8,149.98c.37,2.17-.33,1.49-1.8,1.9-2.91.83-5.12.97-7.36-1.49,3.18-.29,6.01,1.12,9.16-.41Z"/>
  <path d="M71.64,115.83c-3.58-1.8-3.57-5.64-3.32-9.16l3.32,9.16Z"/>
  <path d="M119.14,106.65l-5.83-6.65c4,.07,4.68,3.62,5.83,6.65Z"/>
  <path d="M221.63,158.32c-.27,1.7-7.52.78-6.66-1.67l6.66,1.67Z"/>
  <path d="M266.63,173.3c-1.55-.51-6.36-.79-5.83-3.32,2.38-.2,4.8,1.18,5.83,3.32Z"/>
  <path d="M244.97,168.3c-.68,0-8.63-1.56-6.66-3.32.28-.25,6.54,1.77,6.66,3.32Z"/>
  <path d="M92.47,159.14c.66,3.12-6.53,1.86-7.49.41l7.49-.41Z"/>
  <path d="M245.8,162.47c-1.68-.32-5.72,0-6.66-1.65,2.15.15,5.61-.94,6.66,1.65Z"/>
  <rect x="216.32" y="159.62" width="1.46" height="5.72" transform="translate(16 344.38) rotate(-78.96)"/>
  <rect x="271.35" y="271.32" width="86.81" height="2.21" transform="translate(-88.82 170.35) rotate(-26.68)"/>
  <path d="M259.13,284.94l-9.14,5.42c-23.04,11.94-47.07,21.73-70.53,32.78l-3.64.93,9.82-5.58,73.5-33.55Z"/>
  <path d="M353.08,190.17c14.79-2.53,15.95,10.46.64,8.96-8.53-.83-9.69-7.41-.64-8.96ZM362.46,194.14c-3.69-.47-6.71-.69-10.41.02-1.34.26-1.44-.58-1.26,1.63,3.51.06,9.1,1.6,11.67-1.65Z"/>
  <path d="M309.13,234.12c-5.46,5.56-13.89,7.49-18.33,14.15,13.17-1.56,24.55-9.68,36.55-13.85,1.4-.49,2.72-.74.93.93-12.44,5.94-25.13,13.7-39.15,14.59-3.47-3.31,16.73-15.73,19.99-15.82Z"/>
  <rect x="67.68" y="260.52" width="76.13" height="1.87" transform="translate(-95.31 63.67) rotate(-23.45)"/>
  <path d="M239.97,274.94c-4.04,3.43-9.83,5.84-14.7,8.2-7.56,3.67-15.65,7.59-23.63,10.11l17.19-9.04c7.21-2.51,13.75-7.51,21.13-9.27Z"/>
  <path d="M146.64,235.79c-4.7,4.07-11.49,6.69-17.5,8.31,4.65-4.02,11.71-6.27,17.5-8.31Z"/>
  <path d="M236.63,269.11l-14.16,6.65c3.57-3.13,9.39-6.27,14.16-6.65Z"/>
  <path d="M157.47,364.91c-.05,2.07.09,4.17,0,6.25-.04,1.01.63,3.1-.82,2.9-.76-2.52-1.21-5.28-.84-7.93.15-1.14.6-2.62,1.66-1.23Z"/>
  <path d="M259.13,257.45c-.46,1.71-4.79-.11-5.83-.42-10.64-3.26-20.77-9.27-30.58-14.41l-5.24-4.33c13.88,6.37,26.88,14.85,41.65,19.17Z"/>
  <path d="M172.46,212.46c-9.26-6.34-20.84-12.17-29.26-19.49-.81-.7-2.11,0-1.56-2.17,8.68,5.86,18.09,11.03,26.58,17.15.72.52,5.31,3.49,4.24,4.5Z"/>
  <path d="M139.13,172.47c-1.4.23-.93-2.05-.83-2.91.4-3.46,2.16-7.43,4.99-9.58l-4.17,12.49Z"/>
  <path d="M277.46,214.13c.21.22-.12,2.52,0,3.32h-3.33c-.23-1.63,1.8-4.89,3.33-3.32Z"/>
  <path d="M261.63,222.45c1.72-2.6-.53-.78-.82-2.48,4.63-2.27,6.09,2.65.82,2.48Z"/>
  <path d="M289.96,192.46c-1.33,1.57-4.26-1.01-4.16-1.24,1.23-2.9,5.37-.19,4.16,1.24Z"/>
  <path d="M189.14,249.11c-.59-1.93-2.19-6.93-.41-8.33,1.61,3.34.61,8.16,4.57,9.99.83-1.51-1.07-7.2-.82-7.49,1.87-2.19,3.18,5,2.06,7.48-1.53,3.43-3.89-.22-5.4-1.66.77,2.54,3.25,6.09,3.35,7.13.72,7.48-11.79-1.96-7.93-7.13l2.08,2.08c-4.11,1.08,1.56,7.35,5,6.24-3.39-2.89-2.56-6.07-5.01-9.56-.29-2.81,2.14.88,2.51,1.24Z"/>
  <path d="M181.63,248.29l-4.99,2.08,4.99,1.25c0,1.66-4.76.15-4.16,2.89.53,2.4,6.45,2.67,7.49,4.58-6.3.47-6.68-1.87-8.64-6.39-.16-.36-2.46-.19-.96-2.79,1.23-2.13,4.14-1.7,6.27-1.63Z"/>
  <path d="M184.14,233.28c.48.49,1.65.7,2.07,1.64,1.17,2.61.67,7.24-1.65,9.17-3.06-1.24-4.62-11.05-2.9-12.48,2.17-1.8,2.35,1.53,2.48,1.66-2.77-2.68-1.83,8.91.82,9.16,1.33-1.93.52-7.86-.82-9.16Z"/>
  <path d="M181.64,245.77l-5.83.83c2.1-2.75,2.84-5.68,2.49-9.15l-2.09,1.62-2.06,5.87c-1.38-3.31.34-6.9,2.92-9.15,5.02,1.36,1.2,6.77,1.26,7.92.07,1.3,3.32.28,3.31,2.07Z"/>
  <path d="M163.31,264.95c-1.15,3.22-3.71-.44-5.83,0,.47,1.85,5.53,2.96,6.67,2.48l.82-1.66c.35,6.16-5.91,1.09-9.16.84,2.51,2.87,5.34,4.05,5.83,8.32-5.42.85-6.44-2.3-9.16-5.82,2.19-1.17,2.73,1.75,2.91,1.65,5.03-2.63-4.85-3.58-6.24-5.42,4.68-1.35,9.41-1.71,14.16-.4ZM159.97,274.09c-.41-1.6-1.84-1.88-3.33-1.65-.86.4,2.24,1.99,3.33,1.65Z"/>
  <path d="M173.11,270.12c.22.19.6,1.13.64,1.45.35,2.87-7.5.31-9.6.85,1.44-3.3,4.95-.43,7.5-.83l-4.16-3.32c1.4.24,4.7,1.05,5.63,1.84Z"/>
  <path d="M170.62,275.53c.23-.11,1.24-3.85,3.51.22-3.07,1.09-8.55,1.86-9.16-2.49.35-.37,3.28,3.4,5.64,2.27Z"/>
  <path d="M113,294.38c2.14-.14,9.66,1.67,8.27,4.73-2.19,4.8-19.33-3.98-8.27-4.73ZM119.97,299.09c-.52-4.28-6.13-3.28-9.16-3.32.58,1.22,3.97,2.27,5.24,2.66s2.45.95,3.92.66Z"/>
  <path d="M297.47,218.29c-.69-2.18.47-4.5,2.89-4.17,3.44.47-2.54,4.66-2.89,4.17Z"/>
  <polygon points="272.46 230.79 272.46 234.12 269.14 234.12 272.46 230.79"/>
  <path d="M214.15,263.27c-.72-2.2-.7-3.15,1.65-4.16.08,1.55.25,3.66-1.65,4.16Z"/>
</svg>