<?xml version="1.0" encoding="UTF-8"?>
<svg id="Layer_1" data-name="Layer 1" xmlns="http://www.w3.org/2000/svg" viewBox="0 0 361.72 431.49">
  <path d="M239.05,308.28c-2.42,1.51-13.11,6.85-13.68,9.01,1.23,12.88.73,26.11,1.07,39.13,16.15-16.15,138.02-21.42,135.22,11.69-.42,3.97-2.93,7.13-3.36,9.25-3.63,14.29-.96,33.2-7.76,46.1l-.88-2.54,5.74-41c-35.11,20.7-87.18,16.25-124.39,2.87,18.63,12.45,41.38,19.66,63.63,21.77.96.72-.07,1.05-.85,1.15-22-1.1-43.57-9.71-62.77-20.06,1.35,15.29,4.5,30.52,5.73,45.84-7.18-.82-6.82-43.68-10.46-52.29-.96-4.01-4.3-4.8-4.38-11.1-.06-4.16,2.66-8.73,2.73-10.8.15-4.61-.99-10.8-1.09-15.48-.58-4.06,2.74-30.35-3.74-15.25-1.06,1.06-6.62,8.12-7.7,5.2l2.03-1.12,5.41-6.91c-3.1,2.39-5.36,5.84-9.2,7.23.47,26.02,1.91,52.2.6,78.16-3.49,1.18-1.55-75.44-2.28-77.37l-6.77-.19-20.77,12.03c.19,8.29-1.29,16.53-.29,24.86,1.11.94,30.59,10.2,23.18,10.64-3.68-.63-7.16-2.51-10.83-3.21l3.43,20.63c-3.85-4.71-4.24-17.02-6.03-21.76-1.5-2.2-11.64-2.69-12.64-5.73-.56-3.21,2.18-23.21-.51-22.94-10.24,7.11-23.9,12.42-32.29,21.59.11,17.65,1.78,35.54,1.06,53.21-.08.88.09,2.06-.9,2.54-1.16.57-1.41-3.68-1.45-4.27-1.17-16.13.19-34.49-.63-50.38-.41-1.52-3.02.46-3.9,1.11-2.36,1.73-4.18,5.94-7.49,4.55l6.88-6.01c-.71.3-3.02.68-3.45.94-.36.22-4.69,3.94-4.86,4.21-1.41,14.33,1.24,30.96,1.45,45.53.09,3.19.56,7.9-.89,10.62-3.7-20.47-2.32-42.07-3.22-62.95l-20.56-2.38,1.15,57.54-1.72.34-1.73-57.88L1.15,353.54c1.18-2.09,4.59-.85,6.59-1.13l131.31,13.03c1.81-.32.27-5.12.24-6.42-.79-11.81,1.87-12.22,11.68-17.6,34.45-16.09,65.42-39,99.55-55.5-34.96-7.85-73.31-9.92-109.21-14.32-13.43-2.01-28.98-.29-41.55-4.88-.66-1.27,1.94-.89,2.57-.85,26.11,2.02,52.31,4.42,78.25,8.02l1.67-15.1c-.42-1.5-9.9-3.59-9.73-10.4,2.07-8.63-4.21-6.48,3.45-14.98-6.95-8.17,2.9-14.02,9.8-17.14l-12.91-22.61c-3.17,6.48-4.03,14.29-7.43,20.65-10.4,18.21-47.56,30.42-63.24,43.95-3.42,12.24-5.21,9.67-13.31,17.64,2.12-.3,7.35,2.17,8.81,1.88,3.28-2.94,10.2-7.09,13.87-2.21,1.21,1.68.47,2.74,1.1,4.06,14.1,10.27,11.14,20.22-2,29.79l15.48,2.3c.37,2.35-14.4-1.05-15.63-1.18-.5-.22-.38-1.18-.7-1.12-.94.17-2.33,2.02-3.21,2.53-1.57.91-3.74,1.56-5.43,2.57-.35.21-1.87.21-.82,1.2,3.38-1.45,10.71.26,14.23.98.99.3,1.5-.2,1.24,1.31,0,0-17.49-2.18-17.49-2.18-18.98,6.23-39.2,8.11-58.87,3.73-5.94-1.4-10.23-2.5-16.5-2.7-.1-3.12,5.75.93,6.87-1.14-4.62-.65-5.89-3.78-8.89-6.3-35.28-20.33,17.19-35.04,35.27-34.98-1.06-3.37-1.56-5.68-.1-8.98.43-.98,9.78-14.16,10.46-14.75,2.61-2.28,14.79-5.78,19.08-7.86,20.05-9.71,33.54-35.75,51.64-48.66l5.82-32.37c-.14-.91-1.92-1.68-2.33-2.56-.97-2.1,2.39-12.15,2.98-15.34,2.97-25.26,3.12-29.1,25.96-41.95-5.57,1.86-8.22-3.96-11.45-7.19-7.16-7.17-12.74-11.45-15.24-22.02-.58-1.95.42-6.55-2.55-5.76,1.56-4.01-1.05-4.61-3.36-7.81-1.17-1.79-1.54-4.7-4.09-5.94-.26,2.43,2.38,4.58,1.43,6.87-13.3-10-11.9-26.83.53-36.72,11.21-20.27,39.72-30.11,60.9-18.39,1.71.94,6.16,4.79,7.04,5.02,1,.26,2.16-.39,3.92.04,5.06,2.09,2.28,3.59,7.82,2.47,35.4,4.48,10.12,52.06,36.43,53.89.9,3.5-5.24,3.53-5.73,4.01-1,.99,3.25,2.37,3.83,3.03,3.06,3.49-4.06,2.98-4.4,3.27,2.25,5.55-7.85,3.8-10.91,3.17-1.28-.24-3.21-1.48-4.3-1.41-3.78,3.1-11.21-1.78-14.32-4.62-1.98.53,6,7.84,6.42,7.9,3.3.95,8.8.77,12.69,1.64,25.52,10.72,37.85,4.15,55.02,30.39,2.99,4.15,12.49,17.09,13.99,20.97,1.19,3.08-.75,3.67-.61,4.61s7.41,12.16,8.61,14.33c5.45,9.88,17.36,31.04,17.12,41.91-.15,6.5-11.96,18.48-16.95,22.65-3.54,2.27-9.9,9.42-14.03,9.19,5.92,7.55,10.35,16.06,14.62,24.63,14.12-12.88-5.37-16.34-7.74-28.65,4.49,6.2,18.53,15,14.03,24.06-.85,2.23-4.77,6.16-4.87,7.19-.08.74,2.77,11.2,3.28,12.76.62,1.91,2.5,3.15,1.8,5.44-.27.86-1.51,1.24-1.63,2.42,1.96,9.83,2.1,20.58,1.15,30.66-2.08-1.77-.98-6.16-1.15-8.88-.46-7.36-1.54-14.7-1.71-22.07-7.69.66-10,1-15.47-5.15.85,7.3,1.82,14.22,2.82,21.5-.19,3.66,4.64,21.43.04,21.48-2.33-22.09-4.19-44.35-9.76-65.9-26.72,25.77-72.01,28.23-104.9,13.76,1.59,3.78,1.94,10.48,3.44,13.89.07,1.5,62.1,8.98,62.79,9.58-.2,3.81,1.68,11.11-.04,14.33-1.2,2.11-13.11,7.17-15.18,9.76,3.9-.98,2.16,33.33,1.71,37.25-4.43-9.84-.42-26.09-1.71-37.25ZM201.79,40.09c6.65,5.94,7.07,15.19,3.03,22.63.02.3,3.37,4.4,3.87,4.6,3.61,1.51,2.68-4.92,3-6.76,19.27-47.49-42.07-81.29-68.66-40.55-1.08-.78,3.65-6.72,2.3-6.3-3.05,1.88-5.34,4.69-7.17,7.74l2.86.85c-12.77,4.28-18.07,21.36-9.75,32.1-1.48-8.29.79-19.39,9.09-23.01.64-1-.76-4.34.66-5.07.69,8.62,8.98,20.43,17.77,20.92-1.8-1.83-8.81-9.54-7.74-11.75,5.8,7.03,13.78,15.33,23.79,14.04-4.44-1.7-24.44-16.23-21.22-20.92,7.82,12.29,22.25,24.29,37.84,21.19,0,0-7.98-3.76-7.98-3.76-1.25-.5-11.05-7.89-7.22-8.26.75.32,6.21,6.65,7.17,5.72-4.23-9.99-8.31-18.11-17.77-24.06,17.1,2.37,14.38,26.21,26.23,27.97,2.19.41,2.02-3.7,4.16-5.32,1.58-1.2,4.39-1.05,5.43-2.02.63-.59,3.36-5.88,3.86-7.03.61-1.42-.02-3.97,2.17-3.85-.98,3.74-1.73,9.35-5.73,10.89ZM210.95,21.17c.56-4.19-1.04-8.7-5.73-9.16l5.73,9.16ZM228.73,46.1c-.28-2.78,0-6.28,0-9.17,0-.43-1.3-1.42.57-2.01.51,9.48,1.28,20.02,8.6,26.93-3.92-8.64-1.88-18.04-3.71-26.94-2.25-10.89-9.98-20.9-22.08-20.05.79.95.87,5.32,1.22,5.65.44.42,3.98.32,5.92,3.54.42.7,1.79,3.13.32,3.41-.57-3.11-3.49-4.9-6.03-6.3-1.42,2.62,1.44,2.61,2.87,4.01,2.73,2.68,5.43,6.71,6.03,10.59-1.24,2.69-3.39-8.21-8.03-10.02,4.98,10.67,3.75,21.1.86,32.1-3.25,5.66-1.97,11.15,2.87,15.45,1.51,1.24,10.62,5.97,6.58,1.17,2.7-.29,4.28,1.84,6.75,2.7,3.23,1.13,7.86,1.96,11.02.45l-3.44-3.15,7.46-.29c.02-.44-6.94-3.15-6.89-5.15-.01-.6,5.15-.18,6.04-.29,3.38-.43-1.68-1.62-2.15-1.87-9.15-4.41-13.39-10.91-14.77-20.77ZM149.62,78.76c-.53-1.85,0-9.42,0-12.03,0-2.29-1.97.79-2.13.9-1.19.78-2.32-.05-3.6-.03,1.53,11.3,8.72,19.66,16.92,26.92,3.28,3.37,2.83,6.28,9.1,5.68,9.3-1.86,25.06-17.71,26.72-27.44.43,8.67-8.26,16.1-13.17,22.65v.83c2.94.95,12.46,12.82,8.59,14.91-1.04-5.04-4.43-9.5-9.17-11.46-3.47,19.39,3.41,48.46,28.9,42.36,5.68-1.24,9.71-5.72,13.51-9.7l-1.72,4.3-5.73,4.87c.78.09,10.83-1.89,8.59.58-18.82,3.64-38.44,2.93-57.32,0-5.13,46.63-.52,34.85,18.97,73.31,4.74-.66,18.84-6.89,22.3-4.25.18,2.24-15.17,3.6-18.21,5.28-8.03,2.69-25.98,10.57-9.69,17.45,22.44,9.48,73.39,5.8,95.53-4.42,20.48-9.46,7.95-16.34-7.15-18.66-5.46,4.25-7.31,18.74-15.9,17.39-1.47.41-3.05,2.67-4.78,2.74-4.14-1.25-2.2-2.16-5.75,1.06-3.19,1.7-4.43-.65-5.58-.41-4.47,4.07-19.92,5.17-22.71-.96-1.11-2.98-2-9.8-2.7-13.35-.82-4.18-4.69-22.31-4.18-25.01,1.07-5.68,19.25-6.43,23.77-6.03,12.95,1.16,11.3,6.18,9.47,17.18,11.49.09,6.57.56,17.05-3.3,5.49-.87,12.48.54,14.47,6.46.59,1.76-3.29-.93-2.86,1.99l8.8,1.76c.7-1,5.54-8.7,4.96-9.21-27.53-5.04-37.25-39.41-43-63.04-4.9,1.3-9.71,3.67-14.9,3.44l1.14-30.37c-6.19,5.66-14.65,7.63-20.63,13.18.37-5.42,6.73-6.26,10.7-8.5,3.4-1.92,6.71-4.09,9.97-6.22.77-2.94,3.73-23.96,2.83-24.82-.14-.14-1.73.09-2.29,0l1.71,2.28c-10.27-.22-18.38-9.76-21.35-18.77-2.95-.48-2.97-2.94-4.79-4.13-.41-.08-6.01,4.82-7.63,2.22-1.44-2.31,1.86-1.44,3.09-1.68,5.63-1.1,8.3-21.31.59-21.82-4.98-.33-4.86,5.12-6.9,7.49-.82.96-2.48,1.06-2.57,1.17-.19.23,2.41,4.75,1.44,5.72-8.8-9.29-12.69-3.47-23.78-6.03-1.24-.33-4.07-2.04-4.87-2.02-.38.01.19,1.27-1.68,1.21-9.29-.32-19.02-9.9-21.84-18.36-6.95,5.85-2.96,16.98-1.38,24.58,7.43-.81,11.74,4.38,12.49,11.3.31,2.9-.95,9.4,1.37,10.67.35.19,6.77,1.66,3.01,2.16-1.59.21-5.51-.2-6.03-2.01ZM134.72,40.66c-1.59-.31-.93.42-1.34,1.24-1.39,2.78-.22,5.64.77,8.5,1.93-.5-1.04-7.55.56-9.73ZM149.05,64.14c-.99-5.24-4.69-4.7-9.17-4.57,2.85,4.27,3.33,6.45,9.17,4.57ZM242.39,88.31l-10.79-3.53c1.49,2.13,1.25,4.67,1.17,7.18-.5,15.66-5.45,32.38-3.18,47.81l10.64-3.2c-1.89-16.16.08-32.3,2.16-48.27ZM263.13,99.11c-14.4,16.52-5.83,41.74,6,56.79,1.92,1.43,15.08-5.02,17.67-6.48s15.7-10.18,15.05-13.11c-17.17-24.82-23.63-43.11-57.28-46.41-2.74,5.75-2.63,18.81-3.26,25.52.33,26.56,9.39,57.45,28.68,76.25,9.51,7.76,4.75,2.59,11.47-9.46-.58,4.66-2.6,9.52-5.1,13.47,0,1.39,8.04,4.29,9.68,3.72.56-.52-2.62-5.85-2.83-7.19-.69-9.17,3.35-12.86-4.28-20.36-1.39-2.06-7-11.7-8.08-12.56-1.17-.94-2.27-.28-3.03-.7-6.98-14.32-11.17-7.16-16.74-23.67,1.06-1.2.88-.08,1.19.54,2.35,4.66,4.54,9.36,9.11,12.36-7.66-13.14-12.35-38.7,1.73-48.71ZM181.72,97.97c-3.25.2-5.48,3.05-8.63,3.79-.01,5.18-1.2,10.29-1.68,15.41-1.2,7.48.99,16.52-2.87,23.2l10.31,1.15c-1.42-14.45.54-29.25,2.87-43.55ZM171.4,104.27c-29.15,12.41-21.3,26.72-28.62,52.47.29,4,19.36,9.58,22.23,7.34.19-.69.74-9.62.56-10.14-4.75-3.97-10.98-11.19-12.39-17.99-.12-.46-.38-1.92.45-1.01,2.7,6.42,6.46,12.6,12.03,16.9-.06-4.02-3.97-7.35-5.83-11.07-2.24-4.8-8.32-20.31-4.49-24.45.26,11.14,4.26,21.93,10.61,30.94,3.46-8.15,2.18-18.91,3.16-27.79.49-5.05,1.3-10.21,2.29-15.19ZM180.58,124.04c-1.1,4.33.82,13.19,0,18.05l14.34.29c-7.21-3.73-11.13-11.6-13.2-19.2-.16-.16-1.09.65-1.14.86ZM301.52,140.37c-1.45-.37-1.25,1.08-2.25,2.02-7.5,7.04-16.43,12.41-26.4,15.18,3.05,6.7,15.73,23.88,21.41,28.6,4.35-4.03,11.49-6.2,17.57-5.68.97.74-.07,1.04-.85,1.14-19.02-.5-20.12,17.06-29.52,28.95l7.76,4.84c2.34,4.05,4.76,8.04,8,11.44,7.31-5.38,28.06-21.58,28.97-30.6-1.04-18.02-16.35-39.92-24.68-55.88ZM165.1,166.74c-6.89-.21-13.68-1.36-20.06-4.02-1.77,8.97-2.48,18.8-4.76,27.62-1.68,6.5-9.4,11.72-14.18,16.77-12.76,13.52-25.48,31.05-42.59,38.8-2.91,1.32-14.33,4.97-15.71,6.36-.82.82-3.24,6.4-4.28,8.05-.89,1.41-5.95,8.18-6.06,8.77,1.15,3.93-.77,8.08-.13,12.25.39.46,5.17-3.17,5.55-3.62,1.74-2.07.84-4.33,1.62-6.12.66-1.5,8.96-8.68,10.6-7.45-2.21,4.04-7.91,5.83-9.74,10.31.77.76,10.69-9.52,13.18-7.74-10.66,8.5-20.35,18.83-31.94,25.95-4.67-.26-8.94,1.37-11.62,5.28l5.16-2.86-1.14,2.86c1.17.46,2.18-1.71,2.58-1.7,3.26,2.48-.5,1.4-.28,4,1.45-.99,2.65-2.04,4.58-1.72l-1.71,2.3c-.1,1.09,1.16.52,1.69.26,4.33-2.12,4.63-7.64,8.61-11.45,6.82-7.02,24.83-13.66,25.85-22.84-.12-.55-7.46-3.14-5.78-4.95.44-.48,5.56,2.18,6.63,2.32s1-2.37,1.97-1.17c.57.71-.63,5-1.04,6.12-1.33,3.63-9.65,11.5-5.59,15.12,2.49,2.22,3.02-3.25,3.19-3.49,1.87,1.49,3.36-1.73,4.57-3.16,22.48-19.21,10-15.03,20.94-28.92l-1.15,5.15c18.84-11.75,51.5-25.14,61.49-45.13.81-2.07,5.7-16.6,5.65-17.63-4.45-6.72-7.93-16.01-6.08-24.34ZM287.19,181.63c-2.47-1.7-1.11,14.47-.56,16.04,1.06-.99,5.62-8.74,5.56-9.46-.27-1.33-4.91-4.83-5.01-6.58ZM237.54,212.81c1.18-.91,2.91-1.77,3.22-3.4-.88-3.17,1.65-17.33.03-18.91-3.78-3.71-26.33-2.89-28.97,1.44-.9,7.61,4.31,30.81,6.56,37.58,1.93,4.41,10.35,3.52,14.37,3.11-5.38-5-.33-12.13,2.17-17.02.73-3.25-.67-6.07,1.34-9.54,2.58-4.1-.71,8.1-.08,7.65.91,1.02,1.2-.79,1.35-.91ZM248.8,228.62c2.76,1.02,4.51-3.57,6.13-3.96,1.77-.42,1.75,2.67,5.32-1.5,6.79-10.8,19.19-26.24-5.13-19.46-3.29,1.3-15.64,9.93-17.77,12.61-1.83,2.31-8.42,13.73-2.6,14.08,4.25.25,4.77-4.64,7.46-6.92l-2.01,6.29c5.8,3.46,9.96-11.65,8.6-1.14ZM247.65,205.13c-3.84-.17-5.81-.66-5.15,4.01.32.36,6.25-3.03,5.15-4.01ZM310.12,255.52c-4.6-9.73-11.38-26.01-20.04-32.05-.13.09-1.63,2.54-1.67,2.69-.4,1.47,5.88,7.21,2.24,9.62l1.13.86c1.8-7.66,5.52,23.79,6.31,25.22,1.18,1.15,10.08-5.88,12.03-6.34ZM286.34,228.65c-29.27,24.32-75.16,23.59-107.79,6.29-10.31,7.08,1.12,11.77,8.08,13.7,23.99,6.66,72.65,5.13,94.64-7.31,4.6-2.22,11.59-8.49,5.06-12.68ZM275.17,233.79c-24.46,7.11-51.28,10.82-76.61,6.37-.64-.06-2.06-.53-1.93.49,25.4,6.23,55.56,7.07,78.53-6.86ZM289.79,238.47c-25.6,21.61-84.55,21.63-114.09,7.93-4.69,5.83,7.82,10.2,12.08,11.41,24.87,7.07,71.8,5.69,95.05-6.33,4.42-2.28,12.53-7.91,6.96-13ZM275.16,257.28c-23.31,6.61-47.93,9.13-72.01,5.79-.64-.06-2.06-.53-1.93.5,24.29,4.85,51.66,5.99,73.94-6.29ZM310.7,257.85l-12.02,7.16c3.61,5.14,8.85,10.11,15.5,6.83-.13-4.92-2.65-9.23-3.49-13.98ZM186.16,259.71c-.4-.31-1.54-.29-2.14-.71l-1.16,15.48,8.03.56c-1.47-2.01-3.8-14.59-4.73-15.33ZM76.43,301.21c3.27,2.72,10.66,2.15,14.11-.14,1.81-1.21,7.37-8.31,7.47-10.31.09-1.71-1.36-2.86.33-4.82.83-.96,19.1-8.81,9.69-10.3-7.71-1.22-10.03,6.53-15.2,8.8-2.83,1.24-6.26.57-9.16,1.16-6.5,1.32-13.51,10.4-7.24,15.61ZM55.61,276.76c-11.28.47-37.32,5-43.36,15.39-6.45,26.79,85.17,25.49,98.13,13.86,9.44-5.45,13.62-15.59,3.42-22.94-2.94-2.12-3.11.08-5.84,1.6-13.74,5.72-4.85,7.95-15.65,17.59,4.29-.2,10.69-3.43,11.42-8.03,0-1.29-2.21-3.16-1.68-3.72,1.02-1.07,3.29,2.37,2.75,4.74-5.2,11.08-29.48,13.3-40.27,12.99-2.68-.49-7.22-4.97-5.76-8,3.59-2.34,9.47-6.56,14.04-3.44-1.52-3.69,2.07-7.74,3.41-9.95-4.13-5.85-4.1-.03-7.69,1.35-1.38.03-4.62-3.05-4.87-2.86-.06.05-.04,1.01-.59,1.41-10.96,6.31-7.74,3.78-13.21,14.33-1.01.93-6.84,2.91-6.84,3.47l4,2c-3.4,0-6.22-1.78-9.74-1.14l1.14-2.28-4.58.56,2.29-3.43c-2.24.13-4.72,2.43-6.18-.28-.1-1.09,8.4-7.94,9.77-8.45,5.3-1.94,7.07.03,12.46-4.73,3.93-3.47,3.75-4.67,3.43-10.04ZM95.16,279.06c-9.05-1.86-7.59-1.8-13.76,5.15,4.69-1,11.82.57,13.76-5.15ZM70.51,280.77c-1-.27-4.13,1.87-3.43,2.86,3.18,1.15,4.82.69,3.43-2.86ZM252.23,286.5c-35.89,19.87-70.6,42.94-107.73,61.07-4.6,3.61-3.09,11.56-3.48,16.86l112.29-66.54-1.08-11.39ZM82.55,304.85c-2.78.52-7.34-1.8-9.21-3.69-2.06-2.08-2.16-5.57-7.28-3.39-1.83.78-.58,1.54-4.98,2.51s1.77,5.83,4.01,6.25c2.73.51,10.51-.28,13.72-.55.79-.07,3.46-.27,3.73-1.13ZM95.73,314.02c-22.98,4.28-47.55,4-69.93-3.44,16.27,12.7,51.08,9.38,69.93,3.44ZM278.49,346.27c-13.23,1.27-50.56,2.7-54.37,17.85-.98,9.93,3.19,12.08,11.29,15.71,22.6,11.64,120.45,19.96,125.2-14.51-8.13-20.77-62.6-19.4-82.12-19.05Z"/>
  <path d="M271.44,339.22c-1.25-.21-1.97-1.09-1.14-2.28,2.2-2.01,12.9-16.87,14.34-17.2,1.97-.6,2.56,7.57,3.13,8.58,7.35-8.15,26.25-13.56,36.55-18.19,2.07-.78,14.95-5.47,15.88-5.28,7.41,1.79-47.53,27.67-50.71,26.92,1.42,2.44,4.88,4.44,4.59,7.44-6.82-.81-16.15,1.09-22.64,0Z"/>
  <path d="M139.76,275.78c4.46-.35,18.95-.13,19.48,5.98-1.95,12.84-1.11,26.67-4.02,39.28-2.3,4.56-21.05,5.55-23.82,0-1.74-11.14-5.39-23.11-6.41-34.27-2.93-8.78,8.62-10.3,14.77-10.99ZM137.46,278.06c-2.54.29-10.29,1.92-10.77,4.74l6.44,37.1c1.43,4.06,17.45,3.34,20.4.02l3.48-38.76c-1.24-3.75-16.22-3.47-19.55-3.09Z"/>
  <path d="M137.59,350.12c.92.75-.07,1.04-.85,1.14-35.97-.68-73.2-9.03-109.51-12.03-4.28-1.11-26.84.65-26.65-3.44,45.91,1.76,91.41,9.23,137.01,14.33Z"/>
  <path d="M1.15,261.28v-1.71c1.68-.47,67.02.94,52.48,4.04-17.46-.24-34.99-2.03-52.48-2.32Z"/>
  <path d="M134.71,345.53c-20.14,1.01-44.68-5.04-65.63-6.89-1.72-.21-5.12-.29-6.02-1.71l71.65,8.6Z"/>
  <path d="M349.69,389.08c1.1.91-.86,1.23-1.14,1.41-10.43,6.9-24.96,9.57-37.26,10.61-.14-.85,1.08-.71,1.71-.86,9.22-2.09,17.52-3.31,26.53-6.72,1.45-.55,9.73-4.8,10.16-4.45Z"/>
  <rect x="38.75" y="314.81" width="1.57" height="40.27" transform="translate(-297.6 344.65) rotate(-84.92)"/>
  <rect x="261.21" y="295.34" width="33.69" height="1.46" transform="translate(-122.48 363.48) rotate(-56.35)"/>
  <path d="M265.42,403.42c-1.38,2.69-24.88-7.76-26.37-10.32,8.82,3.16,17,8.39,26.37,10.32Z"/>
  <path d="M308.41,330.63c-.26,1.39.92,8.51-1.42,8.02-.94-.19-2.93-8.89,1.42-8.02Z"/>
  <path d="M16.05,332.93c1.01,1.48-16.38.21-16.04-1.15,5.35-.09,10.74.43,16.04,1.15Z"/>
  <path d="M123.25,314.59c-1.59,1.88-11.12-.6-13.88-.74-.61-.1-2.28-.15-2.16-.98l16.04,1.72Z"/>
  <path d="M94.59,323.76c.15.98-1.36.61-1.99.56-2.81-.54-7.14-.1-9.47-1.71,3.9-.18,7.72,0,11.46,1.15Z"/>
  <path d="M172.55,320.31c-3.06.06-6.27-.44-9.17-1.42.59-1.32,9.01-.05,9.17,1.42Z"/>
  <path d="M102.04,319.18s.21,1.21-.27,1.13c-2.4-1.27-6.47.08-8.32-2.28,1.65.72,7.8.3,8.6,1.15Z"/>
  <rect x="93.19" y="316.35" width="1.06" height="9.73" transform="translate(-236.72 373.89) rotate(-82.79)"/>
  <path d="M140.45,372.47c1.64.82-4.51,3.16-5.15,4.01-1.14-1.51,4.32-4.67,5.15-4.01Z"/>
  <path d="M221.28,328.34l-5.73,5.72c.93-2.29,3.21-5.21,5.73-5.72Z"/>
  <path d="M163.95,316.3c.68,2.8-5.18-.28-6.87.57-.68-2.8,5.18.28,6.87-.57Z"/>
  <path d="M161.52,51.69c1.73-.25,6.57-.72,7.31,1,.66,1.55-4.2,1.13-5.48,1.4-1.7.36-9.21,4.18-9.71,1.74-.38-1.86,6.37-3.92,7.89-4.14Z"/>
  <path d="M189.17,178.77c5.17,7.85,12.1,15.14,19.5,21.19-5.01-2.01-9.92-6.81-13.48-10.87-.58-1-10.34-11.33-6.02-10.32Z"/>
  <path d="M173.13,81.91c-5.24.38-7.26,8.07-17.2,5.16.77-1.86,3.18-.85,4.74-1.27,1.87-.8,11.12-3.35,9.59-6.17,1.79-.36,2.28.85,2.87,2.28Z"/>
  <path d="M203.5,49.82l-3.15-3.42c-7.72,7.29,4.01,4.09-1.16,12.03-.44.73.11,1.45-1.42,1.13-.27-3.46,4.84-5.61-1.16-6.57-3.18-2.23,5.43-14.26,6.88-3.17Z"/>
  <path d="M170.26,59c-.76.98-4.28,4.7-5.12,4.93-2.34.63-3.44-1.17-5.78-.92.08-3.51,2.44-1.92,4.82-2.35,2.09-.38,4.02-1.21,6.08-1.65Z"/>
  <path d="M201.79,220.59c-3.85,2.33-13.19,4.91-5.16,10.32-13.2-3.58,6.17-14.39,5.16-10.32Z"/>
  <polygon points="198.35 123.17 186.69 117.92 185.17 115.73 196.02 120.07 198.35 123.17"/>
  <path d="M215.55,235.49c-4.52.53-8.55-.53-12.9-1.13-1.74-.24-4.52.81-5.44-1.15,3.4.79,17.27-.22,18.34,2.28Z"/>
  <path d="M159.94,91.08c-1.64-2.02,4.28.49,7.44-3.43.59,3.56-5.71,5.25-7.44,3.43Z"/>
  <path d="M155.92,199.41c.55,3.34-4.16-1.51-5.35-1.83,0,0-6.11-2.76-6.11-2.76,3.57-.73,8.88,2.86,11.46,4.59Z"/>
  <path d="M187.46,44.66c2.5-2.02,5.75-3.22,8.31-5.15,3.42-2.56,5.62-5.97,8.88-8.6-2.92,6.58-9.94,12.86-17.19,13.75Z"/>
  <path d="M186.02,21.17c3.91-.49,8.88-3.3,12.9-4.01-2.93,2.68-9.34,4.4-12.9,5.15,0,0-12.04,0-12.04,0-.86,0-.84-1.74,0-1.71,1.91,1.3,9.53.62,12.04.56Z"/>
  <path d="M159.94,16.02c.31.33.41,1.22-.72,1.01-4.88-.9-8.32-.24-13.04.69,1.14-3.01,12.54-2.98,13.76-1.7Z"/>
  <path d="M192.04,23.47c-2.55,2.63-7.41,2.22-10.89,2.28.9-1.9,3.61-.93,5.38-1.21s3.64-.95,5.51-1.07Z"/>
  <rect x="206.51" y="58.34" width="7.31" height="1.28" transform="translate(99.04 246.86) rotate(-75.07)"/>
  <path d="M306.12,350.12l-33.81,1.14c5.35,2.62,5.09,2.6,8.05,7.13,2.11,1.66,6.31,1.48,8,2.32.92.46,1.07,2.14,2.09,2.49,10.22,1.05,8.47-.42,16.21-5.96,8.67-4.42,16.97,1.76,18.38,10.64,4.79-1.38,9.44-2.79,13.47,1.13.9,0,1.56-7.04,1.93-8.41.27-.98-.41-1.59,1.22-1.32.51,3.8-1.05,7.14-2.3,10.59,4.76,1.5,3.32-8.27,4.88-11.16,2.33,3.24-1.46,7.39-.57,10.88,3.76-1.95,2.1-7.68,4.3-10.88-5.88-2.64-24.44-6.19-30.95-7.45,8.03.87,41.43,1.6,34.4,15.47l6.87-5.73c-6.16,24.23-119.3,22.41-130.67,1.98-1-4.54,4.15,3.43,5.13,2.6-9.85-15.99,64.39-17.2,73.37-15.46ZM263.7,352.41c-9.22.83-18.2,3.29-26.86,6.38.34,3.24-1.82,9.98,2.78,10.23.64-.7-2.21-8.11.57-9.17l.58,9.74c.37.37,8.61-3.3,10.32-1.72,1.88,1.75-6.08.76-5.15,2.57.54,1.04,6.03,1.64,7.44,2.01-1.42-7.1-.74-10.93,5.73-14.61.96-.99,1.56-2.64,2.55-3.75.71-.81,1.94-.78,2.04-1.68ZM276.89,375.9h20.35c.57,0,.9-1.4.92-2.01.2-5.55-8.71-7.12-12.81-5.29-2.09.93-3.25,4.28-6.17,3.86-1.1-1,4.61-4.62,4.87-5.15,2.35-4.72-6.58-10.27-10.61-10.33l2.29-2.28c-3.01-1.28-7.29-1.17-10.49-.46-2.35.52-3.12,3.02-4.69,4.48-3.39,3.18-6.73,4.14-5.92,9.86.59,4.16,3,4.75,6.75,5.02.61-.57-3.3-4.35-2.01-5.72,1.54,1.62,3.37,4.03,2.58,6.3,3.63-.35,8.93,1.81,12.33,1.15,1.57-.31,5.25-7.03,2.57.57ZM299.82,365.59s-.68.05-.63.87c2.78,7.75,18.11,13.74,22.91,4.5,1.75-3.5-.74-10.01-4.39-11.5-6.92-3.81-13.76.78-17.88,6.13.63-.72,6.16,5.42,7.26,5.64l5.35,1.52c-2.5,3.44-13.28-4.56-12.61-7.15ZM349.53,367.16c1.43-1.33,1.82-7.82-.7-7.86-.92-.02-1.52,7.84-2,9.16.62-.66,2.34-.96,2.7-1.3ZM236.18,359.86c-4.33-.73-2.43,7.41-.86,7.43,1.65.02.3-6.14.86-7.43ZM286.06,367.3l4-1.43c-1.51-1.28-2.2-3.78-4.57-3.72l.58,5.15ZM298.1,368.45c-.69-4.33-4.14-2.57-7.45-2.86-.28,1.73.43.92,1.39,1.16,2.06.52,4.08.91,6.06,1.7ZM337.65,370.18c-.15-.17-3.68-1.97-4-2.06-3.02-.82-10.47,2.49-11.47,6.05,2.35-.61,16.26-1.11,15.47-3.99ZM306.69,375.9l-6.87-5.72c-.2,1.47,1.79,3.03,1.75,4.29,0,.19-2.3.49-1.18,1.44.24.2,5.25-.63,6.3,0Z"/>
  <path d="M33.82,288.23c-2.17,2.63-6.21,3.2-7.18,6.85-.35,1.31.19,3.5-.84,4.02-3.13-5.44,3.41-9.5,8.02-10.88Z"/>
  <path d="M27.52,287.65l-4.32,3.41-3.12,4.03c-.37-3.77,4.03-7.03,7.45-7.44Z"/>
  <path d="M61.34,307.71c-.52,1.65-3.98.77-5.44.55-1.05-.16-1.7.59-1.44-1.13l6.88.58Z"/>
  <path d="M217.26,58.99c-.64,6.04,3.83,10.2,5.16,15.47-4.04-2.73-6.94-9.88-6.3-14.62.14-1.03-.21-.93,1.14-.85Z"/>
  <path d="M222.43,49.25l1.4,9.2c.33,2.92,2.59,5.89,2.33,8.56-4.57-5.99-3.75-11.02-3.73-17.76Z"/>
  <path d="M216.69,196.53c-.42-2.17,1.94-.6,3.16-.57,6.25.15,12.65-.32,18.62-2.29,1.81,1.73-7.71,3.3-8.38,3.36-4.43.42-9.03.1-13.4-.5Z"/>
  <path d="M233.89,205.13c.78,2.71-6.26.08-8.34.55-2.53.12-5.15,1.13-7.71,1.16,4.25-3.44,10.94-2.2,16.05-1.71Z"/>
  <path d="M224.72,228.62c-.99-.04-5.72.42-5.72-.85,0-1.5,5.4-.83,5.72.85Z"/>
  <path d="M231.02,257.85c-3.09,2.65-18.54-.49-23.71-.08,0,0-6.66-1.64-6.66-1.64l30.38,1.72Z"/>
  <path d="M234.46,248.11c-3.51,3.2-39.66,1.05-41.27-4.01,13.18,4.73,27.43,3.96,41.27,4.01Z"/>
  <path d="M83.7,288.22c.73-1.8,6.33-1.37,8.19-2.41.63-.23,5.04-3.49,4.98-1.31s-11.02,4.75-13.17,3.72Z"/>
  <path d="M96.88,289.94c.4.4-4.52,7.52-4.84,8.62-1.31,1.21-3.05,2.3-4.9,2.26,1.25-1.66,3.25-1.89,4.59-3.71.43-.58,3.7-8.64,5.15-7.17Z"/>
  <path d="M78.54,296.82l.58,4.58c-3.05-.4-3.86-3.96-.58-4.58Z"/>
  <path d="M153.63,284.22c-6.77,3.52-14.5,2.82-21.78,1.71-.47-2.12,2.35-.57,3.7-.54,6.22.12,11.94-.48,18.08-1.17Z"/>
  <path d="M151.34,295.1l-5.47.59c-3.86-1.83-11.45,2.06-12.87.26,6-2.32,12.13-2,18.34-.85Z"/>
  <path d="M141.02,316.88c1.69,2.12-5.78.8-6.88,1.14,1.26-2.15,4.8-.78,6.88-1.14Z"/>
  <path d="M152.49,316.88c-1.26,2.15-4.8.78-6.88,1.14-1.69-2.12,5.78-.8,6.88-1.14Z"/>
  <path d="M259.12,363.86c-.31-.28,3.22-6.74,4.58-6.87.2,1.34-2.9,8.42-4.58,6.87Z"/>
  <path d="M317.59,366.16l-.57-4.58c2.41.36,3.74,4.06.57,4.58Z"/>
</svg>