<?xml version="1.0" encoding="UTF-8"?>
<svg id="Layer_1" data-name="Layer 1" xmlns="http://www.w3.org/2000/svg" viewBox="0 0 348 354.24">
  <path d="M74.65,164.43c-1.3,1.52,1.26,5.75,3.99,3.6,15.56-10.28,28.41-23.9,46.02-30.58,7.04-2.67,14.8-4.31,21.73-7.3,5.08-2.19,9.15-6.16,14.52-6.83l-17.18,10.62-25.54,8.73,3.22,4.83c-1.79-.05-2.97-3.73-3.3-3.97-2.03-1.45-29.67,22.49-34.51,24.24-.33.59,1.71,4.99.55,6.97-.74,1.26-7.07,5.23-9.07,5.01-1.12-.13-4.18-3.32-3.66-.4,8.94,16.54,47.74-17.16,55.38-26.06,0,0,33.32-15.45,33.32-15.45-7.64,9.7-23.13,11.48-32.65,18.53-4.96,3.67-10.91,11.17-15.71,15.73-3.44,3.27-7.78,5.55-10.49,9.66,8.27,4.25-2.64,13.23-8.87,12.08,21.47,13.84,34.2-35.06,96.33-32.67l-.38,1.63c7.54,3.39,12.94-10.19,20.95-9.65l-7.63,5.66c-7.96,13.87-47.13,19.06-46.33,37.4.12,2.78,2.82,8.31,6.39,7.32-5.21-5.13-6.55-11.66.51-15.61,9.81-5.5,17.66,8.7,8.37,12.8-.18,1.49,1.68.7,2.44.43,11.55-4.23,20.81-12.67,31.43-16.95,8.95-3.6,18.67-4.28,27.7-8.58,22.98-10.94,21.29-24.79,36.36-40.22,24.99-22.91,48.68-47.86,77.01-66.88-10.03,15.71-32.76,28.62-46.77,42.31-11.47,11.71-34.99,28.84-39.15,43.98,7.45,4.75,25.29,3.97,12.57,15.68,25.83,14.79-28.46,25.77-37.35,27.96-6.39,10.99-21.89,6.21-30.38,13.95,15.35,12.86-6.19,15.68-16.58,14.95-7.12-.51-13.05-4.08-20.52-1.66-.2-1.21,1.51-.99,2.4-1.2,7.56-1.77,9.91.58,16.55,1.2,4.82.45,16.44-.05,20.17-3.19,5.83-4.91-6.84-7.01-2.49-12.17,5.32-6.32,22.59-3.76,27.87-11.22-11.82,2.4-23.88,1.11-35.83,2.45-20.77,9.37-40.59,22.54-61.74,30.98-26.56,10.6-25.39,4.24-46.85-7.14-5.49-2.91-11.94-4.74-17.38-7.61-7.72-4.06-12.57-9.62-19.35-14.51-10.62-7.65-31.65-17-28.45-33.58,13.58-17.72,50.31-15.54,68.3-24.41,5.01-6.9,23.34-15.5,31.22-18.76,8.89-2.98,18.51-2.09,27.22-4.22,18.87-9.94,63.58-9.29,79.35-21.02,20.65-25.91,45.08-46.89,62.37-75.47L8.56,97.15c-.79.16-10.83,2.33-8.09-.42,97.03-25.69,194.63-49.36,292.06-73.57,7.44-6.85,11.61-17.03,19.96-23.16-21.18,38.89-54.38,71.85-83.57,104.65-19.82,12.68-61.6,9.81-82.9,22.72-10.92,3.86-23.31,5.34-33.41,10.93-8.73,4.83-16.89,12.27-25.91,16.87-1.15,1,2.12,4.68-3.72,8.31-4.39,2.73-8.04.61-8.32.95ZM135.92,127.36l-10.49,1.19-7.24,3.63,17.73-4.82ZM109.32,137.03c-3.72,2.05-14.09,4.28-14.51,8.85.88.83,13.09-7.29,14.51-8.85ZM186.31,165.24c-25.62-3.49-53.15,12.37-72.16,28.62,3.85,1.12,20.27-7.58,20.15-4.45-14.66,5.53-31.3,11.14-47.17,10.49-.98-.04-3,.61-2.81-.8l9.67-.82c-.57-1.62-2.71-1.03-3.94-2.89-3.73-5.67,6.16-11.51,8.78-15.63-12.43,6.87-16.71,7.5-30.63,5.63l3.22-.81c-4.91-4.93-3.75-8.34.81-12.88l-12.09-4.05c-.03-3.22,12.53,4.62,12.5,4.02,2.7-.11-1.55-5.26-1.22-7.57.64-4.53,15.15-12.15,19.44-15.31.42-.31,2.95-.87,1.52-2.08-15.86,8.08-35.98,8.86-52.82,15.29-3.32,1.29-14.22,5.84-14.53,9.25-.53,18.82,26.25,24.56,35.98,37.05,9.42,7.22,20.06,10.13,30.31,15.65,5.45,2.93,13.38,9.72,19.28,10.55,28.79-.72,52.97-23.74,79.34-32.99.16-1.52-1.69-.64-2.58-.56-1.86.17-4.79.42-6.48.78-7.41,1.6-16.17,8.13-23.59,3.01-4.64-3.19-5.04-7.72-4.83-12.89-9.55,7.99-15.55,21.29-27.01,26.59,18.63-20.06,34.65-44.54,62.88-51.59.3-.81-1.69-1.56-2.01-1.6ZM85.12,157.18c-.65-.56-4.35,1.88-5.25,2.4-1.29.74-4.7,2.22-4.41,4.05,4.17.83,11.25-1.56,9.67-6.44ZM198.82,191.02c27.87-1.13,54.48-7.15,74.96-26.99l-16.38-5.96c-12.51,22.26-38,22.76-58.58,32.96ZM82.71,170.08c-1.36-1.4-9,4.94-10.46,6.04,4.39,5.34,10.93-.44,10.46-6.04ZM275.16,180.31c2.88-3.26-5.14-8.02-6.41-7.71-1.85.45-10.59,6.85-13.48,8.37-14.91,7.84-29.78,10.02-46.39,11.66-5.57.55-11.42-1.25-16.55,1.99l-8.83,5.26c31.79-4.42,63.27-.2,91.66-19.57ZM100.03,183.18c-.45.04-5.73,5.34-6.43,6.24-.57.73-1.9,1.2-.42,2.03,6.53,3.63,13.08-8.76,6.85-8.27ZM167.95,187.99c-3.12-.03-8.81,3.56-9.32,6.85-.29,1.83,3.59,7.84,5.1,8,1.82.19,8.6-4.03,9.15-5.95.77-2.65-2.21-8.88-4.93-8.91Z"/>
  <path d="M238.32,281.3l-165.29,72.94,272.92-124.53-.79,2.43c-34.39,16.62-69.36,32.19-104.31,47.66-.26,24.7.27,49.44-.92,74.04-.85.32-1.6-2.65-1.6-2.82v-69.72Z"/>
  <rect x="23.05" y="272.2" width="338.56" height="3.58" transform="translate(-94.1 100.74) rotate(-23.76)"/>
  <path d="M147.21,233.76c-2.55,4.73-10.57,4.15-13.93,7.21-1.87,1.7-2.05,5.53-4.65,7.67-6.33,5.2-22.62,10-30.66,8.15-5.54-1.28-5.05-4.92-7.7-6.82-4.03-2.88-11.65-1.01-15.85.89-8.5,3.84-1.92,6.21-3.17,11.29-11.04,17.08-46.5,6.56-13.94-8.24,1.63,1.26.04,1.34-.62,1.84-28.84,14.62,6.53,17.85,12.97,5.64.32-2.06-1.55-4.11-1.53-6.31.06-5.84,13.51-8.84,18.19-8.44,7.38.63,6.87,6.66,11.36,8.01,9.34,2.79,24.02-3.04,31.34-8.85,2.73-9.11,10.92-8.52,18.19-12.04Z"/>
  <path d="M178.65,69.33c-38.3,16.65-80.86,42.37-112.07,70.11,31.05-31.36,70.73-54.83,112.07-70.11Z"/>
  <path d="M35.94,195.07c-.8,1.63-3.49.9-4.89,2.76-3.47,4.62,8.69,4.9,9.6,10.71,2.66,7.67-38.02,13.87-21.42,22.16,12.16,4.77,27.02-4.21,38.44,5.09,5.48,4.46-.69,6.26-.77,8.82-.05,1.65,1.9,2.71,1.6,4.45-6.98-3.54.23-8.1-.08-9.96-7.9-13.01-36.29,1-44.52-9.58-3.93-9.22,15.89-13.73,21.53-16.84,10.88-5.98-6.13-8.03-7.21-12.72-.7-3.02,4.94-5.81,7.7-4.9Z"/>
  <path d="M157.69,87.86c-20.83,11.18-49.39,28.75-67.72,43.51,13.81-14.15,47.62-36.27,67.72-43.51Z"/>
  <path d="M345.55,120.91l-67.72,15.3c21.41-8.65,44.86-12.46,67.72-15.3Z"/>
  <path d="M343.94,172.5l-68.52,14.49c21.9-7.72,45.45-12.24,68.52-14.49Z"/>
  <path d="M159.31,251.48c12.48,20-9.12,24.43-6.37,7.74,0,0,3.13-10.15,3.13-10.15.19,3.62-4.18,18.1,1.24,18.59,7.82.7,2.13-12.49,2-16.17Z"/>
  <path d="M12.67,254.6c-4.8-7.65,22.45-13.71,11.97-2.73-2.14,2.25-10.17,5.61-11.97,2.73ZM25.46,246.65c-.48-.53-12.97,3.26-11.28,7.25,1.34,1.3,12.78-3.17,11.28-7.25Z"/>
  <path d="M343.13,162.02c-2.65.44-36.84,8.94-38.69,8.04l22.54-6.07,16.15-1.98Z"/>
  <path d="M331.84,113.66l-34.66,7.24c-.19-1.16,1.4-1.09,2.24-1.36,9.89-3.21,22.1-5.1,32.42-5.87Z"/>
  <path d="M186.61,244.12c-1.62,2.57-11.98-.02-11.17-4.73,2.48,1.66,4.14,4.59,7.63,4.07,7.15-1.06-6.05-6.65-8.44-6.08,3.45-3.66,14.94,2.03,11.98,6.74Z"/>
  <path d="M44.82,223.27c-1.97-8.47-1.97-6.87,0-15.31v15.31Z"/>
  <path d="M175.43,130.58l-10.48,4.01c2.41-3.85,6.24-4.53,10.48-4.01Z"/>
  <rect x="185.3" y="181.74" width="1.22" height="6.49" transform="translate(-66.33 113.18) rotate(-28.97)"/>
  <rect x="189.8" y="180.21" width="1.33" height="5.4" transform="translate(-61.44 103.68) rotate(-26.38)"/>
  <path d="M118.18,149.11c-1.1-.8-4.37-1.87-3.21-3.22.16-.19,4.26,1.92,3.21,3.22Z"/>
  <rect x="46.44" y="211.99" width=".79" height="4.83"/>
  <path d="M135.11,158.79l-2.41-2.41c1.53-.27,2.68.94,2.41,2.41Z"/>
  <path d="M115.59,228.74c-5.36,3.48-10.31-2.57-14.56-5.65-3.07-2.08-6.5-3.61-9.45-5.87.63-1.21,1.94.23,2.68.54,2.31.98,5.39,2.48,7.55,3.74,1.87,1.09,10.88,9.51,12.34,4.57-5.65-17.09-37.56-11.78-52.02-23.73-10.89-7.24-16.85-19.86-27.4-26.61-.99-.44-1.48.16-1.19,1.19,1.48,5.1,8.42,7.13,12.08,10.5-3.8.29-12.27-5.01-13.35-8.42-.49-1.54-.06-4.1-.46-4.77s-3.26-.22-3.11-1.72c11.23-1.12,17.96,10.71,24.58,17.74,17.53,18.62,27.53,14.63,48.81,21.33,5.64,1.77,18.29,10.45,13.52,17.17Z"/>
  <path d="M171.39,170.89l-23.38,7.24c6.17-4.77,15.5-7.78,23.38-7.24Z"/>
  <path d="M143.19,214.4c2.41-5.02,4.99-10.46,8.85-14.51-1.59,5.12-4.54,11.18-8.85,14.51Z"/>
</svg>