<?xml version="1.0" encoding="UTF-8"?>
<svg id="Layer_1" data-name="Layer 1" xmlns="http://www.w3.org/2000/svg" viewBox="0 0 380.69 375.85">
  <path d="M302.21,107.31c-5.16-9.11-6.07-20.42-.91-29.75-2.68,13.45.58,24.51,7.24,36.06,2.08-1.19.33-6.02.9-8.11,8.1,20.06-11.79,38.73-8.07,58.11,1.45,9.35,13.98,9.5,15.27,5.25.59-1.95,1.3-10.37.73-12.23-.67-2.2-6.29-4.45-8.39-4.27-3.14.28-8.46,12.53-.5,14.96l7.26,1.29c-5.77,2.52-13.84-.62-13.48-7.52.6-11.3,10.08-14.04,16.9-5.36l1.08,7.47,20.77-55.9c3.45,1.53-1.96,8.43-2.72,10.81,9.36-5.67-1.34,5.14-2.69,7.68,0,1.28,14.77,4.28,17.12,4.97.41,3.6-14.53-3.1-13.52-.02,11.56,7.08,17.67,20.66,26.15,30.67l3.57-16.56c-16.94-68.24-33.27-64.84,11.77-128.64-6.22,22.73-27.93,41.16-25.75,65.88,2.94,18.56,18.82,50.76,16.66,67.97-.58,4.65-4.57,11.88-4.38,16.24,44.9,98.13-52.25,196.79-146.79,207.82-119.83,16.36-216.31-87.16-143.86-198.54-6.61-7.96-11.13-18.88-14.77-28.61-3.12-8.32-7.36-31.53-10.91-35.99C36.75,92.15,15.46,86.99,0,70.35c20.37,10.17,45.18,23.46,56.63,43.94,6.23,26.06,12.09,51.92,33.57,70.15,5.13,4.81,12.26,12.26,19.85,9.91-6.6-7.67-9.91-19.88-18.93-24.82,13.2-5.79,21.2,43.76,42.34,27.89l-20.7-35.09c11.67,2.06,18.58,31.99,28.01,35.57,7.78,2.56,14.75-1.79,19.12-7.39,2.63-1.34,5.77,1.22,6.15-5.21.33-5.44-5.43-10.95-10.48-12.11-3.75-.86,2.28,5.9,1.4,7.17-.08.11-2.63-.45-2.73-.56-1.87-2.41-15.76-27.54-11.71-28.3.17,2.1,2.29,4.68,4.52,3.15l-5.41-5.86c14.6,4.74,19.36,24.89,30.71,34.68,40.67,9.87-6.3-49.49-11.65-63.21-2.55-6.19-4.19-13.75-6.42-20.18,2.81,2.17,4.24,6.64,5.42,9.91l1.78-4.5c2.2,11.81,4.52,27.22,18,31.16,5.79,7.76,19.12,10.06,28.46,13.04,4.06,1.21,9.41,4.1,8.59-2.72-4.18.19-11.57-3.14-13.59-6.72-1.26-2.22-.61-4.31-1.53-6.59-.19-.47-5.2-7.67-5.62-7.93-2.04-1.27-2.7,1.74-4.52,2.29-.8-.95,2.92-3.97,1.79-5.41-1.73-2.22-5.18,2.06-5.4,1.8-.57-1.53,2.59-3.37,1.79-4.49-8.01-3.86-14.18-17.26-20.53-21.68-15.55-12.8-42.95-20.34-59.51-31.35C85.89,46.24,57.8,30.97,36.99,7.22c12.66,5.33,22.22,17.52,33.46,25.62,14.78,10.44,29.24,20.94,42.93,32.84,20.57,12.08,50.98,20.14,66.52,39.81,32.61-10.87,67.08-12.28,100.66-5.38-1.64-15.81,9.67-25.58,15.5-38.17,9.18-19.6,13.12-42.65,23.29-61.93-2.47,20.61-14.11,51.93-23.27,70.06-2.36,4.06-5.9,7.22-8.03,11.81-1.62,3.5-5.53,17.13-3,19.61.65.63,16.46,6.39,17.17,5.82ZM252.6,234.48c7.99,9.36.15,7.37-1.82,13.52-3.5.52-2.18-4.51-4.49-5.4l.89,9.91c-4.9-2.96-7.27,6.79-9.93-6.31-2.42.47.73,5.45,0,6.3-.13.15-3.75-.16-3.93-.24-2.88-1.21-5.04-13.1-5.11-16.43.22-7.74,3.35,14.28,6.34,14.86,1.43-6.07-2.7-12.33-3.61-18.49-.26-6.36,2.33,2.26,2.71,3.16.13-1.26-.46-6.64-1.01-7.09-.39-.31-8.26-1.27-9.8-1.92l.89,18.03c-.58.07-1.8-1.2-1.8-1.35-.88-9.71,4.19-19.43-9.92-20.29,1.04,5.71,3,11.21,1.35,17.13-3.4-3.69-1.54-14.92-3.58-18.07-.65-1-6.12-2.25-7.7-2.67v20.74c-5.33-4.15-1.01-18.06-3.77-22.38-.47-.53-4.95-.83-6.15-1.97.82,7.01.82,13.7,0,20.74,5.62-3.12,1.81,3.17,7.21,2.72-2.89,5.17-4.53-1.38-5.95-1.68-3.98-.39-5.75.46-9.27-2.39-5.85.46-10.32.97-11.94-4.86-3.61-1.14-6.1,3.31-6.22-2.82-.38-.36-2.26,1-3.1.82-1.06-.23-1.01-2.37-2.03-2.63-1.83-.47-6.23.66-7.37-.09-.7-.47-.64-3.84-1.16-4.26-1.05-.86-7.14-.25-8.67-.75-3.12-1.02-3.41-8.42-9.24-5.69-2.59-3.45,5-13.83,4.5-14.42-5.4-3.81-10.45,12.28-26.79-2.58-17.55,4.89-21.93-14.39-33.64-19.07-30.63,47.53-33.3,104.5,5.42,148.33,114.06,135.46,395.2-53.64,251.22-196.11-5.21,11.78-8.13,44.12-25.92,44-14.67-2.04-12.15-21.1-9.28-31.41,2.62-9.44,12.28-20.73,5.26-30.71-38.51-17.1-83.24-17.28-122.97-4,4.43,5.59,11.19,9.73,15.79,14.88,3.21,3.59,5.23,8.29,8.99,11.76,5.77,5.34,17.49,7.9,11.3,18,15.91,4.97,18.16,3.67,28.52,17.04,5.42,3.24,16.81,2.09,20.38,9.38,2.76,5.63.2,11.89,1.36,14.8.82,2.06,12.46,11.68,11.08,12.9h-4.51c-.26.2,3.7,4.04.91,4.51l-4.52-5.86h3.6s-8.57-9.45-8.57-9.45c-.95.89-3.35,3.17-2.75,4.51.35.77,7.29,6.53,8.53,7.73.97.93,2.29,1.31,1.88,3.08-4.4-.79-5.94-5.54-9.47-8.11-.9,2.24,3.62,5.26,5.47,7.19,2.11,2.2.2,3.58,4.91,1.83-.87,2.48-.73,4.25.02,6.75l-4.52.47c2.89,2.02-3.4,8.16-4.51,7.2-1.01-2.39,2.72-2.16,2.69-3.15-.02-.49-3.63-2.31.51-5.9,1.55-1.34,2.91.84,4.01-.42-2.51-2.55-13.09-20.8-14.29-10.08,4.4,7.1,6.19,8.33,6.17,17.75.9-1.1-8.33-12.51-8.13-15.33-.49-.37-2.95,3.07-3.15,3.66-.89,2.58,5.77,14.94,6.77,18.89-.54-.22-1.63-1.15-1.8-.9v5s-3.61-.95-3.61-.95c5.32.07.41-5.51-.46-8.56-.79-2.77-.53-5.18-1.84-8.12-.33-.75-.12-2.45-1.75-1.79-6.24,2.51.1,11.83,1.34,17.13-3.01-2.03-.68.46-2.7.9l-1.17-6.5c-1.32-.87-.85-6.96-2.89-6.11-.89.37-2.72,2.37-2.76,3.65-.04,1.38,5.2,18.2,5.91,18.89,2.41,1.77,1.81-4.72,5.39-4.54.2-.26-1.42-2.27-1.62-3.34s0-2.2-.18-2.94ZM215.6,144.31l-11.71-7.23c-2.39,2.28,11.13,11.17,11.71,7.23ZM178.62,140.68c.01-1.12-3.45-2.87-3.6-2.7-1.28,1.49,2.01,2.85,3.6,2.7ZM263.42,181.27c-3.34-4.98-8.28-4.47-13.53-6.31-1.38.89,10.02,12.45,3.19,10.78-2.53-1.11-11.97-19.77-18.79-23.6,0,0-55.67-17.84-55.67-17.84,2.49,3.51,4.72,9.97,7.21,13.08s16.6,6,21.24,7.62c6.23,2.18,12.43,4.6,18.45,7.26.18,1.69-1.84.75-2.72.46-10.87-3.57-22.62-8.72-33.61-11.5-1.19-.3-1.73-1.71-1.55.64,12.67,16.15,41.09-.25,45.09,38.34-2.35.43-1.59-.44-2.22-1.79-3.59-7.77-4.89-16.76-13.54-20.77-3.98-1.85-20.38-7.48-24.39-8.1-1.89-.29-.99-.3-.93.92,3.76,14.58-9.83,23.7-22.06,15.32l-.53,8.17,61.86,21.58c-21.62-2.84-41.98-13.17-62.73-19.62l-4.02,6.09c22.98,6.69,48.32,19.1,71.49,23.29,8.33-4.13,36.44-32.89,27.75-44.02-5.22,10.8-18.04,30.84-29.77,34.26,7.95-6.12,23.61-26.13,29.77-34.26ZM151.58,164.99c1.78-3-1.55-5.84-4.52-7.17.2,2.73,1.14,5.91,4.5,5.42l-1.77.91c.6,4.19,4.16,6.08,8.09,7.2.53-.55-2.66-4.95-3.19-5.4-1.21-1.02-2.9-.8-3.1-.97ZM165.99,192.1c-.23-.2-5.04,1.49-5.59,1.83-1.05.64-1.2,1.93-2.16,2.55-1.56,1.02-4.2.69-4.88,2.81,7.42,2.51,10.23-.42,12.63-7.2ZM154.15,202.12c-.86-1.04-9.42-.46-9.8-.08-.26.26.12,2.69,0,3.58l2.67-1.38-4.48,12.2,2.69-.91v2.72c2.87,3.05,5.92-11.4,6.28-12.05.25-.46,5.19-1,2.64-4.08ZM143.44,202.02c-3.17-2.78-5.82,8.85-6.31,10.81,4.28,3.13,6.85-10.33,6.31-10.81ZM170.49,214.63l1.45-6.34c-.49-.69-13.61-4.68-14.4-4.42-2.01.67-2.49,6.9-3.29,8.95l-1.78-3.6-1.81,10.81,4.5-.89-.89,4.5c1.31-1.24,4.37.19,4.98-.84,1.13-1.87.89-14.09,1.33-17.2l.9,5.4,2.69-4.5c1.02,7.35-9.16,18.21,2.69,18.94l1.84-14.43,1.78,3.6ZM180.43,211.93c-1.68-.57-4.37-3.43-7.18-2.68-.96,6.57-5.16,12.3-5.45,18.92l3.51-.07,2.8-13.46v17.14c0,.42,7.3,1.53,8.12,1.81.7-2.7-.08-11.95,2.7-12.63l-.89,12.62,2.69-.91c-1.34,3.55,2.63,3.04,3.47,1.67,0-1.22,2.9-19.68-.75-19.7-1.44,2.74,3.4,12.15-.91,10.82-.77-14.95,3.86-9.96-8.12-13.52ZM201.17,223.65v-5.4h-.88v5.4h.88ZM242.66,231.77c.41-1.24-1.25-5.65-1.79-4.5-.41,1.24,1.25,5.65,1.79,4.5ZM239.93,228.19c-.52-.46-5.29.58-6.27,1.31,2.23,3.37,3.75,24.2,8.54,22.1,3-1.05-2.16-6.82-1.33-9.01,2.77.69,2.07,9.43,5.42,7.65-1.19-2.75-5.5-21.3-6.36-22.06Z"/>
  <path d="M265.23,225.46c-.31,4.1-1.74,3.86-1.77,4.16-.25,2.4,2.05,4.53-2.73,5.76-.14-.85.18-1.97,0-2.7,4.72,3.68-1.55-7.44,4.51-7.21Z"/>
  <path d="M180.43,211.93v4.5c1.71.31.85-3.07,2.71-3.6-.55,3.05-1.96,16.31-4.5,17.13v-8.55s1.8-9.48,1.8-9.48Z"/>
  <path d="M187.64,82.96c-14.1-12.23-44.23-34.12-60.44-43.27,22.87,8.73,44.31,24.94,60.44,43.27Z"/>
  <path d="M203.87,83.87c-14.13-14.27-29.31-27.26-45.1-39.67,17,9.54,34.36,23.29,45.1,39.67Z"/>
  <path d="M260.06,74.82c-.05,12.12-18.49,12.12-18.55,0,.05-12.12,18.49-12.12,18.55,0ZM258,74.74c.14-9.47-14.74-9.47-14.61,0-.14,9.47,14.74,9.47,14.61,0Z"/>
  <path d="M60.11,179.01c-.06,12.3-18.76,12.3-18.81,0,.06-12.3,18.76-12.3,18.81,0ZM58.42,179.09c.14-9.82-15.29-9.82-15.15,0-.14,9.82,15.29,9.82,15.15,0Z"/>
  <path d="M44.66,202.35c.14,9.68-15.07,9.68-14.93,0-.14-9.68,15.07-9.68,14.93,0ZM42.75,202.23c.1-7.14-11.11-7.14-11.01,0-.1,7.14,11.11,7.14,11.01,0Z"/>
  <path d="M238.16,44.2c-1.01,1.9-4.63,1.05-5.86,3.59-3.9,8.11,9.41,10.82,8.57,1.8,3.83-1.02.36,5.78-.61,6.39-10.61,6.7-15.55-12.77-2.11-11.78Z"/>
  <path d="M39.4,155.15c.09,6.05-9.42,6.05-9.33,0-.09-6.05,9.42-6.05,9.33,0ZM37.93,155.18c.06-4.14-6.45-4.14-6.38,0-.06,4.14,6.45,4.14,6.38,0Z"/>
  <path d="M115.47,150.6c-6.23-2.18-9.5-10-9.01-16.22l2.83,8.43,6.18,7.79Z"/>
  <path d="M94.72,160.52c-4.61-.68-7.01-5.6-7.21-9.91l7.21,9.91Z"/>
  <path d="M148.84,130.77c-2.05-.72-2.59-3.19-4.06-4.5-1.55-1.4-4.13-1.9-4.95-3.6,4.24-.12,8.46,4.13,9.01,8.11Z"/>
  <path d="M171.41,175.85l9.91-6.3c1.73,1.75-7.58,7.76-9.91,6.3Z"/>
  <rect x="307.55" y="48.78" width="9.24" height="1.47" transform="translate(155.56 324.06) rotate(-69.31)"/>
  <polygon points="197.56 63.13 184.94 51.41 193.97 58.15 197.56 63.13"/>
  <rect x="143.01" y="193.92" width="8.47" height="1.63" transform="translate(-73.38 90.2) rotate(-27.55)"/>
  <path d="M322.96,140.68c-1.89.13-3.61-.79-5.24-1.56-1.27-.59-2.47.55-1.97-2.04,2.35,1.24,6,.82,7.21,3.6Z"/>
  <rect x="305.38" y="64.05" width="7.64" height="1.3" transform="translate(44.84 237.63) rotate(-45.01)"/>
  <rect x="76.24" y="161.38" width="1.6" height="5.01" transform="translate(-77.87 70.09) rotate(-33.63)"/>
  <path d="M323.86,136.17c-1.68.24-3.13,0-3.61-1.79,1.68-.24,3.13,0,3.61,1.79Z"/>
  <path d="M212.01,321.06c6.86-3.53,5.18-1.69,11.48,1.67,4.08.71,12.1-4.13,11.96,4.64-2.78-4.03-7.93-6.01-10.36-.92-1.89-1.74-5.63-5.22-8.18-5.39-3.1-.21-4.03,2.54-6.7,2.7-.53-17.01-22.41-13.6-21.66,1.8-1.57-.03-1.12-2.37-2.68-3.18-3.56-1.85-7.38,1.2-7.25,4.99-1.99.51-2.53-2.05-4.25-2.56-10.67-.82-13.55,12.74-.34,11.66.7.57.21,7.83,7.05,8.75,5,.67,8.91-4.27,10.61-4.32,2.33-.06,5.15,3.94,8.84,3.43,5.16-.71,8.31-7.87,14.19-6.13-.75,2.48-3.51,1.34-5.17,2.06-.25.11-2.49,2.83-3.94,3.7-9.7,5.82-10.87-1.26-13.9-1.04-1.96.15-5.05,6.41-13.12,3.88-5.11-1.6-4.58-6.59-6.67-8.71-11.33-.65-10.93-14.21-.05-15.32,1.8.02,4.22,1.21,5.27,1.05.62-.1,6.02-8.35,10.51-2.77,1.23-15.15,22.84-14.99,24.38,0Z"/>
  <path d="M342.52,205.02c2.68,3,1.99,6.62,3.52,9.55,1.9,3.66,6.68,3.42,4.49,10.04-.95,2.86-8.07,8.4-3.9,12.37,3.56,3.39,9.53-1.08,7.82,11.4-1.79,13.11-17.42,16.14-23.22,25.48-5.3,8.54,4.12,14.02-6.44,22.42-8.02,6.38-12.75,2.1-16.24,3.56-1.11.46-3.05,3.42-4.6,4.47-3.34,2.28-9.45,4.2-8.95-1.29,6,5.84,9.28-3.89,13.51-5.06,2.42-.67,5.12,1.11,8.39.36s10.87-6.34,11.44-10.26c.91-6.28-3.42-6.3.54-13.86,5.65-10.78,18.66-12.22,22.71-23.29,5.2-14.23-6.12-8.43-7.69-15.29-1.74-7.61,5.72-9.63,5.24-14.2-.27-2.54-4.21-4.05-5.21-6.58-1.22-3.11-.11-7.45-3.83-9.7-.58-2.45,2.12-.45,2.41-.14Z"/>
  <path d="M314.84,281.39c-23.01,28.77-58.26,51-95.62,53.19,32.94-7.41,65.79-22.72,88.4-48.24l-2.7-2.24c4.51,1.8,5.89-2.12,9.92-2.71Z"/>
  <path d="M254.41,357.12c54.92-21.32,103.55-64.81,115.46-124.44-9.06,59.78-59.66,106.58-115.46,124.44Z"/>
  <path d="M227.33,363.46c-46.33,12-109.82-1.48-140.72-38.79,36.91,36.31,90.47,47.26,140.72,38.79Z"/>
  <path d="M156.96,329.19c-3.98,3.22-19.72-8.51-23.21-8.9-2.87-.58-4.4,1.71-7,1.73-2.89.02-4.95-2.65-7.21-2.68-8.37,2.64-4.76,1.88-11.87-1.68-2.65-.29-8.18,4.44-10.69-1.14-2.93-6.51,8.87-10.15,1.34-16.2,8.84,3.1,1.35,8.06.19,12.37-2.13,7.93,6.33,2.95,9.32,3.05,7.07,2.78,3.2,3.4,11.62,1.76,3.79.13,6.89,4.38,11.34,1.74-6.8-6.32-23.4-16.62-23.91-26.14,13.11,16.3,30.11,29.31,50.07,36.08Z"/>
  <path d="M89.31,231.78c.94,4.08-2.53,2.05-5.39,4.07-2.59,1.83-3.42,5.9-2.54,8.81.46,1.52,3.41,3.31,3.41,3.79,0,.4-2.57,1.72-2.75,3.66s2.61,4.09,1.86,4.9c-11.31.91-12.58,17.73-2.47,21.87,1.33.63,4.09.56,4.24.71-.64,7.43,3.56,9.39,9.04,6.28,1.71,1.78-.11,9.24,9.03,5.42-5.35,8.24-9.78-2.17-11.36-2.54-1.49-.35-3.76,1.49-6.63-.68-2.58-1.95-1.22-5.37-1.99-6.56-.33-.51-6.97-1.58-9.65-6.14-3.76-6.42-2.73-14.49,3.9-18.4,4.97-1.67,2.93.09,2.26-4.9,0-1.46,1.05-2.83.75-4.31-6.11-6.16.56-15.44,8.28-15.98Z"/>
  <path d="M289.58,188.47c.88.89,4.58-.33,5.93,5.36s-2.17,7.64-2.17,8.64c4.74,3.65,5.05,13.28-.56,16.73-1.66.97-3.96.71-4.11.85-.33.32,1.82,5.05-.5,8.06-1.49,1.94-7.18,4.15-8.51.96,6.23.26,10.94-5.18,5.41-9.92,11.94,1.08,13.57-15.46,1.81-16.25.44-2.01,4.38-.82,5.49-2.37,3.27-4.59-.81-11.63-6.39-11.16,4.77-5.05,3.17-13.52-3.35-16.03l-8.37-1.08c14.51-4.93,18.74,8.09,15.33,16.21Z"/>
  <path d="M226.43,261.54c-21.23,20.01-49.34,34-77.58,41.47l41.51-18.46c7.31-4.38,14.83-8.53,21.91-13.27,1.67-1.12,13.33-10.49,14.15-9.74Z"/>
  <path d="M219.22,256.13c-20.37,18.74-46.83,32.26-73.97,37.86,25.73-7.95,52.19-22.19,73.97-37.86Z"/>
  <path d="M338.29,232.67c-1.57.21-.85-2.05-.89-3.14-.26-6.23.43-12.78-.01-18.94-.94-13.94-6.15-27.91-12.61-40.14,15.17,15.89,15.83,41.44,13.51,62.22Z"/>
  <path d="M305.95,223.54c1.02,1.58,3.72-1.69,3.52,5.09-.19,6.38-3.56,4.74-4.39,7.37-1.17,3.71,1.63,6.92.04,11.77-2.42,7.39-8.35,5.21-11.99,8.75-2.15,2.09-2.71,5.85-5.31,8.22-2.95,2.68-7.73,3.23-9.84,7.29-3.08,5.91,2.07,7.7,1.53,11.39l-7.05,14.19c-1.16-4.68,4.64-11.07,4.99-14.33.2-1.88-2.25-4.96-2.34-7.8-.25-8.1,8.95-9.26,12.69-13.48,1.83-2.07,2.16-5.08,4.45-7.27,4.33-4.13,10.02-1.38,12.27-8.49,1.31-4.12-.96-4.32-1.4-6.87-1.09-6.33,4.64-5.85,4.57-10.78-.05-3.43-8.17-7.99-.98-13.05-.17,2.01-1.86,6.31-.77,7.99Z"/>
  <path d="M119.76,296.49c-1.08,1.08-3.68,1.13-5.19,1.11.16-1.74,3.24-1.2,4.13-2.69.81-1.35-.48-2.7-.24-3.91,3.36-4.86,1.42-9.79-4.79-10.54.54-3.48,4.39-4.21,5.03-8.05.86-5.18-3.51-11.79-9.07-11.88-.7-.01-8.68,2.13-5.88-.79,1.15-1.2,8.06-1.1,9.97-.51,4.15,1.28,7.76,9.31,7,13.34-.52,2.79-4.34,6.15-4.33,6.54.02.79,4.81,2.29,5.39,5.44.2,1.08-1.46,11.37-2.02,11.93Z"/>
  <path d="M238.54,261.91c-13.27,12.42-29.13,24.1-46.38,30.28,13.25-7.56,38.99-24.81,50.07-35.16,1.36,2.13-2.47,3.75-3.69,4.88Z"/>
  <path d="M228.23,248.92c.48-.58-1-3.81.9-3.61-.03,1.39.63,5.74-1.3,6.07-5.71-1.09-7.63.84-8.62-6.08l-4.07,2.71c-.87-3.25-2.31-1.21-4.94-.91l-.02-3.61c-3.78,4.13-5.37-2.4-1.8-4.51-.71,5.31,1.15,2.58,1.84,3.21s.68,1.85,1,2.1c.68.54,2.65-1.22,3.36-.74,1.49,4.04,1.45,2.52,4.52.73.52-.69-3.29-14.52-2.59-17.03,3.67,4.2,2.54,16.64,4.98,20.78.2.32,6.52,1.13,6.74.87Z"/>
  <path d="M258,129.88c.18,1.7-1.89.72-2.88.63-10.06-.92-18.83-2.09-29.17-1.58-1.64.08-15.74,2.75-15.76,1.39,15.25-4.26,32.47-4.78,47.82-.44Z"/>
  <path d="M270.94,132.2c1.34.62,11.18,4.06,11.8,4,1.23-.11.52-3.77,2.32-3.63-2.66,7.11,5.3,5.69,8.13,10.81-3.63-.65-20.07-10.31-22.08-9.91-1.52.3-1.65,3.42-1.22,4.79.81,2.6,5.45,2.3,6.88,5.76.29.71.84,3.23-.71,2.97-.06-4.37-7.3-5.36-8.01-7.84-.52-1.81.4-3.53.59-5.28.13-1.2-1.74-2.71,1.56-3.12.28-.03.42,1.3.74,1.44Z"/>
  <path d="M273.45,124.34c.89,1.49,5.14-.28,6.25.49s2.02,6.09-.94,5.03v-4.5c-8.24,5.56-5.61-6.9-8.07-8.62-1.85-1.29-7.24-.3-9.44.59-2.01.81-7.1,3.69-9.5,4.94-1.27.66-2.29,3.14-3.68,2.63.52-5.11,5.06-4.11,7.87-5.66,3.71-2.04,4.45-4.5,9.7-4.77,11.02-.56,5.99,6.85,7.8,9.87Z"/>
  <path d="M262.51,146.1c-5.06-5.38-10.72-8.03-17.12-2.71-.31-8.23-13.79-7.01-15.36,0-3.01-1.16,2.35-5.92,3.85-6.53,2.66-1.07,7.67-1.23,10.05.31,1.18.76,2.06,3.33,2.78,3.4.49.05,4.14-2.47,6.34-2.47,3.43,0,9.89,3.88,9.46,7.99Z"/>
  <path d="M171.4,237.19c-10.52,9.26-23.39,17.65-36.98,21.63l36.98-21.63Z"/>
  <path d="M154.26,232.66c-11.66,7.39-24.08,14.84-37.88,17.14,8.77-3.71,30.12-13.09,37.44-18.92l.44,1.78Z"/>
  <path d="M194.86,259.74c-10.29,8.6-23.18,15.98-36.08,19.82l36.08-19.82Z"/>
  <path d="M276.94,168.64c-1.51.11-.82-1.96-1.75-3.19-6.12-8.06-13.23-8.48-18.73.31-.98,1.57-1.46,2.16-1.1-.2,1.98-12.97,22.86-9.42,21.58,3.08Z"/>
  <path d="M161.48,235.39c-8.5,8.55-20.27,14.01-31.57,18.02-.18-1.23,30.16-17.12,31.57-18.02Z"/>
  <path d="M322.96,239.9c-1.58,2.71-4.96,2.76-4.52,6.74.1.94,4.28-.1,4.52,2.26-3.1-.9-4.16,1.77-6.06,2.52-3.6,1.42-4.79-.57-8.41,4.22-.93,1.23-.25,3.29-1.75,3.19-1.2-2.96,2.63-8.09,5.14-8.83,1.33-.39,4.61,0,4.78-.18.47-.46-.43-11.12,6.31-9.92Z"/>
  <path d="M113.41,228.42c2.11,2.11,2.48,6.43.97,9.04-1.28,2.2-4.15,2.49-5.22,3.8s-.69,2.91-1.41,4.04c-.54.84-2.23.65-2.24,1.37,0,1.54,6.32,9.07,1.84,11.26,1.08-12.87-5.33-6.37-6.32-11.72,8.15,1.74,5.36-5.86,6.41-7.13,9.88-1.18,7.08-12.57-3.7-10.46,2.19-3.03,7.31-2.56,9.67-.2Z"/>
  <path d="M92.01,232.67c-3.78-2.59,3.29-16.52,4.09-20.72,0,0,5.84-10.83,5.84-10.83-3.38,10.52-8,20.57-9.93,31.55Z"/>
  <path d="M305.82,263.35c-2.88,5-6.49,7.15-1.8,12.61-2.62.72-3.13-3.37-4.24-3.63-10.08-.3-4.47,7.86-7.48,9.95-3.03-8.09,1.6-11.84,7.98-11.84.77-.63.93-8.18,5.54-7.08Z"/>
  <path d="M234.55,293.11c-13.63,13.89,17.59,4.72,3.6.44.07-2.24,9.6,1.18,3.19,6.79-8.01,7.02-18.79-2.52-6.79-7.23Z"/>
  <path d="M260.62,331.97c4.14,2.49-9.08,13.99-13.32,9.71-2.68-5.94,9.82-11.81,13.32-9.71ZM259.81,332.79c-1-1.04-13.48,3.51-11.72,8.11,2.95,1.28,13.86-5.88,11.72-8.11Z"/>
  <path d="M74.88,217.34c6.89-.68,7.91.31,7.21,7.22-4.44.45-1.24-4.9-1.8-5.4-12.84.57-4.77-7.93,1.8-10.83,1.73,1.87-8.12,6.05-7.2,9.01Z"/>
  <path d="M276.71,233.82c5.5,6.68-4.9,17.46-12.38,13.27.41-1.61,3.64-.74,5.43-1.31,6.89-2.2,7.38-7.19,4.49-13.1.09-.1,2.26.91,2.45,1.15Z"/>
  <path d="M333.79,205.61c-5.13-.22-9.76,7.74-9.03,12.14.27,1.62,5.02,5.77.54,4.03-7.66-3.74,4.71-23.3,8.49-16.17Z"/>
  <path d="M146.91,315.78c.26.42.52,2.48-.31,2.57-5.11-4.76-13.73-2.96-17.6-9.91,3.07.45,5.22,2.83,8.13,4.04,1.76.74,9.27,2.46,9.78,3.29Z"/>
  <path d="M282.37,294.01c.63.49-12.35,10.89-.9,10.82-1.26,3.23-4.92,1.37-6.25-.6-2.3-3.41,4.92-11.97,7.15-10.23Z"/>
  <path d="M327.47,262.43c2.16,7.95-3.07,15.6-11.72,13.52.73-1.57,3.78-1.1,5.65-2,3.72-1.77,6.9-7.19,4.28-11.09l1.78-.44Z"/>
  <path d="M143.44,229.98c-5.68,5.05-13.27,9.2-20.74,10.8l20.74-10.8Z"/>
  <path d="M139.83,223.67c-5.14,4.5-12.07,8.87-18.94,9.9,2.59-1.37,16.22-9.75,18.94-9.9Z"/>
  <path d="M112.77,208.34c-3.42,5.44-8.15,9.15-11.72,14.42-.81-5.53,3.72-7.05,6.67-10,1.86-1.87,1.59-5.3,5.05-4.42Z"/>
  <path d="M251.68,276.87c-1.14,4.36,1.98,4.33,5.88,3.61,6.01-1.11,1.04-6.88,1.35-7.21,2.15-2.26,6.06,7.75-2.32,8.97-3.8.55-9.66-1.39-4.91-5.37Z"/>
  <path d="M155.17,319.25c1.14-2.47,6.28-2.01,5.32-5.69-.67-2.57-8.73-4.54-9.83-7.82,8.67,2.17,18.33,9.61,4.51,13.51Z"/>
  <path d="M185.84,254.33c-4.54,4.64-10.98,8.77-17.14,10.8l17.14-10.8Z"/>
  <path d="M315.75,189.39c.37-.49,2.26,2.25,2.69,1.8,1.92-2.04-1.68-2.58-1.78-2.72-1.91-2.79,4.52-2.27,4.51,1.37s-6.41,4.79-5.43-.45Z"/>
  <path d="M272.44,303.93c-2.72,4.38-8.26,5.88-12.62,8.11l2.06-2.89,10.56-5.22Z"/>
  <path d="M343.13,187.31c.21.35,1.39.18,1.47.28.64.82.26,2.07-1.35,1.81-4.49-.72-2.97-6.74-3.13-9.94,2.81,1.72,1.29,4.9,3.02,7.85Z"/>
  <path d="M331.08,230.86c-9.56-1.26-2.37,6.01-7.21,5.42-.94-4.69,2.67-10.56,7.21-5.42Z"/>
  <polygon points="205.68 245.3 203.89 237.63 203.89 229.07 205.68 236.74 205.68 245.3"/>
  <path d="M104.64,275.06c-.25.33-3.07-3.84-7.53-2.73-1.05.26,0,2.21-1.47,1.82-1.35-7.03,11.75-2.64,9,.91Z"/>
  <path d="M269.73,298.52c-1.33,2.08-4.63,3.1-6.33,4.93-1.3,1.4-1.1,3.73-2.68,4.08-.17-4.61,4.75-8.7,9.01-9Z"/>
  <path d="M97.44,240.79l-6.32,1.8c.93-6.14,2.81-1.44,6.31-4.5v2.7Z"/>
  <path d="M92.92,257.92c-8.25-.7-3.26,2.65-6.31,3.61-.99-4.04,3.52-7.94,6.31-3.61Z"/>
  <path d="M239.06,110.01c-3.2-1.54-7.75,2.47-4.87,4.59,1.93,1.42,4.56-1.55,3.97,1.72-6.65,1.59-8.04-6.35-1.81-7.71,1.59-.35,2.16-.34,2.71,1.39Z"/>
  <path d="M283.26,192.09c-1.56,1.71-2.68-2.96-2.69-4.5,1.54.19,3.58,3.53,2.69,4.5Z"/>
  <path d="M128.11,330.97c-1.63-1.43,3.43-2.92,3.59-2.7,1.09,1.42-2.43,3.72-3.59,2.7Z"/>
  <path d="M283.26,147.91v1.79c-.39.37-5.12-.56-4.5-1.79h4.5Z"/>
  <path d="M138.03,339.99c-1.82-1.59,3.58-3.58,3.59-1.35,0,.91-2.94,1.91-3.59,1.35Z"/>
  <path d="M241.76,200.2c-2.78-5.1-11.61-22.01-15.33-26.14,5.93.93,14.74,20.1,15.33,26.14Z"/>
  <rect x="234.16" y="217.34" width="1.3" height="6.32"/>
  <path d="M52.32,174.95c-8.2-.58-.96,4.45-5.41,3.61-1.1-3.61,3.51-7.5,5.41-3.61Z"/>
</svg>