<?xml version="1.0" encoding="UTF-8"?>
<svg id="Layer_1" data-name="Layer 1" xmlns="http://www.w3.org/2000/svg" viewBox="0 0 183.03 245.55">
  <path d="M7.58,0c14.09.49,27.5,16.27,36.21,26.14,16.44,18.63,32.01,38.08,47.39,57.63,3.84,4.88,6.71,7.27,9.06,13.39,3.15,8.21,1.91,13.85,2.45,22.04.74,11.25,9.43,19.03,16.28,27.09,17.42,20.53,35.39,40.76,51.44,62.47,6.13,8.3,19.91,24.21,7.81,33.7-13.52,10.6-23.39-8.86-29.84-17.84C106.03,165.65,64.81,106.08,24.07,46c-7.03-10.36-15.25-21.17-21.63-31.98C-1.15,7.94-1.78-.32,7.58,0ZM2.49,4.89c-.11.3,0,2.19.11,2.59,1.46,5,3.76,7.42,6.51,11.68,21.96,33.94,45.75,67.02,68.75,100.2,25.46,36.74,50.28,74.05,77.08,109.77,4.24,5.65,7.59,13.92,15.81,13.54,6.46-.3,9.74-5.54,9.51-11.54s-6.92-14.34-10.44-19.21c-16.67-23.02-36.27-43.95-54.57-65.57-6.66-7.86-14.27-15.69-15.38-26.42-.5-4.83.81-10.04-.15-15.04-1.88-9.76-5.38-13.16-11.31-20.59-14.67-18.38-29.31-36.84-44.88-54.5C34.43,19.48,23.91,6.17,10.03,2.89c-2.2-.52-6.59-.6-7.54,2Z"/>
</svg>