<?xml version="1.0" encoding="UTF-8"?>
<svg id="Layer_1" data-name="Layer 1" xmlns="http://www.w3.org/2000/svg" viewBox="0 0 292.69 437.11">
  <path d="M173.41,236.16c7.01,13.71-3.03,25.1,1.67,39.97,10.88,34.41,67.39,18.83,91.55,9.84,5.34-1.99,18.95-9.54,22.52-10.16,5.33-.94,4,2.28.25,4.59-6.75,4.16-15.75,7.1-23.22,9.86,15.7,17.53,21.46,42.1,24.77,64.97.49,3.41,3.92,19.47-2.25,13.41-3.45-21.15-6.02-44.96-16.92-63.81-1.45-2.51-6.82-10.54-9.05-11.56-3.44-1.58-14.57,3.12-19.03,4.13-27.79,6.3-74.66,8.98-74.65-31.62,0-8.53,6.59-19.26.5-27.03-6.59,9.23-15.05,20.01-27.01,21.92-2.19.35-8.75.13-9.36.52-.33.21-.7,2.36-1.45,3.26-3.65,4.41-6.61,5.94-11.99,7.78l-77.58,159.46c-3.81,7.09-12.2,7.33-15.97.17-6.54-59.33-10.45-119.25-15.95-178.81-7.87-3.55-13.13-12.34-8.51-20.64,1.48-2.66,7.36-6.3,7.91-7.62,1.13-2.71.23-5.9.67-8.71,9.91-62.86,97.48-67.68,118.01-9.12,6.52-14.97,15.42-29.83,31.36-36.08-3.32-9.01-11.6-14.94-14.65-24.42-5.36-16.69,6.15-16.94,10.16-29.44,4.72-14.73-5.4-13.75-14.69-20.13-12.48-8.58-17.72-23.38-7.03-35.93,15.33-17.99,32.93-30,46.33-51.58,1.11-1.8,4.17-9.79,6.05-9.36,4.82,1.09-2.36,11.4-4,13.99-12.36,19.58-30.13,33.31-45.39,49.95-5.62,6.13-5.67,12.88-2.16,20.23,7.96,16.68,35.18,10.68,23.55,37.22-.88,2.01-4.78,6.08-3.41,7.85,4.65,6.01,10.34.33,15.76.62,9.86.52,32.66,25.48,41.01,32.87,4.78,4.23,18.03,11.75,18.08,18.01.04,4.93-9.83,18.43-13.08,23.04-10.37,14.76-22.78,32.24-42.79,32.37ZM213.78,170.02c-4.59-4.42-9.91-8.14-14.61-12.43-5.92-5.39-22.68-24.14-30.38-23.61-2.7.19-6.45,2.78-9.36,2.38-3.71-.51-7.49-6.75-10.44-2.35-5.72,8.53,8.02,24.09,12.55,31.13,1.7,2.64.64,5.03,3.91,3.35.83-.43,1.43.26.98-1.35-.83-2.98-5.32-6.26-6.58-8.91-1.14-2.4-.6-5.6-1.49-7.1-.62-1.06-3.01-1.32-3.77-3.11-2.06-4.83,6.66.18,7.4.33,3.43.74,8.04.48,11.62,1.27,13.67,3,26.37,16.47,40.16,20.38ZM187.15,159.74c-8.02-4.02-15.52-8-24.91-6.87.34,7.82,12.11,8.28,18.43,8.61.97.05,8.75.55,6.48-1.74ZM61.55,170.27c-19.74,2.37-38.61,18.14-44.72,36.87-1.9,5.82-1.83,15.46-3.65,19.54-2.09,4.69-13.77,7.67-7.28,17.63,5.78,8.87,14.56,2.21,22.19,4.44,6.4,1.87,10.76,11.22,18.14,12.78,10.38,2.2,13.76-3.11,21.09-3.12,8.66-.01,14.95,7.66,15.1,15.96.11,6.39-8.86,21.93-2.65,24.9,10.02,4.78,7.99-9.72,8.61-14.58,1.05-8.25,4.27-18.34,13.1-21.25,9.69-3.19,13.8,7.34,22.9,2.28,9.61-5.35-.1-8.91-.81-15.37-.74-6.77,3.16-15.9,3.44-23.21,1.34-35.21-31.53-60.93-65.46-56.86ZM186.3,171.75c-1.02-.85-11.17-.96-13.21-.76-18.29,1.81-33.51,18.65-39.61,35.11-3.52,9.5-1.88,11.99-2.17,21.02-.33,10.24-10.39,27.65,4.81,29.56,22.83,2.87,33.77-32.15,45.86-45.89,9.95-11.31,20.63-13.44,31.73-21.52,1.77-1.29,9.29-7.57,7.78-9.76-18.49-10.16-40.68-3.32-55.39,10.24-1.68,1.55-9,11.22-10.71,9.46,1.42-9.62,13.54-18.12,21.74-22.48,2.57-1.37,5.57-1.98,7.96-3.2.61-.31,2.87-.42,1.23-1.79ZM173.41,231.85c14.32-.04,23.85-10.37,32.12-20.69l15.11-22.24c-8.86,8.01-21.02,11.61-30.07,19.31-7.5,6.39-12.45,15.15-17.17,23.62ZM21.38,276.51c5.78-4.3,11.37-8.89,16.3-14.17-3.85-2.11-6.64-8.71-10.9-9.69-2-.46-11.55.14-12.19,2.09-1.7,5.09,5.14,16.73,6.8,21.77ZM115.86,270.51c-8.56-2.34-10.89-6.94-18.06,1.26-8.32,9.53-2.59,18.11-6.95,27.4-4.28,9.12-16.52,5.75-17.78-3.57-1.18-8.75,10.87-20.95,1.59-29.86-7.28-6.99-15.02,1.09-22.89,1.24-3.46.06-7.29-1.85-10.64-2.48l9.87,20.59c.94,0,11.29-11.12,14.19-12.42,1.34-.6,3.15-.51,3.41.86.24,1.26-12.52,12.11-14.67,13.68l-.77,1.74c1.04,2.36,7.87,17.37,9.02,17.63,1.52.35,4.7-5,7.28-4.29,2.72,4.55-5.3,5.76-5.01,8.85.11,1.23,9.57,17.76,10.6,17.75l21.06-18.43,9.1-17.62c.62-2.57-7.84-12.72-7.39-15,.19-.99,2.35-1.78,3.34-1.21.34.2,2.98,5.85,3.72,7.02.6.93,1.52,3.76,2.81,3.18,1.91-.87,6.05-13.86,8.17-16.3ZM38.13,267.95c-2.2,1.96-14.07,10.74-14.23,12.44.43,2.48,8.08,18.23,9.09,18.46l14.77-11.59-9.63-19.31ZM16.22,279.94c4.24-.3,1.25-2.47.84-5.14l-.84,5.14ZM18.8,309.14l9.03-5.99c.75-.52,1.24-1.18,1.26-2.14.04-2.62-7.73-14.94-9.01-18.47-4.92,0-1.55,15.36-1.3,18.46.22,2.7-.13,5.45.01,8.15ZM43.72,321.17c1.53,1.14,13.27-10.1,15.39-11.7l-9.4-18.36-14.49,11.76c-.72,2.8,7.75,14.58,8.5,18.3ZM26.54,334.91c1.32.38,1.45-.44,2.13-.86,1.68-1.04,12.13-8.97,12.32-10l-9.76-18.34c-2.31,1.78-11.19,6.89-11.6,9.03-1.25,6.61,5.28,14.07,6.91,20.17ZM61.73,313.44c-1.32-.37-1.43.37-2.14.85-4.51,3.04-8.48,8.03-13.37,10.79,1.6,2.5,8.95,18.09,10.78,18.24l14.11-11.58c.59-2.33-9.17-14.49-9.39-18.3ZM82.35,340.06l9.45-20.61c-1.84,2.27-14.14,11.12-14.52,12.61-.42,1.64,4.34,8.55,5.07,8ZM43.69,328.04c-.95-.65-12.76,9.24-14.47,10.84l9.35,19.21c.74.58,13.43-10.13,14.5-11.77.53-2.11-8.7-14.76-9.37-18.28ZM21.37,338.34c4.24-.3,1.25-2.47.84-5.14l-.84,5.14ZM70.32,364.1c.89-.61,9.24-18.39,9.3-19.47.04-.66-5.7-9.69-6.27-9.7l-15.02,12.43c3.89,3.86,6.34,12.28,9.91,15.84.56.56,1.2,1.51,2.08.9ZM26.48,341.82c-1.36-.93-4.29,1.2-4.26,3.02l1.73,23.56c.62.71,11.8-7.29,11.87-8.14-2.5-1.99-8.48-17.85-9.34-18.44ZM56.55,350.4c-.92-.22-1.71-.05-2.53.39-3.41,1.82-8.64,8.45-12.81,10.44-.8,2.69,8.6,14.65,9.39,18.32.73.53,5.43-3.52,6.41-4.31,1.32-1.08,8.83-7.56,8.95-8.26l-9.4-16.58ZM37.26,364.12c-2.17,2.52-12.02,7.3-12.49,9.88-.85,4.68,6.93,14.73,9.05,19.29l13.93-11.56-10.49-17.6ZM56.6,389.86c.94.73,8.37-14.56,8.57-16.31-2.18,2.25-10.6,7.13-11.62,9.43-.65,1.47,3.42,4.78,3.05,6.88ZM46.27,413.91c.42-4.51,9.13-16.05,9.14-19.32,0-2.46-4.56-6.24-4.85-9.02l-14.47,10.84c-.31,1.62,7.81,15.72,10.18,17.49ZM26.53,397.59c6.13-1.01,2.33-6.91-.86-9.44l.86,9.44ZM27.57,402.07c-.66,1.13,1.35,22.68,1.91,25.63,2.83,14.9,14.77-5.52,14.09-9.73-.16-1.02-9.75-17.22-10.57-17.85-1.4-1.08-4.79.85-5.43,1.95Z"/>
  <path d="M213.67,100.59c1.11.7,9.56,20.92,10.82,23.95,6.76,16.16,18.26,45.96,17.72,63.09-.12,3.72-2.41,6.07-3.29,1.5s-.62-10.41-1.5-15.69c-2.61-15.58-9.68-33.18-15.76-47.79-1.34-3.23-11.68-23.98-10.45-25.18.1-.1,2.11-.11,2.46.11Z"/>
  <path d="M131.32,163.16c-3.12.12-4.5-2.69-7.4-4.18-5.05-2.61-23.02-5.28-15.31-15.51,8.12-10.77,25.01,10.53,22.71,19.7ZM127.03,156.28c-.26-4.78-12.55-17-15.9-10.3s11.62,7.98,15.9,10.3Z"/>
  <path d="M135.02,304.59c-5.27-4.87-2.09-15.15.74-20.62,7.23-13.95,5.93-2.75,7.82,3.91.84,2.97,3.57,6.82,3.91,9.92.7,6.5-7.34,11.53-12.47,6.8ZM139.9,285.1c-6.72,3.04-4.94,24,2.63,16.78,4.59-4.38-3.53-11.47-2.63-16.78Z"/>
  <path d="M185.43,103.91c8.64-.13,15.43-4.66,14.51-14.07-.37-3.83-2.76-6.57-3.3-9.59-1.03-5.75,4.04,1.25,5,3.6,3.7,9.08,1.63,19.02-8.45,22.24-2.91.93-8.59,2.76-7.76-2.17Z"/>
  <path d="M157.73,87.81c6.17-1.13,16.47,2.62,20.47,7.46,1.91,2.31,1.44,4.95-1.59,4.19-3.71-.93-6.19-6.51-13.3-7.35-2.85-.34-11.06,2.17-9.61-2.33.35-1.07,2.93-1.77,4.04-1.97Z"/>
  <path d="M152.53,244.46c-1.16,1-3.94,1.58-4.01-.14-.03-.64,6.61-8.53,7.73-10.29,2.21-3.43,12.72-24.24,15.85-23.63,3.78.72-3.44,8.29-4.21,9.52-4.23,6.77-9.66,19.64-15.37,24.55Z"/>
</svg>