<?xml version="1.0" encoding="UTF-8"?>
<svg id="Layer_1" data-name="Layer 1" xmlns="http://www.w3.org/2000/svg" viewBox="0 0 372.18 404.77">
  <path d="M55.77,330.87c1.38-1.35,4.73-1.42,6.43-.54.21-.9-.28-1.09-.81-1.6-14.26-9.94-9.39-21.96,3.24-30.01.28-.58-.7-2.07-.78-3.02-.3-3.82.72-7.02,1.02-10.68.27-3.29-.73-7.98.96-10.84,1.09-1.86,7.67-6.01,9.78-7.91,2.63-2.36,9.29-8.36,11.18-10.8.97-1.26,8.24-15.54,8.45-16.8.35-2.15-1.22-4.01-1.41-6.18-.66-7.61,9.39-15.06,12.26-21.52,1.03-2.31.75-5.24,2.3-7.35,2.25-2.43,6.57-3.3,4.77-7.55.17-2.79,3.72-3.49,4.17-4.95.52-1.69-.16-4.37.13-6.3.59-3.89,3.11-10.15,4.09-14.67,1.61-7.45,2.95-15,4.3-22.51,5.46-38.26,1.98-37.7,35.54-57.21-6.81-7.01-9.14-15.16-11.15-24.23-6.48-7.71-5.73-14.84-7.08-24.28-.91-.34-2.01,1.56-2.67,1.07-.72-.53-1.37-6.28-1.08-7.5l-2.67,1.61c-1.37-3.07,1.93-6.05,2.15-7.76s-2.16.27-1.51-2.04c.87-3.1,6.12-4.52,4.79-8.32,14.65-13.81,28.28-21.93,49.04-17.73,1.72-.04,1.2-1.02,1.67-1.13,2.62-.63,3.39,1.92,4.98,2.36,3.53-.33,3.67-.52,4.38,2.93,1.15.42,4.92-.41,3.71,2.69,11.15,5.18,11.93,20.08,11.78,30.89,0,5.7,1.57,12.15,1.06,17.14-1.85,6.99-2.91,4.83-.8,12.07.36.74,12.02,9.24,13.3,9.76,45.74,11.29,61.47,15.91,81.44,61.19,10.15,19.87,25.59,43.48,28.84,65.44-.5,4.72-4.29,7.45-5.72,10.93-1.15,2.8-.51,5.87-2.38,8.88-.84,1.35-9.8,8.94-11.44,10.01-4.09,2.68-8.82-.81-12.81-.52-2.66.19-6.42,2.75-9.43,2.68.07,7.26,6.6,7.45,1.71,15.38-.64,3.09,2.19,10.38,2.94,13.98.69,3.32,4.52,25.18,3.38,26.37-4.06,1.88-2.72-16.53-3.76-16.62-2.76,2.6-8.08-4.08-8.84-4.14s-2.76,1.69-3.67,2.09c-1.96.87-9.56,3.99-11.09,2.58-1.74-1.47,5.42-1.65,6.43-2.41,3.06-.79,9.73-6.7,11.8-5.36-5.31,3.69,2.24,4.98,4.82,7.24-.12-2.26-3.96-20.91-5.09-20.9-5.89,5.36-13.23,8.96-20.63,11.82-.04,3.23,4.23,13.06,2,15.38-4.37,3.02-15.44,7.37-20.77,9.24,33.64,2.73,67.41,4.01,101.08,6.44,2.33.59,12.56-.35,12.07,2.67l-225.23-13.95v-1.59s38.08,2.14,38.08,2.14c-.51-11.23,2.08-22.32,2.13-33.5-9.33-9.79-9.7-14.45-10.78-27.29-2.21-12.29-6.16-23.92-12.26-34.64-1.79,4.48-3,11.06-5.67,14.97-3.42,3.04-2.86,3.26-3.15,7.57-.37,1.72-3.3,10.83-3.94,12.15-.85,1.75-3.1,2.92-4.11,4.47-2.22,5.84-10.31,17.99-14.38,22.08-3.75,2.52-7.91.55-10.57,1.76-.78.35-11.18,10.44-12.36,11.77-3.91,4.44-2.51,3.74-3.34,8.99-.35,2.19-1.47,3.73-2,5.77l18.77,1.62v2.14s-20.09-2.12-20.09-2.12c-2.34.14-4.67,3.73-5.65,5.61,3.14,1.61,27.77-3.52,24.61,1.82-1.04.81-22.92-.41-26.38,1.64-1.1,2.09-3.61,8.11-6.02,8.58-4.12.8-7.67-1.51-7.23-5.88-13.55,2.2-39.14,17.05-21.4,31.32,20.12,16.44,77.71,14.39,98.81.23,25.76-17.29-9.66-34.61-26.46-34.76-.44-1.51,1.91-1.65,2.92-1.63,29.29,2.8,51.81,25.29,17.46,44.25l2.68.8c-3.32.4-6.51,1.01-9.65,2.16.36,1.48,3.78-.66,3.21,1.6-15.54,1.63-31.01,6.46-46.92,4.82-3.64-.22-10.53-2.12-13.43-1.89-1.29.1-3.23,1.49-5.07.82-.56-2.19,2.44-.17,2.68-1.61h-12.33c-.57-2.66,7.06.14,6.97-1.6-4.26-.9-8.5.44-12.87-.01.45-1.59,8.66-.24,6.97-2.13-.71-.73-9.11.84-11.54.53-.98-.12-.87.18-.8-1.07h8.58v-1.61h-12.33c.28-1.28.94-.64,1.5-.71,2.33-.26,4.71-.47,7.07-.37-.22-1.23-2.31-.73-3.07-1.22-.34-.22-.68-1.46-.95-1.46h-8.85ZM141.04,32.8v7.51c1.9-.15,3.55-5.1,3.84-5.27s2.24-.49,2.06.44c-.36.06-1.61-.07-1.61,0v10.45l2.17,11.5c15.73-1.36,16.29,9.92,16.17,22.17.77,2.57,5.79,1.59,5.79,2.78,0,1.43-6.51,1.3-7.39-1.72-1.08-10.72,3.58-22.3-12.98-19.73.94.69,2.69,4.55,3.18,4.85,1.04.62,7.71-2.06,8.61-.01-1.38-.08-2.71,2.33-3.06,2.42-2.15.57-3.48-1.34-5.52-1.08,2.07,13.29,11.64,24.51,20.63,33.79,13.02,9.74,32.91-15.96,35.14-27.36,1.06,7.23-12.19,27.25-18.76,30.03,2.44,4.09,7.11,5.25,6.43,11.78-1.26-.77-1.16-2.98-1.91-4.25-1.58-2.67-5.83-5.12-8.81-5.93,4.23,23.17,10.19,12.67,17.7,28.4-1.61.39-4.35-5.47-6.43-6.7-11.39-7.62-9.97-10.06-13.38-22.02-.5-.37-9.99,1.23-11.57-2.36l-2.94,23.59c3.08-1.68,10.26-9.33,13.59-8.98s2.97,5.83,5.14,7.67c1.49,1.26,4.96,1.66,7,2.68.35.17,2.09.46,1.07,1.31-.36.3-8.16-1.38-9.07-1.91-2.48-1.45-2.47-6.5-4.6-6.69-2.4-.22-8.54,5.66-11.16,7.09-.78.42-3.18,2.11-3.86,1-1.3-2.11,2.69-20.89,2.95-24.95.34-5.28-2.76-7.06-6.27-10.39-.75-.19-3.69,1.68-4.61,2.19-5.57,3.1-18.89,10.95-22.36,15.71-8.59,18.32-8.68,54.92-16.61,75.12.44,5.36,1.87,6.42-3.65,9.43-.57.98.31,3.56-.4,5.24-.88,2.09-7.21,4.31-6.7,8.31,4.61-1.92,10.21-3.62,15.24-2.89.52.06,2.02.23,1.92,1.02-16.1,1.2-17.51,3.53-26.4,16.77-2.54,3.87-4.9,6.95-2.55,11.65l3.74-5.63-.26-.79c-4.94,3.02-1.76-2.44,2.13-2.16,1.18,3.81-6.53,15.32-8.38,19.5-4.69,8.62-8.2,13.28-15.47,19.92-2.23,2.03-9.8,7.22-10.9,8.99-1.65,2.64-.67,7.16-.91,10.3-.18,2.29-2.85,12.05,1.22,11.46.39-.06,7.07-2.89,7.28-3.23.6-.96.14-4.86-.98-5.81,3.6.67,4.82-3.03,6.95-5.12.42-.96-2.57-1.68-2.65-2.66-.11-1.3,1.43-.26,1.76-.17,1.18.33,5.4,2.03,6.22,1.47,1.23-2.75-.5-6.35,2.73-8-1.45,3.15-.54,5.93-1.32,9.13s-5.79,11.93-2.84,14.88c.4.4,3.03,1.27,3.63.96.43-.22,3.75-4.7,4.2-5.49,9.13-18.38,13.5-9.79,9.75-32.87l2.94,6.96,22.52-21.98c-.11-11.94-12.88-19.11-23.6-18.21-.73-.1-1.66-.37-.8-1.07,11.77-3.82,26.9,7.48,26.86,19.57,0,1.75-1.4,5.23-2.45,2.41-.99,1.45-6.09,4.47-1.6,4.31,7.07-.08,12.85-12.36,16.57-17.21,4.27-8.48-5.26-19.25-11.54-24.31-1.76-1.28-3.94-1.92-5.32-3.53,9.64,1.54,16.8,11.99,19.31,20.9,4.58-1.49,3.49-5.4,4.52-8.61,3.55-3.94,2.32-6.83,3.09-11.39.36-1.27,2.06-1.68,2.8-2.56,1.69-1.99,6.46-16.4,6.23-19l-11.06-28.1c-6.85-5.31-12.96-14.05-15-22.53-.14-.58-.81-2.71.29-2.7,2.72,8.12,6.72,16.43,13.41,21.98-4.04-13.01-9.33-25.89-10.18-39.67,15.01,41.35,23.71,92.3,57.91,123.57-7.47-2.55-15.19-14.82-20.37-20.64,1.52,32.07,11.32,35.72,39.68,45.3-9.49.22-19.16-3.74-27.08-8.84-.33.96-.55,4.02-.15,4.71.2.34,5.31,4.24,6.14,4.85,5.13,3.71,10.19,6.23,16.36,7.77,4.05,1.01,8.59,1.01,12.23,2.78.26,1.3-1.04.76-1.87.8-12.4.8-24.58-6.92-33.52-13.94-.74,8.39-2.68,16.69-2.12,25.17l43.95,2.7c.47-.33-2.99-9.9,0-11.25l1.08,11.26c1.52,0,3.05-.02,4.58-.01.93,0,2.23,1.16,2.19-.56.28-2.92-2.53-9.05.2-10.69.67,1.75.49,11.17,1.08,11.79.2.21,3.49-.13,4.28,0,.5-.48-3.88-11.39-3.22-13.4-3.02-.38-13.8.97-15.6-1.29-1.08-1.36-1.48-8.65-.53-10.15,1.08-1.7,6.31-.34,8.08-1.16-1.02-1.18-2.11-.21-3.63-.61-1.63-.79-10.39-2.93-9.77-5.02,2.15-1.27,10.24,4.03,9.65,1.35-.18-.44-4.17-4.26-4.87-4.79-7.28-5.51-18.17-5.54-6.4-16.67,5.48-5.18,16.04-13.39,23.14-15.46,6.28.36,8.87-5.62,15.12-9.01,1.61-.82,10.17-4.63,11.34-4.65,4.71-.07,10.86,6.94,15,6.36,1.02-.14,5.68-4.82,5.98-5.9.52-1.88-1.06-5.07-1.4-6.98-1.83,2.09-.8,5.96-1.07,8.57-3.99-.67,3.6-32.86-1.12-27.66-2.82,7.75-4.92,16.51-11.2,22.31,3.73-6.67,9.24-17.51,10.46-24.72-12.13-13.7-22.54-29.51-24.41-48.19,5.74,20.24,17.62,41.56,34.58,54.15.64,1.42.06,3.05.3,4.52,1.03,6.25,5.72,2.08,9.1,1.12,8.6-2.4,25.55-.15,27.07,10.44-6.17-9.8-19.7-12.34-29.76-7.23-.93.47-3.86,1.81-2.95,2.95,1.68-.22,6.25-3.02,7.23-1.09-2.38.48-5.66,1.48-7.69,2.77-1.08.95-10.86,10.11-3.71,6.48,12.68-2.64,25.6,5.76,24.8,19.43-.1,1.66-.68,6.18-1.86,2.95l-3.49,2.67c7.02,3.48,9.71-3.03,14.79-6.38,1.97-3.8,1.91-8.23,1.84-12.37,1.47,5.49,1.55,5.28,0,10.18,4.23-.63,2.38-14.71,2.15-18.22,1.9,1.23,2.22,4.12,2.14,6.16-.06.47,1,.32,1.06.27.36-.3,3.39-6.15,3.54-6.94-6.14-34.12-31.44-64.18-45.45-95.62-14.12-18.46-39.56-23.3-61.04-28.23,5.24,10.55,5.11,30.84,3.75,41.28-4.18-.26-14.21-7.96-17.43-7.83-2.35.1-3.73,6.91-5.62,5.15-.3-.28,2.92-6.83,3.75-7.24,4-1.94,13.74,6.37,18.24,6.7-1.54-8.64,1.13-31.05-4.27-37.81-.94-1.18-7.94-6.69-9.67-8.03-.54-.42-.68-1.04-1.61-.8,4.96,9.79,1.98,22.6-1.47,32.58-2.6,9.1-15.19,22.19-13.02,30.14.95-2.91,3.59-5.09,4.77-7.83s.47-5.77,2.48-7.71c.61,10.03-3.65,11.08-7.9,18.37-1.61,4.25,2.13,19.21,2.8,24.78,2.02,16.9,3.03,32.21,6.7,49.05.03,2.16,4.37,12.05,2.43,12.32-6.34-18.07-9.36-37.45-9.67-56.55-1.38-13.78-6.32-23.39-3.06-37.92,1.56-6.94,5.58-10.18,8.71-15.95,4.06-7.49,9.87-25.83,8.29-34.04-.18-.95-2.72-3.66-3.5-5.08-.7-1.28-2.26-6.22-2.91-6.75-.47-.38-7.27,3.17-6.46-.78,7.18,1.09,9.17-10.49,8.53-15.76-2.56-13.16-11.81-5.13-11.21,4.22-.57,2.95-2.01-.02-2.27-.14-.48-.23-1.19.62-1.73-.08-1.2-1.56-1.97-6.13-3.57-8.26-1.1-1.46-3.89-2.24-2.35-4.65,1.04-1.63,2.26,1.23,3.06,2.35.37.52,1.18.75,1.35,1.03.6,1.02,2.01,8.11,2.31,8.42,2.7-.81,1.75-4.72,3.1-7.35,1.94-3.76,6.77-5.82,10.29-2.84-.31-6.43,1.73-8.9-1.05-15.34,1.96-7.57-3.33-15.05-8.99-19.11-.28-3.95-1.95-2.03-4.36-2.61-1.32-3.22.74-2.78-3.36-2.35-1.02-.22-1.84-1.73-2.41-1.82-.62-.09-1.15.88-1.96.9-20.03-5.72-33.05,1.09-47.61,14.32-.97.65.64,1.22.35,1.88-.72,1.66-4.92,5.05-6.2,6.7-.29.65,2.7-.4,2.14,1.06-.29.77-3.85,4.99-3.21,5.64l2.14-.53ZM295.39,196.94c-5.86-2.44,1.3-7.7-5.8-10.28-.8,6.06-1.27,12.46,1.07,18.23.42.32,5.88-6.03,4.72-7.94ZM317.45,228.45c1.98-16.22-20.08-27.69-30.29-13.36-.54.52-2.18.49-1.05,1.6,8.9-2.31,5.7.56-.54,1.6-10.25.93-13.84-11.59-23.87-4.03-2.15.89-9.05,2.8-9.56,5.45-.21,1.09,4.42,5.84-1.69,6.08l2.06-2.51c-1.49-5.55-8.95,2.12-2.75,3.47,5.63,1.26,9.81-5.19,16.5-4.75,2.35.15,3.23,1.65,6.17-.49.49,2.29-3.75,2.7-3.76,2.96,0,.57,2.24,10.65,2.7,10.99.25.18,2.44-.87,3.21-.53-.04,1-2.25,1.17-2.57,1.71-.45.78.38,5.26.9,6.01.42.61,1.52.19,1.66.31.99.82-1.09.96-1.13,1.85-.08,1.56.67,3.03.6,4.58,1.01,1.02,10.32-8.15,11.54-9.1,7.19-5.02,22.63-9.52,31.87-11.83ZM241.86,271.37c.96,3.07,3.49,16.48,5.38,17.93,8.41,3.07,24.55-4.98,31.34-9.33l-11.5-56.1c-7.09-.9-13.89,8.98-20.7,3.54-.88-.7-.38-2.06-1.83-1.62l-9.93,14.47c-.09-4.97,6.36-10.92,8.85-15.28-4.74.38-9.53,3.77-13.36,6.48-2.99,2.92-17.68,11.71-14.57,16.08.72.98,9.31,4.89,11.56,6.67,9,6.9,16.53,19.66,28.7,22.51l7.5-49.86c-2,12.45-1.06,43.11-7.78,52.03-3.1.46-10.87-5.7-13.66-7.53ZM293.34,240.27c-.33-4.84-15.58,11.02-18.12,11.9-.51.87,1.42,11.02,2,11.46,1.09.84,9.87-3.77,11.46-4.7,7.08-4.16,16.45-10.07,8.68-18.65-1.16,2.53-3.83,3.37-5.33,4.85-.79.78-.92,2.35-1.91,2.64.53-2.4,1.73-5.7,3.21-7.5-.05.84-1.08,3.14,0,3.21l3.76-5.35c-1.86-.42-2.69.85-3.75,2.14ZM227.18,266.08c-1.48-.07-.14,6.93.19,7.16,1.67.66,10.89,2.27,12.64.81.88-1.23-2.5-6.55-4.06-7.24-.98-.43-7.69-1.04-8.77-.73ZM85.26,284.23c-2.87.03-3.64,2.27-5.35,4.02,3.65,3.25,4.54-.89,5.35-4.02ZM82.58,291.21c-1.27-.08-2.76-1.22-3.99-1.11-.24.02-1.44,2.61.29,2.5.48-.03,3.48-.71,3.71-1.4ZM145.32,335.17c-16.8,4.13-35.02,6.33-52.26,3.73-.58-.04-2.53-.37-2.43.55,18.23,2.49,37.37,2.49,54.69-4.28Z"/>
  <path d="M259.01,359.28l-4.26-1.36c-4.8-5.2,1.06-8.24,4.78-11.23-1.33-1.39-3.66-.91-4.84-2.66-.85-1.26-1.31-3.46-.46-4.78,1.23-1.9,13.82-9.09,16.74-11.16,8.74-6.2,16.49-13.53,24.9-20.14,12.38.73,28.87,1.84,40.65,5.2,4.03,1.49,1.91,2.53,2.66,4.29.24.56,1.31,1.51,1.82,2.49.46.9.46,2.38.85,2.9.86,1.17,6.51.61,7.55,3.71,1.48,4.44-2.96,5.76-2.97,6.2,2.99,2.1,5.29,5.08,2.59,8.5-8.12,7.81-16.85,14.98-25.13,22.59-2.31,2.12-10.96,11.79-12.83,12.37-17.55,1.46-36.39-5.03-53.67-8.06-4.51-2.13-2.41-7.5,1.61-8.86ZM337.31,315.33c-13.11-3.63-26.9-4.04-40.35-5.79-12.62,10.67-25.36,21.07-39.55,29.64,11.37-1.49,25,2.7,35.72,6.63.68.25,1.64.12,1.81,1.13-12.69-2.07-26.31-8.89-39.13-5.63.97,5.1,18.16,6.09,22.94,7.61,1.25-.03,7.77,2.24,7.6.71l-16.08-3.75c2.2-.81,9.6,2.46,10.18.54l-18.22-3.24.27-1.6c5.07,1.01,10.23,1.27,15.28,2.42,4.1.93,19.31,6.54,22.16,5.56.36-.12,2.73-3.19,3.57-3.95,10.58-10.31,24.99-18.64,33.79-30.28ZM299.77,352.85c13.47,3.46,28.22-21.66,38.61-29.21,1.64-1.24,1.15-4.85-1.22-4.49-1.68.26-6.22,5.69-7.89,7.18-4.18,3.72-8.57,7.11-12.62,11-.36.34-2.49.83-.98,1.59,1.1.56,3.49.49,3.4,2.68-1.71-.97-3.06-2.67-5.2-1.75-1.66.71-5.86,4.62-7.4,6.05-.44.41-2.38.69-1,1.63.59.4,1.9.25,2.28,1.39,1.04,3.1-2.99,4.11-4.21,2.85-1.65-1.7,4.22-.14,2.64-2.62-1.45-2.28-5.58,2.31-6.39,3.7ZM311.58,360.36c8.21-5.27,14.84-12.5,21.97-19.04,4.57-4.23,10.06-8.05,14.25-12.6,1.27-2.46-6.76-4.31-8.33-3.48l-15.56,16.09c-.15,1.92,3.26-.42,2.67,1.87h-5.36s2.68,2.14,2.68,2.14c-6.14-2.61-10.56,8.79-17.16,9.13,2.05,1.81,5.3,2,4.83,5.89ZM286.91,372.68c.97-.06,23.17,2.86,23.25,1.54,11.4-10.37,26.98-26.43,33.58-39.6-10.82,8.62-20.99,22.03-32.68,29.25-4.94,2.39-14.77-1.15-20.41-.83,4.25,3.58,20.33.5,21.5,7.23,0,2.67-4.89,4.47-5.96,1.61,1.29.55,5.04-.06,4.05-1.9-.8-1.49-6.38-2.67-8.2-3.06-10.5-2.24-24.71-4.97-35.27-6.03-9.51-1.86-15.37,4.93-2.52,6.8,12.34,2.91,25.2,2.58,37.65,4.45-.56,2.05-14.79-1.57-15.01.52ZM334.64,351.24l13.12-11.27c1.3-1.37.79-3.23-.78-4.03-1.65-.84-2.28,2.82-3.33,3.67l-9.01,11.63ZM309.43,359.82c1.22-6.78-37.78-7.8-45.99-12.23-2.54-.23-4.88,3.57-7.4,4.16-1.36,1.18-1.16,4.13.69,4.73,11.04-.2,47.47,9.57,53.77,4.42-.6.77-6.63.45-4.82-1.08.14-.12,3.03.47,3.75,0Z"/>
  <path d="M344.28,399.5c.13.93-1.22.5-1.87.53-15.28.26-30.88-2.59-46.13-3.75-97.93-9.27-200.84-14.68-296.28-30.56,114.57,13.01,229.48,23.14,344.28,33.78Z"/>
  <rect x="148.95" y="251.84" width="2.47" height="278.89" transform="translate(-252.78 506.52) rotate(-84.96)"/>
  <path d="M143.18,286.91l-19.84,4.29c1.32-2.42,2.55-15.98,3.73-16.92,1.24-.99,7.18,4.76,9.53,2.57l26.91-19.72c1.54.05,7.06,3.51,6.25,5.11-8.87,7.62-19.76,13.39-29.54,19.83-.6.82,3.86,3.18,2.96,4.82Z"/>
  <path d="M218.15,298.33c4.66-.45,18.47-.47,22.09,2.27,5.85,10.98,6.69,34.66-5.51,42.17-1.5.92-5.76,2.14-6.17,3.48-.64,2.12-.22,12.49-.12,15.47.09,2.81,2.28,6.52-1.89,7.18-8.32,1.31-4.71-4.33-4.5-9.32.08-1.97.25-12.82-.28-13.7-15.52-4.15-18.15-17.59-16.3-31.82,2.34-12.05-1-14.08,12.69-15.73ZM240.72,302.52c-9.86-3.13-23.02-3.64-32.67.29-.27,12.91-5.26,31.78,8.97,39.22,4.39,2.3,6.49.29,7.14,6.8.57,5.77-.28,12.33-1.61,17.95,8.07,3.04,3.72-5.36,3.74-9.89-.11-2.5-.33-10.89.85-12.6,19.57-6.29,14.48-25.74,13.59-41.77Z"/>
  <path d="M171.07,350.17c-.68-.59,2.58-11.69,4.83-8.3.2,1.48-2.58,3.57-2.68,5.08,8.22-5.53,4.41-9.19,6.75-16.56,0,0,17.64-22.59,17.64-22.59,1.58-2.42-3.48-5.03-5.09-4.02-4.48,6.86-11.11,22.3-17.51,28.08-6.2,2.93-10.05,4.27-11.44,11.88.99-.67,4.61-6.07,5.89-4.82l-2.41,7.5c1.38-.43,4.08-8.02,5.63-6.43.67,1.77-1.2,2.6-1.45,3.56.34,1.8.05,3.44-1.65,3.04-.83.83-4.43,6.21-4.44,1.73,0-1.94,1.71-3.68,1.37-5.64-.61.96-4.49,5.97-5.63,4.82.69-7.81,4.61-14.6,12.52-16.69,7.7-8.22,12.07-19.5,18.27-28.92,1.99-1.5,10.1,1.5,7.38,6.85-3.39,6.68-15.44,16.27-17.92,22.83-1.5,3.97.93,7.61-1.9,12.04-.8,1.26-7.07,7.68-8.17,6.57Z"/>
  <path d="M51.88,296.16c3.82,4.58-10.04,13.58-12.75,16.2-5.75,3.5-4.46,2.97-8.82,7.8-2.36,2.6-10.49,11.9-13.13,12.6-3.09.82-8.78-.39-6.49-4.33l17.22-16.03c1.92-5.34,5.39-6.75,9.1-10.2,4.88-4.51,7.9-10.72,14.87-6.04ZM12.33,330.33c9.19,3.03,14.77-13,21.43-17.44,5.11-2.28,11.9-7.73,15.59-11.75,3.35-4-1.93-5.88-4.07-4.61l-13.65,12.89c6.87-.23,11.09-7.35,16.1-10.98.34-.22,2.08-.73,1.33.26-4.76,4.71-11.31,12-17.96,12.6-1.8,1.09-6.04,6.23-8.04,8.04-2.62,2.88-10.75,7.31-10.73,10.98Z"/>
  <path d="M220.94,361.97c.26,1.49-.31.9-1.17,1.21-2.77.97-11.32,2.51-9.99,6.98,6.5,10.38,52.95,1.37,20.68-6.72-.56-.21-1.59-.18-1.47-.93,4.76-.24,16.46,1.8,14.37,8.73-1.48,4.92-17.76,6.03-22.08,5.67-18.5-1.55-17.75-13.8-.34-14.94Z"/>
  <rect x="34.29" y="247.39" width="2.52" height="56.82" transform="translate(-242.13 290.72) rotate(-85.73)"/>
  <path d="M83.12,323.36s-.2-1.13.26-1.06c1.44,1.02,3.3,1.53,4.98,1.99,13.14,3.82,56.73,6.28,59.65-11.64,3.32,3.26-2.21,7.5-5.01,9.2-15.86,8.48-43.58,8.76-59.88,1.51Z"/>
  <path d="M145.33,308.35c-16.46-9.49-38.4-6.53-56.31-3.48,16.38-5.82,42.04-8,56.31,3.48Z"/>
  <path d="M87.94,305.14c-7.6,4.6-14.41,5.86-8.31,16.07-9.98-6.7.41-14.87,8.31-16.07Z"/>
  <path d="M299.23,265.47l-2.67-8.04c2.12,1.63,2.26,5.52,2.67,8.04Z"/>
  <path d="M189.84,26.9v8.85c0,.15,1.48,2.48,2.14,1.88.15-.14-.13-2.55,1.61-2.14.08,1.14-.14,2.34.01,3.47.11.81,1.74,6.25.26,6.16-4.66-5.98-6.18-7.46-5.63-15.53-2.47,1.13-5.46,1.17-7.94,1.97-3.63,1.17-5.71,3-10.03,3.38-2.11.19-5.71-.43-7.39,0-2.08,3.98-12.6,2.42-15.4-.52,3.12-.37,6.07.62,9.11,1.06l-3.21-2.13c1.23-.24,7.08,2.1,6.97.54-.72.11-5.4-1.64-4.28-2.68,5.05,1.27,15.82,3.31,19.84,0-2.18-.09-5.08-.82-6.43-2.68,6.93,1.17,13.93,1.88,20.38-1.61Z"/>
  <path d="M273.49,148.06c-1.03-.19-.88-1.12-1.09-1.85-2.89-13.86-3.24-33.29,8.6-43.18-9.67,12.84-9.69,29.79-7.51,45.03Z"/>
  <path d="M186.08,54.79c1.48,1.47-4.31,1.06-4.96,1.19-3.53.69-8.32,4.04-11.82,2.97-6.2-3.1,11.71-5.74,13.25-5.2.48.06,3.4.9,3.53,1.03Z"/>
  <path d="M279.39,168.43c-4.09-4.26-2.75-24.78-2.13-31.09l2.13,31.09Z"/>
  <path d="M327.66,185.06c.14.92-1.28.57-1.86.52-10.57-1.41-18.1,2.14-26.55,8.04,4.66-8.56,19.3-11.58,28.42-8.57Z"/>
  <path d="M146.93,214.54c-3.81-7.53-8.53-14.61-17.56-15.94-.52-.1-6.15.11-4.42-1.21,10.67-1.34,21.13,6.34,21.98,17.15Z"/>
  <path d="M151.22,164.68c-7.84-5.23-14.34-12.84-17.15-21.98,3.32,4.18,5.65,9.03,9.13,13.12,1.98,2.79,7.28,5.83,8.02,8.86Z"/>
  <path d="M320.69,177.02l-12.69,5.26-9.29,6.52c3.85-7.14,13.87-11.5,21.98-11.79Z"/>
  <path d="M186.08,84.27c-2.21-.94-6.58,5.15-11.66,5.22-1.55.22-7.21,0-8.17-.94-1.71-1.69,2.71-.54,2.95-.53,4.4-.01,14.09-.91,14.75-6.43,1.05-.92,2.92,1.35,2.13,2.68Z"/>
  <path d="M213.89,46.82c.31.19,1.83,4.42,1.68,5.28-1.84-1.66-2.06-6.49-5.07-2.66-3.55,4.5-.52,3.54.82,5.57,1.69,2.56-1.29,7.12-2.18,6.2-.53-.55,3.33-3.83.83-5.93-.56-.47-1.85-.51-2.21-1.02-1.37-1.92,2.97-9.4,6.12-7.44Z"/>
  <path d="M146.93,194.71c.05.06.2,1.13-.26,1.06-6.01-3.83-12.92-4.38-19.72-5.49-.48-.08-1.61-.23-1.47-.93,7.22-.57,15.42,1.63,21.44,5.37Z"/>
  <path d="M185.01,61.22c-.74,1.43-3.08,1.7-4.25,2.45s-.51,2.4-3.41,1.74c-.9-.2-1.45-1.07-2.27-1.26-.4-.09-2.72.87-1.09-1.35.51-.69,9.11-.61,11.02-1.57Z"/>
  <path d="M320.15,189.35l-12.86,1.6c2.7-3.09,9.15-2.33,12.86-1.6Z"/>
  <path d="M179.65,91.24c-.34,2.37-3.73,2.8-5.62,2.69-2.46-.15-3.33-1.8-1.74-1.49,2.91.56,4.66-.3,7.36-1.2Z"/>
  <path d="M174.21,80.44l-5.27.34c1.27-2.27,5-.88,5.36-3.48,1.21-.08.09,3.03-.08,3.14Z"/>
  <path d="M206.48,146.44c-.72-.51-.11-3.49,1.3-3.19,2.57.54.85,4.7-1.3,3.19Z"/>
  <path d="M91.16,294.95c-.13.16-1.54-1.19-2.11-1.37-1.13-.35-2.31-.01-3.25-.5,1.12-2.97,6.57.31,5.35,1.87Z"/>
  <path d="M309.96,333.56l-.76,1.03-30.35-6.66c.62-.98,1.12-.46,1.93-.38,9.7.95,19.68,3.9,29.17,6.01Z"/>
  <path d="M292.8,367.33c-6.48,1.08-13.38-.48-19.66-2.08-.87-.27-1.52.44-1.25-1.14l20.91,3.22Z"/>
  <polygon points="297.09 357.68 296.34 358.71 266.53 353.66 297.09 357.68"/>
  <path d="M240.24,303.53c-3.07,6.91-22.52,5.28-28.43,2.95-1.65-.77-3.36-3.09-1.03-2.19,9.27,3.57,20.37,3.15,29.46-.77Z"/>
  <path d="M213.97,335.17c3.66-.47,5.48,3.24,8.82,4.31,3.59,1.16,8.44-1.03,10.97-3.57,2.02-2.03,2.82-5.25,4.88-7.18-3.81,12.43-15.28,16.8-24.66,6.44Z"/>
  <path d="M211.29,311.04c-.39,6.85-1.17,13.16,1.07,19.83-4.02-3.52-3.05-14.02-2.12-19.03.16-.88-.35-.93,1.05-.8Z"/>
</svg>