<?xml version="1.0" encoding="UTF-8"?>
<svg id="Layer_1" data-name="Layer 1" xmlns="http://www.w3.org/2000/svg" viewBox="0 0 304.82 428.52">
  <path d="M130.48,220.62c8.56-8,15.89-18.9,25.35-25.65.38-.64-1.06-9.75-2.44-10.02-22.17,8.39-49.44,35.44-63.51,53.68-13.45,20.21-20.83,43.49-30.58,65.22-10.72,23.9-37.49,54.43-56.04,73.4-18.52,13.2,47.74-59.39,47.51-64.6,11.28-19.91,15.4-45.4,29.76-64.01,0,0-12.52,4.41-12.52,4.41-1.89-.29-10.79-7.87-10.96-9.54-.27-2.66,4.67-10.2,5.91-13.45,9.04-39.97,42.68-86.28,88.92-71.6-1.86-5.66-12.17-18.59-17.98-19.09-4.69-.41-22.09,12.59-28.19,15.21-8.69,3.97-38.39,10.46-31.38-7.7.55-.76,10.79-4.32,13.02-5.55,11.88-6.59,18.74-13.81,32.72-18.24,15.11-4.79,32.78-8.05,46.08,2.77-1.8-19.48-7.62-38.13-14.52-56.3-8.17-18.75-17.65-39.64-15.83-60.68,14.77-11.58,16.53-10.98,33.63-2.97,37.09,17.97,53.33,70.71,57.89,108.74,1.97.34,3.1-1.51,4.82-1.87,2.66-.56,20.26,5.17,23.42,6.76,13.87,7.04,13.44,23.58,15.09,36.88,19.99,16.51,27.44,47.58,25.98,72.87-1.07,19.99-10.81,50.64-2.53,68.79,2.73,5.98,7.28,6.89,6.53,14.65-.72,7.5-3.22,14.04-1.89,22.48,1.31,8.31,11.26,11.73,2.52,20.99-25.09,20.7-23.07-14.12-26.32-30.82-1.73-6.34-5.97-12.55-9.39-18.12-8.22,42.37,13.85,65.99,29.05,101.9-23.04-28.21-36.77-61.58-33.67-98.38.2-14.09-.76-12.12-3.73-24.72-7.14-26.82,2.03-69.08-17.62-88.37-1.64-2.76,3.05.75,2.01-2-.58-1.55-8.45-13.78-10.17-11.74l1,11.2-2.02-3.05c.63,4.71-8.47,35.08-1.55,35.54.48.03,6.6-4.26,7.65-.91-4.28.37-9.4,3.23-10.12,7.72-.38,2.38.16,18.76,2.48,18.77,3.2-3.19,7.2-4.63,11.72-4.05-1.73,2.68-8.35,3.61-10.21,5.59-2.51,2.67,2.79,13.16,5.47,15.79l3.72,12.22c-2.77.61-1.74-.83-2.52-2.02-15.32-23.27-15.65-46.58-19.91-73.38-1.98.19-.91,3.33-2.29,4.84-2,2.19-8.36,2.73-11.25,2.07-10.31-2.35-9.08-23.13,2.35-23.73-10.76-2.24-14.79,17.6-15.28,25.49-.81,13.04,5.12,24.91,6.08,37.71-1.74,44.55-18.2,48.19,2.04,97.31-9.62-7.95-11.65-22.89-13.25-34.65-2.69,3.02-8.7,7.93-9.21,11.66-1.03,7.47,4.01,24.56,7.17,31.66,5.02,11.26,14.06,15.99,19.91,25.96,2.12,2.45,24.91,60.01,11.21,37.71-6.41-13.06-8.74-31.31-18.85-42.3-16.1-11.08-21.36-32.03-23.48-50.42-4.41,3.21-8.84,6.6-13.58,9.35-2.46,1.43-10.83,4.38-11.65,5.17-1.19,1.14-4.37,7.16-6.39,9.4-11.01,12.22-17.19,13.78-30.22,21.76-16.05,9.83-22.58,32.34-36.01,45.01,4.13-14.57,20.27-37.15,31.25-46.71,14.85-6.5,25.84-14.3,36.02-27.18-13.88-2.61-25.73,24.51-37.42,20.12-7.57-2.84-11.3-9.17-11.55-17.12-.17-5.37,6.07-7.22,9.75-10.61,2.13-2.25,14.15-12.82,11.19-15.31-3.55,3.5-8.36,8.64-13.76,8.66,18.62-13.06,26.31-35.97,29.55-57.58-.48-.59-10.57,9.02-13.24,6.63,11.06-4.98,13.59-14.53,20.41-23.41,9.18-11.95,20.92-18.05,27.35-32.78,3.51-8.05,6.16-19.7-1.88-25.84-.36,1.96,1.49,3.08,1.84,4.81,1.28,6.38-5.24,16.54-12.28,15.4-4.4-.71-5.75-4.7-8.91-6.96-13.7,19.95-35.14,34.94-55.58,47.89.59-9.47,21.07-15.01,24.53-21.4,1.36-2.68-3.91-4.64-4.65-7.12,2.91-.62,5.04,3.48,6.84,3.95,5.18.02,12.64-13,16.61-16.19-.72.71-5.83-2.76-6.12-4.07,2.47-.12,6.33.99,6.12,4.07ZM227.33,155.39c-1.31-51.56-14.64-137.44-74.46-151.32-2.91,1.28-7.34,8.75-13.12,7.74-1.78,24.73,12.31,45.48,20.03,67.92,9.48,27.56,13.43,57.05,10.61,86.2,14.06,9.68,8.57,9.49,16.13,21.06,5.91-17.5,23.32-28.26,40.79-31.6ZM236.5,140.11c1.62-5.4,4.29-11.28,9.21-14.74,1-.7,6.99-1.82,5.06-3.6-8.61-2.77-9.34-3.25-16.3,3.05l6.11-7.12c-2.05-.72-11.82-1.98-12.32.64-.42,2.24,1.95,11.81,2.11,15.15.33,6.59-.22,13.27.02,19.86,2.98.5,1.65-.7,2.16-2.37,1.42-4.68,1.46-6.55,3.95-10.87-1.15,3.83-2.14,9.22-2.55,13.24,3.77-1.94,3.56-7.8,5.42-11.91,9.5-20.98,25.79-15.1,24.65,6.81l-3.51-11.25c-3.65-12.41-16.92-1.14-16.92,6.6,0,8.87,5.67,4.86,12.55,5.92,2.05.32,10.5,4.25,10.94,3.83-1.57-26.02-13.41-43.11-30.58-13.24ZM167.18,150.3v-17.83c-9.85-12.66-28.45-11.69-42.33-6.65-1.34.43-3.18.01-3.54,2.05,19.9-1.9,35.29,17.78,40.01,34.41.7.86,3.39,1.07,4.34,2.27,5.92-12.49-7.08-26.93-15.81-34.61l8.69,6.08,8.64,14.29ZM160.05,161.5c-6.69-21.52-29.46-40.06-52.37-29.41-5.31,2.47-9.96,7.35-14.99,10.49s-10.48,4.9-15.21,8.24c23.66-3.74,31.72-31.13,60.17-14.3,11.27,6.22,12.47,13.36,19.15,22.63.92,1.28,1.04,2.84,3.24,2.36ZM128.44,136.04c-21.78-7.09-32.13,12.74-50.96,16.8,16.46,9.52,37.56-8.65,50.96-16.8ZM236.5,174.76c43.69,32.11,9.04,106.56,47.09,141.49,1.14.49,3.36-1.23,4.9-.84-.74,2.11-2.24-.13-2.07,3.47.41,9.08,2.88,20.26,4.13,29.65.15,1.16-.42,2.08,1.5,1.5.63-.19,6.67-3.27,6.73-3.64-6.78-22.35-3.63-15.98-1.53-36.14-20.7-22.63-2.39-67-4.68-97.25-1.38-27.83-24.15-74.99-58.09-55.56,13.57,2.07,25.8,13.89,30.57,26.51-14.31-22.23-32.87-34.04-57.07-16.81,11.35-1.52,20.22-.52,28.54,7.64-14.64-8.55-34.71-10.67-42.8,7.13,18.31-18.79,41.79-8.67,52.53,12.19,16.34,31.73,5.44,69.33,18.32,101.93,4.82,12.2,12.94,20.57,15.51,34.43,1.26,6.78.7,17.11,2.53,22.94.28.9,2.93,3.74,3.35,3.75.73,0,4.05-4.09,4.16-5.54.18-2.51-2.95-12.54-3.52-16.46-.42-2.96-.56-17.05-1.2-17.66-.17-.16-2.86.01-4.59-1-36.04-39.77-3.75-102.81-44.29-141.71ZM74.42,243.04c-1.28,2.44-4.02,3.79-6.11,4.09-1.9,1.89,1.23,2.28,3.11,1.58,32.93-18.03,45.63-88.33,96.5-73.15,5.37,2.02,12.43,8.34,12.01,14.49-5.94-9.39-16.01-13.62-27.02-12.21,6.33,6.19,5.15,10.67,7.39,17.06,16.76,6.42,10.74,29.86,2.61,41.34-3.73,5.68-11.26,11.03-13.85,15.71-5.51,9.96-13.23,28.02-18.06,39.02-8.4,18.38-11.51,45.98-31.11,55.03,9.2,13.68,21.37-8.21,29.55-13.27.45,1.91-1.06,2.43-2.03,3.57-3.96,5.55-14.2,12.46-18.94,15.77-.35.58,3.01,8.69,3.13,10.21,24.14-27.76,76.08-23.41,75.25-71.52,17.72-40.37-9.96-59.39,4.59-94.26,5.62-11.24,19.89-16.07,25.73-2.93l5.02,21.96c.86-10.2,6.16-23.26,6.19-33.17.01-3.7-3.73-4.61-6.8-5.44-13.47-3.63-21.92,2.56-30.47,12.11l-1.51-2.03-4.59,13.24c-3.33-10.81-1.98-18.05-12.75-25.47.34.16,2.15.32,2.03-.5-13.5-13.18-33.46-11.79-49.94-5.62,7.71-3.87,17.73-8.4,26.49-6.11-46.02-16.71-72.18,31.64-83.84,67.52-.88,2.42-5.89,11.68-5.78,12.36,1.03,6.02,9.88,2.44,13.17.64ZM150.88,182.9c2.32-2.37-2.11-4.33-5.36-3.86-13.52,2-32.42,21.98-37.45,34.43,14.87-8.22,25.52-28.36,42.81-30.58ZM201.06,211.21c1.95,1.72,11.01,1.58,12.54-.74,1.25-1.9.71-14.51-.65-16.75-2.29-3.77-10.74-1.96-12.4,1.66-1.43,3.13-2.14,13.48.51,15.83ZM155.61,199.38c-1.73.33-9.54,12.23-9.69,13.77-.23,2.2,5.69,5.45,7.54,5.41,3.21-.07,8.48-8.74,8.59-11.8s-3.44-7.95-6.44-7.38ZM132.53,277.68c4.59-4.84,6.97-12.19,9.15-18.34-6.27,5.02-8.66,10.4-9.15,18.34ZM300.71,349.02c-5.22.09-8.6,2.97-9.16,8.14,1.42,1.45,10.62-6.84,9.16-8.14ZM98.89,354.12c-.79,10.54,15.4,14.64,6.59.02-1.19-1.55-9.51-6.3-8.62-2.6,1.02,4.27,2.31,1.13,4.35,1.7,3.66,1.05,8.52,12.51.69,5.49-1.41-1.59-1.25-4.22-3.01-4.62Z"/>
  <path d="M172.28,174.76c-19.55-10.95-42.58,2.01-57.08,15.29,11.9-16.51,38.75-28.09,57.08-15.29Z"/>
  <path d="M74.42,243.04c16.44-16.47,24.64-38.22,40.77-52.99-9.99,13.64-27.42,45.68-40.77,52.99Z"/>
  <path d="M66.27,381.63l11.23-16.78,5.06-4.62c-1.75,2.22-13.83,20.67-16.29,21.4Z"/>
  <path d="M222.22,392.83c-1.49-3.09-8.04-15.01-8.13-18.34,4.21,4.5,6.85,12.29,8.13,18.34Z"/>
  <path d="M218.15,227.76c-2.03,3.46-7.58,3.75-11.21,4.06,2.02-3.85,7.52-2.83,11.21-4.06Z"/>
  <path d="M218.15,234.89c-1.5,2.87-6.43,2.36-9.17,3.04-.48-2.91.61-1.7,2.36-2.17,2.22-.61,4.49-1.05,6.81-.87Z"/>
  <rect x="135.35" y="225.83" width="1.47" height="7.91" transform="translate(-122.89 164.59) rotate(-45.23)"/>
  <rect x="131.03" y="231.75" width="1.47" height="5.75" transform="translate(-127.32 161.93) rotate(-45.01)"/>
  <path d="M183.48,172.71c-1.74.25-1-2.35-1.02-3.56,5.37-43.68-7.47-87.53-27.5-125.85,24.92,36.23,32.32,85.86,28.52,129.42Z"/>
  <path d="M211,156.41c-1.78.24-.96-2.31-1.01-3.55.47-33.33-9.03-66.1-22.42-96.31,17.53,29.19,23.51,66.12,23.43,99.86Z"/>
  <path d="M185.52,52.47l-18.33-26.5c1.2-1.31,18.98,23.08,18.33,26.5Z"/>
  <rect x="151.64" y="33.82" width="1.52" height="7.74" transform="translate(-2.25 64.68) rotate(-23.79)"/>
  <rect x="193.69" y="149.29" width="6.11" height="1"/>
  <rect x="193.69" y="135.02" width="6.11" height="1"/>
  <path d="M212.03,92.21h-2.03c-.33-1.5.45-2.12,1.53-3.05l.5,3.05Z"/>
  <path d="M139.67,313.35c5.09-11.51,12.97-21.58,18.73-32.73,10.3-19.2,18.12-46.05,24.07-67.13-5.95,35.96-20.65,71-42.79,99.86Z"/>
  <path d="M145.77,328.63c6.07-6.21,13.2-11.72,18.87-18.32,6.09-7.08,9.88-15.32,15.78-22.43-6.9,16.01-18.74,32.86-34.65,40.75Z"/>
  <path d="M281.34,296.02c-7.7-21.81-5.98-45.52-6.1-68.27,3.96,22.5.08,46,6.1,68.27Z"/>
  <path d="M291.53,313.34c-.14.14-.67-.05-1,0-.28-1.82.06-3.57,2.02-4.07.11.8-.79,3.84-1.02,4.07Z"/>
  <path d="M73.41,232.84l10.17-19.36c-1.49,6.85-5.66,14.08-10.17,19.36Z"/>
</svg>