<?xml version="1.0" encoding="UTF-8"?>
<svg id="Layer_1" data-name="Layer 1" xmlns="http://www.w3.org/2000/svg" viewBox="0 0 336.87 404.66">
  <path d="M185.41,0c.38.5.61,10.36.98,12.51.65,3.72,2.43,7.14,2.51,10.98,1.52.2.82-1.98.86-3.03.27-6.85-.41-13.68.88-20.46,4.74,1.93.94,13.7,1.7,18.75.24,6.28,1.66,13,.91,19.54,9.79-8.39,17.24-2.06,27.17,1.12,2.3.74,6.89.88,8.48,1.96.47.32,5.76,8.9,5.94,9.72.95,7.89-.45,32.17-5.9,38.54-1.07-13,9.8-32.31.85-43.1-2.18-2.07-2.24.1-4.83.43-11.02,1.37-20.44-10.7-30.91-5.52,3.72,11.65,2.42,24.15,4.81,36.06,1.81,9.04,7.49,23.62,10.91,32.6,14.21,33.61,26.99,63.64,69.37,44.95,6.02-3.27,10.58-8.61,16.82-11.46-11.5,15.94-29.17,23.23-48.74,19.15,25,28.67,70.79,22.34,87.06-12.19,1.78-.02.73,3.48.45,4.37-13.73,32.28-60.87,38.61-85.36,14.79-5.85-7.53-6.53-7.96-15.15-11.83-11.23-11.96-26.2-37.29-29.67-54.33-15.78,1.68-31.66,5.48-47.43,1.92-35.71,3.87-68.33,22.69-88.36,52.9,11.72-2.86,25.7-2.81,35.69,3.48-18.72-5.3-51.6-5.85-54.83,19.15,2.99-.42,5.69-7.15,6.27-7.64,27.07-9.9,68.95,8.09,83.84,32,1.59,2.75,6.38,16.23,7.87,16.54,5.57-2.97,3.17-1.5,9.08-.86,2.61-13.79-2.37-26.77-4.83-39.99-.17-.9-1.15-2.85.47-2.65,4.75,13.82,9.39,28.92,5.23,43.48,8.34,4.61,18.69,3.03,26.96,5.7,5.84,1.89,13.64,7.75,19.73,10.73,5.79,2.83,13.61,4.52,18.88,8.1,5.7,3.87,23.93,21.97,28.88,27.69,17.69,34.98,55.86,33.83,84.86,51.8-19.23-2.68-60.56-19.19-74.33-31.86-3.92-4.12-6.98-10.53-10.95-15.16-11.23-12.33-29.47-33.01-45.6-36.22-14.29-7.55-27.09-17.58-44.29-12.22-6.59-.41-12.79-12.3-11.55-3.33.98,2.11,6.96,5.71,9.12,8.29,8.66,14.72,3.69,9.61,20.05,12.6l-.84,1.67c6.34,1.9,13.64,9,19.96,10.16,3.73.68,8.06-1.57,12.2.35l-6.99,1.28-2.58,1.31c7.34.97,14.73,2,21.75,4.37.15,1.54-2.95.93-3.9.85-19.53-1.58-37-8.73-54.73-16.65-7.69-3.43-14.12-9.29-23.19-9.44,8.29,9.88-5.85,11.22,4.81,19.12,4.84,4.02,17.81,12.86,23.33,15.84,10.66,5.77,24.71,6.82,33.67,15.95.36,2.15-1.51,1.36-2.64.9-11.29-7.54-25.79-9.84-37.38-17.01-11.13,19.36,27.05,25.19,30.02,38.29,0,0-30.9-20.01-30.9-20.01-8.66,19.39,18.97,23.39,25.23,37.86-.93,1.46-1.91-.36-2.59-.89-6.69-5.12-13.39-10.38-19.61-16.08-1.83-.78-2.2,4.3-2.02,5.43,1.14,7.13,21.94,28,28.81,30.45,4.16,1.49,20.73,3.35,25.45,3.35,8.85,0,18.48-4.21,27.26-1.22,25.02,13.96,52.63,23.7,75.02,42.04-5.15-.72-10.19-4.02-14.82-6.5-20.37-11.6-39.72-20.54-60.44-31.83-8.48-3.19-15.18.58-23.55.9-6.2.23-21.5-1.37-27.45-3-9.48-2.59-34.01-25.7-33.78-35.74,3.61-10.28.24-5.89-1.92-15.6-.49-5.98,2.59-8.71,2.59-11.36-4.99-11.52-1.54-8.26-.32-18.7-3.19-1.34-19.29-13.7-20.74-13.73-4.17-.09-13.11,3.45-13.74,8.02-2.72,19.87,6.58,46.77,7.91,67.02.73,11.02-.58,22.23-.9,33.11-.27,9.14.71,18.38-.89,27.4-1.44-.8-1.67-4.98-1.77-6.49-1.14-17.82,1.3-37.06.02-54.85-3.11-21.49-7.61-42.97-7.83-64.84-75.11,81.33-54.91,5.61-5.65,134.88-11.97-16.41-18.4-35.98-28.15-53.67-10.67-19.36-26.8-36.18-28-59.46.66,1.35,7.74,22.36,9.13,22.61,9.98-10.42,22.25-18.24,32.66-28.25,8.31-7.99,14.88-17.68,24.36-24.38-5.25-2.51-19.05,7.54-16.98,3.92,7.74-6.22,17.91-6.81,27.43-7.83.09-2.31-2.33-3.02-3.28-4.98-2.12-4.37-.87-7.39.67-11.55-9.01,1.25-18.34,1.61-26.94,4.83-.89.2-2.84,1.16-2.65-.47,18.24-7.5,39.99-9.94,57.45.85-6.85-20.29-31.97-18.92-37-34.8,6.24,6.22,13.34,11.82,21.32,15.66l-10.24-21.52c-13.25-19.79-54.49-39.95-77.26-28.98-3.79,3.22-8.84,10.01-13.01,13.97-5.98,5.69-13.5,11.52-19.2,17.36-9.27,9.49-16.61,20.81-26.52,29.61,9.85-20.58,28.23-35.41,44.41-50.89,2.53-7.07,1.69-14.66,7.35-20.5,3.27-3.38,8.63-4.86,11.72-7.43,27.14-36.13,65-61.54,111.96-55.17,9-.22,18.26-3.47,27.38-2.65-1.78-8.33-5.83-15.91-7.43-24.33-1.76-9.27-.88-17.86-2.4-27.19-.3-7.84-15.69-48.88-7.58-49.42ZM165.38,227.15l-12.18-3.48c.89,2.86,11.14,7.11,12.18,3.48ZM137.21,243.74c-6.17,2.08,2.51,15.96,4.49,7.14.76-3.38-.15-8.6-4.49-7.14ZM183.66,254.99c-4.96-1.7-8.15-5.49-13.92-5.22l11.28,5.69,2.64-.46Z"/>
  <path d="M305.53,42.64c-14.14-5.54-26.57.23-40.03,4.36l7.6,2.4,4.58.21c.17,1.52-3.01.95-3.9.85-7.71-1.95-25.33-.81-25.68-11.3,19.66,5.25,35.09-12.73,55.31.83,1.17.72,2.54.65,2.13,2.65Z"/>
  <path d="M277.68,120.96c-11.11-4.83-22.83-1.14-34.39-.87l-17.83-3.91c6.13-4.17,14.08,1.93,20.44,1.98,7.67.39,27.7-7.46,31.77,2.79Z"/>
  <path d="M329.04,47h3.49c-7.87,7.92-5.38-12.14-7.91-16.89-2.25-5.44-11.39-9.79-11.23-17.06l1.73.89c-.59-3.41-1.79-6.99-.85-10.44,1.26.14,1.48,3.82,1.62,4.89,1.38,18.46,14.06,11.45,13.16,38.62Z"/>
  <path d="M295.09,53.09c.45,2.47-.59,1.43-1.91,1.96-5.99,2.41-12.7,4.1-19.2,3.05-4.51-.73-8.11-4.47-12.83-4.15,4.69-4.88,13.37.85,19.59.95,4.79.07,9.44-2.52,14.35-1.8Z"/>
  <path d="M257.66,93.99c.15,2.99-5.34,2.94-7.57,4.17-4.34,2.38-5.8,6.22-11.94,5.36-3.5-.49-12.27-7.76-13.35-11.05-.5-1.52.58-4.46-1.07-4.57l-5.22,20.01c-.37-5.97,1.18-13.7,4.14-18.93.92-1.63,3.46-2.79,4.13-5.43.41,3.2-1.13,5.2.22,8.48.79,1.92,7.8,7.91,9.73,8.53,8.94,2.91,12.36-7.61,20.94-6.57Z"/>
  <path d="M201.09,53.07c1.44-3.63,8.36.49,11.73.08,5.67.08,11.66-3.38,16.97.37-1.73,2.4-3.85.31-6.28.59-7.37,3.68-15.5,3.64-22.42-1.03Z"/>
  <path d="M152.32,209.73l-10.61-22.88-12.89-17.13c1.71-.4,2.07.88,2.97,1.81,10.2,10.58,18.74,23.2,20.53,38.2Z"/>
  <path d="M310.77,128.8l12.93-19.7,7.08-19.45c-.37,15.31-8.22,29.72-20,39.16Z"/>
  <path d="M195.85,201.03c.37,3.13-9.74,8.58-12.28,10.78-1.19.8-6.59,5.03-7.74,4.01.37-4.1,16.86-16.23,20.01-14.78Z"/>
  <path d="M262.01,128.81c-7.27,1.76-23.05,4.49-27.85-2.61,9.17,2.85,18.68.66,27.85,2.61Z"/>
  <path d="M165.38,154.9c-1.48-6.07-5.14-19.35-7.68-24.95,0,0-8.85-14.21-8.85-14.21,11.21,9.09,15.66,25.22,16.52,39.16Z"/>
  <path d="M166.25,214.95c-2.4-1.58,6.68-29.82,6.97-32.19.24,11.07-2.66,22.09-6.97,32.19Z"/>
  <path d="M282.9,106.17c-3.24-6.13-12.8-18.18-17.4-23.48,7.18,2.7,15.7,15.94,17.4,23.48Z"/>
  <path d="M260.27,94.85c2.85-2.75,3.33-5.92,2.43-9.82-.45-1.95-3.01-3.2-1.99-4.96,5.1,3.64,7.83,13.85-.43,14.78Z"/>
  <path d="M249.83,47.86c-7.35-.38-11.1-9.34-8.69-15.65l2.24,9.49,6.46,6.15Z"/>
  <path d="M217.62,320.26c-2.95,6.53-17.73-3.96-15.66-6.1,4.58,3.83,9.29,6.94,15.66,6.1Z"/>
  <path d="M258.53,135.77c.21,1.61-1.75.65-2.65.48-5.04-.97-7.38-1.18-12.59-1.36-1.05-.04-3.24.65-3.03-.86,6.26-2.06,12.41-.63,18.27,1.74Z"/>
  <path d="M279.42,63.54c.23,1.46-2.09.92-3.07.9-4.23.56-10.04-3.18-13.46-5.25,5.69.85,10.53,4.86,16.53,4.35Z"/>
  <path d="M131.43,233.24c.27,2.44-6.68-1.11-8.21-.93,0,0-7.45-3.42-7.45-3.42l15.66,4.35Z"/>
  <path d="M226.32,47.87c-3.96.64-17.06,3.05-20.88,2.59l11.85-2.5,9.03-.1Z"/>
  <path d="M208.91,337.67l-6.96,1.37c-1.4-.11-8.26-5.2-6.96-6.6,4.37,4.11,7.55,6.24,13.92,5.23Z"/>
  <path d="M228.07,290.66c.75-3.76.02-6.81-.87-10.44,3.11,1.51,4.04,8.59.87,10.44Z"/>
  <path d="M228.06,58.32c-1.95,3.5-6.72,4.49-10.44,4.33l10.44-4.33Z"/>
  <polygon points="233.3 44.38 232.43 33.94 234.49 41.97 233.3 44.38"/>
  <path d="M247.21,49.61c-2.04,3.13-6.7,1.21-9.57.85l9.57-.85Z"/>
  <path d="M170.6,273.25c-2.61.02.8-8.5,2.61-8.7l-2.61,8.7Z"/>
  <path d="M253.31,53.09l-5.22,6.07c.3-1.08,3.56-7.54,5.22-6.07Z"/>
  <rect x="285.52" y="114.01" width=".88" height="10.43"/>
  <path d="M307.28,50.48c.72,3.23-4.24,1.25-6.08,1.73.06-1.2,5.84-1.93,6.08-1.73Z"/>
  <rect x="244.24" y="18.74" width="5.83" height="1.43" transform="translate(17.1 111.85) rotate(-26.38)"/>
  <path d="M218.49,295.01c-1.55.09-3.72-.97-4.35-2.59,1.96-.32,3.65.77,4.35,2.59Z"/>
  <path d="M148.84,257.59h-.85c-.67-1.43,1.17-6.41,1.72-5.21l-.87,5.21Z"/>
  <rect x="242" y="112.27" width="5.21" height=".85"/>
  <path d="M175.82,272.38c-.11.12-.57-.04-.85,0-.33-.72.57-4.82,1.72-4.34.22.47-.62,4.07-.87,4.34Z"/>
  <rect x="300.32" y="54.83" width="4.34" height=".85"/>
  <path d="M333.4,48.74c-.43,1.67-1.92,1.96-3.48,1.72-.9-.42,2.34-2.08,3.48-1.72Z"/>
</svg>