<?xml version="1.0" encoding="UTF-8"?>
<svg id="Layer_1" data-name="Layer 1" xmlns="http://www.w3.org/2000/svg" viewBox="0 0 363.78 424.29">
  <path d="M90.97,379.93c-1.29-1.52-11.68,11.94-12.65,5.81-.26-1.63,20.05-19.75,23.24-23.21,12.93-14.01,24.25-29.52,35.39-44.97,1.12-3.13-8-13.32-9.56-16.83-.66-1.48-.09-2.92,1.09-3.17,3.05-.64,9.72,16,12.49,15.73.86-.08,12.51-6.99,15.11-8.19,14.22-6.54,38.31-15.73,49.01-27.04,3.92-4.14-.51-8.76-1.96-13.98-.24-.88-2.21-3.03.35-3.48,3.71-.66,6.67,13.69,7.46,13.79,26.44-3.4,65.06-11.89,78.79-37.38,4.34-8.05,6.32-17.17.35-24.97-8.63,9.23-33.33,11.3-43.9,5.85-6.09-3.14-6.55-9.31-16.13-6.97-2.04.5-5.21,15.66-11.67,10.67-6.12-9.16.37-3.73,1.34-4.4.39-.27,2.87-5.6,2.23-6.22-22.42.65-42.05,11.08-62.83,17.97-25.08,8.31-53.99,13.41-74.51,30.06-27.66,22.45-52.92,50.84-81.33,72.88-3.09,1.46-4.09.45-2.64-2.64,22.51-20.47,45.32-40.59,68.15-60.71,13.18-11.61,18.84-20.09,36.41-26.96,17.15-6.71,37.41-11.78,55.23-17.65,21.5-7.08,41.31-17.02,64.7-17.69,33.71-55.86,63.08-114.52,96.99-170.23,5.8-9.53,22.05-38.37,35.07-35.84s4,25.22-.54,32.35c-40.13,58.12-82.38,114.89-123.08,172.66-1.07,2.52,5.69,1.69,6.85,1.56,17.18-1.88,35.57-8.61,53.21-4.07-1.14,6.19,3.25,11.01,4.11,16.48,4.65,29.57-35.47,48.9-58.89,54.67-8.51,2.09-20.69,2.52-28.21,5.6-8.18,3.35-20.08,14.76-29.85,19.79-10.8,5.56-23.98,8.91-34.17,15.48-9.99,6.43-14.5,19.4-22.92,27.78,21.27,4.6,57.82-2.23,69.59,21.24,8.92,17.79-1.32,42-3.05,60.6h-3.16c-.09-21.36,17.28-57.16-8.79-69.89-10.35-5.06-37.46-6.51-49.84-7.19-2.87-.16-5.92-.24-8.76.22-2.35,3.38-5.38,7.31-8.13,10.35s-16.05,16.09-16.9,17.96c-2.04,4.51.58,10.63.61,15.29.02,4.02-1.83,7.96-1.16,12.15h-3.17v-23.24ZM246.27,179.28l102.9-142.65c3.21-5.5,16.12-27.87,8-32.19-6.15-3.28-21.96,17.82-24.73,22.86l-84.24,147.07-1.94,4.92ZM289.57,205.69c-14.48-.76-28.74,1.15-42.82,4.19-.78.17-3.65-.57-2.6,1.59,3.71,7.56,42.95,7.35,45.41-5.78Z"/>
  <path d="M221.91,187.69c-.23.15-3,.14-3.11.04-.36-.34-1.24-6.73-2.61-9.55-3.45-7.09-11.84-13.05-11.62-21.62.32-12.77,17.4-11.26,20.09,1.54.9,4.27.12,27.74-2.75,29.6ZM220.91,176.11v-17.43c0-6.7-12.42-10.66-12.56-2.13-.07,4.07,7.55,14.34,10.2,18.17.64.93-.2,1.95,2.36,1.38Z"/>
  <path d="M191.05,176.29c8.26-1.69,22.95,13.84,19.83,18.84-1.58,2.53-5.11-2.04-7.69-2.89-4.69-1.56-12.81-.51-16.14-3.93-4.2-4.32-1.66-10.85,3.99-12.01ZM202.95,187.72c2.17-1.89-10.75-10.68-13.57-6.18-3.62,5.78,10.15,6.17,13.57,6.18Z"/>
  <path d="M149.07,388.38c1.86,1.97-8.73,11.48-9.96,13.79-1.29,1.42-5.63,12.33-7.45,11.54-1.96-.86-1.57-2.55-1.15-4.23.8-3.13,15.48-24.35,18.55-21.1Z"/>
  <circle cx="281.37" cy="174.81" r="2.22"/>
  <circle cx="325.24" cy="168.47" r="2.22"/>
  <circle cx="273.72" cy="179.26" r="2.05"/>
  <path d="M313.88,168.71c-1.52-1.91,3.5-4.83,4.21-1.56.61,2.76-3.51,2.45-4.21,1.56Z"/>
  <path d="M291.68,169.78v3.16s-4.21,0-4.21,0v-1.56c1.12-1.66,2.27-1.84,4.21-1.59Z"/>
  <path d="M309.64,166.61v1.56c-1.12,1.66-2.27,1.84-4.21,1.59v-3.16s4.21,0,4.21,0Z"/>
  <path d="M264.23,182.45c.65-.65,4.2.49,4.2,1.58,0,4.09-6.93,1.15-4.2-1.58Z"/>
  <path d="M261.05,187.73c1.39,1.39-1.84,6.26-3.15,2.62-1.12-3.11,2.36-3.42,3.15-2.62Z"/>
  <path d="M336.05,171.88h-4.22c.02-4.2,4.22-4.15,4.22,0Z"/>
  <path d="M344.5,175.05c-.7.65-3.7-.24-4.21-1.59-1.39-3.67,6.36-.4,4.21,1.59Z"/>
  <path d="M352.95,176.12c0,4.15-4.19,4.2-4.22,0h4.22Z"/>
  <path d="M300.13,167.67c.79.8.49,4.27-2.62,3.15-3.64-1.31,1.24-4.54,2.62-3.15Z"/>
  <circle cx="229.89" cy="219.9" r="1.34"/>
  <path d="M352.69,14.79c4.24,4.31-5.95,20.53-9,24.8-14.09,19.76-22.38,12.83-10.83-7.66,2.37-4.2,13.96-23.12,19.83-17.14ZM349.79,18.77c-2.09-2.04-12.14,13.12-13.12,14.86-2.13,3.79-4.3,8.22-4.83,12.59,8.56-7.02,14.07-17.17,17.95-27.45Z"/>
</svg>