<?xml version="1.0" encoding="UTF-8"?>
<svg id="Layer_1" data-name="Layer 1" xmlns="http://www.w3.org/2000/svg" viewBox="0 0 386.52 386.54">
  <path d="M168.27,287.94c-.62-.7-9.26,3.75-10.51,5-2.08,2.07-2.47,4.74-4.07,6.95-1.78,2.46-6.33,6.32-5.01,1.02.86-3.44,4.85-7.77,6.57-10.96-3.35-.89-5.77,1.41-8.56,1.95-5.41,1.03-.73-4.22,2.72-5.3,9.04-2.81,13.85,1.57,23.89-6.14,9.11-7,11.07-15.35,9.98-26.55-6,4.92-9.63,13.67-19.31,10.8-3.29-.98-12.25-17.79-14.24-21.79-4.98-9.99-15.36-37.07-15.57-47.57-.18-9.24,14.15-47.11,18.33-57.81,2.11-5.39,4.55-10.91,7.78-15.74-15.49-.85-28.07-8.6-35.56-22.01-3.26-5.84-4.65-11.9-7.31-17.71-2.57-5.61-6.54-10.68-8.18-16.32,1.26-1.8,19.62.75,23.06,1.45,19.47,3.97,35.61,14.4,40.56,34.52.8,3.27.2,6.99,1.95,10.04,4.36-3.41,8.97-1.72,9.56-8.5.54-6.17-6-13.64-6.93-21.13-1.78-14.34,4.19-26.77,13.91-36.92,1.49-1.56,12.86-11.5,14.02-12.04,5.13-2.38,7.2,12.28,7.73,16.31,1.84,14.07.39,29.91-9.74,40.75-5.24,5.6-15.5,7.2-15,15.52.59.6,11.77-3.2,13.37-4.14,3.68-2.17,6.18-6.49,10.99-9.04,6.45-3.42,14.77-4.63,21.38-7.66,2.71-1.24,10.75-7.41,11.82-7.19,1.9.4,1,3.91,2.02,5,28.29-22.03,46.86-54.59,69.88-81.76,3.25-2.97,5.26,1.44,2.24,3.72-20.34,21.95-37.63,54.78-60.13,74.01-2.09,1.79-12.55,8.38-12.97,9.05-1.08,1.74-2.28,11.43-3.76,15.26-5.16,13.41-16.02,21.29-29.76,24.3-9.14,2-14.75-1-19.88,8.15-5.25,9.36-8.19,22.81-6.18,33.35,3.26-1.54,7.71-9.17,11.35-8.8,3,.3,14.74,11.81,15.67,10.8,1.8-4.42-1.48-14.85,5.01-14,.03,8.36-1.63,17.74-5.12,25.4-8.76,19.21-32.83,35.76-24.41,59.69.47-6.37.77-14.22,6.98-18.05,8.77-5.41,16.13,6.49,18.02,6.03,8.25-9.79,15.66-22.49,24.67-31.43,10.77-10.69,25.52-17.09,35.96-28.1,14.16-14.93,17.25-32.9,34-48.08,18.1-16.41,43.7-34.85,63.76-49.36.97-.7,13.47-10.65,13.33-5.67-.02.74-7.69,6.77-9.09,7.9-23.2,18.73-64.37,43.22-79.8,67.36-5.11,7.99-8.4,17.23-14.23,24.81-8.83,11.48-21.9,18.22-32.91,27.15-18.44,14.96-29.59,36.41-44.66,54.44-3.14,2.74-9.54,2.7-13.26,1.25-1.5-.59-3.67-4.34-4.78-2.26-1.04,1.95.06,15.53.58,18.47,1.42,8.15,15.93,17.45,23.56,18.49,2.97.41,11.65-1.09,12.42,2.6.84,4.03-5.37.59-6.6.54-.81-.04-4.27.78-4.41.96-.34.44,3.79,9.93,4.11,10.39,1.32,1.89,2.91,1.75,4.25,2.75,5.59,4.16-1.66,5.75-6.38.37-2.51-2.86-4.58-13.54-7.49-13.53-.42,0-3.36,6.56-3.49,7.61-.45,3.62,2,7.2,1.95,7.93-.07,1.06-3.14,2.06-3.96,1.49-.36-.25-2.1-7.16-2.06-8.47.12-4.07,4.61-8.71,3.97-10.89-.43-1.45-10.04-5.56-12.43-7.66-2.15-1.9-2.96-4.71-5.5-6-3.58,13.54.06,22.53,6.12,34.41,3.88,7.6,10.23,11.36,7.88,21.65h-3c.15-3.89-.39-8.57-2.7-11.77-.68-.94-.05-1.75-2.3-1.25.83,6.37-5.69,12.48-6.79,17.74-.7,3.37.97,12.03-.21,12.8-3.4,2.22-3.76-1.98-4.01-5.02-1.29-15.52,12.36-20.94,6.02-37.05-3.47-8.83-8.23-14.54-6.04-25.49-1.29-1.45-7.34,6.56-7.87,7.64-2.32,4.73-1.89,9.31-.43,14.19s8.55,13.61.3,16.2c1.55-11.5-4.11-14.47-9.89-4.38-.61,1.06-2.39,10.16-4.67,4.36-2.11-5.39,9.55-13.53,9.55-14.49v-14.51ZM189.3,94.75c22.2-9.09,24.53-36.23,16.5-56.04-17.8,11.29-33,33.43-20,54.04,1.21-2.83,5.57-23.21,6.51-24.02.66-.57,3.67.22,3.95,1.57s-7.94,23.61-6.97,24.44ZM170.26,112.78c.27-29.78-28.71-43.84-55.06-43.03,7.69,10.49,8.6,24.52,17.04,34.5s21.62,14.82,35.02,13.53c2.41-2.19-16.81-20.56-19.1-22.43-1.83-1.49-11.06-6.93-11.46-7.56-1.64-2.53-.59-3.35,1.99-3,2.82.39,13.85,9.02,16.58,11.46,5.61,4.99,9.95,11.05,14.99,16.53ZM201.31,124.78c23.41.26,41.79-16.04,41.04-40.03-16.54,9.57-42.47,10.57-43.03,35.03l5.98-6.51c2.5-2.26,15.03-11.46,17.55-11.2.88.09,1.71,1.61,2.47,2.21-8.69,5.98-18.87,10.78-24.01,20.51ZM197.3,107.78l-10,3.75c-.83,9.6-2.63,19.83-1,29.27l7.55-12.95,3.45-20.06ZM182.29,135.8v-21.52c0-.29,1.22-.71,1-1.49-1.13-.84-9.84,3.47-9.92,4.48l8.92,18.53ZM171.11,121.96c-5.61-3.41-7.33,6.91-8.35,10.84-3.1,11.82-11.64,47.95-11.59,58.55.02,4.66,4.09,19.25,5.57,24.54.66,2.35,4.93,17.28,5.65,17.88,1.58,1.31,6.4-1.53,10.53,4.99,3.42,5.4,3.5,10.07,2.86,16.15,7.58-4,8.24-13.77,7.41-21.41-.6-5.54-4.14-11.59-4.84-16.18-.52-3.45.32-7.26-.18-10.83-.59-4.16-3.12-10.48-2.94-14.13.19-3.97,6.42-11.39,7.58-16.51,2.25-9.89-3.05-34.24-7.04-44.04-.55-1.34-4.18-9.57-4.65-9.86ZM160.26,244.9c1.44-.16,2.31.73,1.85-1.33-1.5-6.64-5.34-13.97-7.35-20.7-2.08-6.95-4.9-15.83-6.24-22.79-3.59-18.71,6.01-39.34,8.47-58.05.14-1.09,1.11-3.45-.72-3.22-3.81,15.87-12.43,31.59-16.31,47.25-.67,2.71-1.79,6.55-1.75,9.24.11,6.78,11.69,43.71,16.55,47.59,1.82,1.46,3.32.68,5.51,2.01-1.46.16-4.69-.95-3.98,1.46.52,1.77,6.28,12.25,7.55,13.47,3.72,3.57,5.39,1.26,9.43.07-.99-1.86-3.28-1.08-5.43-3.06-3.58-3.29-3.13-9.25-7.58-11.94ZM188.29,178.34c.51,11.8-.37,23.73,0,35.53l17.44-25.11c1.63-2.58,6.37-10.05,6.4-12.63.03-3-10.82-9.93-13.34-12.11-2.84,2.63-11.84,8.31-11.5,12.2.08.92.99,1.75,1,2.12ZM184.28,220.88c1.77-12.3-.19-24.66-.49-37.04-7.03,8.75-2.97,14.95-1.63,24.66.53,3.84-1.23,9.85,2.12,12.38ZM197.61,228.2c-4.87,4.48-6.02,15.89,1.67,18.31,4.09,1.29,12.94-11.11,12.8-13.13-.2-2.76-9.83-9.45-14.47-5.18ZM164.27,237.9c-.61.56,5.03,14.97,6.5,14.99,5.32.08-2.26-18.9-6.5-14.99Z"/>
  <path d="M348.2,234.17c5.77,7.03-10.3,23.26-13.72,29.74,9.61-.82,16,8.62,25.02,9.62,3.91.44,7.12-1.09,11.02-.6.84,6.21-11.22,4.88-15.23,3.71-7.63-2.23-15.19-11.2-24.11-8.73-.72.2-9.38,11.36-8.71,12.02,2.01-.66,12.96-3.64,12,.49-.67,2.88-12.12,2.73-14.5,2.5-9.88-.96-18.21-9.97-25.03-10.09-1.98-.04-3.9,1.13-5.8.9-3.14-.39-7.12-5.01-11.5-5.61-5.25-.72-7.42,2.58-10.83,2.8-3.92.25-7.27-4.05-14.18-1.24-4.09,1.66-12.06,12.31-13.32,16.71-3,10.48,3.03,18.35-2.75,29.28-2.36,4.47-7.55,8.56-9.44,13.58-2.79,7.42.26,16.43-7.86,21.16-2.37,1.38-5.29,1.46-7.89,3.12-7.29,4.69-5.82,9.05-17.69,10.34s-14.63-2.1-24.16-3.62c-3.44-.55-7.12.29-10.31-.71-4.3-1.35-5.32-7.25-8.03-9.99-5.4-5.47-14.13-5.24-18.15-14.89-3.38-8.12.22-13.26-2.09-20.94-1.78-5.92-7.48-12.58-8.49-18.53-1.18-6.96,2.05-17.01-3.72-22.31-2.04-1.87-5.18-2.26-7.53-4.48-7.32-6.92-7.9-16.51-21.47-17.57-19.08-1.49-24.29,13.44-36.12,23.05-1.14.92-13.01,9.7-11.49,3.54,2.33-2.18,13.09-8.88,14.01-11.03.78-1.84-1.14-1.49-2.17-1.78-16.53-4.66-21.29,7.04-34.6,12.06-6.09,2.3-12.71,3.46-19.28,3.24-.75-5.69,4.61-3.45,8.25-4.25,15.87-3.51,27.36-17.35,42.32-15.76,2.9.31,6.32,2.53,8.78,1.86,1.76-.48,6.16-6.2,8.26-7.84,10.33-8.08,24.04-10.11,35.02-2.02,5.37,3.95,7.85,10.94,12.49,14.54,2.88,2.23,6.02,2.25,7.91,5.1,5.22,7.87,1.75,15.81,3.36,23.67,1.05,5.12,7.46,12.62,8.55,18.48,1.62,8.69-2.46,16.49,4.69,24.33,4.38,4.8,11.75,5.39,16,11.03,1.93,2.56,1.67,5.59,4.97,7.04,3.89,1.71,8.18.37,12.05.96s8.43,3.87,13.12,3.98c3.05.07,11.52-1.45,14.38-2.67,3.5-1.5,4.21-4.64,7.17-6.81,3.63-2.66,10.91-3.7,12.84-7.18,2.34-4.24,1.46-12.05,3.62-17.4,2.33-5.79,10.02-11.56,11.28-17.75s-.92-11.31-.86-16.78c.11-10.38,11.45-27.65,22.62-27.62,2.06,0,7.6,1.58,8.42,1.01.78-.53,3.26-15.42,4.15-18.38,1.06-3.53,2.64-7.56,3.93-11.09,1.92-5.24,11.42-29.01,15.75-30.3,10.93-3.27,18.62,15.23,28.15,3.12,5.4-6.86.99-5.57,1.15-9.74.06-1.71,3.62-8.08,4.52-10.62,5.42-15.43,12.46-31.39,20.02-46.04,6.35-12.31,12.69-29.21,29.61-25.56,15.67,3.37,13.72,19,8.14,30.27-7.86,15.87-25.58,39.54-36.64,53.45-1.7,2.14-4.44,7.84-6.05,9.02-2.82,2.08-3.71-1.92-6.06,2.89-7.94,16.29,10.57,14.41,16.23,21.31ZM358.85,124.14c-2.98,2.61-6.8,9.93-8.88,13.64-8.49,15.15-14.55,32.22-22.39,47.75-.16,1.7,13.64,10.03,15.59,10.21.87.08,1.33-.12,1.79-.88,9.02-15.05,20.26-28.92,28.98-44.13,4.22-7.36,10.84-16.62,5.05-24.9-4.75-6.79-14.12-6.97-20.14-1.7ZM340.48,197.87l-13.52-6.99-4.37,8.5c7.79,4.71,14.77,11.4,17.89-1.51ZM318.26,277.72c4.04-6.3,9.62-11.47,14.05-17.48,2.71-3.67,11.06-15.16,12.41-18.63,2.72-6.97-7.45-8-12.57-11.9-5.5-4.19-6.99-6.78-5.45-14.11.9-4.28,6.5-6.37.49-8.98-5.59-2.43-5.58,5.03-9.22,8.27-9.79,8.7-21.76-7.31-26.58-5.51-5.45,2.04-24.49,53.2-21.98,56.54,7.89-5.13,15.62,3.17,20.73,3.81,2.19.28,4.33-1.07,7.53-.6,5.51.8,16.05,11.25,20.59,8.59Z"/>
  <path d="M347.48,314.96c-.65.66-14.09-5.64-17.65-5.92-5.58-.44-12.56,1.74-17.41,4.41-13.7,7.54,2.06,5.54,3.02,14.53-4.47,1.02-5.63-3-8.67-4.83-14.1-8.47-22.26-4.07-32.53,6.18-4.02,4.02-5.26.83-2.4-3.41,3.72-5.5,14.45-10.83,21.08-11.02,3.22-.09,7.41,1.58,9.78.9,2.07-.59,8.84-6.47,13.06-8.03,8.69-3.2,16.5-3.37,25.11.3,1.34.57,8.81,4.67,6.61,6.89Z"/>
  <path d="M89.17,325.97c-7.23-1.49-10.4-4.99-18.54-4.02-5.34.64-5.99,3.05-9.44,5.57-4.1,2.99-5.64,1.36-2.6-2.6,3.62-4.72,10.67-4.94-.77-11.13-9.81-5.31-16.02-2.45-25.19,2.18-4.51-3.44,4.37-6.57,7.51-7.48,8.22-2.38,15.42-1.71,22.33,3.65,2.12,1.65,4.85,5.97,5.62,6.32.52.24,7.06-.71,9.49-.4,3.8.49,11.05,3.51,11.59,7.91Z"/>
  <path d="M208.32,386.02c-.25-.4.14-2.14-.01-2.99,5.79-.24,12.16-1.61,17.35-4.18,10.57-5.22,16.52-18.22,30.18-18.89,1.31-.06,6.56-.21,6.52,1.55-.03,1.25-11.75,3.41-14.32,4.69-9.16,4.55-14.25,14.23-25.02,18.02-2.21.78-13.69,3.42-14.7,1.8Z"/>
  <path d="M103.19,272.94c-2.13,7.73-8.92-2.8-13.75-3.79-5.13-1.06-5.82,1.07-8.99,1.59-6.88,1.12-.06-6.93,8.14-5.78,5.85.82,9.1,6.66,14.59,7.98Z"/>
  <path d="M110.26,350.92c-2.87-4.66,6.27-2.79,9.24-1.71,2.75,1,11.65,7.87,11.71,10.3.02.67-1.46,1.81-3,1.02-2.24-1.15-4.44-5.41-7.93-7.09-2.29-1.1-9.74-2.07-10.01-2.52Z"/>
  <path d="M274.15,283.12c2.72-.33,4.55,1.77,2.24,3.31-1.17.79-3.63.63-5.38,1.63-2.51,1.43-4.38,6.39-7.61,2.38,2.9-3.12,6.24-6.78,10.75-7.33Z"/>
  <path d="M311.44,221.89c-3.53,9.64-5.53,20.02-8.84,29.68-1.76,5.15-4.32,4.24-3.75-.7.48-4.11,6.81-25.57,9.09-27.99,1.18-1.25,1.9-1.14,3.5-1Z"/>
</svg>