<?xml version="1.0" encoding="UTF-8"?>
<svg id="Layer_1" data-name="Layer 1" xmlns="http://www.w3.org/2000/svg" viewBox="0 0 360.71 418.63">
  <path d="M343.55,3.25c-.59.91-17.48,7.65-19.96,8.57-39.69,14.71-73.43,11.28-114.1,15.32-4.09.41-9.28,1.82-12.36,4.67-7.97,15.33-38.42,42.3-40.78,57.98-1.31,8.72-2.45,27.88-1.82,36.54.68,9.41,4.6,19.94,5.31,29.6,2.72,3.33,6.8,1.34,8.4-2.34,1.47-3.38,4.35-15.97,4.84-19.85s-.55-6.62-.41-9.78c.23-5.16,3.12-13.23,3.93-19.06.37-2.66-.39-5.88.29-8.23.72-2.49,4.89-3.82,6.17-5.75,3.02-4.54,3.95-14.46,8.11-20.84,8.33-12.78,20.27-9.44,20.45,5.56,1.97,1.12,10.88-2.42,11-3.82.06-.79-5.4-11.57-5.73-14.7-.15-1.43.38-3.14,1.96-2.76,1.34.32,7.12,22.67,11.93,24.67,2.42-1.1,7.55-12.19,8.23-12.61.91-.56,3.4-.86,3.3,1.14-.26,4.94-11.98,19.55-15.79,23.39-13.03,13.16-33.37,18.49-43.84,35.34,3.11.18,4.98-3.24,8.31-3.69,5.55-.75,13.42,9.99,11.76,15.21-.55,1.72-2.7,2.62-2.61,4.22,15.27-6.24,26.19-20.1,40.71-27.4,17.7-8.9,36.85-6.58,53.94-15.88,10.27-5.58,16.51-13.98,25.56-20.42,11.44-8.14,26.39-13.31,40.29-14.62-.13.91.22,2.07.03,2.87-.23.97-16.3,4.58-19.21,5.63-22.09,7.95-29.96,24.03-49.22,32.51-12.62,5.56-25.23,5.03-37.86,8.97-3.43,1.07-17.77,6.71-18.02,10.01-.27,3.47,5.78,4.43,8.75,6.56,12.56,9.02,6.6,23.64-8.79,17.73,1.77,20.28-11.3,15.31-22.99,7.66,1.54,6.95-2.67,18.5-11.46,17.04-4-.67-13.68-17.15-14.93-16.18l-17.04,52.77c10.24-1.28,20.76-1.06,30.82-3.65,22.96-5.92,8.96-13.37-5.28-16.76,1.5,1.39,8.84,9.9,2.3,7.48-1.9-.7-10.93-9.66-9.59-11.78.83-1.3,15.23-4.82,15.8-4.22.11.12.15,3-.1,3.3-.57.7-5.63.57-6.7,1.37,5.68,3.01,22.39,6.35,19.22,15.8s-38.56,11.75-47.34,11.43c-2.02,1.21-4.77,16.82-5.95,20.01,28.42,3.39,62.5,6.35,87.73,20.85,18.98,10.91,18.59,20.19,16.05,40.77-5.02,40.82-26.66,73.1-60.42,95.38-2.75,1.82-9.21,4.45-10.96,6.07-2.06,1.91-3.1,6.42-6.07,9.26-19.61,18.8-93.36,19.01-111.83-1.3-2.03-2.24-3.04-6.34-4.81-7.96-1.98-1.83-8.2-4.25-10.96-6.07C24.93,365.01-3.67,319.17.38,273.54c1.84-20.71,42.26-31.11,58.94-34.71,28.92-6.25,58.72-7.36,88.26-7.53,1.15-2.41,6.93-18.49,6.1-19.43-11.17-1.82-23.91-2.06-34.22-7.09-.98-.48-3.19-1.1-3.24-2.28l37.12,5.91,1.9-1.39,11.23-45.81c-5.73,1.14-9.1.64-10.85-5.34-5.73-19.61-6.1-46.59-3.41-66.8,1.5-11.23,20.63-32.01,28.22-41.59,6.5-8.2,12.78-21.65,24-23.68,14.36-2.6,33.4-1.48,48.46-2.63,23.74-1.82,46.33-4.87,68.77-12.97,4.98-1.8,15.01-7.5,19.15-8.16,1.88-.3,3.89,1.46,2.74,3.22ZM180.93,122.47c3.77-6.5,10.28-11.89,16.26-16.52,1.12-.86,2.97-1.28,3.81-2.15,2.16-2.25,6.1-20.35,6.36-24.28.58-8.58-2.37-19.24-11.12-9.42-5.66,6.35-15.12,41.15-16.06,50.35-.09.9-.64,2.25.75,2.02ZM207.34,99.48c1.09,1.18,13.59-8.8,14.94-10.17,6.12-6.25,6.32-6.83,2.07-14.51-1.7,2.5-12.17,3.89-12.65,4.37-.74.73-2.9,17.58-4.36,20.32ZM232.87,125.03l-10.19,8.09c0,.58,6.9,5.36,8.07,6.39s1.7,3.13,3,3.81c2.8,1.47,12.85,3.88,13.61-.88,1.71-10.69-14.19-8.91-14.49-17.4ZM190.07,126.03c-2.13.64-9.57,7.16-9.97,9.7-.62,3.93,2.28,9.14,6.58,9.54,3.42.32,12.3-5.78,12.86-8.97.71-4.06-5.05-11.6-9.47-10.28ZM218.82,135.41c-.58,0-9.09,6.15-9.4,6.63-.77,1.21,2.33,7.48,3.41,8.56.55.55,12.46,7.46,13.49,7.84,5.92,2.16,7.49-5.51,5.29-10.44-1.1-2.46-10.77-12.61-12.79-12.59ZM184.25,148.96c-.78-1.05-8.9-3.43-7.57-8.61l-1.28.84-15.75,67.26,5.88-.08c.67-7.35,20.58-56.9,18.72-59.4ZM205.62,144.61l-17.02,6.4c2.55,2.74,11.58,17.21,14.08,17.47,10.43,1.06,6.61-19.05,2.94-23.86ZM163.91,211.86c-1.31.25-5.25-.45-5.88.08-.82.7-4.73,17.22-6.23,20.59-5.33,11.98-13,12.78-21.13,20.59-10.41,10.01-14.72,25.53-15.31,39.61-.82-.14-3.18.21-3.39,0-.72-.69.53-11.53.85-13.62-16.17-.86-50.39,10.26-14.63,18.45,5,1.15,13.69,1.3,17.6,2.83,1.31.52,2.47.71,2.14,2.54-9.13-.09-20.34-1.39-28.93-4.7-4.15-1.6-9.61-4.25-9.46-9.32.3-10.47,26.35-12.64,34.19-13.59l5.05-13.24c-34.95,2.64-75.22,4.7-103.86,26.81,18.21,11.32,40.79,16.6,61.86,19.86,33.74,5.23,74.87,5.23,108.73.87,22.97-2.96,48.06-8.45,67.8-20.73-23.3-19.33-55.41-21.58-84.28-25.96.85,7.78.44,15.25-.86,22.98,2.94.95,5.89-4.99,8.08-4.24,2.59.88-.74,4.34-1.68,5.11-7.67,6.26-31.2,8.67-40.9,7.66-3.6-.37-6.98-2.95-1.73-3.46,8.56-.84,21.9,1.33,29.94-2.42,2.64-1.23,3.53-8.57,3.72-11.6.85-13.3-3.73-18.18-6.4-29.33-3.02-12.6,2.15-23.6,4.71-35.78ZM145.18,235.7c-33.92-.2-69.57,1.67-102.18,11.49-12.34,3.72-48.76,16.52-35.77,34.91.72,1.01,3.5,3.86,4.69,3.86.93,0,12.51-8.49,15.57-10,27.94-13.8,63.43-15.45,94.02-18.16,5.61-9.81,16.76-13.64,23.67-22.09ZM258.13,263.23c-4.02-4.07-11.98-8.04-17.28-10.39-23.77-10.57-50.92-13.25-76.52-16.32-4.05.25-1.54,8.49-.85,11.1.44,1.67,3.88,11.04,4.67,11.51,29.73,4.11,64.99,6.76,88.15,27.63,8.65-7.05,9.89-15.37,1.83-23.52ZM263.53,285.92c-3.67,2.36-6.59,5.67-10.28,8.02-48.13,30.64-189.18,30.07-237.76.33-3.79-2.32-7.32-5.12-10.39-8.34.96,26.55,12.36,54.02,29.4,74.46,43.36,52.01,125.99,58.95,179.58,18.68,29.38-22.08,46.34-56.7,49.45-93.14ZM189.46,398.29c-35.04,14.21-75.56,13.84-110.7,0,10.13,11.51,30.64,15.36,45.51,16.21,20.73,1.18,50.05-.67,65.18-16.21Z"/>
  <path d="M140.91,179.54c1.5,2.12-11.95,10.81-13.31,10.93-6.27.56,3.83-6.67,4.81-7.55-6.39.77-24.43,2.57-28.16,8.03-3.14,4.58,6.42,6.7,6.87,8.57,1.02,4.22-7.06-.48-8.7-2.14-1.81-1.84-2.76-3.51-2.23-6.18,1.62-8.11,24.37-11.29,31.36-11.7-.38-1.67-9.59-3.19-6.8-5.95.71-.71,15.66,5.28,16.16,5.99Z"/>
  <path d="M53.71,362.04c1.75,1.68,12.31,10.31,12.25,11.14-.07,1.17-2.05,1.48-3.38.85-1.13-.53-8.23-6.73-9.77-8.11-11.22-10.08-27.72-32.68-30.9-47.43-.59-2.76.18-5.89,2.75-2.75.98,1.2,4.32,11.87,5.68,14.75,5.66,11.92,13.96,22.53,23.37,31.55Z"/>
  <path d="M174.98,305.49c-.5-.47-.11-2.75,1.43-3.24,6.36-2.02,15.71-2.15,23.05-4.19,8.66-2.4,26.51-7.95,11.22-16.77-7.13-4.12-15.92-4.16-22.94-7.73-.81-3.49,8.32-.68,10.4-.17,14.1,3.48,35.37,14.17,11.47,24.6-4.24,1.85-32.75,9.29-34.64,7.5Z"/>
  <path d="M94.08,272.29c-11.43,2.13-24,3.45-34.63,8.37-6.66,3.08-12.76,6.22-4.48,12.44.95.72,8.19,3.36,5.9,5.58-1.56,1.51-17.13-5.91-11.96-14.94,4.14-7.23,32.31-13.58,40.53-14.01,2.14-.11,4.81-.33,4.65,2.56Z"/>
  <path d="M155.3,252.82c.31.18,2.96,5.53,3.31,6.47,2.11,5.78,2.36,12.43,1.93,18.57-.19,2.68-.35,7.11-3.46,5.09-1.35-.88.89-9.89.8-12.64-.1-3.01-1.56-8.1-2.68-11.02-.54-1.4-3.21-4.99-3.2-5.3.03-.81,2.28-1.76,3.29-1.17Z"/>
  <path d="M158.8,299.53c-.22-.22-.23-2.09.5-2.62,1.08-.79,13.04-2.06,16.34-3.09,5.38-1.68,6.71-3.51,10.84-6.19,1.12-.72,1.94-.88,2.12.44,1.06,7.45-28.24,13.08-29.81,11.47Z"/>
</svg>