<?xml version="1.0" encoding="UTF-8"?>
<svg id="Layer_1" data-name="Layer 1" xmlns="http://www.w3.org/2000/svg" viewBox="0 0 296.35 428.95">
  <path d="M115.42,114.25c11.56,58.48-10.71,117.87-23.69,174.45-1.92,4.11-8.94-1.18-10.73,1.52-1.31,1.97.66,7.19-2.84,11.28-5.65,3.15-3.43,4.6-5.13,9.94,6.68-3.89,12.37-4.44,18.42,1.38,7.4,7.76.32,18.16.34,26.87,2.4,28.83,2.73,58.09,1.02,87.06-3.08-5.32-1.61-67.94-1.88-75.29,0,0-7.34,17.6-7.34,17.6-15.23,13.56-11.88,35.12-13.33,53.5-5.3,23.5-2.29-25.04-1.93-28.74-3.7,4.79-8.5,13.79-15.99,12.22,11.95-5.99,14.74-15.63,19.25-27.33,12.87-16.62,15.53-20.97,16.99-43.27-2.84,7.64-7.21,5.62-13.19,6.59-4.68.76.08,3.08,1.21,5.4,5.89,13.52-9.32,12.25-4.44,22.43.21,7.44-7.01,9.63-7.48,11.39,3.16,9.37-6.7,15.56-15.14,15.41.04,7.2,4.07,8.82-.97,15.5-3.94,5.22-10.2,7.23-16.53,5.24-8.44-2.65-8-8.25-11.24-15.1-3.32,4.49-6.8,26.85-11.76,26.33-1.82-2.19,7.79-23.46,8.28-27.64-4.72-5.48-16.66-19.03-17.28-25.97-.35-3.89,2.05-6.45,2.43-9.9.54-4.86-1.68-9.4-.92-14.1.56-3.49,4.24-5.83,4.65-8.6.85-5.65-4.19-12.16,1.94-17.75,2.11-1.92,7.12-3.42,8.18-4.53,1.89-1.97,1.85-8.02,2.84-10.81,3.67-10.35,21.34-9.6,29.93-7.09l.89-.65,27.77-100.31c.53-2.49-1.67-.69-2.74.1-24.67,18.22-27.78,71.65-40.58,98.28-3,.17,1.29-11.14,1.42-13.18,7.44-28.29,16.93-77.35,43.84-91.95,8.31-21.64,14.86-57.42,31.18-76.84,1.17-1.44,2.35-3.71,4.54-3.45ZM89.05,287.45c11.46-54.92,32.56-110.75,24.48-167.55-30.72,49.3-37.19,109.53-54.65,164.17,5.45,3.6,11.06,7.24,17.46,9.04,2.48-8.61-12.36-6.7-15.52-12.24,5.17-.95,10.37,4.52,14.8,5.43s9.25-.87,13.43,1.16ZM76.82,295.93c-3.06-.59-7.37-2.14-10.05-3.61-1.53-.83-8.11-6.42-8.77-5.81l-4.49,16.51,12.01,7.96c.31-13.76,8.54-8.44,11.3-15.05ZM69.28,314.74l1.88-11.29c-2.5,2.1-5.92,9.25-1.88,11.29ZM71.17,340.15c-7.13-7.19-6.56-12.62-2.97-21.03-9.35-11.34-23.79-17.09-38.71-13.57-10.97,2.21-6.16,10.44-10.21,16.15-1.74,2.46-6.33,3.19-8.58,5.28-5.59,5.19-.41,10.08-.93,15.33-.39,3.93-5.26,7.29-5.3,11.49-.02,3,2.02,6.26,1.81,10.39-.26,4.9-3.72,6.73-2.7,11.99,2.67,4.53,12.46,24.04,19.56,23.29,1.28-5.82,2.01-4.58-3.75-4.71-2.11-1.63,2.87-1.96,1.87-2.8s-3.49-.97-3.76-3.77c10.49,2.8,44.26,12.63,44.29-5.18-.04-2.22-.15-1.05-1.47-1.4-13.57-3.12-31.98-5.08-42.83-15.07,11.33,1.63,37.16,15.99,47.44,10.24,3.1-1.74,4.23-6.33,3.22-9.59-.88-2.86-20.03-10.07-24.07-11.71-5.97-2.82-20.31-4.38-21.88-11.53l44.95,17.71c6.5-.17,8.04-7.81,6.41-13.05-1.2-3.86-18.16-14.25-22.48-16.12-7.69-3.31-17.58-2.69-22.29-10.18,8.19,2.99,17.55,4.21,25.41,8.01,5.79,2.8,10.67,8.51,16.96,9.86ZM75.23,314.1c-4.12,3.75-7.9,14.41-4.87,19.82,15.99,22.67,34.72-33.87,4.87-19.82ZM45.75,396.64c-11.68,1.8-20.48-9.89-19.81,8.96.98,9.1,11.13,11.48,17.96,6.61s1.5-8.81,1.85-15.56Z"/>
  <path d="M134.26,213.09c-.05-.64.38-1.92-.47-1.88-7.83,3.85,5.17,18.66,8.68,19.63s13-6.22,16.26-8.34c-.76,4.89-4.18,7.64-2.82,13.17-4.7.36-1.24-4.9-1.88-5.64l-6.58,5.16,37.68,36.7c3.95,2.83,6.05,10.45,8.41,13.28,1.12,1.34,4.34,1.1,2.4,3.21-12.56-3.36-25.69-28.59-38.63-17.9-13.67,12.82,20.15,26.67,21.2,38.61l-20.73-19.35c-2.4-1.19-7.35,3.96-8.03,6.11-4.18,13.35,20.09,21.92,19.34,34.88l-11.66-13.76c-4.9-7.47-10.42-2.64-9.92,4.69,6.88,22.92,33.95,43.23,54.83,53.5,21.86,9.5,24.66,9.04,39.08,29.64,2.91,4.16,7.4,9.44,7.7,14.42-12.76-11.48-17.7-28.24-34.19-35.94-19.12-8.92-30.47-12.7-47.22-27.16-8.78-8.72-35.68-36.36-17.39-45.68.12-1.75-4.79-6.76-4.79-11.24,0-7.07,8.22-12.37,8.3-13.16-10.27-15.76,9.26-28.91,22.33-16.49,1.28-2.66-3.76-4.66-5.68-6.56-8.16-8.08-15.04-17.72-24.47-24.5-4.28,6.29-5.46-2.65-7.37-5.8-4.17-6.88-14.74-11.71-8.97-21.84,15.38-22.13,64.16,41.5,78.51,50.21,2.47,2.04,22.9,16.19,24.34,15.95,10.75-5.36-8.37-40.91,7.19-59.69,6.45-8.79,18.23-10.88,17.95,2.85-1.37,22.76,7.08,43.11,12.16,64.94.84,42.19-6.92,43.59,23.05,76.74.64,1.57.62,3.04.5,4.67-48.41-44.39-13.2-57.15-34.4-107.26-1.38-5.43,1.6-8.56-7.01-7.59.15-2.12,5.09-.34,5.65-.94.23-.24-.16-2.84,0-3.76h-4.71c-.1-2.33,4.3.62,3.67-2.25-.81-3.71-3.31-7.54-2.79-11.82-7.89.98-7.22-14.96.06-16.05-4.88,4.7-3.52,9.03-2.82,15.06h2.82c-1.9-4.39,4.41-18.96-2.34-17.97-10.01-1.05-15.14,18.56-15.29,26.22-.22,11.3,5.57,25,1.63,36.91l5.65.49-6.59,1.87c.93,1.3,14.47,7.33,8.94,7.07-39.99-12.62-63.74-54.17-98.66-74.57-.76-.43-2.05-1.54-2.55-.28,13.26,15.24-14.78,18.55-11.31,2.02.18-.87.89-.54.95-.61.38,5.18,1.14,10.07,8.01,9.89,9.98-.26.93-18.97-8.01-9.89ZM177.81,269.33l-.96.96,8.46,8.46.96-.96-8.46-8.46Z"/>
  <path d="M278.32,28.59c13.09,5.79,3.49,39.73-2.04,49.26-4.33,6.73-10.68,4.88-11.14,5.34-1.15,1.15-1.2,28.54-.99,32.51.35,6.95,1.62,27.02,8,30.6,2.67,1.5,5.2.58,8.09,1.33.97.25,14.73,6.49,15.39,7.02,4.82,9.01-15.82-5.54-17.3-3.69,5.28,6.91-2.76,18.3-7.16,24.36-18.09,24.88-55.45,39.78-84.37,25.25-14.96-7.52-23.84-26.69-15.8-42.08-12.21,5.79-24.13,12.43-36.74,17.39-1.28.5-16.97,6.62-16.94,4.71s2.06-2.49,3.42-3.17c17.44-6.7,35.28-15.01,52.19-23.33.27-1.12-.96-10.26-1.41-11.67-.86-2.66-9.69-10.54-12.33-14.97-5.44-9.17-13.94-32.06-16.69-42.62-2.64-10.16-2.68-20.63-4.92-30.85-.98-8.1-16.97-40.44-7.08-43.29-.94,9.65,1.57,18.6,5.64,27.29.44-6.19-2-13.22-1.91-19.24.02-1.54,1.18-11.89,3.67-7.45l2.02,35.17c6.75-11.81,20.67-6.66,31.52-12.25,1.82-.03-.58,6.24-.39,6.51,14.96,5.07,4.61,28.81,4.63,40.57-4.33-3.1.47-10.12.96-14.58.44-4.07.54-17.48-1.07-20.6-4.27-8.3-6.92-3.1-12.59-2.47-9.26,1.03-22.73-3.43-22.12,10.81.86,19.94,8.58,43.37,16.48,61.65,16.64,36.48,46.43,50.08,77.66,19.78-9.27,20.67-42.51,26.79-59.3,11.3-1.27,1.75,5.03,26.1.46,30.12l-2.36-18.82c-4.87,4.86-3.05,16.17-.97,22.15,8.9,25.54,43.96,25.43,64.99,16.89,14.24-5.79,36.26-24.24,39.19-39.97,1.26-6.77-7.34-5.83-9.52-11.31l-1.4,3.75c-5.3-17.33-4.85-35.67-4.73-53.64-3.2,9.79-7.25,22.44-15.53,29.17-.71.14-.59-.89-.48-1.42,6.67-11.15,13.36-22.14,14.15-37.16l1.86,3.76c.51-3.04-.9-8.78.47-11.31.85-1.57,2.77.94,4.72,1.06,13.31-1.45,17.95-38.86,12.58-47.5-5.7-8.49-15.14,7.67-16.59,13.27-.99,3.82,1.73,5.72-4,4.96l.95,1.87c-1.02-.16-3.1.37-3.67-.1-1.09-.92-4.79-23.31-6.67-27.68-6.25-10.81-11.34-9.83-10.42-23.49-.05-2.04.24-2.59,1.2-.25.49,1.2,2.72,7.16,2.67,7.72-.05.63-2.59.13-1.94,1.91,3.87,4.26,8.52,7.28,10.81,12.73,1.92,4.58,4.51,25.48,6.71,26.24.94.33,2.16.04,3.19.11-1.67-10.4,3.12-19.67,13.03-22.75,2.04-3.36-.07-16.23,2.05-20.55.95-.41,1.87,2.19,1.87,2.35,0,2.83-.52,18.48,0,19.3Z"/>
  <path d="M173.81,115.19c-1-11.42,9.95-8.99,17-10.76,8.66-2.17,15.19-7.9,23.95-1.46,2.68,1.97,5.94,4.62,2.29,6.99-4.25,2.76-6.66.46-9.82.73-5.4.45-10.81,2.04-16.02,2.62-5.82.65-11.44-.53-17.4,1.89ZM212.4,103.91c-7.29-3.34-13.21,1.15-19.53,2.58-3.44,1.26-15.33-.16-15.3,4.93,12.64-.81,24.96-3.39,37.65-2.82.68-3.72-6.32-1.16-8.46-1.89l5.64-2.8Z"/>
  <path d="M235,32.35c-20.25-8.13-37.07,16.97-47.08-.92,3.67-1.09,6.82.28,10.73-.11,6.23-.63,12.43-4.79,18.92-5.02,5.91-.21,13.39,1.41,17.43,6.06Z"/>
  <path d="M278.23,35.27c.67.47,2.43,7.78,1.96,9.32-1.8-.86-.58-3.85-1.97-6.02-3.31-5.17-8.59,6.43-9.22,9.42-.55,2.62,2.5.52,3.57,1.41.22.18,1.68,4.79,1.77,5.3.45,2.67.35,5.59-.91,8.05-.88,1.7-6.31,6.69-8.25,5.33-2.19-1.53,2.41-7.43,2.38-9.86-.02-1.6-1.4-3.57-1.52-5.68-.28-4.75,7.12-20.84,12.2-17.29ZM267.03,66.24c10.32-4.04,6.15-18.43.92-15.52,1.41,5.73,1.17,10.05-.92,15.52Z"/>
  <path d="M172.86,54c-2.25.47-4.96-1.32-6.99-1.01-.96.15.45,6.13-8.5,4.74-1.39-.21-2.5-1.77-3.66-1.68-1.47.11-4.43,3.63-5.33,2.66-3.63-5.14,24.9-13.2,24.47-4.71Z"/>
  <path d="M146.27,260.86c-2.7,2.74-6.56.1-7.15-3.28-.35-2.02,2.74-13.4,4.09-13.41,2.29,3.48,6.39,13.31,3.07,16.69ZM143.66,258.26v-4.7h-.92v4.7h.92Z"/>
  <path d="M229.35,44.58c-9.87,4.21-19.09,2.24-29.18,3.77,1.12-6.65,10.46-3.36,14.58-3.68,4.5-.35,11.64-4.11,14.6-.09Z"/>
  <path d="M205.81,118.97c-5.59,5.09-14.61,4.58-21.65,3.75.5-3.01,18.09-3.03,21.65-3.75Z"/>
  <path d="M221.81,91.66l-15.05-18.83c1.44-1.49,15.89,15.49,15.05,18.83Z"/>
  <path d="M201.11,85.06c3.13-4.86,3.19-8.97-.94-13.16,6.66,1.25,7.71,11.52.94,13.16Z"/>
  <path d="M190.75,38.02c.27,1.62-2.26,1-3.09.74-5.83-1.82-6.78-7.6-6.31-12.98,1.77,3.94,3.56,12.66,9.4,12.24Z"/>
  <path d="M166.26,102.01c-2.78-.16.43-17.77,2.83-17.87l-2.83,17.87Z"/>
  <path d="M173.9,85.92c.25.16,2.81-1.35,3.9-.71l9.18,4.56c-4.14,1.27-7.08-1.72-10.04-2.51-1.72-.46-4.99,2.28-5.94-2.68-.19-.97-.77-5.94.91-6.09-.56,1.51,1.05,6.84,1.99,7.43Z"/>
  <path d="M199.22,82.25c.49,2.68-.65,1.54-2.07,2.12-1.01.41-7.04,2.83-7.34,2.58,1.26-4.15,5.37-5.19,9.41-4.69Z"/>
  <path d="M227.46,295.92c-2.73-2.4-3.89-7.79-4.69-11.3,3.57,2.39,4.61,7.27,4.69,11.3Z"/>
  <path d="M212.4,40.84l-8.92.95-3.31,1.86c1.23-6.13,8.06-2.66,12.23-2.81Z"/>
  <path d="M201.1,125.55l-12.23,2.81c2.83-3.56,8.2-2.83,12.23-2.81Z"/>
  <path d="M206.76,177.31c-1.23,1.14-8.26-6.18-7.52-8.46l7.52,8.46Z"/>
  <path d="M218.99,53.08c-7.14.78-7.03,1.55-14.11-.94l14.11.94Z"/>
  <path d="M176.62,39.88c-2.23-2.48-1.81-8.05-1.86-11.29,2.9,1.64,1.58,8.29,1.86,11.29Z"/>
  <path d="M197.34,317.58c.13,1.96-3.38.45-4.04.04-.61-.38-4.03-5.08-3.47-5.7l7.52,5.66Z"/>
  <path d="M173.81,251.68c.3-3.18,4.03-5.36,6.57-6.59l-6.57,6.59Z"/>
  <path d="M168.15,45.55l-9.41,2.8c1.85-2.46,6.6-2.87,9.41-2.8Z"/>
  <rect x="181.63" y="329.61" width="1.64" height="8.66" transform="translate(-191.63 264.12) rotate(-50.78)"/>
  <path d="M186.04,252.63c.35.33-4.48,5.97-6.59,4.69l6.59-4.69Z"/>
  <rect x="276.32" y="40.52" width="1.55" height="8.03" transform="translate(.03 89.26) rotate(-18.3)"/>
  <path d="M226.52,109.54l-1.86-7.52c2.45.96,1.79,5.43,1.86,7.52Z"/>
  <rect x="234.72" y="42.14" width="1.45" height="6.54" transform="translate(139.67 265.23) rotate(-77.37)"/>
  <rect x="189.89" y="47.36" width="6.71" height="1.69" transform="translate(66.27 201.65) rotate(-64.4)"/>
  <rect x="199.96" y="300.46" width="1.36" height="5.97" transform="translate(-155.38 228.71) rotate(-44.67)"/>
  <path d="M175.68,350.53c-.86,3-5.89-1.54-4.69-2.84l4.69,2.84Z"/>
  <path d="M180.39,251.69c-.68,1.53-2.07,3.11-3.77,2.81.68-1.53,2.07-3.11,3.77-2.81Z"/>
  <rect x="233.14" y="41.19" width="4.92" height="1.51" transform="translate(-1.71 72.75) rotate(-17.49)"/>
  <rect x="186.05" y="99.2" width="5.64" height=".92"/>
  <path d="M215.23,295.91c-1.78.31-3.13-1.1-2.82-2.81l2.82,2.81Z"/>
  <path d="M273.61,65.29l2.82-2.81c.32,1.72-1.03,3.13-2.82,2.81Z"/>
  <path d="M46.69,310.05l-4.7,9.4c-.89-1.66,2.6-11.49,4.7-9.4Z"/>
  <path d="M50.45,371.22c-.08.07-1.99.34-1.86-.46l2.8-6.13c.02,1.07-.7,6.36-.94,6.59Z"/>
  <path d="M40.09,388.16c-.12.13-.62-.05-.92,0-.36-.78.61-5.22,1.86-4.7.23.5-.67,4.4-.94,4.69Z"/>
  <rect x="57.83" y="238.62" width="73.63" height="1.94" transform="translate(-160.49 275.19) rotate(-76.39)"/>
  <path d="M106.94,189.55c-3.48-2.12,2.08-17.66,1.88-22.12.97-10.5.52-20.63.95-31.07.05-1.15-.71-3.5.93-3.28,1.07,18.94-.94,37.78-3.77,56.47Z"/>
  <path d="M73.06,325.1c4.76-10.77,18.52,1.97,11.97,9.13-3.05,3.33-12.29-4.05-12.96-6.87-.49-2.05.94-2.14.99-2.26-.19.39-.13,2.19.17,2.67,2.98.13,8.38,8.32,10.68,4.89,4.61-6.88-7.89-13.76-10.85-7.56Z"/>
</svg>