<?xml version="1.0" encoding="UTF-8"?>
<svg id="Layer_1" data-name="Layer 1" xmlns="http://www.w3.org/2000/svg" viewBox="0 0 437.05 447.38">
  <path d="M145.58,281.13c2.45,2.95,1.34,7.34,6.72,5.61,1.04.07,2.25,1.11,3.23.86,1.36-.35,4.77-5.64,7.34-5.06-.39,1.02-1.54.86-2.35,1.62-.67.63-3.02,3.9-3.21,4.74-.27,1.14,1.6.51,1.82,1.35l-1.4.24,1.4,2.33c-2.8.61-3.1-1.98-4.71-3-.21-.13-2.84-1.21-3-1.2-.69,0-1.22.98-1.8.89-.86-.17-2.36-3.34-3.56-2.29.15-2.8-.07-3.5-2.58-5.6l-1.16,3.26c-.34-1.95-.39-3.74.46-5.6-1.56-.53-1.34,1.25-2.63,1.29-7.04-2.92-16.56,1.69-23.93,2.98l-1,15.81h1.4s-.97.75-.97.75l1.21,11.87c5.8-.92.62-8.51,1.64-12.32l-.94-.3v-.45s1.17-.47,1.17-.47l1.64,12.14h1.86c-.57-5.28-1.53-10.56-1.39-15.88l1.87,11.21.93-.69.23-8.17c1.67,1.87-.1,6.83.27,8.09,3.49,3.61,2.59-5.75,2.31-7.34-.13-.55-1.15,0-.94-.76.88.06,1.35-.5,1.4.68.08,1.99.05,3.94.69,5.85,2.44-1.88-.48-5.22.94-7.46l.92,5.13c1.75-1.26,1.42-3.79.7-5.6h1.4c-.76,1.26.04,2.37,0,3.73,1.98-.46,1.17-1.24,1.63-2.81.48,0-.28,3.24,1.63,2.8v-3.73s-2.8.46-2.8.46c-1.19-.92,9.79-2.83,10.71-2.83.02-1.15.28-5.96-.5-6.44-2.02-1.26-4.26,2.2-3.68,4.14l-6.1-3.47c-1.86-1.3,3.22-6.99,2.89-3.15.23.22,1.48.08,2.16.43s1.21,1.24,1.85,1.43c6.06-.54,3.32,2.96,3.88,7.1l2.27-.52.52-5.08.47,5.14h6.07c.13-.11-1.42-2.31.47-1.87-1.16,3.73,5.33,1.72,7.13,2.44,1.2.39,2.21,2.71,3.37,2.71,1.25,0,3.77-3.23,6.31-1.41l-2.33-3.26c.41-.34,2.23,1.28,3.13,1.33,2.33.13.42-6.13.67-7.08.17-.63,1.19-1.07,1.23-1.49-2.16-3.48-5.46-10.95-9.24-3.51,1.21,0,3.29.22,3.28-1.39.67-.18.44.69.93,1.18.67.67,2.47,1.26,1.64,2.55-.35-.23-1.24-1.4-1.4-1.4h-7.01c-1.19,0-3.31,3.75-4.9,3.73-.6-.63,3.39-3.86,3.96-4.21,1.72-1.05,3.54-.35,3.91-3.14.26-1.9-5.31-4.81-5.07-7.59l5.6,6.07c-.08-1.2,1.39-2.93,1.3-3.89-.26-2.83-5.78-6.73-8.47-5.76-.89.32-1.11,1.41-2.17,1.24.4-1.69,3.08-2.48,3.29-3.5.35-1.71-.41-2.81-2.13-3.04-1.5-.2-.23,2.66-.8,3.64-.11.19-3.48,2.59-3.63,2.43-.34-1.79,1.31-1.64,1.91-2.99.7-1.57.68-4.29-1.45-4.48l-.93,2.8c-.12-2.94-2.94-2.89-2.83-6.33.04-1.35,3.68-4.94,4.23-4.41-1.45,2.63-4.89,4.6-1.41,7.47.02-1.1,1.29-5.53,2.34-4.66.09.08-1,1.89-.24,2.33,1.86-1.7,3.06-4.25,5.84-4.67.36.34-1.96,2.94-2.34,3.39-.57.68-2.36.7.41,1.69l4.27-7.89c-.63-.61-3.44,3.08-6.08.24-.89-.96-1.03-2.73-2.14-3.46-1.48-.98-5.44-.91-6.49-1.91-2.21-2.1,1.7-6.81,1.17-7.47-1.1-1.11-2.2,3.89-3.63,4.42,2.97,3.44,1.17,10.41-2.47,13.06-2.38,1.05-5.54,2.12-7.48,3.77-6.15.43-4.83-1.21-9.2-3.89-7.49,1.47-7.88-.51-8.72-7.59-1.48-3.25-2.13-3.9-.8-7.2-2.49-6.99-.49-6.36,2.92-12.14.5-1.34-.31-2.54.39-3.65,1.41-.93,4.25-3.87,4.67-5.69-1.47-8.25-16.5-40.22-10.68-46.22,5.21-5.5,16.84-8.86,21.46-15.2-2.02.22-9.15-2.23-6.41-5.02,2.59-1.68,22.01-9.34,22.69-10.47-.44-3.82,2.49-4.96,4.95-6.96.98-1.87,2.57-3.98,4.85-4.26-.04-3.31,3.79-4.41,6.62-3.18,1.06-11.89,14.04.47,17.55-2.31,21.45,1.47,42.82,4.66,64.22,6.79.58-3.19,3.85-6.16,4.89-8.68,2.33-5.63,1.84-10.87,5.64-17.24s7.26-7.66,13.15-11.14c.38-.23.78.14.59-.8-21.8-16.6-12.82-26.97-28.26-46-.9.66,1.19,5.51-.71,3.98-1.4-1.13-3.03-5.35-2.8-7.25l-2.33,1.4,1.86-6.53c-1.76.89-7.59,1.27-8.87,0-.8-.81.31-.79.66-.97,4.81-2.45,6.85-4.57,8.67-10.01.33-1-.04-.44-.48-.49-2.25-.28-7-.56-6.98-3.47,9.58,2.63,8.91-9.58,16.81-10.75.8-1.06-4.89-3.03-4.2-5.13,11.63,4.13,20.68-10.17,32.7-6.08l-2.34-2.33h7.24c4.31,1.21,13.63,2.54,13.79,8.87,3.09-1.61,8.99-1.58,10.27,2.33-4.31-2.02-7.29-.9-11.64-.03-.42-1.49-.95-4.16-2.25-5.12-1.37-.65-8.58-4.43-9.93-3.49,1.19.89,2.35,1.5,2.8,3.03-24.46-4.71-18.41,3.94-36.44,5.61,5.28,4.02,12.25-2.07,12.14-.01-1.67.44-2.76,1.86-4.41,2.37-16.35,1.21-8.07,10.08-19.42,11.65-.84,2.36,6.11-.67,6.54,0-3.27,3.94-4.23,9.4-7.94,13.07l6.07-1.87c-.46,2.88-2.44,6.54,0,8.87.15-.99.59-2.48,1.87-2.33-.45,2.19,1.26,5.34,2.35,7,.05.04.98.17.92-.22-1.38-3.18-.82-6.69-.93-10.05l-.47.93c-2.18-1.1.07-4.5,2.1-4.2l.47,1.87c1.17-1.47.99-3.76,2.09-5.26,2.08-2.59,7.43-3.45,10.32-2.93,1.42-.53,4.45-4.56,6.98-4.42-2.51-3.09-8.45-1.26-11.21-3.26,5.62-.65,9.5,2.13,15.13,2.28.59-.06,4.15-1.56,3.55-.19-.97,2.22-6.94,2.43-9.66,3.89s-4.01,4.23-6.69,4.76v-1.41c-5.14.52-8.64,2.91-8.88,8.41-2.43.6-.43-1.56-2.33-1.4v7.24l2.81,10.51c2.37-2.63,7.2-6.15,10.27-2.57-.01,1.03-7.47,1.38-8.65,3.98-.84,1.85,2.26,3.8,2.59,5.59,1.93-.3,2.57-2.72,4.53-3.17,1.62-.37,4.26-.47,5.27,1.07l-2.33-.23c2.88,4.09-3.72,5.74-3.74.93-2.58,1.14.59,2.96-2.8,2.11.51,14.53,12.6,24.56,22.89,32.69,12.04,4.26,23.01-13.68,26.89-22.63,1.14-4.43.35-8.19.21-12.63,7.55,2.67,8.05-9.79,7.35-14.59s-5.02-8.37-8.38-3.01c-1.16,1.85-1.99,7.05-2.25,7.33-.11.12-2.52-.59-3.27,0,.35-5.4-2.74-11.13-7.92-12.42-2.73-1.13-2.18-3.49-3.1-5.29-1.05-2.07-3.04-4.08-3.48-6.57l-1.39.93.46-3.27c-.19-.69-9.97,3.87-9.34,1.64,3.48-2.25,7.99-2.52,11.2-5.38-1.4,4.63,2.26,7.8,3.98,11.67,1.03,2.33-.06,4.02,3.03,4.91,3.53,1.02.31-.97,2.34-2.11-.38,2.81,2.04,5.18,3.36,7.62,1.06,1.44,1.89,6.19,3.65,5.92-1.09-4.49,3.4-6.39,3.28-10.27.79-.1.45,1.16,1.21,1.38,2.96-.79,3.16-.03,5.79.95,1.07-7-.38-14.69-4.44-20.54-1.17-5.82-5.1-7.61-10.5-9.12,2.86-2.36,10.79,1.84,11.93,4.46-.44,6.01,4.57,8.75,5.22,15.75.3,6.27-1.29,10.58,1.01,16.27,1.09,9.84-4.87,14.35-.02,24.77.66,1.43,1.44,2.89,2.43,4.11,2.88,3.56,2.6,1.88,6.31,2.09,43.22,17.78,56.35,3.17,62.9,60.42,1.04,8.47,6.58,24.18,2.85,31.28.08,6.36,3.99,16.83,4.95,23.49,1.39,9.64,5.26,20.68,8.71,30.06,2.27,6.19,8.04,15.95,6.66,22.55-3.52,4.39-.07,10.4.53,15.57,2.01,11.74.07,23.24,3.8,34.53-2.41,7.03-.6,14.09,0,21.44.82,20.48,2.09,41.24,2.32,61.65,3,4.74,6.07,5.52,3.36,12.54.15,1.92,2.96,3.44,3.43,4.96.71,2.29-.26,5.35.32,7.62,2.04,7.96,7.38,16.16,9.55,25.48.34,1.45,2.15,10.39,1.98,11-.23.81-1.91,1.14-2.35.49-.53-.79-2.8-13.36-3.56-15.97-1.82-6.19-6.9-14.91-7.96-20.06-.45-3.67,1-7.71-1.98-10.4-1.25-1.06-.74,3.71-3.26,2.33,2.43-2.43,1.8-1.58.94-4.85.08-2.87,3.03-4.47.19-8.19-1.84-2.42-2.61-1.13-3-5.41-2.73-25.53-.53-51.71-4.22-77.06.04-2.02,2.11-3.73,1.91-6.51-.12-1.76-1.5-2.89-1.79-4.31-.39-1.89.17-3.97-.21-5.86-2.19-4.68-3.96-11.28-4.22-16.8-.26-1.69-2.42-8.07-.81-9.23.1-.07,1.67.79,2.33.47l-1.4-8.4c-1.36.08-1.92,1.77-2.48,2.18-4.06,2.48-5.89,1.43-5.47,6.91.08.56,1.21-.13,1.44.53.52,1.47.65,5.46.96,7.37.92,7.21,3.34,15.61,2.43,22.87.13,1.33,1.93,2.75,2.11,3.89-.46,3.95-2.31,5.55.06,9.74,2.97,22.75,2.2,46.29,4.74,69.09-2.53,8.09,5.32,8.01,1.8,15.76-.25.55-1.07.22-.9.58.33.72,2.12.72,2.6,1.64.81,1.54-2.18,2.78,2.53,2.33.34,1.97-2.23.08-3.27.47.13,1.69,2.71,2.04,3.17,3.6-.31,6.91-.67,4.48,4.77,8.31-4.74,4.04.88,11.27,2.56,16.12,2.07,5.99,3.65,12.83,3.98,19.13-2.29-4.53-2.12-11.02-4.08-16.23-1.11-3.62-5.57-12.81-5.23-15.71,2.41-5.25-1.08-3.37-3.23-6.69-.32-1.22.86-3.07.3-4.94-.41-1.36-2.99-1.88-3.09-3.44-.05-.7,1.38-1.83.82-2.93-.44-.63-7.02-1.08-7.91-2.6,5.59.51,5.45,2.77,7.35-4.13-.15-1.74-3.33-4.21-3.59-7.13,1.95-27.07-5.84-55.89-4.28-82.62-1.63-3.99-2.33-3.19-1.35-7.87-1.55-4.21-1.69-9.32-2.33-13.83-8.5,2.35-18.63.02-24.75-6.31-.1-.18-.12-.77.23-.69,5.41,5.3,12.04,7.52,19.64,7.02,1.12-.07,6.35-.51,4.19-1.92-.91-.6-2.04.61-2.1-.43l2.8-.7c-1.75-1.2-4.8.26-6.77.27-4.27.01-9.02-1.45-12.54-3.85-.91-.62-2.75-2.91-3.32-3-1.37-.21-3.71.45-2.6,2.14-2.56-1.89-6.77.53-9.8,1.17-7.04,1.48-14.29,2.64-21.5,2.56-.29,7.62.51,14.47,1.53,22.06,1.47,5.1,6.68,6.15,10.77,8.85,6.53,4.32,12.8,9.09,19.47,13.23-6.64-1.99-12.1-8.12-19.15-10.81-.23-.09-2.91-2.59-2.33-.88,7.95,16.9,9.72,36.13,14.61,54.05,2.13,8.02,5.89,15.94,6.4,23.95-2.02,13.24,8.99,21.83,14.48,32.69-.28,2.88-6.74-10.84-8.86-11.45-.77,4.17,3.39,7.53,4.09,11.08.64,3.23.58,7.05,1.19,10.48.01,2.42,7.45,24.07,1.38,17.77-4.73-10.89-2.31-25.45-8.75-35.61-.55-5.78-.05-6.15-3.89-10.59-2.93-5.09-1.54-8.12-1.97-13.44-7.4-26.06-12.07-53.6-21.25-79.15-12.47,23.06-24.28,47.61-34.23,71.78-.54,4.54.87,12.01-2.88,16.69-.09,1.76,1.9,3.42,2.21,4.79.38,1.67-.43,2.81-.28,4,.16,1.27,1.73,2.32,1.82,3.84-1.74,9.39,5.05,19.61,5.09,29.43.14,1.37.64,7.44.37,8.3-2.88,4.11-2.92-3.1-2.71-5.04.02-11.16-6.86-22.55-5.6-33.17-.26-1.35-1.78-1.09-1.9-2.33-.13-1.34,1.44-2.58,1.22-3.54-.29-1.29-2.94-4.02-3.05-5.83-.15-2.31,2.47-3.7,2.74-4.74-.37-3.12-.58-2.23.99-5.07.6-3.41-1.61-5.36.11-10.14,7.97-22.41,22.65-45.61,31.66-67.59-2.97,1.88-6.51,5-9.69,6.19-.38.47-1.32,4.18-1.9,5.34-10.72,22.21-26.22,45.57-27.22,70.39-2.18,5.24-1.63,3.29,2.38,5.64-.82,1.08-3.27-1.09-3.74-.7.17,1.55,2.2,1.64,2.35,3.04.14,1.31-1.22,3.06-1.31,4.3.19,1.42.51,3.14-.02,4.52.22,1.02,5.26,2.01,4.13,3.07-.6.56-9.76-5.1-10.96-6.08-1.06-.87-10.22-10.55-9.59-11.19.69-.7,2.35,2.71,3.04,2.79,2.87,3.85,8.22,10.37,12.84,11.21-.29-3.22.19-5.88,1.2-8.89-4.6-4.17-12.69-10.12-13.34-16.79,1.87,3.58,6.43,11.35,10.42,12.1,3.02-.77,1.11-10.3,1.93-13.05,7.22-14.97,10.75-29.51,18.54-44.51,2.78-6.18,9.23-14.75,10.21-20.85l-2.33-.46c5.16-.44,5.19-5.57,7.01-9.34l.69,1.39,5.62-2.79c.4-.06.27.87.23.92-.93,1.1-5.77,1.9-6.43,2.45s-1.24,4.94-2.91,5.73c1.53,1,5.26-3.27,7.03-4.18,1.65-1.14,4.75-1.67,4.64-4.46l-14.95-7.71c1.85-.39,3.76,1.79,5.6.94-13.81-23.82,5.27-21.28-17.73-28.04-1.18-.5-5.97-3.38-6.33-3.37-.38,0-.93,1.04-1.16.81.06-2.67-1.28-1.33-1.79-1.53-.95-2.85-2.68.62-4.43,1.62-1.31.67-5.69,1.12-5.88,1.36-.28.34.07,2.1-.05,2.76,1.72.28,8.05-1.27,9.81-1.64-6.91,4.14-11.89-.99-12.24,10.18-.3,1.06-2.37,1.99-2.65,3-.4,1.46,1.22,2.08.81,3.53-2.18,2.19-5.06,8.8-5.54,11.81,2.22,3.28,13.63,1.38,16.54,7.24,2.07,3.49,2.11,15.13,1.62,19.29-1.3,7.85-12.51,10.31-19.1,10.56l-17.82,112.02-1.8.07c2.29-37.66,13.59-76.12,16.11-113.48-.47,4.78-5.3,5.49-8.56,7.78-5.74,35.04-8.47,71.18-15.73,105.69l15.19-105.53c-12.63,2.46-80.48,38.38-78.01,11.67-9.13,1.89-18.13,5.18-27.56,5.13l-1.17,93.41.24-93.41c-7.61.24-14.97-1.69-22.42-2.8-.3,5.32.18,11.05,1.41,16.11.03.58,0,.97-.7.7-10.1-4.01-7.51-9-8.71-18.15l-20.02-3.8c-.58,5.47,1.13,11.29,2.02,16.44.05.56.58.67-.39,1.3-1.48-1.9-6.5-2.38-7.65-4.02-1.86-2.64-2.13-11.63-2.91-15.07l-19.57-3.32c.73,5.18.63,10.58,2.45,15.54.06.37.52,1.24-.35,1.26-7.99-4.34-7.65-1.35-9.36-11.65-.3-1.53-.49-6.25-1.62-6.79l-25.23-3.96c.84,5.44.81,11.18,2.48,16.45.08.59.58.64-.38,1.29-1.93-1.63-5.91-2.73-7.18-4.96s-2.32-13.51-2.93-14.12l-15.35-2.4c-.34,5.62,1.5,10.91,3.35,16.04.9,2.49-1.93-.12-2.62-1.13-2.5-3.66-2.39-11-2.6-15.38-1,.29-9.83-1.89-9.81-1.17,1.43,2.92,1.62,12.32,3.84,14.09,2.18-.24,3.37,3.58,4.57,5.05.1.32-.38.32-.69.22-8.44-3.88-7.88-11.63-9.33-19.63-.41-.6-5.98-1.41-7.03-1.39,3.36,36.33,14.52,81.41,13.78,118.63l-16.81-118.77c-12.37-2.3-17.65-3.84-14.25-18.04,2.86-9.85,37.05-13.54,47.3-17.63,13.99-3.75,28.08-7.2,42.16-10.63.98-.74.2-11.56.57-13.91,4.75-13.29,7.12-5.2,7.36-21.82-2.85-.53-4.96,1.79-5.12,4.49-.1,1.7,1.58,4.86-1.29,5.7-6,1.75-2.96-11.68-.37-14.4,3-3.14,7.43-1.7,8.57-2.41.5-.31.6-3.25,2.65-3.65,3.69-.33,7.61-.28,6.5,4.19,4.82,2.28,1.33,11.58,2.14,16.1,3.75,5.55,7.04,12.3,5.13,19.39l14.96-3.02c1.02-.53-.56-3.96-.95-4.22-1.29-.87-2.97.4-2.31-3.24.34-1.86,5.39-5.62,6.05-4.93,1.26,1.33-4.39,4.28-3.73,5.13h2.33c.51,1.26-1.38,1.09-1.39,1.63,0,.12,1.04,1.28,1.34,1.93,2.19,5.96,2.16,8.96,9.27,7.77,2.59-1.1.99-3.18,1.1-3.34,6.09-2.6-4.88-10.12,4.63-13.12.33.36-2.21,4.25-2.33,4.91-.34,1.86.48,5.14,0,7.23.23.24,3.32-.76,3.86-1.04,1.01-.53,1.82-2.22,2.68-1.53l-3.27,3.5c1.38-.67,1.98.65,3.38.4,1.66-.29,3.8-2.32,5.26-3.2,1.33-.41-1.96,2.96-2.34,3.27-1.08.88-2.63,1.51-3.81,2.5-1.57,1.32-2.94,4.57-5.77,4.5l1.4-1.86c-3.08-.8-5.27,1.45-1.4,1.86ZM290.39,102.74c2.47,20.28,29.06,2.94,33.42-7.92,4.17-10.05,4.12-9.42-4.94-15.18-4.08-3.31-6-12.44-7.44-16.4-.13-.1-3.17.15-3.29.27-.46.43.52,4.75.51,5.83-1.41,9.6-9.86,26.27-19.66,29.66-.43.56,6.13,5.43,7,5.83l-2.32-.7,1.86,4.67c-.8-.17-4-7.38-5.13-6.07ZM342.71,136.13c-.34-3,.25-6.51,0-9.57.77,4.44.87,12.11,3.26,15.87,2.57-14.97,2.67-38.67,21.49-42.02-18.48,6.32-17.4,27.62-20.55,43.42,2.05,1.15,6.88-16.38,7.95-15.17-3.01,12.01-9.13,15.63-7.44,29.41-.05,2.27-1.64,8.12.9,9.35,3.07,1.49,1.23-1.65,1.4-3.5l-2.33,1.87c5.72-16.11,32.32-13.7,41.32-1.85,1.04,1.56,1.11,5.06-.21,3.72-.34-.35-.9-4.95-3.74-4.67.42,1.76-2.15,8.98-.24,8.88,2.58-.37,5.91-3.59,5.86-6.28-.13-6.61-2.99-16.17-4.09-23.04-2.03-12.79-2.4-27.83-9.56-39.01-8.4-13.12-27.83-13.18-41.12-17.73-3.95-1.35-6.41-5.15-11.11-4.53.04.81,1.33.51,2.05.97,3.78,2.43-1.21,13.42-3.08,16.44-9.04,14.6-33.04,24.12-35.94.85-.49-.31-2.02.06-2.74-.06,2.3,38.44,48.81,12.04,48.58-14.01,2.76,26.94-47.25,53.09-49.25,14.45-.28-.43-3.67-.65-4.93-1.15-1.71-.68-2.77-2.22-4.35-2.97-13.02,5.31-19.2,19.09-18.54,32.63-.88.04-.66-2.15-.94-2.33-1.91-1.26-3.28,5.01-4.2,6.06l8.16.93.71-2.32c.29,2.62,2.4,3.03,4.68,2.79-.62-1.35-3.13-2.44-2.57-4.2,1.98,2.91,4.02,4.87,7.71,4.66-.85-2.49-2.44-6.54-.94-8.87-.19,1.69.95,8.42,2.34,9.11,4,1.4,21.28,1.7,23.62,3.94,3.67,6.91,1.09,15.1,6.98,21.04,11.49,9.81,29.72,9.67,44.15,8.4-1.68-5.16-1.09-11.59-.53-16.94-10.28-12.24-12.99-34.81-1.81-47.5-8.54,13.31-8.88,33.6,1.87,45.76.7-4.44-2.32-8.63-2.8-12.84ZM175.47,126.56c-1.54,4.44,2.71,2.08,4.67.69,1.89-1.67-9.99-4.91-10.32-2.71-.39.63-.04,1.44-.24,2.02-.34.96-2.57,2.09.42,3.38,2.84,1.47,4.13-1.88,5.48-3.38ZM291.79,139.17l-107.14-12.48-11.98,5.95c3.59,5.32-4.4,8.47-8.53,8.04-3.7,2.92-4.94,1.09-8.75,1.02-8.07,4.46-17.61,7.2-25.22,11.94,33.9,11.04,71.94,9.93,105.09,20.33,0,0,17.53,84.74,17.53,84.74l53.74-46.24c-1.33-8.08-2.34-16.39-4.11-24.38-.9-4.08-3.76-1.1-6.77-.47-9.7.28-12.32.75-20.81,5.81-1.93.74-9.9,3.73-9.12-.69.63-3.57,9.05-5.25,11.13-8.27-3.95-.05-14.48,4.71-17.62,3.38-2.14-.9-2.96-3.98-1.06-5.48l11.2-3.97c-3.36-.66-14.45,4.58-15.34-.35-1.12-6.22,14.48-6.91,18.15-8.76-3.44-1.22-14.29,4.24-14.46-1.92,1.64-8.2,22.65-4.98,25.65-11.13.17-3.1-4.31-5.13-6.87-5.3-13.98,5.03-26.23,16.23-39.81,22.09l37.37-22.19c.18-1.19-1.26-1.28-2.12-2.32-1.01-1.22-1.45-2.32-1.15-3.96.59-3.2,3.25-.26,4.91-.3,2.93-1.53,4.94-.44,7.83-.05.93-.13,6.52-3.27,7.67-4,.46-.3.83.04.6-1.05ZM166.93,128.57c-1.82-1.49-5.2.22-4.49,2.35,2.28,1.38,10.51,10.75,9.52,3.14-1.46-2.81-3.82-3.13-5.04-5.49ZM159.45,132.25c-.96.29-2.17,2.31-1.53,3.2,1.21.52,11.6,7.38,9.63,1.6-1.33-2.45-5.12-5.72-8.1-4.8ZM162.39,138.7c-4.51-2.45-8.62-4.1-10.27,2.33,3.49-3.17,8.19,3.01,10.27-2.33ZM293.66,140.1l-8.87,4.9,11.2,7.71-2.33-12.61ZM275.82,145.31c-.38-.44-3.4-.77-3.64-.54.92,7.17,13.46,3.83,13.08,12.14.39.41,3.24-2.01,3.73-.47-4.34,5.48-32.7,5.34-29.23,11.71,1.97,1.42,8.29-.62,10.84-.91,3.94-.44,7.92-.52,11.85-.99-.07.91-1.56.6-2.2,1.07-2.94,4.66-15.81,4.62-21.26,6.99-14.9,9.26,20.82.81,23.93-.13-6.85,4.84-15.93,6.36-23.71,9.45-3.29,7.98,21.18-2.83,24.64-2.91-.02.83-1.27.57-1.86,1.17-1.76,1.78-2.2,2.84-4.8,4.54-3.34,2.18-9.28,3.22-9.68,7.36,1.43-.02,3.57-.11,3.74-1.86.81-.19.18.58.67.92,4.41-.89,10-5.55,13.77-6.32,4.65-.29,11.7-.86,15.76-2.92,15.08,3.55,30.34,12.44,45.85,15.18,6.17,1.06,11.52.74,17.6,1.09,3.41.2,5.89,2.27,9.28-.54,6.99-10.37,7.24-25.69,8.25-37.9-8.5-6.31-22.28-6.31-30.6.14-.45.75-.47,5.4.2,5.86,1.17.81,8.87-.04,10.77-.26l-2.8,1.39c2.88.69,6.25,1.53,8.4,3.74-10.37-5.71-22-1.9-32.91-1.38-12.9-.61-32.54-2.69-39.25-15.44-1.67-1.9-19.07-15.96-18.46-8.87-2.73.5-1.86-1.21-1.97-1.32ZM161.34,164.04c-1.11-1.21-11.58-2.05-13.51-3.54-4.56-.84-7.7-2.77-11.82-.29-.3-.02.07-1.46-1.64-.49l1.01,1.1,8.33,35.32c1.03.14,1.35-.9,2.21-1.29,1.66-.76,3.66-.96,5.29-1.79.21-.76-.44-6.19-.69-7.22-.43-1.73-2.27-3.19-2.53-4.51s.46-2.32.38-3.57c-.08-1.18-1.16-2.44-.93-3.78,1.21-.25,6.69-2.59,6.95-3.33.66-2.14-.59-5.66-2.26-6.94,2.32-2.11,3.1,5.68,2.8,7.24h1.4s-.46-4.45-.46-4.45l.92-.22v5.13c3.23-.66-.31-5.25.47-7.47,1.06.21-.11,2.25,1.17,2.8,2.02.87.79-2.29,1.17-2.8,1.69.2,1.15,1.69,2.33,2.33-.01-.52-.31-1.91-.58-2.21ZM134.83,160.65c-.77.68-21.76,13.68-21.02,14.71,2.86,15.43,8.58,30.1,13.08,45.06l1.86-.47c-2.85,2.46.91,6.57.94,9.8,5.21-1.17,3.71-4.29,4.31-8.06,1.12-6.97,9.24.39,9.74-5.24.39-4.39-4.31-6.93-5.54-10.75.07-.84,4.34-2.32,5.37-2.93.28-.17.92-.01.59-.8-.86-2.09-4.52-2.03-1.13-5.87-2.68-11.83-6.32-23.47-8.21-35.46ZM189.49,168.12l-5.14-.47c.26.71,2.03,2.24,2.58,2.33.39-1.54,2.09-.45,2.56-1.87ZM169.08,172.64c-5.6-10.77-18.25,2.19-2,2.27.87.56.99,2.75,3.26,2.07l-1.4-.94c.71-1.77,1.04-.03,2.1.03.33-1.65,2.7-.83,3.97-.48l-3.73.93c-.15,2.66,4.56-.8,5.95-.83,5.79-.59,5.63,1.13,8.06-4.52-.06-.24-3.45-2.86-3.96-2.88-2.45-.1-6,3.69-4.45,6.35-1.92-.41-6.59-.67-7.8-2.01ZM192.76,169.51c-.35-.92-.34-.93-1.16-.46-1.28.74-4.13,2.05-4.88,2.6-1.86,1.39-1.88,5.56-4.24,5.34.54.94,1.4,1.51,1.96,2.47s1.68,5.27,2.71,4.52v-2.33c.78,1.9-.11,4.7,2.57,4.21.32-.06.23-2.74,1.63-2.82,0,1.63-2.25,2.85.19,3.76,2.19,7.32,3.27-3.55,9.62-1.43.44-.92-2.05-3.09-1.87-3.26,1.96-.34,2.64,3.11,2.81,3.27.32.31,2.82-1.42,3.73-.47-.47-1.99-1.88-3.34-1.4-5.61h-1.4c-.72,3.58,2.18,3.79,1.39,5.14-.15.16-1.95-.99-2.23-1.74-.6-6.43,0-6.41-6.64-9,1.42-.31,5.33.86,6.23,1.82.6.64.09,1.83,1.01,2.37,2.04-2.46,5.61-2.26,8.17-3.96-4.21-3.94-6.21,3.2-7.94,2.1.88-4.48-7.67-6.02-10.98-6.06l.7-.47ZM208.18,170.92l-12.14-1.87,6.24,2.39c1.83,2.77,2.5,1.62,5.2.4.49-.22.92.38.71-.93ZM175.47,173.25c-1.53-3.91-3.58-3.02-7.01-3.26,1.12,3.04,4.29,2.67,7.01,3.26ZM391.77,233.49c5.27-9.87,9.79-22.98,2.43-33.02-.01-4.4-.19-9.11-2.32-13.09-1.32-4.65-.27-11.31-2.68-15.52-1.38,2.07-4.02,1.66-5.61,3.25-1.73,9.13-1.58,23.17-11.23,27.53-9.63-.61-19.34.14-28.79-1.98-13.14-2.95-25.8-10.02-38.68-13.87-1.3,1.48,5.43,22.48,3.49,27.07-.59,1.4-5.1,3.75-5.32,4.98,11.22,17.58,24.41,41.13,48.53,39.4-.34.88-2.71.99-3.5.97-20.15-.29-31.19-18.42-41.58-32.73-.61,13.68,1.2,12.37,8.64,23.12-2.12.9-2.84-3.18-4.01-4.4l-3.92-5.17c-.98,3.19-1.49,8.76-1.4,11.89.26,1.31,2.93,2.63,4.18,3.3,9.25,4.98,22.96,11.66,33.4,12.37,15.41,1.06,49.4-7.25,61.6-16.91,4.51-3.57,5.14-4.45,3.71-10.08-2.66-8.57-6.43-17.04-9.7-25.33-1.05,6.39-2.87,13.25-7.23,18.21ZM223.59,177.92c-.08-5.39-3.33-5.66-7.93-5.6-1.14,1.1,4.47,4.84,4.91,6.06,1.47.63-.22-3.33.23-3.73,1.68.99.41,2.68,2.79,3.27ZM157.72,173.26c-1.4-1.07-8.13,1.14-8.3,2.08-.07.37.77,2.07.81,2.89-1.31,4.01,1.04,4.21,3.39,7.31,1.04,1.82.65,3.96.83,4.06,4.19.65,1.11-2.93,1.4-5.13,1.61-.57.36,1.91,1.63,1.39.9-.36,2.43-3.09,2.11-4.2.35,4.54,4.55-3.67,5.1-4.53.32-1.37-2.97-1.69-3.56-1.92-5.25-3.63-1.44.7-5.28.37.27-.97,2.17-.85,1.86-2.33ZM233.86,178.86c.33-5.19-5.22-4.51-8.84-5.42-1.54-.03-.09,3.81.26,4.06,1.47,1.06,4.03-.17,5.46.12,1.18.24,1.92,1.24,3.12,1.23ZM194.63,243.3c-3.44-6.94-4.62-15.92.93-22.41-2.38.65-2.26,2.87-4.9.92-1.83-1.35-2.39-4.6-2.14-6.78,1.03-1.38,5.94-9.06,8.44-6.05.18.4-5.3,2.43-6.32,5.81-.45,1.51-.2,6.22,1.81,6.03.71-.07,10.79-8.38,11.05-9.05.4-1-3.17-1.12-3.63-2-3.05-.45-5.94,3.39-7.57,5.51.25-4.94,7.64-5.09,6.91-10.38-.23-1.68-2.59-4.8-.85-5.49.15,3.45,3.57,5.81.94,9.34,6.57-7.54,17.65-8.34,24.75-1.4.41-2.12-2.86-2.56-3.19-3.58-.58-1.77.06-8.02-1.69-9.54-2.13-.36-3.35-3-3.06-5.1-2.41.89-4.83,1.78-7.47,1.63,1.18-1.18,2.98-.95,4.37-1.7,1.59-.86,5-5.47,3.57-.41,5.28-4.91,12.69-2.92,18.68-.94.44-.47-.61-6.49-1.4-7.23-.71-.67-2.37-.6-3.04-1.64-.56,2.32-3.08-1-3.73,1.4-1.88-2.37-3.87-1.57-3.74,1.4l-2.1-.94,1.86-.92c-1.05-.22-3.32.35-4.11-.11-.85-1-3.48-4.71-5.51-5.04-1.06-.15-9.02,3.31-9.02,3.97,1.41,1.17,1.23,2.98,1.43,4.37.09.15,3,1.7,3.18,1.75,1.88.07,1.47-.96,2.34.88.9.57,2.98-.23,2.81,1.64l-3.73.47.47-1.39h-2.8c.41,1.33,3.12,1.51,2.11,3.26-4.42-2.22-3.94-3.71-9.3-2.37-.64.03-1.42-.52-2.35-.43-2.41.93-5.93,4.64-5.64,7.48-.55,1.41-3.29,6.92-3.33,7.71-.04.72,1.63,2.92,1.22,3.5l-.93-.24c.58,3.05-2.69,5.68-2.48,8.54-2.64,1.49.61,2.08-4.76,2.47-4.19-2.01-9.75-.71-14.03-.95-1.67-.2-3.77-1.42-5.61-1.35-3.08,1.23-7.21,3.35-10.95,2.97,1.84-3.61,8.86.79,6.54-5.84,2.15.48,1.27,2.68,1.4,2.8.44.42,1.9-1.18,2.68-1.33,1.09-.21,1.88.47,2.93.39-1.23-2.41-2.84-1.18-4.67-.46.12-2.56,2.35-2.97,4.38-1.81,1.57.89,1.22,2.97,2.95,3.12,2.12.18,5.16-2.16,7.61-.84l-.93-3.73c1.2.25,1.25,4.03,1.41,4.18.12.12,2.56-.05,3.38.12,3.82.8,3.17,4.07,6.49-1.19,2.65-4.21,2.6-6.24,1.32-11.05-3.52.15-8.11,4.16-11.2,2.34,2.98-.12,5.36-1.57,7.95-2.56.55-.21,6.39-1.35,5.13-3.04s-7.84,1.58-9.62,1.82c-1.65.22-3.47-.18-5.07.07-3.29,1.52-3.1,1.44-6.47.96-.87.24-2.31,3.35-4.66,4.25s-1.49-.45-2.05-.58c-2.01-.47-6.2,1.76-6.23,4.21,3.87-.31,3.93-3.71,8.33-2.46.82.23,1.21-.16,1.01,1.06-2.77.3-3.6-1.54-5.62,1.15-1.29.63-3.85.04-4.19,1.88-.29,1.56.9,2.99-1.39,2.58l.93.69c-1.54.78-2.25,2.83-3.74,3.27l.94-2.56c-1.97-.76-8.37,5.09-7.72,6.54,2.7,2.81,4.4,2.68,5.87,7.22.63.63,5.33,3.17,5.59,1.18-4.68-.41-4.92-4.08-7.94-6.54,3.33-.13,3.43,3.9,5.32,4.7s5.59,1.63,4.49-1.43c1.32,1.31,2.14.46,3.5-.47,1.86-1.28,4.65-3.52,1.29-5.02-.35-.16-4.8-1.49-5.07-1.52-1.26-.11-2.82,1.22-3.46-.46,2.91.43,6.05-2,8.41-2.34-.29.99-2.9,2.26-3.73,2.8,1.93-.08,3.96,1.19,5.79.47.43.03.02,1.48,1.21.93v-2.8c-.55-.21-1.09,2.32-1.86,1.4-.4-.48,1.39-1.93.93-2.8-.75.07-1.61-.11-2.33,0,4.83-3.85,4.85,2.76,3.73,6.07,4.54.46,7.05,4.3,11.68.94.11,1.49,1.17,6.22,2.7,3.86,3.14-3.85-.91-15.26-5.73-8.53.42-4.73,6.24-2.32,8.64-.46.66,2.21-2.25-.14-2.8-.47,3.77,4.12,2.15,7.5-.43,11.4-.04.78.3,6.27.45,7.03.71,3.67,6.12-.8.66-1.61.78-3.45,2.23-.61,3.52.92.43-2.93-.64-5.56-.92-8.4l1.16,2.8c1.51-2.77,2.67-7.44,6.78-7-5.81,2.92-6.02,8.17-5.6,14l1.4-.46c-.33,2.31-2.75.85-4.67,1.4.59,1.47,3.21.82,3.97,1.87.81,1.12,1.32,5.14-.69,5.6.64-.85-.11-4.66-.56-5.05-.12-.11-3.07-.67-3.18-.55v3.74s-.92-.47-.92-.47c.18,3.09-4.4,6.89-4.5,9.12.7,3.15,1.54,6.66,4.94,4.42,1.62,4.26,4.14.67,6.32-.91-.54-2.13,1.15-6.28,1.15-8.17-.06-.91-1.76-3.53-1.38-3.99l1.4.23-1.87-5.36,2.8,2.57c-2.68,1.25.37.82.47,1.41-.04,1.02-1.31,1.24-1.42,2.35-.04.46.84,2.86,1.02,2.98.35.23,5.11-.33,6-.42.39.56-5.19,1.87-3.28,2.57.57.21,7.57.64,7.93.47,2.99-1.39-1.22-2.46-2.18-2.95-.71-.35-1.27-1.25-1.83-1.37-.69-.15-2.86.39-3.91-.13.54-1.14,2.81-.46,3.73-.47-.29-.89-1.23-1.33-1.87-1.86.02.31,0,.62,0,.93-1.9-.64-3.72,2.18-4.67,0,4.96-.08.23-4.51-.94-6.54,3.17.45,2.78,5,5.61,5.6ZM188.51,195.62c.26-4.62-1.92-6.74-4.41-9.3.61-2.01-1.57-6.74-2.57-8.14-2.69-1.8-6.76,1-9.12,1.11-7.53-1.41-6.33-2.52-9.53,4.48-2.47,3.15-2.7.8-5.05,6.16-.36.82-1.43,1.3-1.48,2.21.26,4.71,5.51,6.19,9.1,7.72,2.28.24-2.42-8.38-2.83-9.31-.69-.99-1.68-1.02-2.08-1.88.61.09,1.87-.23,2.27.06.6.42,3.73,10.62,4.55,10.72.51.06,1.26-.5,1.84-.46.75.04,1.22.95,2.27.9.84-.03,5.08-2.22,4.48-2.81-2.32-.6-3.73-.76-5.6.93.67-2.89,3.51-3.18,5.78-1.82.97.58,2.68,4.27,2.62-.05.98-.11.22,1.62.46,1.87.45.45,4.11-1.08,4.83-1.48,1.3-.71,5.16-4.51,2.64-.4.2.16,1.77-.42,1.83-.51ZM152.58,192.86c2.55-4.03.86-6.09-1.86-9.33,1.01,2.79-.16,7.33,1.86,9.33ZM187.15,184.93c-3.25-.38,3.15,6.4,2.72,9.24.09.81-.82,2.95.54,1.96.58-.42,1.53-5.53,1.3-6.66-.26-1.3-2.32-4.67-2.93-2.21-1.87-.7-1.48-2.13-1.64-2.34ZM240.87,224.16c2.06.49-.38,5.24,2.81,3.96l-5.62-27.78-2.32-.24,1.86-.23v-1.4c-5.23-.15-2.68,11.32-3.26,14.95l.92-.47c-.35,1.21,1.37,1.96,1.42,2.19.05,1.3.05,5.07-.91,6.44,1.47,3.44,3.65,9.67-1.43,11.92-.54-1.95,1.53-2.35,1.99-3.37,1.56-3.41-.77-5.66-1.05-8.12-.21-1.94,1.4-2.63-.49-3.25,1.1-2.37,0-3.76-1.27-6.15-.6-2.16-.52-5.32-.58-7.59l-2.8,1.4c-.54-.54,2.31-2.93,2.73-3.57,2.17-3.35,1.24-5.41.54-9.03,1.17.27.95,3.89,1.4,4.2.51-.16,2.24-.32,2.36-.75.15-.52-1.08-8.35-1.44-8.59-.23-.15-1.08,0-1.42.21-1.39,2.4-5.3,2.81-7.92,3.52v-1.4s1.64.45,1.64.45c.83-.32.16-1.35.23-1.38.24-.12,3.64,1.05,3.27-.94-1.71,1.36-4.48-1.08-5.35-.93-2.04.33,1,1.3.68,2.33-2.52-1.29-2.25,1.45-4.2,2.34,1.26-4.01,3.04-7.81,7.24-3.74.7-2.66,3.48,1.99,3.5-1.4-4.37.21-6.58-2.54-11.41-.9-9.01,2.25-1.9,5.06-.34,8.22,1.1,2.23,1.66,5.23,3.35,7.4-3.12,1.27-.88-1.51-2.79-2.57-.62,4.17,3,4.39,4.22,7.69,2.12,1.98,4.82,2.28,5.47,6.2s-1.49,3.38-1.76,6.66c-.12.17-2.94-2.45-3.73-1.64,4.29,4.84,2.66,2.09,7.47,1.17,1.04.89-3.71,2.42-3.73,3.03,3.15,3.67,3.38,8.72,3.26,13.31,4.17.54,3.43-3.34,4.64-5.28.36-.58,1.63-.69,1.8-1.54.06-.31-.36-5.67-.48-6.38-.49-2.93-3.46-4.61.57-7.35-1.54,2.99-.56,5.38.94,8.41-.03-.04-.89-.52-.93-.47l.47,5.61c1.66,1.28.9-4.57.46-5.14ZM164.12,203c4.42-3.56-7.32-.82-9.44-9.2l-3.27,3.26.23-1.86c-12.98,2.67-6.15,2.67-4.66,9.8,2.8-1.09,1.43-5.29,3.26-6.53-.24,3.91-3.13,7.25.71,10.27,1.2.61.67-2.42,1.62-2.33l-.46,3.26c1.09.3.79-.28,1.07-.6,3.08-4.15,5.64-5.94,10.93-6.08ZM219.86,207.81c6.68-2.11-13.65-7.62-17.78-.25-1.22,2.08.07,3.18,1.31,1.31,2.92-5.08,13.67-6.63,16.47-1.05ZM149.21,207.45c-2.01-.71-2.53-.79-3.63-2.68-1.4-.87-4.13.58-5.05,1.87l6.21,8.16c1.68-2.05,5.15-2.26,4.43-5.58l-1.39.47c-.07-.64-.13-1.79-.58-2.24ZM216.12,205.95c-1.08-1.32-11.19.2-11.2,2.09,0,1.56,5.63,1.26,6.74,1.15.7-.07,1.17-.84,1.88-.88,2.63-.14,1.09.91.86,1.69-.09.3.31.85.22,1.01-.21.37-2.5,1.27-3.17,1.01l2.33-1.4-.71-.92c-.87-.31-.58.83-1,.93-.64.15-2.35-.15-2.5,0-.12.12-.42,3.42.93,2.81v.45c-2.84.73-6.71,1.04-8.4,3.74,7.11-4.11,14.52-4.26,21.95-.93-1.61-2.7-9.69-2.55-11.21-3.27-.13-.13.7-.86.47-1.4,4.49,2.13,2.53.84,3.14-1.25s2.05-2.01,2.46-2.49c.66-.77-2.06-2.08-2.33-1.85.78.89-.14,2.51-1.16,2.33-1.95-.35,1.62-1.66.69-2.79ZM217.99,211.07c1.59.02,3.06,2.09,4.23,3.01.71.5,5.99,3.88,6.36,3.94,5.86-2.74-1.88-11.18-7.34-9.53-.63.16-3.89,1.72-3.25,2.57ZM205.69,210.32c-.36-.42-1.22-1.29-1.71-1.58-.23,2.44,2.3,3.6-.51,5.33-1.14.7-2.46.31-2.76,2.13.38.36,3.09-1.76,3.78-2.06.98-.41,3.48-.45,3.97-1.19.33-.49-.57-1.98.19-2.81h-2.34s1.4,1.39,1.4,1.39c-2.52.45-1.5-.61-2.02-1.22ZM231.59,233.02c-.4-23.45-35.29-23.45-35.69,0,.4,23.45,35.29,23.45,35.69,0ZM201.63,218.09c-10.19,4.41-11.44,18.18-3.97,25.68-4.21-8.81-3.27-18.85,3.97-25.68ZM138.89,220.58c-5.62-3.75-4.55,11.69-.05,8.28,1.93-1.46,1.95-5.27,5.34-4.7-.22-3.07-4.47-.85-5.29-3.57ZM301.6,220.42c-16.5,12.41-31.94,28.68-48.55,40.89-2.5,1.38-33.36-4.76-36.63-4.97-1.61,5.68-8.07,8.81-7.77.51.91.8,3.08-.04,3.22.05,1.77,4.95,4.39-4.11,3.78-5.19-3.63-.21-1.83,2.52-3.28,4.66h-.69c-1.35-1.89-7.35-1.19-9.38-2.76-1.48-2.01,3.65-4.21.5-5.17-.38-.12-2.98,6.31-2.1,7.47-1.58.34-.78-1.72-2.19-2.24-1.92-.51-6.95-1.78-9.02-1.49v2.81c9.56-.72,22.42,9.14,22.81,18.81-2.91,2.32.57,4.06-.39,7.34l80.06,12.57c2.23-3.81,2.93-8.99,5.82-12.44.15-2.8-1.43-3.99,1.94-6.09.83-3.25.13-5.25,2.62-8.02-.35-2.3-.02-3.71,1.47-5.52.35-1.03,1.35-4.68,1.45-5.6-2.79-4.42-1.53-10.19-.84-15.27.54-6.9.06-13.99-2.83-20.33ZM127.76,230.15c.32-.54-1.82-6.89-2.25-7.2-.98-.69-4.45,1.09-4.91,2.15-.3,3.8-2.35,7.67-4.43,10.48-.08,1.67,2.1,5.48.92,7.92,1.68,2.21.84,7.24,2.31,8.94,1.02,1.18,4.37-.27,6.59.42,1.66.52,3.5,3.89,4.78,3.89.69,0,6.53-1.88,6.87-2.24l-.66-.97-3.54-1.36c2.02-.44,4.04.9,5.87.95,3.78.11,6.76-8.8,3.45-10.97-.32-.21-5.99-2.55-6.33-2.59-2.77-.28-3.32,2.56-5.79,2.79,3.56-2.29.29-3.45-.72-6.52-.22-.66-.81-3.43-.72-3.93.1-.54,1.17.02.97-.75-1.22-.24-3.5,1.32-3.51-.48.26-.24.99-.34,1.11-.54ZM169.87,226.02c-4.9-5.85-10.7,4.56-15.4,6.11,2.53,5.39-.78,6.66-1.33,9.89.16,1.74,3.11,6.89,4.82,7.35.59-3.66,8.26-3.7,10.51-1.4-2.6-.64-6.24-1.91-8.41.47,5.19-.39,5.19,4.88,10.25,3.02,6.37-1.9,5.48-3.83,8.03-8.78,3.32-2.96,1.09-3.4-.03-7.11-.45-3.22.78-7.22-2.66-9.42-3.62.71-7.28.71-10.92.35.24-1.17,3.98-.14,5.14-.47ZM146.04,225.09c-1.42-.07-4.08.58-4.2,2.33.37.34,3.99-1.41,4.2-2.33ZM148.55,228.65c-.86-2.78-5.94-.1-6.48.17-.15-.01-1.23-2.54-1.63-.69-.52,2.42,5.6,0,6.67.29,1.12.3,2.77,2.7,5.7,3.21.35.06,1.71.13.93-.48-1.78-.42-3.71-1.5-5.2-2.51ZM147.87,229.8c-2.56-.56-2.66,1.74-5.8.51-4.09.94-5.09,1.54-8.4-.86-4.72-.04-1.66,8.57.43,8.67.21.01,2.51-.35,2.61-.43-.9-1.44.39-3.42,0-5.13.98.33,1.46,1.36,1.4,2.34l3.26-1.87c.38,2.35-3.1,2.64-3.25,2.82-1.66,1.94,5.65,6.5,6.99,3.25-1.83.04-3.55-.83-5.12-1.67-.62-.33-1.2.15-.94-1.13,1.69-.96,5.54,1.5,6.29,1.4,2.16-.3-2.98-2.44-.45-3.74,3.88,6.23,2.99-.8,8.64.46-.11-2.55-1.71-.29-1.86-.46.76-1.08-2.51-3.14-2.8-2.8v1.87s1.16-.47,1.16-.47c1.04,1.01-.59.91-.91,1.41-.36.55.09,1.52-.71,1.4l-.51-5.56ZM244.61,230.22c-5.62-1.08-4.37,4.26-6.81,6.51-1.65,1.52-4.01,1.08-5.15,1.86-.97.67-2.01,5.03-3.46,6.1,3.73.35,8.16,9.3,10.54,2.83.91-.82,2.23-2.16,2.11-3.27.19-.21,4.69.87,5.56-.04-.2-2.28-.17-2.61-2.32-1.85,3.34-3.18-1.12-8.08-.47-12.14ZM153.52,235.37c-2.04.17-4.11.19-5.14,2.33,2.24-1.35,5.12.62,5.14-2.33ZM107.74,238.17h-4.67c-.61,1.75,1.79,4.04,0,4.67l-.24-1.87c-1.77.55-.78,1.76-1.15,3.49-3.11,6.73,1.35,7.19,6.98,6.78.49-1-1.85-1.25-.93-2.33.83-.97,1.05,1.92,1.86.93.52-.64-.7-4.49-.47-5.6-2.86,1.45.11-2.02-3.26-.94-.94-1.13,1.21-.71,1.41-1.23.18-.46.59-3.76.45-3.9ZM152.12,244.7c-.35-2.87-.75-4.67-4.14-4.14-1.66,3.86.66,4.54,4.14,4.14ZM100.73,245.17c.84-4.48-1.74-4.03-5.17-3.07-4.38,1.22-7.71,11.44-4.65,13.14,1.97,1.1,1.1-2.84,1.23-3.9.62-5.07,3.81-6.48,8.59-6.17ZM233.4,249.37c-.37-1.16-4.07-3.68-4.91-3.61-.32.03-2.32,2.16-3.03,2.45-.24.96,1.14.94,1.33,1.23-.98,3.37,4.82-1.15,6.61-.08ZM251.15,258.25c-.81-1.49-2.65-12.59-3.5-12.6-1.79,1.66-4.28,2.22-6.28,3.52-3.17,4.3-5.23,1.67-9.09,1.15-2.36.07-3.68,3.17-6.35,1.14-2.11-3.58-3.24-1.71-6.08,0-13.66,2.78,29.99,5.43,31.3,6.78ZM206.2,250.42c-.16-.25-1.57-.76-1.76-.57,1.2,1.87-.85,1.5-.93,2.1-.1.78,2.69.82,3.26.7-.47-.62-.29-1.79-.57-2.22ZM102.37,253.11c2.23.16,4.54-.12,6.77,0v-1.4c-2.79,1.05-6.28.36-8.87-.93,1.25,7.53-5.82,11.16-6.97,18.02,0,0-.9,32.57-.9,32.57,1.01,2.88,18.85,4.36,20.86-.01.39-8.85.69-17.69,1-26.55,2.73-9-4.64-13.52-5.12-21.23-2.51.34-6.87,1.35-8.41-.93.7-.29,1.3.44,1.63.46ZM154.92,259.64c.17.18,3.54.55,3.96.5,2.46-.3,7.15-5.45,6.11-7.49-2.32-4.54-5.15,4.65-7.27,4.67l2.33.93c-.2,2.09-6.33-.88-5.14,1.39ZM175.01,252.17c-.42-.41-5.13,1.46-5.39,1.85-.35.52-.38,4.21-.15,4.87.15.44,2.73,1.3.63,2.15-1.7.68-1.44-4.36-1.39-5.13-1.65,1.47-1.56,3.72-2.84,5.57-.43.62-4.18,3.96-4.4,3.77-1.24-2.29,1.09-2.62,2.73-4.03.35-.75,5.63-8.93,1.95-7.63-.99,4.66-4,6.16-6.95,8.67-.07.31.71,3.11.96,3.36.35.35,1.69.51,2.46,1.04,7.64,4.45,3.9,10.28,6.96,8.97.99.24,2.98,7.42,4.79,7.77.66.13,3.11-1.41,3.49-2.02.49-.78-.39-2.03.38-3.21.37-.57,2.36-.9,2.36-1.48-3.57-4.62-3.65-14.37,2.34-17.28-1.27-1.13-2.87.13-4.07.13-1.85.01-3.92-5.59-3.87-7.37ZM251.15,258.72l-21.95-2.8c1.49.12,21.19,4,21.95,2.8ZM306.28,262.45c1.42.52,6.91-1.46,6.54-3.03-.08-.32-5.23-3.38-5.6-3.04l-.94,6.07ZM192.67,256.95c-1.99-1.2-7.48,1.61-6.92,4.57-.56-.71-1.96-2.45-2.32-.67-.06.29,1.58,3.98,1.93,4.57,1.88,3.11,6.07,5.25,5.06,9.65-.62-5.58-6.69-7.64-7.48-13.07-2.75-2-2.46,9.58-2.34,10.52.48,4.03,8.91,10.67,12.81,9.91,3.51-2.59,6.19-2.87,9.48-5.41,8.56-3.63,10.06-2.6,4.28-10.99-.69-.77-3.01-2.1-3.1-2.27-.33-.62.14-1.54-.19-2.15-.28-.52-4.66-2.3-5.51-2.89-.32,1.34,1.16,2.51,1.26,3.56-1.07,2.55,1.56,5.7,3.4,7.42-5.4.83-3.35-16.02-9.57-11.44-.42-.1-.54-1.15-.8-1.31ZM391.53,269.92c1.64-.19,8.22,1.06,8.45-.95,0-1.5-.55-11.55-1.91-11.64-5.33,2.89-11.14,5.15-17.05,6.53,2.19,3.29,6.63,5.61,10.51,6.07ZM211.91,260.58c.28-1.64-1.1-2.25-2.33-2.8-.21,1.66.49,3.01,2.33,2.8ZM411.84,283.46l-2.08-21.97-2.58-.45c-.54,2.98.84,5.55,1.28,8.29.97,4.5.28,10.59,3.39,14.12ZM337.57,270.15c.92,4.23-2.34,12.35,4.2,13.32-.24,1.36-2.7-.59-2.79-.47-.43,3.12,3.32,4.5,5.77,3.67,1.81-.62-.05-3.96-.17-5.3-.31-3.67.24-7.73,0-11.45l-7.48-.46c-.24.17.45.56.47.7ZM147.45,278.33c1.85.4,1.93-1.44,2.79-2.57-.04-.65-4.4-1.36-4.64-1.14-1.52,3.71-1.15,4.79,1.84,1.38v2.33ZM135.3,278.32c-1.15-4.12-5.22-2.68-8.42-2.11-1.31.23-9.85,2.03-10.28,2.33-.85.6-.32,2.95-.44,3.99l19.15-4.21ZM210.94,281.09c1.4-7.97-6.91-4.02-10-.42-.76.55-2.95.73-2.57,1.62.34.8,5.01,4.92,5.84,4.86,3.54-3.78.27-8.4,2.8-9.75.64.71-.12,2.54.3,3.2.24.38,3.14.78,3.63.49ZM187.62,283.46c-.76-1.38-2.64-2.32-4.2-2.33-1.28,1.35,3.24,2.51,4.2,2.33ZM195,302.04c2.37-4.26,9.73-1.39,5.81-8.18-.32-1.5.43-3.28-.81-4.32-1.55.45-7.9,4.78-7.63,6.2.06.32,1.54,1.74-.33,2.18-4.32-1.8.49-5.13,2.36-6.99,2.45-1.78,6.57-1.38,4.69-5.16-2.52-5.07-4.85-1.02-9.13-1.84l.23,1.4c-5.67-.89-12.23-3.77-16.8.9-.14.31.25,4.99-.28,6.77-.37,1.27-1.34,1.41-1.37,2.6,1.48-.81,2.84,1.6,3.26-.7.13-.73-.46-2.49.46-2.56v3.74c1.25-.6,4.35.96,4.93.86,1.71-.42-.28-5.78,1.15-5.99-.15,8.56-.82,5.52,7.01,7l.23-3.27c1.49,1.38-.33,3.39,2.56,3.3-.87,1.63,1.81,4.9,3.65,4.06ZM78.78,292.34c1.22-1.67,10.97-2.44,11.62-3.33.12-.18.54-4.51-.61-4.12-27.42,7.1-54.82,14.26-82.02,22.16-5.1,2.09-5.41,8.74-4.64,13.52,7.7,9.5,53.73,10.16,68.27,13.94,32.47,5.37,64.85,11.22,97.31,16.67,12.03,1.07,23.08-2.04,34.52-5.08,1.19-12.73-2.68-11.57,13.82-13.12l-3.73,1.17c-.59.18-9.01,1.35-7.95,2.09,8.25,2.12,17.27-3.24,25.33-5.73,4.35-2.17,77.58-18.79,45.68-17.61,2.46-.65,5.99-1.99,8.34-.98,2.03-4.91,15.61-4.72,20.95-7.34.68-.28,1.47-1.57,2.01-.8-2.12,4.9-19.99,5.02-21.74,7.22-1.58,2.4,4.15.63,3.99,8.43,5.63-.13,2.6-2.14,4.2-3.27.89,3.88,1.54,8.27.47,12.13,1.26.91,13.22-3.84,14.72-5.13,3.16-4.1,1.46-13.43,1.05-18.33-.67-9.31-28.71-9.38-36.69-11.89-20.78-3.38-41.75-7.01-62.6-9.37l-2.43,3.16c25.55,3.5,51.39,6.97,76.7,11.82,1.59.33,8.14,1.08,6.02,3.85-29.54,10.73-66.67,19.59-97.66,27.53-8.67,2.01-16.89,4.09-25.93,3.49-48.88-7.77-97.9-14.88-146.65-23.38-5.83-6.08,52-16.12,57.65-17.71-18.42,5.86-38.86,9.26-56.98,16.11l25.21,3.5c.06-1.19-1.81-5.32-.47-5.6.36,1.17.61,5.24,1.4,5.84,1.92,1.47,10.34,1.11,13.08,2.1v-1.87c1.32.83,2.37.13,3.74,0-.18-1.88-2.42-7.4-.94-8.4.26,3.53,1.97,7.26,1.45,10.69.13.19,2.12.68,2.3.51.27-.26-1.01-2.05.46-2.33-.53,3.21.79,2.08,3.27,2.8l-.92-3.99c-.76-.57-3.65,2.12-4.21.27l5.6-1.4c-.76,1.89-.6,6.37,2.33,5.6-.83-2.08.17-4.35-1.4-6.06l2.33-.47c-1.18,1.45-1.03,7.37,1.4,7.47-.02-2.3.35-5.85-.92-7.71.06-.94,4.55-.1,3.26-3.5,1.46.3-.74,2.9,1.4,2.33-.31.39-.94.53-.94.73.46,1.25,0,9.12,2.34,8.6l.46-4.2c-.37.59.16,5.53,1.4,4.2.26-.28-1.22-6.31-.94-7.47l-.93.93c.09-2.13.27-2.11-1.41-2.8,2.9-2.04-1.23-7.43.93-9.8.36,2.94.95,5.93.47,8.87.41.33,7.09-1.61,7.93-2.13.53-.33.22-1.29.93-1.13,1.19,1.34.36,1.59.52,2.5.77,2.39.1,8.73,3.22,8.24.14-2.32-2.02-7.4-.47-8.87.28,2.04.59,5.47,1.37,7.27,2.18,5.05,1.31-5.94.62-7.62-.61-1.49-2.63-2.57-2.68-.12-.97-.46-.1-1.47-.3-1.77-.13-.2-2.27-1.15-2.27-1.73v-11.91c-3.85,1.04-7.77,1.59-11.68,2.33ZM137.52,285.91c-.69-.66-4.1-1.8-4.1.12.16,2.3,6.45,3.32,4.1-.12ZM345.51,287.2c-1.04,1.17-5.18-1.43-5.14.24.62,3.57,3.22,7.53,7.01,8.17-.76-1.17-1.56-8.11-1.87-8.41ZM216.12,302.14v-7.94c.67,2.35,1.62,5.61.46,7.93,3.69.06,7.05,1.62,10.75,1.41.46-.46-.93-5.5.93-6.07-.54,4.81-2.33,8,4.22,6.78,1.69-1,1.06-7.69,1.87-9.57,1.46,1.39-.43,7.89-.47,10.27l9.34,1.41c.32-1.16-.7-4.9.46-5.14.2,1.2-.47,4.78.44,5.4l12.64,1.6c.37-2.07.09-5.52,1.4-7l-.46,8.87c7.24-.15,6.17-3.99,8.17-9.34,1.5,1.82-2.76,7.47-.46,7.48,5.04-1.35,3.59-1.45,4.44-5.61,1.89-1.98-.46,4.68,1.15,4.19,6.18-2.39,13.93-2.51,19.4-6.05-29.52-5.47-60.28-11.34-89.45-13.55.42,2.69.2,6.86,2.88,8.34,1.56.58,1.15-1.18,1.83-2.22,4.43-6.79,12.32.9,6.86,3.58-5.05,1.71-3.01-2.48-7.62,1.73-9.03,1.65,9.79,2.49,11.23,3.52ZM206.77,296.07c1.93.58,7.03-.59,5.39-3.27-1.54-2.51-6.25.36-5.39,3.27ZM155.85,303.54c.65,2.09-.21,5.62,1.4,7v-8.41l.93,3.97c.73,1.88-1.84,6.71.94,6.77v-10.27c.3-.04.93.62.93.7v10.04c.4.2,1.4-.4,1.4-.7v-8.64c.64.71,3.27.3,3.27.47v7.94h.93v-8.17c0-.26.94-.79,0-1.41-2.54.22-6.21-.97-8.19-2.55-.81-1.39-2.88-2.88-3.93-3.34-.19-.3.51-1.04.36-1.28-.11-.18-1.29.27-.85-.99.83.81,3.15.35,3.27.47.1.1-.85,1.71.71,2.33,1.1.44.32-1.12,1.16-.93-.78,2.04,4.41,4.94,5.89,5.12,2.1.9,5.57-3.71,6.97-4.66l-2.1-.93c.15.48-.56,3.32-1.4,2.34-.31-.36.75-2.28-.93-1.87,2.28,6.5-7.74,3.16-6.55-1.4-.54-.35-.57,2.03-1.4.93-.12-.16.17-1.17-.03-1.35-1.33.08-4.15-.48-5.45-.88-1.25.01-1.16,1.79-1.84-.12l-8.1.02.47,7.94c1.11.06.82.15.93-.7-.06-5.97,2.42-10.33,2.34-.93.22,1.92,1.47.11,1.38-1.37-.05-.88-1.24-3.14-.44-4.01.84-.92.9.88,1.17.94,1.07.22.63-1.53,1.16-.94.22.25.37,1.52,1.18,1.86l.69-1.4c-.5,3.38,6.95,5.01,3.74,8.4-.2-1.25.37-2.62-1.4-3.27l.47,5.6c1.14-.12-.21-2.41.93-2.33ZM142.77,294.2c-1.88-.07-3.88-.01-5.63.73-.15.82.59,5.89.97,6.27,1.52,1.52.41-3.59,1.39-3.27.07,1.11-.35,3.99,1.4,3.73l.46-3.73c-1.09,1.64,1.41,5.86,1.41,3.5v-7.24ZM136.7,295.14h-1.4c.29,2.12-1.17,5.18,1.86,5.14l-.47-5.14ZM149.78,300.74c-.18-1.5.6-3.51-.7-4.66l-.23,3.97.93.69ZM163.79,297.94c-.25.12-2.03-1.87-2.79-1.86-.84.88,3.55,2.9,3.97,3.26,2.28-1.45-1.37-3.81-1.18-1.39ZM166.6,302.14c-.3.33.22,7.62,0,8.87,2.74-1.32-.63-6.36,1.87-7.94v6.54c2.8-.5,1.65-4.45,1.87-6.54l.54,4.35,1.32.78c-.22-2.14.34-6.33.94-8.4v7.71c0,.09,1.06,1.15,1.4,1.17-.49-2.12,1.46-10.89.03-11.93-1.58-1.15-1.6.89-1.9,2.12l-.92-.93c-.41,1.96-3.19,4.11-5.14,4.2ZM153.98,303.08c.75-3.35-1.31-3.99-3.26-6.07v3.73s1.39-1.4,1.39-1.4c-.26,1.72.3,2.97,1.87,3.73ZM177.81,311.48v-13.31c0-.1.32-.25.36-.47-.08-.91-1.97-.73-2.7-.7v11.91c0,.37,2.26,2.73,2.34,2.57ZM180.14,313.35c-1.2-2.77,2.94-16.78-1.4-15.88-.36,5.6-.16,10.28,0,15.88h1.4ZM182.95,297.94c-.33.06-1.87-.09-1.87,0v17.05c0,.1,1.14,1.34,1.63,1.17.17.01.24-1,.24-1.17v-17.05ZM183.88,298.41v22.42c0,.07,1.05.1,1.4.47-.16-2.8,1.3-22.09.47-22.88-.12-.11-1.41.08-1.87,0ZM188.08,322.69c.08-7.47-.32-14.76.49-22.2-.31-2.25-1.69-2.97-1.91,0-.27,2.81-1.25,22.75,1.42,22.2ZM178.74,323.39c-.34-1.32,0-5.29,0-7,0-2.2-4.91-7.13-7.13-6.71-1.3.25-3.95,3.39-6.01,4.32-3.55,1.84-10.47.23-10.35,4.37-.28.45-2.76,1.04-1.45,2.45,3.68,1.15,8.85.96,11.85,2.8-3.15.33-6.6-1.06-9.69-1.74-1.7-.38-3.67.64-3.38-2.2.03-.28,2.09-5.02,2.33-5.17.72-.42,2.21.21,1.86-.92-.38-1.26-2.47-4.1-3.2-5.67-2.05-10.81-8.75-.88-17.13-5.29-2.56-.9-3.21-3.27-5.6-.5-1.19,2.65-3.69,3.99-4.89,6.54l.93.47c-2.24-.31-3.31,3.14-3.28,4.92.04,2.42,2.6,4.09,3.62,6.18.73,1.49,1,5.43,3.17,5.23.85-.08.44-.85.36-1.27-.56-2.85-3.61-5.87-3.86-8.99,2.4,2.59,4.13,6.72,4.76,10.17,4.5.96,10.1,2.15,14.57,2.41,1.18-.29.4-2.66-.16-3.05-.34-.23-7.06.53-8.2.74-1.06-1.32,3.12-2.27,4.25-2.29s2.43.85,3.45.19c-2.46-1.44-6.66-.63-8.87-2.57,3.95.39,7.84,1.74,11.85,1.33,1.49-2.74,1.84-6.28,5.2-7.87l-2.84,7.9c-1.14,1.98-5.35,2.74-.66,3.78l-.93,2.33c11.99,1.81,24.11,4.66,36.18,1.39,2.49-.5.32-1.64-.1-2.67-.79-1.96-2.27-4.14-2.67-5.27-.51-1.44.23-3.71-1.18-4.43-2.99-1.52-1.58,5.41-1.88,6.78-.29.02-.89-.54-.93-.7ZM190.89,324.09c.42-.47-1.03-20.42.93-19.61.14,3.53-.73,20.49,1.4,23.35.4-7.47.61-14.92.48-22.41,2.51,1.51-.46,19.52,1.63,21.48,1,.02.64-6.22.71-7.24,1.09-5.07.18-10.47.47-15.65,1.89-.18.55,18.89.93,19.84,0,.47-.8,2.31.46,2.57-.2-2.07.28-5.97.94-7.94v7.47c.4.2,1.4-.4,1.4-.7.39-.45-.99-22.3.93-21.25v20.78c0,.25,1.02.96,1.4.7.9-.64.36-16.35.45-18.93.11-2.96,2.19-5.37-1.69-5.77-4.24-.44-3.67,3.8-7.88,3.72-2.38-.05-2.35-2.7-3.95-3.77-1.2,7.42-.14,15.08.08,22.57l1.32.78ZM203.97,325.03c3.6-.73,1.22-16.2,1.85-19.87.06-2.14,1.76-4.24-1.85-3.95v23.82ZM101.67,306.81c1.19.29.14,2.72.47,3.74,2.72-2.12,5.9-1.99,8.4,0v-2.8c.16,3.89,5.84,9.77,5.65,2.09-.07-2.62-.92-5.41-.51-8.16-5.02,6.73-10.39,1.69-9.34,6.54l-1.17-2.33-.7,2.8c-1.18-.48-.16-2.99-2.8-2.8-.02.31,0,.62,0,.93-4.17-3.97-1.19,2.98-1.87,5.13,2.61-.23,1.8-3.28,1.87-5.13ZM209.58,323.16c4.04,1.21.66-16.73,2.35-19.84-.33-1.76-3.67-1.25-5.15-1.64v22.88c3.87-2.45,1.07-10.16,1.85-14.26,0,0,.95-7.22.95-7.22v20.08ZM212.38,322.69c4.29-1.95.78-14.38,2.78-18.96-.02-1.44-1.83-1.14-2.78-1.12v20.08ZM217.52,303.08c-.12-.11-1.41.08-1.86,0l-.47,18.68c1.12.13,1.66-.01,1.87-1.17-.71-2.21,1.1-16.91.47-17.51ZM217.98,304.71c-.77,4.83.57,11.53,0,16.58,4.21,1.67.08-15.93,2.8-16.81-.13,5.29.39,10.65-.46,15.87.91,0,2.38.31,2.74-.76l.53-15.58c-1.86.65-5.24-1.6-5.61.7ZM224.06,304.48v14.94c4.52,1.26,1.68-12.06,2.81-14.95h-2.81ZM99.33,313.82c.28-.27-.32-6.96-.54-7.63s-1.52-1.31-2.26-1.24c-.07.79.21,10.1,2.8,8.87ZM227.33,305.65c-.83,2.68.62,9.65,0,12.84,2.46-.04,2.02-10.82,3.28-13.3-.02-.49-2.99-.46-3.28.46ZM163.8,305.41h-1.4v7.24c2.15,3.18,1.23-6.74,1.4-7.24ZM90.44,305.89c-.13-.13-1.4.07-1.85,0-.31.3.77,7.85,1.17,8.41.46.66.94.49,1.63.47-.39-1.24-.63-8.55-.95-8.86ZM234.33,305.88c-.5.08-1.54-.18-1.82.05-.52.44-2.14,10.6-2.85,12.08,5,1.3,3.08-9.11,4.67-12.13ZM236.67,316.15c3.28-.69,1.34-6.55,2.68-9.13-.2-1.14-3.38-.54-4.28-.71l-1.6,10.09c2.4,2.04,2.41-2.35,2.32-4.17l.88-3.56v7.47ZM87.6,306.87c-.29-.24-1.3.03-1.81-.06l1.4,9.34c.3-.19,1.27-.49,1.32-.55.42-.63-.55-8.45-.91-8.73ZM242.28,306.82c-.52.08-2.18-.15-2.33,0-.29.3-.75,8.09-.47,8.4,3.91-.26,1.7-5.56,2.8-8.4ZM85.78,318.02c-1.08-3.58.46-7.29-1.16-10.73-4.81,1.65-1.79,1.74-1.37,3.21.12.44.83,9.4,2.53,7.52ZM244.08,314.22c.3-.2,1.43-5.78,1.34-6.26-.15-.82-2.5-.86-2.68-.68-.25.25.36,5.87-.47,7,.53-.07,1.44.19,1.8-.06ZM245.55,313.82c3.23-.18,4.79-7.25.46-6.07l-.46,6.07ZM250.73,311.53c.19-.12,2.44.32,4.37-.53,4.17-1.84-4.5-2.19-5.82-2.79.28.92-.87,4.26-.47,4.67.99,1.02,1.81-1.28,1.91-1.35ZM78.77,309.15c-.45.08-1.75-.11-1.86,0-.29.28.64,7.67.93,7.94.1.09,1.02-.06,1.4,0l-.47-7.94ZM106.34,318.02c1.65-2.24,4.4-2.31,7-2.81-.65-2.75-5.94-5.23-8.42-4.46-2.99.93-4.24,4.77-5.09,5.16-.55.24-2.83-.58-3.76-.22,2.28,2.51,7.05,2.03,10.27,2.33-1.51.89-3.15.98-4.2,2.8l5.14.47c-1.16-1.96,1.46-2.47,2.33-3.73-1.13.09-2.11.44-3.27.46ZM122.22,311.95c-2.13-.19-5.95,1.14-4.67,3.72-.25.25-3.48.47-3.73,1.41,1.51.09,3.75.9,4.41-.88.66.05,3.49,1.4,3.99.89v-5.14ZM213.31,341.6c.9,4.15-.77,10.94.5,15.16,23.63-5.06,47.19-13.77,69.27-23.4,1.61-.79,4.68-1.9,5.23-3.65.59-1.89.34-12.25-.5-14.03-.29-.61-.97-1.05-1.63-.76l-74.74,22.71c.57,1.17,1.68,2.68,1.87,3.96ZM100.73,320.35c-.2-3.25-.93-1.79-2.93-2.44-3.51-1.14-7.07-3.49-10.15.34,4.14,1.37,8.76,1.31,13.08,2.09ZM116.15,321.76c-.99-6.65-6.11-4.74-8.41,0l19.62,2.8c-1.12-2.56-1.61-3.86-4.67-2.8.61-.97,3.02-1.58.92-2.55s-5.11.98-6.07.46c-.72-.39-.27-.96.3-1.11,1.07-.29,2.88.6,2.5-.99-7.52,0-.35,3.76-4.2,4.2ZM293.19,320.82c-3.47-.9-3.15,2.88-2.83,5.39.27,2.09,1.19,1.33,2.83,2.08v-7.47ZM187.94,327.51c1.22.91.96,2.08,3.41.08-.08-1.32-4.64-3.56-5.13-3.04-.48,2.83.57,2.1,1.71,2.95ZM60.56,335.3c-.18-.18-4.44-.44-5.15-.23,1.4,2.35,1.84,11.71,2.92,13.2.15.21,3.87,2.18,4.57,2.44-1.69-1.95-1.78-14.86-2.33-15.41ZM211.91,356.31v-13.78c-.34-4.32-3.57-5.42-7.47-5.84-.11,4.04.6,13.15,1.75,16.69.9,2.16,3.72,2.44,5.72,2.92ZM96.52,355.38c-1.12-2.16-.92-13.1-1.6-14.04-.36-.5-5.12-1.17-5.4-.9,1.09,2.36,1.42,11.52,2.44,12.96.23.32,3.79,1.6,4.56,1.98ZM124.55,361.45c-1.45-5.05-1.28-10.25-1.6-15.44l-5.87-.9,2.57,13.54,4.9,2.8ZM152.11,365.19c-1.41-3.38-.09-11.09-.99-13.72-.41-1.21-3.94-.95-5.07-1.69l1.49,12.29c.34,1.16,3.52,2.33,4.58,3.12Z"/>
  <path d="M111.01,213.42c-14.68,9.89-37.38,20.7-42.51,39.22,1.63-21.42,25.71-31.01,42.51-39.22Z"/>
  <path d="M93.26,215.75c-13.01,9.14-28.48,17.7-33.16,34.08,1.02-17.74,19.05-27.19,33.16-34.08Z"/>
  <path d="M396.9,290.01c.11.85-1,.4-1.5.34-13.74-3.64-27.51.39-40.53,5.26-.23-1.22.23-.82.93-1.15,13.11-4.64,27.37-9.71,41.11-4.45Z"/>
  <path d="M316.08,442.24c-1.77-1.61-.72-5.33-.93-7.7-.38-9.09-6.34-20.6-3.5-28.72-.77,11.92,5.61,24,4.43,36.42Z"/>
  <path d="M336.17,294.67v1.4c-8.58-.27-18.04-2.52-25.69-5.13,8.59-.22,17.01,5.32,25.69,3.73Z"/>
  <path d="M381.02,301.68c-.02.78.3,1.01-.6.84-6.36-1.19-12.44-4.04-19.03-4.34l-4.19-1.64c8.08,1.19,15.97,2.97,23.82,5.14Z"/>
  <path d="M346.91,298.41c-6.82,3.65-16.27,2.16-23.82,4.66,6.46-3.49,16.36-3.08,23.82-4.66Z"/>
  <path d="M401.57,401.14c-7.58-1.51-15.08-6.48-17.75-14,4.14,6.91,10.62,10.99,17.75,14Z"/>
  <path d="M284.31,401.15c3.09,5.88,9.77,11.25,13.08,16.81-1.97-1.45-16.07-16.61-13.08-16.81Z"/>
  <path d="M405.78,423.56c-5.04-3.56-11.68-9.18-14.94-14.47,4.92,4.93,9.72,9.86,14.94,14.47Z"/>
  <path d="M312.11,279.26c2.31.27,6.2,1.79,8.17,3.04-3.65-.56-11.02-2.62-14.95-3.04,2.16.18,4.66-.25,6.77,0Z"/>
  <path d="M333.37,287.2c-4.53-2.01-8.25-6.22-12.15-9.33,4.45,2.01,8.81,5.8,12.15,9.33Z"/>
  <path d="M382.41,386.67c-1.76-1.92-3.21-4.97-3.73-7.47.77,1.34,3.74,5.9,3.73,7.47Z"/>
  <path d="M333.84,293.73c-2.45-1.04-5.62-1.75-7.47-3.73,2.43.83,5.92,1.65,7.47,3.73Z"/>
  <path d="M375.41,273.19c-2.35.73-7.79,1.26-10.27,1.39,2.49-.72,7.7-1.68,10.27-1.39Z"/>
  <path d="M352.52,147.1c10.44-9.21,16.43-9.1,21.48-24.28-.93,11.52-12.45,19.12-21.48,24.28Z"/>
  <path d="M263.3,109.51c.02-.19.43-1.81.93-1.63-.76,7.85.53,15.98,2.58,23.34-4.06-6.08-3.9-14.89-3.51-21.71Z"/>
  <path d="M377.75,150.37c-5.49-1.5-11.09-2.45-16.72-1.06-.52.05-1.59.55-1.5-.33,5.61-1.12,13.44-2.23,18.22,1.39Z"/>
  <path d="M326.83,108.81c.38.46-5.05,9.31-6.07,10.27.49-1.3,5.09-11.42,6.07-10.27Z"/>
  <path d="M352.52,222.76c22.42,11.72,40.07,3.95,40.64-22.42,3.38,25.58-20.78,36.43-40.64,22.42Z"/>
  <path d="M344.58,239.11c-13.41-1.43-27.08-17.07-33.63-28.96,9.22,11.86,18.83,23.9,33.63,28.96Z"/>
  <path d="M388.96,240.51c-8.93,7.22-21.46,5.54-31.76,2.33-.11-.84,1.01-.42,1.51-.35,10.12,3.09,20.76,3.14,30.25-1.98Z"/>
  <path d="M399.23,233.03c-.81.11-.44-1.06-.46-1.63-.12-3.21-.33-6.38-.46-9.58l1.41,6.8-.49,4.41Z"/>
  <path d="M282.45,309.62c1,.83-1.97,1.53-2.32,1.64-30.57,8.61-61.84,17.65-92.68,25.04-5.52,1.22-10.73,2.1-16.43,1.83-31.07-5.09-62.45-9.48-93.17-15.67,121.57,19.52,85.73,19.37,204.6-12.84Z"/>
  <path d="M75.5,321.76c-19.53-1.33-39.45-5.56-58.94-8.56-1.95-.67-9.96-.97-9.72-3.12,22.57,5.29,45.88,7.33,68.66,11.68Z"/>
  <path d="M291.32,72.85c-3.03,9.13-11.7,16.13-20.55,9.1,5.54-.42,10.73-2.64,15.38-5.64.98-.63,4.47-4.13,5.17-3.46ZM287.59,77.06l-11.67,5.36c4.17,3.99,10.16-1.03,11.67-5.36Z"/>
  <path d="M287.58,46.7c-3.15-2.84-11.93,3.39-13.33,3.23-.53-.06-1.22-3.41-1.15.51-2.06-.98-.26-2.51.97-3.47,2.95-2.33,11.84-4.7,13.51-.27Z"/>
  <path d="M288.06,53.24c-.42,1.74-3.08-.09-3.74.47,2.22,4.76-3.36,6.8-4.21,1.87l-2.33,2.33c.75-5.02,6.05-5.88,10.27-4.66Z"/>
  <path d="M269.95,74.14c.55.55,2.75.93,3.62,1.05-1.11,2.02-4.39.33-4.93-1.38-.06-4.62.69-10.81-1.6-15.43,4.48,3.25,1.58,11.75,2.91,15.77Z"/>
  <path d="M312.81,46.7c-1.21-1.05-2.59-4.11-4.08-1.04-2.25,4.94,1.37,6.09-.12,10.85,3.61-1.21-.24,2.35-.87-.28,1-3.93,1.12-2.61-1.02-6.05-.16-1.16,1.13-5.38,2.02-6.14,1.8-1.54,4.1.65,4.06,2.66Z"/>
  <path d="M268.43,14.95c-5.32-.02-10.44,0-15.41,2.32,4.2-3.65,10.27-3.74,15.41-2.32Z"/>
  <path d="M267.97,25.22c-1.42,2-10.23-.41-14.01.92,3.76-2.5,9.45-.59,14.01-.92Z"/>
  <path d="M291.32,13.08c-6.08,1.75-9.86,8.78-16.81,7.46l5.09-1.21,7.05-4.39c-.93-1.64-4.29.83-5.83.94.73-2.45,7.97-2.67,10.5-2.8Z"/>
  <path d="M307.2,22.88l-3.27-5.83-4.2-3.03c4.46-.07,6.84,5.04,7.47,8.87Z"/>
  <path d="M290.86,11.2c-4.14-2.21-7.29-.02-11.01.44-2.2.27-4.22-.7-6.27.5,0-2.54,5.19-.72,6.28-.95,2.92-.66,8.43-3.69,11,.01Z"/>
  <path d="M302.53,46.7c-.95-2.49-2.24-7.61-2.33-10.27.47,1.76,2.66,8.51,2.33,10.27Z"/>
  <path d="M293.66,74.25l-1.87-2.09-3.73-1.64c2.83-.38,5.58.49,5.6,3.73Z"/>
  <path d="M286.19,85.93c-1.67,2.39-4.74,3.06-7.47,2.33.42-.83,2.25-.42,3.29-.67,1.54-.38,2.73-1.21,4.18-1.65Z"/>
  <path d="M294.12,10.27l-3.73-5.13c2.1.8,3.64,2.85,3.73,5.13Z"/>
  <path d="M255.82,27.09c-4.72,2-6.5,7.72-11.68,8.86,1.07-1.37,2.89-1.82,4.21-3.02,2.26-2.05,3.69-5.8,7.46-5.84Z"/>
  <path d="M355.79,193.33c-.1-.82,1.06-.44,1.63-.47,4.88.2,10.08-.76,14.72-1.64-3.15,3.12-12.45,1.89-16.35,2.1Z"/>
  <path d="M367.47,187.26l6.21-.09c1.59-.43,1.17-2.49,2.19-3.18.23,5.5-4.66,4.24-8.4,3.26Z"/>
  <path d="M216.58,193.81c-.05,2.08-15.55-1.5-15.88-2.8,5.49-.24,10.36,3.27,15.88,2.8Z"/>
  <path d="M187.62,228.83l1.39,2.58-.92.22c-.87,5.71,2.64,3.76,1.63,5.61-.4-.36-2.11-1.24-2.11-1.63v-6.77Z"/>
  <path d="M199.76,199.87c-1.78-1.66-2.9-4.7-3.73-7,1.81,1.71,3.32,4.53,3.73,7Z"/>
  <path d="M100.5,300.74c-.72-.21-7.63-1.59-6.3-2.8,3.76,1.96,9.82,2.79,14.28,1.9.93-.12.67.11.66.9-2.75-.23-5.95.32-8.64,0Z"/>
  <path d="M95.59,270.62c-1.41-1.47,2.09-3.31,2.8-1.17-.58-.19-2.33-.69-2.33.24.08,1.8.05,10.88-.47,12.37h-.46c.02-3.99.78-7.49.46-11.44Z"/>
  <path d="M95.12,295.6c-.81.11-.44-1.06-.46-1.63-.15-3.7.11-7.35.7-10.98.86,0-.7,11.5-.24,12.61Z"/>
  <path d="M111.94,285.33c-.81.11-.44-1.06-.46-1.63-.17-4,.42-7.94.7-11.92.88,0-.66,12.35-.24,13.55Z"/>
  <path d="M111.48,296.77c-1.65,1.83-.87-.33-.47-.93,0,0,0-9.11,0-9.11h.47c-.46,2.75.62,7.59,0,10.04Z"/>
  <polygon points="246.48 306.34 246.02 303.32 246.94 298.41 246.48 306.34"/>
  <polygon points="307.67 99.47 307.19 95.48 308.14 90.6 307.67 99.47"/>
  <path d="M147.45,304.95c-2.66,2.23-6.15,4.32-9.34,5.59,2.53-2.46,5.85-4.93,9.34-5.59Z"/>
  <path d="M171.26,244.7c-1.97-.34,3.34-13.78,4.67-14.47l-4.67,14.47Z"/>
  <path d="M172.21,327.83c-.48-.49,2.5-3.32,2.56-4.21l1.17-6.06c1.19,3.07-.65,9.38-3.73,10.27Z"/>
  <path d="M164.73,191.47c1.89.31,5.34,1.87,7.16,1.42.46-.11.99-2.49,1.95-2.83l.46,1.39,3.97-2.8c-2.72,4.47-9.17,6.79-13.54,2.81Z"/>
  <path d="M236.2,204.31c-.03-.53-.85-1.64-.46-2.57,1.78,1.3.83,4.78.92,6.74-.11,1.34,1.46,4.53.02,5.4-.5-3.3-.43-6.26-.47-9.57Z"/>
  <path d="M233.87,198.94c-.2.86-4.45,2.03-4.67,1.86,2.58-3.92.69-1.48,4.67-1.86Z"/>
  <path d="M149.23,162.87c.21-.17-.17-1.21,1.01-.82.03,1.23,2.06,2.02,1.18,3.26-2.45-3.29-8.53-2.69-11.91-5.13,1.55-.5,9.33,3.01,9.72,2.69Z"/>
  <path d="M183.82,204.95c-.15.23-4.07,1.67-4.6,2.86-.14-2.58,2.8-3,4.44-4.2.43.04.29,1.14.17,1.34Z"/>
  <path d="M174.54,265.72c.22-2.41-.19-4.31-1.87-6.07,1-.92,4.89,5.56,1.87,6.07Z"/>
  <path d="M230.02,233.1c-.36,21.32-32.09,21.32-32.45,0,.36-21.32,32.09-21.32,32.45,0ZM229.08,233.14c-.09-19.95-30.44-19.95-30.53,0,.09,19.95,30.44,19.95,30.53,0Z"/>
  <path d="M159.59,200.81l-4.66,4.67c.76-2.6,1.53-4.64,4.66-4.67Z"/>
  <path d="M216.11,229.29c.26.92-1.09,1.83-.93,2.56.2.9,2.59.45,2.8,1.64l-6.54,1.41c1.53-3.74.06-7.24.47-11.21,2.26,1.06-.34,11.33,4.19,5.6Z"/>
  <path d="M212.79,219.54c1.11,2.74-2.8,4.53-2.24.23.26-.92,2.04-.45,2.24-.23Z"/>
  <path d="M202.11,234.28c.03,1.78-2.78,1.78-2.75,0-.03-1.78,2.78-1.78,2.75,0Z"/>
</svg>