<?xml version="1.0" encoding="UTF-8"?>
<svg id="Layer_1" data-name="Layer 1" xmlns="http://www.w3.org/2000/svg" viewBox="0 0 625.25 414.03">
  <defs>
    <style>
      .cls-1 {
        fill: none;
      }

      .cls-1, .cls-2 {
        stroke: #231f20;
        stroke-miterlimit: 10;
        stroke-width: 3px;
      }

      .cls-2 {
        fill: #87c1e9;
      }
    </style>
  </defs>
  <polygon class="cls-1" points="229.75 1.64 43.09 317.64 55.09 376.31 216.42 412.31 385.75 78.98 369.75 24.31 229.75 1.64"/>
  <line class="cls-1" x1="51.09" y1="321.64" x2="181.75" y2="349.64"/>
  <line class="cls-1" x1="199.09" y1="349.64" x2="364.42" y2="34.98"/>
  <polyline class="cls-1" points="49.63 349.64 205.75 378.98 379.22 56.66"/>
  <line class="cls-1" x1="199.09" y1="361.64" x2="214.42" y2="404.31"/>
  <path class="cls-2" d="M3.34,114.28c36.91,43.94,147,82.33,336.02,114.75l34.72-52.37,17.07,2.35-.62,2.11c-1.3,4.42,1.15,9.07,5.53,10.49,56.99,18.41,125.41,31.62,202.85,40.72,8.07.95,15.92-3.44,19.11-10.91,3.84-8.99,5.81-18.83,5.74-29.58-.05-8.75-6.25-16.27-14.82-18.02-64.84-13.24-129.95-20.98-195.33-23.48-3.05-.12-5.99,1.14-8.03,3.4l-2.08,2.31C261.22,134.54,126.44,119.42,3.34,114.28Z"/>
  <path class="cls-1" d="M11.95,114.79c76.32,54.74,196.06,84.91,333.07,105.68"/>
  <path class="cls-1" d="M403.5,156.06c-4.12,4.21-8.24,11.86-12.36,22.95"/>
  <path class="cls-1" d="M608.93,173.82c-15.97,11.01-20.66,32.4-21.76,57.09"/>
  <path class="cls-1" d="M608.93,184.17c-8.01,13.74-11.34,26.49-10.88,38.42"/>
  <path class="cls-1" d="M418.06,150.53c-10.56,11.95-16.37,25.55-14.56,41.78"/>
</svg>