<?xml version="1.0" encoding="UTF-8"?>
<svg id="Layer_1" data-name="Layer 1" xmlns="http://www.w3.org/2000/svg" viewBox="0 0 448.59 426.22">
  <path d="M383.84,65.98c5.67,1.49,11.65-1.97,11.07-8.3,6.9,12.57-10.33,23.16-21.21,16.14,1.93,4.53,7.65,6.94,12.57,5.89,1.95-.4,2.73-2.24,4.49-2.66-13.33,21.98-41.68-2.53-42.44-21.21l-4.15,6.67c-2.51,3.71-8.06,4.07-6.36,9.61.35,1.16,1.61.8,1.76,1.69-2.87.17-2.84-3.43-2.77-5.53-.42.56-3.02,2.23-3.12,2.4-1.53,2.62,3.48,17,7.61,17.8,4.72-.99,15.14,4.6,19.34,6.47,22.3,14.8-.08,45.6,9.74,65.41.38,1.69-.35,4.3.32,5.67,5.19,3.68,5.72,7.46,8.14,12.61,1.88,3.19,7.55,6.88,7.75,11.63.22,5.42,1.75,6.22,3.6,11.15,9.1,28.06,4.07,61.97,11.28,90.16.26.91,1.86,1.65,2.32,2.76,1.95,9.19,10.51,16.33,14.27,25.84,3.81,8.62,5.32,17.3,7.89,26.23.72,2.48,2.57,9.79,3.65,11.57.69,1.14,2.48,1.25,3.54,2.92.55.87,3.65,7.61,3.92,8.55.32,1.1-.07,2.39.07,2.71.16.36,4.79,4.08,5.76,5.27,1.15,1.42,4.63,6.62,5.17,8.2,2.3,6.62-3.15,12.19-6.65,17.06-2.1,3.94-2.38,9.11-5.06,13.38-5.4,8.62-22.2,12.23-31.27,8.38-7.11-3.02-5.45-12.17-1.58-17.24,1.5-1.97,3.48-3.05,4.75-5.4,2.48-4.59,2.86-8.73,3.32-13.74.07-.78.83-2.09.79-2.36-.08-.54-2.43-1.28-3.14-2.28-1.59-2.85-4.62-9-4.24-12.36-9.25-22.2-22.13-43.46-35.03-63.65l-20.44-60.71c-4.8,10.98-9.9,21.87-14.61,32.88-2.39,5.98-8.3,15.32-6.38,21.25-.14,1.43-1.77,2.4-1.8,3.72,1.75,5.14,1.68,3.01-.06,8.3-.51,4.19.7,10.88.49,15.71-.62,15.07-6.27,28.93-9.6,43.45,2.13,5.11,1.76,15.27-2.34,19.29,2.44,5.56,3.4,12.77,4.08,18.83.45,4.24.44,6.5-3.69,8.3-5.65,2.47-12.54,1.7-18.54,2.67-14.16,2.28-23.63,7.69-38.89,2.19-5.87-2.12-7.16-4.58-5.61-10.72,2.21-8.73,8.86-7.04,15.54-9.36,3.58-1.24,12.13-7.43,14.56-10.34,1.66-1.99,1.08-5.35,5.27-4.65-3.01-2.99-.33-11.49.11-14.87,7.14-15.13,2.97-38.31,5.45-54.95.08-9.54-2.42-19.63,1.69-28.27,2.77-29.32,11.34-57.49,16.71-86.16-3.16-6.44-1.62-6.77-.57-12.91.08-1.7-1.22-6.09-1.29-7.77.49-5.42,1.68-9.08-2.55-14-.63-.15-2.22,1.06-3.61.87-1.2-.16-2-1.66-3.07-1.63-14.96,3.83-30.73,3.21-45.85,4.86-14.25,4.18-13.9-.12-26.06-4.15,8.29,21.86-1.67,50.58-28.32,49.38-17.95,5.66-37.21-1.28-54.24-6.73-20.15-6.25-28.28-24.51-21.22-44.27,7.72-21.59,27.66-32.49,46.88-42.57.88-.46,3.73-1.29,3.86-1.45-1.22-2.61.04-3.89,2.3-5.98-7.1,2.09-7.47-6.23-7.43-11.01-.21-.32-5.29-2.45-6.66-3.72-2.58-2.4-4.66-7.8-2.71-11.05,1.39-2.32,6.31-2.84,6.64-3.29.5-.68-2.7-6,2.79-8.04,2.7-1,4.23-.07,5.7-.34,1.21-.22,2.22-3.39,5.21-3.43,4.12-.06,4.02,4.52,6.4,4.92,3.18.54,3.17-3.59,7.71-2.66s2.99,4.44,4.13,5.78c.8.94,4.53.28,5.32,4.13,1.4,6.8-4.49,8.54-9.11,11.42l4.93,4.75c13.51,1.97,28.26,1,41.64,2.16,2.48-3.41,6.37-1.36,9.49-1.21,3.31-.96,2.77-1.99,6.35-.49,2.74-1.29,2.81-.9,5.54,0,2.24-1.81,5.95-1.49,8.78-1.81,4.41-.81,9.02-1.85,13.34-2.8,8.29-5.85,17.61-6.32,26.85-9.58l-2.09-5.08c-15.95,10.49-35.79-11.67-33.88-27.21-27.44-11.57-8.67-36.46,6.44-49.8,14.85-10.16,37.31-13.6,52.19-1.9.5.1,1.87-.92,3.17-.91,3.21.59,2.02,1.89,4.4-.61,10.03-6.03,23.11-1.27,29.22,8.08,10.91,16.7-2.46,36.76,6.07,47.88,2.11,2.75,2.91,2.92,5.96,1.4.58-.29,1.19-.42,1.15.24-.03.44-2.22,1.53-1.83,2.53ZM267.62,48.93c-.29-6.91.02-11.65,4.61-17.52-4.64,8.13-5.99,21.86,4.61,25.82-1.15-7.18-3.83-13.9-1.39-21.21-2.7,2.16-4.06,5.8-3.69,9.22-.8.11-.44-1.05-.46-1.61-.18-5.34,2.42-8.86,6.22-12.23,1.84-1.64,10.42-7.21,11.08-8.29.54-.89-.07-2.02.46-2.76,9.62,14.25,25.48,20.71,40.98,25.84,10.84-9.95,14.48,12.95,4.23,17.51-.54.24-1.96.39-2.04.49-.3.34-.48,4,1.11,4.13,14.15-6.48,19.34-25.98,14.28-40.13,0,0-6.67-11.79-6.67-11.79-3.99-.21-8,1.24-11.99,1.63,2.35-.63,9.12-2.67,11.53-2.31-.45-2.14-1.52-1.03-2.88-1.48-2.57-.85-5.01-2.2-7.72-2.67.82-2.03,7.87,2.63,8.76,2.31-4.65-8.19-15.52-10.95-24.24-12-9.35,1.04-25.48,3.13-31.56,11.54,2.86-.46,7.1-.54,7.37,3.23-10.94-11.02-31.86,23.22-22.59,32.27ZM379.69,65.98c-11.8-9.77-3.69-24.54-4.62-37.1.1-15.33-18-30.56-31.8-20.29.83.6,2.46,3.02,3.37,2.94.68-.06,1.27-1.1,2.15-.86-3.23,2.39-1.28,2.28-.6,4.51,1.33,4.71,1.21,3.9-.7,7.62,10.14,14.85-3.55,34.21,9.14,47.8.05-2.02-2.06-6.98-.46-8.3.99,9.07,4.45,16.24,13.39,19.59,3.55,1.33,9.86,2.44,12.91-.22-7.92-.12-13.02-7.78-15.13-14.62-.96-2.15-3.04-4.39-2.85-7.05l5.21,9.54c6.87,5.8,19.19,6.38,23.83-2.4.23-.58-.08-.85-.68-.68-9.91,5.63-19.54-1.09-22.6-11.08-3.08-7.96-.59-11.43-.22-19.11.17-3.64-.34-7.25-.25-10.86,3.87,12.79-5.75,33.38,9.92,40.57ZM345.56,20.8c1.43,1.07,1.46-2.85,1.39-3.47-.74-3.38-5.02-10.5-9.23-8.51l5.45,6.76c.69.65,2.16,5.05,2.39,5.22ZM325.73,54.46c.18-2.31-2.57-7.48-4.18-8.97-1.37-1.27-7.66-2.79-9.98-3.86-8.7-4.02-15.42-10.8-22.05-17.49-9.27,7.21-14.8,8.71-12.68,22.02.9-.24,1.09-1.34,1.73-1.85,2.21-1.76,7.81-2.72,6.51,1.34-3.37-.26-5.59.17-8.29,2.17,4.05,10.8.17,20.07,8.35,29.44,13.84,15.99,25.76,9.48,39.18-2.98-1.4,3.52-8.49,9.27-11.99,11.07,1.95,3.63,3.99,7.76,3.69,11.98l-1.61-3.68c-1.21.52-4.29,5.87-3.9,7.09.32,1.01,1.85.28,1.82,1.2-2.89-.89-3.02,2.13-3.22,4.39-.35,4.01-.46,10.86,4.47,12.11,3.63.92,1.97-1.63,4.06-3.59.85.71-2.16,3.44-.46,3.69,6.09-.86,17.35-12.8,18.2-17.98-2.32-.36-9.18,3.6-10.14,1.39,3.57-.61,6.96-1.92,10.61-2.08l4.94-8.77c-9.15-6.26-9.41-17.37-10.02-27.43-1.84.5-1.46,3.37-2.76,4.15.17-1.14.9-4.38,1.6-5.08.77-.78,2.75-.15,4.37-1.16,4.4-2.73,7.23-15.12,1.13-15.88-6.22-.43-5.56,8.39-8.95,11.52-.49-1.61,3.62-9.58,3.22-10.13l-5.99-1.38c.21,1.26,1.88,2.14,2.2,3.1s1.41,5.24.11,5.66ZM185.65,83.37c-1.08-.97-1.65-4.29-3.6-4.49-2.36-.24-3.79,3.28-5.16,3.64-1.44.37-2.58-.95-5.2.29-4.67,2.21,0,7.99.46,7.15l.23-1.39c.89,2.2,3.21,1.37,3.4,1.46,2.23,4.04,3.51,1.15,5.87-.54,2.48-.12,5.57,3.07,8.72,3.13,2.29-.24,4.24-1.15,6.06.97.75.14,2.64-1.98,2.91-1.79-.24,1.66,1.85.1,1.4,1.82-3.15,1.25-6.48,2.61-7.83,6,2.65.52,18.51-11.8,5.08-12.92-.2-.2.01-4.39-1.85-5.29-3.18-1.53-4.31,1.57-6.23,3s-4.38,2.29-6,4.15c-.56-1.33,1.43-1.65,1.63-2.99.18-1.15-1.07-.29-.94-1.15h2.76c.01-.81-1.13-.54-1.72-1.06ZM169.84,91.33c.14-.21-.44-.9-1.06-.84-.35.03-5.27,1.83-5.44,2.06-.96,1.31.58,6.94,1.39,8.27.54.88,5.56,4.12,6.49,3.42-.61-2.38-7.92-9.46-5.76-11.06l3.72,5.95c1.06.57,3.32,4.2,3.88,4.45.44.21,1.65-1.37,2.77-.27.08-1.2-1.13-1.33-1.37-2.54-.08-.42-.37-2.56.45-2.52,0,1.91,2.09,6.76,3.83,7.48.96.4,2.11-.43,2.78.94,1.73,3.34-.15,6.43-1.05,8.87-.04,2.01,1.95,4.17,4.13,3.93l.46-1.38,1.39,1.38.92-5.07-.45,5.07c1.16,1.53,3.97-7.97,3.5-9.69-.11-.39-3.21-5.19-3.5-5.33-.68-.32-4.02,4.04-6.41-.51-1.48-2.82,4.83-5.44,6.96-5.84,5.57.48,3.01,3.07,8.2-3.31,0-1.41-4.82-1.18-4.61.69h-.45c.07-1.56-2.21-1.05-3.33-1.52-1.27-.53-1.8-1.54-3.35-1.73-4.09-.51-4.51,2.1-5.61,2.3-.72.13-1.7-1.51-2.6-1.92-2.91-1.32-5.74.19-8.64.56.04-.8,2.67-1.71,2.76-1.85ZM346.94,92.73c.27-1.35-3.46-2.07-4.61-2.31-2.94,11.19-16.73,34.65-30.76,29.14-7.64-4.55-3.86-17.98-.61-24.31.36-1.19-1.58-.6-2.02-.27-4.58,10.19-5.92,33.44,12.29,26.21,11.31-4.37,17.27-18.54,23.85-27.8.49-.79,1.23-.52,1.86-.67-8.51,8.78-14.91,28.71-29.34,30.38-16.19,1.93-13.35-17.87-9.4-27.61-2.02-.15-4.01.15-5.31,1.84-.39.17-.05-.82-.52-.94-2.08-.52-11.53,3.57-13.09,5.31-1.27,1.42-3.2,7.71-2.3,1.16-4.84.04-9.38,2.28-14.18,3.11-2.34.47-7.27-.72-7.96,2.42-.23.17-3.11-3.19-5.06-1.38-.46.65,1.77,3.61,2.08,4.6,3.82,13.9-6.26,20.63,5.51,17.51,8.29,1.15,16.49-1.09,24.7-2.05,4.15-5.67,4.72-12.44,6-19.14,1.75.41-1.19,4.34.45,5.07.47-1.29,1.74-7.18,2.77-7.37-.8,3.4-1.22,7.17-2.17,10.5-2.47,8.6-8.42,15.28-5.33,24.9,1.44,5.73,4.26,3.28,8.3,2.05,1.48-.72,2.34-2.6,4.26-3.11,5.28-.35,1.76.09,5.11-3.2,3.88-1.53,2.52.38,4.81-3.49,7.17-3.91,14.37-11.39,19.6-17.75,2.85-3.56,4.39-8.83,8.31-11.28.61.64-3.85,4.89-3,5.99l3.92-3.22c.64.69-5.12,6.16-5.77,6.91-4.87,5.67-9.92,12.25-15.66,17.07-4.15,3.48-9.34,4.4-7.16,11.52-1.97-.45-.71-4.4-.92-4.61-3.14-.51-3.6,1.1-5.01,3.57-.3,1.17,1.15,1.82,1.7,2.73,2.31,3.75,4.36,8.37,5.95,12.49,1.15,3,.45,5.87,4.76,4.52,1.64-.51,2.98-3.2,4.13-3.7,1.49-.66,3.54.1,5.19-1.6.87-.89.61-2.15,1.72-3.02,10.92-3.74,28.28-20.51,32.76-30.88,3.6-9.16,1.34-23.53-9.81-25.62-1.85-2.35-7.2-4.11-10.04-3.68ZM196.13,112.08c-5.72,0-2.83-1.68-5.35,5.51-.35,2.06,5.59-.2,6.79-.19,7.01.09,21.47,5.4,29.37,6.99,4.58.92,10.47,2.27,15.06,2.47,3.43.15,3.66-1.83,4.27-4.99.57-2.97.63-11.02-2.9-12.06-10.61-2.54-34.72.72-43.99-3.51-3.53-2.18-4.03-5.41-9.68-6.46-2.1-.39-8.14.72-8.16,3.24-.03,3.41,3.77.31,4.7.24,4.69-.35,4.74,6.82,7.59,8.05.86.37,2.24-.14,2.3.69ZM177.68,106.56l-4.62-.73-.44,3.49c2.73-.58,5.4.72,7.83,1.84l-.69-3.22c-.73,3.18-.91.65-1.9.08-.77-.45-2.04-.51-2.94-.54-.46-2.11,2.33.55,2.77-.91ZM245.02,129.61c2.61.2,5.52-.26,8.08-.01,2.43.23,4.02,2.34,6.14-1.21,2.38-3.98,2.93-18.98-1.78-21.13-2.46-1.13-3.05.82-3.89.96-1.35.22-7.64-1.53-8.56-.73,5.16,6.57,4.11,15.23,0,22.13ZM178.61,111.17c-1.85-.55-3.55-1.21-5.53-.93-1.51,4.84,6.25,1.85,5.53.93ZM179.99,112.55c-.2-.21-5.29,1.45-5.52,1.62-1.79,1.33.93,2.53,2.45,2.01.66-.23.79-1.16,1.26-1.54s2.87-.97,1.82-2.09ZM242.16,128.79c-14.96-.37-29.8-6.46-44.48-9.29-5.17.21-4.67.67-5.19,5.43,9.2,7.05,17.48,15.4,24.86,24.3,19.45-2.85,20,6.81,34.36,9.46,13.33-1.36,28.21-7.11,41.3-10.49,1.12-2.48-.71-4.05-1.37-6.4-1.27-4.5-.83-8.11-.03-12.65-7.65,1.6-16.03,3.21-23.75,1.93-3.03.69-4.77,1.28-7.84.1-3.24,1.68-4.73,1.24-8.37.45-3.2.12-7.88,1.21-9.48-2.83ZM177.79,123.04c1.49,1.35,13.22,1.85,13.27-1.02.06-3.13-3.58-1.12-5.77-1.14-1.63-.01-5.28-1.06-6.4-.85-.97.18-2,2.2-1.1,3.01ZM364.93,160.03l2.53-35.5c-7.28,14.24-21.43,23.4-33.67,32.73-2.17,1.98-4.28,1.32-5.9,2.28-2.44,3.7-4.02,3.13-7.8,4.18-1.75,3.51-7.03,3.32-10.5,4.61,1.78,2.67,2.21,5.27,4.38,7.84,1.74,2.06,1.83,1.41,3.27,4.11.34.64,1.71,1.28.89,1.88l-5.3-5.07c.18,4.96-1.89,7.98,3.68,10.38.16.41-1.03.07-.92.45.58,2.12,3.08,5.55,5.53,5.78-.41,1.31-3.55-.97-3.93-1.38-.81-.88-2.31-5.83-3.67-5.54-1.54,1.28-.19,3.15-.26,4.77-.15,3.3-3.09,8.47,1.27,10.34,19.59,7.02,51.51,3.02,68.62-9.12,3.75-3.95-4.32-9.87-6.15-12.75-1.38-2.17-1.88-5.21-3.39-7.67-1.78-2.9-5.16-4.45-4.99-7.7l-1.05,5.63-.78,1.28c-.27-4.99,2.87-10.48-.7-14.75l-1.15,3.22ZM177.68,125c-22.85,10.82-51.3,26.5-53.03,55.09-.44,9.87,4.65,20.89,13.83,25.12-8.72-12.14-11.55-30.66-2.31-43.33-7.95,13.48-5.88,29.64,2.83,42.09,3.75,5.77,8.84,6.02,15.16,7.24l-5.45-6.3c-.35-1.84-5.11-7.3-3.32-8.44,2.12,6.05,8.77,15.23,14.76,17.75,19.72,6.63,47.07,7.16,59.03-13.14-2.56,7.02-9.51,11.95-16.13,14.76-.12.79,1.1.49,1.6.45,22.37-1.85,29.48-28.45,21.68-46.59-.57-.65-11.28,2.85-8.53-2.27-3.45-.13-5.4,1.03-5.77-3.22-.3-.49-1.33-.54-1.56-1.24s.38-1.6.11-2.34-1.34-.74-1.5-1.32.45-5.23,1.8-5.25l.24,2.31,4.37-1.4c-.21-.79-1.56-.47-2.48-.97-2.63-1.45-.29-3.97,2.02-3.64-5.92-9.99-17.31-16.63-24.67-25.35-1.14.37-.34.9,0,1.37,5.03,6.86,11.58,12.65,13.13,21.68-3.38-7.83-9.01-16.14-14.99-22.13-1.51.27,4.92,9.18,2.54,9.68-1.06-3.04-2.3-8.02-4.61-10.14,2.64,13.45,4.81,26.95,1.84,40.57-.83.1-.44-1.03-.4-1.55,2.21-12.74.37-26.31-3.52-38.55-1.18-.21-.58.91-.66,1.63-.33,2.91-.54,5.39-1.87,8.05-1.36.49,1.61-7.93.93-9.68-.42-.06-.59-.05-.93.22-4.98,14.15-19.94,24.32-21.67,40.35-.71-15.1,15.73-26.91,20.3-41.03-1.19-.92-8.31,6.05-9.72,7.1-6.67,5-14.08,8.74-19.79,15.02,5.94-9.55,19.19-14,26.74-22.59ZM317.32,164.08c2.4-4.27-5.73-18.85-8.68-21.78-1.21-.81-3.73.07-4.08,1.46-.3,1.19,2.96,4.33,2.26,6.13l-2.04-3.71c-.97-2.54-9.59.94-9.94,1.65,3.18,3.26,7.02,17.61,9.05,20.03,1.22.89,6.79-1.97,8.47-2.52,1.22-.39,4.08-.37,4.97-1.26ZM294.79,150.39c-11.69,1.63-33.76,11.51-46.19,9.98-11.86-4.65-20.2-13.71-34.48-8.63-.63,2.97,12.18,1.07,14.98,2.31.76.14.79-.29.69.91-2.93.3-5.47-.68-8.41-.34-1.15.22-15.51,3.16-9.45,5.3,9.28-1.75,7.34-3.48,18.32-1.73-.8,2.02-5.43-.22-7.57.49-3.5.43-7.69,2.34-11.33,2.73,1.04,3.83,3.22,1.6,5.34,1.42,5-.64,10.07-.64,14.95.43-.72,1.53-2.85.72-4.27,1.02-1.8.55-8.73,2.46-8.64,4.5,2.49.97,5.22-.62,7.66-.87,8.55-.88,13.56,6.23,21.14,4.99,10.4-3.93,23.38-2,34.61-3.66,6.25-.68,12.5-1.69,18.68-2.77l-6.03-16.1ZM222.88,164.19c-3.24-1.21-4.96-1.03-8.14-.05-.65.2-1.24-.36-1.09.74.4,2.95,5.96,1.04,7.75.36.58-.22,1.35-.3,1.48-1.05ZM398.14,295.12c1.03-3.41,1.35-6.79-.35-10.03-3.47-19.94-2.45-41.23-5.25-61.14-.95-6.79-5.26-10.32-6.29-16.77-.45-6.81,2.45-5.35-1.26-12.11-1.39-1.51-4.64,2.92-6.66,2.82,5.96,17.03,9.49,34.85,11.43,52.81,1.71,12.62.82,31.05,6.98,41.65-.78.79-.97-.61-1.15-.91-4.98-8.43-4.56-23.98-5.78-33.89-2.19-14.42-2.81-32.21-8.59-45.38-6.24,1.1-18.85,1.13-21.62-5.57,5.07,5.25,13.82,6.29,20.75,5.06.62-.11,1.31-.42,1.16-1.14-1.26-1.49-3.2-.27-4.82-.22-4.36.14-7.36-.1-11.27-2.15-1.67-.84-6.84-6.06-6.51-2.03-.84.12,0-.97-1.12-.96-5.48,1.06-11.66,1.79-17.3,2.37-1.02,1.05,3.75,23.86,5.14,24.78.42.28,1.53-.09,2,.52,6.75,24.04,15.29,49.16,23.85,72.53,1.13,4.49,5.25,6.75,8.19,9.8,0,0-2.07-1.15-2.07-1.15-.35-.07-.29.44-.22.68,8.5,17.05,22.89,35.58,28.72,54.28,3.52,9.53,15.81,2.83,21.48-1.1.82-1.41-6.32-13.57-5.46-16.52l6,15.21c.44.32,1.56-1.71,1.67-2.29.26-1.47-1-2.15.63-2.55-3.97-3.71-5.29-10.19-6.78-15.35-2.75-9.45-4.29-17.9-8.5-27-3.83-7.77-8.66-13.66-12.62-21.03l-2.54,1.83c2.32-2.62,2.52-8.39-1.84-5.07ZM370.23,209.37c2.56.43,7.29,0,10.15,0,.28,0,.65-.66.62-1.06-.04-.63-2.9-9.5-3.4-9.56l-15.44,5.55c-.67.87,7.17,4.92,8.07,5.07ZM391.21,216.74c.12-2.17-1.84-15.56-4.14-15.21-1.22,5.3,1.31,10.84,4.14,15.21ZM318.81,205.23l-4.61-1.39-1.39,5.99c.69.67,6.59-2.58,5.99-4.6ZM337.26,223.66c-3.94-1.79-3.98-15.4-5.04-16.4-2.26.43-8.29-1.59-9.91-1.16-.35.09-.76,3.21-2.11,3.26l1.38-3.69c-2.4-.51-1.64.76-2.55,1.82-1.75,2.02-3.94,3.22-6.67,3.25-.24,3.64,4.53.02,6.46.23-1.88,1.48-4.56,2.18-6.91,2.08-6.01,25.36-10,51.29-14.44,76.62-2.64,9.26-3.92,16.44,1.05,25.72-1.01.16-1.85-4.37-2.76-3.22-.48,20.27-1.76,40.48-3.71,60.65.72,5.29,13.56,6.02,17.7,5.3l1-3.25.46,3.23c.82-.39,4.77-1.89,4.88-2.6-2.43-8.12,4.18-19.54,5.83-28.19,1.41-6.14,2.62-12.45,2.9-18.77.15-6.81-1.73-14.31.92-20.24-.37-1.54-1.56-2.72-.92-4.41-.29-.22-3.79.13-4.15-.92.91.46,5.16-.98,5.46-1.45.84-1.34-1.47-3.55-.64-5l22.77-52.9-2.98-9.85c-9.3-2.84-17.77-8.23-26.91-11.48,7.61.93,13.81,6.03,20.99,8.29.13-2.39-1.99-4.53-2.08-6.91,2.6,2.9,1.75,8.44,7.38,8.3-.82-1.18-2.01-8.42-2.35-8.71-.46-.4-4.01.43-5.02-.51,0,.3-.02.61,0,.92ZM339.56,207.53h-5.99s2.36,13.55,2.36,13.55c1.07,1.9,4.09,1.71,5.95,1.66-.8-5.08-2.14-10.03-2.31-15.21ZM407.36,373.96c-.35,2.29,2.22,3.71,2.87,5.19.84,1.92-.2,3.6,2.62,4.29,7.59.79,21.81-3.92,22.15-12.91-1.69-2.53-1.97-5.97-4.13-8.1-.29,9.81-15.56,15.69-23.52,11.53ZM290.67,373.96c-1.46-1.04-1.02,6.28-1.06,6.63-.36,2.89-2.79,4.35.45,6.67,4.98,3.55,16.17,4.12,21.94,2.73,5.05-1.22,3-3.31,3.61-6.99.13-.78,2.2-6.3.65-6.25-5.49,5.07-21.96,4.69-25.6-2.77ZM407.36,406.69c3.96-1.49,13.66-.42,17.53,1.61,1.13.59,5.1,3.84,5.99,3.27,1.7-1.09,3.96-8.9,4.99-11.18,2.24-4.96,9.26-13.59,7.11-18.93-.9-2.24-4.92-5.27-6.34-7.49-.09.53-2.08,1.96-2.08,2.11,4.92,15.98-11.21,7.85-8.41,14.83,1.2,2.68,1.66-4,2.89-2.65.15.17-.97,4-1.63,4.15-3.96-3.17-7.96-3.04-12.67-1.85.36-.62-.21-4.92-1.16-3.24-.71,1.26.22,2.57.13,3.81-.17,2.33-2.14,7.93-3.19,10.19-.63,1.37-3.08,4.66-3.16,5.37-16.65,14.13,16.29,12.99,22.14,5.76-6.21-5.86-14.09-5.84-22.13-4.84,0-.3-.04-.62,0-.92ZM433.64,378.11c-.37-.35-4.22,3.14-4.92,3.6s-4.11,1.5-3.37,2.38c4.85,4.64,10.3-.18,8.29-5.98ZM440.57,398.39c3.03,1.8,8.76-11.08,3.69-14.75.35,5.77-4.06,10.21-6.33,15.12-3.41,7.36-2.99,13.21-11.35,17.23-6.71,3.23-18.07,4.52-24.29-.08-1.11,13.03,25.33,7.1,30.45,1.17,4.22-4.56,5.44-13.01,7.84-18.69ZM424.88,390.1c-.58-1.27,1.83-3.26,1.84-3.46,0-.15-1.73-1.85-2.15-1.98-1.43-.42-8.77.08-9.28,1.59-.25.74-.32,3.1.65,3.33,1.62-.04,6.87-1.07,8.95.52ZM294.83,395.63c.56-4.12-8.07-8.57-9.64-3.87-1.6,3.76,1.73.26,6.43,8.46l3.2-1.82c-4.43,5.79-4.78.02-6.89-2.11-.8-.8-4.35-2.8-4.64-1.13,2.83.15,4.71,2.35,5.99,4.61-2.51.09-2.3.1-3.76,1.55-2.47,2.44-2.04-.79.52-1.77-2.68-2.75-5.14-3.24-7.83-.24,2.55.27,4.98,1.61,5.99,4.15-1.02.94-5.2-6.21-7.38-2.77,2.07.25,4.42,1.49,4.15,3.69-2.04.33-.82-4.51-6.45-2.76,1.3,1.45,4.69,1.95,5.53,3.92.96,2.26-2-1-2.14-1.09-1.08-.74-3.02-1.54-4.32-1.9.66,1.55,3.82,2.21,4.38,3.68.38.99-.63,1.79-1.62,1.39,1.24-1.29-2.11-3.82-3.12-4.06-1.28-.32-2.85.69-3.79,1.53,2.95,2.04,6.64,4.07,8.06,7.61.47,1.17.68,4.37,1.37,4.49,8.54-1.05,17.41-4.13,25.78-5.49,1.09-.67,1.57-4.96,2.26-6.5.52-1.14,2.38-3.91,3.57-3.35-2.81,2.56-3.88,6.29-4.61,9.91,3.8-1.71,10.64-.58,10.64-6.22-.44-3.36-.79-10.18-3.26-12.93-6.01,3.2-3.56,9.57-12.83,7.32-1.92-.47-5.24-3.13-5.91-3.26-1.31-.26-2.96,1.39-4.33,1.27.88-1.56,2.89-2.37,4.61-2.3ZM310.51,392.4h-11.76c-.4,0-2.89-1.04-2.99-.92.63,1.25.15,3.69.69,4.61.97,1.65,5.45,2.96,7.4,2.8,3.72-.31,3.6-2.94,5.33-5.28.5-.67,1.34-.5,1.33-1.21ZM287.9,399.32c-.64-2.65-3.63-3.51-5.99-3.69-.26,1.33.38.74,1.01,1.04,1.72.83,3.37,1.62,4.98,2.65ZM277.76,417.29c-.43-5.8-4.66-9.72-9.56-11.89-.67-.14-8.81,1.97-9.82,2.44-2.01.94-4.56,3.66-2.28,5.52,4.74,3.87,15.77,3.94,21.66,3.93ZM316.96,409.46c-18.62,5.55-44.79,14.78-62.71,4.15-1.3,6.85,3.26,7.51,8.67,8.61,15.22,3.11,21.4-1.76,34.96-3.49,3.9-.5,17.99-.02,19.36-4.66.44-1.5-.6-3.05-.28-4.62Z"/>
  <path d="M25.95,264.69c-61.88,3.97,1.45-103.79,39.29-91.15,33.44,8.74,8.05,50.14-3.42,67.77-.61,1.31.58,2.16,1.47,1.94,5.31-4.12,3.78-10.52,14.17-4.94,1.63.93,1.28,2.41,3.59,2.41,2.75,0,3.96-5.05,8.47-5.3,3.21-.18,7.85,6.37,10.65,5.07,1.45-.67,2.62-3.69,4.9-3.92,2.74-.27,4.53,2.64,7.73,1.86.83-.2,1.5-6.44,4.58-7.95,1.62-.79,5.48-.79,6.97.14,1.35.84,1.3,3.18,2.13,3.87.97.81,3.22.42,4.63,1.82,1.26,1.26.98,4.62,2.08,4.86.55.12,2.17-1.18,3.23-1.34,4.32-.66,4.26,1.95,7,3.55,5.65,3.5,20.17,3.64,21.29,10.99.7,4.92,1.1,17.4-2.73,20.8l-3.63,56.8,12.38,2.79c4.84-11.9,18.65-18.41,30.47-20.95.51-.35.77-2.33,1.82-2.77-3.25-2.64-8.83-11.59-.67-10.84,4.39.57,7.43,1.17,10.49,4.26,3.09,1.28,4.94-1.34,7.6-1.85,1.41-.27,3.05.2,4.27-.35,2.57-1.16,4.32-7.74,9.14-6.38,4.17,1.17,1.88,5.94,1.49,8.91.84,1.19,13.14-.28,3.64,7.59-.65.54-3.46,2.02-3.57,2.2-.39.68.55,3.5-.49,4.71,9.26,4.02,11.95,12.98,18.63,19.63,27.36,29.28,20.35,63.63-23.74,61.8-.19.21.31,2.01-.78,2.22l-48.92,13.79c-3.5,1.19-23.31-6.33-26.87-7.26-.06,23.6-100.68,18.86-114.34,6.65-2.78-2.43-1.62-4.67-1.89-7.8-2.54-30.55-4.41-61.18-6.45-91.76-.87-13.09-.79-27.19-2.3-40.12-.23-1.96-2.32-3.55-2.32-4.6,0,0,0-7.15,0-7.15ZM24.11,261c-34.92,14.79,14.97-86.85,49.8-81.6-5.4-2.84-10.82.27-16.14,1.83l7.26-3.11,5.19-.12c-34.03-21.46-98.63,76.53-50.57,85.72,1.41-.03,7.38-.94,5.83-3.19-.46.18-.88.35-1.38.46,2.13-1.67,1.98-2.85,1.84-5.53-3.12,1.53-6.04,3.91-9.68,4.15,1.06,3.6,5.2,1.95,7.84,1.38ZM69.77,185.16c.14,3.34.31,7.6-.92,10.83-.4-3.23,2.62-14.28-2.77-13.82,5.16,21.85-14.43,48-28.13,63.61l19.83-3c11.23-15.75,28.36-41.6,18.68-61.08-.05,2.42,1.72,2.63,1.15,6.45-.8-4.46-4.36-8.42-9.22-6.45-.12.17,1.3,2.93,1.38,3.45ZM27.49,250.56c2.38-2.44,7.03-2.93,10.69-6.6,12.12-13,32.72-43.19,26.71-61.31-24.12,10.03-52.12,49.91-50.01,76.52.8.87,10.06-3.55,10.93-4.74.59-.81.52-2.67,1.67-3.86ZM123.61,232.54c-7.08-2.92-9.99,3.63-1.27,3.1l-2.76-.91,4.61-.47c.18-.21-.3-1.45-.58-1.72ZM117.26,235.66c-1.08-.68-3.62,4.51-3.71,5.76-.19,2.73,1.86,5.43,2.34,8.06,1.18.26.99-1.01,1.74-1.36,3.32-1.58,4.77.5,7.06,1.56,1.15.53,2.48.49,3.5,1.58,2.57-.55,3.92-4.26,3.81-6.58-.03-.53-1.97-6.15-2.25-6.5-1.13-1.39-3.98-1.27-5.32-2.51l.23,1.38c-2.16-.43-6.78,1.46-7.39-1.37ZM94.67,245.8c.13-.15,3.69-.34,3.69-1.16-1.88-1.69-6.32-7.1-8.9-7.03-3.45.1-8.85,7.29-8.15,10.94,2.61-.64,4.75,1.23,7.16.97,1.16-.13.79-1.91,2.53-1.42.02.78-1.24.77-1.38.93-.46,2.91,2.94-1.63,3.69-.93-4.33,3.83.92,3.67,2.54,7.83,3.1-2.42,6.51-2.79,10.26-4.03,1.66-.59,3.43-.66,5.18-.59l-1.84-.46c.58-2.14,4.12.52,4.59-1.19.44-1.58-4.1-5.87-2.75-8.49-3.03,1.19-9.09-2.53-9.59,2.18-.16,1.46,1.32,2.63-1.35,3.25-2.33.54-4.16-.32-5.9,2.4-1.9-2.48,1.76-.58.23-3.22ZM77.93,240.86c-.61-.54-5.29-2.23-6.21-2.35-3.79-.52-3.36,2.8-4.53,4.94-.61,1.11-3.74,4.6-2.94,5.56,7.45,1.56,4.81,4.05,9.21,6.47.38-1.5-1.49-3.07-1.32-4.27.29-2.07,5.47-5.24,5.47-5.64,0-.43-1.28-.6-1.37-.7-.66-2.6,3.64.89,2.76,1.85-.21.26-4.14.99-5.57,3.45-.83,1.43.96,3.85,2.11,3.97,1.32.14,6.37-2.6,8.54-1.88.57-3.33-3.64-.87-4.15-1.38.01-2.92.45-7.83-1.99-10ZM61.46,244.87c-7.23.34-26.68,2.13-32.96,7.85-2.2,3.4.45,14.64-.15,19.02,19.41,12.89,58.58,9.87,81.78,10.03,10.24-1.56,54.87.1,52.35-15.44,1.65-19.33-3.47-14.89-18.35-19.5-1.34-.56-5.44-5.39-6.41-5.57-.54-.1-3.88,1.69-4.12,2.23s.7.92.66,1.54c-.05.9-1.5,1.56-1.31,2.61,1.67-.02,3.06-.32,4.61-.92.01.37-.66.72-.22.91.61.27,3.85,1.85,4.07,1.81.59-.1,1.15-1.45,2-1.7,3.19-.96,4,.74,6.13,1.52,2.93,1.07,13.54,3.44,7.82,7.81-9.4,9.11-130.23,12.87-125.67-4.37,4.64-6.06,27.44-3.22,29.77-7.81ZM66.08,243.95c-.59.28-3.07.39-3.19.49-.16.14-.32,3.45-.96,4.11,2.07.47,1.09-1.09,1.89-2.48.58-1.01,1.8-1.12,2.26-2.12ZM141.25,252.7c.2-.27-.05-.96-.48-1.12-2.1-.28-4.2-2.48-6.26-2.56-1.76-.07-4.13,4.13-6.42,4.15-.72,0-3.61-3.2-3.91-.47h-.45c.57-3.42-5.96-4.19-6.46-2.06-.16.7,5.52,4.82,5.55,7.82,0,.95-.67,1.97-.47,3.01,8.87-.53,5.4-.37,11.76-5.53.22,2.13-3.09,2.97-3.92,4.6l18.79-2.65.98-.8c.07-.92-3.06-4.29-3.4-5.33-.29-.89.92-2.71-.9-2.75-1.45-.03-2.74,2.37-4.4,2.31l.92.68c-2.44,2.92-3.36,7.24-7.84,7.61.72-1.2,2.15-1.03,3.25-2.05,1.63-1.17,1.6-4.64,3.66-4.88ZM42.97,258.19c.2-.23,4.42-8.65,2.52-8.66-11.18,1.12-21.12,5.37-2.52,8.66ZM60.88,253.02c-.9.41-3.47.2-4.52-.05-2-.47-6.58-5.89-7.46-1.3-.79.82-2.55-.51-2.22,2.19.11.88,2.5,5.51,3.09,5.7,6.7.4,13.27,1.81,19.99,1.91-1.34-1.69,1.97-3.43,1.78-4.75-.1-.67-2.47-3.23-3.14-3.78-2.03-1.66-4.98-2.88-7.66-2.57-1.21.14.02,2.02-2.33-.39l-2.93,1.81c1.22.1,3.81.99,4.8.94.18,0,.97-1.79,3.03-.92-.06,1.24-2.29-.43-2.43,1.23ZM149.1,249.94c-.1,2.59.9,5.06,2.3,7.18,11.15-2.17,4.05-5.42-2.3-7.18ZM116.8,251.33c-4.44-.32-9.09,2.47-13.25,3.58-6.17.37-7.96,1.06-6.11,7.49l18.43-.47c.18-.84-.78-.29-.92-.46-.88-1.04,1.22-.87,1.63-1.36.27-.33-1.23-1.42,1.72-.84,5.93,2.76.55-6.18-1.86-6.48-2.17-.53-7.33,3.36-9.79,3.6,2.26-1.38,7.59-4.43,10.14-5.06ZM73.46,261.01c2.85,2.13,8.22.2,11.74,1.4,3.1.07,6.14-.38,9.24-.02,2.7-.53-.24-6.58-1.62-8.06-1.13-1.22-6.33-4.57-7.37-2.3-.43.95,1.39.76,1.38,1.6-4.69-1.1-13.79,1.6-14.76,6.92.78.37,3.11-1.05,3.22-.92.71.86-1.06,1.31-1.84,1.39ZM48.09,259.16l-1.61-2.75c-4.01,2.39-1.52,2.49,1.61,2.75ZM159.7,275.76c-41.61,10.48-87.79,11.84-129.13-.46l8.95,131.43c28.39,13.75,82.49,13.02,111.33.34l8.84-131.31ZM221.5,313.1c.19-1.6,2.28-2.66,3.23-3.92,1.67-2.22,3.05-4.97,4.84-7.14l-1.15,3.22c1.4-.79,3.56,1.04,4.5-.11.56-.69,2.26-6.73.74-7.22-3.27-1.06-6.15,5.5-8.58,6.53-1.53.65-3.87.5-5.53.93-3.68.96-4.11,3.14-8.51.43-3.07-1.89-1.47-1.47-5.33-2.51-1.11-.3-5.02-2.09-5.37-.54-.6,1,6.13,11.91,7.1,8.03,5.07,5.18.41-1.69.46-4.15,4.37,8.98,3.3,6.68,11.53,2.76-.51,2-3.75,2.09-4.84,3.69,2.57.45,4.15-.65,6.22-1.84l-2.07,2.31c1.04.11,1.82-.02,2.77-.46-.05.46-.18.72.3.94,4.25,1.91,6.22.39,9.38-2.32.61,1.28-3.64,3.02-2.76,3.69,2.13,1.62,10.23-5.58,11.98-7.14-2.59-1.99-5.94-.86-8.53-1.13-1.3-.14-2.37-1.21-3.58-.88-1.5.41-4.51,5.79-6.79,6.85ZM233.49,316.33c-7.44,1.66-14.77-2.06-22.26-1.96-1.18-.19-7.34-2.81-7.72-1.04,2.28,3.34,17.95,4.65,22.37,5.29,2.42.18,7.69.93,7.6-2.3ZM230.26,364.28v34.12c10.87.21,8.5.22,17.92-2.98,3.17-.32,3.65.52,7.14-1.25,22.79-13.58,8.75-43.55-6.84-57.09-1.21-.1-.46.2-.34.81.2,2.7,3.84,11.9,1.97,13.48-1-11.91-5.82-27.97-18.64-31.37-.34.07.06,1.41-2.12.49.27,1.11,2.7,1.91,2.08,3.22-1.83-1.81-3.28-3.98-6.23-3.68,1.92,3.31,4.13,5.73,4.87,9.65.09.48.61,1.51-.25,1.4-.34-1.8-4.94-10.79-6-11.3-.27-.13-5.5-1.1-5.79-1.04-1.1.21-.15,2.21-1.13,2.2.2-3.37-.15-1.79-1.13-2.08-6-2.14-6.43-.91-11.32,2.55-.75-.8,3.28-3.35,4.14-3.23.87-.9-1.83-1.36-2.13-1.35-1.22.04-8.1,2.98-9.57,3.72-2.16,1.08-3.92,3.03-6.28,3.63,2.29-4.18,12.09-5.23,12.91-8.75-10.71,1.8-26.16,9.09-30.9,19.82,16.5,2.64,33.25,3.02,49.81,5.3,2.22,3.42,4.23,8.54,9.22,7.62.12,1.85-1.42,2.39-1.4,4.35-.22,4.03,6.32,11.73.02,11.79ZM174.91,341.23c-1.02-4.66-9.09-5.88-13.18-6.4-2.63-.33-4.51-.41-3.6,2.77l16.79,3.64ZM227.95,350.44l-6.71-7.34c-15.36-3.67-32.02-2.35-47.71-5.56.71,1.57,2.89,1.69,2.77,3.68.99-.32,1.4-1.31,1.38-2.3.96-.11.21,1.6.46,1.84.23.23,5.4-.97,6.45-.46l-3.51.86-2.94.06,1.28.78,48.53,8.43ZM173.53,342.15l-15.68-2.77-.46,6c1.3.37,14.54-2.92,16.14-3.22ZM224.72,351.37l-47.61-8.18-19.42,4.45c-1.32.81-.54,8.38-1.25,10.34,2.72,1.61,18.39,4.58,20.97,4.88,6.95-.22,18.94-5.97,26.47-6.74l20.85-4.74ZM228.41,352.75l-48.88,12.21c2.61,1.83,6.07,7.14,8.51,8.57,13.94-2.51,28.57-9.05,43.14-11.1-.52-3.35-3.48-5.96-2.77-9.68ZM176.76,364.74l-20.29-4.15-3.24,46.32c7.78,2.24,15.44,5.69,23.31,7.62,1.35.33.22-.64.22-.68v-49.1ZM227.95,401.16v-35.73c0-1.11-3.1.07-3.47.68-.62,1.03-.02,3.36-.23,4.62-1.34-.59.54-4.79-1.12-4.59l-34.15,9.69c-2.62.02-7.62-7.25-9.69-9.25-1.42-.71-.23,3.87-.21,4.36.57,14.46-.47,29.11-.02,43.59l48.88-13.37ZM150.93,407.62c-26.94,13.78-84.55,13.82-111.37,0-8.92,21.73,119.1,21.96,111.37,0Z"/>
  <path d="M84.06,164.42c-.03.44-.78,1.29-.46,2.07,12.1-19.31,38.82-41.57,61.77-45.9,1.92-.33,5.12-.7,2.2,1.74-21.27,4.86-39.25,18.11-53.61,34.01-.57.97-9.58,9.65-6.46,9.22,1.41-.73,10.69-6.65,11.76-3.91.31.67-16.27,8.58-16.83,8.97-2.5-4.2,1.11-11.57-.69-16.11,1.71.23,1.3-.44,2.09-1.82.71-.89,5.56-7.3,5.74-4.41-6.97,12.48-5.22,1.48-5.53,16.15Z"/>
  <path d="M200.75,192.77c5.75-7.48,5.91-9.61,7.37-18.9.49,6.92-1.64,14.6-7.37,18.9Z"/>
  <polygon points="202.58 177.55 202.13 174.1 203.05 169.26 202.58 177.55"/>
  <path d="M395.92,295.49c5.47,4.88.96,5.03,6.31,9.14,1.34,4.7,4.77,8.8,7.35,12.94,5,8.62,8.24,18.15,10.69,27.8-4.71-8.31-5.38-17.72-10.7-26.42-2.73-4.49-6.45-8.96-7.8-13.87-2.58-2.6-2.96-1.24-3.43-5.33-1.14-2.84-3.41-2.54-2.85-5.67.07-.42.19-1.39.8-1.27.15.84-.7,1.94-.37,2.67Z"/>
  <path d="M371.38,225.97l-8.96,1.41-12.26,4.11c5.45-4.24,14.38-5.47,21.21-5.52Z"/>
  <path d="M311.43,372.58c-3.45-.06,4.76-24.23,4.86-28.11,1.99-11.1,2.19-22.7,1.57-33.93,0,0,1.4-4.35,1.4-4.35,1.16,2.16-.88,3.63-.94,5.78-.18,6.92.89,14.16.5,21.21-.74,13.43-6.48,25.99-7.4,39.4Z"/>
  <path d="M318.35,305.26c.27-1.01-.46-2.2-.42-3.03,1.89-3.54,1.27-2.22,1.06-6.2,4.88-18.44,15.18-41.21,22.87-59.01-7.66,22-20.18,45.78-23.51,68.23Z"/>
  <path d="M332.18,230.58c-.34,1.11-13.48-2.71-14.29-2.77,4.89-.04,9.52,1.96,14.29,2.77Z"/>
  <path d="M351.09,100.11l-5.53,4.14c.17-1.51,3.92-4.04,5.53-4.14Z"/>
  <path d="M369.07,193.24c-5.17,2.18-11.04,4.87-16.6,5.52,1.02-.21,15.82-6.58,16.6-5.52Z"/>
  <path d="M339.56,178.95c-.54,1.93-9.21-3.44-10.14-4.61l10.14,4.61Z"/>
  <path d="M308.97,49.55c.45.31.64,1.58,2,1.22-.69,3.36-2.3-.81-4.16-.69,1.38,2.84,1.65,4.61.92,7.14.3.21,1.53-.44,1.39.46-6.04,3.01-8.54-2.12-6.46-7.37l-1.38,2.76c-.77.14-.52-1.16-.43-1.58.95-4.35,5.02-4.07,8.12-1.94Z"/>
  <path d="M280.99,52.15l-1.84,1.84c-.17-3.91,5.27-4.37,6.88-1.54.64,1.12.71,6.59-.41,7.32-4.08,2.67-5.72-5-4.63-7.62Z"/>
  <path d="M306.82,68.75c.84.83-.92,1.55-1.06,1.94-.84,2.19-.81,4.11-2.42,6.33s-5.35,4.4-7.58,1.88c3.7,1.36,7.46-1.19,7.84-5.08-4.06,3.62-7.9,4.57-12.4,1.11-.86-.66-.63-2.13-2.35-1.11.35-2.73,1.96-.18,3.91.02,1.86.44,13.57-2.38,12.23-5.08.1-.06,1.78-.07,1.84,0ZM303.59,72.44l-9.68,2.53c3.29,2.65,7.5.38,9.68-2.53Z"/>
  <path d="M310.97,45.24c-1.89-.43-3.25-1.67-5.3-1.85s-8.23,2.39-7.09-1.08c1.03-3.14,12.46-1.57,12.4,2.93Z"/>
  <path d="M291.6,67.36c-7.38-1.54.46-4.59-.92-11.98,1.06.72,1.01,3.22.88,4.33-.44,3.83-4.39,3.91.04,7.65Z"/>
  <path d="M335.87,49.38c-3.5-.55-3.01,3.99-4.14,4.87-.16.13-1.35-.21-1.4-.26-.3-.33,3.64-8.14,5.53-4.61Z"/>
  <path d="M333.56,42.93c-7.07-9.86-15.21-19.76-26.28-25.35,10.41,3.25,21.7,15.64,26.28,25.35Z"/>
  <path d="M299.44,6.05l-.23.92c.86-.06,2.85-1.86,3.45-.47-3.56.87-7.89,3.27-10.15,6.22-.82,1.07-.51,2.69-1.84,2.54,1.21-4.13,4.56-8.02,8.77-9.21Z"/>
  <path d="M304.51,17.57c-.27.24-5.21-1.45-7.13-1.39-1.19.04-5.45.89-6.4,1.46-.78.46-.49,1.33-1.22,1.31-1.17-4.09,15.14-5.12,14.75-1.38Z"/>
  <path d="M340.79,30.79c-2.56,2.37-7.89,4.2-11.37,4.31.19-.91.94-.79,1.62-.91,6.57-1.24,11.28-3.9,12.22-11.06,1.68.15-1.42,7.14-2.47,7.67Z"/>
  <path d="M318.35,6.97l-9.79,1.05-8.89,2.64c-1.35.03-.48-.59.1-.83,5.54-2.74,12.58-3.16,18.58-2.87Z"/>
  <path d="M286.06,19.42l-4.03,1.73c-2.92-.21-4.79,1.33-7.03,2.88-.21-2.85,8.61-5.14,11.06-4.61Z"/>
  <path d="M300.35,24.5c2.18,4.3,7.39,6.28,11.08,9.21-1.3.23-15.7-9.1-11.08-9.21Z"/>
  <path d="M329.41,43.39c-1.89-1.61-3.77-3.49-6.45-3.69l.92-.91-1.84-1.38c1.26-.19,7.94,4.82,7.37,5.99Z"/>
  <path d="M344.18,38.78c1.15-3.01.74-6.09,1.15-9.22,1.31,2.12.71,7.61-1.15,9.22Z"/>
  <path d="M298.51,24.03l-5.99-4.61c1.12-.16,7.13,3.4,5.99,4.61Z"/>
  <path d="M328.49,10.21l-1.4.25-6.89-2.56c2.9.25,5.63,1.27,8.3,2.31Z"/>
  <path d="M342.79,46.62l2.76-6.91c.09,2.37-.97,5.29-2.76,6.91Z"/>
  <path d="M363.54,39.24h-.46c.7-7.56-1.2-16.3-7.69-21.13,0,0-6.61-2.84-6.61-2.84,8.14-.71,13.46,8.11,14.76,14.98,0,0,0,8.99,0,8.99Z"/>
  <path d="M354.78,48l2.29,12.69,3.71,5.97c-6.36-3.01-6.18-12.72-6-18.67Z"/>
  <path d="M356.86,9.74c3.42.57,8.65,5.5,9.91,8.76-5.06-5.42-8.8-8.6-16.6-8.76,2.06.24,4.73-.33,6.69,0Z"/>
  <path d="M355.7,34.86c-.15-1.65-.86-4.36-1.38-6-.3-.96-2.55-5.07-2.31-5.29.05-.05,1.48-.24,1.37.32.21,2.56,2.78,6.21,2.78,8.67v11.76h-.46c-.2-3.06.28-6.43,0-9.45Z"/>
  <polygon points="387.52 70.6 383.61 71.55 380.15 71.05 387.52 70.6"/>
  <path d="M425.34,393.32c-2.26-.49-1.18,1.62-1.38,3.23l1.84-1.38c-.38,4.1-.32,2.24-1.71,1.93-2.97.92-6.36-2.61-9.35-.31,3.97-.88,6.59,1.49,10.14,2.08l-1.62,3.22c-1.56-1.21,1.02-1.78.23-2.75-1.14-.54-9.92-3.67-9.22-.01-2.88-.47-.45-2.21-.1-3.56.21-.78.33-4.48.58-4.72,3.03.35,10.01-1.97,10.59,2.28ZM422.81,391.48c-1.94-.41-5.05.3-7.15,0,.03.78-.31.99.58.82,1.48-.27,2.72-.56,4.28-.37,1.4.17,2.66,1.39,3.9.71-.37-.34-1.21-1.07-1.61-1.15ZM423.03,396.09c2.34-4.67-8.81-4.91-7.84-.93l7.84.93Z"/>
  <path d="M412.05,403.58c-.25.16.21,1-.54.8.09-.51-.3-1.78.26-1.85,3.12-.4,6.36.49,9.42.93.57-2.45-8.14-1.82-9.68-1.39,1.44-2.61,10.93-1.69,10.64,1.61-.18,2.06-2.89.02-4.45-.18-.89-.12-5.18-.21-5.64.08Z"/>
  <path d="M310.5,385.94c-.91.15-.25-1.16-.46-1.39-.29-.32-7.01,1.4-8.53,1.39-2.36-.02-6.91-.94-8.53-2.76,4.97,2.06,11.64,2.29,16.72.91.9-.41.33-1.82,1.27-1.84l-.46,3.68Z"/>
  <path d="M426.27,375.35c-1.45,1.88-4.38,4.37-6.91,3.22l6.91-3.22Z"/>
  <rect x="84.19" y="345.13" width="124.77" height="1.41" transform="translate(-207.83 470.26) rotate(-86.38)"/>
  <rect x="66.31" y="348.56" width="124.16" height="1.45" transform="translate(-225.83 463.36) rotate(-87.67)"/>
  <rect x="44.23" y="283.46" width="1.41" height="125.21" transform="translate(-20.75 3.33) rotate(-3.45)"/>
  <rect x="83.4" y="289.12" width="1.41" height="124.04" transform="translate(-5.23 1.29) rotate(-.86)"/>
  <rect x="61.99" y="287.69" width="1.43" height="123.21" transform="translate(-13.58 2.71) rotate(-2.24)"/>
  <rect x="44.09" y="350.41" width="124.96" height="1.45" transform="translate(-246.36 451.56) rotate(-89)"/>
  <path d="M249.17,394.7c.85-1.7,2.86-2.21,4.15-3.46,1.99-1.93,3.45-5.22,5.53-7.14-.64,4.7-5.37,8.98-9.68,10.6Z"/>
  <path d="M262.08,367.27c-.02-.31-1.22-1.98,0-2.07,1.24,4.43,1.07,8.47,0,12.9-1.32-.34,0-2.62,0-2.99,0-2.56.15-5.31,0-7.84Z"/>
  <path d="M237.17,327.86c-2.11-1.74-4.49-3.86-5.53-6.45,2.17,1.6,4.34,4.03,5.53,6.45Z"/>
  <path d="M32.41,260.08c-.32,3.78.93,7.39-.23,11.07.17-1.34-2.11-12.46.23-11.07Z"/>
  <path d="M10.73,256.62c.03.39.82,1.32.46,2.07h-.45c-3.53-20.77,13.72-48.4,28.12-62.7-12.57,15.27-29.82,40.19-28.13,60.63Z"/>
  <path d="M13.51,219.97c-.18-1.73,10.68-19.38,11.52-18.44l-11.52,18.44Z"/>
  <path d="M50.4,234.26l8.75-14.29c.49,1.65-8.04,15.09-8.75,14.29Z"/>
  <path d="M59.62,219.05l4.6-9.68c-.79,3.32-2.42,7.09-4.6,9.68Z"/>
  <path d="M94.67,260.54l-4.15-5.53c.76-.76,4.74,4.28,4.15,5.53Z"/>
</svg>