<?xml version="1.0" encoding="UTF-8"?>
<svg id="Layer_1" data-name="Layer 1" xmlns="http://www.w3.org/2000/svg" viewBox="0 0 372.55 406.2">
  <path d="M233.5,191.04c26.12,4.15,76.24,25.8,86.59,51.4,1.94.21,1.02-3.44.79-4.46-.53-2.35-4.11-13.26-5.14-14.8-2.24-3.35-5.64-3.23-9.3-3.82l6.29-1.05-6.29-9.43,7.87,7.33,2.6-2.08,7.37,22.02,6.28-4.19c-2.31,5.01-4.69,9.54-5.23,15.22-.83,8.65,4.36,44.77,18.9,36.73,2.02-1.12.06-1.7-.55-2.63-3.77-5.73-6.48-5.84-5.5-13.9.85-6.94,3.81-14.08,11.27-8.14.25-8.25,9.58-17.45,2.11-24.12.7-.74,3.67,2.84,3.15-.53-1.21-7.88-7.98-38.64-10.78-44.84-6.93-13.77-22.92-27.44-25.95-43.82l5.24,5.78c11.95-21.1,26.71-42.03,42.48-60.35.91-.98,5.7-6.36,6.84-5.22-9.72,21.62-44.39,50.69-44.31,73.14,3.61,9.35,16.36,20.23,19.92,30.44,2.09,13.96,8.86,31.74,10.47,45.13,1.17,9.73-3.57,16.29-5.51,25.43-1.17,5.53-1.87,22.3-4.22,25.15-4.88,5.9-13.88,2.64-18.32-2.06,1.56,17.98-14.16,37.55-32.38,36.88-8.29,19.57-33.75,33.64-49.5,48.61-12.71,11.78-30.84,36.96-48.77,37.33-15.12.31-36.26-17.53-49.33-25.26-23.41-13.85-47.36-26.91-71.19-40.04-7.38-4.2-11.12-21.9-11.24-29.77-.13-8.85,6.6-13.78,12.73-18.73,24.97-19.65,50.75-39.63,76.07-59.3,2.11-2.66,2.17-6.96,3.38-10.26.66-1.81,3.45-4.77,3.25-5.93-.14-.82-3.54-3.85-4.33-6.2.8-18.56-22.2-28.42-34.92-38.53-.12,24.66-31.18,6.37-39.04-2.94-13.72.12-16.15-4.09-27.92-9.85-6.64-2.4-13.59-1.79-19.13-7.11-6.04-5.8-23.63-35.13-26-43.25-5.28-18,4.92-33.09,3.42-47.43C14.58,51.13,1.94,41.72,0,31.58c4.25-.14,16.58,18.41,16.8,23.07l2.08-3.13c4.08,16.79-6.38,34.71-3.71,51.46,2.58,9.98,22.86,53.06,35.2,49.79-7.86-14.37-11.46-30.42-17.39-45.57-.51-1.31-.95-3.01,1.11-2.16,6.45,2.66,13,37.55,19.59,45.47,3.21,3.86,25.23,18.32,29.22,15.36-16.43-19.72-24.75-43.93-28.61-69.48-.27-1.39-1.96-2.06.79-1.84,9.66,12.2,7.72,30.43,14.31,44.45,3.05,6.49,20.25,30.34,25.75,34.06,12.43,8.4,14.38-3.96,25.53,2.27-.36-7.12-8.14-10.32-11.74-16.06-6.5-11.4-29.2-59.1-20.8-69.97l1.07,9.44,6.29-1.06-6.29-12.07c19.88,3.41,37.92,104.52,60.86,81.33-7.95,3.8-15.28,2.05-17.39-7.28-3.11-13.76,14.17-16.06,17.41-3.23,1.69.29,1.07-1.4.94-2.5-1.29-10.81-13.54-38.5-18.3-49.92-6.48-15.56-17.94-30.97-17.81-48.29,3.15,2.53,3.63,6.82,4.74,10.48l2.08-5.23c-2.28,15.22,10.19,30.68,16.26,45.12,2.64,6.43,4.38,13.41,6.85,19.91l.92-8.8c-6.16-12.55-2.9-30.37-9.92-41.49-7.12-11.26-23.03-30.94-33.71-38.69-6.56-4.93-20.46-9.47-21.3-17.52-4.5-5.14-23.89-31.93-4.25-12.54,4.94,5.71,7.9,12.76,13.66,17.82,5.34,4.68,12.77,7.58,18.35,12.08,7.65,6.16,33.58,38.11,35.09,46.75.85,4.85.53,11.26,1.41,16.43,1.92,11.38,2.95,17.7,4.06,29.51,1.07,11.28,6.71,21.72,6.68,33.19,7.21,3.4,38.14,30.17,43.02,30.36,4.88.19,7.17-10.99,9.08-15.01,8.11-17.83,18.85-34.67,35.96-44.83,20.79-21.4,33.98-60.46,51.44-83.95.87-1.17-.02-2.61,2.7-1.98-5.73,32.42-40.85,60.52-49.31,90.2-21.79,3.79-33.21,35.92-41.99,53.53,8.6.63,18.3-.86,26.76,0ZM97.5,100.88c-.72-.51-4.94.54-5.21,1.69-.39,1.61,1.65,11.39,2.44,12.65,1.71,2.72,12.81,8.36,15.44,11.82l-12.67-26.16ZM125.93,163.76c-4.44-3.13-10.43-5.06-14.17-9.44,1.06,8.98,29.34,22.62,36.75,30.41,2.4.94,1.38-3.49,2.05-5.27,1.41-3.72,4.62-8.46,8.95-8.37-8.96-13.97-7.34,19.43-33.58-7.33.09.08,2.23.38,2.09-.51-5.18-6.58-7.19-20.1-11.67-26.1-.98-1.31-19.02-16.34-19.79-15.36.38,6.72,9.82,23.51,12.73,28.7,2.94,4.79,15.16,7.45,16.64,13.26ZM139.3,150.29c-7.76,1.49-3.44,15.28-.09,16.45,15.78,5.51,11.63-18.67.09-16.45ZM265.65,266.43c3.24,2.08,19.4-3.32,8.74-13.45l-107.2-77.48c-6.42-4.9-13.2-1.75-14.78,5.82s2.26,7.16,5.46,11.89c4.39,6.5,3.19,10.76,5.27,16.76,1.97,5.69,25.42,19.57,30.72,24.97,11.59-1.67,9.31-3.89,20.83,1.18,21.69-2.74,17.17.3,28.73,16.34,6.58,6.51,20.25,3.91,22.22,13.97ZM108.09,179.49c4.3.57,8.49,2.87,11.52-1.56-3.31-3.59-9.43-2.7-11.52,1.56ZM231.4,195.24c-9.17-.88-19.55.65-28.86,0,27.3,23.75,11.26,10.76,39.3,10.55,5.95,1.01,9.02,7.53,12.92,9.11,7.68,3.12,19.18.49,27.91,5.67,8.46,5.02,7.15,12.4,11.63,17.75s13.24,5.84,14.02,16.5c.2,2.73-.55,14.7-1.07,17.29-3.83,13.61-17.81,17.82-27.65,22.74-1.4,1.75,1.86,3.8,1.5,5.66-1.22,6.33-25.14,12.42-31.37,17.96-6.76,6.01-7.88,18.41-16.24,24.68-6.48,4.86-10.2,2.87-16.31,4.68-4.5,1.33-11.5,8.47-17.82,10.51-8.77,3.26-19.33,2.46-25.17-5.21-10.69-1.06-12.89-3.67-10.5-12.01-19.26-9.87-49.03,2.21-52.69-27.1-19.63-7.22-9.68-25.77,5.5-32.21,13.46-5.87,21.7-5.48,34.06-16.31,7.16-6.28,4.26-5.73,6.54-13.4,4.08-13.76,13.79-13.81,24.43-20.67-8.55-7.75-17.46-18.81-19.34.58-13.69,12.85-28.29,25.85-43.12,37.67-9.58,7.64-40.09,26.87-45.03,34.71-3.18,5.05,1.01,27.18,5.35,31.28,24.41,14.6,49.71,27.8,74.16,42.32,15.04,8.92,35.29,28.48,53.49,22.64,12.88-4.13,34.58-30.92,45.88-41.22,10.51-9.57,38.85-28.39,41.53-41.37,1.12-5.43-1.04-11.38,2.04-15.79,1.63,4.35,1.76,9.04,1.56,13.64,21.96.28,32.36-23.9,27.28-43.02-2.97,3.06-2.54,7.33-4.78,11.47-2.83,5.23-10.15,11.94-15.92,13.46-2.37.63-10.35.62-11.64,1.47-4.59,18.34-32.37,32.27-46.37,45.45-34.91,34.26-41.85,54.93-87.18,18.99-13.6-7.98-27.45-16.17-41.19-23.87-10.2-7.09-44.87-16.82-43.72-30.24,0,0,8.03,8.22,8.03,8.22,26.73,12.97,52.76,27.3,78.33,42.34,12.23,7.2,24.91,20.63,39.99,18.58,12.41-1.69,36.59-30.06,46.78-39.26,15.39-13.57,34.03-24.31,45.64-41.46,27.71-6.69,35-29.1,23.82-54.18-11.68-22.53-61.08-46.23-85.71-48.6ZM274.95,298.04c14.77-18.82,33.84-8.55,28.91-47.26-1.44-4.72-9.1-6.83-12.13-10.95-4.18-5.67-2.38-11.18-10.13-16.1-8.8-5.59-19.33-2.64-27.66-5.92-11.72-8.96-15.06-13.07-30.41-6.32,8.96,10.6,73.99,41.75,55.11,55.1-8.65,7.54-21.43,15.19-30.87,22.65-4.15,2.47-20.57,20.99-23.19,17.73,13.65-13.58,30.11-24.2,44.07-37.24-27.39,2.99-51.61-15.07-73.96-28.37-8.72,14.45-21.3,26.43-37.28,32.54,13-8.72,28.82-19.67,35.64-33.97-.18-.89-7.86-6.66-9.05-6.76-1.89-.16-17.74,10.05-19.78,12.41-5.72,6.62-3.1,9.54-5.5,15.48-1.63,4.02-17.24,15.14-21.59,17.24-10.87,5.25-25.64,4.83-32.22,17.09-7.07,13.17,5.19,12.15,8.5,16.74,1.31,1.82,1.52,6.67,2.89,9.7,5.96,13.19,23.67,9.46,35.9,12.37,5.41,1.29,10.34,4.39,15.7,5.82-.44,1.92-3.1,1.38-3.73,4.09-1.56,6.77,9.57,5.16,11.04,5.82,7.34,8.21,15.13,9.67,25.62,4.63,5.1-2.16,11.24-8.68,15.31-9.87,24.6-.68,18.74-14.84,32.02-28.84,9.4-8.21,24.37-7.37,30.99-17.79l-4.2-.02ZM263.41,266.57c-4.47-7.34-14.09-5.52-20.46-10.48-5.86-4.57-7.17-14.05-12.38-16.99-6.79-3.83-9.82.89-15.86.19-4.49-.53-11.19-6.47-16.36-1.54l13.72,10.39,20.4,11.11c1.12-4.65,1.72-.05,3.37,1.07,6.72,4.58,19.54,6.61,27.57,6.25ZM345.28,281.27c3.68-.12,3.1-18.25,2.6-19.93-4-8.27-8.12,5.57-7.82,9.92.24,3.52,4.75,6.41,5.22,10.01Z"/>
  <path d="M121.72,228.82c-16.59.28-56.96-28.78-71.35-39.87,17.04,11.38,52.7,31.52,71.35,39.87Z"/>
  <path d="M260.26,183.17c.48,3.58,3.53,8.77,4.21,12.58-.75,1.46-2.01-1.39-2.31-1.89-4.27-7.18-5.99-18.07-3.67-26.11.32-1.1.23-3.17,1.77-2.94.55,5.78-.76,12.75,0,18.36Z"/>
  <path d="M134.32,221.46c-11.08-4.03-22.43-9.11-31.48-16.77,2,1.18,31.4,14.94,31.48,16.77Z"/>
  <path d="M104.93,237.22c-2.3,4.95-26.26-9.46-29.38-12.59l29.38,12.59Z"/>
  <path d="M279.15,138.59c6.75-6.12,17.46-2.13,25.18.01-.2,2.77-4.11-.01-4.71-.01h-20.46Z"/>
  <path d="M56.66,56.76l-4.68,4.23-2.66,9.39c-2.63-5.94.79-12.7,7.33-13.62Z"/>
  <path d="M31.47,87.17c-3.48-1.99-2.34-9.63,1.05-11.54l-1.05,11.54Z"/>
  <path d="M64.01,144.89c-1.52,3.18-5.01,4.53-8.4,4.18l8.4-4.18Z"/>
  <path d="M122.78,101.85c-.31.33-7.09,2.81-8.39,3.15,1.35-3.37,5.18-3.59,7.89-5.22.89-.14.59,1.98.51,2.07Z"/>
  <path d="M90.25,44.17l-7.34,6.28c-1.15-1.27,4.88-7.56,7.34-6.28Z"/>
  <path d="M81.85,129.15l-8.38,4.19c-.33-3.56,6.18-4.22,8.38-4.19Z"/>
  <rect x="76.35" y="135.56" width="10.12" height="1.79" transform="translate(-45.15 40.39) rotate(-21.98)"/>
  <rect x="116.54" y="107.31" width="9.86" height="1.79" transform="translate(-36.88 70.94) rotate(-28.45)"/>
  <path d="M136.42,135.45l-7.33,4.19c-.1-3.7,4.54-4.4,7.33-4.19Z"/>
  <path d="M257.11,135.45c1.42.65-7.72,4.59-6.29,0h6.29Z"/>
  <rect x="96.42" y="169.73" width="6.81" height="1.82" transform="translate(-58.31 52) rotate(-22.79)"/>
  <rect x="279.35" y="114.28" width="13.39" height="1.84" transform="translate(30.94 288.45) rotate(-56.12)"/>
  <rect x="59.68" y="151.39" width="6.57" height="1.66" transform="translate(-27.78 14.74) rotate(-10.96)"/>
  <rect x="17.85" y="95.58" width="1.03" height="6.28"/>
  <path d="M184.69,313.8c-13.76,9.52-58.89,11.18-56.65-13.64,1.9.48.85,4.26,1.51,6.35,4.99,15.75,42.99,12.3,55.15,7.29Z"/>
  <path d="M220.38,286.52c-14.4,9.51-36.29,22.4-53.52,14.15,18.59,5.58,36.87-7.43,53.52-14.15Z"/>
  <path d="M216.18,335.83c-8.76,9.01-22.77,17.79-34.63,8.9,3.23-1.09,6.68,1.53,10.01,1.61,9.29.13,16.89-6.78,24.62-10.51Z"/>
  <path d="M279.15,287.55c7.69-5.97,14.22-9.53,18.07-19.16.85-2.12.09-5.51,1.85-6,.41,11.18-9.34,22.21-19.93,25.16Z"/>
  <path d="M255.01,273.94c-2.47,4.41-18.9,14.86-23.09,17.81,7.16-6.13,14.37-14.28,23.09-17.81Z"/>
  <path d="M184.33,264.12l-15.37,11.9,21.52-20.97c.82,3.61-5.07,5.71-6.14,9.07Z"/>
  <path d="M129.07,323.25c.18,1.99-2.11.94-3.1.47-5.16-2.45-7.45-7.42-7.38-13.07l4.16,8.93,6.31,3.66Z"/>
  <path d="M281.25,233l-9.44-4.18c3.31-.24,7.63,1.19,9.44,4.18Z"/>
  <rect x="110.19" y="293.13" width="9.66" height="1.83" transform="translate(-185.51 197.22) rotate(-50.78)"/>
  <path d="M229.82,333.74c-.76,1.71-2.3,3.47-4.2,3.13.76-1.71,2.3-3.47,4.2-3.13Z"/>
  <path d="M305.38,240.35l-10.48-10.48c4.29,1.69,9.97,5.54,10.48,10.48Z"/>
  <polygon points="228.77 201.55 218.83 202.62 217.24 200.49 228.77 201.55"/>
  <path d="M201.48,397.72c-3.18-1.76-1.83-7.45-2.08-10.49,3.66,1.8,1.64,7.24,2.08,10.49Z"/>
  <path d="M226.66,376.73c-2.56-1.4-.28-8.59,2.1-9.44l-2.1,9.44Z"/>
  <rect x="259.56" y="204.53" width="1.84" height="9.6" transform="translate(-58.79 307.99) rotate(-55.96)"/>
  <path d="M210.93,362.06c-1.04,2.7-3.53,3.55-6.29,3.13-.88-3.16,4.46-2.36,6.29-3.13Z"/>
  <path d="M201.49,368.34l-7.34,1.05c-.09-1.15,3.74-1.84,4.76-2.08,1.24-.29,1.62-2.01,2.58,1.03Z"/>
  <rect x="280.44" y="319.08" width="7.4" height="1.51" transform="translate(-142.94 294.66) rotate(-45.01)"/>
  <rect x="82.41" y="328.2" width="1.73" height="7.02" transform="translate(-138.72 71.55) rotate(-26.38)"/>
  <path d="M256.06,323.24c1.02.46-4.62,3.76-5.24,3.13-1.91-1.92,3.34-3.41,5.24-3.13Z"/>
  <rect x="160.38" y="371.05" width="1.73" height="7.02" transform="translate(-149.65 110.66) rotate(-26.38)"/>
  <rect x="170.38" y="376.61" width="1.36" height="7.61" transform="translate(-79.06 46.62) rotate(-12.63)"/>
  <rect x="99.43" y="332.25" width="1.58" height="6.11" transform="translate(-157.84 98.92) rotate(-30.87)"/>
  <path d="M89.2,301.21c-7.7,8.79,1.22,4.37-1.57,8.38-6-1.1-.32-10.19,1.57-8.38Z"/>
  <rect x="312.3" y="295.69" width="6.11" height="1.58" transform="translate(-100.9 415.15) rotate(-59.14)"/>
  <path d="M139.57,262.39c.22.18-2.8,3.66-2.11,5.23h-1.03c-1.02-2.19,1.32-6.67,3.14-5.23Z"/>
  <rect x="169.54" y="226.7" width="1.52" height="6.3"/>
  <path d="M312.73,306.44l3.14-3.14c.36,1.91-1.15,3.48-3.14,3.14Z"/>
  <path d="M189.94,366.26c-.51,2.02-2.32,2.36-4.19,2.08-1.08-.51,2.83-2.5,4.19-2.08Z"/>
  <path d="M149.02,259.22c-2.21,2.26-5.98-.07-.52-2.08.91-.14.59,2,.52,2.08Z"/>
  <path d="M94.44,314.83c-1.91.36-3.48-1.15-3.14-3.14l3.14,3.14Z"/>
  <path d="M152.15,344.22c1.86,3-4.99,3-3.13,0h3.13Z"/>
  <path d="M165.81,176.37c-2.13,2.89-4.25,5.87-6.73,8.5-.38.4-1.1,3.87-2.71,1.98-1.46-1.72,8.02-11.83,9.44-10.48Z"/>
  <path d="M215.13,244.54c-1.89.34-3.44-1.42-4.2-3.13,1.89-.34,3.44,1.42,4.2,3.13Z"/>
</svg>