<?xml version="1.0" encoding="UTF-8"?>
<svg id="Layer_1" data-name="Layer 1" xmlns="http://www.w3.org/2000/svg" viewBox="0 0 295.39 434.18">
  <path d="M150.25,258.48c-.69,6.58-9.36,32.58-13.93,36.52-1,.86-3.87,1.16-4.41.7-.62-.53,6.97-12.55,7.74-14.36,5.13-11.98,7.86-26.47,7.25-39.47-36.07-5.88-67.13-34.6-75.44-70.23l-11.86,8.09c-1.52.18-9.04,4.42-9.7,1.06-.55-2.77,14.77-7.1,17.78-11.33,1.21-1.69,5.58-18.69,4.87-19.4-5.78.04-18.35.29-23.1-3.13-1.33-.96-.47-3-.64-4.42,12.48,4.3,23.18,5.02,35.26-.89,14.57-7.14,34.22-28.7,33.52-45.76-.2-4.88-3.39-13.17-8.34-14.85-1.22,13-3.46,22.05-16.22,27.49-15.99,6.82-24.75,2.89-21.57-15.62-12.3,3.88-32.92,1.59-42.13,11.28-8.4,8.84-14.09,43.56-17.53,56.92-2.39,9.29-8.48,22.24-8.36,31.54.18,14.09,14.79,40.87,20.26,55.35,6.22,16.45,18.75,46.84,17.52,63.36-2.13,28.85-21.24,61.54-29.35,89.33l-4.08,1.84c4.76-19.72,14.21-38.34,20.52-57.7,5.04-15.48,11.6-34.26,7.22-50.41-7.71-28.46-22.7-56.08-32.09-83.36-8.37-24.33.4-35.89,6.2-58.59,3.52-13.79,6.95-41.66,16.61-51.37,10.39-10.44,38.11-9.98,53.25-14.74,6.01-1.89,11.6-4.92,17.31-7.51C106.6,54.01,103.12-.43,141.07,0c32.05.37,33.3,31.97,28.6,56.18,3.01.14,5.91,1.82,8.96.9,4.96-1.5,15.12-30.31,19.72-36.42,10.18-13.52,28.43-13.18,41.4-3.78,24.51,17.77.95,49.55-3.15,71.66,2.39-1.82,3.85-5.22,5.91-7.56,8.65-9.82,17.92-17.08,31.51-12.06,37.95,14.02,13.51,55.32-1.81,77.34,31.61,4.56,24.32,47.54,16.2,69.06-2.08,5.51-5.44,10.18-7.33,15.33-2.76,7.52-3.18,15.87-6.85,23.36-2.99,6.11-8.52,12.92-11.93,19.36-9.66,18.25-16.96,35.36-30.56,51.44-24.66,29.17-41.04,38.21-55.32,77.4-1.65,4.51-8.68,30.72-10.53,31.55-2.61,1.16-2.92-.39-2.63-2.61,1.99-15.07,14.54-46.19,22.41-59.6,14.43-24.6,37.78-40.5,53.51-64.1,8.7-13.05,15.61-28.77,23.11-42.71,9.37-17.41,14.7-32.05,21.96-50.33,5.22-13.13,10.18-38.3,4.66-51.44-4.75-11.31-16.23-14.85-27.17-9.9-5.61,2.54-32.9,29.57-38.68,35.77-3.88,4.16-24.24,28.4-25.33,31.86-.17.55-.3,1.76.52,1.59,18.75-21,34.52,6.12,14.58,21.05,17.31-.59,28.45-18.33,40.5-28.56,6.46-5.49,16.18-12.86,23.12-17.88.99-.71,3.32-2.61,4.36-1.57,3.03,3.02-14.37,14.6-16.18,16.72,1.24,1.16,17.91,1.52,11.9,5.42-4.19,2.72-13.34-3.38-16.54-2.57-2.98.76-14.28,15.15-18.01,17.64,1.72,1.95,3.95,3.3,6.13,4.64.9.55,13.39,5.77,11.11,7.76-7.56-.07-14.2-5.12-19.94-9.44-11.76,8.79-32.41,20.81-44.83,6.78-1.21-1.36-1.96-4.83-2.79-4.97-1.61-.26-16.07,4.91-20.52,5.35-6.79.68-14.07-.22-20.91.13-.38,5.04.52,10.69,0,15.64ZM161.02,77.76c4.41-19.34,10.96-43.1,2.37-62.23-5.06-11.27-23.58-13.53-33.9-8.68-20.66,9.7-20.19,48.48-26.72,67.68l13.86-7.7c-.62-8.31-1.54-16.81-.91-25.19.12-1.54,1.28-9.83,1.58-10.29.8-1.21,3.4-1.45,3.8-1.05.88.89-1.05,8.2-1.12,10.2-.51,14.19-1.39,43.04,14.06,49.69,7.97,3.43,16.9,2.29,22.66-4.34l-16.23-1.01c-10.58-3.12-14.2-5.39-12.62-17.04,2.92-21.57,26.1-24.47,31.61-4.11l1.55,14.07ZM232.25,87.48c4.1-20.51,28.08-54.4,2.5-68.83-29.62-16.71-36.07,13.04-46.17,32.18-6.21,11.77-17.42,25.95-18.79,39.47-1.73,17.02,15.08,31.5,30.86,22.23,12.96-7.62,31.34-49.21,34.32-49.85,1.37-.29,2.65,1.03,2.53,2.5-.41,5.07-15.98,19.28-5.25,22.3ZM141.31,54.24c-7.07,1.56-12.12,17.08-8.88,22.46,2.5,4.15,17.65,5.34,22.2,3.83,3.4-9.86,1.42-29.55-13.32-26.29ZM177.22,61.6c-1.97.84-6.06-1.02-7.06-.82-1.51.29-3.4,12.04-4.27,14.84-2.91,9.32-8.01,18.71-18.62,20.22-15.92,2.27-28.76-8.54-29.4-24.52-10.92,5.2-6.99,3.53-2.65,8.58,17.73,20.6-5.41,51.04-24,62.4-2.32,1.42-13.73,6.22-14.16,6.89-.25.4-1.98,8.19-2.1,9.22-4.67,37.9,42.35,77.46,77.94,80.17,7.6.58,30.83-.64,36.6-5.32.92-.74,1.28-6.76,2.05-8.98,4.31-12.39,19-25.1,26.67-35.91-2.21-1.05-4.55,1.26-7.1,1.53-16.6,1.78-30.72-10.08-28.41-27.33,1.88-14.03,35.25-49.62,45.19-62.69,4.25-5.59,3.55-7.37-2.65-11.3-10.51,16.58-22.82,39.5-46.23,27.85-21.7-10.8-12.96-39.35-1.82-54.81ZM267.6,146.54c2.73-2.21,20.28-36.72,21.54-41.58,3.35-12.92-.72-24.57-12.98-30.62-14.67-7.24-22.1.62-31.5,10.97-15.59,17.15-37.95,44.59-50.59,63.79-6.76,10.27-12.35,22.09-.68,31.73,24.09,19.92,47.79-23.3,60.98-38.34,6.39-7.28,13.86-13.49,20.53-20.48l2.68,2.68-24.81,27c-.16,4.09,4.42-1.26,6.41-2.23,2.17-1.06,7.62-2.27,8.42-2.91ZM104.91,79.93l-27.8,12.11c-2.95,4-3.6,15.15,2.51,15.96,3.24.43,17.04-5.16,19.42-7.53s7.35-18.91,5.88-20.54ZM209.34,218.22c-2.59.64-13.48,10.93-13.82,13.36-.77,5.52,8.3,14.5,14.16,9.72,1.99-1.62,9.17-11.93,9.38-14.28.35-4.01-5.3-9.89-9.72-8.8Z"/>
  <path d="M107.07,334.54c.33,2.44-.09,4.01-2.72,4.37-14.68-1.11-27.9-2.82-41.18-9.57-1.84-.93-13.74-7.3-11.13-9.9,1.81-1.81,11.67,5.94,13.98,7.05,12.69,6.13,26.96,8.4,41.05,8.05Z"/>
  <path d="M130.83,349.65c11.71,1.98,20.56,12.29,33,13.93,2.65.35,14.25-1.33,13.39,2.77s-18.33-.1-21.53-1.11c-5.71-1.8-12.23-5.36-17.22-8.67-1.01-.67-9.36-5.44-7.64-6.92Z"/>
  <path d="M244.13,203.99c-2.08.35-3.06-1.45-4.36-2.67-1.85-1.74-4.66-4.59-6.45-6.45-1.12-1.16-2.51-1.92-2.13-3.81,4.18-1.64,15.17,10.46,12.94,12.94Z"/>
  <path d="M137.29,220.17c-21.75-4.08-41.71-27.5-46.95-48.53-.34-1.37-2.29-7.2.02-7.56s2.33,2.22,2.84,3.61c6.05,16.51,9.95,26.8,24.16,38.43,5.71,4.68,12.53,6.72,17.48,10.58,1.31,1.03,2.93,1.24,2.45,3.47Z"/>
  <path d="M223.25,147.19c3.55,3.85,4.44,8.84,3.36,13.95-.72,3.41-9.73,17.99-12.99,19.39-7.03,3.03-24.72-11.31-24.62-18.1.06-4.06,12.98-16.77,17.07-18.59,6.16-2.75,12.61-1.58,17.17,3.35ZM209.29,147.04c-2.64.6-15.8,13.25-15.86,15.39-.12,4.58,13.33,15.08,17.78,14.65,2.63-.25,10.47-14.04,11.09-17.02,1.81-8.63-4.28-15-13.01-13.02Z"/>
  <path d="M232.27,114.46c7.57-.61,15.72,4.82,17.26,12.38-2.52,3.64-4.51-2.64-6.44-4.34-2.78-2.46-5.35-3.12-8.17-4.78-1.45-.85-3.16-.85-2.66-3.27Z"/>
  <path d="M205.98,74.91c2.48,2.64,4.82,8.32,4.73,11.98-.06,2.89-5.32,18.88-7.23,20.09-7.53,4.76-27.83-6.99-30.87-14.43-1.36-3.33,7.27-14.73,10.03-17.46,6.41-6.38,16.94-6.99,23.35-.17ZM200.79,103.47c.66-.41,5.07-12.95,5.32-14.64,1.45-9.78-6.38-16.83-16-13.82-3.68,1.15-13.74,13.4-12.74,17.07,1.2,4.43,18.99,14.11,23.42,11.38Z"/>
  <path d="M206.36,45.38c-.1-.12-.11-3.09,0-3.21,2.15-2.25,20.74,5,19.42,11.3-.36,1.73-1.31,1.47-2.7.56-2.36-1.55-3.68-4.32-6.95-6-2.51-1.29-9.46-2.26-9.78-2.65Z"/>
</svg>