<?xml version="1.0" encoding="UTF-8"?>
<svg id="Layer_1" data-name="Layer 1" xmlns="http://www.w3.org/2000/svg" viewBox="0 0 374.47 366.38">
  <path d="M137.87,143.22l47.76,36.18c2.22,1.97,10.86-1.73,8.4-4.19-15.64,1.39-4.58-12.76-3.06-21.32-.72-18.64,13-48.24,24.13-63.02,3.39-3.96,8.71-7.65,11.57-11.85,9.88-14.49,17.62-35.83,25.03-51.86.29-.63.87-3.59,2.3-1.86.59.72-4.28,15.56-5.17,17.78-4.03,10.06-10.61,19.88-15.38,29.64-.62,1.75,1.24.84,1.81,1.76-5.63,8.06-14.75,14.26-20.61,21.83-12.2,22.24-17.42,58.7-16.87,84.52,1.91-.43.28-3.3,1.78-5.23,1.76-2.28,5.46-1.34,7.09.58,1.72,2.02.53,4.78,2.36,5.59,2.91-16.9,6.25-39.87,14.05-54.78.39-.29,1.69.45,1.79.33,1.14-1.35.29-8.25,2.91-9.25.14,23.55-10.95,47.36-12.22,70.71-.04.75-.27,3.44.97,1.89-.11-5.24,6.9-9.86,9.63-3.98,1.03,2.22-.17,5.45,1.62,6.33,1.99-3.28,16.7-68.8,21.56-68.4-3.14,10.84-3.65,22.32-6.6,33.21-.37,2.89-12.92,32.24-8.39,30.02.67-3.73,6.39-2.97,7.32.2.47,1.6-.66,4.85,1.11,4.96,3.64-11.11,10.41-22.25,14.11-33.22,2.72-8.06,3.7-23.27,7.93-29.55.81-1.2,1.64-1.62,1.4.45-.77,6.64-2.77,17.21-4.36,23.76-1.13,4.65-9.18,22.04-8.83,23.9.15.78,1.82.81,2.36,1.57.76,1.08-.15,3.03,1.45,2.78,11.61-18.14,22.19-45.84,24.03-67.15.22-7.62-1.3-16.36-.62-24.24,1.38-8.22,14.93-41.51,23.46-44.47-4.6,14.95-19.3,30.78-20.65,46.34-.81,9.38,1.79,18.98.86,28.03-.83,7.99-4.89,15.28-6.44,23.07,19.61-6.87,39.5-19.06,61.13-14.73,21.3,6.38,38.14,15.54,25.1,40.02,11.06,1.3,11.82,16.15,10.1,24.63-2.55,12.56-24.79,14.09-33.51,20.82-.03,1.28,18.91,5.89,21.99,12.67.92,2.02.79,13.57.52,16.42-.53,5.63-2.43,7.67-6.66,11.15,0,0-169.89,106.57-169.89,106.57-14.37,9.46-27.37,2.29-40.62-4.69-40.3-21.2-79.22-45.52-119.28-67.22-9.16-6.26-10.93-27.23-.36-33.03,40.54-20.81,82.36-39.11,122.95-59.8,1.33-.68,8.23-3.38,6.69-5.01-6.68-1.76-10.48-8.35-16.58-12.02-3.85-2.83-12.34-7.02-15.31-10-1.54-1.55-.93-10.42-6.08-12.67-8.26,14.8-23.86,5.63-21.09-9.37-1.64.09-.85,2.85-1.64,4.44-4.67,8.34-18.61,5.5-20.81-3.08-4.34-1.82-13.09,1.52-15.21-9.63-.29-.25-4.75-.82-6.4-1.56-7.88-4.46-14.58-23.4-15.96-32.3-.25-.24-4.4.15-6.87-1.1-9.49-5.14-8.61-25.46,3.07-25.26C38.31,58.45,9.74,53.22,0,39.36c8.89,1.3,29.23,18.5,34.52,24.98,3.87,6.23,1.46,17.64,2,25.18.94,9.61,9.32,48.29,21.59,46.34l-3.7-18.32c-.74-2.47,2.35-.38,2.51-.16,5.72,7.89-.44,30.52,16.19,28.79l-.47-28.11c8.54,10.44-4.57,43.43,19,34.44,5.47-4.39-2.46-35.41,6.78-36.31-2.02,9.31.98,19.95,1.87,29.52.46,4.96-1.84,10.94,2.86,14,22.47,9.54,12.09-48.98,12.04-60.75-.14-1.52-2.12-6.74-1.77-7.13,6.05-1.6,5.77,30.88,6.71,35.92,2.28,1.59,13.97,12.35,15.78,10.92-8.98-13.79-11.95-31.27-18.02-46.16-4.33-10.61-21.03-27.97-28.82-37.72-5.24-6.55-9.96-15.08-15.48-21.07C70.61,29.06,35.57,3.33,42.64,0c8.89,12.29,23.69,20.96,33.77,31.83,11.43,18.3,29.78,35.57,41.34,53.31,6.43,10.64,9.96,28.27,14.89,40.4,2.53,6.23,8.12,10.7,5.22,17.68ZM32.8,82.45c-9.93,1.69-8.03,20.07,1.87,19.67l-1.87-19.67ZM193.93,172.3c1.16-.97,2.31-25.55,3.16-30.1,1.1-5.88,3.86-11.55,4.42-17.59l-5.15,12.17c-1.84,6.33-1.44,13.41-2.75,19.74-.62,2.99-5.35,13.69-5.21,14.45.28,1.43,4.73,2.01,5.53,1.33ZM344.92,134.93c-11.85-3.87-24.22-3.58-35.61,1.85l23.9,1.88,11.71-3.74ZM134.03,144.28c-1.7-3.21-10.32-9.48-13.12-10.29-2.71,3.1,9.72,12.06,13.12,10.29ZM223.07,207.08l38.67,29.84c30.18-22.45,87.38-44.52,102.64-79.26,2.83-18.32-17.56-23.25-31.17-17.11-18.3.7-42.55-4.22-57.65,10.29,24.61-8.55,31.18-4.21,54.36,3.28-4.05,3.91-19.23-5.12-24.93-5.05-6.13-.72-25.91.86-30.69,4.5-.77.58-2.87,8.14-2.48,8.51,25.97.47,36.81,7.55,62.31-6.52.58-.78-2.05-2.57,2.36-1.9,2.63,1.89-13.37,9.54-14.75,10.08-14.72,8.66-39.08-1.5-51.64,1.32-.66.4-6.12,11.94-6.71,13.89,10.68-.27,20.23,5.98,30.92,6.09-6.93,5.22-25.77-6.21-32.14-4.24-.69.17-7.32,9.62-9.36,10.61-2.8,1.37-5.26-1.97-6.28-1.21-3.12,8.53-8.82,15.12-17.35,6.57-.8,0-5.63,8.04-12.71,2.37-3.12-2.5-2.36-6.23-7.45-4.27l3.81-2.44c-1.56-3.35,2.99-15.05-.05-15.35-.87,7.18-2.96,13.49-11.25,13.58,3.49,2.35,17.69,15.75,20.29,16.25,16.5-6.22,34.35-1.83,51.17-8.52,4.19-1.56,7.82-3.84,11.95-5.38.28,2.23-2.31,3.22-3.85,4.1-13.98,9.58-41.83,8.82-58,9.96ZM128.27,145.38c-.22-.38-6.35-3.83-7.35-4.84,1.12,7.2-5.54,12.85,2.34,17.8.02-2.84,6.28-10.79,5.01-12.96ZM216.51,167.72l4.68-26.24c-2.95,7.64-5.24,16.9-6.48,24.92-.22,1.86.18,1.34,1.8,1.32ZM269.93,266.1c-1.05-8.69-4.97-17.1-9.92-24.28-37.73-29.48-74.89-61.67-114.44-88.93-3.34-2.3-10.93-8.23-15.14-5.63-2,1.23-7.55,20.28-1.56,22.31,1.51.02,4.37-17.21,7.96-18.72l-6.13,19.71c13.06,7.77,25.71,18.94,37.73,27.96,16.62-7.34,27.11-.4,39.2,10.4,25.69,17.77,13.73,26.14,26.76,36.02,10.65,7.11,23.96,15.28,35.54,21.15ZM215.57,171.47h-1.86s0,2.81,0,2.81c1.36-.31,2.15-1.51,1.86-2.81ZM331.15,214.28c-12.12-20.54,38.85-18.57,39.14-33.89.07-4.22-5.73-8.99-9.73-8.02-.4.1-5.21,5.85-5.27,6.25-.26,1.82,3.38,1.97-.11,4.52-3.09,2.26-6.56,1.62-9.29,2.9-4.4,2.06-15.53,11.84-21.11,15.44-19.62,13.87-43.4,24.66-61.29,39.63,4.29,7.47,11.13,18.86,9.25,28.76-1.83,1.81-12.85-5.72-15.09-6.93-4.06-2.2-8.39-4.11-12.44-6.3-2.08-1.13-2.64-3.89-5.51-3.5-12.89,4.05-30.29,25.05-45.23,12.07-3.14,5.52-4.4,12.44-9.33,16.88-8.77,7.91-30.2-2.23-31.43-.97,5.56,34.04-48.28,26.66-64.99,12.96-6.43-5.9-11.39-20.46-9.58-28.95,5.39-14.17,18.25-22.22,33.31-17.74,2.72-24.28,16.82-27.33,37.5-18.75-6.26-27.45,26.53-24.07,9.61-32.63-41.79,20.3-86.3,40.31-127.59,61.33-6.32,3.57-13.21,7.31-4.16,13.4,32.99,18.9,67.78,36.78,101.22,55.18,14.29-8.02,28.27-16.91,43.42-23.24-11.74,8.97-27.02,13.78-39.06,22.31-.95.67-2.43.9-2.19,2.5,19.67,9.16,36.3,26.19,57.47,10.6,0,0,165.14-101.96,165.14-101.96,14.67-13.93-16.42-14.38-22.66-21.83ZM199.78,186.32c.57.91,5.46,2.03,6.28-.47.86-2.62.7-8.41-2.4-9.52-5.07-1.82-4.81,8.5-3.88,9.99ZM195.88,186.46c-1.35-4.52-1.01-8.95-5.6-4.22l5.6,4.22ZM254,179.9c-.25-.24-2.31-.26-2.89.56-.24.34-3.02,7.58-2.72,7.87,2.54,2.51,7.51-6.58,5.61-8.43ZM223.93,197.61c1.06-.88,2.52-12.35-2.09-11.95-6.71,1.68-6.17,14.5,2.09,11.95ZM236.8,187.52c-3.1.85-7.2,10.33-.09,10.2,3.47-.06,5.26-11.61.09-10.2ZM370.22,187.4c-6.79,8.73-42.7,11.18-37.37,23.76,2.96,5.06,8.02-.87,12.67-3.01,9.87-4.54,27.37-6.34,24.69-20.75ZM208.07,213.62c-10.61-11.39-25.68-20.51-40.3-9.82,11.51.52,19.92,5.13,26.7,14.26,4.21-2.52,8.84-3.53,13.6-4.44ZM164.71,207.3c-12.1,2.06-14.5,13.61-10.1,23.71,12.28,10.87,30.18,16.29,39.06,30.29,29.82,17.7,21.82-19.85,9.69-33.12-9.51-8.1-24.56-24.09-38.65-20.88ZM225.94,244.5c.25-7.58-6.39-25.15-13.84-27.86-5.27-1.21-10.2.89-15.26,1.68,11.78,9.81,24.08,27.09,19.68,43.09l20.61-10.32c.46-2.18-.27-1.5-1.2-2.09-2.75-1.8-6.99-4.92-9.99-4.51ZM122.91,229.68c-9.32,20.74,89.8,54.65,61.24,26.14-13.75-10.71-43.31-34.4-61.24-26.14ZM142.46,255.81c-6.28-1.52-10.8-6.3-15.95-9.83l-7.47-10.79c-.19,4.36-3.29,8.16-2.9,12.65.42,9.61,20.43,12.36,26.31,7.97ZM359.91,235.19c-52.72,34.85-107.37,67.56-161.29,100.65-5.76,3.38-16.76,10.78-22.95,11.73-15.5,2.38-32.77-10.81-45.89-17.73l-1.39,1.37-.93,7.98c-.55-3.67.05-9.23-2.87-11.66l-94.15-52.05c-2.23,2.22,2.72,9.87-.45,10.3-1.88-6.53.48-12.19-7.05-14.98-.04,8.53-.48,12.48,6.72,17.65,40.44,20.99,79.79,46.56,120.27,67.17,16.05,8.17,22.06,10.52,38.73,1.2l166.48-105.3c4.95-3.52,4.71-10.79,4.76-16.32ZM149.03,278.3c-9.69-4.3-22.5-10.66-29.53-18.74-4.3-4.95-3.66-9.39-11.35-10.21-19.85-2.81-36.66,22.56-14.12,32.85,14.83,5.25,44.87,12.59,55-3.9ZM137.78,258.62c-5.47.48-9.67.56-14.99-.94,13.33,12.67,34.34,22.99,52.79,24.26,2-.63,2.94-5.68,5.31-6.46,1.07,2.42-2.91,3.99-2.8,4.21,2.87,5.69,10.42-7.87,11.23-10.32s-.86-.83-1.59-.65c-10.34,2.54-22.29-1.05-31.84-5.25-2.88-1.27-8.41-5.72-11.07-5.72s-4.8,2.93-6.79,3.45c-2.71.72-6.63.18-9.62,1.15l9.37-3.73ZM150.89,282.03c-12.83,14.04-37.97,9.22-54.15,4.95-4.56-1.69-8.5-4.97-12.38-7.76,0,6.74,9.99,17.03,16.41,16.94,2.89-.04,8.44-5.06,12.63-3.81-2.33,3.15-9.42,1.31-11.24,5.6,15.83,4.48,51.75,10.19,48.73-15.92Z"/>
  <path d="M82.47,111.49c-2.11-.26-3.38-9.08-3.73-11.23,2.85,2.38,3.91,7.64,3.73,11.23Z"/>
  <path d="M47.8,111.49c-1.88,1.97-4.91-5.83-3.73-7.49,1.62.3,4.03,7.18,3.73,7.49Z"/>
  <path d="M60.91,105.88c.31.3,2.06,5.49,1.88,6.56-2.43.21-5.12-9.63-1.88-6.56Z"/>
  <path d="M222.13,98.39l-6.55,3.74c.03-3.63,3.64-4.13,6.55-3.74Z"/>
  <path d="M106.84,104l-3.73-7.49c2.8,1.24,3.65,4.69,3.73,7.49Z"/>
  <path d="M243.69,102.13c.59,2.4-4.18,3.09-5.62,3.73l5.62-3.73Z"/>
  <path d="M112.47,147.09l-7.49-.92c2.37.83,6.39-2.11,7.49.92Z"/>
  <rect x="206.94" y="137.27" width="1.24" height="6.53" transform="translate(29.77 317.23) rotate(-78.92)"/>
  <path d="M275.55,122.74h-.92s-.94-5.62-.94-5.62c2.38.72,1.92,3.56,1.86,5.62Z"/>
  <rect x="206.95" y="140.83" width="1.29" height="6.55" transform="translate(30.51 324.4) rotate(-80.28)"/>
  <path d="M87.17,152.72l-5.62-.94v-.92c2.05-.06,4.89-.52,5.62,1.85Z"/>
  <rect x="230.38" y="146.45" width="1.29" height="6.55" transform="translate(44.45 352.17) rotate(-80.28)"/>
  <path d="M235.25,145.24c.13.12-.05.61,0,.92-1.91.04-3.7-.86-5.61-.94v-.92c.67-.32,5.17.53,5.61.94Z"/>
  <rect x="251.97" y="152.12" width="1.59" height="4.75" transform="translate(33.52 353.72) rotate(-73.7)"/>
  <rect x="264.41" y="157.27" width="3.65" height="1.93" transform="translate(-29.91 248.89) rotate(-47.75)"/>
  <path d="M262.43,111.5l-2.8-2.8c1.71-.32,3.11,1.03,2.8,2.8Z"/>
  <rect x="29.27" y="254.69" width="59.09" height="2.25" transform="translate(-111.13 55.76) rotate(-27.4)"/>
  <rect x="176.56" y="307.96" width="49.98" height="1.68" transform="translate(-128.76 144.87) rotate(-30.47)"/>
  <path d="M339.3,231.44c-11.66,8.58-24.37,16.34-37.49,22.47,11.79-8.26,24.51-16.21,37.49-22.47Z"/>
  <path d="M210.91,282.16c.05,3.5-5.45,3.5-5.39,0-.05-3.5,5.45-3.5,5.39,0ZM209.95,282.96c-.31-1.36-1.51-2.15-2.81-1.86v1.86s2.81,0,2.81,0Z"/>
  <rect x="300.93" y="232.01" width="13.01" height="1.67" transform="translate(-74.09 176.49) rotate(-28.74)"/>
  <path d="M233.38,278.29c2.18,2.11-3.7,6.28-5.61,1.39-.87-2.22,5.39-1.6,5.61-1.39Z"/>
  <path d="M227.76,270.79l-3.74,2.8c-.13-1.78,2.78-.03,1.18-2.31l2.56-.48Z"/>
  <path d="M313.99,195.82c7.71-7.07,18.69-8.73,25.3-17.79-1.14,8.91-18.13,13.79-25.3,17.79Z"/>
  <path d="M307.42,153.67l-3.26.92-14.54-1.86c5.94-1.26,11.83.67,17.8.94Z"/>
  <path d="M288.68,153.67c-.32,2.5-10.71,2.87-13.11,2.79l8.2-2.56,4.91-.23Z"/>
  <path d="M295.24,188.34c-.43,1.07-8.12,6.01-8.43,5.61-2.19-2.84,6.69-5.82,8.43-5.61Z"/>
  <rect x="345.53" y="167.86" width="7.55" height="1.52" transform="translate(75.93 443.79) rotate(-70.96)"/>
  <rect x="265.26" y="185.52" width="7.49" height=".94"/>
  <path d="M269,193.94c-1.75.25-3.25,0-3.75-1.86,1.75-.25,3.25,0,3.75,1.86Z"/>
  <path d="M353.36,166.77l4.68-6.55c.84,1.56-3.26,7.89-4.68,6.55Z"/>
  <rect x="255.88" y="195.84" width="4.68" height=".92"/>
  <rect x="168.71" y="350.44" width=".94" height="8.42"/>
  <rect x="153.3" y="175.12" width="1.61" height="10.67" transform="translate(-83.18 182.66) rotate(-50.04)"/>
  <rect x="168.84" y="187.45" width="1.53" height="9.35" transform="translate(-86.41 203.64) rotate(-51.14)"/>
  <rect x="252.38" y="246.75" width="1.47" height="6.74" transform="translate(-98.3 306.09) rotate(-53.71)"/>
  <path d="M247.44,246.42c-3.09-.52-6.74-3.02-8.43-5.6l8.43,5.6Z"/>
  <path d="M205.26,246.42l-3.73-10.3c3.73,1.9,3.91,6.67,3.73,10.3Z"/>
  <path d="M174.33,235.18l.94-4.68c-1.62,4.48,1.81,4.45,1.87,4.7.76,3.07-8.42,1.25-7.48-7.51l4.67,7.5Z"/>
  <path d="M200.58,258.6c-.48-.39-1.07-1.75,1.04-1.48,3.69.46,1.96-1.68,3.17-4.13,4.28,2.83-2.18,7.25-4.21,5.61Z"/>
  <path d="M164.02,216.43c-2.97-.25-2.09,3.99-4.67,4.7-.52-2.11,2.8-9.02,4.67-4.7Z"/>
  <path d="M187.46,247.36c-.1-.09-.73-2.43-.69-2.55.05-.14,1.1-.17,1.28-.55.56-1.18-.25-2.76,1.27-2.5,1.23,1.61.47,7.59-1.86,5.61Z"/>
  <path d="M194.01,231.43l-3.74-6.54c3.23-.18,3.56,4.28,3.74,6.54Z"/>
  <path d="M179.01,215.52c.13.12-.05.61,0,.91-6.17,2.1-3.88-4.57,0-.91Z"/>
  <path d="M191.2,237.05c-.45.97-2.24-2.52-1.86-3.74,1.8.46,2.11,2.07,1.86,3.74Z"/>
  <path d="M104.03,254.87l-6.55,4.2c1.42,3.27,6.17-1.26,7.49,1.4l-9.36.94c-.53-4.25,4.92-6.33,8.43-6.54Z"/>
  <path d="M96.54,270.8l.37,2.81,6.19,2.79c-7.58,3.22-11.16-6.79-6.55-5.6Z"/>
  <path d="M119.03,278.29c-1.13,2.78-5.76,2.53-7.49.45l7.49-.45Z"/>
  <path d="M129.35,279.23c3.49,1.37,4.75.1,7.49-1.88.06,3.93-5.81,5.45-7.49,1.88Z"/>
  <rect x="113.63" y="266.37" width="3.84" height="1.94" transform="translate(-81.31 52.71) rotate(-19.15)"/>
  <path d="M151.84,239.86l-6.56-1.39c1.86-2.62,5.46-.95,6.56,1.39Z"/>
  <path d="M135.91,239.86l-3.75-.94c1.06-4.99,2.01-2.03,3.75.94Z"/>
  <rect x="152.54" y="249.79" width="1.41" height="5.45" transform="translate(-142.13 254.57) rotate(-59.14)"/>
  <rect x="166.84" y="255.8" width="2.8" height="1.86"/>
  <path d="M177.14,258.61l-2.8-2.8c1.71-.32,3.11,1.03,2.8,2.8Z"/>
  <path d="M189.33,201.46c-.73,2.91-8.62,1.62-11.24,2.79,0-2.24,9.22-2.7,11.24-2.79Z"/>
  <rect x="317.74" y="134.92" width="12.18" height=".94"/>
</svg>