<?xml version="1.0" encoding="UTF-8"?>
<svg id="Layer_1" data-name="Layer 1" xmlns="http://www.w3.org/2000/svg" viewBox="0 0 332.46 438.15">
  <path d="M315.7,3.16c-14.77,3.83-29.95,8.51-44.92,11.43-19.61,3.83-39.69,4.91-59.44,9.85-9.24,2.31-35.1,17.78-42.58,24.2-4.39,3.77-7.23,8.93-11.31,12.97-.75,1.47,1.33,3.3,1.35,5.4.05,4.52-6.32,8.06-9.23,10.86,10.4,2.54,18.79-3.34,26.29-9.61,1.78-1.49,2.34-3.62,4.28-4.9,1.63-1.07,18.18-7.36,20.02-7.56,5.56-.61,14.02,4.82,20.19,6.38,10.91,2.76,22.61,3.06,33.03-1.55,2.12-.94,8.34-5.9,9.72-4.05,1.72,2.32-4.84,5.75-6.38,6.55-11.6,6.02-29.11,5.4-41.39,1.55-4.04-1.27-8.91-4.71-12.75-4.85-6.15-.21-14.24,5.52-20.46,6.76,1.12,2.27,5.24,1.42,7.55,2.03,2.18.58,7.12,3.01,8.76,2.92,1.87-.09,3.55-3.3,5.63-4.31,6.85-3.36,14.65-.7,13.96,7.69,5.76-4.56,14.78-3.51,15.7,4.81.28,2.56-1.72,7.61-1.4,8.9.4,1.59,4.24,1.3,5.65,3.48,1.89,2.93.21,6.8,1.09,9.76.23.79,3.13,3.78,3.58,3.78,1.56.01,23.12-15.25,25.86-17.41,7.31-5.74,13.19-14.8,21.58-18.48,9.73-4.27,28.64-5.91,39.51-6.49,2.99-.16,2.97,1.57,2.8,4.13-15.92,1.37-35.57.62-48.43,11.26-4.21,3.49-7.87,8.57-12.12,12.09-8.19,6.78-18.76,11.41-27.16,18.03,4.88,8.85,9.36,17.85,12.61,27.45,2.3,6.8,4.8,23.5,7.13,27.93,1.32,2.51,7.23,6.95,9.51,9.68,7.25,8.69,21.49,31.91,23.2,42.74,3.28,20.77-24.63,71.15-44.68,78.46-16.96,6.19-49.22,2.28-65.88-4.65-29.34-12.2-36-30.2-54.95-51.9-6.27-7.18-21.38-20.14-31.02-20.8-5.42-.37-14.34,4.17-17.44,3.82-2.24-.26-1.24-3.7-2.88-3.86-9.38,21.93-10.5,46.06-12.47,69.56l1.31,1.25c5.22.09,10.42.87,15.47,2.05,5.3,1.24,15.36,3.64,15.76,10.19l-14.47,127.46c-3.76,9.34-34.08,10.4-42.81,9.85-9.03-.57-28.69-2.59-29.49-13.91-2-39.14-11.81-80.42-13.45-119.24-.08-1.92-.35-4.75.16-6.5,2.29-7.83,31.7-10.23,39.06-10.61,3.36-26.24,8.18-57.51,25.46-78.46,1.6-1.94,7.27-6.39,7.77-8.09.68-2.28-.09-5.47.28-8.07,3.51-24.5,21.22-56.66,37.48-75.2,8.75-9.97,23.41-25.53,35.03-10.46-.04-3.51.4-7.48,1.23-10.88,1.25-5.12,4.23-9.42,6.28-14.16-4.9.96-14.44-5.71-12.09-10.84.44-.97,13.19-12.24,15.45-14.6s4.06-5.65,6.23-7.96c6.21-6.65,23.7-17.01,32.23-22.03,20.28-11.96,53.71-11.96,76.89-16.61,13.89-2.79,27.5-7.38,41.35-10.4,1.3-.22,3.42,2.22,2.74,3.14ZM155.41,64.93c-1.57-.36-1.98.89-2.92,1.66-1.07.88-7.9,6.57-7.91,7.1-.09,4.85,13.95-4.23,10.83-8.76ZM208.54,70.03c-2.28.79-3.73,9.48.06,10.61,7.39,2.2,7.74-13.3-.06-10.61ZM196.32,74.95c-5.12-1.16-12.74-4.35-17.93-3.33-1.51.3-7.43,5.48-9.89,6.8-2.81,1.51-8.73,3.01-10.34,4.28-5.62,4.45-11.32,24.12-7.8,30.26.79,1.37,11.94,11.14,12.56,10.39-3.8-9.92-6.84-22.97-.36-32.5,1.22-1.79,14.52-12.78,16.47-13.58,1.7-.7,5.8-1.59,7.59-1.46,4.43.31,7.3,5.68,9.7-.86ZM212.18,84.13c-3.85.78-8.8-2.33-9.18-6.34-.19-1.96,1.35-3.76.42-5.34-5.02,4.28-5.66,10.54-8.32,15.89-3.62,7.29-10.15,14.6-17.12,18.74,8.06,13.59,17.22,4.79,24.62-3.74,5.07-5.84,8.43-11.34,9.59-19.2ZM224.46,75.89c-3.08.88-5.16,11.32.62,10.77,5.75-.54,5.58-12.55-.62-10.77ZM228.04,89.13c-3.5,1.39-7.19.27-9-3.1l-1-6.91c-2.7,7.8-3.55,15.91-8.77,22.54-1.8,2.28-12.14,11.87-12.14,13.76-.01,3.94,7.96,5.19,11.09,4.39s13.01-14.22,14.97-17.58c1.02-1.75,5.79-12.09,4.84-13.1ZM182.96,80.79c-2.36-1.83-9.12,6.44-10.82,7.96s-3.55,1.56-5.49,3.69c-5.88,6.47-2.83,12.29,5.77,11.68,5.46-.39,10.6-5.63,13.87-9.57-8.03-1.72-8.75-8.27-3.34-13.76ZM192.92,82.54c-5.43-6.08-15.28,6.97-7.83,8.25,4.83.84,6.59-4.33,7.83-8.25ZM232.65,93.31c-1.57.32-6.11,9.16-.85,9.2,4.08.03,3.92-9.82.85-9.2ZM234.72,104.99c-2.71,1.15-6.73-1.73-7.94-.92-.8.53-11.02,14.28-11.48,15.34-2.23,5.17,4.76,6.64,8.81,5.43,4.85-1.44,10.55-14.82,10.6-19.85ZM76.94,198.46c3.59-1.02,6.87-2.98,10.4-4.2,2.9-1,8.45-1.37,10.42-2.93,9.19-7.3,25.96-36.11,31.08-47.39,4.99-10.99,21.88-56.1-6.43-32.3-17.71,14.89-42.44,57.02-45.25,79.96-.28,2.3-.32,4.56-.23,6.86ZM174.53,107.58c-.44-.39-9.54.02-11.6-1.76-1.41,1.58,4.71,20.42,6.69,22.09,3.97,3.35,14.02,6.91,19.19,8.36,15.87,4.46,32.89,5.37,48.41,11.27.88-8.91-1.28-16.77-4.18-25.03-4.89,4.38-7.87,8-15.25,6.48-4.31-.89-5.73-5.15-7.01-5.57-2.87-.92-7.11,2.46-13.39-1.57-3.11-2-3.34-4.98-3.6-5.19-.22-.18-3.77,1.49-5.4,1.51-4.52.05-9.93-2.8-12.5-6.54-.9-1.31-1.21-3.91-1.37-4.05ZM258.93,160.07c-3.1-18.36-9.49-37.7-20.85-52.58.67,3.44-2.56,7.6-2.57,10.43,0,2,3.01,7.64,3.8,10.44,1.91,6.72,3.14,13.95,1.27,20.81,6.73,2.39,12.64,6.71,18.34,10.9ZM86.96,215.99c18.25-6.91,35.11,5.83,46.77,18.76,22.64,25.1,29.08,46.72,66.59,56.11,12.09,3.03,39.44,4.73,50.86.43,18.37-6.92,44.41-54.64,41.9-73.98-1.25-9.67-15.46-32.78-22.04-40.56-34.52-40.78-79.55-23.43-118.53-55.93-2.09-1.74-7.77-8.54-9.22-9.15-1.72-.72-1.16,1.18-1.23,2.08-.62,7.7-2.39,13.66-5,20.88-8.29,22.91-22.72,43.77-38.42,62.15,4.01-1.34,7.58-3.41,11.7-4.57,15.59-4.4,35.7-1.28,52.16-2.1,31.33-1.56,62.75-10.13,94.33-7.49,13.25,1.11,17.43,6.75,22.85,18.05,1.25,2.6,7.61,16.32,1.12,10.57-2.25-7.34-5.99-14.2-10.59-20.27-6.92,5.8-17.33,8.23-26.13,9.76-36.74,6.38-64.12-2.56-99.21-6.33-21.71-2.33-48.57-2.18-57.91,21.59ZM161.26,194.28c9.69.62,19.18,3.14,28.81,4.17,15.48,1.66,31.99,1.69,47.47-.1,9.81-1.13,21.92-3.22,29.73-9.49-.65-.96-1.61-1.19-2.63-1.53-18.2-6.03-76.94,2.74-98.78,5.29-1.07.13-4.44.29-4.59,1.66ZM41.04,308.63h22.12c.59,0,1.12-1.39,1.25-2.09.93-5.07-.31-13.57-.03-19.23.85-17.27,2.74-37.97,7.13-54.64,3.69-14.02,10.3-25.9,21.29-35.47-17.76,1.07-30.17,18.06-36.87,33.24-10.39,23.54-13.24,52.69-14.88,78.18ZM38.54,291.94c-1.74-1.77-30.06,3.81-33.73,6.62-.8.61-.76,1.32-.44,2.08,1.83,4.36,28.07,8.02,33.33,7.17l.83-15.86ZM67.75,307.8c4.19.36,27.53-3.46,28.38-7.11,1.18-5.06-24.57-8.37-28.38-8.75v15.86ZM95.3,306.13c-28.36,9.59-62.46,8.82-90.99,0,5.32,40.1,8.55,80.7,14.13,120.65,4.54,7.14,33.43,7.64,41.42,7.07,7.38-.53,15.35-2.66,21.87-6.09l13.57-121.63Z"/>
  <path d="M14.1,258.7c8.12-1.65,15.77,10.28,16.74,17.18,1.21,8.61-3.8,1.86-6.22.35-3.79-2.37-11.85-3.83-14.04-6.83-2.77-3.81-1.36-9.7,3.52-10.69ZM26.01,272.74c1.26-1.25-8-14.75-13.14-9.8-4.85,4.68,10.28,8.49,13.14,9.8Z"/>
  <path d="M89.26,266.23c3.49-.51,6.37.76,6.85,4.5.92,7.16-7.28,6.78-12.25,8.52-1.67.58-5.32,4.37-5.81.6-.52-4.07,6.87-12.99,11.2-13.62ZM92.6,273.39c.67-.59,1.05-1.89.29-2.76-3.78-4.33-10.43,4.05-9.27,5.45,2.14-1.42,7.34-1.25,8.98-2.69Z"/>
  <path d="M229.3,281.92c1.73.5,1.8,2.86-.84,3.33-8.61,1.56-26.67-2.61-35.08-5.82-19.76-7.55-34.45-24.9-45.48-42.15.61-.6,1.04-1.48,2.08-1.27,1.25.26,13.27,17.22,15.86,20.04,10.89,11.84,32.76,25.86,49.27,25.86,3.19,0,11.93-.65,14.19,0Z"/>
  <path d="M286.48,221c-4.82,19.45-16.18,40.97-29.62,55.93-1.3,1.44-8.91,9.79-10.44,8.33,1.81-5.06,6.9-9,10.35-13.44,7.95-10.23,15.33-21.75,20.69-33.57,1.42-3.13,5-15.01,6.14-16.39.94-1.15,1.55-.94,2.89-.86Z"/>
  <path d="M120.78,211.81c2.97-.59,15.5,8.32,17.57,10.79.78.93,1.46,1.59,1.2,2.96-1.28,1.69-1.3,1.11-2.77.28-2.09-1.18-3.65-3.7-5.65-5.2-3.12-2.35-8.16-4.58-10.76-6.77-1.17-.98-.34-1.92.41-2.07Z"/>
  <path d="M76.73,423.6c-5.64,6.1-49.23,6.36-53.97-1.13-.5-.79-.72-1.56-.87-2.47-4.02-24.38-4.2-50.6-8.44-75.11-.56-4.89,5.81-6.53,9.73-6.95,18.6-2,31.69,16.37,52.07,9.48,6.37-2.15,13.7-9.74,3.59-11.88-.79-.17-10.53-.28-6.09-3.14,1.74-1.12,6.58-.07,8.57.66,5.17,1.88,5.87,5.17,5.64,10.2-1.1,24.11-7.46,49.83-8.43,74.2-.24,1.4-1.02,5.31-1.79,6.15ZM82.77,347.02c-6.02,4.57-13.85,5.64-21.27,4.99-15.3-1.34-28.13-16.24-44.57-9.06l9.06,77.94c1.26.77,2.6,1.37,4,1.84,8.15,2.78,23.55,2.76,32.23,1.8,2.01-.22,11.13-2.2,12.01-3.44l8.54-74.08Z"/>
  <path d="M39.37,316.97c.15,3.69.22,12.51-4.15,13.86-5.62,1.74-8.34-8.81-13.14-9.54-4.49-.69-4.7,2.97-1.5,5.71,1.69,1.44,8.13,3.45,5,6.66-4.32-2.94-13.81-6.06-9.63-12.99,4.4-7.3,14.83,3.15,18,7.13,2.71-1.14,2.32-10.27,2.93-10.84.18-.16,1.82.11,2.5,0Z"/>
  <path d="M64.41,317.39c.56-1.97,3.46-1.32,3.33.84-.7,7.26.74,15.37.55,22.4-.14,5.21-3.88.3-3.88-3.21,0-4.26-.85-17.05,0-20.03Z"/>
  <path d="M67.75,226.01c.72.7-5.7,16.37-6.44,19.01-2.18,7.76-3.5,15.82-4.57,23.81-3.62,3.89-3.43.06-3.08-3.08.93-8.35,6.02-32.07,10.87-38.38.77-1.01,2.35-2.21,3.22-1.36Z"/>
</svg>