<?xml version="1.0" encoding="UTF-8"?>
<svg id="Layer_1" data-name="Layer 1" xmlns="http://www.w3.org/2000/svg" viewBox="0 0 545.73 378.11">
  <path d="M215.95,143.72l48.17,32.16,1.74.02c12.68-7.58,18.14.44,22.65-17.38.58-21.36,4.79-23.38,15.86-40.91,4.85-8.83,5.18-13.87,13.19-21.15,11.74-10.69,29.12-26.14,42.75-33.64,17.58-8.22,21.34-7.1,31.98-24.79,4.19-5.38,8.76-10.42,12.77-15.97,4.48-5.19,9.96-19.79,15.55-21.24-7.8,18.6-21.34,33.33-32.94,49.4l4.56-.35c-8.02,6.35-17.83,9.17-26.76,13.89-14.95,7.9-33.65,23.54-46.12,35.18-7.11,6.64-7.73,12.14-12.16,20.07-3.88,6.94-8.4,13.56-12.71,20.25-.28,1.18.31,1.08,1.37,1.01.32,1.4-1.62.03-2.14,1.14-1.93,6.11-1.46,13.35-2.94,19.35-1.61,6.51-7.59,12.25-5.43,19.44,5.3-2.49,14.65-2.56,19.45-4.68,6.16-5.45,10.8-17.93,10.38-26.19-.3-2.2-2.2-3.53-2.49-5.57l3.85,4.89c6.26-5.36,11.62-15.18,13.54-22.94.38-3.24-2.43-8.24-1.27-12.08l2.1,9.1c4.15-2.58,1.91-7.12,2.1-10.16.16-2.56,1.21-5.44,1.41-8.06,2.34.6-1.06,8.67,0,11.21,2.83-1.61,8.84-21.96,11.9-25.22-1.85,15.52-10.93,29.26-16.14,43.77-2.75,7.64-4.98,16.19-7.5,24.04-3.6,11.24-9.12,22.27-8.59,34.49l2.67-6.78c2.77-7.87,15.27-4.77,15.42,2.91.04,2.03-1.39,4.53-1.28,6.68,2.18,2.81,17.24-35.97,18.3-38.11,9.96-16.07,17.49-33.28,25.86-50.18,3.03-.03-5.36,16.44-4.21,16.81,3.53,1.07,4.01-6.41,5.48-8.87.22-.51,1.37-4.11,2.23-3.37-3.07,16.58-11.33,33.08-18.11,48.46-6.85,16.49-21.94,30.61-22.55,48.57,5.35-17.07,25.63-8.2,16.12,4.56h1.41c14.29-18.88,26.51-39.17,38.67-59.44,4.89-8.42,8.14-31.27,17.4-34.1-8.15,11.93-10.04,26.98-16.7,39.7-5.01,9.56-13.64,22.1-19.73,31.43-5.41,8.28-11.15,16.33-17.15,24.19-1.39,4.33-.01,8.47,4,10.65.56.31,2.73,1.26,2.62-.16-13.11-4.94.7-22.19,10.13-13.98,4.18,4.54-.88,10.28-3.82,13.97,1.31.31,1.67-.73,2.45-1.39,14.11-13.52,28.33-34.47,38.78-50.93,7.2-12.03,9.16-27,18-38.06l-1.05,4.2,4.2-2.8c-8.65,8.7-10.23,21.74-15.41,32.59-6.73,13.03-19.84,30.48-29.44,42.04-.14.3-.18,1.15.34,1.04,4.49-3.2,9.12-.71,7.9,5.1-.43,2.06-2.73,3.46-2.3,5.41,22.46-20.57,39.41-50.31,54.45-76.61,8.5-15.37,7.92-27.68,9.06-44.19.58-8.31,5.74-13.81,9.41-20.73,8.33-15.71,21.17-36.3,33.7-49,4.68-4.74.51,2.69-.83,4.78-13.52,19.59-32.65,41.81-38.83,64.89-.89,16.86-2.64,33.27-10.52,48.68,5.79,3.74,89.68,31.09,89.01,37.15l-91.34-35.09c-16.73,25.31-30.2,56.62-55.74,74.45,1.22,11.15.37,22.49-6.12,32.81,20.77,18.46,46.73,38.58,61.38,62-36.34,5.35-85.2-18.05-118.24-33.14-7.95-3.59-18.2-12.26-26.16-13.44-.34.35.33,4.62,0,5.81-.24.87-6.82,3.85-7.95,3.82-2.76-.08-4.81-3.38-7.48-2.98,4.73,3.39,24.14,13.25,24.51,18.96-1.35,15.59-16.8,5.31-25.92,3.82,8.07,17.29-13.29,16.41-24.14,13.99-1.79.28-4.35,4.07-6.77,5.2-7.79,3.38-18.6,1.6-26.77,1.11-13.24,18.67-46.57,15.96-65.23,7.62-20.01-7.73-47.53-43.25-11.67-49.66-6.39-13.3.57-26.01,16.12-23.82.15-16.07,14.5-13.44,21.78-12.21,1.69-1.14.87-8.06,7.3-8.82,12.38-.69,36.91,6.44,43.97,17.38,9.71.84,10.52-1.69,20.18,5.76-.44-2.9,2.38-9.59.7-11.55-22.55-13.54-43.53-29.41-65.53-43.78-60.55,24.25-122.04,46.2-183.09,69.21-3.95,2.33-8.13,3.86-9.7,8.52-1.44,4.26-.75,15.78-.32,20.68.75,8.62,4.47,10.45,10.99,14.95,26.25,18.09,54.59,33.53,81.04,51.42,12.42,9.16-11.37-3.71-13.48-5.45-25.48-15.06-49.88-32.06-75.08-47.57-7.68-4.85-6.87-20.65-7.02-28.77.97-13.3,9.52-15.47,20.18-19.77,56.61-22.32,115.41-43.74,172.98-63.93,3.07-.92-1.92-3.06-2.87-4.17-5.48-11.07.25-30.91-11.17-39.97-3.86,15.17-29.38,16.24-31.2-.71-8.45,8.7-27.11,7.73-30.16-5.59-9.41,2.56-18.03-2.36-21.71-10.87-16.69-2.83-21.7-17.27-28.59-30.28-2.09-3.83-4.84-5.54-6.41-10.4-.45-1.4-.56-5.03-.74-5.22-15.44,3.89-18.71-25.48-10.51-33.98,8.54-6.43,5.81-1.35,7.06-14-.27-17.26-27.04-28.62-35.09-41.71,10.41,6,32.24,22.42,37.28,35.25,2.2,5.36.07,11.37-.13,16.96.3,25.18,2.67,44.8,18.63,65.45,3.89,5.79,8.87,13.06,16.14,14.71,1.1.25,1.09.11.96-.95-3.34-7.92-3.27-19.2-7.1-26.55-.57-1.1-2.83-2.28-1.64-3.27,11.03,5.79,7.13,32.85,18.63,40.24,2.01,1.32,11.93,4.12,12.4,1.48l-5.1-38.22,1.76,3.5,1.39-2.09c2.81,13.83-.09,35.12,9.85,45.86,4.78,3.17,18.52,2.6,21.74-2.72,1.71-2.82-1.75-17.35-2.14-21.78-.51-10.13-3.01-25.84,3.49-33.97-4.56,14.87-.72,34.23,2.86,48.67-.03.41-1.39.34-1.39.68.06,2.5,1.28,8.66,2.19,11.11,3.58,9.66,19.44,9.12,23.49-.02,6.71-15.12,2.51-41.78,1.55-57.95.59-13.94-.98-27.88-2.77-41.72,4.75,8.72,4.4,19.39,5.63,29.05.71,9.01-1.89,22.2,5.24,29.1,5.99,5.11,21.43,16.85,29.07,19.63,1.97-3.19-.49-4.29-.54-4.55-.08-.37.55-1.13.06-2.24-.34-.75-6.71-10.66-7.2-11.1-2.9-2.55-.03,3.88.32,4.58,1.63,3.21,3.36,5.28,5.97,7.69-3.84-.36-8.85-9.05-8.41-12.21.14-1.02,1.26-1.74,1.26-2.73s-1.33-3.81-1.63-5.36c-.26-1.38-.76-7.44-1.03-7.73-.25-.26-3.32.17-4.2-.01.94-1.94,3.36.89,2.68-2.32-.49-2.27-1.87-2.83-4.08-2.59-.16-1.57,2.6.31,2.08-1.72-.88-3.49-6.1-11.68-7.83-16C183.13,48.67,141.75,32.29,126.2.12c.71-.76,3.3,2.2,3.86,2.79,4.42,4.64,7.89,11.02,12.24,15.8,14.52,12.73,38.18,34.52,47.11,51.01,2.42,5.27,3.77,11.5,6.06,17.07,2.62,6.39,7.61,13.79,9.57,19.87,1.6,4.97,1.55,10.37,3.53,15.39,2.93,7.4,12,13.2,7.38,21.68ZM55.4,63.89c-11.21,2.82-8.52,36.75,4.26,30.43-2.25-9.97-4.27-20.14-4.26-30.43ZM189.28,127.66l-7.7-4.91.7,9.11,7-4.2ZM366.44,138.68c.56-.46,5.86-11.3,3.33-12.42l-8.05,13.66c.67.52,4.45-1.02,4.72-1.24ZM280.4,190.72l-87.66-59.88c-3.96-1.41-7.91,2.28-9.75,5.58,3.68,2.64,7.63,4.97,11.27,7.65.37.27,2.54.74,1.32,1.8-.75.66-11.62-7.52-13.31-8.41l-2.14,20.68c12.39,9.34,8.51,26.85,11.61,40.27,18.69,14.53,38.68,27.25,58.18,40.65,2.21-.02.37-.71-.16-1.25-20.44-20.83-2.97-45.1,22.22-48.14l-66.86-45.19c-12.36,1.44-9.09,25.56-9.57,34.7-.54,2.53,3.46,20.14,1.44,19.24-1.54-10.78-9.98-60.18,10.48-54.28,2.8,1.1,70.48,50.3,72.92,46.57ZM365.22,140.98c-8.82.79-17.74,29.37-21.73,37.12l4.14.66,17.59-37.79ZM316.86,158.49c5.49-1.07,4.9-8.93,7-13.31-6.66,6.85-5.7,4.23-7,13.31ZM318.95,159.19c-.31-.3-2.32.49-2.62.88-.65.84-2.8,7.74-3.89,9.78-.49.92-3.78,5.06-3.3,5.45,1.15-.59,4.03.84,4.19.71.7-.54,4.28-14.72,5.61-16.82ZM266.39,176.71c1.16,1.76,9.31,7.61,10.57,7.37.72-.14,6.23-3.14,6.23-3.52-3.09-2.73-.24-6.84.01-10.16-4.21,3.43-11.27,5.72-16.82,6.31ZM312.65,178.11c-11,.8-23.69,2.16-32.94,8.4,22.49,1.01,46.39,20.07,57.83,38.54,13.02,9.44,33.78,22.91,46.62,33.31,5.13-8.99,6.82-19.54,6.3-29.81-5.68.8-8.7-.82-11.57-5.59-7.33,10.43-23.83,9.51-24.19-4.92-5.25,1.81-8.38,3.08-13.55-.12-13.5-8.34-1.75-26.53,4.42-35.98-.72-.69-2.25-2.3-3.12-1.03-2.15,3.15-3.68,8.96-6.13,12.8-13.36,19.35-30.81,3.87-23.69-15.61ZM321.57,183.15c-3.04.67-6.33,8.15-5.65,10.95,1.22,4.99,10.1,7.37,12.99,2.02,3.62-6.68,1.28-14.88-7.34-12.97ZM332.98,221.55c-11.88-14.84-29.68-29.57-49.06-32.22,0,0,17.47,10.21,17.47,10.21,5.31,3.81,26.11,19.37,31.6,22.01ZM277.95,192.12c-3.14-.4-6.93.29-10.16,0,31.76,6.97,74.34,38.33,63.09,75.68,21.13-31.48-24.85-69.04-52.93-75.68ZM256.57,197.73c30.6-3.11,82.37,40.58,66.95,73.58,29.43-26.54-36.93-86.96-66.95-73.58ZM300.04,262.9c2.44-.3,4.42,5.76,7.07,7.29,7.96,6.35,15.93,2.81,17.28-7.12,3.92-28.79-38.9-65.5-66.08-63.26-23.83,2.58-15.34,41.64,3.88,39.61.9.54,1.96,3.76,4.2,3.86l2.07-10.47c-2.99.02-9.62-5.3-11.57-1.43-.75,1.5,1.61,4.67-.65,4.18-4.87-1.06-5.63-12.88,3.48-13.35,2.22-.11,8.5,1.2,9.8,2.89,5.18,6.75-8.27,32.23-4.88,37.82.78,1.28,14.44,7.65,17.14,10.19,1.59,1.49,1.8,3.24,3.29,4.42.98.78,9.52,4.85,10.07,4.29-.53-5.15,1.47-10.77,1.47-15.76,0-5.56-2.81-18.56-.61-22.96,3.47-7.37,21.51,16.44,14.47,22.17-3.65,4.67-3.64-5.24-4.91-7.52-1.57-2.83-5.95-5.21-8.31-7.45-.53,6.01.9,11.91.72,17.9-.14,4.69-1.92,9.67-1.08,14.33.72-1.08,4.38-1.72,4.59-2.57,1.04-4.32-.41-12.6-1.43-17.05ZM351.73,215.77c1.22-1.18,4.09-8.67,3.56-10.52-.71-2.5-7.09-5.31-9.73-4.42-1,.34-5.7,5.66-5.99,6.7-1.62,5.76,7.99,12.27,12.16,8.24ZM367.14,211.19c-9.74,2.7-8.35,13.71,1.14,15.12,1.88-.37,6.86-8.69,6.74-10.66-.2-3.49-4.9-5.04-7.88-4.46ZM390.28,212.61c-1.93.51-5.9,4.47-5.88,6.5.02,1.66,4,5.28,5.73,5.24,3.44-.07,9.57-14.24.16-11.74ZM389.05,225.07c-3.18-1-5.17-3.99-5.95-7.01-5.43,4.65,5.49,10.03,5.95,7.01ZM444.43,320.35c-32.92-39.5-74.53-70.37-117.05-98.8-.66.68,3.74,5.57,4.56,6.29,29.38,20.67,60.09,41.81,85.85,67.28-28.23-21.77-54.91-45.82-85.17-65.16-.99.41-.04,1.33.21,1.89,10.68,20.48,8.04,43.16-19.1,44.32-.6-.08-5.17-2.63-3.18-.33,41.9,20.75,86.06,43.87,133.87,44.5ZM260.07,227.86c.31-.32-.29-3.69-1.04-4.2-2.4.84-.26,5.54,1.04,4.2ZM262.18,223.66c-.11-.1-.96.04-1.4,0v4.2s.69,0,.69,0c-.31-.93.91-4.01.71-4.2ZM264.28,228.56l-.7-4.2h-.69c-.04,1.53-.39,3.66,1.39,4.2ZM255.87,227.16c-.3-.21-1.31-.82-1.39-.7v4.9c1.61-.37,1.23-3.06,1.39-4.2.93.65.37,1.54,1.4,1.4l-.7-3.49c-1.23-.18-.58,1.31-.69,2.1ZM267.08,229.96c.49-1.02-1.5-6.25-2.8-4.9.89,1.58.86,4.05,2.8,4.9ZM269.18,229.96c.24-1.85-.26-3.51-2.09-4.2-.38.83,1.61,4.86,2.09,4.2ZM260.67,241.26c-.71-.4-2.36.59-3.59.48-1.32-.12-2.83-1.83-4.01-.92l11.2,7.36c.97-1.17-3.26-6.72-3.61-6.92ZM260.78,274.11h17.52l-25.95-15.05c-7.8-2.77-18.01.67-25.73-2.31-1.8-.7-8.75-5.58-7.18-7.83,2.11-2.34,14,2.6,8.39,4.16,3.69,1.82,6.83,3.99,11.22,2.46-11.73-8.15-29.69-17.36-44.19-13.29,10.21,19.84,92.72,56.08,115.67,59.18-1.02-5.85-25.4-17.46-30.78-21.11-.57-.81,2.55-4.24-.02-5.14-1.06-.37-8.01.67-9.84.67,5.61,4.65,12.63,8.81,19.62,10.87-.3,1.21-3.61,1.45-4.53,1.43-4.09-1.05-24.74-8.55-24.21-14.05ZM298.62,246.78c1.06-1.12.73-4.01-1.39-3.49l.71,3.49c.23-.04.59.1.68,0ZM309.84,302.85c-30.73-6.26-98.66-33.8-116.35-58.87-5.7,22,90.87,57.92,108.64,62.71,4.88,1.23,5.59,1.26,7.71-3.84ZM299.34,249.58c.54.76,3.07-4.18,1.04-4.19-1.07,0-1.24,3.18-1.04,4.19ZM302.82,247.49c-2-1.4-1.36,3.29-1.38,4.19l2.09-2.1.35,3.5.98-3.06c-1.18-.29-1.91-2.43-2.04-2.53ZM190.51,250.46c-12.55-3.49-24.29-2.04-12.42,12.06,14.51,17.24,82.67,51.52,104.78,49.42,6.56-.62,1.92-6.77-1.51-9.01-1.15-.75-7.97-3.76-8.86-3.52s-1.38,1.68-2.96,2c-3.26,3.22-41.12-13.77-24.88-14.01-5.54-4.13-12.63-6.88-18.94-10.14-7.81-4.05-9.55-6.12-18.4-8.23-3.82-.91-11.21-5.99-13.06-9.43-1.06-1.97.53-2.04.33-3.05-.34-1.66-3.83-3.75-4.08-6.09ZM225.03,250.29l-4.2-.7c.57,1.8,2.71,1.42,4.2,1.39v-.69ZM306.5,250.14l-.97.17.89,4.99.97-.17-.89-4.99ZM225.03,251.69l-2.8.34c.91.85,1.46,2.03,2.8,1.75v-2.09ZM308.45,265c3.64-2.02,1.76-8.82-.7-11.21.06,4.22,2.43,6.83.7,11.21ZM285.31,313.36c-29.45,2.94-99.64-32.04-114.25-58.17-8.18,21.1,103.23,77.45,114.25,58.17ZM198.39,260.09c.01-.87-2.69-2.23-2.8-2.09-.8,1.01,1.42,2.71,2.8,2.09ZM201.19,261.5l-3.5-.7c.45,1.61,2.22,1.49,3.5,1.39v-.69ZM255.17,316.16c-23.44-6.9-45.37-20.01-65.96-32.52-6.41-2.47-16.78-5.21-16.41-14.4-.19-.55-4.17-6.53-4.53-6.7-2.6-1.26-8.72-.19-11.18,1.44-20.79,22.77,83.75,62.97,98.09,52.18ZM204,265c-.1-.27.21-.87-.1-1.27-.24-.32-2.48-1.04-2.69-.83-1.44,1.39,2.06,1.8,2.8,2.1.69,1.93.84,1.74,3.5,2.1-.44-1.64-2.29-1.61-3.5-2.1ZM303.72,270.43l-.71.71,2.8,2.8.71-.71-2.8-2.8ZM174.74,271.83l-.71.71,3.5,3.5.71-.71-3.5-3.5ZM258.67,317.56c-30.98,7.69-88.53-16.23-105.83-42.74.06,26.43,90.54,62.8,105.83,42.74ZM271.29,280.42c1.59-1.63-6.18-5.06-7.7-4.2l7.7,4.2ZM182.27,279.01c-.5-1.14-1.54-2.32-2.8-2.09.5,1.14,1.54,2.32,2.8,2.09ZM226.43,324.57c-8.35-1.44-16.42-6.7-24.85-4.19-10.06-.37-45.47-14.76-42.07-28.04-.18-.44-6.02-6.8-6.48-6.93-47.12,13.12,24.89,61.51,71.29,39.16-21.14,15.83-58.77,6.34-78.51-8.41,19.09,21.01,58.51,29,80.61,8.41ZM245.36,290.23c-.01-.44.77-1.33.7-1.4-1.71-1.75-5.24,1.84-.7,1.4.04,1.55,2,2.71,3.5,2.8v-3.5c-1.26-.08-2.22.57-3.5.7ZM252.36,294.43c.21-.22-1.1-4.19-2.09-4.2-.73,1.23.79,5.56,2.09,4.2ZM269.19,298.63c-4.22-3.17-10.42-4.93-15.42-6.99,4.16,3.77,10.16,5.47,15.42,6.99ZM163.34,297.23c.48-1.3-2.2-3.44-2.8-2.8v2.8s2.8,0,2.8,0ZM253.22,294.08l-.47,1.12,4.32,1.81.47-1.12-4.32-1.81ZM168.95,300.05c-3.09-1.04-3.2-3.74-7-2.1.51,1.71,3.61.59,4.9,1.4l-2.79,1.38c1.2.05,4.37,1.03,4.9-.68ZM174.56,304.94c.42-2.17-1.66-.99-2.63-1.56-1.31-3.61-2.96-.91-5.78-1.23,2.79,3.39,3.89,4.21,8.41,2.8l-3.5,1.41c1.02,2.53,3.1.84,4.91.7l-2.1,2.09c4.47,2.2,9.21,3.53,13.83,5.34.4.16,1.2-.4,1.46-.24.31.2.32,1.35,1.79,2.01,6.8,3.06,3.32-4.11,1.89-2.83-.31.28.46,1.67-.75,1.34.87-1.43-1.62-3.11-2.06-2.76-.29.24.5,1.64-.74,1.36-.68-2.83-2.83-3.42-4.91-1.4.15-1.12.89-2.07-.32-2.82l-9.5-4.18ZM204.7,318.95c-1.27-2.37-6.71-2.58-9.11-4.19.12.92-.46,2.26.42,2.88.67.47,7.45,1.35,8.69,1.32Z"/>
  <rect x="361.92" y="326.83" width="191.87" height="2.88" transform="translate(-100.54 253.5) rotate(-28.01)"/>
  <rect x="410.61" y="340.36" width="143.2" height="3.4" transform="translate(-105.23 275.38) rotate(-28.87)"/>
  <rect x="72.84" y="254.04" width="2.81" height="155.78" transform="translate(-247.61 221.94) rotate(-58.52)"/>
  <path d="M122.68,104.53c-1.75-1.09-1.62-3.54-2.65-5.4-2.48-4.49-7.17-7.55-5.75-13.51l1.97,6.08c2.33,4.17,6.49,7.64,6.42,12.84Z"/>
  <path d="M286.01,175.3c3-4.44,8.98-11.67,5.61-16.8,5.35.16-1.13,16.96-5.61,16.8Z"/>
  <path d="M74.33,107.33c-5.83-2.42-5.94-9.98-5.6-15.41l1.56,8.59,4.04,6.82Z"/>
  <path d="M406.58,104.53c2.91-5.82,6.5-6.37,6.65-14.01,3.42,4.83-2.99,11.13-6.65,14.01Z"/>
  <path d="M376.43,77.21c-.38,2.29-5.99-.89-7.45-.67-1.76-.09-4.96,1.66-5.86-.03,4.7-2.52,8.7-1.09,13.31.7Z"/>
  <path d="M95.35,104.52c-5.09-1.61-5.99-8.7-5.6-13.3l1.94,7.51,3.66,5.79Z"/>
  <path d="M170.36,147.98c-2.91,4.02-9.87,5.52-14.02,2.44,5.25.95,9.36-.21,14.02-2.44Z"/>
  <path d="M431.12,119.95c1.92-4.76,2.49-7.49,1.74-12.61,3.09,3.42,1.5,9.8-1.74,12.61Z"/>
  <path d="M387.64,150.08l-11.2-5.6c1.78-1.07,12.88,3.9,11.2,5.6Z"/>
  <path d="M349.8,133.95l-10.51-4.19c3.63-.07,8.32,1.15,10.51,4.19Z"/>
  <path d="M136.71,157.09c-1.38,2.99-7.52.37-9.81,0h9.81Z"/>
  <path d="M389.05,144.47l-9.11-4.19c3.25-.28,7.29,1.5,9.11,4.19Z"/>
  <path d="M158.85,78.92c3.07,2.78,4.15,6.72,3.79,10.89l-2.88-8.67c-1.05-1.52-4.9-2.64-3.78-4.63.79,1,1.94,1.58,2.86,2.42Z"/>
  <path d="M348.39,139.58c.22,2.44-8.77-2.32-9.11-3.51l9.11,3.51Z"/>
  <path d="M168.95,140.28c-1.66,2.37-5.92,1.1-8.4,1.39,1.68-1.95,5.97-1.25,8.4-1.39Z"/>
  <path d="M447.22,133.26l-.69-7c2.13,1.15.61,5.02.69,7Z"/>
  <path d="M408.67,169.71c.1.09-.03.46,0,.69-.58.27-3.88-.46-3.5-1.39.38-.17,3.28.5,3.5.7Z"/>
  <path d="M332.97,169.01c.1.09-.03.46,0,.69-.58.27-3.88-.46-3.5-1.39.38-.17,3.28.5,3.5.7Z"/>
  <path d="M412.88,160.58c-1.26.23-2.3-.95-2.8-2.09,1.26-.23,2.3.95,2.8,2.09Z"/>
  <path d="M402.37,167.59c-1.28.24-2.33-.77-2.1-2.1l2.1,2.1Z"/>
  <path d="M201.19,193.52c-1.16.19-.78-1.72-.72-2.47,1.26-12.48,2.09-25.22,4.93-37.46l-4.21,39.94Z"/>
  <polygon points="286.71 266.4 285.98 262.52 287.41 250.29 286.71 266.4"/>
  <polygon points="274.79 248.88 274.18 246.52 275.49 240.48 274.79 248.88"/>
  <polygon points="302.83 182.32 291.62 185.81 297.08 183.22 302.83 182.32"/>
  <polygon points="378.54 251.69 378.54 241.17 379.97 249.26 378.54 251.69"/>
  <path d="M384.14,246.78l-1.39-11.91c2.49,2.96,1.02,8.26,1.39,11.91Z"/>
  <path d="M373.62,248.88c-2.38-1.7-1.25-6.42-2.09-9.11,1.76.12,1.36,7.38,2.09,9.11Z"/>
  <rect x="386.95" y="233.47" width=".71" height="7"/>
  <rect x="299.82" y="186.35" width="5.33" height="1.04" transform="translate(-49.68 137.91) rotate(-23.79)"/>
  <path d="M251.66,263.61c.16,1.22-1.59.66-2.44.69-1.16-.07-8.7.86-6.66-1.4l9.11.7Z"/>
</svg>