<?xml version="1.0" encoding="UTF-8"?>
<svg id="Layer_1" data-name="Layer 1" xmlns="http://www.w3.org/2000/svg" viewBox="0 0 375.6 364.42">
  <path d="M298.5,0c2.33,2.25-12.34,55.91-15.4,62.82,2.22.81,4.75-.38,7.25-.45.95-.03,3.25-.54,3.02.89-13.68-.4-21.3,12.4-24.79,23.94,3.77-2.76,25.58-.74,26.5-1.71.31-.32.24-7.32,2.14-8.54,2.7,2.43-1.56,6.18-.43,9.4,20.76,2.47,33.3,15.99,41.46,34.2,1.1,2.46,3.17,5.98,3.79,7.49,1.43,3.48,1.13,19.09,1.78,19.84l4.27-.85-7.84,13.1c-3.28,8.14-6.96,17.42-3.71,26.22.62,1.67,3.64,6.05,5.27,6.7,4.55,1.82-.95-6.03-1.22-7.33-2.19-10.64,12.29-24.04,15.62-7.93,2.98-4.67,11.24-11.64,12.2-16.87,1.24-6.76-.7-13.89-.69-20.27.01-10.88,2.68-17.28-1.51-28.4-1.96-5.19-18.6-33.06-16.39-36.18l1.71.43c.64-11.49,5.59-22.34,9.84-32.9,2.87-7.12,6.43-15.8,9.94-22.54.32-.61,3-6.34,4.15-4.82.42.55-.16,3.29-.42,4.28-4.28,16.49-22.8,43.99-19.9,60.91,1.93,11.29,14.91,24.89,16.69,36.31,1.22,7.83,1.22,35.38.13,43.31-1.15,8.4-11.63,14.8-14.5,22.26-4.62,12.01-6.52,40.36-19.02,46.8-6.75,3.48-17.79,2.38-24.59,4.48-2.34.72-3.99,3.78-5.99,5.12-6.48,4.34-27.04,3.91-34.08,0-3.23-1.79-7.52-7.58-9.48-8.47-2.45-1.11-7.01-.15-10.29-.82-7.69-1.57-17.39-12.31-19.89-19.45-.38-1.08-.47-3.79-.69-4-.29-.28-5.28-.61-7.33-2.93-6.55-7.4,3.3-13.75,3.05-15.39-.41-2.65-10.01-13.4-9.31-18.53-1.21-.95-6.72,13.34-7.09,14.7-2.2,8.04-.97,20.23,1.34,28.24,2.93,10.16,14.17,10.11,22,13.05,27.93,10.49,32.58,39.66,11.97,60.25,11.61-2.02,23.41-1.85,30.77,8.55,4.31-6.37,3.73-11.51,2.57-18.8,12.25-.33,16,12.94,12.83,23.07,16.28-1.09,33.57,12.16,28.4,29.68-1.77,5.99-12.19,13.93-18.13,15.21-7.2,1.55-24.86-2.04-29.43,1.18-.75.53-.69,3.28-1.44,4.71-1.84,3.48-6.84,9.01-9.88,11.5-5.3,4.34-23.33,3.28-29.62.79-10.45-4.13,5.32-8.48,8.23-10.21,4.27-2.52,7.97-6.86,9.11-11.83-2.6.78-4.15,2.65-6.85,3.83-9.96,4.36-17.55,2.41-27.76,3.02-6.51.39-11.53,2.28-18.82,1.69-2.87-.24-5.62-1.86-8.46-1.67-3.49.24-12.58,5.83-17.8,7.06-13.8,3.24-29.54-1.01-41.14-8.97-3.36-2.3-14.36-12.24-7.43-15.68.98-.48,10.26,1.23,11.99,1.71,2.42.68,3.85,2.81,5.73,3.68,5.36,2.46,11.59,1.89,17.33,1.9-8.62-6.01-11.67-17-6.84-26.48-6.56,1.25-13.34-3.88-19.26-4.31-4.91-.36-15.32,4.47-18.76-.03-4.75-6.2,9.02-14.34,13.75-16.09,13.49-4.98,21.97,5.47,35.86,4.21,5.59-.51,12.42-6.77,19.2-6.02-4.83-23.57,18.8-23.48,33.62-13.53,1.44.96,3.11,3.32,4.02,3.74,3.05,1.39,12.79-7.11,14.95-9.86,5.24-6.69,8.6-19.12,3.45-26.54-4.91-7.07-15.14-6.86-22.43-10.06-20.77-9.11-30.49-31.51-23.78-53.17l8.12-26.49c-1.87.19-10.12-.8-10.24,1.27-.02.29,2.04,3.61,2.34,5.34,2.3,13.32-6.85,23.39-20.31,19.88,1.48,14.23-11.23,21.61-23.94,16.24.02,8.26-8.18,13.02-15.82,12.89-3.1-.05-8.53-2.38-10.95-1.82-.8.18-1.24,2.27-2.25,3.08-6.74,5.43-21.15,5.49-29.47,4.57-3.84-.43-13.91-4.97-15.34-4.85-4.76.41-10.15,7.07-18.96,6.71-11.8-.49-19.36-14.92-12.76-24.79,1.15-1.71,4.3-3.16,3.7-5.44-.28-1.08-3.78-3.87-4.89-5.45-6.03-8.53-8.79-17.82-18.36-23.53-6.37-3.8-13.94-4.85-20.26-7.95-3.61-1.77-3.66-4,.66-3.24,5.68,1,17.23,5.57,22.17,8.62,11.24,6.93,14.66,20.45,23.33,29.68,16.02,17.04,38.65,32.42,63.15,25.48,1.05-.3,6.42-3.01,5.27-4.54-.57-.76-14.91-4.16-17.1-3.43-.81-2.7,1.31-3.23,3.84-3.24,12.25-.05,36.13,16.02,41.11-3.63l-23.06-11c-2.23-4.08,2.34-2.65,5.1-1.83,10.77,3.22,30.71,20.71,39.57,6.31,1.99-3.24,3.08-8.2.53-11.35-4.2-5.19-20.08-11.06-25.22-16.67-1.99-2.18-1.91-3.48-1.66-6.45,1.56-.12.46,1.86,1.71,2.98,3.08,2.78,20.73,13.4,25.21,15.83,4.94,2.67,8.63,5.35,14.28,3.15,7.73-3.02,8.95-12.74,5.61-19.61-3.77-7.75-26.14-20.61-34-27.55-8.3-7.32-14.18-15.82-20.53-24.78l-6.81-7.29c6.83,1.32,11.16,8.55,14.96,13.67l.85-9.39,3.41,9.39c3.18-3.9,7.9-5.43,12.45-7.22,6.26-2.47,24.56-6.41,28.43-8.97,1.3-.86,5.8-7.59,8.29-9.88,5.78-5.3,15.8-8.82,12.45-19.26-1.93-6.03-5.37,1.75-8.14,3.91-2.33,1.81-5.89,3.64-8.89,3.57-6.43-.15-5.36.35-11.62,1.57-4.26.83-8.64,1.07-12.85,2.12l1.71,4.26c-2.65.45-2.24-3.29-4.62-3.37-3.95-.13-12.93,2.99-18.05,3.37-5.55.41-11.57-.47-17.08.02-21.82,1.95-45.54,12.81-68.17,7.43-11.62-2.76-23.32-8.04-34.85-11.32-1.05-.32-1.14-2.7-.88-2.96,1.71-1.69,34.36,10.98,39.98,11.74,20.55,2.78,43.38-6.49,63.16-8.22,5.36-.47,10.83.29,16.17-.08,9.61-.66,37.72-6.51,45.73-10.7,4.44-2.33,10.97-8.6,15.72-8.13,6.13.61,7.54,10.62,5.64,15.37.82.85,11.83-7.74,15.74-.78,2.21,3.92,2.71,3.69,4.65,6.47,4.16,5.97,7.94,13.44,11.25,19.96,3.64-1.5,6.99-4.11,10.8-5.86,2.28-1.05,11.12-3.68,11.86-4.39,1.13-1.08,4.4-11.71,6.54-14.83s6.31-5.6,7.92-8.33c3.87-6.55,8.3-25.73,10.51-33.94,2.75-10.2,4.98-20.62,7.09-30.96h2.56ZM189.91,69.23c2.35.98,12.81-5.93,11.1-7.68l-11.1,7.68ZM222.33,72.74c-1.75-1.54-12.79,4.46-15.03,5.76-24.68,14.29-17.04,26.13-30.36,42.31-4.49,5.46-8.26,5.67-13.03,9.09-1.03.74-.68.94-.11,1.77s15.68,11.33,16.67,11.57c1.99.49,8.15-1.47,11.6-1.39,7.29.17,12.8,5.92,16.63-2.09-33.02-16.7-19.08-55.86,11.99-64.53-9.97,7.24-21.64,12.19-26.3,24.56-.68,1.8-1.53,3.99-1.84,5.85-.14.85-.76,3.94.77,3.77.41-7.21,6.16-12.83,11.11-17.53,1.77-1.68,5.64-3.51,6.88-5.09,2.12-2.68,1.76-7.67,6.47-8.12,1.48-.14,3.24,1.04,4.19.03,1.66-1.77.8-3.89.36-5.96ZM254.89,128.22l-28.2-48.31c-2.25-1.48-2.35,2.4-4.01,2.94-1.77.57-4.13-1.31-5.27-.67-1.61.92-2.57,7.39-1.46,9.33l17.74,31.4c.85.18,5.81,1.06,4.95-1.09l-18.67-31.83c-.22-3.29,2.03-5.33,5.26-4.54,2.25.55,20.03,35.44,23.87,39.59.88,5.57.76,3.98,5.8,3.17ZM222.41,88.05c-.7.75,8.8,17.91,9.83,17.93.92.01,1.25-1.49.93-2.6-.29-1-6.99-12.1-8.01-13.38-.81-1.03-.98-2.33-2.75-1.94ZM322.14,102.02c-19.35-19.19-57.4-15.79-78-.3l7.81,13.7c5.09-2.32,9.62-.77,14.9-.88.51-.45-1.87-5.57-2.4-6.56-2.05-3.85-8.25-8.09-4.46-11.85,9.62-9.53,12.14,16.74,14.14,16.69,4.21-3.82,8.61-10.04,14.96-9.38-5.81,3.32-10.08,11.36-15.78,13.7-7.32,3-12.64-.73-20.13-.02,3.66,3.24,3.82,8.44,5.62,11.9,1.36,2.62,4.05,2.7,3.85,7.31-.26,5.96-7.05,7.12-8.21,9.87-.45,1.08.41,2.69.12,4.27-2.36,12.68-8.65,1.82-11.89,1.86-4.11.06-13.82,5.57-19.37,4.16.34,2.68-1.66,5.74-1.62,8.09.1,7.42,15.14,31.79,21.64,35.5,2.2,1.26,4.96,1.04,7.76,2.5s7.21,7.22,8.71,7.61c.92.24,6.77-2.08,10.86-1.52,3.27.44,10.54,5.18,11.14,5.05,1.03-.23,2.03-3.6,3.03-4.71,3.47-3.84,10.89-5.09,15.83-4.67,3.17.26,9.67,3.33,10.98,3.22.86-.07,6.33-2.98,7.35-3.71,2.95-2.11,12.98-14.04,13.49-17.17.44-2.7-.95-9.02-.39-13.33,1.31-10.17,8.73-16.96,8.36-26.76-.57-15.14-7.46-33.8-18.29-44.54ZM211.71,90.63c-14.66,9.17-24.63,30.43-7.55,42.57,11.21,7.97,13.04-5.36,16.63-12.99.78-1.65,3.92-5.47,4.04-6.24.21-1.39-11.65-20.27-13.12-23.34ZM183.07,98.31c-5.64.33-38.57,10.74-37.56,16.54.16.9,11.66,11.99,13.15,12.6,2.66,1.1,10.62-4.04,12.86-6.08,6.41-5.83,8.59-15.28,11.54-23.07ZM268.57,108.56c-.12-1.89-2.15-10.67-4.68-10.25-1.28.21-1.4,1.88-.09,2.64l4.78,7.61ZM247.19,128.22l-9.88-17.9-2.94-1.76c-.86.88,11.1,21.56,12.81,19.66ZM227.52,117.97c-1.93-.46-1.38.29-1.95,1.06-1.77,2.41-2.33,5.82-4.02,8.33l8.53-3.83-2.56-5.56ZM220.69,229.94c-3.61-4.15-8.15-9.21-9.68-14.68-1.42-5.11-3.48-19.87-3.04-24.96.74-8.59,6.38-16.92,9.46-24.73,4.24-10.73,3.49-18.63,13.59-26.59,2.39-1.88,13.42-7.02,13.6-7.78,1-4.17-10.24-4.96-13.05-4.48-21.1,3.62-32.62,37.08-36.66,54.81-4.94,21.72,4.36,41.22,25.77,48.4ZM238.91,145.97c-2.32-4.22,10.83-9.27,12.61-7.98.9.65.75,3.15,2.09,3.88,3.89-1.83,8.35-7.12,2.53-9.4-3.56-1.4-16.33,5.15-19.98,7.36-2.34,1.41-5.11,3.42-6.91,5.48l8.55-1.28c-4.22,3.7-11.95.57-11.96,8.12.75.69,13.99-2.06,14.46-2.63,1.76-2.17-1.27-3.36-1.37-3.55ZM250.61,152.15c.27-4.04-.24-8.07-1.27-11.96l-8.11,4.7c1.45,1.1,7.68,9.02,9.39,7.26ZM203.59,145.32c-6.77-.28-13.99-2.3-20.51.42,4.04,5.16,7.63,3.03,13.29,2.95,3.87-.06,6.43,2.66,7.22-3.37ZM346.39,193.19c3.73-4.09,10.91-12.96,6.71-18.26-4.67-5.88-10.27,3.89-10.85,7.78-.44,2.94,3.97,7.31,4.14,10.48ZM65.07,202.58c-1.54-1.97-14.08-13.43-15.08-13.61-3.82-.66-10.6,14.17-2.93,16.66,6.41,2.08,12.04-1.81,18.01-3.05ZM350.65,194.9c-5.8,4.52-12.64,1.89-15.81-4.27l-9.85,13.24c3.84.63,9.28,1.76,10.26,6.42-5.93-3.52-13.47-3.51-19.66-.84l4.27,6.82-12.59-6.64c-5.71-2.23-13.32-3.11-18.5.78-.84.63-4.13,4.65-3.96,5.42.66,3.13,7.48-.96,9.19-1.11,3.41-.3,10.59,4.94,8.36,9.26-.76,1.48-2.98,1.05-3.01,2.53,3.16,1.08,5.78,3.5,9.18,4.08,4.99.85,24.88-1.51,28.87-4.07,8.15-5.21,10.53-22.83,13.24-31.63ZM228.61,201.52c2.62,2.74,10.85,2.69,10.01-1.01-.18-.8-6.46-6.38-7.24-8.16-2.63,1.89-5.52,6.29-2.76,9.17ZM71.06,206.85c-4.68-6.45-7-1.21-11.98.43-3.59,1.19-7.44,1.05-11.1,1.71,7.55,6.51,15.48.69,23.08-2.14ZM260.02,227.37c-2.39-3.69-4.9-5.77-4.25-10.62.19-1.39,1.7-3.01,1.29-3.92-.18-.39-4.84-5-5.57-5.56-11.5-8.85-22.38,4.33-6.38,6.46,2.14.29,4.85-1.64,5.92.82.63,1.44.83,4.91.34,6.31-.61,1.72-5,1.06-3.3,3.08,1.1,1.31,10.42,4.54,11.96,3.43ZM308.75,234.23c-6.45-2.37-14.98-5.83-20.63-9.72-5.21-3.59-6.61-7.97-13.33-10.61-1.99-.78-6.28-2.1-8.28-1.89-1.27.13-6.24,2.4-6.78,3.6-3.95,8.82,8.34,2.95,10.96,3.22,4.1.42,7.88,9.38,4.38,12.06-1.37,1.05-4.7.09-3.93,2.04.57,1.43,5.35,4.52,6.98,4.99,4.35,1.25,22.52,1.11,26.58-.49.8-.32,3.66-2.21,4.05-3.2ZM249.77,216.27l-8.56-.85c1.79,5.31,9.06,8.02,8.56.85ZM288.25,219.67c4.18,1.05,5.07,4.81,9.84,4.35,6.32-.6.33-5.56-2.76-6.76l-7.08,2.41ZM260.88,222.26c2.31,2.91,6.36,8.12,10.5,7.52,3.17-.46,3.42-2.15,2.53-4.71-2.41-6.9-7.61-1.87-13.02-2.81ZM257.45,263.28c2.38-25.48-18.16-33.23-38.47-39.31,10.71,11.87,29.73,13.05,35.47,29.93,1.15,3.38.65,7.4,3,9.39ZM188.19,274.39c-5.17,4.08-3.87,10.6-.36,15.33,6.22,8.38,23.75,10.44,33.08,7.54,3.58-1.11,5.49-4.36,8.09-5.59,2.18-1.03,4.69-.8,6.84-1.71,19.68-8.25,24.58-35.65,6.23-48.06,7.36,20.6-8.05,38.11-27.37,43.17-9.6,2.52-26.06,2.34-26.52-10.69ZM218.12,280.37c-1.91-5.7-25.43-11.68-26.54-7.12-2.84,11.63,20.1,11.17,26.54,7.12ZM254.21,322.93c2.08,1.04,8.98-4.54,11.48-5.69,3.88-1.8,8.53-2.74,12.33-4.77,12.04-6.43,19.99-22.33,8.08-32.94l-1.23,10.72c-3.82,12.05-17.39,12.32-27.13,16.48-1.81.77-13.58,7.47-13.95,8.28-.63,1.37,4.27,3.24,5,4.39,1.36,1.12,3.18,1.25,4.67,2.02.54.28.56,1.42.76,1.52ZM241.21,293.19c2.7-.75,7.04,2.43,8.98,2.23.68-.07,2.59-1.74,4.32-2.19,5.76-1.52,8.77-1.26,14.11,1.2,2.42,1.11,4.29,4.98,6.78,1.76-6.45-8.77-18.78-8.33-28.39-6.18-.76.17-7.64,1.66-5.8,3.18ZM189.05,297.47c-2.98-6.6-5.06-7.89-11.71-4.44-4.72,2.45-8.07,8.47-7.08,13.85,5.03-5.16,11.53-8.74,18.8-9.41ZM160.84,297.48c-8.13,1.68-19.76-6.16-26.72-5.78-3.46.19-21.57,8.72-17.75,12.61,5.81.41,10.76-2.16,16.66-1.69,11.55.91,20.28,11.68,27.8-5.13ZM218.13,302.59c.48.46,10.36,1.52,13.05,2.77,2.44,1.14,8.04,7.31,9.6,7.21,1.37-.09,11.23-7.15,13.09-8.68.34-4.25-15.85-9.41-19.2-9.6-3.57-.2-6.78,3.58-9.97,5.04-1.93.88-3.49.99-5.32,1.53-.92.27-2.72.31-1.25,1.72ZM171.1,294.92c-1.2-1.12-7.52,5.34-8.52,6.43-7.2,7.86-14.86,18.57-6.74,28.91,8.69,11.06,21.44-1.54,31.51-2.88l-11.93-4.73c-7.99-7.96-11.02-17.77-4.31-27.74ZM268.57,300.03c-1.72-5.42-10.01-4.52-14.53-3.41,2.31,10.48,7.37,3.59,14.53,3.41ZM197.6,299.19c-6.54-1.14-23.5,5.33-25.31,11.93-.67,2.44,2.9,6.81,4.83,8.11,6.35,4.26,13.93,3.46,20.71,4.94,2.4.52,5.31,2.39,8.1,3.02,2.53.57,5.4.07,7.92,1.05-4.08-5.83-12.44-3.95-17.7-6.66-2.15-1.11-3.32-3.44-5.06-4.34-2.11-1.09-7.44-1.05-7.95-4.07-.4-2.36,12.47-11.85,14.47-13.97ZM316.47,312.01c-2.8,16.25-17.83,14.04-30.27,16.33-2.04.38-3.73,1.72-5.6,2.1-9.06,1.85-28.45-4.89-36.25-10.03-4.76-3.14-10.58-9.78-15.39-11.97-3.95-1.8-7.89-1.59-11.7-2.83-1.74-.56-3-2.41-4.87-2.83-10.91-2.45-18.1,1.99-25.05,10.07,5.3-.71,7.27,4.45,10.94,5.72,3.45,1.19,7.54,1.06,11.19,2.51,6.71,2.68,11.54,9.98,18.24,12.54s12.15.91,18.81,1.71c9.79,1.17,13.9,6.99,25.08,6.64,4.16-.13,8.91-1.8,12.78-1.82,9.44-.06,15.71,3.38,25.17-2.12,6.54-3.8,12.18-10.52,10.1-18.55l-3.2-7.46ZM284.82,312.85c8.74-2.46,17.48.21,24.25,5.93,3.35-2.14,4.73-5.89,3.97-9.77-.8-4.09-16.26-7.43-19.92-6.42-.64.18-6.53,9.12-8.3,10.26ZM306.19,322.26c2.2-2.06-9.53-6.42-10.89-6.63-3.32-.52-15.57-.5-17.19,2.07-.42.67-3.08,9.36-2.7,9.69,4.79.86,7.96-2.45,12.47-3.34,2.79-.55,17.47-1.01,18.31-1.79ZM274.56,317.99c-.87-.83-14,5.05-11.96,6.83,9.43,2.01,9.88,3.59,11.96-6.83ZM224.97,336.79c-4.93-5.9-12.06-4.89-18.31-6.05-3.62-.67-6.31-2.67-10.33-2.57-8.1.2-23.32,9.15-33.58,10.95-6.21,1.09-12.8,1.83-19.01.24,5.12,7.04,14.74,12.38,23.54,12.01,12.48-.54,27.47-14.58,40.16-14.58h17.53ZM144.04,344.19c-4.99-8.62-10.51-10.27-19.96-11.66,4.26,10.33,17.85,15.73,28.21,17.93l-8.25-6.27ZM246.34,338.51c-4.34.23-8.94-.36-13.25,0-2.65.22-5.07,1.52-7.71,1.69-10.08.66-22.94-1.84-31.2,5.13,3.38-.56,6.58.99,9.82.93,3.89-.07,8.04-2.24,11.99-2.63,10.05-.99,22.06,2.58,30.35-5.13ZM271.13,345.34c-5.78.73-10.56-1.2-15.73-3.36-4.7,8.49-10.65,13.95-20.17,16.6.79,1.29,1.84,1.02,3,1.28,5.21,1.14,19.86,3.02,23.55-1.23.75-.87.74-2.46,1.69-3.44,2.48-2.54,8.27-3.72,7.67-9.85Z"/>
  <path d="M127.49,173.52c-7.84,2.46-18.85-.48-22.22-8.54,3.05,1.83,5.94,4.44,9.41,5.55,4.33,1.39,9.88.19,12.82,2.99Z"/>
  <path d="M331.84,60.71l-23.08,2.54c.18-1.29,2.99-1.95,4.08-2.32,6.61-2.2,12.36-2.72,18.99-.23Z"/>
  <path d="M303.64,53.86l1.44-7.52,4.52-10.42c-.7,5.68-1.98,13.62-5.97,17.95Z"/>
  <path d="M142.87,134.21c-4.61-4.07-10.18-4.12-15.81-5.15-1.4-.26-1.47.55-1.28-1.68,2.45-2.01,19.78,3.99,17.09,6.83Z"/>
  <path d="M104.4,191.47c-5.83.41-12.2.28-14.54-5.97,2.17.1,3.06,2.05,5.12,2.99,3.44,1.56,7.37.29,9.41,2.98Z"/>
  <path d="M81.32,200.89c.87.89.12,1.78-1.29,1.72-3.17-.13-7.49-3.36-7.25-6.86,1.17,2.51,7.94,4.53,8.54,5.14Z"/>
  <path d="M185.63,163.28c-1.2,3.47-2.1,6.47-5.98,7.68-.41-.45,2.69-4.91,3.26-5.71.77-1.05.88-2.4,2.71-1.98Z"/>
  <path d="M366.04,159l-3.41-3.41c2.59-.4,3.81.74,3.41,3.41Z"/>
  <path d="M233.52,162.42c6.92,2.8,11.42,5.57,19.27,5.15,6.8-.37,11.93-3.69,18.14-4.93,10.83-2.17,19.7.24,29.29-7.48,1.1-.89,7.83-8.92,8.53-8.13-2.66,8.43-11.96,14.28-20.31,16.02-5.04,1.05-10.88.56-15.8,1.3s-10.08,4.21-14.83,4.84c-8.17,1.08-18.72-.29-24.3-6.76Z"/>
  <path d="M295.08,113.7c-3.77,3.5-4.71,8.95-8.6,12.34-4.25,3.7-11.39,6.08-17.05,5.6-.69-2.81,3.74-1.46,6.03-2.08,4.7-1.28,8.33-3.72,11.42-7.39,2.52-3,3.6-7.92,8.2-8.47Z"/>
  <path d="M315.6,141.89c2.89-4.62,7.15-8.39,8.95-13.69l2.15-14.5c2.3,9.77-.99,24.3-11.11,28.2Z"/>
  <path d="M299.34,97.45c.23.21,2.28,5.24,2.39,5.75.72,3.37.04,8.28-4.09,8.77,3.89-4.24,3.08-9.62,0-14.1-.11-.73,1.62-.48,1.69-.42Z"/>
</svg>