<?xml version="1.0" encoding="UTF-8"?>
<svg id="Layer_1" data-name="Layer 1" xmlns="http://www.w3.org/2000/svg" viewBox="0 0 147.38 60.05">
  <defs>
    <style>
      .cls-1 {
        fill: #fff;
      }
    </style>
  </defs>
  <path class="cls-1" d="M26.86,0L5.38,60.05H0L21.44,0h5.42Z"/>
  <path class="cls-1" d="M92.46,14.77v38.25h-4.85v-6.57c-2.06,2.51-4.38,4.39-6.94,5.66s-5.37,1.9-8.42,1.9c-5.41,0-10.04-1.96-13.87-5.89-3.83-3.93-5.75-8.7-5.75-14.33s1.93-10.22,5.8-14.13c3.87-3.91,8.52-5.87,13.96-5.87,3.14,0,5.98.67,8.53,2,2.54,1.34,4.78,3.34,6.7,6.01v-7.03h4.85ZM72.79,18.53c-2.74,0-5.27.67-7.58,2.02-2.32,1.35-4.16,3.24-5.53,5.67-1.37,2.43-2.05,5.01-2.05,7.73s.69,5.27,2.07,7.73c1.38,2.46,3.24,4.37,5.57,5.74,2.33,1.37,4.83,2.05,7.5,2.05s5.24-.68,7.66-2.04c2.41-1.36,4.27-3.2,5.57-5.51s1.95-4.93,1.95-7.83c0-4.42-1.46-8.12-4.37-11.1-2.91-2.97-6.5-4.46-10.76-4.46Z"/>
  <path class="cls-1" d="M147.38,0l-21.48,60.05h-5.38L141.96,0h5.42Z"/>
</svg>