<?xml version="1.0" encoding="UTF-8"?>
<svg id="Layer_1" data-name="Layer 1" xmlns="http://www.w3.org/2000/svg" viewBox="0 0 144.98 60.05">
  <defs>
    <style>
      .cls-1 {
        fill: #fff;
      }
    </style>
  </defs>
  <g>
    <path class="cls-1" d="M26.86,0L5.38,60.05H0L21.44,0h5.42Z"/>
    <path class="cls-1" d="M144.98,0l-21.48,60.05h-5.38L139.57,0h5.42Z"/>
  </g>
  <path class="cls-1" d="M70.96,3.55c1.09,0,2.02.39,2.79,1.16.77.77,1.16,1.71,1.16,2.8s-.39,1.99-1.16,2.77c-.77.77-1.7,1.16-2.79,1.16s-1.99-.39-2.76-1.16c-.77-.77-1.16-1.7-1.16-2.77s.39-2.03,1.16-2.8c.77-.77,1.69-1.16,2.76-1.16ZM68.58,18.86h4.79v37.19h-4.79V18.86Z"/>
</svg>