<?xml version="1.0" encoding="UTF-8"?>
<svg id="Layer_1" data-name="Layer 1" xmlns="http://www.w3.org/2000/svg" viewBox="0 0 22.18 22.27">
  <defs>
    <style>
      .cls-1 {
        opacity: .75;
      }

      .cls-2 {
        fill: #fff;
      }
    </style>
  </defs>
  <g class="cls-1">
    <g>
      <path class="cls-2" d="M20.83,10.9c.08-.06-.49-.66-.53-.78-.19-.52.35-.75.7-.41.1.09.93,1.22.99,1.34s.11.24.11.38c-.19,3.07.25,6.43,0,9.46-.07.9-.52,1.36-1.44,1.38H1.52c-.91-.02-1.38-.48-1.45-1.38-.24-3.06.18-6.43,0-9.53.03-.22.91-1.48,1.09-1.66.27-.26.76-.19.74.24-.02.35-.51.59-.57.95h6.6s.32.17.35.21c.35.34.2,1.3.45,1.74l4.62.02c.27-.09.15-1.43.5-1.76.04-.04.33-.21.35-.21h6.6ZM21.26,11.75h-6.74c-.37.73.08,1.8-1.06,1.91s-3.59.11-4.74,0-.7-1.21-1.06-1.91H.93v9.42c0,.18.3.27.46.25,6.57-.04,13.15.06,19.72-.05.06-.02.16-.16.16-.2v-9.42Z"/>
      <path class="cls-2" d="M3.89,9.74c-.08.49-.71.53-.78,0-.06-.46-.06-2.17,0-2.61.04-.27.33-.51.56-.64l8.36-.04c.54-.05.59-.76.89-1.16.14-.18.46-.47.69-.51,1.46.1,3.23-.19,4.64-.02.42.05.81.47.87.89.17,1.23-.12,2.82,0,4.09-.02.45-.7.5-.78.07-.08-1.24.1-2.59,0-3.81-.03-.39-.07-.43-.46-.46-1.3-.11-2.77.07-4.08.02-.58.37-.51,1.23-1.15,1.53-.06.03-.39.15-.42.15H4s-.11.1-.11.11c0,.66.1,1.81,0,2.4Z"/>
      <path class="cls-2" d="M5.51,4.41c-.03.33.16,1.06-.33,1.11-.72.08-.61-1.82.17-1.87l6.47-.02c.4-.06.43-.68.71-.98.11-.12.37-.28.53-.32.56-.13,2.71-.08,3.36-.03.34.03.72.11.91.43.2.35.3,1.1-.28,1.06-.49-.03-.3-.63-.5-.7-.96.09-2.24-.15-3.16,0-.45.07-.47.74-.78,1.06-.08.08-.41.28-.5.28h-6.6Z"/>
      <path class="cls-2" d="M12.84.05c.48-.07,2.39-.08,2.78.07.85.32.59,1.49-.09,1.14-.17-.09-.08-.34-.31-.39s-2.08-.04-2.33,0c-.35.07-.27.85-.94.97l-4.92.02c-.33.06-.03.55-.41.72-.74.35-.78-1.38-.06-1.47l5.12-.03c.24-.04.22-.34.33-.52.18-.3.48-.47.82-.52Z"/>
      <path class="cls-2" d="M13.62,15.43c.28.28.05.71-.37.76-.9.1-3.41.1-4.31,0-.64-.07-.64-.78,0-.85,1-.12,3.28-.09,4.31,0,.11,0,.29.01.37.09Z"/>
    </g>
  </g>
</svg>