<?xml version="1.0" encoding="UTF-8"?>
<svg id="Layer_1" data-name="Layer 1" xmlns="http://www.w3.org/2000/svg" viewBox="0 0 485.28 475.2">
  <defs>
    <style>
      .cls-1 {
        fill: #bcc398;
      }

      .cls-2 {
        fill: #0b0302;
      }

      .cls-3 {
        fill: #0c0908;
      }

      .cls-4 {
        fill: #fcf1dc;
      }

      .cls-5 {
        fill: #1c1919;
      }

      .cls-6 {
        fill: #ece8c4;
      }

      .cls-7 {
        fill: #190607;
      }

      .cls-8 {
        fill: #df9543;
      }

      .cls-9 {
        fill: #c0d2b5;
      }

      .cls-10 {
        fill: #370505;
      }

      .cls-11 {
        fill: #df9646;
      }

      .cls-12 {
        fill: #bfd4b8;
      }

      .cls-13 {
        fill: #e4ae47;
      }

      .cls-14 {
        fill: #e5ae47;
      }

      .cls-15 {
        fill: #d4a14e;
      }

      .cls-16 {
        fill: #340304;
      }

      .cls-17 {
        fill: #e09746;
      }

      .cls-18 {
        fill: #f6efd6;
      }

      .cls-19 {
        fill: #dfcdb3;
      }

      .cls-20 {
        fill: #360405;
      }

      .cls-21 {
        fill: #3d0b0f;
      }

      .cls-22 {
        fill: #f5efd8;
      }

      .cls-23 {
        fill: #1a0809;
      }

      .cls-24 {
        fill: #0e0a09;
      }

      .cls-25 {
        fill: #330305;
      }

      .cls-26 {
        fill: #d6cdac;
      }

      .cls-27 {
        fill: #e7b046;
      }

      .cls-28 {
        fill: #201e1d;
      }

      .cls-29 {
        fill: #d7deba;
      }
    </style>
  </defs>
  <path class="cls-27" d="M234.86,163.3c2.43-.76,6.04-.86,8.36.24,2.75,1.31,1.98,3.65,4.32,3.9,3.47.37,2.38-2.3,4.2-2.98.78-.29,4.23-.35,4.41-.15.23.26-.46,2.16.18,2.87.47.51,1.65.02,1.85.17,2.26,1.71,4.11,3.56,7.09,4.05-.43,4.69-9.56,11.14-10.17,14.69-.45,2.6,5.51,2.65,7.13,3.56.23.13,3.86,2.86,4.05,3.04.88.84,6.84,8.43,8.11,10.14.43.57.6,1.44,1.01,2.03,1.56,2.2,1.31,5.42,5.07,7.09,3.67,11.66,9.83,22.69,11.02,35.1,3.26,34.03-15.58,69.82-47.5,83.48-1.39.59-5.65,1.03-8.11,2.03.43-3.99-1.73-1.26-3.04-1.01-.41.08-1.92.07-2.03,0-.19-.13-.73-4.26-3.04-2.03-.22.21.74,7.82-2.02,5.07-1.69-1.69.94-5.96-3.06-6.08-.33,0-.69-.03-1.01,0,.47-2.71-.64-2.07-3.04-2.03,3.21-3.97,16.29-4.56,21.2-6.17.46-.68-.95-9.64-3.97-9.03-.12-.6.09-1.37,0-2.03-.63-4.82-.31-1.93-2.03-3.04-.67-.43-1.19-.87-2.03-1.01-5.97-1.05-3.89,7.12-5.74,8.16-5.06,2.82-18.03.58-23.65,2.99-1.32.09-2.79-.17-4.05,0,.01-.87-.73-1.43-1.01-2.03-1.91-3.96-2.19-2.2-3.04-3.04-.15-.15.12-.69,0-1.01-.2-.53.2-1.86,0-2.02-.81-.63-3.88,1.21-4.04,1.01.11-3.78,2.5-4.54-1.02-7.09-.43-.31-1.55-.9-2.03-1.01l-.51-.99-.51.99c-.65-.09-1.36.04-2.03,0,.18-5.09.97-5-3.04-7.09-.28-2.85-1.72-5.91-1.01-9.12.34-.29.62-.7,1.01-1.01,2.45.04,2.89-1.58,4.05-3.04.29-.37.69-.67,1.01-1.01,2.49-.63,6.21-4.64,7.09-7.09.74-.82,1.47-1.42,2.03-2.03.32-.35.7-.65,1.01-1.01,16.35-18.89,30.47-54.83,14.02-77.36-2.58-3.53-12.24-11.35-16.04-12.84-.79-5.19,2.23-2.3,5.06-2.03-1.09-8.92,3.86-4.93,8.43-6.05,1.1-.27,1.06-2.63,2.34-3,1.34-.4,4.05,1.38,4.44.95.34-.37-.56-4.87,2.03-6.08.13-.06.88-.06,1.01,0,1.34.62.8.99,1.01,2.03.18.88-.15,2.07,0,3.04,2.52.87,6.33-.68,7.1-3.04.97.11,2.13-.17,3.04,0,.17.03.56,1.02,1.34.85.92-.2,2.23-2.09,4.74-2.88ZM230.82,194.73c-.14-.14.09-2.1-.54-2.99-3.55-4.93-5.67,4.84-4.5,5.98.29.29,7.29,2.01,8.06,1.61,1.28-.66,2.41-2.63,2.04-4.09-.69-2.69-4.75-.2-5.06-.51ZM268.3,217.02c-.78-.79-7,1.05-6.07,4.54,1.29,4.83,8.58-2.01,6.07-4.54ZM274.39,224.11c-.43-.43-9.38-1.09-8.09,3.53.94,3.38,10.94-.73,8.09-3.53ZM255.8,253.63c-2.65.22-5.43,3.86-2.12,4.88,5.23,1.61,5.9-5.19,2.12-4.88ZM225.74,274.78c1.62-1.55-5.33-10.45-8.1-5.55-.42,2.15,6.31,7.27,8.1,5.55ZM275.4,286.95c-2.17-1.28-10.05,1.46-8.1,4.04,1.25,1.66,9.81.46,8.1-4.04ZM262.23,296.07c-8.6-.39-.81,8.59,1.5,8.1,3.82-.8-.82-6.06-1.5-8.1,1.29.06,10.19,2.92,9.12-1.51-.34-1.41-11.62-6.02-9.12,1.51ZM259.18,308.23c2.38-2.44-3.32-9.69-6.07-7.08-1.31,1.25,3.89,9.32,6.07,7.08Z"/>
  <path class="cls-25" d="M194.32,179.52c3.8,1.49,13.46,9.31,16.04,12.84,16.45,22.53,2.34,58.47-14.02,77.36l-1.01,1.01c-.56.61-1.29,1.21-2.03,2.03-2.33,2.58-4.7,4.53-7.09,7.09-.32.35-.72.64-1.01,1.01-3.83-.02-3.83,2.86-4.05,3.04-.39.32-.67.72-1.01,1.01-.2.17-1.36.59-2.03,1.01-11.74,7.48-29.11,13.4-43.03,14.23-7.89.47-30.38-.93-35.95-6.7-2.32-2.4-1.36-3.55-2.1-5.5l-1.01-2.03c-1.49-6.93-1.63-18.09-1.01-25.34,1.2-14.15,6.44-31.57,12.16-44.59.69-1.56,2.21-4.76,3.04-6.08.26-.42,1.86-.96,2.03-2.03.28.2,2.29-.16,3.56.96,2.64,2.33,6.24,8.82,9.62,4.6.35-1.63-5.76-6.49-7.14-8.08-1.11-1.28-.76-3.28-.96-3.56,15.3-14.89,37.41-26.47,59.33-25.37,3.14.16,15.11,2.06,17.69,3.08ZM116.28,268.7c8.36,6.74,26.69-2.55,34.75-7.31,9.84-5.81,19.96-13.99,25.57-24.09,2.73-4.93,10.2-24.23,4.58-27.92-2.46-1.62-7.44-.22-8.15,2.57-5.87-3.51-9.01-6.62-16.59-6-20.54,1.68-37.65,18.67-41.74,38.38-1.34,6.46-3.7,20.13,1.57,24.38Z"/>
  <path class="cls-16" d="M407.16,253.5v1.01c-.05.67.04,1.36,0,2.03-.12,2.01-.9,5.02-1.01,8.11-.06,1.68,0,3.38,0,5.07v5.07c-13.09,52.65-32.8,91.7-81.08,120.61-8.61,5.16-18.5,8.48-27.36,13.18-.16-.18-2.33-.42-3.59-1.96-2.4-2.93-5.32-6.59-6.55-10.2.99-1.57,2.82-7.45,5.07-10.64,7.46-10.61,20.07-17.92,17.23-32.94,44.1-25.34,66.05-76.32,73.99-124.66.33,0,.68.03,1.01,0,6.57,6.38,18.97,16.89,22.3,25.34Z"/>
  <path class="cls-12" d="M442.63,166.34c3.3,1.01,7.88,15.11,8.14,18.71,2.46,34.31-35.54,39.06-61.08,41.35-1.87.17-4.47,1.72-4.83,1.76-.33.03-.68,0-1.01,0-5.61.03-13.23-.67-19.26-1.01-1.36-.08-3.85-.83-6.08-1.01-2.09-.17-3.79-.89-5.07-1.01l-1.01-9.12c23-3.5,47.37-5.15,70.15-9.42,10.03-1.88,8.93-5.13-.71-4.76l-70.94,10.13c-2.36-.22-5.82-5.28-8.29-6.93-10.02-6.71-26.53-5.2-38.33-6.26-1.41-.13-6.11-.48-6.59-2,16.57-7.08,34.32-5.76,51.5-9.82,8.59-2.03,16.28-5.99,24.5-8.44,3.86-1.15,8.23-2.26,12.16-3.04,1.34-.27,2.55-.92,3.04-1.01,8.79-1.59,19.6-1.7,28.75-3.18,4.74-.77,22.37-5.72,24.97-4.93Z"/>
  <path class="cls-29" d="M475.07,51.81c3.18.52,5.26,4.22,6.63,7.06,7,14.53,2.27,32.83-1.56,47.67l-37.88,2.16c-6.01,1.09-11.99,1.8-17.39,4.91-11.14,6.43-11.38,19.45-18.75,28.89-2.51,3.21-16.85,16.96-19.99,17.61-3.56.73-5.3-5.11-7.38-7.43-3.98-4.44-8.1-8.29-14.16-9.66,2.06-2.74,6.24-3.75,9.03-5.65,6.15-4.2,12.53-9.56,16.67-15.76,1.69-2.53,3.85-8.86,5.74-10.48,3.36-2.88,14.73-6.78,19.57-9.82,8.99-5.65,18.43-14.31,24.97-22.67,1.98-2.54,7.43-8.87,7.12-11.63,4.75-1.29,8.76-13.04,12.15-14.71,1.68-.82,12.91-.87,15.21-.5Z"/>
  <path class="cls-20" d="M433.51,347.76c-1.08,23.12-6.58,40.48-16.22,60.81l-82.09,29.39c-10.15-7.28-19.29-10.83-29.39-20.27,10.87-2.12,21.63-5.29,32.03-9.07,1.59-.58,2.28-2.03,2.43-2.08,28.44-10.81,44.05-19.53,67.91-38.51.31-.25,1.61-.25,2.52-.99,7.72-6.24,14.39-14.06,22.82-19.28Z"/>
  <path class="cls-1" d="M357.5,56.88c-8.46,3.17-18.61,6.38-26.59,10.41-3.54,1.79-8.87,4.83-11.34,7.91-6.64,8.3-3.82,16.44-4.65,25.75-.94,10.52-6.06,19.46-10.13,28.9-1.55,1.13-7.01-5.88-8.6-7.09-3.42-2.59-8.25-5.23-12.66-5.07,2.68-5.87,7.31-11.07,9.81-17.04,3.06-7.31,2.08-15.84,3.91-20.41,1.22-3.04,10.24-12.61,13.05-17.35,10.2-17.19,10.47-32.4,15.79-50.59.29-.98-.66-2,.63-3.13,2.17-1.89,8.1-2.02,10.52-3.97,16.33,12.29,18.31,32.02,20.27,51.69Z"/>
  <path class="cls-8" d="M307.84,219.04c-5.44,8.05,2.56,6.51,3.05,8.64.28,1.24-2.84,3.36-2.03,4.52.13.19,3.46.49,3.87,2.68.24,1.27-1.26,3.39-1.52,5.08-.16,1.05.8,2.48.5,3.7-.45,1.84-3.35,2.37-2.86,4.77h5.06c.34,3.57-1.3,4.97-4.05,6.6,7.41.94-1.13,6.71,0,10.64l4.53-2.03c5.32,6.27-6.25,3.76-4.6,11.65.21,1.02,2.37.12,2.9.66.24.24,2.3,6.09,2.23,6.43-.61,3.2-6.2-.59-7.03,2.13-1.4,4.62,7.85,5.98-1.09,7.53.93,2.42,3.48,4.2,3.04,7.08-.85.83-6.5-2.54-5.89,1.36.1.63,1.31,1.39,1.43,2.18.58,3.73-3.66,1.8-4.75,3.15-3.23,4.02,3.77,3.56,2.12,8.51-12.87-4.12-7.1,6.05-8.11,7.09-.5.52-3.72-1.11-5.32-.79-1.49.29-6.95,3.79-1.77,3.84-.33.84.35,3.71,0,4.06-.77.76-4.52-1.15-5.52-.9-.85.21-4.16,7.99-5.64-1.14-.35-.37-3.36,1.86-4.04,2.03-1.35.34-3.53-.25-5.06,0l1.01,5.06c-3.35.83-4.2-3.09-7.09-3.03-.56.01-1.17.36-1.01,1.01-.31.12-.78-.14-1.01,0-1.39.81-2.24,2.33-4.05,2.03-.6-.67,2.08-4.37-4.59-3.06-2.74.54-1.92,4.11-5.55,3.06-.16-.41-.65-.75-1.01-1.01.16-.13-.11-1.47,0-2.03,31.92-13.66,50.76-49.45,47.5-83.48-1.19-12.41-7.35-23.44-11.02-35.1,4.57,2.03,18.52,4.2,24.41,5.53,1.35.3,2.51,1.47,2.95,1.56Z"/>
  <path class="cls-18" d="M447.7,67.02c.31,2.75-5.14,9.09-7.12,11.63-6.54,8.36-15.98,17.02-24.97,22.67-4.84,3.04-16.22,6.94-19.57,9.82-1.89,1.62-4.05,7.94-5.74,10.48-4.14,6.21-10.52,11.56-16.67,15.76-2.79,1.9-6.97,2.91-9.03,5.65,6.06,1.37,10.18,5.22,14.16,9.66,2.08,2.32,3.81,8.16,7.38,7.43,3.13-.65,17.48-14.4,19.99-17.61,7.37-9.44,7.61-22.46,18.75-28.89,5.4-3.11,11.37-3.82,17.39-4.91l37.88-2.16c-.34,1.31-.78,2.19-1.01,3.04-15.26,3.52-46.44-1.48-57.27,11.14-1.77,2.06-8.75,14.95-7.59,16.22,17.61-6.68,34.46-.27,51.68,4.06-.8,1.31-1.21,1.86-2.03,3.04-16.08-4.55-38.85-11.3-53.65-.44-3.08,2.26-4.4,5.57-6.66,7.53-2.49,2.17-15.69,11.31-16.22,12.17-1.98,3.23,1.73,7.63,1.53,11.14-.49.09-1.7.75-3.04,1.01-.11-2.37-.8-4.68-1.82-6.8-3.29-6.81-8-15.81-14.69-19.76-1.99-1.18-9.13-4.01-11.15-3.68-.63.1-10.99,5.38-11.42,5.85-1.65,1.79-1.16,3.76-2.05,5.05-5.35,7.78-25.49,24.78-33.87,29.47-4.4,2.46-6.19,1.36-10.14,2.03,8.35-6.37,17.74-11.53,25.81-18.27,2.87-2.4,13.26-11.98,14.77-14.63,5.79-10.14-14.46-5.29-19.31-4.1-15.94,3.91-33.97,17.78-47.56,27.44-3.86,2.75-10.14,7.47-12.23,11.59-1.62-.9-7.57-.96-7.13-3.56.61-3.55,9.74-10,10.17-14.69l34.51-34.94c.92-1.04,1.06-2.25.96-3.57,4.94.33,7.32-4.74,10.14-7.09,6.6-5.52,13.56-10.82,20.27-16.22l1.01,4.05c-.09.06.19,1.36-.73,2.03-8.09,5.94-15.87,8.48-16.52,19.76-.09,1.59-.18,1.73,1.52,1.51,15.92-10.34,33.06-18.55,48.64-29.45,1.32-.92,3.27-.74,3.57-.95l1.01,1.01c-17.04,14.09-37.8,23.28-56.69,35.03-1.6.71-7.6,9.04-3.63,8.55,10.35-3.83,21.19-7.29,32.41-6.03,1.51.17,2.68,1.89,4.09,1.94,3.35.14,23.78-11.23,27.61-13.91,13.06-9.11,21.22-19.76,18.51-36.72h3.04c1.02,3.57,1.37,6.29,1.02,10.13,21.52-6.78,37.71-23.78,50.67-41.55-.4,1.03,1,1.91,1.01,2.03ZM270.34,176.47l20.18-12.75c10.03-8.79,19.24-19.17,21.36-32.85-12.76,10.91-26.98,23.96-36.9,37.59-.82,1.13-5.33,7.32-4.64,8.02Z"/>
  <path class="cls-7" d="M287.57,324.45c.08-.21,2.23-1.4,2.93-.93l2.32,4.29,8.94,10.82c-.09.5-.1,1.55,0,2.03s.53.87,1.01,1.01c2.43,1.8,6.57,8.37,7.09,11.15,2.84,15.02-9.77,22.33-17.23,32.94-2.25,3.19-4.08,9.08-5.07,10.64-.12.19-2.76.06-4.11,1.74-3.78,4.72-15.04,25.06-16.66,30.69-3.4,11.75,4.4,15.33,4.59,24.88s-10.09,15.87-18.27,18.7c-.38-10.82,14.87-10.01,8.95-23.65-4.92-11.35-16.26-12.22-12.57-30.12,2.67-12.93,20.66-27.03,28.94-36.43,5.85-6.63,10.19-9.09,10.14-19.26-.01-2.79-.33-6.47-1.72-8.89-1-1.73-2.26-1.14-2.33-1.25-.31-.48-2.66-5.74-3.8-7.81-2.95-5.36-5.53-11.09-8.36-16.52.68-.17,3.69-2.41,4.04-2.03,1.48,9.13,4.8,1.35,5.64,1.14,1-.25,4.74,1.66,5.52.9.36-.35-.33-3.22,0-4.06Z"/>
  <path class="cls-23" d="M233.85,306.2c.01,1.48.57,2.6,2.03,3.04.09.65-.12,1.43,0,2.03.57,2.76,2.05,5.22,2.03,8.1-7.34.69-14.06,1.92-20.65,5.25-1.46.74-3.19.45-2.66,2.86-.16-.08-.82-.05-1.01,0-3.38.81-7.85,10.42-9.15,13.66-4.38,10.95-18.41,58.14-16.96,67.69,2.6,17.09,18.66,32.71-10.38,40.27-1.29-12.42,15.08-10.87,9.31-25.03-4.16-10.2-8.68-15.51-9.32-27.66-.06-1.11.32-2.56-1.01-3.04.1-1.33-.03-2.71,0-4.05.14-7.07-.25-14.22,0-21.28.07-2.02-.1-4.06,0-6.08.05-1.09.87-3.74,1.01-6.08.12-2.01-.17-4.08,0-6.08.28-3.35.53-6.78,1.01-10.14.45-3.12,1.19-9.95,2.24-12.49.57-1.37,2.04-1.39,2.5-2.04s.24-1.6.33-1.69c3.05-3.19,10.92-6.51,15.2-7.09,1.26-.17,2.73.09,4.05,0,5.19-.34,22.03.95,25.39-1.47,1.92-1.38-.12-8.4,4.01-9.68.84.15,1.35.58,2.03,1.01Z"/>
  <path class="cls-3" d="M181.15,301.14c1-.04,2.05-.06,3.04,0,.66.04,1.38-.09,2.03,0,.35.05.71-.07,1.01,0,.48.12,1.6.7,2.03,1.01.82,3.03-2.42,7.03,0,9.12-2.08,1.26-5.8,7.37-6.9,9.83-.79,1.77-2.56,2.6.82,2.34-.09.09.15,1.02-.33,1.69s-1.93.67-2.5,2.04c-1.05,2.54-1.8,9.37-2.24,12.49-3.46,1.8-2.59,6.11-3.04,9.12-.35,2.34-1.48,4.6-1.01,7.09-.67.04-1.35-.07-2.02,0-.05.67.01,1.35,0,2.03s-.1,1.46,0,2.03l-1.01,2.03c-.08.07-.07,1.58,0,2.03l-1.01,2.03c-.08.07-.07,1.58,0,2.03l-1.01,2.03c-.08.07-.06,1.54,0,2.03-1.45,1.75-1.96,4.89-2.03,7.09-.02.65-.08,1.39,0,2.03-1.32.49-.97,1.93-1.01,3.04-.07,1.66-.31,9.74,0,10.14l1.01,2.03c-.01.57.85,3.93,1.01,4.05-.31,2.04-.01,2.33,2.03,2.03.15.82-.23,2.78,0,3.04-.24,2.15-.13,2.27,2.03,2.03,1.22,5.64,3.77,12.07.89,17.61-1.35,2.6-14.4,13.29-16.02,8.11-.78-7.21,11.29-11.5,11.04-18.02-.18-4.72-7.74-15.03-9.85-20.61-7.28-19.24-6.03-48.14-4.29-68.67,1.01-11.94,3.11-19.14,15.42-23.1,4.51-1.45,7.33-1.56,11.94-1.75Z"/>
  <path class="cls-24" d="M248.04,339.65c5.61.27,4.72-3.98,2.03-7.08,6.01-1.23,2.34,2.8,7.09,4.04.74.19,2.39-.41,2.92.1,1.02.99,6.08,23.99,8.23,27.26,1.73.98,1.47,2.78,2.03,4.05.19.43-.13,1.42,0,2.03-6.06,7.59-14.73,12.66-21.82,19.23-6.18,5.72-25.59,25.69-26.77,33.02-1.57,9.8,5.94,20.99-5.43,28.02-1.83,1.13-11.54,5.13-12.87,3.84.04-7.61,10.83-6.16,12.13-13.75,1.83-10.7-11.16-16.75-6.78-31.07,7.64-24.95,47.26-25.49,44.2-52.88-.4-3.6-3.53-13.21-4.96-16.83Z"/>
  <path class="cls-4" d="M475.07,51.81c-2.3-.38-13.53-.33-15.21.5-3.39,1.67-7.4,13.42-12.15,14.71-.01-.11-1.41-1-1.01-2.03,1.58-2.16,5.79-7.55,6.1-9.62.22-1.52.1-1.8-1.43-1.43-7.49,1.77-17.4,5.8-24.61,8.85-8.67,3.68-26.13,11.32-33.52,16.17-.47.31-3.91,3.27-4.03,3.51-1.78,3.81,1.28,3.52,2.04,5.06,1.2,2.44,3.03,6.36,3.75,8.88h-3.04c-.27-1.7-4.1-9.61-6.07-8.1-.19.15-.51,3.38-1.04,4.28-3.39,5.73-10.2,10.85-15.19,14.97l-1.01-1.01c.87-.6,13.09-14.38,13.88-15.51.52-.75,3.84-7.67.84-6.77-4.64,1.39-17.53,9.1-22.49,11.97-8.34,4.83-21.3,12.14-28.71,17.4l-1.01-4.05c5.41-4.36,10.81-8.85,16.22-13.18,1.68-1.34,3.96-1.99,5.07-4.05,3.42-.5,5.63-2.73,6.08-6.08,2.14.33,3.55-.32,5.41-1.18,11.39-5.27,25.7-16.96,37.44-23.37,10.93-5.97,34.01-18.13,45.8-19.07,9.19-.73,23.37-.36,27.91,9.16Z"/>
  <path class="cls-29" d="M463.92,144.04c-1.16,1.67-1.73,5.13-4.03,6.61l-17.25,15.69c-2.6-.79-20.23,4.16-24.97,4.93-9.14,1.48-19.95,1.59-28.75,3.18.2-3.51-3.5-7.92-1.53-11.14.53-.86,13.73-10.01,16.22-12.17,2.26-1.96,3.58-5.27,6.66-7.53,14.8-10.85,37.57-4.11,53.65.44Z"/>
  <path class="cls-11" d="M417.3,408.57c-5.37,11.32-8.47,18.28-16.71,28.39-4.17,5.11-12.53,11.62-15.72,17.22l-23.31,3.04c-6.2-5.43-17.52-11.35-24.74-16.36-1.51-1.05-1.48-2.8-1.62-2.9l82.09-29.39Z"/>
  <path class="cls-26" d="M326.08,12.29c-5.32,18.2-5.59,33.4-15.79,50.59-2.82,4.75-11.84,14.31-13.05,17.35-1.83,4.57-.85,13.1-3.91,20.41-2.49,5.97-7.13,11.17-9.81,17.04,4.41-.16,9.25,2.48,12.66,5.07,1.6,1.21,7.05,8.22,8.6,7.09,4.07-9.44,9.19-18.38,10.13-28.9.84-9.31-1.99-17.45,4.65-25.75,2.47-3.09,7.8-6.13,11.34-7.91,7.98-4.02,18.13-7.24,26.59-10.41.1,1-.08,2.04,0,3.04-9.98,4.28-39.53,12.51-39.53,25.84v14.7l12.97-6.79c6.84-2.58,14.81-.33,21.49-1.31-1.1,2.07-3.39,2.71-5.07,4.05-11.09-3.36-23.86,1.33-30.17,10.88l-6.32,18.51c-2.81,2.35-5.19,7.43-10.14,7.09-.42-5.61-15.85-15.61-21.86-11.22-.35.26-5.18,6.44-5.3,6.86-.6,2.05.12,4.53-.44,6.66-2.9,11-9.28,22.34-14.97,32.16-.2-.15-1.38.34-1.85-.17-.64-.7.04-2.61-.18-2.87,3.93-6,15.5-27.5,14.03-33.75-1.31-5.58-10.24.14-12.95,1.89-11.04,7.18-17.96,18.71-22.36,30.85-2.52.79-3.82,2.68-4.74,2.88-.78.17-1.17-.82-1.34-.85,8.68-13.31,16.45-29.18,12.16-45.61.4-.53-1.11-2.88,3.04-2.03.07.78,1.95,3.17,1.02,5.07,7.42-7.69,14.13-17.02,20.09-26.02,6.36-9.61,12.31-18.13,14.92-29.68.57-2.53,1.71-7.81.45-10.19.49-.58-1-3.08,4.05-2.03.97,3.57,12.29,13.1,11.16,19.73.23,1.13,1.32.64,2.03.05,1.16-.96,7.85-9.63,8.94-11.33,9.07-14.15,12.57-33.64,15.37-50,1.29-.54,2.16-1.61,4.05-1.01ZM244,138.98c5.48-4.21,15.23-13.08,22.05-14.01,1.95-.27,3.8.97,5.28.37,2.54-1.02,14.62-16.88,16.43-20.11,6.26-11.15,8.44-23.91,3.04-35.86-1.14-2.53-4.27-9.27-7.29-6.82-2.81,25.95-24.33,45.4-37.97,66.35l-1.55,10.09Z"/>
  <path class="cls-17" d="M407.16,256.54c1.68.01,5.22,4.64,6.04,5.85,15.54,23.17,21.6,57.86,20.31,85.36-8.42,5.23-15.09,13.04-22.82,19.28-.91.74-2.21.74-2.52.99,7.93-32.23,9.35-68.72,1.17-101.05-.66-2.61.39-2.66-3.2-2.33.11-3.09.9-6.1,1.01-8.11Z"/>
  <path class="cls-29" d="M479.12,109.58c-3.69,13.19-6.1,19.87-13.18,31.42-17.23-4.32-34.07-10.74-51.68-4.06-1.16-1.27,5.82-14.16,7.59-16.22,10.83-12.62,42.01-7.62,57.27-11.14Z"/>
  <path class="cls-19" d="M247.03,98.44c1.12-9.71,28.47-51.28,35.66-61.13,10.78-14.79,32.46-47.52,53.86-34.17.93.58.6,2,.68,2.06-2.41,1.95-8.35,2.08-10.52,3.97-1.29,1.12-.34,2.14-.63,3.13-1.9-.6-2.76.47-4.05,1.01-2.03.85-3.1,1.22-4.98,2.62-12.1,9.05-22,23.62-32,34.92-.55,1.13-.84,2.84-.52,4.01-5.06-1.05-3.56,1.44-4.05,2.03-11.56,13.69-19.53,26.95-29.39,41.55h-4.05Z"/>
  <path class="cls-1" d="M358.51,86.27c-.45,3.36-2.67,5.58-6.08,6.08-6.68.98-14.65-1.27-21.49,1.31l-12.97,6.79v-14.7c0-13.33,29.54-21.57,39.53-25.84.66,8,2.08,18.43,1.01,26.35Z"/>
  <path class="cls-28" d="M110.2,209.92c-.83,1.32-2.35,4.52-3.04,6.08h-1.01c.68-2.87-.48-2.49-1.84-3.71-6.01-5.4-14.66-12.43-20.96-17.57-8.6-7.01-23.51.67-33.77,2.71s-21.54,3.49-32.12,4.37c-3.12.26-14.1,1.55-16.04,1.06-1.1-.28-1.76-2.99-1.24-4.07,1.56-3.29,8.05-1.72,11.2-2.05,22.15-2.34,43.22-5.61,64.8-11.07,13.44,4.37,21.78,17.44,34.03,24.25Z"/>
  <path class="cls-5" d="M117.3,201.81c.2.28-.15,2.27.96,3.56,1.38,1.6,7.49,6.45,7.14,8.08-3.38,4.23-6.98-2.27-9.62-4.6-1.27-1.12-3.28-.76-3.56-.96-2.08-1.52-12.67-18.53-15.79-22.21-12.99-15.31-46.57-20.21-64.52-30.74-4.1-2.41-3.33-5.26,1.25-5.41,13.83,6.6,28.53,11.24,42.55,17.35,24.53,10.7,21.31,12.54,37.01,31.91,1.64,2.03,4.42,2.8,4.58,3.02Z"/>
  <path class="cls-11" d="M340.27,406.54c-.15.06-.85,1.51-2.43,2.08-10.4,3.78-21.16,6.95-32.03,9.07-4.57-4.27-4.95-5.6-8.11-9.12,8.86-4.7,18.75-8.02,27.36-13.18,2.23,5.41,10.02,9.02,15.2,11.15Z"/>
  <path class="cls-21" d="M384.86,454.17c-2.47,4.33-4.35,12.06-7.57,17.26-5.54,8.94-5.73-.17-8.84-5.41-1.51-2.54-4.76-6.94-6.9-8.81l23.31-3.04Z"/>
  <path class="cls-10" d="M288.58,362.96c.05,10.17-4.29,12.63-10.14,19.26l-8.11-12.16c-.13-.61.19-1.6,0-2.03l18.24-5.07Z"/>
  <path class="cls-26" d="M238.92,121.75c-5.13,11.82-8.83,26.1-12.72,38.49-.55,1.76-.11,4.05-.45,5.09-.77,2.36-4.58,3.91-7.1,3.04-.14-.97.19-2.16,0-3.04,3.28.36,2.54.29,3.33-2.2,4.76-14.85,9.05-26.98,14.91-41.38h2.03Z"/>
  <path class="cls-5" d="M107.16,216c-5.72,13.02-10.97,30.45-12.16,44.59-3.44-4.81-1.61-13.69-.56-19.31,1.59-8.55,5.33-19.42,11.71-25.28h1.01Z"/>
  <path class="cls-19" d="M248.04,102.49c.09,4.84-4.71,7.55-4.05,15.2-4.15-.85-2.64,1.5-3.04,2.03-.51.67-1.8,1.5-2.03,2.03h-2.03c2.9-7.11,4.87-16.32,10.14-22.3,0,1.14,1,2.48,1.01,3.04Z"/>
  <path class="cls-15" d="M245,333.57c3.63,1.05,2.81-2.52,5.55-3.06,6.68-1.31,3.99,2.39,4.59,3.06,1.81.3,2.66-1.22,4.05-2.03l-2.03,5.07c-4.76-1.25-1.08-5.27-7.09-4.04,2.69,3.1,3.59,7.36-2.03,7.08-.73-1.86-2.06-3.5-3.04-6.08Z"/>
  <path class="cls-9" d="M176.08,368.03c-.25,7.06.14,14.21,0,21.28-3.07.57-1.95-1.55-2.03-3.5-.18-4.64-.16-9.63,0-14.28.07-1.95-1.03-4.07,2.03-3.5Z"/>
  <path class="cls-15" d="M243.99,330.53c-.11.56.16,1.9,0,2.03-.19.15-1.93-.2-2.96.54-1.75,1.27-1.73,4.26-4.68,4.56-5.01.52-2.57-2.71-2.5-4.09.87.05,1.48-.79,2.03-1.01,2.46-1,6.72-1.43,8.11-2.03Z"/>
  <path class="cls-1" d="M222.7,328.5c4,.11,1.36,4.39,3.06,6.08,2.76,2.75,1.8-4.86,2.02-5.07,2.3-2.23,2.85,1.9,3.04,2.03-3.12,9.59-8.02,4.93-8.11-3.04Z"/>
  <path class="cls-15" d="M180.13,284.92c-.71,3.22.74,6.27,1.01,9.12,4.01,2.09,3.22,2,3.04,7.09-.99-.06-2.05-.04-3.04,0-.16-2.34.23-4.77,0-7.09-6.92-3.6-1.99-2.46-3.04-8.11.67-.42,1.83-.85,2.03-1.01Z"/>
  <path class="cls-9" d="M174.05,355.87c1.01-.06,2.03.04,3.04,0-.15,2.35-.96,4.99-1.01,6.08-2.02-2.52.51-4.93-4.05-4.05.02-.67-.05-1.35,0-2.03.67-.07,1.35.04,2.02,0Z"/>
  <path class="cls-9" d="M168.99,372.08c.27,2.17,1.69,7.71-2.03,7.09.07-2.21.57-5.34,2.03-7.09Z"/>
  <path class="cls-26" d="M251.08,98.44c-.74,1.1-.56,3.52-3.04,4.05-.01-.56-1.01-1.9-1.01-3.04,0-.33-.04-.69,0-1.01h4.05Z"/>
  <path class="cls-1" d="M218.65,326.47c2.4-.04,3.51-.68,3.04,2.03-1.3.14-2.84.98-4.05,1.01-.35,1.12.86,2.57-1.51,2.04-1.11-.25-.22-1.75-.51-2.04-.26-.26-2.76.54-2.03-2.03.19-.05.86-.08,1.01,0,.92.45.9,1.96,1.01,2.03.21.13,1.47.01,2.03,0,.3-.97.34-2.21,1.01-3.04Z"/>
  <path class="cls-1" d="M232.84,331.54c1.31-.25,3.47-2.98,3.04,1.01-.55.22-1.16,1.06-2.03,1.01.02-.44-.83-1.43-1.01-2.03Z"/>
  <path class="cls-9" d="M166.96,381.2c.12,1.01,3.08,3.52-1.01,3.04.05-1.11-.31-2.55,1.01-3.04Z"/>
  <path class="cls-9" d="M177.09,396.41c-4.12.51-1.08-2.16-1.01-3.04,1.33.48.96,1.93,1.01,3.04Z"/>
  <path class="cls-9" d="M172.03,359.92c.02.11,1.68,1.32,1.01,2.02-.22.23-1.75-.23-2.02,0l1.01-2.03Z"/>
  <path class="cls-9" d="M171.01,363.97c.02.11,1.68,1.32,1.01,2.02-.22.23-1.75-.23-2.02,0l1.01-2.03Z"/>
  <path class="cls-9" d="M170,368.03c.02.11,1.68,1.32,1.01,2.02-.22.23-1.75-.23-2.02,0l1.01-2.03Z"/>
  <path class="cls-9" d="M167.97,400.46c1.03.77,1.34-1.66,2.03,2.03-2.04.3-2.34.01-2.03-2.03Z"/>
  <path class="cls-9" d="M170,405.53c.69.78,1.18-1.89,2.03,2.03-2.16.24-2.27.13-2.03-2.03Z"/>
  <path class="cls-9" d="M165.95,394.38c.13.16,1.44-.11,2.02,0,.36.94-1,1.84-1.01,2.02l-1.01-2.03Z"/>
  <path class="cls-5" d="M97.03,287.96c-.16-.42-.74-.74-1.01-2.03l1.01,2.03Z"/>
  <path class="cls-26" d="M217.63,163.3c-.13-.06-.88-.06-1.01,0l.51-.99.51.99Z"/>
  <path class="cls-17" d="M407.16,254.51v-1.01c.58,1.47.05.38,0,1.01Z"/>
  <path class="cls-29" d="M262.23,189.65c2.09-4.12,8.37-8.84,12.23-11.59,13.59-9.67,31.62-23.53,47.56-27.44,4.85-1.19,25.1-6.03,19.31,4.1-1.51,2.64-11.89,12.22-14.77,14.63-8.07,6.75-17.47,11.91-25.81,18.27-11.2,1.9-23.02,3.22-34.46,5.07-.19-.18-3.82-2.91-4.05-3.04Z"/>
  <path class="cls-22" d="M373.71,178.5c-8.22,2.44-15.91,6.41-24.5,8.44-17.18,4.06-34.93,2.74-51.5,9.82.49,1.52,5.19,1.88,6.59,2,11.8,1.06,28.31-.45,38.33,6.26,2.47,1.65,5.93,6.71,8.29,6.93l70.94-10.13c9.64-.37,10.74,2.88.71,4.76-22.78,4.27-47.15,5.92-70.15,9.42l1.01,9.12c-1.33-.13-2.73.15-4.05,0-3.65-23.06-23.22-20.31-41.09-21.24-10.97-.57-22.12-2.8-32.9.97-.41-.58-.59-1.45-1.01-2.03-.51-2.34,1.15-2.18,2.64-2.88,9.82-4.6,24.3-10.26,34.86-12.32,9.36-1.82,19.17-1.65,28.59-3.34,7.79-1.39,14.74-4.29,22.76-5.62,2.87-.47,8.03-1.93,10.47-.17Z"/>
  <path class="cls-9" d="M349.39,225.12c-2.57-.28-5.6.34-8.11,0-9.64-1.32-23.89-4-33.45-6.08-.44-.1-1.6-1.26-2.95-1.56-5.89-1.33-19.85-3.5-24.41-5.53-3.76-1.67-3.51-4.89-5.07-7.09,10.78-3.77,21.93-1.54,32.9-.97,17.87.93,37.44-1.82,41.09,21.24Z"/>
  <path class="cls-1" d="M300.74,132.89c.1,1.32-.04,2.53-.96,3.57l-34.51,34.94c-2.98-.5-4.84-2.34-7.09-4.05,5.69-9.82,12.06-21.16,14.97-32.16.56-2.13-.16-4.6.44-6.66.12-.42,4.95-6.61,5.3-6.86,6.01-4.39,21.44,5.61,21.86,11.22Z"/>
  <path class="cls-1" d="M256.15,164.31c-.18-.2-3.63-.14-4.41.15-1.81.68-.73,3.35-4.2,2.98-2.34-.25-1.57-2.6-4.32-3.9-2.32-1.1-5.93-1.01-8.36-.24,4.4-12.13,11.33-23.67,22.36-30.85,2.71-1.76,11.63-7.48,12.95-1.89,1.47,6.25-10.1,27.75-14.03,33.75Z"/>
  <path class="cls-1" d="M228.78,165.33c-.91-.17-2.07.11-3.04,0,.34-1.04-.1-3.34.45-5.09,3.89-12.39,7.59-26.67,12.72-38.49.23-.53,1.52-1.36,2.03-2.03,4.29,16.42-3.48,32.3-12.16,45.61Z"/>
  <path class="cls-9" d="M310.88,185.6l1.01,2.03c-10.56,2.06-25.04,7.72-34.86,12.32-1.49.7-3.15.54-2.64,2.88-1.27-1.7-7.22-9.3-8.11-10.14,11.44-1.85,23.26-3.16,34.46-5.07,3.94-.67,5.74.43,10.14-2.03Z"/>
  <path class="cls-22" d="M194.32,310.26c.12.33-.15.86,0,1.01-.09,2.02.99,3.11,3.04,3.04.29.59,1.03,1.15,1.01,2.03-4.29.59-12.16,3.9-15.2,7.09-3.38.26-1.61-.57-.82-2.34,1.1-2.46,4.82-8.57,6.9-9.83,1.09-.66,3.68-.78,5.07-1.01Z"/>
  <path class="cls-15" d="M235.88,311.27c3.01-.61,4.43,8.35,3.97,9.03-4.9,1.61-17.99,2.2-21.2,6.17-.67.83-.71,2.07-1.01,3.04-.56.01-1.82.13-2.03,0-.11-.07-.1-1.58-1.01-2.03-.53-2.41,1.21-2.12,2.66-2.86,6.6-3.33,13.32-4.56,20.65-5.25.02-2.88-1.46-5.34-2.03-8.1Z"/>
  <path class="cls-8" d="M230.82,194.73c.31.31,4.37-2.18,5.06.51.38,1.46-.75,3.43-2.04,4.09-.78.4-7.77-1.32-8.06-1.61-1.17-1.14.95-10.91,4.5-5.98.64.88.41,2.85.54,2.99Z"/>
  <path class="cls-15" d="M231.82,305.19c-4.13,1.28-2.09,8.29-4.01,9.68-3.35,2.42-20.2,1.14-25.39,1.47,5.63-2.41,18.59-.17,23.65-2.99,1.85-1.03-.23-9.2,5.74-8.16Z"/>
  <path class="cls-8" d="M262.23,296.07c.68,2.04,5.32,7.3,1.5,8.1-2.31.49-10.11-8.5-1.5-8.1-2.5-7.52,8.78-2.92,9.12-1.51,1.07,4.42-7.83,1.56-9.12,1.51Z"/>
  <path class="cls-8" d="M225.74,274.78c-1.79,1.71-8.52-3.4-8.1-5.55,2.77-4.9,9.72,4,8.1,5.55Z"/>
  <path class="cls-8" d="M274.39,224.11c2.85,2.81-7.16,6.91-8.09,3.53-1.28-4.62,7.66-3.96,8.09-3.53Z"/>
  <path class="cls-8" d="M259.18,308.23c-2.18,2.24-7.39-5.84-6.07-7.08,2.75-2.61,8.45,4.65,6.07,7.08Z"/>
  <path class="cls-8" d="M275.4,286.95c1.71,4.51-6.84,5.7-8.1,4.04-1.95-2.58,5.93-5.33,8.1-4.04Z"/>
  <path class="cls-17" d="M268.3,217.02c2.51,2.53-4.78,9.37-6.07,4.54-.94-3.49,5.28-5.34,6.07-4.54Z"/>
  <path class="cls-15" d="M189.26,302.15c3.53,2.55,1.13,3.31,1.02,7.09.16.2,3.23-1.63,4.04-1.01.21.16-.19,1.49,0,2.02-1.38.24-3.98.36-5.07,1.01-2.42-2.1.82-6.09,0-9.12Z"/>
  <path class="cls-8" d="M255.8,253.63c3.79-.31,3.12,6.49-2.12,4.88-3.32-1.02-.53-4.66,2.12-4.88Z"/>
  <path class="cls-15" d="M193.31,272.76c-.88,2.45-4.61,6.46-7.09,7.09,2.4-2.57,4.76-4.52,7.09-7.09Z"/>
  <path class="cls-15" d="M197.36,314.31c-2.05.07-3.13-1.02-3.04-3.04.85.84,1.13-.92,3.04,3.04Z"/>
  <path class="cls-15" d="M233.85,306.2c1.72,1.11,1.4-1.78,2.03,3.04-1.45-.44-2.01-1.56-2.03-3.04Z"/>
  <path class="cls-15" d="M181.15,283.91c.23-.18.22-3.06,4.05-3.04-1.16,1.46-1.6,3.08-4.05,3.04Z"/>
  <path class="cls-15" d="M187.23,301.14c-.3-.07-.67.05-1.01,0l.51-.99.51.99Z"/>
  <path class="cls-15" d="M195.34,270.73l1.01-1.01c-.31.36-.69.66-1.01,1.01Z"/>
  <path class="cls-2" d="M173.04,211.95c-.84,3.34.46,8.7-.49,13.19-4.28,20.04-35.43,44.2-56.26,43.57-5.27-4.25-2.91-17.92-1.57-24.38,4.09-19.71,21.2-36.7,41.74-38.38,7.58-.62,10.72,2.49,16.59,6ZM156.51,217.74c.69-.81,1.35-2.24,1.27-3.27-.77-10.47-29.42,3.72-27.18,11.96,2.04,7.5,12.21-1.78,15.39-3.51,2.75-1.51,8.72-3.05,10.52-5.17Z"/>
  <path class="cls-21" d="M116.28,268.7c20.83.63,51.98-23.53,56.26-43.57.96-4.49-.35-9.85.49-13.19.7-2.79,5.69-4.18,8.15-2.57,5.61,3.69-1.85,22.99-4.58,27.92-5.61,10.11-15.73,18.28-25.57,24.09-8.06,4.76-26.39,14.04-34.75,7.31Z"/>
  <path class="cls-13" d="M349.39,225.12c1.32.15,2.73-.13,4.05,0s2.97.84,5.07,1.01c1.42,7.48,11.19,10.85,6.08,1.01,6.03.34,13.65,1.05,19.26,1.01-7.93,48.34-29.89,99.33-73.99,124.66-.53-2.78-4.66-9.35-7.09-11.15-.37-.27-.64-.73-1.01-1.01-.1-.48-.09-1.52,0-2.03.6-3.56,4.81-5.81,7.07-8.64,23.82-29.86,37.22-66.22,32.46-104.87,2.51.34,5.54-.28,8.11,0ZM314.44,333.57c-3.42.89.72,7.55,3.01,7.08,3-.61.95-8.12-3.01-7.08Z"/>
  <path class="cls-14" d="M406.15,264.65c3.59-.33,2.54-.29,3.2,2.33,8.18,32.33,6.75,68.82-1.17,101.05-23.85,18.99-39.46,27.7-67.91,38.51-5.18-2.13-12.97-5.73-15.2-11.15,48.28-28.91,67.99-67.96,81.08-120.61.26-1.05,2.65-3.54,0-5.07,0-1.68-.06-3.39,0-5.07ZM387.9,359.92c-3.34-3.48-7.5,10.44-3.53,12.15,4.56,1.97,4.02-11.64,3.53-12.15ZM375.75,377.15c4.31,3.49,5.8-10.11,2.51-11.14-5.64-1.77-3.06,10.7-2.51,11.14Z"/>
  <path class="cls-17" d="M406.15,274.78v-5.07c2.65,1.53.26,4.02,0,5.07Z"/>
  <path class="cls-29" d="M385.88,175.46c-3.93.78-8.3,1.89-12.16,3.04-2.44-1.77-7.61-.31-10.47.17-8.02,1.33-14.97,4.22-22.76,5.62-9.41,1.69-19.23,1.51-28.59,3.34l-1.01-2.03c8.38-4.69,28.53-21.69,33.87-29.47.88-1.29.4-3.26,2.05-5.05.44-.47,10.79-5.75,11.42-5.85,2.01-.33,9.15,2.5,11.15,3.68,6.69,3.95,11.4,12.95,14.69,19.76,1.02,2.12,1.71,4.43,1.82,6.8Z"/>
  <path class="cls-17" d="M364.59,227.15c5.11,9.84-4.66,6.47-6.08-1.01,2.23.18,4.73.94,6.08,1.01Z"/>
  <path class="cls-10" d="M341.28,225.12c4.76,38.65-8.64,75.01-32.46,104.87-2.26,2.83-6.46,5.09-7.07,8.64l-8.94-10.82-2.32-4.29c-.71-.47-2.85.72-2.93.93-5.17-.05.28-3.55,1.77-3.84,1.6-.31,4.82,1.31,5.32.79,1-1.05-4.76-11.21,8.11-7.09,1.65-4.95-5.35-4.49-2.12-8.51,1.09-1.36,5.33.58,4.75-3.15-.12-.79-1.33-1.55-1.43-2.18-.61-3.9,5.05-.53,5.89-1.36.44-2.87-2.12-4.65-3.04-7.08,8.94-1.55-.31-2.91,1.09-7.53.83-2.73,6.42,1.06,7.03-2.13.06-.33-1.99-6.18-2.23-6.43-.53-.54-2.69.36-2.9-.66-1.66-7.88,9.91-5.37,4.6-11.65l-4.53,2.03c-1.14-3.92,7.41-9.7,0-10.64,2.75-1.62,4.39-3.03,4.05-6.59h-5.06c-.49-2.4,2.41-2.94,2.86-4.78.3-1.22-.66-2.65-.5-3.7.26-1.69,1.76-3.81,1.52-5.08-.41-2.19-3.74-2.49-3.87-2.68-.8-1.15,2.31-3.27,2.03-4.52-.49-2.13-8.49-.59-3.05-8.64,9.55,2.08,23.8,4.77,33.45,6.08Z"/>
  <path class="cls-16" d="M272.36,328.5c2.83,5.43,5.41,11.15,8.36,16.52,1.14,2.07,3.49,7.33,3.8,7.81-4.61,2.52-9.32,5.26-13.73,8.11-1.31.84-2.96.86-2.49,3.04-2.15-3.27-7.21-26.27-8.23-27.26-.52-.51-2.17.09-2.92-.1l2.03-5.07c.24-.14.7.12,1.01,0,.43-.17.77-.63,1.01-1.01,2.89-.06,3.74,3.87,7.09,3.03l-1.01-5.06c1.53-.26,3.71.34,5.06,0Z"/>
  <path class="cls-15" d="M260.2,331.54c-.15-.66.45-1,1.01-1.01-.25.38-.59.85-1.01,1.01Z"/>
  <path class="cls-29" d="M391.96,96.41c2.71,16.97-5.45,27.61-18.51,36.72-3.83,2.68-24.26,14.05-27.61,13.91-1.41-.06-2.59-1.78-4.09-1.94-11.21-1.26-22.05,2.21-32.41,6.03-3.97.5,2.03-7.83,3.63-8.55,18.9-11.74,39.65-20.94,56.69-35.03,4.99-4.12,11.79-9.24,15.19-14.97.53-.9.85-4.13,1.04-4.28,1.98-1.51,5.8,6.4,6.07,8.1Z"/>
  <path class="cls-29" d="M395,96.41c-.72-2.52-2.55-6.44-3.75-8.88-.76-1.54-3.82-1.25-2.04-5.06.11-.24,3.56-3.21,4.03-3.51,7.38-4.84,24.84-12.49,33.52-16.17,7.2-3.06,17.12-7.08,24.61-8.85,1.53-.36,1.65-.09,1.43,1.43-.3,2.07-4.52,7.46-6.1,9.62-12.96,17.77-29.15,34.76-50.67,41.55.35-3.84,0-6.56-1.02-10.13Z"/>
  <path class="cls-29" d="M332.16,113.64c7.41-5.26,20.37-12.57,28.71-17.4,4.96-2.87,17.85-10.59,22.49-11.97,3-.9-.31,6.03-.84,6.77-.79,1.12-13.01,14.91-13.88,15.51-.29.2-2.25.03-3.57.95-15.59,10.9-32.73,19.11-48.64,29.45-1.7.22-1.61.08-1.52-1.51.65-11.28,8.44-13.81,16.52-19.76.92-.68.64-1.97.73-2.03Z"/>
  <path class="cls-29" d="M270.34,176.47c-.69-.7,3.82-6.89,4.64-8.02,9.92-13.63,24.14-26.68,36.9-37.59-2.11,13.68-11.33,24.07-21.36,32.85l-20.18,12.75Z"/>
  <path class="cls-1" d="M347.36,96.41c-5.41,4.33-10.8,8.82-16.22,13.18-6.71,5.4-13.67,10.69-20.27,16.22l6.32-18.51c6.31-9.54,19.08-14.24,30.17-10.88Z"/>
  <path class="cls-15" d="M284.53,352.82c.07.11,1.33-.48,2.33,1.25,1.4,2.41,1.71,6.1,1.72,8.89l-18.24,5.07c-.56-1.28-.3-3.07-2.03-4.05-.48-2.18,1.18-2.19,2.49-3.04,4.42-2.85,9.12-5.59,13.73-8.11Z"/>
  <path class="cls-10" d="M302.77,341.68c-.48-.14-.92-.53-1.01-1.01.37.28.65.74,1.01,1.01Z"/>
  <path class="cls-9" d="M177.09,349.78l-2.03-1.01c.45-3.02-.42-7.32,3.04-9.12-.48,3.36-.73,6.79-1.01,10.14Z"/>
  <path class="cls-1" d="M244,138.98l1.55-10.09c13.64-20.94,35.16-40.39,37.97-66.35,3.01-2.45,6.15,4.29,7.29,6.82,5.4,11.95,3.22,24.72-3.04,35.86-1.81,3.23-13.89,19.09-16.43,20.11-1.48.6-3.33-.63-5.28-.37-6.82.93-16.57,9.8-22.05,14.01Z"/>
  <path class="cls-1" d="M322.03,13.3c-2.8,16.36-6.3,35.85-15.37,50-1.09,1.7-7.78,10.37-8.94,11.33-.71.59-1.81,1.08-2.03-.05,1.13-6.63-10.19-16.16-11.16-19.73-.32-1.17-.02-2.88.52-4.01,10-11.3,19.9-25.88,32-34.92,1.87-1.4,2.95-1.77,4.98-2.62Z"/>
  <path class="cls-1" d="M280.47,56.88c1.25,2.37.12,7.65-.45,10.19-2.61,11.54-8.56,20.07-14.92,29.68-5.96,9-12.67,18.33-20.09,26.02.92-1.89-.96-4.29-1.02-5.07-.65-7.66,4.14-10.37,4.05-15.2,2.48-.53,2.3-2.95,3.04-4.05,9.87-14.6,17.83-27.86,29.39-41.55Z"/>
  <path class="cls-6" d="M156.51,217.74c-1.8,2.12-7.77,3.67-10.52,5.17-3.17,1.74-13.34,11.01-15.39,3.51-2.25-8.24,26.41-22.43,27.18-11.96.08,1.04-.58,2.46-1.27,3.27Z"/>
  <path class="cls-8" d="M314.44,333.57c3.97-1.04,6.01,6.47,3.01,7.08-2.3.47-6.44-6.19-3.01-7.08Z"/>
  <path class="cls-8" d="M387.9,359.92c.49.51,1.03,14.12-3.53,12.15-3.97-1.71.19-15.64,3.53-12.15Z"/>
  <path class="cls-17" d="M375.75,377.15c-.54-.44-3.12-12.92,2.51-11.14,3.28,1.03,1.79,14.63-2.51,11.14Z"/>
</svg>