<?xml version="1.0" encoding="UTF-8"?>
<svg id="dolphin" xmlns="http://www.w3.org/2000/svg" viewBox="0 0 1771.33 965.99">
  <defs>
    <style>
      .cls-1 {
        fill: #b24c4c;
      }

      .cls-2 {
        fill: #fff;
      }

      .cls-3 {
        fill: #693538;
      }

      .cls-4 {
        fill: #c0cccf;
      }

      .cls-5 {
        fill: #80a9c7;
      }

      .cls-6 {
        fill: #608099;
      }

      .cls-7 {
        fill: #5c7290;
      }

      .cls-8 {
        fill: #4d2a2c;
      }

      .cls-9 {
        fill: #7297b2;
      }

      .cls-10 {
        fill: #8d3d3e;
      }

      .cls-11 {
        fill: #80abcc;
      }

      .cls-12 {
        fill: #7298b5;
      }

      .cls-13 {
        fill: #1a150f;
      }

      .cls-14 {
        fill: #7b99c7;
      }

      .cls-15 {
        fill: #8dbce0;
      }

      .cls-16 {
        fill: #e4edf0;
      }

      .cls-17 {
        fill: #3e4d61;
      }

      .cls-18 {
        fill: #d1d1d1;
      }
    </style>
  </defs>
  <g id="_1" data-name="1">
    <path class="cls-9" d="M1527.79,670.94c.39-.2,18.93,3.26,38.5,11.36,19.57,8.1,46.49,15.99,72.06,36.82,25.56,20.83,40.6,29.98,49.76,41.87,9.15,11.89,13.58,15.83,3.58,17.57-10,1.74-31.66-5.68-69.74-9.36-38.08-3.68-87.73-5.89-106.45-6s-41.23,1.16-54.7,2.1c-13.46.95,40.92-80.89,67.01-94.36Z"/>
    <path class="cls-4" d="M1694.01,778.03c-.68.19-1.44.36-2.34.52-10,1.73-31.66-5.68-69.75-9.37-38.08-3.67-87.72-5.89-106.44-6-18.72-.09-41.25,1.16-54.71,2.1-.06,0-.14.02-.2.02,8.87-21.72,46.75-74.39,67.22-84.95.38-.19,94.45,20.38,160.3,90.06,2.63,2.78,4.36,5.54,5.92,7.63Z"/>
    <path class="cls-9" d="M1760.84,511.4c-6.92,13.17-30.2,25.43-47.79,35.3-17.59,9.89-43.36,15.68-58.79,20.67-15.44,4.99-47.62,16.5-47.62,16.5,0,0-17.97,17.5-27.62,27.15-9.67,9.65-30.49,37.37-38.7,50.18-8.21,12.81-27.18,43.35-38.36,60.5-11.17,17.15-25.72,34.53-57.99,63.39-32.27,28.86-100.59,63.2-150.87,86.51-50.29,23.32-142.59,40.07-205,43.16-62.43,3.11-163.02-10.78-213.12-20.23-50.1-9.43-117.1-31.64-174.95-58.57-57.85-26.92-129.29-87.47-160.12-115.98-30.82-28.52-69.2-76.37-86.74-101.5-17.55-25.11-32.39-56.99-43.6-79.63-11.22-22.63-19.52-43.6-29.38-72.98-9.87-29.38-15.37-55.65-21.19-82.22-5.81-26.59-9.02-46.41-11.63-65.21-2.59-18.79-3.03-51.32-8.3-73.92-2.84-12.19-7.58-21.33-13.43-28.63-4.99-6.23-10.77-11.14-16.89-15.49-13.28-9.45-40.9-17.25-61.66-24.3-20.76-7.06-61.98-19.01-98.22-29.8-36.24-10.8-68.74-33.23-80.67-43.19-11.94-9.97-36.25-35.45-48.9-54.82C6.62,28.9,3.92,14.95,3.3,9.85c-.44-3.58.16-5.51,1.55-6.28.58-.31,1.32-.42,2.18-.36,2.9.2,18.38,5.09,34.78,13.29,16.42,8.19,44.65,18.69,69.98,25.33,25.33,6.64,47.74,9.64,75.38,8.51,27.62-1.11,53.99-.41,75.48,1.98,21.5,2.39,38.11,11.52,45.48,18.27,4.22,3.88,7.99,9.76,7.99,9.76,0,0,1.98-10.69,3.94-14.74,1.98-4.05,6.87-7.78,13.72-9.97,5.67-1.82,24.01-1.1,45.89.72,22.84,1.9,49.97,2.39,76.42.2,20.7-1.7,48.14-9.37,58.85-16.81,10.74-7.44,19.63-24.2,22.02-28.14,2.39-3.96,6.75-7.58,10.48-7.78,1.32-.08,2.35.41,3.2,1.24,1.57,1.49,2.54,4.11,3.55,6.34,1.55,3.42,7.69,23.35,11.83,45.37,4.16,22-.52,41.73-7.89,59.07-7.36,17.33-32.08,31.88-51.29,42.56-19.19,10.69-51.07,23.26-67.38,30.42-16.31,7.17-26.27,23.68-26.27,23.68,0,0-.05,1.3,1.02,4.19.25.69.56,1.46.96,2.34,2.06,4.52,15.36,38.94,26.37,64.38,11.02,25.44,26.59,54.01,39.36,72.26,12.76,18.25,36.02,48.48,45.78,59.39,9.76,10.91,37.16,42.25,62.61,57.1,25.44,14.85,50.33,22.07,78.28,24.51,27.95,2.45,55.45-8,73-21.39,17.55-13.39,27.72-36.96,32.17-50.14,4.47-13.18,7.85-38.29,6.43-58.35-1.4-20.06-5.29-42.05-9.54-55.34-4.25-13.29-16.71-39.14-18.8-47.04-2.07-7.89-1.44-11.32,1.88-13.81,3.31-2.48,8.1.42,16.2,2.5,8.1,2.07,27.65,9.75,51.07,23.89,23.42,14.13,36.44,23.24,56.8,41.42,20.34,18.17,42.25,45.17,56.89,64.07,14.64,18.9,30.07,44.84,42.67,55.54,12.59,10.7,20.14,10.8,29.49,10.48,9.34-.31,19.3.69,44.75-5.15,25.43-5.85,49.74-18.43,67.41-29.47,17.69-11.05,29.8-22.41,46.94-37.54,0,0,51.48-54.35,70.78-73.31,19.3-18.96,46.3-40.34,71.35-57.1,2.95-1.98,6-3.86,9.13-5.67,0-.02.02-.02.03-.02,23.35-13.4,51.32-21.74,81.83-26.84,21.96-3.69,42.28-2.87,61.4.2.06.02.13.02.17.03,10.94,1.76,21.49,4.27,31.72,7.11,28.16,7.82,48.97,23.92,48.97,23.92,0,0,.49-.38,1.35-1.07,3.3-2.67,12.24-10,21.42-18.76,11.58-11.05,25.71-17.64,43.88-24.12s37.4,2.13,52.29,12.43c1.74,1.21,3.28,2.5,4.63,3.86,10.31,10.33,10.52,24.73,10.14,34.4-.42,10.94-8.71,34.43-15.3,48.78-6.59,14.34-26.77,40.92-36.88,52.61-10.09,11.69-31.03,33.05-38.04,40.81s-8.71,16.57-8.3,21.14c.41,4.58,5.01,9.35,15.96,19.98,10.94,10.64,38.04,21.16,53.55,25.61,15.52,4.47,32.96,4.47,32.96,4.47l20.78-13.25c13.04-7.72,29.85-11.24,38.7-12.82,8.85-1.6,16.12,1.93,19.87,4.3,3.74,2.39,10.09,17.48,12.02,29.41,1.93,11.91-1.59,25.75-8.51,38.92Z"/>
    <path class="cls-5" d="M1495.89,244.96c-55.67,48.3-200.27,80.73-209.56,39.28-2.62-11.72,5.19-22.68,13.69-30.71,4.98-4.72,10.41-9.15,16.18-13.25,0-.02.02-.02.03-.02,23.35-13.4,51.32-21.74,81.83-26.84,21.96-3.69,42.28-2.87,61.4.2.06.02.13.02.17.03,31.95,6.51,62.32,8.69,36.26,31.3Z"/>
    <path class="cls-6" d="M562.26,697.29c-142.25-151.58-170.56-246.21-202.44-469.65-4.03-28.23-7.95-56.67-16.38-83.95-2.88-9.33-5.65-27.71-3.33-34.54,3.6-10.59,15.07.26,15.07.26,0,0-1.76-5.61-10.95-13.43-12.18-10.36-16.48-19.87-13.63-29.06,2.89-9.29,22.67-11.86,22.67-11.86,0,0-3.76-.15-8.55-.27-8.77-.21-18.4,2.08-23.76,9.23-2.75,3.67-4.4,8.2-4.06,12.39-.49,2.26-.8,3.93-.8,3.93,0,0-3.77-5.89-7.99-9.76-3.31-3.03-13.97-11.73-26.63-14.25,17.34,7.7,28.89,20.13,37.94,47.81,9.04,27.68,6.15,83-16.59,76.3-44.43-13.09-68.94-22.49-116-35.71-39.05-10.97-82.72-19.87-130.06-64.95C42.64,66.32,10.1,23.73,4.85,3.57c-1.4.77-1.99,2.7-1.55,6.28.63,5.1,3.33,19.05,15.99,38.42,12.65,19.37,36.96,44.86,48.9,54.82,11.93,9.97,44.43,32.39,80.67,43.19,36.24,10.8,77.45,22.74,98.22,29.8,20.76,7.05,47.82,15.7,61.66,24.3,2.57,1.6,4.82,3.2,6.85,4.8-.07.11-.13.22-.2.32,3.65,3.06,7.1,6.46,10.23,10.37,2.03,2.53,3.91,5.29,5.64,8.31.82,1.52,1.59,3.02,2.34,4.51,0-.01,0-.02,0-.03,2.21,4.64,4.06,9.87,5.45,15.84,5.27,22.6,5.71,55.14,8.3,73.92,2.61,18.8,5.82,38.62,11.63,65.21,5.82,26.57,11.32,52.84,21.19,82.22,9.86,29.38,18.16,50.35,29.38,72.98,11.21,22.65,26.05,54.52,43.6,79.63,15.19,21.76,46,60.55,74.01,89.08,1.33,0,2.66,0,3.99-.06,2.32-.08,35.85-5.13,31.09-10.21Z"/>
    <path class="cls-6" d="M740.56,475.3c-1.45,1.1-27.48,23.97-79.1,20.77,81.65,15.33,267.95-1.44,275.71-46.67,10.73-62.58-120.13-186.99-186.66-198.09-2.29,3.53-.77,8.94.33,13.12,2.08,7.89,14.54,33.74,18.79,47.03,4.26,13.29,8.14,35.29,9.55,55.34,1.41,20.05-1.97,45.16-6.44,58.35-4.46,13.19-14.64,36.75-32.19,50.15Z"/>
    <path class="cls-6" d="M1379.92,379.23s.76,14.52-3.61,29.66c-7.11,24.58-28.31,28.73-40.3,53.09-6.32,12.83-4.4,30.36-4.4,30.36,0,0,6.21-9.36,9.94-13.95,7.8-9.59,17.58-17.39,38.22-21,4.9-.86,11.14-12.52,12.41-30.5,1.27-17.98-12.27-47.65-12.27-47.65Z"/>
    <path class="cls-4" d="M1676.22,464.8c-4.79-.13-18.62-.81-31.2-4.43-15.52-4.46-42.62-14.98-53.56-25.61-10.95-10.63-15.55-15.41-15.96-19.98-.41-4.57,1.29-13.39,8.31-21.15,7.01-7.76,27.95-29.12,38.05-40.81,10.1-11.69,30.29-38.26,36.88-52.61,6.59-14.35,14.88-37.83,15.3-48.78.14-3.65.19-7.98-.35-12.5-4.43-21.52-39.59-22.28-60.92-1.2-21.09,20.85-24.06,35.6-49.52,71.33-16.91,23.73-66.33,82.81-139.94,106-23.18,7.3-43.29,8.77-43.29,8.77,0,0-1.97,5.65-3.56,8.08-1.23,1.89-5,5.37-9.59,9.45,9.04,1.97,235.84,29.43,300.55,31.39,5.7-4.51,7.81-7.16,8.79-7.94Z"/>
    <path class="cls-16" d="M1769.35,472.47c-1.93-11.92-8.29-27.02-12.03-29.4-3.75-2.38-11.01-5.9-19.86-4.31s-25.65,5.11-38.71,12.83l-19.24,12.26c-4.51,4.82-10.3,7.73-17.27,9.03-13.55,2.53-27.63,5.6-41.45,5.78-14.35.19-28.48-2.82-42.68-4.39-14.87-1.64-29.88-1.74-44.78-3.2-29.29-2.87-57.75-9-86.55-14.78-15.97-3.21-32.03-5.63-48.18-7.68-7.01-.89-14.03-1.78-20.96-3.19-4.01-.82-7.92-1.98-11.83-3.12-5.19,4.59-11.24,9.81-15.87,14.34-9.45,8.33-15.6,20.3-18,33.95-18,102.44-70.16,176.12-115.88,211.14-67.98,41.49-115.89,27.89-207.8,45.23-227.14,42.86-466.63,11.31-590.85-192.18,9.98,20.26,22.04,44.04,35.77,63.7,17.55,25.13,55.91,72.97,86.74,101.48,30.83,28.52,102.27,89.07,160.12,115.99,57.84,26.93,124.86,49.13,174.95,58.57s150.68,23.32,213.1,20.23c62.43-3.09,154.72-19.85,205.01-43.16,50.29-23.31,118.6-57.65,150.87-86.51,32.27-28.87,46.82-46.24,58-63.39,11.18-17.15,30.14-47.69,38.35-60.5,8.21-12.81,29.05-40.53,38.7-50.18,9.65-9.65,27.62-27.15,27.62-27.15,0,0,32.18-11.51,47.62-16.51,15.44-4.99,41.2-10.78,58.8-20.66,17.59-9.88,40.86-22.13,47.79-35.3,6.92-13.17,10.44-27.02,8.51-38.93Z"/>
    <path class="cls-4" d="M1354.94,465.73c12.58-7.12,28.22-9.12,42.7-9.01-1.55-11.59-3.29-23.13-6.34-34.27-6.94,1.07-11.26,1.38-11.26,1.38,0,0-1.97,5.65-3.56,8.08-2.67,4.11-17.37,15.78-26.53,24.74-9.45,8.33-15.6,20.3-18,33.95-.1.59-.22,1.16-.33,1.74,5.39-10.57,13.71-21.16,23.32-26.6Z"/>
    <path class="cls-4" d="M1723.76,510.39c-12.95,2.74-36.61,2.5-56.75-8.26,6.36,11.14,16.72,18.87,29.15,21.78-11.56,4.25-23.34,7.7-34.85,10.48-26.37,6.38-78.82,18.73-135.54,42.12-61.19,25.24-100.3,7.68-126.62,23.29-26.32,15.61-27.49,95.9-89.93,117.72-37.83,13.22-77.17-3.45-93.16-15.79-54.29,33.13-95.81,31.14-157.14,37.83-10.71,12.1-21.22,24.39-31.46,36.9-33.16,40.51-63.52,83.21-90.29,128,49.57,6.77,108.89,12.39,150.92,10.31,62.43-3.09,154.72-19.85,205.01-43.16,50.29-23.31,118.6-57.65,150.87-86.51,32.27-28.87,46.82-46.24,58-63.39,11.18-17.15,30.14-47.69,38.35-60.5,8.21-12.81,29.05-40.53,38.7-50.18,9.65-9.65,27.62-27.15,27.62-27.15,0,0,32.18-11.51,47.62-16.51,15.44-4.99,41.2-10.78,58.8-20.66,17.59-9.88,40.86-22.13,47.79-35.3,5.21-9.91,8.55-25.61,9.04-35.18-11.59,20.65-22.67,29.21-46.12,34.16Z"/>
    <path class="cls-4" d="M874.98,894.53c6.89,1.3,67.36-75.41,57.84-76.06-182.94-12.54-264.57-39.32-370.56-121.18-56.82-32.94-106.38-79.46-144.86-142.51,9.98,20.26,22.04,44.04,35.77,63.7,17.55,25.13,55.91,72.97,86.74,101.48,30.83,28.52,102.27,89.07,160.12,115.99,57.84,26.93,124.86,49.13,174.95,58.57Z"/>
    <path class="cls-3" d="M1654.23,233.01c-9.92-.51-17.01-.97-25.94,6.02-8.92,6.99-15.22,13.49-24.55,26.97-9.34,13.49-18.47,29.67-28.49,43.09-10.03,13.42-23.17,31.26-39.49,46.34-16.32,15.08-37.49,32.92-56.37,43.5-18.88,10.58-43.64,20.54-63.01,26.07-19.37,5.53-42.32,9.53-42.32,9.53,0,0-3.6,3.44-8.79,7.78-5.19,4.34-13.62,12.09-13.62,12.09,0,0,22.06-1.52,41.64,6.09s51.53,21.37,69.3,28.98c17.77,7.61,48.76,19.37,76.01,19.64,27.25.28,46.48-3.6,68.26-9.96,21.79-6.36,46.82-18.33,54.02-22.27,7.19-3.94,9.89-6.99,9.89-6.99,0,0-10.65.9-20.96-.97-10.31-1.87-34.44-6.36-54.78-21.03-20.33-14.66-28.29-24.28-29.6-31.05-1.31-6.78,1.45-15.7,7.47-23.17,6.02-7.47,21.92-24.83,30.98-34.17s30.92-32.37,37.62-43.09c6.71-10.72,17.43-32.23,20.68-43.78,3.25-11.55,5.05-22.06,3.87-27.66-1.18-5.6-3.26-11.52-11.83-11.97Z"/>
    <path class="cls-8" d="M1545.08,442.32c-11.28-39.42,10.32-53.76,28.02-69.42,50.46-44.64,72.43-71.9,93.07-119.4.35-3.42.35-6.34-.11-8.51-1.18-5.6-3.26-11.52-11.83-11.97-9.92-.51-17.01-.97-25.94,6.02-8.92,6.99-15.22,13.49-24.55,26.97-9.34,13.49-18.47,29.67-28.49,43.09-10.03,13.42-23.17,31.26-39.49,46.34-16.32,15.08-37.49,32.92-56.37,43.5-18.88,10.58-43.64,20.54-63.01,26.07-19.37,5.53-42.32,9.53-42.32,9.53,0,0-3.6,3.44-8.79,7.78-5.19,4.34-13.62,12.09-13.62,12.09,0,0,22.06-1.52,41.64,6.09,19.57,7.61,51.53,21.37,69.3,28.98s48.76,19.37,76.01,19.64c14.37.15,48.86-3.13,68.26-9.96-35.31-12.99-58.11-44.01-61.78-56.83Z"/>
    <path class="cls-13" d="M1521.71,447.18c-1.04-21.9-7.19-44.94-20.62-62.6-7.31,5.45-14.66,10.4-21.7,14.35-18.88,10.58-43.64,20.54-63.01,26.07-19.37,5.53-42.32,9.53-42.32,9.53,0,0-3.6,3.44-8.79,7.78-5.19,4.34-13.62,12.09-13.62,12.09,0,0,22.06-1.52,41.64,6.09,19.57,7.61,51.53,21.37,69.3,28.98,13.4,5.73,34.3,13.82,55.46,17.58,2.88-19.83,4.62-39.8,3.67-59.86Z"/>
    <path class="cls-1" d="M1649.66,481.03c-6.69-2.67-10.62-4.25-17.72-5.1-8.31-.99-19.64-.63-27.58-3.34-14.32-4.89-25.68-14.18-38.44-22.37-9.95-6.39-19.37-14.2-31.34-15.14-9.89-.78-24.98,1.59-32.85,8.87-11.55-3.48-26.44-.11-35.94,3.9-7.16,3.02-13.81,7.14-19.72,12.19-4.39,3.75-11.16,9.95-13.31,15.81-.06.17,34.24,17.44,49.77,22.56,18.06,5.96,36.92,9.49,55.92,10.43,20.13.99,39.64-2.16,59.17-6.83,16.97-4.05,45.48-14.97,52.03-19.09.88-.55.86-1.55,0-1.89Z"/>
    <path class="cls-10" d="M1609.48,488.93s-21.22.21-45.88-10.17c-12.33-5.19-26.8-15.14-32.51-20.59,9.54-9.57,23.97-11.06,34.75-8-9.92-6.38-19.31-14.14-31.25-15.08-9.89-.78-24.98,1.59-32.85,8.87-11.55-3.48-26.44-.11-35.94,3.9-7.16,3.02-13.81,7.14-19.72,12.19-4.39,3.75-11.16,9.95-13.31,15.81-.06.17,34.24,17.44,49.77,22.56,18.06,5.96,36.92,9.49,55.92,10.43,9.4.46,18.66.01,27.85-1.06-10.84-.93-60.78-10.12-80.73-25.64-6.65-5.18,17.18-29.05,38.35-21.38,12.13,12.25,24.18,17.7,36.59,22.35,29.54,11.06,48.96,5.82,48.96,5.82Z"/>
    <path class="cls-2" d="M858.48,501.44c21.6-3.68,64.92-8.69,114.79-37.54,64.03,4.93,131.5-24.29,162.47-53.96-54.73,65.55-153.8,93.31-277.26,91.5Z"/>
    <path class="cls-2" d="M488.53,376.31c85.71,173.82,166.98,123.4,166.98,123.4-49.42-1.38-107.78-30.82-166.98-123.4Z"/>
    <path class="cls-2" d="M1470.32,226.98c.93,4.8-13.32,11.59-31.83,15.18-18.51,3.59-34.26,2.6-35.19-2.19-.93-4.8,13.32-11.59,31.83-15.18s34.26-2.6,35.19,2.19Z"/>
    <path class="cls-2" d="M368.71,145.43c20.76,36.67,36.17,70.3,51.35,106-8.78-31.68-27.42-74.44-46.74-108.53-4.67-8.23-10.56-7.99-4.61,2.52Z"/>
    <path class="cls-2" d="M357.56,118.6c-7.29-9.89-13.32-8.16-4.82,3.8,5.54,7.8,10.46,3.85,4.82-3.8Z"/>
    <path class="cls-6" d="M558.13,115.86c-7.36,17.33-32.08,31.88-51.29,42.56-19.19,10.69-51.07,23.26-67.38,30.42-16.31,7.17-26.27,23.68-26.27,23.68,0,0-.05,1.3,1.02,4.19-.25.42-.52.86-.77,1.29-1.88-5.59-4.19-10.94-6.37-16.4,1.95-2.35,8.74-13.51,33.87-24.72,24.77-11.05,51.39-19.17,75.07-32.45,24.11-13.51,40.85-30.43,44.53-57.83,3.27-24.3,1.63-36.65-9.9-81.53,1.57,1.49,2.54,4.11,3.55,6.34,1.55,3.42,7.69,23.35,11.83,45.37,4.16,22-.52,41.73-7.89,59.07Z"/>
    <path class="cls-2" d="M286.97,61.87c-28.54-9.99-61.44-9.64-91.53-7.44,0,0,54.18-.69,90.76,9.69,6.66,1.89,5.06-.74.77-2.24Z"/>
    <path class="cls-2" d="M459.85,60.04c-15.44,1.97-54.52,2.61-92.57-1.36,19.81,4.17,63.15,7.58,93.34,3.77,14.72-1.86,14.45-4.35-.76-2.41Z"/>
    <path class="cls-2" d="M534.25,22.74c-4.68,9.27-11.58,16.75-20.33,22.32,16.46-4.7,20.33-22.32,20.33-22.32Z"/>
    <path class="cls-2" d="M36.44,21c-5.58-3.05-4.88-5.37.99-2.39,10.12,5.14,37.21,15.49,37.21,15.49,0,0-22.84-4.71-38.2-13.11Z"/>
    <path class="cls-2" d="M1729.83,438.79c-23.95,7.6-40.65,19.21-61.84,32.37-23.36,14.51-47.37,26.66-74.33,32.89-27.04,6.24-55.28,6.88-82.42.8-26.05-5.83-50.49-16.9-74.95-27.28-25.49-10.81-49.11-20.95-76.99-23.06-2.25-.17-7.04,1.65-4.76,1.92,57.15,6.79,99.05,40.31,149.93,53.2,51.45,13.03,105.3,2.79,150.75-23.74,26.13-15.25,37.21-34.45,79.33-45.17,2.04-.52-2.66-2.57-4.71-1.92Z"/>
    <path class="cls-2" d="M1756.88,451.53c1.27,3.88-6.91,10.04-18.27,13.77-11.36,3.73-21.61,3.61-22.88-.27-1.27-3.88,6.91-10.04,18.27-13.77s21.61-3.61,22.88.27Z"/>
    <ellipse class="cls-2" cx="1387.28" cy="497.31" rx="13.45" ry="8.02"/>
    <path class="cls-5" d="M772.75,559.04c-208.72-7.11-329.29-93.24-382.03-325.57,5.37,131.3,35.85,292.58,201.72,382.03,196.13,105.77,492.16,47.47,584.08-75.65,23.7-31.75,42.45-68.82,42.23-108.63-.08-15.17-4.2-31.6-22.2-32.87-17.1-1.2-32.89,16.92-45.78,25.96-67.19,47.1-181.31,141.43-378.01,134.73Z"/>
    <path class="cls-5" d="M1663.9,217.03c-17.77-10.66-42.34-5.24-56.19,6.4-13.83,11.65-24.04,26.88-35.72,40.68-33.37,39.36-89.99,69.06-140.42,80.03,10.78-26.93,20.69-34.09,35.92-47.05,15.24-12.96,33.65-21.53,50.27-32.68,8.51-5.7,16.57-12.23,23.24-20.01.22-.27.44-.52.66-.78,3.3-2.67,12.24-10,21.42-18.76,9.65-9.21,21.09-15.33,35.16-20.86,1.02-.41,2.04-.8,3.09-1.19.02-.02.03-.02.03-.02,1.82-.69,3.69-1.38,5.6-2.06,4.39-1.55,9.13-2.31,14.05-2.34,7.72-.03,15.79,1.73,23.26,4.94,7.45,3.22,14.31,7.89,19.62,13.69Z"/>
    <path class="cls-2" d="M1634.88,201.54c.51,2.64-7.33,6.38-17.51,8.35-10.18,1.97-18.85,1.43-19.36-1.21s7.33-6.38,17.51-8.35c10.18-1.97,18.85-1.43,19.36,1.21Z"/>
    <path class="cls-2" d="M924.62,381.4c-16.01-27.62-41.11-53.86-47.35-59.16-15.43-13.1-17.27-9.75-4.38,3.3,6.06,6.14,31.49,32.14,51.73,55.86Z"/>
    <path class="cls-2" d="M1544.14,477.78s-7.72-3.85-12.68-8.01c-1.2-1.01-2.38-.04-1.28,1.27,4.18,4.98,13.96,6.74,13.96,6.74Z"/>
    <path class="cls-2" d="M1600.18,473.07c-4.01-1.3-8.87-3.18-8.87-3.18,0,0,3.83,3.32,8.59,5.05,3.89,1.41,5.93-.04.27-1.88Z"/>
    <path class="cls-2" d="M1633.79,480.76c-2.99.5-8.88,4.93-2.66,3.76,6.22-1.18,7.34-4.54,2.66-3.76Z"/>
  </g>
  <g id="_2" data-name="2">
    <path class="cls-13" d="M1277.58,337.83c-25.4-9.01-70.83-1.22-48.73,69.04l48.73-69.04Z"/>
    <path class="cls-12" d="M1277.58,337.83c-23.79-7.01-61.83,3.31-51.21,63.65,10.31,58.59,80.93-54.89,51.21-63.65Z"/>
    <path class="cls-6" d="M1251.39,360.92c24.02-28.9,93.36.99,81.97,31.51-8.71,23.35-43.07,52.89-66.03,38.15-20.72-13.3-31.59-50.82-15.93-69.67Z"/>
    <path class="cls-2" d="M1283.99,361.07c-7.03-.16-13.16.63-18.45,3.74-5.21,3.06-9.37,8.36-10.28,13.44-1.37,7.63-1.11,14.48.68,20.56,1.79,6.08,5.37,13.18,9.56,18.35s10.75,8.82,15.84,9.56c6.91,1.01,13.27,1.62,18.81.06,5.53-1.56,20.03-20.92,21.17-24.43,1.14-3.51,2.16-9.12,1.09-13.79-1.22-5.34-5.02-12.27-12.89-17.6-7.87-5.34-16.75-9.7-25.54-9.89Z"/>
    <path class="cls-18" d="M1267.97,419.76c-4.2-5.17-7.78-12.27-9.56-18.35s-3.35-23.99,9.97-32.88c13.31-8.89,35.74-.3,43.62,5.04,1.42.96,2.72,2.04,3.92,3.19-1.8-2.11-3.93-4.13-6.38-5.79-7.87-5.34-16.75-9.7-25.54-9.89-7.03-.16-13.16.63-18.45,3.74-5.21,3.06-9.37,8.36-10.28,13.44-1.37,7.63-1.11,14.48.68,20.56,1.79,6.08,5.37,13.18,9.56,18.35.79.97,1.68,1.88,2.6,2.76-.05-.06-.1-.11-.15-.16Z"/>
    <path class="cls-14" d="M1265.26,398.56c1.05,13.64,13.22,24.2,27.18,23.58,13.96-.62,24.43-12.18,23.38-25.82-1.05-13.64-13.21-24.19-27.18-23.58-13.96.62-24.43,12.18-23.38,25.82Z"/>
    <path class="cls-7" d="M1286,402.61c-4.26,4.54-9.48,7.7-15.14,9.82-3.15-3.87-5.2-8.65-5.6-13.88-1.05-13.64,9.42-25.2,23.38-25.82,2.55-.11,5.03.15,7.4.73,1.26,10.44-2.9,21.54-10.05,29.15Z"/>
    <path class="cls-17" d="M1310.29,414.22c-4.51,5.1-10.84,8.07-17.83,8.38-14.19.63-26.6-10.14-27.67-24.01h0c-.51-6.62,1.62-12.99,6-17.94,4.51-5.09,10.84-8.07,17.82-8.38,14.19-.63,26.6,10.14,27.67,24.01.46,5.97-1.22,11.72-4.76,16.42-.39.52-.8,1.03-1.24,1.52ZM1265.73,398.52h0c1.03,13.37,13,23.75,26.69,23.14,6.73-.3,12.83-3.16,17.17-8.07,4.21-4.76,6.26-10.88,5.77-17.25-1.03-13.37-13-23.75-26.69-23.14-6.73.3-12.82,3.16-17.17,8.07-.42.47-.82.96-1.19,1.46-3.4,4.51-5.02,10.05-4.58,15.79Z"/>
    <path class="cls-13" d="M1271.93,398.26c.77,10.05,9.73,17.82,20.02,17.36,10.28-.45,17.99-8.97,17.22-19.01-.77-10.05-9.73-17.82-20.02-17.36-10.28.46-17.99,8.97-17.22,19.01Z"/>
    <path class="cls-2" d="M1274.35,381.63c.33,4.29,4.16,7.61,8.55,7.41,4.39-.19,7.68-3.83,7.36-8.12-.33-4.29-4.16-7.61-8.55-7.41-4.39.19-7.68,3.83-7.35,8.12Z"/>
    <path class="cls-12" d="M1279.37,357.09s-11.89-.24-20.54,7.72c-8.71,8.02-8.33,21.85-8.33,21.85,0,0-5.09-14.37,5.06-24.28,10.15-9.91,23.8-5.3,23.8-5.3Z"/>
    <path class="cls-13" d="M1313.78,417.71c-13.05,12.9-30.69,13.34-40.8,7.03-10.11-6.31-19.08-21.99-19.96-35.95-.64-10.1,1.54-18.8,8.17-24.13,15.17-12.21,40.83-3.58,54.31,9.94,6.01,6.03,8.37,11.37,8.74,17.61.87,14.85-7.66,22.75-10.45,25.5ZM1255.55,390.28c.86,13.59,8.03,26.84,17.85,32.97h0c10.06,6.28,24.84,4.97,37.58-7.61,8.27-8.18,11.75-16.69,11.3-23.59-.37-5.65-2.27-10.44-8.05-16.23-13.2-13.24-36.49-20.03-51.11-7.9-.94.78-1.8,1.67-2.57,2.65-3.71,4.72-5.51,11.68-5.01,19.7Z"/>
    <path class="cls-11" d="M1236.23,347.78c6.75-7.83,18.98-10.03,29.53-5.66-13.98,2.21-31.44,18.05-34.31,41.79-6.72-18.94-2.12-28.13,4.78-36.13Z"/>
    <path class="cls-2" d="M1233.42,356.11c.56.42,1.99-.53,3.19-2.13,1.2-1.6,1.72-3.23,1.16-3.65-.56-.42-1.99.53-3.19,2.13-1.2,1.6-1.72,3.23-1.16,3.65Z"/>
    <path class="cls-13" d="M1675.95,466.1c-36.72,0-78.86-20.13-95.55-39.82-5.46-6.44-7.77-12.47-6.69-17.43,2.53-11.55,14.18-23.42,28.91-38.46,24.24-24.72,57.43-58.59,68.54-111.87,5.69-27.28-3.3-43.71-32-55.23-17.54-7.04-47.89-5.78-90.98,37.3-22.67,22.67-40.06,31.56-60.76,44.45-18,11.22-36.56,21.32-55.86,58.77,12.55-37.91,37.74-50.76,54.06-61.34,20.54-13.3,37.86-21.62,60.34-44.1,44.3-44.29,75.55-44.78,93.97-37.39,30.03,12.05,40.29,29.45,34.3,58.17-11.3,54.18-44.86,88.42-69.37,113.42-14.39,14.68-25.75,26.27-28.09,36.93-.87,3.96,1.21,9.05,6.01,14.72,16.96,20.02,59.95,40.19,96.96,38.29,0,0-2.13,3.56-3.81,3.56Z"/>
    <path class="cls-13" d="M1672.52,468.85c-40.49,2.58-74.78-17.43-92.92-34.36-8.5-7.94-13.82-15.85-13.88-20.65-.14-12.19,15.4-29.46,33.19-47.8,24.8-25.57,56.44-56.69,65.79-97.11l.27-1.15c2.3-9.88,5.16-22.19.02-29.87-2.37-3.55-6.23-5.78-11.48-6.65-19.12-3.16-37.89,10.5-55.78,40.61-33.9,57.05-69.56,94.6-119.26,125.55-27.25,16.97-72.32,30.93-102.25,33.6-.87,1.43-3.44,5.73-4.58,6.96,3.12-.81,11.39-2.94,23.75-6.1,15.61-3.98,57.07-14.57,84.73-31.8,50.15-31.23,86.13-69.1,120.3-126.61,17.16-28.89,34.84-42.05,52.57-39.12,4.42.73,7.49,2.46,9.38,5.3,4.38,6.56,1.7,18.12-.47,27.42l-.27,1.16c-9.15,39.57-39.68,71.04-64.21,96.32-19.03,19.62-34.07,35.12-33.91,48.6.07,5.8,5.49,14.15,14.87,22.91,17.6,16.43,50.43,34.75,87.08,34.75,2.06,0,4.14-.06,6.23-.18l.81-1.77Z"/>
    <path class="cls-13" d="M1331.94,490.59c.83-17.46,15.84-37.48,33.39-50.25,19.26-14.02,17.8-37.81,17.49-46.29,2.7,13.47,4.87,33.45-15.81,48.94-16.63,12.46-29.65,29.84-35.07,47.6Z"/>
    <path class="cls-13" d="M1761.45,446.35c-2.98-4.77-7.68-7.8-13.97-8.99-17.65-3.35-47.07,8.32-76.79,30.43-31.77,23.63-74.54,36.85-127.11,39.28-34.53,1.6-66.8-12.81-98.01-26.75-29.55-13.2-58.39-28.53-90.87-28.52-.31.55-2.33,2.82-2.66,3.33-.34.51-.67,1.03-1,1.54,32.46-.58,63.37,13.17,93.25,26.51,31.55,14.09,64.17,28.66,99.43,27.02,53.21-2.46,96.56-15.88,128.84-39.9,29.04-21.6,57.52-33.05,74.34-29.87,5.4,1.02,9.4,3.57,11.89,7.56,8.76,14.06,11.53,30.12,7.78,45.24-4.06,16.43-15.3,30.42-32.49,40.46-26.14,15.26-47.58,21.98-74.73,30.48-16.8,5.26-35.84,11.23-59.32,20.3-4.12,1.59-9.18,3.8-15.05,6.36-15.9,6.94-52.63,22.99-86.27,28.57-41.11,6.81-71.96,1.84-71.96,1.84,12.56,3.07,25.18,4.38,37.62,4.38,48.78,0,94.66-20.03,121.86-31.91,5.83-2.55,10.87-4.75,14.93-6.31,23.39-9.04,42.38-14.99,59.13-20.24,27.33-8.56,48.92-15.33,75.37-30.76,17.94-10.47,29.68-25.14,33.95-42.42,3.95-15.95,1.04-32.87-8.17-47.65Z"/>
    <path class="cls-13" d="M1582.9,487.05c-19.68-1.3-45.58-16.78-56.02-25.2-6.16-4.97-12.5-10.72-22.2-15.1-9.16-4.13-17.87-5.01-37.63,2.18-19.83,7.21-32.75,26.65-32.88,26.84l-2.6-1.76c.54-.81,13.59-19.85,34.37-27.41,20.78-7.55,30.09-6.56,40-2.09,10.07,4.54,16.59,9.81,22.9,14.9,10.11,8.15,31.64,22.66,54.05,27.64Z"/>
    <path class="cls-13" d="M1650.65,482.49s-4.77-4.36-24.29-5.07c-23.98-.87-42.05-13.62-58.17-24.66-12.17-8.33-23.23-15.73-33.94-16.6-15.82-1.28-30.78,9.02-30.93,9.11l-4.58-1.94c.64-.4,18.81-10.52,35.7-9.14,11.54.94,22.89,8.71,34.91,16.93,15.77,10.8,33.65,23.03,56.73,23.88,20.99.77,25.71,5.56,26.18,6.1l-1.6,1.38Z"/>
    <path class="cls-13" d="M1457.11,211.38c-29.22-3.39-56.58-1.73-83.63,5.07-38.97,9.8-76.77,30.4-112.34,61.24-40.89,35.45-64.9,61.8-84.19,82.98-5.46,5.99-25.93,28.71-60.05,51.66-34.12,22.95-74.2,34.94-114.02,34.94-.38,0-.77,0-1.16,0-8.41-.05-16.07-3.26-24.1-10.1-10.46-8.91-20.66-23.37-32.47-40.1-29.8-42.22-70.6-100.04-159.81-139.36-20.99-9.25-31.27-11.35-35.47-7.23-4.98,4.88-.22,16.3,7.66,35.22,3.27,7.86,6.98,16.77,10.5,26.53,12.87,35.76,19.2,118.7-23.51,157.59-19.76,18-46.47,26.68-77.26,25.16-27.55-1.37-56.37-10.84-81.14-26.66-46.3-29.56-114.22-117.58-142.5-184.66-24.99-59.31-60.2-163.29-100.95-184.97,35.61,27.56,69.72,118.96,98.06,186.19,28.47,67.56,96.97,156.26,143.7,186.09,25.23,16.1,54.59,25.74,82.68,27.15,2.37.12,4.72.18,7.04.18,28.68,0,53.62-8.98,72.48-26.16,24.5-22.32,31.85-56.64,33.71-81.5,2.43-32.68-3.24-62.48-9.36-79.48-3.54-9.84-7.27-18.78-10.56-26.68-6.6-15.86-11.82-28.38-8.36-31.77,4.4-4.31,25.18,4.84,32.01,7.85,88.41,38.97,128.93,96.38,158.51,138.3,11.93,16.91,22.24,31.51,33,40.68,8.63,7.35,16.92,10.8,26.12,10.85.4,0,.78,0,1.18,0,40.47,0,81.73-12.03,115.8-35.5,21.41-14.75,38.71-28.13,60.58-52.13,19.24-21.11,43.17-47.39,83.93-82.72,60.25-52.23,123.57-73.68,193.55-65.56,49.95,5.79,81.6,31.15,81.92,31.41l3.19-2.36c-.32-.26-33.84-26.26-84.74-32.16Z"/>
    <path class="cls-13" d="M1024.72,915.34c-86.91-5.65-167.28-14.03-279.84-57.36-48.74-18.76-154.12-75.4-242.48-172.56-88.34-97.13-134.58-219.48-156.12-361.84-1.73-11.46-2.53-23.13-3.31-34.41-2.59-37.8-5.03-73.5-42.59-91.66-17.97-8.69-45.82-17.76-75.31-27.37-52.19-17.01-107.47-24.44-152.34-61.02C22.85,68.45-10.12,8.2,2.82.72c12.94-7.47,74.19,45.4,170.4,47.99,56.2,1.51,111.14-7.61,141.4,26.79.68-5.11,3.02-15.76,17.64-20.72,13.89-4.71,51.7,3.87,100.06,1.97,48.36-1.9,83.22-10.58,96.49-34.51,8.13-14.67,14.1-20.75,19.44-20.18,9.12.97,17.8,44.21,19.34,54.73,3.93,26.71,1.89,60.8-30.77,85.06-21.19,15.74-45.09,25.67-66.18,34.44-27.48,11.42-51.19,24.85-55.46,41.45l-3.22-4.97c4.66-18.12,29.19-27.62,57.48-39.38,20.92-8.69,44.64-18.55,65.51-34.06,31.09-23.1,33.27-55.74,29.59-81.59-1.51-10.58-10.74-51.71-16.71-52.57-2.52-.36-7.42,2.61-16.28,18.59-14.08,25.4-52.23,35.47-99.51,36.11-47.28.64-85.39-7.1-98.25-2.35-18.01,6.65-16.07,21.82-15.93,22.29l2.76,9.36-5.56-8.01c-25.61-36.94-84.21-29.72-141.84-29.31C92.86,52.42,15.32,1.51,7.09,5.87-1.14,10.23,21.28,63.71,75.01,106.31c43.99,34.88,99.14,43.93,151.03,60.84,29.59,9.64,57.54,18.75,75.7,27.53,39.19,18.95,41.7,55.53,44.35,94.27.77,11.22,1.56,22.81,3.28,34.15,21.45,141.74,69.06,262.62,156.97,359.27,87.91,96.66,191.32,152.95,240.03,170.97,115.8,42.86,192.19,52.05,278.78,58.01,107.1,7.36,212.08-16.02,299.87-57.05,131.92-61.65,168.04-118.77,202.97-175.54,20.63-33.52,38.84-64.12,76.75-95.42l8.03-.31c-37.51,30.97-61.61,64.09-82.1,97.38-35.18,57.16-71.55,116.26-204.32,178.3-74.96,35.03-168.23,65.28-301.63,56.61Z"/>
    <path class="cls-13" d="M1699.32,769.86c6.4,6.8,2.29,13.23-19.53,10.18-10.59-1.48-22.05-4.85-60.07-9.38-32.5-3.88-102.22-6.75-156.93-2.44l6.36-6.36c54.97-4.33,120.79,2.17,150.67,5.43,29.88,3.26,48.47,6.74,59.13,8.55,14.45,2.45,20.02-1.38,11.57-10.16-42.4-44.11-98.84-77.07-158.02-91.7l3.39-2.58c89.51,19.41,143.14,76.91,163.43,98.47Z"/>
    <path class="cls-13" d="M337.69,155.77c-2.12-22.18-10.75-45.23-10.75-45.23,0,0,6.38,28.81,7.92,46.71,1.54,17.9-.3,37.05-.3,37.05,0,0,5.24-16.35,3.12-38.53Z"/>
    <path class="cls-9" d="M1342.56,389.6c-10.55,3.71-27.31,13.58-33.59,18.58-6.28,5-22.81,23.77-27.13,32.55-4.32,8.78,11.13,8.97,31.4,2.11,20.27-6.85,28.54-19.99,34.75-33.76,6.21-13.77,9.14-24.6-5.42-19.48Z"/>
    <path class="cls-13" d="M1281.84,440.6c11.32-25.15,34.02-44.25,60.73-51.11,0,0-17.9,7.31-33.08,20.4-15.18,13.09-27.65,30.71-27.65,30.71Z"/>
    <ellipse class="cls-11" cx="1317.93" cy="422.16" rx="30.25" ry="10.16" transform="translate(68.97 1018.19) rotate(-43.27)"/>
    <path class="cls-2" d="M1320.25,414.45c1.09,1.16-.3,4.24-3.1,6.88-2.8,2.64-5.96,3.84-7.05,2.68-1.09-1.16.3-4.24,3.1-6.88,2.8-2.64,5.96-3.84,7.05-2.68Z"/>
  </g>
  <g id="_3" data-name="3">
    <path class="cls-5" d="M1216.05,701.73s-.53.53-1.52,1.51c-7.39,7.39-39.85,39.82-56.11,56.64-18.44,19.07-71.83,68.02-107.63,97.04-35.8,29.02-87.47,56.42-119.06,71.19-31.61,14.75-83.2,29.68-118.01,34.1-34.83,4.43-38.14-.2-40.29-3.17-1.16-1.62-.75-3.41.56-5.29,1.08-1.58,2.81-3.23,4.76-4.88,4.24-3.61,10.97-9.46,26.27-16.75,15.3-7.27,36.44-27.97,54.02-45.12,17.59-17.17,39.41-48.51,59.83-80.17,19.27-29.9,28.89-46.22,49.34-64.5,20.47-18.27,35.94-20.16,53.09-24.34,120.16-29.32,194.75-16.26,194.75-16.26Z"/>
    <path class="cls-6" d="M1061.61,709.34c44.13-6.62,85.16-12.53,128.3-10.03-40.68-5.54-87.15,1.48-128.3,10.03Z"/>
    <path class="cls-15" d="M1216.05,701.73c-7.39,7.39-41.37,41.32-57.63,58.15-18.44,19.07-71.83,68.02-107.63,97.04-35.8,29.02-87.47,56.42-119.06,71.19-31.61,14.75-83.2,29.68-118.01,34.1-34.83,4.43-38.14-.2-40.29-3.17-1.16-1.62,1.11-6.16,2.43-8.05,26.82,1.76,67-7.69,86.65-12.61,72.46-18.14,138.19-59.34,196.37-105.44,29.36-23.26,57.27-48.42,84.12-74.52,24.34-23.65,53.66-45.89,73.04-56.7Z"/>
    <path class="cls-6" d="M1216.05,701.73c-7.39,7.39-41.37,41.32-57.63,58.15-18.44,19.07-71.83,68.02-107.63,97.04-35.8,29.02-87.47,56.42-119.06,71.19-31.61,14.75-83.2,29.68-118.01,34.1-34.83,4.43-38.14-.2-40.29-3.17-1.16-1.62-.75-3.41.56-5.29,26.82,1.76,68.87-7.31,88.52-12.23,72.46-18.14,138.19-59.34,196.37-105.44,29.36-23.26,57.27-48.42,84.12-74.52,24.34-23.65,53.66-49.03,73.04-59.84Z"/>
    <path class="cls-13" d="M784.2,965.99c-8.65,0-12.01-3.7-12.76-6.32-1.37-4.8,3.15-11.57,11.15-16.1,81.94-46.43,121.13-116.04,143.21-153.52,3.48-5.91,6.48-11.01,9.15-15.19,22.57-35.39,57.81-56.32,86.35-56.87-25.6,4.47-58.56,24.04-80.57,58.56-2.64,4.14-5.63,9.22-9.1,15.1-22.23,37.73-63.62,107.97-146.29,154.82-6.41,3.63-10.71,9.01-9.78,12.25.68,2.37,4.55,3.59,10.65,3.33,76.63-3.13,158.86-33.75,237.79-88.57,52.68-36.58,100.07-80.87,144.22-126.07,15.56-15.93,47.84-45.68,47.84-45.68-57.07,60.98-118.78,126.24-190.27,175.89-79.42,55.15-162.71,85.18-239.93,88.33-.58.02-1.13.04-1.66.04Z"/>
    <path class="cls-2" d="M987.43,885.35s33.44-18.33,64.65-42.5c27.11-21,36.76-33.08,36.76-33.08,0,0-27.97,21.22-41.09,31.02-13.12,9.81-60.33,44.56-60.33,44.56Z"/>
  </g>
</svg>