<?xml version="1.0" encoding="UTF-8"?>
<svg id="Layer_1" data-name="Layer 1" xmlns="http://www.w3.org/2000/svg" viewBox="0 0 23.4 21.6">
  <defs>
    <style>
      .cls-1 {
        opacity: .75;
      }

      .cls-2 {
        fill: #fff;
      }
    </style>
  </defs>
  <g class="cls-1">
    <g>
      <path class="cls-2" d="M2.1,12.22l9.52-7.94h.28s9.28,7.63,9.28,7.63c.12.27.14.56.14.86-.04,2.38-.18,4.99-.34,7.35-.02.26.09,1.48-.17,1.48h-6.7s-.16-.15-.16-.16v-6.69c0-.08-.2-.13-.28-.16-.41-.18-3.06-.17-3.62-.11-.14.02-.71.13-.71.27v6.69s-.15.16-.16.16H2.27s-.16-.15-.16-.16v-9.22ZM8.25,20.5v-6.86s.15-.16.16-.16h6.37s.16.15.16.16v6.58c0,.27.38.36.6.38.87.09,3.1.11,3.96,0,.4-.05.45-.23.49-.61.11-.93.07-2.29.11-3.29.06-1.35.08-2.71.1-4.06-.05-.25-.52-.62-.74-.82-1.98-1.77-4.45-3.74-6.56-5.38-.41-.32-1.07-1-1.54-.67L3.36,12.49l-.25.52c0,2.49-.15,5,.1,7.47l5.03.02Z"/>
      <path class="cls-2" d="M17.36,6.46c-.1.11-.7-.37-.81-.46-1.42-1.18-2.73-2.79-4.13-3.99-.19-.16-.72-.64-.91-.59L.67,10.58c-.31.16-.94-.69-.54-.99L11.61,0l4.28,3.92c.77.18.24-.85.48-1.3h2.91s.16.15.16.16v3.73c1.21,1.14,2.53,2.16,3.85,3.17.34.29-.24.95-.5.94s-3.63-3.02-4.21-3.37c-.5-.53-.13-1.28-.13-1.85,0-.21-.11-.43-.12-.66s.13-.52.07-.72c-.15-.57-1.05-.54-1.05-.05v2.47Z"/>
    </g>
  </g>
</svg>