<?xml version="1.0" encoding="UTF-8"?>
<svg id="Layer_1" data-name="Layer 1" xmlns="http://www.w3.org/2000/svg" viewBox="0 0 205.43 203.43">
  <defs>
    <style>
      .cls-1 {
        fill: #ed2024;
      }

      .cls-2 {
        fill: none;
        stroke: #231f20;
        stroke-miterlimit: 10;
        stroke-width: 3px;
      }
    </style>
  </defs>
  <path class="cls-2" d="M36.29,83.89v28.17c0,3.8,3.08,6.88,6.88,6.88h6.78c3.65,0,7.23.94,10.41,2.73l34.24,19.27c2.49,1.4,5.57-.4,5.57-3.26V56.81c0-2.95-3.25-4.73-5.74-3.16l-32.66,20.64c-2.74,1.73-5.92,2.66-9.16,2.68l-9.49.05c-3.78.02-6.84,3.09-6.84,6.88Z"/>
  <path class="cls-2" d="M115.85,65.08c16.85,21.98,14.85,42.74,1.21,62.75-1.13,1.66-3.39,2.09-5.06.99h0c-1.59-1.05-2.23-3.22-1.2-4.82,12.44-19.26,12.27-37.89-.78-54.39-1.23-1.56-.94-3.83.59-5.09l.02-.02c1.59-1.3,3.97-1.06,5.22.58Z"/>
  <path class="cls-2" d="M124.17,62.95c17.41,24.65,16.08,46.53,1.24,66.41-1.2,1.6-1.01,3.85.46,5.21l.45.42c1.7,1.57,4.41,1.33,5.77-.54,18.9-25.96,17.3-51.31-1.66-76.13-1.35-1.77-3.91-2.04-5.61-.61h0c-1.55,1.31-1.82,3.58-.65,5.24Z"/>
  <path class="cls-2" d="M138.3,57.46c20.78,23.27,19.32,53.03-.06,81.38-1.04,1.52-.66,3.6.84,4.67h0c1.54,1.1,3.68.72,4.78-.82,23.36-33.09,20.7-63.31.58-91.4-1.23-1.72-3.74-1.89-5.21-.37l-.84,1.91c-1.24,1.28-1.27,3.3-.08,4.63Z"/>
  <path class="cls-1" d="M101.72,203.43C45.63,203.43,0,157.8,0,101.71S45.63,0,101.72,0s101.71,45.63,101.71,101.71-45.63,101.72-101.71,101.72ZM52.85,167.17c14.06,10.51,31.26,16.26,48.87,16.26,45.06,0,81.71-36.66,81.71-81.72,0-21-8.24-41.36-22.75-56.51l-107.83,121.97ZM101.72,20c-45.06,0-81.72,36.65-81.72,81.71,0,17.94,5.94,35.37,16.8,49.58L143.57,31.55c-12.63-7.57-27-11.55-41.85-11.55Z"/>
</svg>