<?xml version="1.0" encoding="UTF-8"?>
<svg id="Layer_1" data-name="Layer 1" xmlns="http://www.w3.org/2000/svg" viewBox="0 0 22.97 19.67">
  <defs>
    <style>
      .cls-1 {
        opacity: .75;
      }

      .cls-2 {
        fill: #fff;
      }
    </style>
  </defs>
  <g class="cls-1">
    <g>
      <path class="cls-2" d="M2.35,19.67c.41-1.36.82-2.78.69-4.22s-1.22-2.28-1.88-3.45C-.55,8.96-.48,4.55,2.11,2.02,5.62-1.42,13.16-.43,14.53,4.71c.24.92-.04.98-.07,1.71-.03.69,1.28,2.21,1.67,2.87.16.27.26.42.19.76-.14.63-1.19.57-1.34.79-.06.09-.14.55-.13.66.02.26.47.55.2.84-.12.13-1.5.11-1.23.51.04.06,1.14.31,1.18.48.07.27-.13.35-.21.52-.36.77.55,1.64-.36,2.45-.84.74-2.22.23-3.21.35-.78.09-.52,1.45-.57,2-.03.33-.19.67-.15,1.01H2.35Z"/>
      <path class="cls-2" d="M20.51,7.34c.32-.07.43.13.63.33,2.12,2.23,2.39,5.96.8,8.56-.18.29-.84,1.22-1.1,1.37-.32.19-.64-.04-.56-.41.02-.11.73-.9.87-1.11,1.43-2.16,1.44-5.07-.02-7.22-.13-.18-.83-.96-.85-1.03-.06-.19,0-.45.22-.5Z"/>
      <path class="cls-2" d="M18.78,8.37c.19-.04.3,0,.43.14,2.01,1.91,2.06,5.41.37,7.53-.19.24-.63.84-.96.47s.3-.84.53-1.15c1.35-1.87,1.15-4.24-.21-6.03-.14-.18-.36-.29-.41-.53-.03-.17.07-.39.25-.42Z"/>
      <path class="cls-2" d="M16.89,9.51c.42-.42.96.53,1.14.83.74,1.27.83,2.73.17,4.06-.15.31-.88,1.51-1.3,1.07-.34-.36.15-.67.36-.97.86-1.22.85-2.75,0-3.98-.19-.27-.73-.65-.37-1.01Z"/>
    </g>
  </g>
</svg>