<?xml version="1.0" encoding="UTF-8"?>
<svg id="Layer_1" data-name="Layer 1" xmlns="http://www.w3.org/2000/svg" viewBox="0 0 31.13 30.75">
  <path d="M6.14,19.82l-1.98-2.73c-.18-.13-1.06-.04-1.37-.07-.98-.1-1.64-.66-1.88-1.61l-.03-12.58c.07-.86.63-1.54,1.45-1.8,5.43-.08,10.9-.05,16.33-.01.8.27,1.34.9,1.44,1.74-.21,3.95.27,8.19,0,12.11-.09,1.24-.7,2-1.97,2.15h-8.54c-.15.06-1.41,2.19-1.67,2.52-.52.65-1.09.79-1.78.27ZM6.92,12.54h1.19c.19-.59.37-1.24.59-1.81.08-.2.14-.41.37-.44.29-.03,2.72-.04,2.84.03l.81,2.22h1.31l-2.88-7.79h-1.4s-2.84,7.79-2.84,7.79Z"/>
  <path d="M21.15,15.41c.09-.19.02-1.2.07-1.25.02-.02.22.03.28-.07.6-.75,1.06-1.85,1.68-2.56s1.29-.6,1.87.06c.66.75,1.18,1.76,1.84,2.53,1.44-.04,3.01.07,3.25,1.81v12.54c-.18,1.09-1,1.75-2.1,1.77-5.13.11-10.32-.2-15.46-.06-.74-.07-1.65-.98-1.65-1.72v-10.39h1.25v10.26c0,.14.26.52.43.56,5.29.03,10.61.07,15.9-.02.21-.14.41-.33.39-.6v-12.17c-.11-1.15-1.86-.55-2.62-.75l-2.09-2.9-.16.04-1.9,2.89h-.97Z"/>
  <path d="M21.02,18.47v.87h3.12v1.15c0,.18-.72.01-.84.16-.3.6-.6,1.21-.98,1.77-.13.2-.97,1.19-.98,1.27-.01.14.44.44.57.53.61.45,1.29.8,1.95,1.17l-.56,1.12c-.58-.34-1.18-.63-1.74-1-.21-.14-1.07-.86-1.2-.86-.94.69-1.87,1.41-2.96,1.84-.1-.15-.55-1.07-.49-1.15.81-.34,1.54-.82,2.24-1.35l.32-.3c-.86-.88-1.56-1.93-2-3.08h-.8v-1.25h3.06c.03-.2-.09-.83.12-.91.05-.02.08.03.09.03h1.09ZM21.9,20.59h-3.06c.17.48.48.96.79,1.37.13.17.62.85.8.82.06-.01.71-.89.8-1.02.26-.37.48-.76.67-1.17Z"/>
  <path d="M2.34,18.4c.12.04.33,1.05.39,1.23.85,2.62,2.49,4.98,4.7,6.63l-.31-1.62,1.24-.25c.04.46.9,3.64.79,3.8s-3.31.71-3.75.81c-.09,0-.08-.02-.11-.08-.12-.26-.12-.76-.2-1.05.08-.15,1.53-.29,1.78-.46-2.24-1.71-4.04-3.97-5.04-6.63-.28-.75-.55-1.59-.64-2.39h1.15Z"/>
  <path d="M28.67,12.79c-.08-.03-.33-1.05-.39-1.23-.87-2.64-2.47-4.96-4.69-6.63l.16,1.06c-.18.07-1.14.34-1.23.21-.03-.39-.74-3.07-.65-3.21.1-.15,2.87-.57,3.25-.75l.28,1.25-1.25.28c2.75,2.01,4.87,5.13,5.62,8.48.02.1.16.54.02.54h-1.12Z"/>
  <polygon points="9.17 9.36 10.33 5.74 11.67 9.36 9.17 9.36"/>
</svg>