<?xml version="1.0" encoding="UTF-8"?>
<svg xmlns="http://www.w3.org/2000/svg" viewBox="0 0 1300 800">
  <defs>
    <style>
      .cls-1 {
        fill: #48d0e5;
      }

      .cls-2 {
        fill: #585858;
      }

      .cls-3 {
        fill: #5a5a5a;
      }

      .cls-4 {
        fill: #c2c1bf;
      }

      .cls-5 {
        fill: #4e4e4e;
      }

      .cls-6 {
        fill: #494949;
      }

      .cls-7 {
        fill: #adacaa;
      }

      .cls-8 {
        fill: #727271;
      }

      .cls-9 {
        fill: #5e5e5e;
      }

      .cls-10 {
        fill: #4c4c4b;
      }

      .cls-11 {
        fill: #383838;
      }

      .cls-12 {
        fill: #9e9d9b;
      }

      .cls-13 {
        fill: #262626;
      }

      .cls-14 {
        fill: #4c4c4c;
      }

      .cls-15 {
        fill: #b1afaf;
      }

      .cls-16 {
        fill: #9a9a98;
      }

      .cls-17 {
        fill: #c89e3d;
      }

      .cls-18 {
        fill: #222;
      }

      .cls-19 {
        fill: #d7d8d5;
      }

      .cls-20 {
        fill: #2fae1a;
      }

      .cls-21 {
        fill: #42c62a;
      }

      .cls-22 {
        fill: #3d3d3c;
      }

      .cls-23 {
        fill: #43e3ef;
      }

      .cls-24 {
        fill: #92ea4e;
      }

      .cls-25 {
        fill: #6b6b69;
      }

      .cls-26 {
        fill: #6a6a68;
      }

      .cls-27 {
        fill: #464646;
      }

      .cls-28 {
        fill: #545454;
      }

      .cls-29 {
        fill: #a7a6a4;
      }

      .cls-30 {
        fill: #1f7a13;
      }

      .cls-31 {
        fill: #aeadad;
      }

      .cls-32 {
        fill: #279c17;
      }

      .cls-33 {
        fill: #bfbfbc;
      }

      .cls-34 {
        fill: #4b4b4b;
      }
    </style>
  </defs>
  <g id="background">
    <g>
      <g>
        <polygon class="cls-1" points="458.46 564.08 369.96 532.58 299.47 535.58 162.97 504.08 81.98 522.08 0 551.68 0 666.14 669.95 643.57 585.95 592.58 488.46 570.08 458.46 564.08"/>
        <polygon class="cls-23" points="162.97 504.08 249.97 579.08 260.47 544.58 299.47 535.58 162.97 504.08"/>
        <polygon class="cls-23" points="369.96 532.58 422.46 576.08 575.45 597.08 615.95 627.08 669.95 643.57 585.95 592.58 458.46 564.08 369.96 532.58"/>
      </g>
      <g>
        <polygon class="cls-1" points="1300 472.57 1226.42 483.08 1077.93 529.58 1020.93 556.58 965.43 567.08 860.44 649.57 1300 634.37 1300 472.57"/>
        <polygon class="cls-23" points="1020.93 556.58 990.93 580.58 965.43 567.08 1020.93 556.58"/>
      </g>
      <g>
        <path class="cls-30" d="M1300,606.46l-67.58-7.88-31.5,7.5-21-6-19.5,9-55.5-6s-31.5,9-36,7.5c-4.5-1.5-12-10.5-12-10.5l-30,9-40.5-4.5-49.5,4.5-31.5-4.5-24,9-16.5-6-60,12,495.06,15.65v-28.76Z"/>
        <polygon class="cls-30" points="594.95 622.58 560.45 604.58 539.46 609.08 521.46 598.58 497.46 603.08 485.46 610.58 462.96 609.08 438.96 624.08 594.95 622.58"/>
        <polygon class="cls-30" points="284.47 601.58 266.47 606.08 254.47 613.58 236.47 606.08 212.47 610.58 180.97 603.08 149.48 609.08 110.48 600.08 95.48 604.58 77.48 612.08 45.98 600.08 30.98 604.58 0 601.48 0 637.28 410.46 630.08 330.97 609.08 308.47 609.08 284.47 601.58"/>
      </g>
      <g>
        <rect class="cls-21" x="0" y="624.07" width="1300" height="175.93"/>
        <polygon class="cls-20" points="681.36 690.48 1164.99 756.35 1051.36 626.48 319.36 630.48 603.35 693.65 681.36 690.48"/>
        <polygon class="cls-20" points="1300 629.05 1137.36 630.48 1219.36 758.48 1300 772.79 1300 629.05"/>
        <polygon class="cls-24" points="1300 623.88 548.46 618.08 0 623.74 0 632.29 422.46 640.57 500.46 631.58 1029.93 634.58 1300 629.57 1300 623.88"/>
        <polygon class="cls-20" points="1300 780.11 1300 800 0 800 0 733.94 371.36 700.48 709.36 714.48 1300 780.11"/>
        <polygon class="cls-32" points="1300 789.57 1300 800 1010.02 800 963.36 752.48 1300 789.57"/>
        <polygon class="cls-32" points="139.36 782.48 158.48 800 0 800 0 744.09 299.36 716.48 139.36 782.48"/>
      </g>
    </g>
  </g>
  <g id="Layer_4" data-name="Layer 4">
    <g>
      <path class="cls-26" d="M669.26,444.03c5.09,2.38,10.38,7.64,14.35,9.31,7.42,3.11,13.48,3.51,21.53,8.04,31.94,17.96,54.42,54.77,61.19,90.14l-6.4-4.92c-1.9-.59,2.7,9.87,2.97,10.83,3.95,13.63,6.38,28.22,6.39,42.4-2.28.58-1.62-.45-2.25-1.24-.57-.72-5.19-9.53-5.63-6.14,1.48,17.29,7.66,41.4,17.75,55.7-6.81,5.68-3.6,15.39-2.35,22.57.16.9,1.04,3-1.09,2.07-1.97-.86-11.41-10.13-13.29-12.34-25.77-30.29-17.86-76.4-22.82-113.24-3.66-27.22-14.36-52.23-33.37-72.12-1.1-1.15-10.86-10.42-11.85-9.34,1.28,6.54,5.22,12.34,6.89,18.73,2.5,9.52,3.44,21.72,2.96,31.55-.18,3.63-.92,6.61-.99,10.85-.31,21.14-15.12,50.48-20.63,71.55-6.06,23.17-8.77,57.89.42,80.28,1.14,2.79,4.2,5.89,4.96,8.85,1.68,6.53-5.03,52.5-6.56,62.51-.59,3.84-2.29,7.69-2.83,10.48-9.03,8.94-14.44,15.2-28.59,12.82-.26-.11-.57-.89-.99-.99,9.18-24.45,21.36-71.09,4.35-93.58-3.32-4.39-8.57-8.16-12.21-12.44-6.84-8.03-11.12-16.26-17.16-24.25-1.02-1.35-1.32-2.97-3.57-2.84-.58-6.63-3.35-8.47-5.41-13.81-4.35-11.27-9.57-26.45-10.36-38.44-1.04-15.65,3.53-32.46,10.33-46.36l1.5-6.88c4.69-7.54,10.36-16.59,10.35-25.63-18.89,34.15-53.29,60.88-94.39,53.97-23.37-3.93-42.46-25.4-68.76-9.61l3.31-4.57c13.79-7.06,22.58-19.83,32.65-30.94,13.26-14.63,27.33-24.08,24.17-47.31,8.66,7.66,12.11,19,16.65,29.18,2.09,4.69,2.97-3.86,2.95-5.9-.06-9.02-3.84-18.5-5.81-27.21,25.8-.97,51.55-3.7,76.7-9.55,8.18-1.9,29.89-7.25,35.21-13.1,1.49-1.64,1.71-2.81,1.44-4.96,6.09,1.41,12.57,3.24,18.25,5.9ZM628.33,505.18c-.34-.67-1.67.58-.97,1.96.34.67,1.67-.58.97-1.96Z"/>
      <path class="cls-11" d="M590.62,589.21c4.54-1.4,9.27-2.52,14.06-2.2.79,11.99,6.01,27.17,10.36,38.44,2.06,5.35,4.83,7.18,5.41,13.81.46,5.29-1.12,9.91-1.07,14.3.09,7.09,1.71,21.16,3.73,27.9,1.19,3.98,4.3,7.75,4.99,11.77,1.34,7.84-2.25,18.03-4.43,25.67-7.13,24.96-17.69,48.98-26.88,73.19h-46.33c2.07-5.59,5.34-14.31,10.34-17.75,5.86-4.03,10.89-.96,15.79-5.9,8.44-8.5,18.57-40.97,19.92-53.03,4.9-43.47-18.03-49.33-37.21-80.55-4.75-7.74-9.75-16.25-11.81-25.16,13.97-5.46,28.36-15.91,43.11-20.47ZM578.54,784.19l6.42-4.91c-1.25-.18-7.57,1.72-7.79,2.06-.5.74-.55,3.65,1.38,2.85Z"/>
      <path class="cls-26" d="M492.3,562.36c-1.96-3.32-3.73-3.65-7.34-3.99-16.8-1.58-26.94,7.44-37.01,19.27l-10.84,17.25c-.59,8.3,2.5,14.16,3.94,21.69.98,5.11.35,10.83,0,15.78,1.67,1.02,1.83,2.67,1.99,4.42,1.86,19.95-.36,45.47,3.92,64.6,2.56,11.43,11.16,27.67,24.64,27.61,2.96-39.22,11.18-72.08,21.69-109.44,5.27-18.73,9.78-38.92-.99-57.18Z"/>
      <path class="cls-18" d="M701.28,484.47c2.5,9.52,3.44,21.72,2.96,31.55,1.66,4.24,2.67,10.27,2.96,14.79.28,4.4.3,8.82.24,13.23-.06,4.56-.05,8.41-.93,12.89-1.2,6.14-2.64,11.89-4.66,17.86-.27.81-3.5,11.09-4.52,10.72,2.44.88,3.07-1.91,6.41-1.48,2.47.32-1.47,2.7-1.77,3.2-9.41,15.87-12.61,39.87-10.54,57.94,3.07-3.93,5.31-9.18,7.88-13.8.93-1.67-.05-4.73,2.95-3.94.5,1.53-.83,2.95-.98,3.94-.92,6.02-.98,12.2,0,18.22.54,3.35.54,6.78,1.29,10.1.75,3.32,2.09,6.49,2.83,9.83.48,2.14,1.15,7.46,3.77,8.19-.21-4.77.49-9.85,1.86-14.43.56-1.89.41-5.04,3.08-4.3.45,14.82,5.78,30.76,16.28,41.4,3.24.15.48-2,.48-2.46v-14.3s11.42,18.65,11.42,18.65c9.75,11.4,21.46,20,36.13,24,13.2,3.6,5.38-1.02.75-6.16,10.63.92,19.01,1.36,29.59-.48,3.17-.55,20.21-5.02,21.66-6.44,2.76-2.7-5.97-1.85-6.9-1.96-28.41-3.29-49.17-12.6-65.85-36.18-.45-.63-4.91-9.46-5.14-5.71-.27,4.49,5.28,12.79,5.94,17.72-3.49,1.24-9-3.94-11.37-6.37-17.96-18.39-20.75-51.48-21.18-75.94-4.28,3.48-4.15,11.35-8.85,14.79,1.97-24.35,10.56-48.82,8.85-73.44-1.3-18.64-9.57-41.53-19.74-57.16-1.12-1.72-2.54-4.43-4.89-4.48Z"/>
      <path class="cls-25" d="M510.05,389.82c-3.63,3.15-6.11,7.64-10.7,10.49-8.2,5.09-15.92,6.04-24.79,12.18,10.55,7.44,12.94,18.3,10.84,30.56l-7.88-3.93c.25,7.72.03,18.19-4.06,25.02-3.48,5.81-2.28-8.94-4.8-9.24-2.13,7.56-4.97,15.13-9.44,21.62-2.05,2.98-10.26,10.55-10.28,12.88-.08,8.95-1.34,18.66-2.03,28.07-.12,1.58-.49,4.47,1.04,5.45.16-.17,2.04-.31,3.01-1.39,4.78-5.32,10.28-11.14,17.69-12.41,1.91,5.67-4.24,12.34-4.95,16.25-.34,1.87.49,1.64,1.98,1.48l21.67-27.14,2.99-.46,1,10.85c6.32-4.92,8.49-13.89,7.89-21.69.92.25,2.64,2.24,2.95,2.96,2.24-.7,6.11-5.18,7.33-6.97,6.19-9.09,10.2-21.58,7.47-32.46,3.29-.91,5.05,2.23,7.89,2.46,3.99-19.23-16.69-21.27-21.69-35.98,4.71,1.72,8.55,5.01,13.13,7.07,5.61,2.52,13.19,5.09,19.2,6.43,2.01.45,6.41,1.75,8.09.3-6.74-3.41-14.46-7.86-20.18-12.85-2.48-2.16-12.32-12.9-13.33-15.27-.85-1.99,1.38-1.4,2.45-1.48,5.75-.41,11.2,2.11,17.25,0-.41-1.61-2.88-1.67-4.44-2.94-3.78-3.08-8.72-8.18-10.34-12.83-1.98,1.13-2.79,1.11-4.93,2.96Z"/>
      <path class="cls-34" d="M798.86,667.37c-1.99,1.77-10.05-1.41-9.89,1.98.4,8.11,16.19,28.2,22.69,33.52l11.84,8.37c-28.41-3.29-49.17-12.6-65.85-36.18-.45-.63-4.91-9.46-5.14-5.71-.27,4.49,5.28,12.79,5.94,17.72-3.49,1.24-9-3.94-11.37-6.37-17.96-18.39-20.75-51.48-21.18-75.94-4.28,3.48-4.15,11.35-8.85,14.79,1.97-24.35,10.56-48.82,8.85-73.44-1.3-18.64-9.57-41.53-19.74-57.16-1.12-1.72-2.54-4.43-4.89-4.48-1.68-6.39-5.62-12.19-6.89-18.73.99-1.08,10.75,8.19,11.85,9.34,19.01,19.89,29.71,44.9,33.37,72.12,4.96,36.84-2.96,82.95,22.82,113.24,1.88,2.21,11.32,11.48,13.29,12.34,2.12.93,1.24-1.17,1.09-2.07-1.25-7.18-4.46-16.89,2.35-22.57,4.82,6.83,13.5,13.53,19.71,19.23ZM752.05,667.85v-.99c-.64.33-.64.66,0,.99Z"/>
      <path class="cls-14" d="M543.56,432.21c-1.68,1.46-6.07.15-8.09-.3-6-1.34-13.59-3.91-19.2-6.43-4.58-2.06-8.42-5.36-13.13-7.07,5,14.71,25.67,16.75,21.69,35.98-2.84-.22-4.59-3.36-7.89-2.46,2.73,10.89-1.27,23.38-7.47,32.46-1.22,1.79-5.08,6.27-7.33,6.97,6.92,16.14-17.67,39.9-28.57,49.8-5.82,5.28-13.08,11.21-19.73,15.27-.03.22-1.72,3.55-1.97,3.94,5.03,1.04,8.53-5.91,11.83-7.89l3.31-4.57c13.79-7.06,22.58-19.83,32.65-30.94,13.26-14.63,27.33-24.08,24.17-47.31,8.66,7.66,12.11,19,16.65,29.18,2.09,4.69,2.97-3.86,2.95-5.9-.06-9.02-3.84-18.5-5.81-27.21,25.8-.97,51.55-3.7,76.7-9.55,8.18-1.9,29.89-7.25,35.21-13.1,1.49-1.64,1.71-2.81,1.44-4.96-29.04-6.75-47.69,1.77-75.54,4.8-22.16,2.41-28.58.39-48.67-6.78-1.61-.58-2.44,1.18-1.97-2.95,1.79-.55,1.78.92,1.97.98,4.55,1.59,13.67,1.3,18.73.99v-1.97c-.63-.29-1.34-.67-1.97-.99Z"/>
      <path class="cls-12" d="M492.3,562.36c10.76,18.26,6.25,38.45.99,57.18,17.41-1.25,37.88-3.48,54.22-9.86,13.97-5.46,28.36-15.91,43.11-20.47,4.54-1.4,9.27-2.52,14.06-2.2-1.04-15.65,3.53-32.46,10.33-46.36l1.5-6.88c-20.23,32.5-76.02,69.69-111.85,40.39-4.44-3.63-7.49-9.28-12.35-11.8Z"/>
      <path class="cls-12" d="M363.17,501.23c-.68,3.09-2.31,5.57-2.96,7.89-.78,2.8-1.05,5.95-.99,8.87l-4.92-1.97c3.9,12.02,6.95,20.88,11.83,32.54,3.8,1.82,3.95,5.55,4.93,8.87,2.79,3.66,8.48,9.8,9.86,13.8,17.3,18.14,35.77,37.07,60.13,45.35-1.44-7.53-4.53-13.39-3.94-21.69.41-5.77,3.62-15.27,5.91-20.7-11.33-4.19-17.67-16.73-27.6-22.68-1.45,3.81-2.88,8.18-4.48,11.83-.37.85-.17,2.69-1.92,1.96-6.89-2.87-9.6-17.55-10.41-24.15-.23-1.85,1.24-4-1.93-3.45-.24,1.74-.94,5.71-.99,6.9-.06,1.63-.05,3.3,0,4.93.08,2.33,1.24,4.52.98,6.9-.99,1.1-6.97-5.34-7.91-6.38-5.84-6.51-10.75-14.49-14.76-22.21-4.61-8.88-6.3-13.69-8.58-23.51-.4-1.74.52-3.69-2.26-3.11Z"/>
      <path class="cls-25" d="M465.69,311.93c-.68.14-1.32,1.4-3.36,1.04-4.24-.73-2.62-4.78-11.24-1.35-16.4,6.54-20.56,38-21.88,53.54-1.08,12.79-1.13,25.6-.99,38.45,1.25.16,8.25,2.9,9.57,3.73,2.58,1.6,2.59,4.09,5.21,4.16.3-3.05.37-8.85,0-11.83-.81-6.55-3.49-12.94-3.94-20.7-.72-12.46.55-32.88,13.28-39.46,10.58-5.48,23.24,5.47,25.16,15.8,1.95.84,5.41,1.32,4.93,3.94,11.82-.04,17.33,23.08,33.52,18.73.85-.23,6.9-3.01,6.88-3.45-5.12-3.06-14.09-11.07-15.74-16.78-.69-2.37,2.09-1.28,3.39-1.45,3.22-.41-2.08-3.03-2.43-3.42-7-7.94-11.53-17.56-15.77-27.16-.24,1.02-2.32,3.07-1.98,4.93-2.42,1.78-13.46-9.71-15.76-11.83-.74-.68-1.25-2.3-1.97-2.96-1.39-1.26-3.15-1.45-4.61-2.33-.5-.3-.25-1.57-.32-1.61-.1-.07-1.59-.08-1.97,0Z"/>
      <path class="cls-27" d="M347.4,401.65c-4.08,9.39-9.23,18.24-15.77,26.13,3.36,1.26,6.73-.98,10.34-.52,1.4.18,1.72-.49,1.47,1.48-7.67,11.05-11.96,23.03-12.82,36.48.7,1.44,1.73.24,2.5-.46,3.24-2.91,5.35-9.43,11.31-8.89-5.81,10.61-8.58,22.33-7.88,34.49l8.38-7.87c.58-.46,4.68-3.14,2.46-.5v14.79c0,4.84,3.9,11.21,5.91,14.3,1.98-1.83,4.23-2.33,6.9-1.97.64-2.32,2.28-4.79,2.96-7.89.45-2.02-.61-4.41.51-6.89.75-1.67,4.21-3.48,5.28-5.55,1.7-3.3-.31-6.55,4.06-7.28-1.53-3.28-7.43-23.42-6.9-25.63h-.99s-4.92,1.97-4.92,1.97c-2-8.24-.37-16.02,2.95-23.66-3.38-.71-3.67,1.97-5.43,3.93-3.47-.21-.57-7.28.03-8.85,2.55-6.76,6.56-9.66,11.32-13.82.9-.79,2.68-3.99,1.94-4.89-1.31.3-2.09-.7-2.93-1.02-6.13-2.35-15.02-4.92-20.7-7.89Z"/>
      <path class="cls-19" d="M515.96,377.99c-.81,3.76,5.51,1.18,4.96,4.46-.5,2.96-4.05,3.34-5.95,4.42s-2.79,1.11-4.93,2.96c-14.86,6.21-27.43-7.58-40.89,3.97-12,10.3-12.25,31.4-22.2,44.34-7.09,9.23-23.83,12.55-34.5,8.87-1.32-.46-8.56-6.06-9.92-7.35-1.49-1.42-1.5-3.01-1.9-3.49,5.95-1.1,8.59-2.75,12.81-6.9,6.08,4,18.68,3.1,23.67-2.45,2.36-2.63,5.15-9.97,3.93-13.32,2.66.27,1.79-.07,1.97-1.97.3-3.05.37-8.85,0-11.83,2-13.75,17.91-13.55,24.64-22.19,3.64-4.67,4.2-11.94,6.9-17.25,2.14-.25,6.28-.98,7.89-.99,11.82-.04,17.33,23.08,33.52,18.73ZM410.49,441.08c4.32,2.47,8.7-.09,12.36-.02,4.15.08,8.76,1.91,13.26,1.01l-8.87-3.45-1.99-3.43c-2.05-.46-2.28,1.18-3.21,2.65l-11.55,3.25Z"/>
      <path class="cls-4" d="M446.96,701.38c-2.99-.55-1.9,1.51-1.97,3.41-.74,18.74-.3,44.32-5.97,62.1-2.87,9.01-4.15,5.72-11.77,6.46-6.28.61-6.64,1.84-11.83,3.94-1.87,2.04-6.41,13.29-7.89,13.8.57,4.11,8.52,2.83,11.83,2.96-.57-8.42,6.18-18.62,14.78-18.24-5.2,5.14-11.37,10.32-11.82,18.24,4.26.05,8.56,0,12.81,0-.25-5.52,5.36-14.07,10.56-15.57,1.25-.36,3.73-1.06,3.24,1.26-4.8,2.99-8.45,7.75-9.85,13.32.17,0,1.54,1.07,3.33,1.06,2.93-.02,15.89.56,16.94-.99.54-.8,2.53-15.46,3.66-19.01,1.65-5.16,8.02-14.3,8.54-17.09,1.02-5.46-1.07-13.52-.98-19.72.04-2.84.82-5.51,1.03-8.33-13.49.06-22.09-16.18-24.64-27.61Z"/>
      <path class="cls-14" d="M371.06,558.42c6.68,20.77,18.76,41.42,24.36,61.9,5.39,19.69,6.71,41.14,9.15,61.34,2.26-.35,2.76.38.99,1.97.19,1.6-.18,3.32,0,4.93,2.25-.35,2.78.4.99,1.97.1.97-.1,1.99,0,2.96,3.12-.59,1.61,1.56,2.07,3.31,1.61,6.21,3.63,14.61,7.79,19.37,3.71-23.12,8.86-57,6.88-80.34-1.86-21.87-19.62-31.2-31.92-46.95-4.82-6.17-8.43-11.78-10.45-17.65-1.38-4-7.07-10.15-9.86-13.8.09.3-.1.69,0,.99Z"/>
      <path class="cls-4" d="M362.18,359.25c-7.15.77-10.72,9.4-16.29,13.78-3.38,2.66-7.34,3.79-10.33,5.94-.09.06.24,1.3-.69,2-1.59,1.2-7.91,4.52-8.18,4.92-1.45,2.12,2.6,2.64,2.95,2.94,2.44-2.13,5.41.98,8.36,1,7.1.04,13.42-1.83,21.21-1,27.59,2.95,26.81,23.03,37.09,42.27,1.88,3.52,3.13,3.66,4.31,5.06,5.95-1.1,8.59-2.75,12.81-6.9-3.56-2.35-8.58-12.9-5.91-16.76-4.5.95-2.75-2.27-2.96-5.92-.07-1.3.14-2.66,0-3.94-1.99-17.74-10.81-15.84-22.01-24.82-5.06-4.05-9.53-10-10.52-16.59-3.78-.97-4.62-2.54-9.86-1.97Z"/>
      <path class="cls-9" d="M408.51,288.27c1.65,1.67-.08,5.62,0,5.92.18.65,6.42,8.95,6.88,11.36,2.53,13.09-.64,29.94,3.18,43.16.48,1.65,2.95,2.78,3.54,5.34.9,3.92-.22,9.01.21,13.1l6.9-1.97c1.31-15.54,5.47-47.01,21.88-53.54,8.62-3.43,6.99.61,11.24,1.35,2.04.35,2.68-.9,3.36-1.04-1.11-.67-1.65-3.62-1.97-3.94-.21-.2-4.11-2.49-4.93-2.96-.07-.04-.63.84-1.6.27-3-1.77-19.35-11.84-18.94-14.37.14-.88,1.92-2.24,1.81-3.65-9.71-2.69-18.9-2.29-28.69-.55-1.32.23-2.45,1.46-2.85,1.54Z"/>
      <path class="cls-14" d="M416.4,720.11c-1.21,6.93-2.33,14.04-4.45,20.74-.51,1.61.15,3.49-2.45,2.92.03.65-.05,1.32,0,1.97.07.94,3.21,4.53-.99,3.94-.11.95.14,2.04,0,2.96,1.79,1.57,1.26,2.33-.99,1.97-.18.88.21,2.15,0,2.96,1.79,1.57,1.26,2.33-.99,1.97-4.59,13.1-9.85,8.62-19.43,13.6-2.09,1.08-2.27,2.39-3.24,3.16.02,5.38-5.09,9.01-3.94,14.79,3.11-.28,6.65.05,9.86,0-.92-7.88,6.61-16.8,14.29-17.77,4.35-.55-2.46,2.53-2.96,2.97-3.78,3.34-7.23,9.67-7.38,14.8,3.26-.08,6.61.21,9.86,0,.32-4.79,4.95-12.17,9.22-14.11,1.96-.89,2.49.35,2.61.3,5.19-2.11,5.55-3.33,11.83-3.94,1.62-4.57.58-9.12,1.43-13.85s6.23-11.66,6.42-14.29-1.74-5.9-1.93-8.84c-.23-3.41,0-6.93,0-10.35-7.83,1.46-10.91-2.35-16.76-5.92Z"/>
      <path class="cls-28" d="M373.03,316.86c-.13.11-.21,1.96-1.43,2.96-6.76,5.56-13.55,13.37-23.21,11.83-.88,2.83-5.7,11.78-7.47,14.71-2.22,3.69-5.27,7.37-8.29,10.44-1.18,2.77,5.25.88,5.9,1.47-1.98,8.28-9.91,13.21-16.73,17.25-.02,1.59,11.65,3.39,13.78,3.45,2.99-2.15,6.95-3.28,10.33-5.94,5.57-4.38,9.14-13.01,16.29-13.78-.76-3.71,4.93-5.78,7.89-6.9-1.36-7.91,11.33-14.24,17.74-14.79-.86-4.38-6.47-5.5-9.85-3.95.39-7.27-2.04-12.78.98-19.72-.88.72-5.04,2.24-5.91,2.96Z"/>
      <path class="cls-22" d="M348.38,331.65c9.67,1.55,16.46-6.27,23.21-11.83,1.22-1,1.3-2.86,1.43-2.96v-.99c-.12.11-1.07-.16-1.65.29-1.03.79-1.2,3.13-3.28,3.66-10.34,2.59-13.79-12.37-13.88-20.22-.07-5.73,6.74-35.86,10.91-38.48,3.39-2.13,9.15,4.87,11.37,7.42,8.13,9.36,20.31,24.74,10.34,36.49v.99c4.86-3.31,12.21-6.41,17.74-9.86,1.27-.79,2.32-1.89,3.94-1.97-.08-.29,1.65-4.25,0-5.92-1.23.24-2.53-.08-3.48-.93-11.97-12.35-24.63-24.14-37.37-35.63-.88-.77-1.41-1.2-2.54-.47-3.95,2.53-12.23,24.55-13.49,29.93-4.11,17.52,1.41,35.44-3.25,50.48Z"/>
      <path class="cls-13" d="M440.06,287.28c.11,1.4-1.67,2.77-1.81,3.65-.41,2.53,15.94,12.59,18.94,14.37.97.57,1.53-.31,1.6-.27-9.68-16.21,11.47-39.9,24.64-48.31-.31-1.43-.4-5.14.99-5.92-.43-.46-.63-1.74-1.56-1.93l-1.41.4-41.39,38.01Z"/>
      <path class="cls-19" d="M650.02,773.35c3.26,1.46,3.7,3.76,3.94,3.94.32.24,4.16-.73,2.95,1.46-.9,1.63-6.61,2.48-8.89,4.92-1.73,1.85-3.2,5.89-3.92,8.4.2,0,1.43,1.42,2.4,1.01l23.27-.47c4.02-8.48,6.74-17.64,8.73-26.79.38-1.74-.19-3.8.1-5.29-9.03,8.94-14.44,15.2-28.59,12.82Z"/>
      <path class="cls-29" d="M329.65,388.83c5.12,4.39,11.92,9.78,17.74,12.82s14.57,5.54,20.7,7.89c-1.04-3.19-.47-7.75-1.63-10.62-.87-2.14-8.56-5.02-7.24-10.09-7.79-.83-14.11,1.03-21.21,1-2.96-.01-5.93-3.13-8.36-1Z"/>
      <path class="cls-15" d="M639.18,773.35c-4.22,6.03-9.35,11.27-10.84,18.73,6.28,1.33,7.5-.07,11.83,0,.27-7.18,5.98-15.22,13.8-14.79-.24-.19-.68-2.48-3.94-3.94-.26-.11-.57-.89-.99-.99-3.35-.76-6.81.31-9.86.99Z"/>
      <path class="cls-11" d="M491.32,295.17c.14,1.6-.04,3.31,0,4.93.02.65.15.27,0,1.97-.21,2.36-.6,7.28-1,9.18-.16.77-1.53.76-1.92,1.41-3.7,6.07-6.12,8.36-13.83,6.18,2.3,2.12,13.34,13.6,15.76,11.83-.33-1.85,1.75-3.9,1.98-4.93,1.87-7.99,2.92-22.25,2.96-30.56h-3.94Z"/>
      <path class="cls-8" d="M406.54,693.49c1.75,17.24,2.17,33.12,2.96,50.28,2.6.57,1.94-1.3,2.45-2.92,2.12-6.71,3.24-13.81,4.45-20.74.21-1.2-.19-2.73,0-3.94-4.16-4.76-6.18-13.17-7.79-19.37-.45-1.74,1.05-3.9-2.07-3.31Z"/>
      <path class="cls-2" d="M483.43,256.72c.3,1.37,2.78,5.26,3.52,7.85,2.29,8.05,3.54,21.25,4.37,30.6h3.94c.04-9.65-4.46-37.55-10.84-44.37-1.39.78-1.3,4.49-.99,5.92Z"/>
      <path class="cls-8" d="M639.18,773.35c-1.64.36-2.24-.19-4.44.96-5.34,2.79-10.76,11.67-10.35,17.78,1.24.19,2.82-.24,3.95,0,1.49-7.46,6.62-12.71,10.84-18.73Z"/>
      <path class="cls-8" d="M653.96,777.29c-7.82-.43-13.53,7.61-13.8,14.79,1.31.02,2.63-.02,3.94,0,.72-2.51,2.19-6.55,3.92-8.4,2.28-2.44,7.98-3.29,8.89-4.92,1.21-2.19-2.63-1.22-2.95-1.46Z"/>
      <path class="cls-8" d="M419.36,794.06c.98.04,1.97-.01,2.96,0,.45-7.93,6.62-13.1,11.82-18.24-8.61-.38-15.35,9.83-14.78,18.24Z"/>
      <path class="cls-13" d="M389.78,791.1c1.31-.02,2.63.03,3.94,0,.15-5.13,3.6-11.46,7.38-14.8.5-.44,7.32-3.52,2.96-2.97-7.68.97-15.21,9.89-14.29,17.77Z"/>
      <path class="cls-8" d="M435.13,794.06c1.11,0,2.7-.98,3.94-.99,1.4-5.57,5.05-10.33,9.85-13.32.5-2.33-1.99-1.62-3.24-1.26-5.2,1.5-10.8,10.05-10.56,15.57Z"/>
      <path class="cls-13" d="M403.58,791.1c1.14-.07,3.18.27,3.94,0,1.47-.51,6.02-11.77,7.89-13.8-.12.05-.65-1.19-2.61-.3-4.27,1.93-8.9,9.31-9.22,14.11Z"/>
      <path class="cls-11" d="M383.87,776.31c-.74.58-1.86.46-2.97,1.72-3.09,3.5-6.37,9.31-5.89,14.05,1.87.93,4.14-.91,4.92-.98-1.14-5.78,3.96-9.41,3.94-14.79Z"/>
      <path class="cls-6" d="M353.31,511.09c.15.23.61,3.77.99,4.93l4.92,1.97c-.06-2.92.21-6.07.99-8.87-2.67-.36-4.92.14-6.9,1.97Z"/>
      <path class="cls-33" d="M703.25,526.86l1-1.96h.96c.89,2.02-1.79,6.84,1.98,5.91-.29-4.52-1.29-10.55-2.96-14.79-.18,3.63-.92,6.61-.99,10.85Z"/>
      <path class="cls-16" d="M366.13,548.56c1.08,2.58,1.47,10.16,4.93,9.86-.1-.3.09-.68,0-.99-.98-3.33-1.13-7.06-4.93-8.87Z"/>
      <path class="cls-8" d="M408.51,749.69c4.2.59,1.06-3,.99-3.94-1.34,1.17-.83,2.56-.99,3.94Z"/>
      <path class="cls-25" d="M526.8,434.19c-.19-.07-.17-1.53-1.97-.98-.47,4.14.35,2.38,1.97,2.95v-1.97Z"/>
      <path class="cls-25" d="M545.53,433.2v1.97c1.82-.11,3.49.73,2.96-1.47-.28-1.15-2.22-.16-2.96-.5Z"/>
      <path class="cls-8" d="M404.57,681.66c.21,1.72.97,1.86.99,1.97,1.77-1.59,1.28-2.32-.99-1.97Z"/>
      <path class="cls-8" d="M405.56,688.56c.19,1.73.97,1.86.99,1.97,1.79-1.57,1.26-2.33-.99-1.97Z"/>
      <path class="cls-8" d="M407.53,754.62c2.25.35,2.78-.4.99-1.97-.02.11-.66.41-.99,1.97Z"/>
      <path class="cls-8" d="M406.54,759.55c2.25.35,2.77-.4.99-1.97-.03.11-.64,1-.99,1.97Z"/>
      <path class="cls-10" d="M463.72,552.5c-3.3,1.98-6.79,8.93-11.83,7.89-3.11,4.89-6.18,7.43-8.87,13.8-2.3,5.43-5.5,14.94-5.91,20.7l10.84-17.25c10.07-11.83,20.21-20.85,37.01-19.27,3.61.34,5.39.67,7.34,3.99,4.86,2.52,7.91,8.17,12.35,11.8,35.83,29.29,91.62-7.89,111.85-40.39,4.69-7.54,10.36-16.59,10.35-25.63-18.89,34.15-53.29,60.88-94.39,53.97-23.37-3.93-42.46-25.4-68.76-9.61Z"/>
      <path class="cls-10" d="M627.36,507.14c.34.67,1.67-.58.97-1.96-.34-.67-1.67.58-.97,1.96Z"/>
      <path class="cls-13" d="M577.16,781.33c-.5.74-.55,3.65,1.38,2.85l6.42-4.91c-1.25-.18-7.57,1.72-7.79,2.06Z"/>
      <path class="cls-11" d="M416.4,716.17c-.19,1.21.21,2.75,0,3.94,5.84,3.56,8.92,7.38,16.76,5.92-.05-30.81,5.71-62.92,7.89-93.66.35-4.94.98-10.66,0-15.78-24.36-8.28-42.83-27.22-60.13-45.35,2.02,5.86,5.63,11.47,10.45,17.65,12.3,15.75,30.06,25.08,31.92,46.95,1.98,23.33-3.17,57.22-6.88,80.34Z"/>
      <path class="cls-19" d="M448.93,439.12c-7.02,13.26-12.36,38.82-13.68,53.88-.17,1.9-1.12,3.82,1.85,3.3,4.09-6.93,7.01-13.29,10.36-20.7,1.01,4.43-.95,9.04-1.44,13.37-.3,2.69,1.91,1.17,2.91.43.02-2.34,8.23-9.9,10.28-12.88,4.47-6.49,7.32-14.06,9.44-21.62,2.52.3,1.32,15.06,4.8,9.24,4.1-6.83,4.31-17.3,4.06-25.02l7.88,3.93c2.1-12.26-.29-23.12-10.84-30.56-9.95,6.9-19.79,15.59-25.63,26.62Z"/>
      <path class="cls-33" d="M502.16,491.37c-.31-.72-2.02-2.7-2.95-2.96.6,7.8-1.57,16.77-7.89,21.69l-1-10.85-2.99.46-21.67,27.14c-1.49.15-2.32.39-1.98-1.48.71-3.91,6.86-10.58,4.95-16.25-7.41,1.27-12.91,7.09-17.69,12.41-.97,1.08-2.85,1.21-3.01,1.39-.47.51-1.36,4.93-1.97,5.92,1.57,4.46,1.03,9.19,2.26,14.01.81,3.17,5.84,11.88,5.63,13.6,6.65-4.06,13.91-9.98,19.73-15.27,10.9-9.9,35.49-33.66,28.57-49.8Z"/>
      <path class="cls-3" d="M437.1,496.3c-2.08,3.52-4.83,6.92-5.91,10.85.26.4.11,6.17-.2,7.2-.54,1.82-3.03,2.52-3.55,4.33-.56,1.97.21,4.12-.7,6.2-.67,1.54-3.66,2.68-4.23,4.64-.68,2.37.29,5.14-.39,7.5-.33,1.15-3.4,4.29-4.73,7.59,2.91-1.12,4.68,9.49,6.89,6.9-.9-5.03,8.72-21.2,12.53-22.48,5.69-1.91,2.05,4.06,3.74,7.68,1.38-2.69,3.98-5.56,5.43-7.88.61-.98,1.5-5.41,1.97-5.92-1.53-.98-1.16-3.87-1.04-5.45.69-9.42,1.95-19.12,2.03-28.07-1,.74-3.22,2.26-2.91-.43.49-4.33,2.45-8.94,1.44-13.37-3.35,7.41-6.26,13.77-10.36,20.7Z"/>
      <path class="cls-33" d="M446.96,438.13l1.97.99c5.84-11.03,15.68-19.72,25.63-26.62,8.87-6.15,16.58-7.09,24.79-12.18,4.6-2.85,7.07-7.35,10.7-10.49-14.86,6.21-27.43-7.58-40.89,3.97-12,10.3-12.25,31.4-22.2,44.34Z"/>
      <path class="cls-18" d="M752.05,666.87c-.64.33-.64.66,0,.99v-.99Z"/>
      <path class="cls-5" d="M393.73,496.3c-1.16-1.22-3.36-2.3-4.45-3.92l-.96,4.9c-1.21-1.23-2.46-2.55-3.46-3.94-5.83,10.32-8.44,19.32-8.87,31.11-.07,1.9,1,3.95-1.98,3.4,4.01,7.72,8.92,15.7,14.76,22.21.93,1.04,6.91,7.48,7.91,6.38.26-2.38-.9-4.57-.98-6.9-3.22.98-2.91-6.19,0-4.93.04-1.19.75-5.16.99-6.9.28-2.02.02-7.2,1.93-8.42,2.21-1.41,7.43,1.12,8.71-3.11s-.56-5.1-1.5-7.99c-.42-1.28.01-3.64-.39-4.07-.46-.49-5.51,1.13-1.85-5-3.18-3.72-6.46-9.24-9.86-12.82Z"/>
      <path class="cls-28" d="M428.23,497.29c-1.54,3.84-9.54,17.01-9.84,18.43-.64,2.98.9,6.72-2.49,9.17-2.48-5.23-5.53-9.98-9.31-14.39-.93-1.08-2.87-1.22-3.01-1.39-3.66,6.14,1.39,4.51,1.85,5,.4.44-.03,2.79.39,4.07.94,2.89,2.74,3.9,1.5,7.99s-6.5,1.7-8.71,3.11c-1.91,1.22-1.65,6.41-1.93,8.42,3.17-.55,1.7,1.6,1.93,3.45.8,6.6,3.52,21.28,10.41,24.15,1.75.73,1.55-1.11,1.92-1.96,1.59-3.65,3.03-8.03,4.48-11.83.69-1.82,1.26-5.14,1.97-6.9,1.33-3.3,4.4-6.44,4.73-7.59.68-2.35-.29-5.13.39-7.5.56-1.97,3.55-3.1,4.23-4.64.91-2.09.14-4.24.7-6.2.52-1.81,3.01-2.52,3.55-4.33.31-1.03.46-6.8.2-7.2-.06-.09-1.71.39-1.99-.64-.53-1.99.09-6.63.02-9.21h-.99Z"/>
      <path class="cls-15" d="M445.97,528.84c-1.44,2.32-4.04,5.19-5.43,7.88-1.69-3.62,1.95-9.59-3.74-7.68-3.8,1.28-13.43,17.46-12.53,22.48-2.22,2.58-3.98-8.03-6.89-6.9-.71,1.76-1.28,5.08-1.97,6.9,9.93,5.95,16.28,18.48,27.6,22.68,2.7-6.37,5.77-8.91,8.87-13.8.25-.4,1.94-3.73,1.97-3.94.22-1.72-4.81-10.43-5.63-13.6-1.23-4.82-.69-9.55-2.26-14.01Z"/>
      <path class="cls-6" d="M384.86,493.34c-3.02-4.15-4.93-9.1-7.88-13.32l-1.49,5.43c-.42-1.44-1.92-2.79-2.46-3.94-4.37.73-2.36,3.98-4.06,7.28-1.07,2.08-4.53,3.89-5.28,5.55-1.12,2.48-.06,4.86-.51,6.89,2.79-.58,1.86,1.37,2.26,3.11,2.28,9.82,3.97,14.63,8.58,23.51,2.98.55,1.91-1.51,1.98-3.4.43-11.78,3.04-20.79,8.87-31.11Z"/>
      <path class="cls-28" d="M395.7,544.61c-2.91-1.26-3.22,5.91,0,4.93-.05-1.63-.06-3.3,0-4.93Z"/>
      <path class="cls-3" d="M404.57,296.15c1.01,4.35-5.34,5.93-6.25,8.12-3.61,8.67,2.39,11.76,3.24,17.07.72,4.48-.74,10.12.26,14.53.69,3.05,3.47,3.99,4.21,5.64,1.05,2.35.05,4.85.71,7.18.58,2.06,7.83,7.16.78,8.58,1.9,5.54,3.1,14.76,2.96,20.7s-2.64,15.38-3.8,21.39c-.35,1.83.84,3.84-2.11,3.26.14,1.28-.07,2.65,0,3.94,2.47-.53,2.09.85,1.98,2.96,1.72-.83,4.4-1.36,5.91-1.97,4.85-1.98,10.12-4.65,15.77-3.94-.14-12.85-.09-25.66.99-38.45l-6.9,1.97c-.43-4.09.69-9.18-.21-13.1-.59-2.55-3.06-3.69-3.54-5.34-3.82-13.22-.65-30.07-3.18-43.16-.46-2.41-6.7-10.7-6.88-11.36-1.63.08-2.68,1.18-3.94,1.97Z"/>
      <path class="cls-31" d="M458.79,305.03c.82.47,4.72,2.76,4.93,2.96,5.92-5.49,6.97-9.52,8.87-16.76,2.06-7.84,3.57-15.89,5.92-23.66,1.48-1.61,1.74.16,1.94,1.49,2.38,16.2,2.21,33.15-7.86,46.82.72.66,1.23,2.28,1.97,2.96,7.71,2.18,10.14-.11,13.83-6.18.4-.65,1.76-.64,1.92-1.41.4-1.9.79-6.82,1-9.18l-.84-.61.84-1.36c-.04-1.62.14-3.33,0-4.93-.83-9.35-2.07-22.55-4.37-30.6-.74-2.59-3.22-6.49-3.52-7.85-13.17,8.41-34.32,32.1-24.64,48.31Z"/>
      <path class="cls-12" d="M467.66,361.23c-.46,4.42-1.39,2.94-2.96,4.93-.63.8-.89,2.86-1,2.96-.3.25-1.67-1.02-1.95-.99-.12,5.14-7.43,2.11-9.86,1.97-4.6-.27-7.28,1.32-10.84,3.94-.32,1.5-.98,3.74-1.97,4.93.45,7.77,3.13,14.15,3.94,20.7,2-13.75,17.91-13.55,24.64-22.19,3.64-4.67,4.2-11.94,6.9-17.25-2.32.27-4.53,1.07-6.9.99Z"/>
      <path class="cls-19" d="M439.07,378.97c.99-1.19,1.65-3.43,1.97-4.93,1.8-8.38,1.89-11.93,7.89-18.73,3.21-3.64,2.07-3.4,6.9-4.93,1.63-.52,1.6-.9,3.94-.99.64-.02,1.34-.06,1.97,0,4.62.42,11.32,3.99,15.77,5.92-1.93-10.33-14.58-21.28-25.16-15.8-12.73,6.59-14,27.01-13.28,39.46Z"/>
      <path class="cls-12" d="M472.59,315.87c10.07-13.68,10.24-30.62,7.86-46.82-.2-1.33-.46-3.1-1.94-1.49-2.35,7.78-3.86,15.82-5.92,23.66,2.95-.55,1.94,1.51,1.97,3.41.12,8.15-1.1,11.59-6.9,17.3.07.05-.18,1.31.32,1.61,1.46.88,3.23,1.07,4.61,2.33Z"/>
      <path class="cls-22" d="M461.74,349.39c.83,7.04,6.94,2.04,5.91,11.83,2.37.08,4.58-.72,6.9-.99,2.14-.25,6.28-.98,7.89-.99.48-2.62-2.97-3.1-4.93-3.94-4.46-1.92-11.15-5.49-15.77-5.92Z"/>
      <path class="cls-5" d="M472.59,291.22c-1.91,7.24-2.95,11.27-8.87,16.76.33.32.86,3.27,1.97,3.94.38-.08,1.87-.07,1.97,0,5.8-5.71,7.02-9.15,6.9-17.3-.03-1.89.97-3.96-1.97-3.41Z"/>
      <path class="cls-33" d="M412.46,407.57v.99c5.97-3.94,15.52-3.07,22.06.12,1.14.56,6.33,4.27,6.53,4.81,2.66.27,1.79-.07,1.97-1.97-2.62-.07-2.64-2.56-5.21-4.16-1.33-.82-8.32-3.57-9.57-3.73-5.65-.71-10.92,1.96-15.77,3.94Z"/>
      <path class="cls-7" d="M359.23,388.83c-1.32,5.06,6.37,7.94,7.24,10.09,1.16,2.87.6,7.43,1.63,10.62.84.32,1.62,1.33,2.93,1.02.74.9-1.04,4.1-1.94,4.89,2.43,2.23-1.18,4.51-.85,6.27.27,1.4,3.09,2.48,3.61,4.28,1.12,3.9,1.44,6.46,2.9,10.91,2.77,8.48,3.83,15.37,8.37,23.18.77,1.33.45,3.56,1.25,4.66.87,1.19,4.11,1.13,4.43,2.51.22.95-1.71,3.21-1.92,4.94-.27,2.18-.42,6.76-.03,8.8.75,3.93,9.78,8.29,6.88,15.3,3.4,3.58,6.68,9.1,9.86,12.82.14.17,2.08.31,3.01,1.39,3.78,4.4,6.83,9.16,9.31,14.39,3.39-2.45,1.85-6.19,2.49-9.17.3-1.42,8.3-14.59,9.84-18.43.27-.68.7-1.3.99-1.97-1.88-2.14-4.5-1.7-4.83-2.07-.46-.53.16-5.12-.34-7.06-.6-2.35-3.95-4.52-4.48-6.36-1.05-3.65.66-8.86-.41-12.41-.51-1.71-2.68-2.41-3.24-3.66-.84-1.87-.17-4.02-1.01-5.9-1.55-3.46-5.54-3.7-2.45-10.86-1.32-.46-8.56-6.06-9.92-7.35-1.49-1.42-1.5-3.01-1.9-3.49-1.18-1.4-2.43-1.54-4.31-5.06-10.28-19.23-9.5-39.32-37.09-42.27Z"/>
      <path class="cls-29" d="M369.08,415.45c-4.76,4.16-8.77,7.06-11.32,13.82-.59,1.57-3.49,8.64-.03,8.85,1.77-1.96,2.05-4.64,5.43-3.93-3.32,7.63-4.95,15.41-2.95,23.66l4.92-1.97-.97-.49c1.95-1.28,1.22-4.21,3.92-3.45.78,1.82-1.79,3.2-1.97,3.94-.53,2.22,5.37,22.35,6.9,25.63.54,1.15,2.04,2.5,2.46,3.94l1.49-5.43c2.95,4.22,4.86,9.17,7.88,13.32,1.01,1.38,2.26,2.71,3.46,3.94l.96-4.9c1.08,1.62,3.29,2.71,4.45,3.92,2.9-7.02-6.13-11.37-6.88-15.3-.39-2.04-.24-6.62.03-8.8.21-1.73,2.14-3.99,1.92-4.94-.32-1.38-3.56-1.31-4.43-2.51-.8-1.1-.48-3.34-1.25-4.66-4.54-7.81-5.6-14.7-8.37-23.18-1.46-4.45-1.77-7.01-2.9-10.91-.52-1.8-3.34-2.88-3.61-4.28-.33-1.76,3.28-4.04.85-6.27Z"/>
      <path class="cls-6" d="M366.13,455.88c.18-.74,2.74-2.12,1.97-3.94-2.7-.75-1.97,2.18-3.92,3.45l.97.49h.99Z"/>
      <path class="cls-15" d="M446.96,438.13c-7.09,9.23-23.83,12.55-34.5,8.87-3.09,7.15.91,7.39,2.45,10.86.84,1.87.17,4.03,1.01,5.9.56,1.25,2.73,1.95,3.24,3.66,1.07,3.54-.64,8.76.41,12.41.53,1.84,3.88,4.01,4.48,6.36.5,1.94-.12,6.54.34,7.06.33.37,2.95-.07,4.83,2.07,1.27,1.44-.02,1.3,0,1.97.07,2.58-.54,7.22-.02,9.21.27,1.04,1.93.56,1.99.64,1.08-3.92,3.84-7.33,5.91-10.85-2.97.52-2.02-1.4-1.85-3.3,1.32-15.07,6.66-40.62,13.68-53.88l-1.97-.99Z"/>
      <path class="cls-18" d="M441.04,413.48c-.2-.54-5.39-4.25-6.53-4.81-6.54-3.19-16.08-4.07-22.06-.12-.55.36-4.75,3.68-4.93,3.94-2.66,3.86,2.35,14.41,5.91,16.76,6.08,4,18.68,3.1,23.67-2.45,2.36-2.63,5.15-9.97,3.93-13.32Z"/>
      <path class="cls-27" d="M422.04,437.83l-11.55,3.25c4.32,2.47,8.7-.09,12.36-.02,4.15.08,8.76,1.91,13.26,1.01l-8.87-3.45-1.99-3.43c-2.05-.46-2.28,1.18-3.21,2.65Z"/>
      <path class="cls-25" d="M372.04,361.23c.99,6.59,5.46,12.54,10.52,16.59,11.2,8.97,20.02,7.08,22.01,24.82,2.96.58,1.76-1.43,2.11-3.26,1.16-6.01,3.66-15.73,3.8-21.39-2.06.77-2.3-1.85-2.96-3.94-3-2.62-5.7-4.13-9.86-3.94-.21,0-1.58,1.06-3.36,1.09-4.06.05-9.39-.32-10.44-5.03-.28-.16-.54-.74-.99-.99-.46-.1-.94-.54-.99-.99-3.8-2.06-6.2-2.02-9.86-2.96Z"/>
      <path class="cls-22" d="M370.07,352.35c-2.96,1.12-8.65,3.19-7.89,6.9,5.23-.56,6.08,1.01,9.86,1.97s6.06.9,9.86,2.96c-.16-1.67-.36-5.93-.02-7.25.28-1.1,1.91-.53,2-.64.25-.3.11-1.66.99-2.42,3.04-2.59,10.17-1.06,11.82,2.42l.58-.89,2.37.89c-8.1-9.6-18.52-8.13-29.57-3.94Z"/>
      <path class="cls-16" d="M404.57,406.58c.21,3.64-1.54,6.87,2.96,5.92.18-.26,4.38-3.58,4.93-3.94v-.99c-1.51.62-4.19,1.15-5.91,1.97.11-2.12.49-3.49-1.98-2.96Z"/>
      <path class="cls-2" d="M386.83,306.01c-1.31.89-6.03,6.38-7.89,7.89-3.02,6.94-.58,12.45-.98,19.72,3.38-1.55,8.99-.43,9.85,3.95,8.47-.73,17.27,12.6,19.71,19.72,7.04-1.42-.21-6.52-.78-8.58-.65-2.33.34-4.83-.71-7.18-.74-1.66-3.52-2.59-4.21-5.64-1-4.41.46-10.05-.26-14.53-.85-5.31-6.85-8.4-3.24-17.07.91-2.19,7.26-3.77,6.25-8.12-5.54,3.45-12.88,6.55-17.74,9.86Z"/>
      <path class="cls-7" d="M387.81,337.56c-6.41.55-19.11,6.88-17.74,14.79,11.06-4.18,21.47-5.66,29.57,3.94,1.12,1.32,2.08,2.41,2.96,3.94,2.71,4.71,3.44,9.07,4.93,13.8.66,2.09.89,4.72,2.96,3.94.14-5.95-1.05-15.17-2.96-20.7-2.45-7.12-11.24-20.45-19.71-19.72Z"/>
      <path class="cls-10" d="M375.98,300.1c-.09-.13-1.38.32-1.8-.14-1.78-1.95.5-6.01-4.11-4.8-.77,6.8,1.65,12.07,6.88,16.3v1.44c-2.4-.14-2.87,2-3.93,2.98v.99c.88-.72,5.03-2.24,5.91-2.96,1.85-1.51,6.58-7,7.89-7.89v-.99c-2.28,3.34-8.66.31-10.34-2.02-.79-1.09-.34-2.69-.5-2.91Z"/>
      <path class="cls-16" d="M368.1,319.82c-3.15-9.45-5.47-16.95-4.98-27.16.14-2.97,4.04-24.07,4.98-25.1,1.57-1.7,1.68.38,1.99,1.44,2.84,9.47,3.04,21.39,5.88,31.1.16.22-.29,1.82.5,2.91,1.68,2.33,8.06,5.36,10.34,2.02,9.97-11.75-2.21-27.13-10.34-36.49-2.21-2.55-7.98-9.55-11.37-7.42-4.16,2.62-10.97,32.75-10.91,38.48.09,7.85,3.54,22.81,13.88,20.22Z"/>
      <path class="cls-25" d="M375.98,300.1c-2.85-9.71-3.05-21.63-5.88-31.1-.32-1.05-.42-3.14-1.99-1.44-.95,1.02-4.84,22.13-4.98,25.1-.5,10.21,1.82,17.71,4.98,27.16,2.08-.52,2.24-2.87,3.28-3.66.59-.45,1.53-.17,1.65-.29,1.06-.97,1.53-3.12,3.94-2.98v-1.44c-5.24-4.23-7.66-9.5-6.89-16.3,4.61-1.22,2.34,2.84,4.11,4.8.42.46,1.7.01,1.8.14Z"/>
      <path class="cls-2" d="M491.32,302.07c.15-1.7.02-1.32,0-1.97l-.84,1.36.84.61Z"/>
      <path class="cls-3" d="M428.23,497.29h.99c-.02-.67,1.27-.53,0-1.97-.29.67-.71,1.3-.99,1.97Z"/>
      <path class="cls-13" d="M459.77,349.39c.83,2.64-2.25,2.87-3.94.99-4.83,1.53-3.69,1.29-6.9,4.93,2.93-.47,1.75.76,1.97,2.96.45,4.47,0,7.99,6.36,6.91,4.68-.8,3.68-4.61,4.71-7.17,2.48-6.15,5.52,5.16,2.73,8.16,1.56-1.99,2.49-.51,2.96-4.93,1.03-9.79-5.08-4.8-5.91-11.83-.63-.06-1.33-.02-1.97,0Z"/>
      <path class="cls-17" d="M450.9,358.27c-1.9-.99-1.97-2.43-2.98.45-1.52,4.3-.41,8.44,3.97,10.4s6.08-.55,9.86-.99c.28-.03,1.66,1.25,1.95.99.12-.1.37-2.16,1-2.96,2.79-3-.25-14.31-2.73-8.16-1.03,2.57-.03,6.37-4.71,7.17-6.35,1.09-5.91-2.44-6.36-6.91Z"/>
      <path class="cls-11" d="M448.93,355.31c-6,6.8-6.08,10.35-7.89,18.73,3.56-2.63,6.24-4.21,10.84-3.94v-.99c-4.37-1.96-5.48-6.09-3.97-10.4,1.01-2.87,1.08-1.44,2.98-.45-.22-2.2.95-3.42-1.97-2.96Z"/>
      <path class="cls-26" d="M451.89,369.11v.99c2.43.14,9.74,3.17,9.86-1.97-3.78.43-5.45,2.96-9.86.99Z"/>
      <path class="cls-22" d="M455.83,350.38c1.7,1.88,4.77,1.65,3.94-.99-2.34.09-2.32.47-3.94.99Z"/>
      <path class="cls-17" d="M396.68,356.3c5.46,11.47-14.07,14.68-9.86,1.97l-.99-1.97c-.48.17-1.36-.11-1.97,0-.09.11-1.72-.46-2,.64-.33,1.31-.13,5.58.02,7.25.43.23.71.83.99.99.45.25.71.83.99.99,4.77,2.76,7.72,5.72,13.8,2.96,4.2-1.91,3.05-5.59,4.93-8.87-.88-1.53-1.84-2.62-2.96-3.94l-2.37-.89-.58.89Z"/>
      <path class="cls-13" d="M397.67,369.11v.99c4.16-.19,6.85,1.32,9.86,3.94-1.49-4.74-2.22-9.1-4.93-13.8-1.88,3.29-.72,6.96-4.93,8.87Z"/>
      <path class="cls-28" d="M383.87,366.16c1.05,4.71,6.38,5.08,10.44,5.03,1.78-.02,3.15-1.08,3.36-1.09v-.99c-6.08,2.77-9.03-.2-13.8-2.96Z"/>
      <path class="cls-28" d="M382.88,365.17c-.28-.15-.55-.75-.99-.99.04.45.52.88.99.99Z"/>
      <path class="cls-18" d="M383.87,356.3c.61-.11,1.49.17,1.97,0,5.76-2.01,1.09,1.67.99,1.97-4.22,12.7,15.31,9.5,9.86-1.97-1.65-3.47-8.78-5.01-11.82-2.42-.88.75-.74,2.11-.99,2.42Z"/>
      <path class="cls-22" d="M385.84,356.3l.99,1.97c.1-.3,4.77-3.99-.99-1.97Z"/>
    </g>
  </g>
</svg>