<?xml version="1.0" encoding="UTF-8"?>
<svg id="Layer_1" data-name="Layer 1" xmlns="http://www.w3.org/2000/svg" viewBox="0 0 628.35 1027.46">
  <defs>
    <style>
      .cls-1 {
        fill: none;
        stroke: #231f20;
        stroke-miterlimit: 10;
        stroke-width: 2px;
      }

      .cls-2 {
        fill: #231f20;
      }
    </style>
  </defs>
  <path class="cls-1" d="M179.41,11.35c24.01,19.52,37.35,46.35,42.67,78.67,113.95,41.3,212.58,99.84,302.67,168,0,0,65.44,54.15,82.67,70.67,48.67,46.67-3.89,158.33-29.33,204l-73.33,192s-52.03,174-53.33,208c-1.27,33.08-3.95,93.69-4,94.33"/>
  <path class="cls-1" d="M46.08.35c-35.23,95.74-84.05,217.4,7.01,299.1,35.27,31.65,78.9,52.69,122.39,70.54,43.42,17.82,88.28,32.28,134.61,40.24,49.07,8.43,110.55-1.56,151.52,33.03,2.42,2.05,4.79,4.35,5.95,7.3,2.44,6.19-1.16,13.19-5.82,17.95-28.95,29.6-44.89,64.23-57.77,103.57-6.49,19.82-15.3,40.14-17.85,60.99-7.5,61.3,12.31,126.96-6.72,187.61-10.67,34-14,44.67-42.67,62.67s-55.33,41.33-36,74.67,37.33,69,37.33,69"/>
  <path class="cls-2" d="M356.5,904.37c4.01,15.71,16.21,30.15,32.01,34.7,6.66,1.4,12.71-2.95,16.78-7.86,2.15-2.49,3.99-5.25,5.75-8.04l.67.42c-1.77,2.81-3.64,5.59-5.82,8.13-8.09,9.54-16.19,10.83-26.75,4.17-11.54-6.79-20.13-18.34-23.39-31.33,0,0,.75-.18.75-.18h0Z"/>
  <path class="cls-2" d="M588.7,345.28c-17.1,13.98-31.86,32.63-24.94,55.89,2.82,11.42,10.66,21.03,20.56,27.18,4.19,2.58,8.84,4.66,13.76,5.11,8.58.81,14.97-6.3,18.86-13.19,3.36-5.76,5.78-12.04,8.53-18.25,0,0,1.82.83,1.82.83-2.77,6.1-5.27,12.46-8.77,18.35-4.18,7.35-11.33,14.84-20.56,13.87-5.2-.52-10.07-2.73-14.43-5.46-10.14-6.42-18.11-16.37-20.92-28.13-4.55-15.88.57-30.46,11.04-42.66,4.39-5.18,9.4-9.78,14.64-14.05,0,0,.41.5.41.5h0Z"/>
</svg>