<?xml version="1.0" encoding="UTF-8"?>
<svg id="Layer_1" data-name="Layer 1" xmlns="http://www.w3.org/2000/svg" viewBox="0 0 620.05 555">
  <defs>
    <style>
      .cls-1 {
        fill: #d9ab91;
      }

      .cls-2 {
        fill: #ad6f68;
      }

      .cls-3 {
        fill: #703a34;
      }

      .cls-4 {
        fill: #ff6f05;
      }

      .cls-5 {
        fill: #c7a099;
      }

      .cls-6 {
        fill: #ffd007;
      }

      .cls-7 {
        fill: #fff;
      }

      .cls-8 {
        fill: #8a4133;
      }

      .cls-9 {
        fill: #e3c9ba;
      }

      .cls-10 {
        fill: #231f20;
      }

      .cls-11 {
        fill: #fae4c6;
      }

      .cls-12 {
        fill: #dbb40b;
      }

      .cls-13 {
        fill: #010000;
      }

      .cls-14 {
        fill: #9daae0;
      }

      .cls-15 {
        fill: #5e6eab;
      }

      .cls-16 {
        fill: #401010;
      }

      .cls-17 {
        fill: #39446e;
      }
    </style>
  </defs>
  <path class="cls-13" d="M139.48,57.75l-18.54-5.4S135.51,3.96,213.08,3.33c-.12,35.91-73.61,54.41-73.61,54.41Z"/>
  <g>
    <path class="cls-8" d="M241.67,555c-1.68,0-3.35-.73-4.5-2.13-2.03-2.48-1.68-6.13.8-8.17.53-.43,13.05-10.61,27.15-9.59,11.58.83,111.15-.06,112.16-.07.02,0,.04,0,.05,0,3.19,0,5.79,2.57,5.82,5.76.03,3.21-2.55,5.84-5.76,5.87-4.12.04-101.05.9-113.09.04-9.44-.67-18.84,6.9-18.94,6.98-1.08.88-2.38,1.31-3.68,1.31Z"/>
    <path class="cls-8" d="M136.96,550.48c-1.68,0-3.34-.72-4.49-2.12-2.04-2.48-1.69-6.15.79-8.19.53-.43,13.05-10.61,27.15-9.59,11.58.83,111.15-.06,112.16-.07.02,0,.04,0,.05,0,3.19,0,5.79,2.57,5.82,5.76.03,3.21-2.55,5.84-5.76,5.87-4.12.04-101.05.9-113.09.04-9.38-.68-18.83,6.89-18.93,6.97-1.08.89-2.39,1.33-3.69,1.33Z"/>
    <path class="cls-8" d="M224.76,542.2c-1.22,0-2.44-.38-3.49-1.17-2.57-1.93-3.09-5.58-1.16-8.14l80.93-107.7c1.93-2.57,5.58-3.08,8.14-1.16,2.57,1.93,3.09,5.58,1.16,8.14l-80.93,107.7c-1.14,1.52-2.89,2.32-4.65,2.32Z"/>
    <path class="cls-16" d="M310.34,432.18l-36.35,48.37c-6.28.17-13.3,2.87-18.69,5.51l45.73-60.88c1.94-2.56,5.58-3.08,8.14-1.14,2.58,1.92,3.08,5.56,1.16,8.14Z"/>
    <path class="cls-8" d="M314.67,546.84c-.85,0-1.71-.19-2.52-.58-2.89-1.39-4.11-4.87-2.72-7.76l57.52-119.45c1.39-2.89,4.87-4.11,7.76-2.72,2.89,1.39,4.11,4.87,2.72,7.76l-57.52,119.45c-1,2.08-3.08,3.29-5.24,3.29Z"/>
    <path class="cls-16" d="M377.42,424.09l-23.92,49.71c-4.46-1.12-8.49-1.65-12.06-1.76l25.51-52.99c1.4-2.89,4.87-4.11,7.75-2.71,2.89,1.4,4.11,4.87,2.71,7.76Z"/>
    <path class="cls-9" d="M606.92,518.16c-6.95-1.46-16.24-4.64-26.74-9.35,8.95,9.87,6.42,14.38-1.77,12.97-1.67-.28-3.55-.8-5.62-1.56-1.98-.73-4.12-1.69-6.4-2.87-13.96-7.27-124.39-72.5-157.03-91.81-5.72-3.39-9.06-5.35-9.06-5.35l97.81-26.25s90.6,89.94,112.71,109.63c14.88,13.27,10.41,17.59-3.91,14.6Z"/>
    <path class="cls-3" d="M580.18,508.8c8.95,9.87,6.42,14.38-1.77,12.97-2.19-.87-4.45-1.84-6.76-2.89.4.45.8.89,1.15,1.32-1.98-.73-4.12-1.69-6.4-2.87-13.96-7.27-124.39-72.5-157.03-91.81l80.22-21.52s90.6,89.93,112.69,109.63c1.84,1.65,3.39,3.15,4.64,4.52-6.95-1.46-16.24-4.64-26.74-9.35Z"/>
    <path class="cls-16" d="M599.83,511.41l-185.49-87.22,75.24-20.18s84.61,83.99,110.24,107.41Z"/>
    <path class="cls-9" d="M469.24,419.53c-132.36,45.74-232.41,14.43-232.41,14.43,0,0-89.73-10.52-126.58-87.03-3.29-6.78-6.14-14.08-8.47-21.94-11.72-39.43-9.84-68.76-3.51-89.69,5.7-18.9,3.76-39.43-6.08-56.54-6.38-11.07-8.92-22.15-9.86-30.49-.96-8.55-.24-14.27-.24-14.27l4.92-21.51,3.46-15.46c0-.43.57-3.32,11.27-20.93,12.14-19.78,56.45-37.26,56.45-37.26,98.77-31.76,147.15,31.99,149.05,31.99.28,1.93,2.68,13.07,4.21,28.2,3.09.54,83.42,120.24,83.42,120.24,0,0,1.03,2.02,2.85,5.65,10.17,20.27,45.1,90.87,63.56,141.26,10.48,28.6,15.66,50.7,7.98,53.36Z"/>
    <path class="cls-5" d="M397.7,224.92c-38.54,19.12-84.84,24.53-127.75-16.43-80.03-77.78-157.27-68.27-187.62-60.22-.96-8.55-.24-14.27-.24-14.27l4.92-21.51,3.46-15.46c0-.43.57-3.32,11.27-20.93,12.14-19.78,56.45-37.26,56.45-37.26,98.77-31.76,147.15,31.99,149.05,31.99.28,1.93,2.68,13.07,4.21,28.2,3.09.54,83.42,120.24,83.42,120.24,0,0,1.03,2.02,2.85,5.65Z"/>
    <path class="cls-1" d="M469.24,419.53c-132.36,45.74-232.41,14.43-232.41,14.43,0,0-89.73-10.52-126.58-87.03,43.93,43.34,133.68,86.35,308.33,32.18,15-4.66,29.23-8.95,42.68-12.93,10.48,28.6,15.66,50.7,7.98,53.36Z"/>
    <path class="cls-5" d="M96.71,121.61s-13.15,32.05,28.11,48.58c46.28,18.54,100.1-5.06,109.31-28.68-54.97-10.72-137.42-19.9-137.42-19.9Z"/>
    <path class="cls-11" d="M105.63,115.32s-11.66,33.66,23.63,48.14c35.29,14.48,70.73-10.97,74.22-33.93-46.22-10.62-97.85-14.21-97.85-14.21Z"/>
    <path class="cls-11" d="M119.53,110.78s-49.03-11.21-18.28-39.7c24.94-11.46,70.54-14.38,92.26-3.93,21.72,10.46,16.81,19.4,9.96,18.03,15.9,6.91,36.46,28.83,25.66,28.73,9.89,4.04,24.56,21.3-9.66,13.72-34.22-7.58-99.94-16.84-99.94-16.84Z"/>
    <path class="cls-13" d="M140.13,42.75l-19.2,15s3.13,12.04,24.05,4.82c20.92-7.22,67.82-18.16,92.89-11.75-3.92-10.59-40.98-28.87-97.74-8.07Z"/>
    <polygon class="cls-17" points="176.1 108.25 219.48 127.62 176.1 133.95 176.1 108.25"/>
    <path class="cls-17" d="M86.14,105.77l7.88-15.92s-2.53,14.17,45.46,9.64c2.28,27.77-2.11,32.21-2.11,32.21l-22.37-11.79-28.86-14.14Z"/>
    <circle class="cls-17" cx="157.26" cy="120.04" r="28"/>
    <path class="cls-13" d="M120.94,52.35c-3.73,3.63.63,9.64,5.26,7.27,19.8-10.18,51.5-20.62,94.48-16.63,78.05,7.24,92.52,62.79,92.52,62.79,0,0,17.71-59.78-6.58-82.68C282.31.19,239.86-8.53,181.68,14.24c-28.61,11.2-48.15,25.87-60.74,38.11Z"/>
    <path class="cls-2" d="M510.88,434.91c0,.66-.66,14.27-57.58-15-6.87-.59-14.01-1.69-21.35-3.22-2.24-.47-4.52-.97-6.8-1.53-82.41-19.94-185.36-93.71-190.81-178.17-.38-6.1-.28-12.26.4-18.46,7.56-69.89,97.95-65.72,97.95-65.72,29.12-2.49,61.51,60.74,108.45,135.62,0,0,37.4,48.35,69,90.47.02.02.03.02.03.03,21,27.99,39.45,53.22,42.68,59.68,8.08,16.22-41.99-3.72-41.99-3.72Z"/>
    <path class="cls-3" d="M292.92,326.65l-4.03,1.64s22.01,21.75,33.63,23.14c11.62,1.39,9.22-4.5,9.22-4.5,0,0,21,13.96,26.53,1.53,26.47,13.09,35.05,8.78,35.67,4.28,18.28,12.3,34.94,13.25,34.9,2.08,20.68,7.38,18.83-11.29,12.12-16.89-9.33,7.04-81.92-.81-81.92-.81l-66.12-10.47Z"/>
    <ellipse class="cls-10" cx="157.73" cy="118.74" rx="21.85" ry="20.94" transform="translate(36.68 274.71) rotate(-89.16)"/>
    <ellipse class="cls-7" cx="157.6" cy="118.71" rx="19.64" ry="19.84" transform="translate(36.75 274.68) rotate(-89.22)"/>
    <circle class="cls-10" cx="157.26" cy="118.9" r="17.98" transform="translate(-26.92 189.22) rotate(-57.99)"/>
    <path class="cls-7" d="M161.49,112.11c-.03,2.35,1.84,4.28,4.19,4.31,2.35.03,4.28-1.84,4.31-4.19.03-2.35-1.84-4.28-4.19-4.31s-4.28,1.84-4.31,4.19Z"/>
    <path class="cls-17" d="M91.71,112.24l-88.68-2.97c-2.19-.07-2.85,2.94-.82,3.77,13.4,5.5,40.77,15.22,78.3,20.91,30.61-7.24,34.48-14.05,34.48-14.05l-23.28-7.66Z"/>
    <path class="cls-14" d="M115,119.91s-70.41,1.88-113.65-8.66c-1.9-.47-1.76-3.2.17-3.46l23.94-3.2,60.31-8.03c2.4-.31,4.82.14,6.9,1.29,1.03.54,1.95,1.22,2.76,2.05l19.56,20.01Z"/>
  </g>
  <path class="cls-6" d="M330.02,85.17l-9.23-6.9,2.09,35.64-4.35-3.65-5.34-4.49-30.01-40.87C221.14.57,142.1,35.74,139.48,36.93c1.36-1.2,25.49-21.66,64.71-31.59,9.63-2.45,20.18-4.24,31.54-4.97,3.65-.24,7.39-.37,11.2-.37,72.64,2.52,80.46,56.8,80.46,56.8l-7.96-3.46c10.9,13.56,10.61,31.83,10.61,31.83Z"/>
  <path class="cls-15" d="M100.54,112.87c.57,1.13-.25,2.46-1.52,2.45-28.94-.33-70.61-4.6-84.9-6.15-.99-.12-1.08-1.53-.1-1.77l11.44-2.8,60.31-8.03c2.4-.31,4.82.14,6.9,1.29,2.45,4.59,5.43,10.25,7.87,15.02Z"/>
  <path class="cls-4" d="M318.53,110.26l-5.34-4.49-30.01-40.87C221.14.57,142.1,35.74,139.48,36.93c1.36-1.2,25.49-21.66,64.71-31.59.47-.03.94-.07,1.43-.1l-1.01.96s57.69-6.19,83.69,18.67c18.98,18.15,0,15.28,0,15.28,0,0,30.63,29.23,18.93,30.69,7.88,7.72,12.8,27.76,11.3,39.43Z"/>
  <path class="cls-12" d="M510.15,378.92c-17.12-22.95-94.13-85.6-145.73-89.19-87.05-65.86-129.5-52.53-129.5-52.53l-.57-.19c-9.31-69.84,56.13-85.06,83.07-88.35,12.13-1.48,24.51,1.51,34.32,8.79,27.93,20.75,52.25,71.72,89.41,131,0,0,37.4,48.35,69,90.47Z"/>
  <path class="cls-11" d="M276.87,310.15s16.64,23.93,31.81,7.59c16.93,12.26,31.52,10.96,31.52,2.56,23.35,16.11,35.27,13.17,36.6,7.64,11.26,11.39,29.93,13.16,29.93,2.06,14.59,9.33,29.18,13.42,30.35-.59,11.09,15.76-1.77,27-20.43,17.52-4.09,11.08-26.08,4.63-35.02-5.26,4.09,15.76-27.26,2.92-34.64-4.67,2.54,16.93-27.03,1.74-33.84-5.55-2.14,11.97-29,1.47-36.29-21.3Z"/>
  <path class="cls-11" d="M461.25,423.51c-.37,0-.74-.13-1.04-.4-52.15-47.73-140.41-93.27-141.29-93.72-.76-.39-1.05-1.32-.67-2.07.39-.76,1.31-1.05,2.07-.67.89.46,89.51,46.19,141.96,94.19.63.57.67,1.55.1,2.17-.3.33-.72.5-1.13.5Z"/>
  <path class="cls-11" d="M431.95,416.69c-2.24-.47-4.52-.97-6.8-1.53-52.31-41.59-121.61-77.24-122.38-77.64-.75-.38-1.06-1.32-.66-2.07.38-.77,1.3-1.06,2.07-.68.8.42,74.72,38.46,127.77,81.92Z"/>
  <path class="cls-11" d="M508.14,436.45c-.37,0-.73-.13-1.03-.39-54.86-49.31-125.57-92.65-126.27-93.08-.72-.44-.95-1.39-.51-2.11.44-.72,1.39-.95,2.11-.51.71.43,71.65,43.92,126.73,93.42.63.57.68,1.54.12,2.17-.3.34-.72.51-1.15.51Z"/>
  <path class="cls-11" d="M543.81,442.91c-.4,0-.8-.16-1.1-.46-38.86-39.9-133.2-98.06-134.15-98.65-.72-.44-.95-1.39-.5-2.12.44-.72,1.39-.95,2.12-.5.95.59,95.61,58.95,134.74,99.12.59.61.58,1.58-.03,2.18-.3.29-.69.44-1.07.44Z"/>
</svg>