<?xml version="1.0" encoding="UTF-8"?>
<svg id="Layer_1" data-name="Layer 1" xmlns="http://www.w3.org/2000/svg" viewBox="0 0 22.07 16.91">
  <defs>
    <style>
      .cls-1 {
        opacity: .75;
      }

      .cls-2 {
        fill: #fff;
      }
    </style>
  </defs>
  <g class="cls-1">
    <path class="cls-2" d="M20.48.23c.17.17.01,1.53.08,1.85.06.1,1.18.24,1.36.35.08.05.15.34.16.44l-.03,13.38c-.05.17-.23.25-.4.23-3.51-.84-7.24-1.13-10.6.42-2.92-1.33-5.95-1.27-9.06-.75-.35.06-1.5.39-1.75.31-.17-.06-.24-.24-.23-.41V2.71c.05-.54,1.35-.38,1.5-.68.16-.31-.14-1.67.15-1.84.09-.05.75-.14.9-.15,2.53-.17,4.87.26,7.03,1.58.49.3.94.66,1.41,1,.11.01,1.3-.89,1.54-1.04C14.69.28,17.12-.15,19.64.04c.16.01.75.1.84.19ZM10.72,15.73V3.41c0-.15-.35-.42-.47-.52C8.26,1.25,5.46.52,2.9.69c-.13,0-.73.07-.73.15v12.73c2.77-.1,5.37.25,7.74,1.71.13.08.68.57.8.46ZM19.91.8c-3.06-.48-6.26.4-8.55,2.49v12.44c.45-.13.84-.5,1.27-.75,1.58-.9,3.56-1.34,5.37-1.42.54-.03,1.19.07,1.7,0,.06,0,.2-.03.2-.09V.8ZM1.53,14.06V2.94c0-.2-.88-.03-.88.18v12.47s.06.09.07.14c.1.06.59-.13.74-.16,1.95-.37,3.91-.57,5.9-.37.42.04.83.19,1.26.17.03-.17-.05-.09-.13-.13-2.2-1.08-4.11-.92-6.45-1-.13,0-.47-.04-.51-.18ZM20.55,2.94v11.06s-.07.13-.1.15c-.2.13-1.77.04-2.15.05-1.22.06-2.49.24-3.66.62-.4.13-.79.3-1.17.47-.03.14.19.09.26.09,1.89-.18,3.15-.35,5.09-.11.75.09,1.65.39,2.37.45.07,0,.12.03.16-.04.07-.11.02-1.74.02-2.02,0-.26,0-.5,0-.76,0-3.29.03-6.59-.03-9.87-.07-.14-.74-.25-.79-.09Z"/>
  </g>
</svg>