<?xml version="1.0" encoding="UTF-8"?>
<svg id="Layer_1" data-name="Layer 1" xmlns="http://www.w3.org/2000/svg" viewBox="0 0 334.21 292.11">
  <defs>
    <style>
      .cls-1 {
        fill: #e98630;
      }

      .cls-2 {
        fill: #6f210d;
      }

      .cls-3 {
        fill: #923008;
      }

      .cls-4 {
        fill: #f08e2f;
      }

      .cls-5 {
        fill: #e68e49;
      }

      .cls-6 {
        fill: #ba4b0f;
      }

      .cls-7 {
        fill: #fbe2a7;
      }

      .cls-8 {
        fill: #f19c54;
      }

      .cls-9 {
        fill: #f5a847;
      }

      .cls-10 {
        fill: #603628;
      }

      .cls-11 {
        fill: #d98336;
      }

      .cls-12 {
        fill: #ef943a;
      }

      .cls-13 {
        fill: #4d1e17;
      }

      .cls-14 {
        fill: #cb5813;
      }

      .cls-15 {
        fill: #f8c26f;
      }

      .cls-16 {
        fill: #d26e32;
      }

      .cls-17 {
        fill: #fab759;
      }

      .cls-18 {
        fill: #e47b28;
      }

      .cls-19 {
        fill: #fbd58b;
      }

      .cls-20 {
        fill: #f4a244;
      }

      .cls-21 {
        fill: #fbb861;
      }

      .cls-22 {
        fill: #ac400b;
      }

      .cls-23 {
        fill: #f4ac51;
      }

      .cls-24 {
        fill: #7e5542;
      }

      .cls-25 {
        fill: #eb903d;
      }

      .cls-26 {
        fill: #de7424;
      }

      .cls-27 {
        fill: #f7cd72;
      }

      .cls-28 {
        fill: #bb5a26;
      }

      .cls-29 {
        fill: #d1621b;
      }
    </style>
  </defs>
  <path class="cls-5" d="M146.79,14.41c3.19-.06,10.58,1.33,15.73,1.31.28,6.17,7.93,3.35,12.16,4.22,6.58,1.36,11.69,9.27,16.68,12.8-.28.5-1.19.95-1.31,1.31-2.82-.99-6.39,1.38-8.42,1.34-.57-.01-3.07-4.83-9.43-5.22-4.1-.25-12.66,4.02-14.9-2.03-1.34-3.63,5.48,0,3.91-4.56-5.23.03-10.49-.07-15.72,0-2.21.03-3.72,1.3-3.93,1.31-1.29.04-2.65.09-3.93,0-2.45-.16-6.08-4.72-5.24,2.62-.73-.11-3.74-.13-3.93,0-.35-1.26-1.51-1.24-2.62-1.31-.16-2.84,2.3-3.61,3.93-5.24,1.09-1.09,2.93-1.29,2.62-3.93,4.57-.69,10.15-2.54,14.42-2.62Z"/>
  <path class="cls-16" d="M180.87,15.72c6.95,1.49,14.05,6.2,18.62,7.41.98.26,2.25-.96,2.34-.87.29.32-.15,2.85.01,3.94.84,0,1.82-.12,2.62,0v1.31c-1.82.05-1.86,3.76-2.62-1.31-15.35.07-2.85,2.78.92,4.98,7.18,4.18,6.74,6.39,10.83,11.43,1.62,2,5.52,2.12,5.28,5.86-5.15-1.21-13.48-1.15-18.35-1.31-1.31-.04-2.62,0-3.93,0v-3.93c.47-.39.83-.92,1.31-1.31.46.28,3.88-.25,5.57.27,1.09.33,7.97,4.6,6.21.4-2.2-5.27-7.18-3.59-10.91-4.82-.45-.15-6.71-4.51-7.43-5.02-4.99-3.54-10.09-11.44-16.68-12.8-4.22-.87-11.88,1.94-12.16-4.22,6.94-.03,9.88-1.81,18.35,0Z"/>
  <path class="cls-28" d="M201.84,26.2c.76,5.07.8,1.36,2.62,1.31.62-.02,8.08,5.38,10.49,6.55,5.3,8.34,16.41,14.89,24.9,19.65,1.24,1.34,2.7,2.51,3.93,3.93.59,3.66,3.33,7.74,5.24,11.79-2.15.18-4.42-.25-6.55,0-.43.05-.89-.07-1.31,0-.57-4.2-8.35-4.75-8.94-5.48-.23-.29-1.18-3.71-2.86-6.31-1.09-1.7-1.48-3.83-3.24-5.33-1.22-1.04-2.6-.81-3.32-1.22-1.09-.62-3.19-2.45-3.93-2.62.24-3.74-3.67-3.86-5.28-5.86-4.09-5.05-3.65-7.25-10.83-11.43-3.77-2.2-16.27-4.91-.92-4.98Z"/>
  <path class="cls-29" d="M287.03,231.85c-.22,1.58.38,4,0,5.24-1.53,5-5.97,5.23-9.16,8.53l5.23.63c-.29.63.14,2.3-.66,3.86-1.1,2.14-4.85,3.34-4.58,6.62-7.26,3.08-10.79,2.35-18.35,3.93-1.34.28-3.17-.54-3.93,1.31-5.16-1.44-10.37-1.59-14.42-2.62-.76-.19-1.81-.9-2.62-1.31.01-1.72-.25-3.86-1.31-5.24l19.65,6.54-1.3-7.85c1.57-1.66,3.55,6.27,11.79-1.32,2.19-2.02,11.09-9.86,11.87-11.11,1.35-2.16.82-2.88,1.24-4.61.2-.84,1.29-6.22,1.31-6.55,1.53,1.78,2.58,4.04,5.24,3.93ZM275.89,247.57v1.31c.85-.44.85-.87,0-1.31Z"/>
  <path class="cls-19" d="M94.37,39.3v2.62c-.94.25-4.94,5.09-5.24,5.9-.34.93,3.07.99,3.92,2.62,1.24,2.38-2.57,1.76-2.71,2.73-.44,3.1,3.79,8.37,2.72,12.32-5.81-.39-6.52-9.09-6.56-13.65-7.68-3.41-8.91,13.63-9.17,18.89-.08,1.74.06,3.5,0,5.24-.03.87,0,1.75,0,2.62h-2.62c-.12-4.65-.04-7.47.07-12.4.09-3.69-1.16-7.65-.99-10.4.21-3.3,3.23-3.36,3.53-4.7.2-.89-.4-1.46-1.31-1.31-.18-.75.12-1.78,0-2.62,2.61-1.83,7.33-3.67,10.49-5.24,1.58-.79,5.76-1.19,7.86-2.62Z"/>
  <path class="cls-13" d="M296.2,222.68c8.45,2.27,8.57,19.43,7.27,26.26-.22,1.17-5.82,12.39-6.47,13.17-2.92,3.52-9.95,4.64-13.9,6.41-.51-.24-1.05-1.27-1.31-1.31v-1.31c5.03-.45,8.09-2.22,11.66-6.03,5.52-5.89,6.26-12.47,5.98-20.35-.19-5.28-2.06-10.12-4.53-14.22,0-.62,1.29-1.94,1.31-2.62Z"/>
  <path class="cls-8" d="M81.26,188.62c-.95.28-1.13-.06-1.31,1.31-9.33,1.73-7.02-2.05-10.1-5.31-2.17-2.3-7.39-2.7-9.56-6.48-.49-.85-1.69-5.87-2.62-7.86,4.13-.23,5.32,6.52,8.53,7.85l1.96-2.61c.33,3.64,3.69,3.71,3.93,3.93,1.47,1.34,2.01,4.62,5.23,3.92,2.34-7.17,1.02-14.83,1.32-22.26.38-.49.86-.9,1.31-1.31-.91,9.73,1.63,19.15,1.31,28.82Z"/>
  <path class="cls-7" d="M76.02,49.78c.15.63.69,1.13,1.31,1.31-.31,1.34-3.32,1.4-3.53,4.7-.18,2.75,1.07,6.72.99,10.4-.11,4.93-.2,7.75-.07,12.4.03,1.31-.04,2.62,0,3.93-1.44-.85-3.77,1.67-3.93,2.62l-2.62-2.62c.04-.87-.07-1.76,0-2.62.44-5.65.98-11.39,1.31-17.03.13-2.13-1.94-3.65-.44-7.53.26-.66,5.92-7.43,6.99-8.18.12.84-.18,1.87,0,2.62Z"/>
  <path class="cls-10" d="M277.85,150.64c3.13,13.91,18.21,22.19,19.68,37.31.02,1.24-1.73.58-2.64.67-.76-5.22-5.13-8.94-7.86-13.1-3.21-4.88-7.03-12.7-10.49-17.03-1.08-3.29.79-5.69,1.31-7.86Z"/>
  <path class="cls-10" d="M98.3,208.27c.81,5.27,8.86,5.94,11.8,10.48-.2-.03-.95,1.6-3.86.8-3.77-1.04-15.42-7.88-18.29-10.76s-9.93-12.05-6.69-16.24c2.41,3.81,10.8,16.64,14.84,16.82.85.04,1.73-1.06,2.19-1.1Z"/>
  <path class="cls-28" d="M243.78,82.52c2.67,2.13,8.98,6.43,10.49,7.86,3.37,3.2,5.73,11.09,11.8,11.79.75,1.35,1.71,2.67,2.62,3.93.76,1.06,1.19,2.23,2.62,2.62-.01.43.03.88,0,1.31-.18,2.21-1.52,1.31,0,5.24l-1.29,1.3c.36-3.06-2.24-2.86-3.96-3.92-.61-8.35-12.08-16.83-18.35-22.27-1.92-1.67-5.88-7.23-9.17-6.55l-1.31-5.24c4.44,1.55,3.46,1.47,6.55,3.93Z"/>
  <path class="cls-5" d="M255.57,261.98c5.43,1.51,2.89,1.86,7.86,1.31.86-.09,1.76.07,2.62,0,.12.73-.23,2.46-.01,2.62.63.47,13.45.2,15.74,0v1.31c-2.75-.47-9,1.27-13.11,1.31-.43,0-.88.02-1.31,0-1.28-.06-2.78.2-3.93,0-3.44-.59-9.26-3.39-12.46-5.23l-.64,2.61c-3.08-1.3-10.04.95-9.17-6.55,4.05,1.03,9.26,1.18,14.42,2.62Z"/>
  <path class="cls-13" d="M144.17,222.68c4.15,2.26,6.79,3.25,11.8,3.93.03.87-.02,1.75,0,2.62-16.92-1.67-19.14-2.57-34.08-7.86h1.31c2.16.14,4.4-.2,6.55,0,3.39.31,1.91,2.18,7.86,0,.46-.17.89-1.14,1.31-1.31.39-.15.96.16,1.31,0,.93,1.51,2.52,1.85,3.93,2.62Z"/>
  <path class="cls-28" d="M294.89,188.62c-.86.09-1.76-.07-2.62.01-.23,1.44,1.26,1.22,1.31,1.3,1.87,3.29,1.61,6.75,2.62,9.17h-1.31c-.82-5.72-8.1-6.4-11.8-7.86-2.06-.81-5.83-1.34-6.26-1.67-.66-.5-.19-2.2-.29-2.26,1.91-.02,3.36-.74,3.93-2.62.76.19,2.03-.39,3.02,0,1.35.53.18,3.72,3.51,2.62.45-2.41,1.55-4.71,1.48-7.24s-3.54-1.53-2.77-4.54h1.31c2.74,4.16,7.1,7.87,7.86,13.1Z"/>
  <path class="cls-5" d="M26.21,161.12c1.47.88,5.33,4.79,7.86,6.55,1.27.88,2.34,2.67,4.53,3.97,3.1,1.84,8.1,1.56,7.27,5.2-2.17-.15-4.38.11-6.55,0-1.43-.07-4.9.09-5.1-.06-.66-.48-1.24-5.04-1.46-5.19-.26-.18-3.44,1.85-3.91,1.33-.21-.24.42-2.43-.34-3.51s-6.82-7.26-8.84-9.6h1.31c1.43.62,4.12.63,5.24,1.31Z"/>
  <path class="cls-24" d="M14.42,125.75l1.31,1.31c-.24.64.22,1.88,0,2.62-.65,2.18-.94,2.56-1.31,5.24-.08.57-1.36,1.43-1.31,3.93.02,1.15,1.28,1.22,1.31,1.31.65,2.22-1.68,4.7,2.62,3.93.2,1.22-.23,2.77,0,3.93.85,4.24,1.48,8.09,3.93,11.79h-1.31c-.2-.23-1.98.4-2.45-.14-.22-.25,1.07-1.79.81-2.2-.22-.35-1.97-.37-2.69-1.9-3.87-8.12-8.36-20.59-3.54-28.9.88-1.52,2.52-.76,2.63-.91Z"/>
  <path class="cls-5" d="M81.26,188.62c5.26-1.57,3.8,3.16,5.92,5.25,3.76,3.7,4.58,1.64,8.5,9.16.66,1.26.12,3.42,2.62,3.93-.05.39-.06.93,0,1.31-.46.04-1.34,1.14-2.19,1.1-4.04-.18-12.44-13.01-14.84-16.82-.49-.77-1.54-.85-1.31-2.62.18-1.37.36-1.03,1.31-1.31Z"/>
  <path class="cls-7" d="M58.98,81.21c1.08-.13,2.33.81,5.24,0v2.62c-1.13-.04-1.88.98-2.62,1.31-2.72,1.23-5.11,1.01-5.24,5.24-.78.1-1.81.05-2.62,0-1.57-.11-5.94-4.23-5.24,1.31-.43-.03-.88.05-1.31,0-1.68-.21-3.76-1.3-5.24-1.31.32-.78-.55-3.31.09-3.81.56-.44,3.32.17,5.13-.82,1.04-.57,1.15-2.98,2.99-3.71.84-.34,6.6-.56,8.83-.82Z"/>
  <path class="cls-13" d="M280.47,127.06c.74,8.35-.7,15.59-2.62,23.58-.52,2.17-2.39,4.57-1.31,7.86-.7-.88-4.38.33-5.24-5.24-.13-.82.08-1.77,0-2.62-.13-1.48.9-6.49.01-9.17.43-.07.87.05,1.3,0,.61,1.59.97,6.31,1.98,6.56,3.43.85,1.51-3.71,1.95-6.56.79-5.04,2.14-10.17,1.31-15.72.54.53,1.9.78,2.62,1.31Z"/>
  <path class="cls-16" d="M220.19,246.26c-5.56-.9-3.22,1.09-3.93,2.62-1.22,2.62-4.54.67-7.02,1.28-1.47.36.24,3.27-2.8,2.66-1.15-.23-.17-1.95-1.63-2.6-3.98-1.76-7.1,1.33-12.13-3.97-.54-.57-.75-2.06-1.31-2.62,1.26.15,2.76-.22,3.93,0,3.32.62,6.94.91,9.17,1.31,1.08.2,2.52,2.51,4.59,2.59,2.67.11,3.53-2.17,4.58-2.59,1.83-.74,3.18,1.23,5.24-2.62l1.31,3.93Z"/>
  <path class="cls-10" d="M146.79,14.41c9.17-3.17,21.17-3.38,30.86-2.62,4.02.32,3.37-.65,3.21,3.93-8.47-1.81-11.41-.03-18.35,0-5.15.02-12.53-1.37-15.73-1.31Z"/>
  <path class="cls-10" d="M217.56,34.06c11.16,5.86,14.73,11.5,22.28,19.65-8.5-4.76-19.6-11.31-24.9-19.65.58.28,2.07-.29,2.62,0Z"/>
  <path class="cls-10" d="M34.08,102.17c-.39,1.44-1.07,3.92-1.31,5.24-.08.42.06.88,0,1.31-6.1-.97-7.01,5.32-9.17,7.86-3.19,3.75-5.83,5.11-7.86,10.48l-1.31-1.31c1.58-1.97,2.13-7.89,4.68-11.7,1.58-2.37,10.02-10.45,12.36-11.88.42-.26,1.86.17,2.62,0Z"/>
  <path class="cls-21" d="M169.07,225.3c-1.02,5.33,1.65,3.32,2.62,3.93,3.02,1.89,9.46,4.46,13.11,5.24l1.31,3.93c-1.27-.48-8.66-1.79-9.17,0-3.53-2.28-6.51-4.88-10.49-6.55v-2.62c0-1.18-.24-3,0-3.93.87-.02,1.75.03,2.62,0Z"/>
  <path class="cls-19" d="M116.65,22.27c.55.3.92.84,1.31,1.31.54.65.79,1.86,1.31,2.62-.18.03-.58,1.7-1.26,1.85-6.37,1.41-6.64.54-13.16,4.7-3.08,1.97-5.01,5.8-9.17,5.24,4.64-3.33,9.15-9.1,13.11-13.1,2.26-2.28,4.14-4.66,7.86-2.62Z"/>
  <path class="cls-10" d="M108.78,24.89c-3.96,4-8.47,9.77-13.11,13.1-.5.36-.86,1-1.31,1.31-2.1,1.43-6.29,1.83-7.86,2.62,2.29-5.05,6.67-7.43,10.59-11.02l11.69-6.01Z"/>
  <path class="cls-10" d="M300.13,204.34c-.6,4.47-.27,8.13-5.24,10.48-.5-1.84-2.48-4.51-2.62-5.24-.07-.37-.03-.92,0-1.31.01-.15,1.1-1.39,1.31-2.62.36-2.07,1.74-3.53,1.31-6.55h1.31c.23.56,3.59,3.56,3.93,5.24Z"/>
  <path class="cls-10" d="M68.15,79.9c-1.78-.68-3.12,1.09-3.93,1.31-2.91.81-4.16-.13-5.24,0,6.78-5.02,4.74-13.51,10.49-18.34-.34,5.64-.87,11.37-1.31,17.03Z"/>
  <path class="cls-10" d="M238.53,258.05c0,.89.5,2.67-.65,2.61-5.28-6.27-16.2-5.07-20.32-10.47,10.75-2.88,14.2,4.42,20.97,7.86Z"/>
  <path class="cls-8" d="M220.19,246.26c1.45.24,5.25.98,6.55,1.31,1.47.37,2.55.8,3.93,1.31s5.87,3.03,6.55,3.93c1.06,1.38,1.32,3.52,1.31,5.24-6.77-3.44-10.22-10.74-20.97-7.86-.37-.49-.87-.89-1.31-1.31.71-1.53-1.62-3.52,3.93-2.62Z"/>
  <path class="cls-16" d="M292.27,209.58c.14.73,2.13,3.4,2.62,5.24.85,3.15,1.44,4.2,1.31,7.86-.02.68-1.32,2-1.31,2.62-1.64-2.72-5.66-7.88-6.55-10.48-.32-.92.22-2.77,0-3.93.2.04,3.78-.5,3.93-1.31Z"/>
  <path class="cls-13" d="M45.87,176.84c2.94.2,6.43-.41,9.17,0,.95.14,3.15,2.28,5.24,1.31.12,2.88.6,2.36-1.93,2.63-4.52.49-10.72.16-15.19-.65-2.19-.4-4.59-.14-3.85-3.29,2.17.11,4.39-.15,6.55,0Z"/>
  <path class="cls-13" d="M186.11,238.4c2.85,1.07,3.58,3.6,5.24,5.24.56.56.77,2.05,1.31,2.62-.68,2.51-4.1.1-5.3-.6-3.64-2.1-6.9-4.99-10.42-7.26.51-1.79,7.91-.48,9.17,0Z"/>
  <path class="cls-10" d="M281.79,267.22c.26.04.8,1.07,1.31,1.31-.13.06.66,2.08-.93,2.6-6.12,2-11.51.99-17.42.02l-1.31-2.62c1.15.2,2.66-.06,3.93,0l.66,1.28.66-1.28c4.11-.04,10.35-1.78,13.11-1.31Z"/>
  <path class="cls-10" d="M243.78,57.64c7.49,8.63,8.23,9,13.11,20.96h-2.62c-.49-1.48-4.05-6.64-5.24-9.17-1.91-4.05-4.66-8.12-5.24-11.79Z"/>
  <path class="cls-11" d="M127.13,214.82c3.34-2.51,5.11,6.06,5.4,6.42.16.2,3.87-.99,5.09.13-5.96,2.18-4.47.31-7.86,0-.86-2.07-5.69-2.07-6.55,0h-1.31c-1.28-.45-2.46-.75-3.93-1.31-.12-.84.17-1.87,0-2.62,2.55-.37,6.04.63,8.33.02,1.35-.36.74-2.56.85-2.64Z"/>
  <path class="cls-10" d="M280.47,127.06c-.72-.53-2.08-.78-2.62-1.31-1.76-1.71-5.66-8.18-6.55-10.48-1.52-3.93-.18-3.03,0-5.24,5.38,5.72,8.45,8.84,9.17,17.03Z"/>
  <path class="cls-24" d="M256.88,78.59c2.39,5.85,2.2,4.88,3.93,11.79l-5.24-1.31c.24-2.43-1.02-3.65-1.31-5.24s.4-4.03,0-5.24h2.62Z"/>
  <path class="cls-24" d="M132.37,17.03c.3,2.64-1.53,2.84-2.62,3.93-4.37-.86-7.8,1.61-11.8,2.62-.39-.47-.76-1.01-1.31-1.31.24-5.99,11.25-4.57,15.73-5.24Z"/>
  <path class="cls-8" d="M103.54,208.27c1.67,3.02,4.11,5.71,7.86,5.24.35,1.55,1.71,3.24,1.31,5.24-.13-.02-1.17.2-2.62,0-2.94-4.54-10.98-5.21-11.8-10.48,2.41-.2,3.44.05,5.24,0Z"/>
  <path class="cls-13" d="M260.82,90.38c.64,2.56,4.09,9.71,5.24,11.79-6.07-.7-8.43-8.59-11.8-11.79.72-.03,1.24-.64,1.31-1.31l5.24,1.31Z"/>
  <path class="cls-24" d="M293.58,189.93c2.88.36,4.17-1.67,5.31,1.91,1.56,4.86,1.85,7.94,1.24,12.5-.34-1.68-3.7-4.68-3.93-5.24-1.01-2.41-.75-5.88-2.62-9.17Z"/>
  <path class="cls-24" d="M41.94,90.38c-1.52,3.66-5.39,2.71-7.86,11.79-.76.17-2.2-.26-2.62,0-.92-7.23,3.43-11.82,10.49-11.79Z"/>
  <path class="cls-24" d="M263.44,268.53l1.31,2.62c-8.09-1.33-8.07-2.55-14.42-5.24l.64-2.61c3.2,1.84,9.03,4.63,12.46,5.23Z"/>
  <path class="cls-24" d="M166.45,229.23v2.62c-.96-.4-8.01-2.38-10.49-2.62-.02-.87.03-1.75,0-2.62s.19-2.03,0-2.62h1.31l9.17,5.24Z"/>
  <path class="cls-24" d="M204.46,26.2c4.16.6,12.63,3.29,13.11,7.86-.55-.29-2.04.28-2.62,0-2.4-1.17-9.87-6.57-10.49-6.55v-1.31Z"/>
  <path class="cls-29" d="M117.96,217.44c.17.75-.12,1.78,0,2.62-.51-.19-4.64-1.23-5.24-1.31.4-2-.96-3.69-1.31-5.24-.17-.75.12-1.78,0-2.62,2.43,1.81,5.32,1.23,6.55,6.55Z"/>
  <path class="cls-10" d="M268.68,106.1c3.11-.3,2.7-.15,2.62,2.62-1.43-.39-1.86-1.56-2.62-2.62Z"/>
  <path class="cls-8" d="M145.48,23.58c5.23-.07,10.49.04,15.72,0,1.56,4.57-5.26.93-3.91,4.56,2.24,6.04,10.8,1.77,14.9,2.03,6.36.39,8.86,5.21,9.43,5.22,2.04.04,5.6-2.33,8.42-1.34-.17.51.43,1.65-.31,2.28-.52.45-8.1,2.11-4.93,5.57.82.9,10.17-4.64,12.84-2.29.59.52.14,2.22.25,2.29-.48.39-.84.92-1.31,1.31-3.9,3.24-6.62,1.71-10.49,3.93-.86.07-1.76-.09-2.62,0-6.32.66-13.51,2.2-19.66,3.93.85-3.71-2.65-4.98-3.64-7.5-.26-.66-1.1-12.81-5.51-9.53-.3.22-1.44,5.31-2.59,6.9-8.25,11.37-19.55,14.52-32.81,19.29-.56-4.95,4.1-7.14,7.41-9.67.62-.47.36-2.06.46-2.12,1-.59,3.52-.73,6.55-2.62,6.56-4.08,4.18-3.7,7.86-7.86.45-.51,4.11-.28,5.05-3.55,1.04-3.65-1.6-7.23-1.12-10.86Z"/>
  <path class="cls-7" d="M132.37,27.51c.2.03,3.77,1.18,3.93,1.31.14.11.37,2.16,1.27,3.32.78,1.02,2.53,1.68,2.67,1.92.34.6-.24,2.88,0,3.93-6.36-1.33-6.45,2.37-6.55,7.86-3.03,1.89-5.55,2.03-6.55,2.62-2.78-4.41-13.25-4.24-17.04-2.62-3.99-2.85-2.96-6.57-3.93-9.17,6.43.41,4.76-4.71,5.25-5.24,2.29-2.45,2.56,2.38,3.46,2.64,5.58,1.57,5.43-1.99,6.7-2.55,2.09-.91,4.37-.82,6.5-1.84.57-.27.27-2.12.37-2.18.19-.13,3.2-.11,3.93,0Z"/>
  <path class="cls-15" d="M125.82,26.2c1.11.07,2.27.05,2.62,1.31-.1.07.2,1.91-.37,2.18-2.13,1.02-4.41.93-6.5,1.84-1.28.55-1.12,4.11-6.7,2.55-.9-.25-1.17-5.09-3.46-2.64-.49.52,1.18,5.65-5.25,5.24-.21-.56-3.87-1.23-1.31-3.93,6.52-4.16,6.79-3.29,13.16-4.7.68-.15,1.07-1.82,1.26-1.85,1.75-.27,4.67-.12,6.55,0Z"/>
  <path class="cls-11" d="M191.35,32.75c.72.51,6.98,4.87,7.43,5.02,3.73,1.24,8.7-.45,10.91,4.82,1.75,4.2-5.12-.06-6.21-.4-1.69-.52-5.11,0-5.57-.27-.12-.07.33-1.78-.25-2.29-2.67-2.35-12.02,3.18-12.84,2.29-3.17-3.46,4.41-5.13,4.93-5.57.73-.63.14-1.77.31-2.28.12-.36,1.03-.81,1.31-1.31Z"/>
  <path class="cls-21" d="M145.48,23.58c-.48,3.63,2.16,7.21,1.12,10.86-.94,3.27-4.6,3.04-5.05,3.55h-1.31c-.24-1.05.34-3.33,0-3.93,6.06-1.21,4.54-5.1,1.31-9.17.21,0,1.72-1.28,3.93-1.31Z"/>
  <path class="cls-15" d="M141.55,24.89c3.23,4.07,4.75,7.96-1.31,9.17-.14-.24-1.88-.9-2.67-1.92-.9-1.16-1.13-3.21-1.27-3.32l1.31-3.93c1.28.09,2.64.04,3.93,0Z"/>
  <path class="cls-21" d="M129.75,20.96c-1.63,1.63-4.1,2.4-3.93,5.24-1.89-.12-4.81-.27-6.55,0-.52-.76-.77-1.97-1.31-2.62,4-1.01,7.43-3.48,11.8-2.62Z"/>
  <path class="cls-21" d="M137.62,24.89l-1.31,3.93c-.16-.13-3.73-1.28-3.93-1.31-.84-7.34,2.79-2.78,5.24-2.62Z"/>
  <path class="cls-5" d="M218.88,48.47c.74.17,2.85,2,3.93,2.62l-1.31,1.31c-.76-.47-7.1.23-9.17,0-.86-.09-1.77.1-2.62,0-2.09-.25-4.16-1.1-6.55-1.31.46-2.17-.99-2.92-2.62-3.93,4.87.16,13.2.1,18.35,1.31Z"/>
  <path class="cls-21" d="M186.11,47.16c3.35-.27,7.07,0,10.49,0,1.31,0,2.63-.04,3.93,0,1.63,1.01,3.08,1.76,2.62,3.93-6.21-.55-11.91-1.96-18.35-1.31l-1.31-2.62c.86-.09,1.76.07,2.62,0Z"/>
  <path class="cls-5" d="M196.59,47.16c-3.42,0-7.14-.27-10.49,0,3.87-2.22,6.59-.69,10.49-3.93v3.93Z"/>
  <path class="cls-3" d="M199.22,66.8c1.77-.18,4.85-.24,6.55,0,4.83.69,12.52,1.75,17.04,2.62,5.15.99,11.16,3.91,16.36,5.26,3.05-3.37-2.12-1.66-1.94-3.94,1.59.5,3.15-1.19,3.92-1.32.42-.07.88.05,1.31,0,3.73,4.36,6.49,6.68,5.24,13.1-.98-.3-2.74.2-3.93,0-3.09-2.46-2.12-2.38-6.55-3.93-7.2-2.52-17.63-5.99-24.9-6.55-5.97-.46-25.79-.89-30.14,1.31-1.12-4.61,4.61-1.42,7.86-3.93.43.01.88-.05,1.31,0,7.05.77,4.6-2.04,5.24-2.62.21-.19,1.84.08,2.62,0Z"/>
  <path class="cls-6" d="M229.36,57.64c1.68,2.61,2.62,6.03,2.86,6.31.59.73,8.36,1.27,8.94,5.48-.78.13-2.33,1.82-3.92,1.32-.18,2.28,4.99.57,1.94,3.94-5.2-1.35-11.21-4.27-16.36-5.26-.08-.85.12-1.78,0-2.62-.42-2.98-2.75-3.75-2.61-6.54,7.7,2.79,4.27-.1,5.23-1.31.63-.8,2.83-1.11,3.93-1.31Z"/>
  <path class="cls-22" d="M249.02,69.42c1.19,2.53,4.75,7.69,5.24,9.17.4,1.21-.28,3.7,0,5.24-3.01,2.82-4.61-.71-6.55-1.31,1.24-6.42-1.51-8.74-5.24-13.1,2.13-.25,4.4.18,6.55,0Z"/>
  <path class="cls-11" d="M229.36,57.64c-1.1.2-3.3.51-3.93,1.31-1.74-.94-3.61-6.35-3.93-6.55l1.31-1.31c.72.41,2.09.18,3.32,1.22,1.76,1.5,2.14,3.63,3.24,5.33Z"/>
  <path class="cls-4" d="M263.44,200.41c.2.06.56,2.13,3.24,2.6s5.79-.22,8.55.03c.38,2.99-6.68-.58-5.22,3.24.44,1.17,3.06,3.34,3.98,5.2,3.7,7.52,3.53,10.4,3.87,18.46.1,2.52-1.33,5.25,2.63,4.52-.41,1.74.11,2.45-1.24,4.61-.78,1.25-9.68,9.09-11.87,11.11h-6.55c-.99-3.17,2.62-4.86,2.65-7.2.02-1.32-2.35-.37-2.66-.66-6.22-5.89,9.76-11,10.33-11.99.88-1.53-1.36-4.71-1.16-6.96.09-1.04,5.44-8.65.68-7.23-1.9.57-11.03,6.64-12.47,5.21,6.77-15.22,3.83-14.8-9.23-8.56-2.17,1.04-4.83,4.12-6.01,4.33-1.55.29-4.94-1.7-5.7-.99-.17.16,0,2.58-.77,3.76-2.46,3.74-5.71,7.69-9.75,9.32-.55,1.28-.04,4.08-1.2,5.72-.97,1.37-2.56.66-2.73.83-.66-1.23-1.06-2.55-1.31-3.93,1.14-3.58,3.8-2.04,5.24-2.62,2.36-5.43,6.16-10.39,10.49-14.41,5.93-5.52,5.61-4.16,11.8-6.55,2.47-.95,4.53-2.23,6.79-3.06,4.09-1.5,7.45.96,6.31-4.8.46.05.96-.11,1.31,0Z"/>
  <path class="cls-3" d="M294.89,226.61c-.03,8.87,3.87,13.38.72,23.65-1.33,4.33-7.58,11.75-12.15,12.76s-7.11-.95-10.22-.79c-2.24.12-4.63.85-7.19,1.05-.86.07-1.77-.09-2.62,0l-3.93-2.62c7.55-1.58,11.08-.85,18.35-3.93,7.01-2.98,14.95-8.55,15.73-17.03.46-5.08-3.34-14.29,1.31-13.1Z"/>
  <path class="cls-26" d="M269.99,199.1c3.64.64,8.28,2.51,11.8,3.93.08.73.11,2.48,0,2.62-.09.11-2.49-.46-2.72.79-.31,1.74,3.09,16.4,2.72,21.47-.02.33-1.11,5.71-1.31,6.55-3.96.73-2.52-2-2.63-4.52-.34-8.07-.16-10.95-3.87-18.46-.92-1.86-3.53-4.04-3.98-5.2-1.46-3.82,5.6-.25,5.22-3.24-2.76-.25-5.87.44-8.55-.03s-3.04-2.54-3.24-2.6c.27-.5,1.22-.98,1.31-1.31,1.67.19,3.68-.28,5.24,0Z"/>
  <path class="cls-18" d="M260.82,242.33c.31.29,2.67-.66,2.66.66-.03,2.33-3.64,4.02-2.65,7.19h6.55c-8.23,7.59-10.22-.34-11.79,1.32l1.3,7.85-19.65-6.54c-.69-.9-5.17-3.42-6.55-3.93,2.37-1.73,11.23-.44,13.49.27,2.38.76,3.11,4.09,6.8,3.76,4.54-.4,3.35-6.45,4.61-7.97.22-.26,4.45-1.24,5.24-2.62Z"/>
  <path class="cls-14" d="M281.79,205.65c1.68,3.01,3.15,4.51,6.55,5.24.22,1.16-.32,3.01,0,3.93-7.85-1.57-.39,7.24-.05,11.32.25,2.97-1.04,4.06-1.26,5.7-2.66.11-3.71-2.15-5.24-3.93.37-5.07-3.03-19.73-2.72-21.47.23-1.26,2.63-.68,2.72-.79Z"/>
  <path class="cls-22" d="M288.34,214.82c.89,2.59,4.91,7.76,6.55,10.48,0,.44,0,.87,0,1.31-4.65-1.19-.85,8.01-1.31,13.1-1.63-.56-3.72-.65-5.24-1.31-.39-.17-.81-1.02-1.31-1.31.38-1.23-.22-3.66,0-5.24s1.51-2.74,1.26-5.7c-.34-4.09-7.8-12.89.05-11.32Z"/>
  <path class="cls-6" d="M293.58,239.71c-.77,8.48-8.72,14.05-15.73,17.03-.27-3.28,3.47-4.48,4.58-6.62.8-1.56.38-3.23.66-3.86,1.99-4.33,4.37-3.94,5.24-7.86,1.52.66,3.62.75,5.24,1.31Z"/>
  <path class="cls-26" d="M288.34,238.4c-.87,3.92-3.25,3.53-5.24,7.86l-5.23-.63c3.19-3.3,7.63-3.54,9.16-8.53.5.29.92,1.14,1.31,1.31Z"/>
  <path class="cls-28" d="M259.5,260.67l3.93,2.62c-4.98.55-2.44.2-7.86-1.31.77-1.85,2.6-1.03,3.93-1.31Z"/>
  <path class="cls-26" d="M275.89,247.57c.85.44.85.87,0,1.31v-1.31Z"/>
  <path class="cls-21" d="M77.33,70.73c.25-5.26,1.49-22.3,9.17-18.89.04,4.56.75,13.26,6.56,13.65,3.57.24,11.02-2.76,15.73-1.31.3.83,5.93,4.87,7.86,5.24,1.84,4.74-8.81,9.55-10.48,7.86.84-3.31-.19-12.26-5.29-8.57-4.16,3.01,1.27,8.45,1.13,10.31-.28,3.91-7.31,6.37-6.33,11.35-3.38,1.57-6.65-.59-6.55,6.55l-5.25.65c-1.45-8.47,8.94-32.17-6.55-26.85Z"/>
  <path class="cls-15" d="M77.33,78.59c0,.52,2.59,4.39,1.31,6.55-1.5,3.89.04,30.5,1.32,31.43,2.63.42,3.85-1.6,4.93-3.57,3.35-6.13,4.31-9.97,4.23-16.08-.1-7.14,3.18-4.98,6.55-6.55s14.41-11.48,15.72-10.47c.29.22-.29,2.11,0,2.61-12.67,10.46-20.43,24.1-25.28,39.57-.45,1.44-1.91,2.3-2.21,3.04-1.19,2.9,2.47,1.69,3.9,1.93.33.06.87,1,1.31,1.31-.16.1-1.41,1.71-2.62,2.62-.26.2-1.57-.61-2.71.83-1.51,1.9-3.68,8.19-3.84,10.96h-1.31c-.87-4.09-2.56-4.93-2.62-5.24-2.67-13.46-.99-36.07-1.31-51.09-.03-1.25.04-2.56,0-3.93s.03-2.62,0-3.93h2.62Z"/>
  <path class="cls-15" d="M98.3,41.92c.63,2.48,6.55,12.48,9.17,10.48.21-.78-.25-2.19,0-2.62.38-.64,2.4-3.84,2.62-3.93,3.79-1.62,14.25-1.79,17.04,2.62-.1.06.16,1.65-.46,2.12-3.31,2.53-7.97,4.72-7.41,9.67h-1.31c-.8-2.71-2.25-4.88-1.3-8.51-6.46-2.6-9.63,7.6-7.87,12.44-4.71-1.46-12.16,1.55-15.73,1.31,1.08-3.94-3.16-9.21-2.72-12.32.14-.97,3.95-.35,2.71-2.73-.85-1.63-4.25-1.7-3.92-2.62.29-.81,4.3-5.66,5.24-5.9.79-.21,2.95-.11,3.93,0Z"/>
  <path class="cls-9" d="M77.33,70.73c15.48-5.33,5.1,18.38,6.55,26.85l5.25-.65c.08,6.11-.88,9.95-4.23,16.08-1.08,1.97-2.3,3.99-4.93,3.57-1.28-.94-2.83-27.55-1.32-31.43,4.63,1.13,2.04-5.38,2.62-9.18h-3.93c.06-1.73-.08-3.49,0-5.23Z"/>
  <path class="cls-27" d="M106.16,36.68c.97,2.6-.06,6.32,3.93,9.17-.22.09-2.25,3.29-2.62,3.93-4.18-4.07-2.64-7.15-9.17-7.86-.98-.11-3.15-.21-3.93,0v-2.62c.45-.31.81-.95,1.31-1.31,4.16.56,6.09-3.27,9.17-5.24-2.56,2.7,1.1,3.37,1.31,3.93Z"/>
  <path class="cls-21" d="M77.33,75.97h3.93c-.58,3.79,2.01,10.29-2.62,9.17,1.28-2.16-1.32-6.03-1.31-6.55,0-.87-.03-1.75,0-2.62Z"/>
  <path class="cls-28" d="M281.79,265.91c-2.28.2-15.11.47-15.74,0-.22-.16.13-1.88.01-2.62,2.56-.2,4.96-.94,7.19-1.05,3.11-.16,5.76,1.77,10.22.79s10.82-8.43,12.15-12.76c3.14-10.27-.76-14.78-.72-23.65,0-.44,0-.87,0-1.31,2.47,4.1,4.34,8.94,4.53,14.22.28,7.89-.46,14.46-5.98,20.35-3.57,3.81-6.63,5.58-11.66,6.03Z"/>
  <path class="cls-26" d="M86.5,145.4c-.3,2.61.56,5.82-.03,8.26-.26,1.08-2.37.36-2.7,2.78-.21,1.58-1.39,11.25,2.72,9.92.11,2.15,1.58,10.8,2.64,11.79,2.86,2.66,2.46-2.36,2.6-3.93,1.31.05,2.63-.07,3.93,0,.62,3.79-1.48,7.29-1.27,11.02.04.8,3.91,7.88,4.24,8.2.63.6,10.81,5.65,12.09,5.77,5.75.52,7.62-2.42,12.46-4.03-.09,1.76-1.32,3.79-1.35,5.91-.04,2.81-.14,14.86,5.29,12.42v1.31c-.11.08.5,2.28-.85,2.64-2.29.6-5.78-.39-8.33-.02-1.23-5.32-4.13-4.74-6.55-6.55-.5-.37-.92-1.09-1.31-1.31l-1.32-9.18h-2.61s0,6.56,0,6.56c-1.24-.13-2.41,1.3-2.62,1.31-1.81.05-2.83-.2-5.24,0-.06-.38-.05-.92,0-1.31.05-.43-.07-.89,0-1.31.01-.09,1.11-.18,1.31-1.31.64-3.66-1.22-3.22-3.93-1.31-3.92-7.52-4.73-5.45-8.5-9.16-2.13-2.09-.66-6.82-5.92-5.25.32-9.67-2.22-19.09-1.31-28.82.23-2.41,3.03-13.08,4.13-14.25.57-.61,1.8.01,2.42-.16Z"/>
  <path class="cls-23" d="M49.8,154.57c5.99,1.73,4.67-7.83,5.28-11.13.4-2.14-.85-2.26,2.57-1.96l1.24,12.18,10.56,10.08c.08,2.6.06,5.26,0,7.86,0,.21-1.53,1.5-1.31,3.93l-1.96,2.61c-3.2-1.33-4.4-8.09-8.53-7.85-.63-1.35-1.94-2.56-2.62-3.93-1.64-3.32-1.83-7.81-5.24-11.79Z"/>
  <path class="cls-28" d="M78.64,161.12c-.31,7.44,1.01,15.09-1.32,22.26-3.22.7-3.76-2.59-5.23-3.92,0-2.62,0-5.24,0-7.86,0-2.86-.95-7.39,1.31-9.17.27,1.61-.2,3.56.01,5.23h1.28c.18-1.25-.22-2.78.01-3.92,2.43.52,2.76-1.1,3.93-2.62Z"/>
  <path class="cls-16" d="M83.88,138.85c1.01,1.63,1.76,3.08,3.93,2.62-.25,1.1.17,2.7,0,3.93-.42.08-.91-.11-1.31,0-.62.17-1.85-.45-2.42.16-1.1,1.17-3.9,11.84-4.13,14.25-.45.41-.93.82-1.31,1.31-1.17,1.52-1.5,3.14-3.93,2.62.75-3.62,1.78-6.57,1.31-10.48,5.89-.22,3.29-5.15,2.62-9.17-.07-.42.09-.89,0-1.31h1.31v2.62c3.14-.71,2.93-4.54,3.93-6.55Z"/>
  <path class="cls-28" d="M55.05,166.36c.68,1.37,1.99,2.58,2.62,3.93.93,1.99,2.13,7.01,2.62,7.86-2.09.97-4.29-1.17-5.24-1.31l1.28-.75c.78-2.95-2.07-3.99-3.17-5.94-.82-1.46-.47-3.31-.73-3.79h2.62Z"/>
  <path class="cls-12" d="M72.08,171.6c0,2.62,0,5.24,0,7.86-.25-.22-3.6-.29-3.93-3.93-.22-2.43,1.31-3.72,1.31-3.93h2.62Z"/>
  <path class="cls-19" d="M74.71,82.52c.04,1.36-.03,2.68,0,3.93-2.65,7.97-.99,17.72-1.31,26.2h-3.93c.17-4.77-.28-9.65,0-14.41.13-2.15-.23-4.45,0-6.55.03-.24,1.69-1.22,1.95-2.44.36-1.66-.76-3.38-.64-4.11.16-.95,2.49-3.47,3.93-2.62Z"/>
  <path class="cls-28" d="M68.15,79.9c-.07.86.04,1.75,0,2.62-.09,1.92-4.12,7.11,1.31,9.17-.23,2.1.13,4.4,0,6.55-2.62,3.25.66,6.38-5.24,5.24.04-5.23,0-10.49,0-15.72v-6.55c.81-.22,2.16-1.99,3.93-1.31Z"/>
  <path class="cls-8" d="M70.77,85.14c-.12.73,1,2.44.64,4.11-.26,1.23-1.92,2.2-1.95,2.44-5.43-2.06-1.4-7.25-1.31-9.17l2.62,2.62Z"/>
  <path class="cls-16" d="M271.3,153.26c.87,5.57,4.54,4.36,5.24,5.24,3.45,4.32,7.27,12.15,10.49,17.03h-1.31l-6.55-2.62c3.79-5.34-5.03-8.67-6.55-10.48-.94-1.11-2.42-6.21-3.93-7.86v-1.31c.87,0,1.75,0,2.62,0Z"/>
  <path class="cls-3" d="M247.71,100.86c5.77,4.03,12.33,8.09,18.35,11.79,1.72,1.05,4.31.85,3.96,3.92l1.29-1.3c.89,2.3,4.79,8.77,6.55,10.48.83,5.55-.52,10.68-1.31,15.72-1.3.09-2.65-.13-3.93,0-1.09-2.85-1.63-6.28-3.9-8.6-1.61-1.64-3.53-1.51-3.97-1.88-2.59-2.2-3.1-3.53-6.55-5.24l1.31-3.93c1.2.33,4.76,1.73,5.23,1.3.52-.47-2.4-5.09-3.08-6.05-.56-.78-2.1-.4-2.15-.5-.28-.52.62-2.7-.23-3.61-.24-.25-5.98-2.87-6.32-2.94-.75-4.45-2.28-3.1-3.93-3.93-1.89-.96-4.51-1.83-6.55-2.62v-1.31c1.73-.49,3.48-.96,5.24-1.31Z"/>
  <path class="cls-29" d="M247.71,90.38c-1.88,4.79-4.91.82-8.51,1.29-3.47,5.47,5.14,4.09,8.27,6.83.67.59.09,2.25.24,2.35-1.77.35-3.51.82-5.24,1.31-.95.27-2.63-.64-2.63.65,0,1.33,1.9.37,2.63.65,2.04.79,4.66,1.66,6.55,2.62-1.67,4.11-7.85,2.52-11.8,2.62l1.31-3.92c-1.69-1.21-12.27,1.85-14.42-1.32,3.92-.33,4.38,1.32,3.93-3.93.44-.01.87.01,1.31,0,1.32-.04,12.09,3.4,10.49-.64-.64-1.62-8.63-1.86-10.49-1.98-2.58-.16-5.27-.04-7.86,0,.36-2.73,4.47-2.12,5.05-2.83.78-.95-.41-3.76.4-4.8.46-.6,7.54-2.43,9.15-3.03,1.34-.5,2.06-2.36,2.44-2.44,3.29-.68,7.25,4.88,9.17,6.55Z"/>
  <path class="cls-18" d="M237.22,78.59l1.31,5.24c-.38.08-1.1,1.94-2.44,2.44-1.6.6-8.68,2.43-9.15,3.03-.81,1.04.38,3.85-.4,4.8-.58.71-4.7.09-5.05,2.83-6.24.1-12.16,1-18.35,1.3-.53-.34,1.23-1.91,1.31-2.61,3.51-.35,13.57-.8,14.12-4.76.17-1.21-.94-2.54-1.01-3.64-.05-.82,4.94-.52,1.31-4.7.2,0,1.07-1.15,2.09-1.2,1.44-.07,11.67.67,8.39-2.71-.93-.96-7.36-1.09-9.41-1.74-1.74-.55-8.56-2.09-7.62-4.83,7.27.56,17.71,4.03,24.9,6.55Z"/>
  <path class="cls-6" d="M266.06,112.65c-6.02-3.7-12.58-7.76-18.35-11.79-.14-.1.43-1.76-.24-2.35-3.13-2.75-11.74-1.36-8.27-6.83,3.59-.47,6.63,3.5,8.51-1.29,6.27,5.44,17.74,13.92,18.35,22.27Z"/>
  <path class="cls-2" d="M247.71,82.52c1.95.6,3.54,4.13,6.55,1.31.29,1.59,1.55,2.81,1.31,5.24-.07.67-.59,1.28-1.31,1.31-1.51-1.43-7.82-5.73-10.49-7.86,1.19.2,2.95-.3,3.93,0Z"/>
  <path class="cls-24" d="M267.37,268.53c.43.02.88,0,1.31,0l-.66,1.28-.66-1.28Z"/>
  <path class="cls-26" d="M134.99,186l1.33-2.61h1.28c-1.59,6.21,2.39,4.94,2.63,5.23,2,2.32.92,11.11,1.31,14.41.05.43-.06.88,0,1.31-4.08-.95-2.92,3.64-2.3,5.56,1.12,3.45,4.57,5.74,6.23,8.83-2.4-.56-3.47.49-5.24,1.32-.35.16-.92-.15-1.31,0-1.01-7.25-9.47-8.75-10.49-15.72-.55-3.8-.09-9.74-.05-13.86.02-1.68,1.36-3,1.36-3.17h1.31c-.44,5.68-.84,15.57,3.92,19.65-.17-5.69-1.64-10.67-1.39-16.53.11-2.49,1.29-3.68,1.41-4.43Z"/>
  <path class="cls-22" d="M128.44,204.34c1.01,6.97,9.47,8.47,10.49,15.72-.42.17-.86,1.14-1.31,1.31-1.22-1.13-4.93.06-5.09-.13-.28-.36-2.06-8.92-5.4-6.42v-1.31c.11-3.14-.96-6.09-1.31-9.17h2.62Z"/>
  <path class="cls-25" d="M141.55,204.34c.73,4.82,2.85,4.6,3.93,6.55.27.48.15,1.94,1.31,3.93.6,1.02,4.1,1.2,2.57,4.52-.81,1.76-3.89,1.86-5.2,3.34-1.41-.77-3-1.11-3.93-2.62,1.78-.83,2.84-1.88,5.24-1.32-1.66-3.09-5.1-5.39-6.23-8.83-.63-1.92-1.78-6.51,2.3-5.56Z"/>
  <path class="cls-16" d="M150.72,214.82c.41.33,4.91,8.12,5.24,9.17.19.59-.03,1.79,0,2.62-5.01-.68-7.64-1.67-11.8-3.93,1.3-1.48,4.39-1.58,5.2-3.34,1.52-3.32-1.97-3.49-2.57-4.52l.64-1.27c.7,1.05,2.92.97,3.29,1.27Z"/>
  <path class="cls-5" d="M129.75,221.37c-2.15-.2-4.39.14-6.55,0,.86-2.07,5.69-2.07,6.55,0Z"/>
  <path class="cls-3" d="M269.99,187.31c1.44.03,6.11-.29,6.55,0,.1.06-.37,1.76.29,2.26.43.33,4.2.85,6.26,1.67l10.49,14.41c-.21,1.23-1.3,2.47-1.31,2.62-1.39-.21-2.73-.58-3.93-1.31-.09-6.57-4.89-11.06-11.16-11.81-2.37-.29-5.37-1.05-4.57,2.65-.75-.16-1.77.08-2.62,0-3.18-.31-3.64-4.5-5.24,1.31-.09.33-1.04.81-1.31,1.31-.35-.11-.85.05-1.31,0-1.43-.17-7.23.63-7.86,1.31l5.24-7.85c-7.6-.61-10.36,3.76-17.03,5.23l13.11-9.17c.87.01,1.75-.02,2.62,0,5.85.15,3.43-2.3,3.93-2.62.43-.27,6.33-.03,7.86,0Z"/>
  <path class="cls-6" d="M279.16,172.91l6.55,2.62c-.77,3.01,2.7,1.95,2.77,4.54s-1.03,4.83-1.48,7.24c-3.33,1.11-2.17-2.09-3.51-2.62-1-.39-2.27.19-3.02,0-1.17-.29-2.36-1.37-3.93-1.31h-5.24c-3.21-6.51,2.09-3.3,6.55-3.94-3.39-7.98.96-6.04,1.32-6.54Z"/>
  <path class="cls-2" d="M283.1,191.24c3.69,1.46,10.98,2.14,11.8,7.86.43,3.02-.95,4.47-1.31,6.55l-10.49-14.41Z"/>
  <path class="cls-11" d="M280.47,184.69c-.57,1.88-2.02,2.6-3.93,2.62-.44-.29-5.11.03-6.55,0-1.87-2.23,4.85-3.87,6.55-3.93,1.57-.06,2.76,1.02,3.93,1.31Z"/>
  <path class="cls-18" d="M35.39,134.92c2.82,2.25,3.06,14.46,4.09,15.6.6.67,2.9-.16,3.78.12.44.14.89,1.17,1.31,1.31,1.09,3.78,3.5,10.16,5.29,13.44.78,1.43,2.51.85,2.57.97.26.48-.09,2.33.73,3.79,1.1,1.96,3.95,3,3.17,5.94l-1.28.75c-2.75-.41-6.24.2-9.17,0,.83-3.64-4.17-3.36-7.27-5.2-2.19-1.3-3.26-3.09-4.53-3.97,1.33-3.92,8.72,3.87,9.18.65.82-5.79-5.3-3.6-8.01-6.46-.97-1.03-.75-2.47-1.17-3.36,3.96.65,2.68-1.7,2.29-4.23-.79-5.14-6-14.92-4.98-18.68.4-1.46,3.58-.32,4-.66Z"/>
  <path class="cls-26" d="M23.59,133.61c.14-.23,5.02-1.54,5.24-1.3-.24,8.31,1.66,18.63,5.25,26.19.42.89.2,2.33,1.17,3.36,2.71,2.86,8.83.67,8.01,6.46-.46,3.22-7.85-4.57-9.18-.65-2.53-1.76-6.4-5.67-7.86-6.55,1.58-.95,1.15-2.47,1.31-3.93.01-.14,1.22-.59,1.04-1.68-.34-1.98-3.81-4.11-3.72-6.82.01-.34,4.37-1.1,2.69-4.59l-11.8-2.63c-.07-.43.07-.88,0-1.31,1.54-2.54,6.8-2.11,7.68-2.88.82-.71-.1-3.19.19-3.67Z"/>
  <path class="cls-29" d="M27.52,157.19c-.16,1.46.27,2.98-1.31,3.93-1.12-.68-3.81-.69-5.24-1.31-2.45-3.7-3.08-7.55-3.93-11.79,5.26.39,5.66,7.21,10.49,9.17Z"/>
  <path class="cls-23" d="M31.46,119.2c.03,1.64,2.71,7.16,1.31,10.48-3.66-.29-5.95-.31-9.16-2.62v6.55c-.3.48.62,2.96-.2,3.67-.88.77-6.14.33-7.68,2.88-.26-1.62.82-4.3-1.31-5.24.37-2.68.66-3.06,1.31-5.24,5.74-5.31,6.22-10.94,15.73-10.48Z"/>
  <path class="cls-18" d="M15.73,141.47l11.8,2.63c1.68,3.49-2.68,4.25-2.69,4.59-.09,2.71,3.38,4.85,3.72,6.82.19,1.09-1.02,1.54-1.04,1.68-4.82-1.95-5.22-8.78-10.49-9.17-.23-1.16.2-2.71,0-3.93-.13-.79-1.18-1.84-1.31-2.62Z"/>
  <path class="cls-11" d="M15.73,140.16c.07.43-.07.88,0,1.31.13.78,1.18,1.83,1.31,2.62-4.3.77-1.98-1.7-2.62-3.93l-1.31-1.31c-.05-2.5,1.23-3.36,1.31-3.93,2.13.93,1.05,3.62,1.31,5.24Z"/>
  <path class="cls-15" d="M31.46,116.58c-.01.87-.02,1.75,0,2.62-9.51-.46-9.99,5.16-15.73,10.48.22-.74-.24-1.98,0-2.62,2.03-5.37,4.67-6.73,7.86-10.48,2.67-1.09,5.18-1.09,7.86,0Z"/>
  <path class="cls-16" d="M14.42,140.16c-.03-.09-1.29-.16-1.31-1.31l1.31,1.31Z"/>
  <path class="cls-18" d="M95.68,203.03c2.71-1.91,4.57-2.35,3.93,1.31l-1.31,1.31c-.07.42.05.88,0,1.31-2.5-.51-1.97-2.67-2.62-3.93Z"/>
  <path class="cls-15" d="M53.74,91.69c2.83,3.76,4.25,13.92,10.49,13.1-.06,2.61.11,5.25,0,7.86l-10.49,2.62c-.05-.23-1.01-.74-1.31-1.31,5.29-2.61,1.41-8.97,1.3-13.1l-5.23,2.62h-1.31c.71-1.12-.5-9.41,0-11.79.43.05.88-.03,1.31,0,1.73.14,3.51-.09,5.24,0Z"/>
  <path class="cls-19" d="M47.18,91.69c-.5,2.38.71,10.67,0,11.79-.2.31-3.44.32-3.93,5.24-.24-.13-.84.04-1.31,0l-3.26-7.85-3.3,9.16c-.47-2.07,1.25-3.11-2.62-2.62.25-1.32.92-3.8,1.31-5.24,2.47-9.07,6.35-8.12,7.86-11.79,1.48,0,3.57,1.1,5.24,1.31Z"/>
  <path class="cls-27" d="M64.22,87.76c0,5.23.04,10.49,0,15.72,0,.44,0,.87,0,1.31-6.23.82-7.66-9.34-10.49-13.1v-1.31c.81.05,1.84.1,2.62,0,2.7-.36,4.17-1.42,5.24-3.93l2.62,1.31Z"/>
  <path class="cls-19" d="M61.6,85.14v1.31c-1.07,2.51-2.54,3.57-5.24,3.93.13-4.23,2.52-4.01,5.24-5.24Z"/>
  <path class="cls-19" d="M53.74,90.38v1.31c-1.74-.09-3.51.14-5.24,0-.7-5.54,3.68-1.42,5.24-1.31Z"/>
  <path class="cls-15" d="M64.22,83.83v3.93l-2.62-1.31v-1.31c.74-.33,1.49-1.35,2.62-1.31Z"/>
  <path class="cls-2" d="M272.61,141.47c1.29-.13,2.64.09,3.93,0-.45,2.85,1.48,7.41-1.95,6.56-1.01-.25-1.37-4.97-1.98-6.56-.43.04-.87-.07-1.3,0,.88,2.68-.15,7.69-.01,9.17-1.21-.76-2.54-1.08-3.93-1.31,2.87-7.85-.86-9.92-2.62-15.72-.21-.68.14-1.8,0-2.62.43.37,2.36.23,3.97,1.88,2.27,2.32,2.8,5.75,3.9,8.6Z"/>
  <path class="cls-28" d="M264.75,149.33c.83.13,1.79-.14,2.62,0,1.39.23,2.72.55,3.93,1.31.08.85-.13,1.8,0,2.62-.87,0-1.75,0-2.62,0-5.24.02-14.49-.07-15.73-5.24,4.23-.75,7.9.71,11.8,1.31Z"/>
  <path class="cls-9" d="M226.74,229.23c4.04-1.63,7.28-5.57,9.75-9.32.78-1.19.6-3.61.77-3.76.77-.71,4.15,1.28,5.7.99,1.17-.22,3.84-3.29,6.01-4.33,13.05-6.24,15.99-6.66,9.23,8.56,1.44,1.43,10.57-4.65,12.47-5.21,4.76-1.42-.58,6.19-.68,7.23-.2,2.25,2.04,5.43,1.16,6.96-.57.99-16.55,6.1-10.33,11.99-.79,1.38-5.02,2.36-5.24,2.62-9.69-5.63-23.08,9.98-15.74-9.17-6.77,2.92-4.59-.63-5.34-1.17-3.23-2.32-7.5,10.27-7.75,12.96-1.31-.33-5.1-1.07-6.55-1.31l-1.31-3.93c1.73-3.23.29-3.04,3.93-6.55.17-.16,1.76.55,2.73-.83,1.16-1.65.65-4.45,1.2-5.72ZM256.23,221.37v1.31c.85-.44.85-.87,0-1.31Z"/>
  <path class="cls-5" d="M233.29,197.79c-7.08,4.31-9.84,5.58-15.73,11.79-6.52,6.88-12.87,14.86-13.11,24.89-.18,7.61,1.51,9.25,9.17,10.48-1.06.43-1.92,2.7-4.58,2.59-2.07-.09-3.51-2.4-4.59-2.59-2.24-3-4.02-6.63-3.93-10.48.06-2.74,5.02-17.64,6.55-19.65.57-.75,12.15-12.36,13.11-13.1.52-.4,6.15-3.77,6.55-3.93s6.09-1.2,6.55,0Z"/>
  <path class="cls-29" d="M220.19,223.99c5.81-.58.54,3.52.23,6.16-.13,1.13,1.05,1.55,1.08,1.7.25,1.38.65,2.7,1.31,3.93-3.64,3.51-2.2,3.32-3.93,6.55-2.06,3.85-3.41,1.88-5.24,2.62-2.99-3.98-3.11-4.72-2.62-9.17,5.84,1.15,3.09-2.24,4.95-6.17,1.08-2.3,3.18-3.85,4.23-5.62Z"/>
  <path class="cls-29" d="M199.22,235.78c-.5,3.86.41,5.42-3.93,7.86-1.17-.22-2.67.15-3.93,0-1.66-1.64-2.4-4.17-5.24-5.24l-1.31-3.93c3.85.82,10.19.61,14.42,1.31Z"/>
  <path class="cls-6" d="M204.46,244.95c-2.23-.4-5.85-.69-9.17-1.31,4.34-2.44,3.43-4,3.93-7.86.08-.6.68-1.18,1.31-1.31-.08,3.85,1.69,7.48,3.93,10.48Z"/>
  <path class="cls-16" d="M32.77,107.41c3.88-.49,2.15.55,2.62,2.62,1.3,5.74.82,11.26,1.31,17.03-2.79-.31-2.94-.16-2.62,2.62-.43,0-.88.03-1.31,0,1.39-3.32-1.28-8.84-1.31-10.48-.02-.87-.01-1.75,0-2.62.02-.95,1.04-5.89,1.31-7.86.06-.43-.08-.89,0-1.31Z"/>
  <path class="cls-19" d="M32.77,108.72c-.27,1.97-1.3,6.91-1.31,7.86-2.68-1.09-5.19-1.09-7.86,0,2.16-2.54,3.07-8.83,9.17-7.86Z"/>
  <path class="cls-9" d="M233.29,180.76c.45,4.2-4.33,2.94-7.14,5.32-3.25,2.74-9.78,10.8-12.52,14.33-.27.34-.36,2.02-1.25,3.28-6.72,9.46-13.11,4.86-19.16,8.42-2.89,1.7-7.47,12.36-9.74,15.81-2.03.31-5.68.16-7.86,0-.62-.04-3.14-3.87-2.62,1.31h-1.31c-.98-.61-3.64,1.4-2.62-3.93,7.1-.26,5.98-4.95,9.79-9.2,9.26-10.33,19.71-16.42,29.52-27.47.11-.12,1.36.17,2.17-.47.7-.55.35-2.1.45-2.15,1.02-.55,4.94.75,6.38-.17.99-.64.47-4.67,2.35-5.13,3.3-.8,9.54.49,13.55.06Z"/>
  <path class="cls-27" d="M182.18,187.31c-1.43,8.36-10.19,12.29-5.24,22.27-3.02,3.37-9.41,11.54-10.49,15.72-.24.93,0,2.75,0,3.93l-9.17-5.24v-1.77c4.9-1.73,1.31-3.08,1.31-4.78.02-5.52.17-9.96,3.93-14.41.45-.06.94.11,1.31,0l.66,1.28.66-1.28c.95-1.22-.02-5.81,3.92-5.26l-2.58-3.89c4.54-4,11.17-5.12,15.7-7.88v1.31Z"/>
  <path class="cls-15" d="M208.39,188.62c-9.82,11.05-20.26,17.14-29.52,27.47-3.81,4.25-2.69,8.94-9.79,9.2-.87.03-1.75-.02-2.62,0,1.07-4.17,7.47-12.35,10.49-15.72,6.97-7.79,19.79-17.65,28.83-24.24,2.28-1.67.96,2.67,2.62,3.28Z"/>
  <path class="cls-18" d="M207.08,214.82c-1.54,2.01-6.49,16.91-6.55,19.65-.63.13-1.23.71-1.31,1.31-4.22-.7-10.56-.49-14.42-1.31-3.65-.78-10.08-3.34-13.11-5.24h1.31l2.62-1.31c2.18.16,5.84.31,7.86,0,2.48-.38,14.87-6.24,16.2-7.72,2.71-3.02-2.55-6.82,7.39-5.38Z"/>
  <path class="cls-28" d="M272.61,197.79c3.71.79,8.58-.52,9.17,5.24,3.19,1.29,4.02,2.4,6.55,3.93,1.21.73,2.55,1.1,3.93,1.31-.03.39-.07.94,0,1.31-.15.81-3.73,1.35-3.93,1.31-3.41-.73-4.88-2.23-6.55-5.24.11-.14.08-1.89,0-2.62-3.52-1.42-8.15-3.29-11.8-3.93v-1.31c.86.08,1.87-.16,2.62,0Z"/>
  <path class="cls-4" d="M226.74,247.57c.26-2.68,4.52-15.28,7.75-12.96.75.54-1.42,4.09,5.34,1.17-7.34,19.15,6.05,3.54,15.74,9.17-1.26,1.51-.07,7.56-4.61,7.97-3.7.33-4.42-3-6.8-3.76-2.26-.72-11.12-2-13.49-.27-1.39-.51-2.46-.94-3.93-1.31Z"/>
  <path class="cls-18" d="M106.16,206.96c.86.09,2.81,2,3.93,2.62.4.22.81.94,1.31,1.31.12.84-.17,1.87,0,2.62-3.75.47-6.2-2.22-7.86-5.24.21,0,1.38-1.44,2.62-1.31Z"/>
  <path class="cls-15" d="M158.59,203.03c-2.2,3.9-6.61,14.39,0,14.41,0,1.71,3.59,3.05-1.3,4.78v1.77h-1.32c-.33-1.05-4.83-8.83-5.24-9.17,1.89-5.16,1.9-10.29,7.86-11.79Z"/>
  <path class="cls-5" d="M163.83,51.09c-2.12.6-6.96,1.5-8.38,2.52s-.65,2.6-.79,2.72c-4.15,1.12-8.87,1.6-13.11,3.93-3.78.02-9.2-1.35-9.17,3.93-.87-.04-1.75.03-2.62,0-.14,0-.71-.99-1.69-.93-7.48.48-7.43,6.03-10.1-3h1.31c13.26-4.77,24.56-7.92,32.81-19.29,1.15-1.59,2.3-6.68,2.59-6.9,4.41-3.29,5.25,8.87,5.51,9.53.99,2.51,4.5,3.79,3.64,7.5Z"/>
  <path class="cls-15" d="M183.49,47.16l1.31,2.62c-.68.07-1.77,1.07-2.62,1.31-3.73,1.05-4.83,2.72-7.86,2.62-2.62-.09-2.6-.5-6.55,0-.84.11-1.79-.12-2.62,0-3.82.56-6.85,1.64-10.49,2.62.15-.12-.56-1.76.79-2.72,1.42-1.02,6.26-1.92,8.38-2.52,6.15-1.73,13.34-3.27,19.66-3.93Z"/>
  <path class="cls-15" d="M140.24,37.99h1.31c-3.68,4.16-1.3,3.78-7.86,7.86.1-5.49.2-9.19,6.55-7.86Z"/>
  <path class="cls-29" d="M221.5,52.4c.33.2,2.19,5.61,3.93,6.55-.96,1.22,2.47,4.1-5.23,1.31-.14,2.79,2.19,3.56,2.61,6.54-5.2.83-14.38-5.13-17.04,0-1.7-.24-4.78-.18-6.55,0,.71-1.69-1.56-7.55-1.31-7.86.33-.4,3.81,1.61,2.62-3.93,3.35-.54,4.97-1.54,9.17-1.31.5.03,2.93,2.36,5.24,1.3v-1.28s-2.62-1.33-2.62-1.33c2.08.23,8.41-.47,9.17,0Z"/>
  <path class="cls-22" d="M203.15,51.09c2.4.21,4.46,1.06,6.55,1.31v1.31c-4.21-.23-5.82.77-9.17,1.31-1.6.26-3.82-.35-5.24,0-.42-.42-.81-1.01-1.31-1.31-4.88-2.86-7.1-.71-11.8,0v-2.62c.85-.24,1.95-1.24,2.62-1.31,6.44-.65,12.13.76,18.35,1.31Z"/>
  <path class="cls-28" d="M212.32,52.4l2.61,1.33v1.28c-2.3,1.07-4.73-1.27-5.23-1.3v-1.31c.85.1,1.77-.09,2.62,0Z"/>
  <path class="cls-26" d="M197.91,58.95c-.25.31,2.02,6.17,1.31,7.86-.79.08-2.41-.19-2.62,0-3.3.16-6.06-1.31-5.24,2.62-.43-.05-.88.01-1.31,0-.17,0-1.27-1.39-3.16-1.39-3.22,0-8.96,1.04-7.31,4.66l1.3.66c-1.32.86,3.01,1.59-5.24,2.62.77-3.79-2.11-2.74-4.58-2.67-6.42.16-10.5,3.13-16.39,5.29-2.22.82-7.69.8-10.12,2.99-1.44,1.3-1,3.8-1.68,4.87-7.97-1.01-10.78,9.38-18.35,9.17,2.26-3.94,8.07-10.2,11.8-13.1,8.57-6.66,15.44-6.2,24.52-10.21,3.26-1.44,6.26-4.79,10.64-6.39,7.62-2.79,18.4-4.77,26.44-6.98Z"/>
  <path class="cls-1" d="M212.32,72.04c-.94,2.74,5.87,4.28,7.62,4.83,2.06.65,8.49.78,9.41,1.74,3.28,3.38-6.94,2.64-8.39,2.71-1.02.05-1.89,1.19-2.09,1.2-.86.02-6.31-2.09-9.17-2.62-6.26-1.16-9.29-.52-15.73,0,.78-3.74-2.15-2.84-4.58-2.67-15.34,1.08-30.18,9.66-42.6,10.53-.61-2.75,8.88-6.76,11.8-7.86,5.46-2.06,11.22-3.21,17.04-3.93,8.25-1.03,3.93-1.76,5.24-2.62.29-.19.95.18,1.31,0,4.36-2.2,24.17-1.77,30.14-1.31Z"/>
  <path class="cls-16" d="M222.81,66.8c.12.84-.08,1.77,0,2.62-4.52-.87-12.2-1.93-17.04-2.62,2.66-5.13,11.84.83,17.04,0Z"/>
  <path class="cls-29" d="M190.04,69.42c-3.25,2.51-8.98-.68-7.86,3.93-.36.18-1.02-.19-1.31,0l-1.3-.66c-1.65-3.61,4.09-4.65,7.31-4.66,1.89,0,2.99,1.38,3.16,1.39Z"/>
  <path class="cls-29" d="M196.59,66.8c-.65.58,1.81,3.39-5.24,2.62-.82-3.93,1.94-2.46,5.24-2.62Z"/>
  <path class="cls-22" d="M242.47,199.1c6.67-1.47,9.43-5.84,17.03-5.23l-5.24,7.85c-.2.21.5,1.77-.19,2.4-1.02.94-5.76-.14-5.05,4.14-6.19,2.39-5.87,1.03-11.8,6.55-4.09.41-4.52.26-3.93-3.93,2.59-1.57,6.04-1.03,5.23-6.55-2.72,1.33-4.8,3.5-5.23,6.55-3.69,2.23-6.59,4.95-10.49,6.55v-1.31c6.4-7.76,9.54-14.79,19.66-17.03Z"/>
  <path class="cls-14" d="M233.29,210.89c-.58,4.19-.16,4.33,3.93,3.93-4.32,4.02-8.13,8.98-10.49,14.41-1.44.58-4.1-.96-5.24,2.62-.03-.16-1.21-.57-1.08-1.7.31-2.64,5.58-6.74-.23-6.16,1.25-2.13,3.08-3.62,2.62-6.55,3.9-1.6,6.8-4.32,10.49-6.55.42-3.05,2.51-5.21,5.23-6.55.82,5.52-2.64,4.98-5.23,6.55Z"/>
  <path class="cls-26" d="M262.13,200.41c1.14,5.76-2.22,3.3-6.31,4.8-2.26.83-4.32,2.1-6.79,3.06-.71-4.29,4.03-3.21,5.05-4.14.69-.63-.01-2.19.19-2.4.63-.68,6.43-1.48,7.86-1.31Z"/>
  <path class="cls-2" d="M269.99,197.79v1.31c-1.57-.28-3.57.19-5.24,0,1.61-5.81,2.06-1.62,5.24-1.31Z"/>
  <path class="cls-23" d="M95.68,90.38c-.98-4.98,6.05-7.44,6.33-11.35.13-1.86-5.3-7.3-1.13-10.31,5.1-3.69,6.13,5.25,5.29,8.57,1.67,1.69,12.32-3.13,10.48-7.86,1.91.37,4.5-.25,6.55,0-1.36,1.4-2.63,3.66-3.93,5.24-1.5,1.82-1.68,3.94-2.62,5.24-.59.81-1.81,2.11-2.62,2.62-.06.03-1.26.04-1.31,0-.31-.2-1.18.21-1.31,0-.3-.5.28-2.39,0-2.61-1.31-1.01-12.29,8.88-15.72,10.47Z"/>
  <path class="cls-8" d="M108.78,64.18c-1.76-4.84,1.42-15.04,7.87-12.44-.95,3.63.5,5.8,1.3,8.51,2.67,9.03,2.62,3.48,10.1,3,.99-.06,1.56.92,1.69.93-1.66,2.13-4.83,3.46-6.55,5.24-2.05-.25-4.65.37-6.55,0s-7.56-4.41-7.86-5.24Z"/>
  <path class="cls-1" d="M193.97,53.71c-6.92.85-13.18,4.24-19.66,6.55-5.49,1.95-11.42,3.69-17.05,5.27l1.33,1.28-.67,1.3c-.65-.04-1.32.09-1.95.01-.34-.04-1.36-1.76-2.61-1.3-.18.79.24,2.16-.01,2.61-.12.21-.98-.19-1.31,0-.31.17-2.48,1.27-2.62,1.31-.4.13-.92-.13-1.31,0-11.37,3.92-17.07,8.18-26.21,15.72s-14.53,11.88-18.35,23.58c1.38-1.33,4.32-3.86,5.24-5.24l1.33,3.92h1.29c-.04-2.56,2.68-5.92,3.93-2.61-1.69,1.5-3.79,2.43-3.93,2.62-.25.33-2.44,6.93-2.62,7.86h-1.31c.08-2.69-4.25,2.64-5.24,3.93-1.61-1.13.56-8.19,1.31-10.48-.16.16-1.62-.56-2.72.82-.38.47-5.12,10.36-5.15,10.97-.07,1.34.48,1.07,1.31,1.31,1.02.29,2.73-.2,3.93,0-2.81,3.95-6.51,7.64-7.84,12.39l1.28.71c-.41.47-5.03,8.56-5.24,9.17h-1.31c.17-1.23-.25-2.83,0-3.93,1.01-4.38,3.21-9.66,5.21-13.77-.66-.52-3.45.4-3.9.67-.44-.31-.98-1.25-1.31-1.31.94-2.52,2.21-4.47,3.93-6.55,4.33-5.25,5.94-12.39,6.55-13.1.14-.16,1.83.7,2.72-.82,1.33-2.28,2.46-5.65,2.52-8.35,4.25-5.49,6.63-8.39,11.8-13.1.87-.8,2.17-2.28,2.62-2.62.5-.38.87-1,1.31-1.31,1.91-1.32,4.45-2.57,6.55-3.93,6.79-4.39,17.17-7.39,22.28-14.41,9.32-2.14,16.52-5.78,26.21-7.86,2.03-.43,5.62-.97,7.86-1.31,4.69-.71,6.92-2.86,11.8,0Z"/>
  <path class="cls-19" d="M119.27,81.21c-.44.31-.81.93-1.31,1.31-2.79-.31-2.94-.16-2.62,2.62-5.17,4.71-7.55,7.61-11.8,13.1-2.81,3.64-3.96,4.48-6.55,9.17-2.32,4.2-5.43,7.73-5.24,13.1-1.72,2.08-2.99,4.02-3.93,6.55-1.43-.24-5.09.98-3.9-1.93.3-.74,1.77-1.6,2.21-3.04,4.85-15.47,12.61-29.11,25.28-39.57.13.21,1-.2,1.31,0h1.31c.81-.51,2.04-1.81,2.62-2.62l2.62,1.31Z"/>
  <path class="cls-28" d="M76.02,137.54h-3.93c-.08-.86.05-1.75,0-2.62-.11-2.16-.02-4.38,0-6.55.04-5.72,1.11-10.44,1.31-15.72.32-8.48-1.34-18.23,1.31-26.2.32,15.01-1.36,37.63,1.31,51.09Z"/>
  <path class="cls-26" d="M76.02,137.54c.06.31,1.75,1.15,2.62,5.24.09.42-.07.88,0,1.31-4.36-1.07-1.38,3.11-3.93,5.24-.53-3.36-2.3-8.18-2.62-11.79h3.93Z"/>
  <path class="cls-29" d="M87.81,141.47c-2.18.46-2.92-.99-3.93-2.62.82-1.65,4.47-2.69,2.62-7.86,1.21-.91,2.46-2.52,2.62-2.62.45-.27,3.24-1.19,3.9-.67-2,4.11-4.2,9.39-5.21,13.77Z"/>
  <path class="cls-28" d="M86.5,130.99c1.85,5.17-1.8,6.21-2.62,7.86-1,2.01-.79,5.84-3.92,6.55v-2.62c.15-2.77,2.32-9.06,3.83-10.96,1.14-1.44,2.45-.63,2.71-.83Z"/>
  <path class="cls-19" d="M107.47,49.78c-.25.43.2,1.83,0,2.62-2.62,2.01-8.54-8-9.17-10.48,6.53.71,4.99,3.79,9.17,7.86Z"/>
  <path class="cls-29" d="M124.51,172.91c-.54,2.22-.92,8.61-1.31,11.79-6.04,3.16-10.42,4.99-17.59,3.91-4.74,4.16,8.33,6.98,10.23,6.66,1.75-.29.84-7.93,7.36-5.33-.15,1.72.09,3.51,0,5.24-4.84,1.61-6.72,4.55-12.46,4.03-1.28-.12-11.46-5.17-12.09-5.77-.33-.32-4.2-7.4-4.24-8.2-.2-3.73,1.89-7.23,1.27-11.02,4.66.24,7.99,2.7,11.01,2.59,4.57-.16,12.26-4.8,17.82-3.9Z"/>
  <path class="cls-18" d="M138.93,145.4c-.43,2.3.3,5.4,0,7.86-5.32-2.14-18.04,7.88-10.49,11.79-.89,1.71-3.63,6.62-3.93,7.86-5.56-.9-13.25,3.73-17.82,3.9-3.02.11-6.35-2.35-11.01-2.59-1.3-.07-2.62.05-3.93,0,.12-1.23.07-2.68,0-3.93,6.7.34,13.56.46,19.09-3.9,1.72-1.35,1.47-3.48,1.88-3.96.18-.2,2.26.11,3.25-1.35.88-1.31.52-3.69.7-3.9.47-.53,4.68,2.26,7.84.72,1.32-.64,5.38-7.85,6.56-9.88l7.86-2.62Z"/>
  <path class="cls-5" d="M133.68,158.5l-2.23,10.18c-3.95,2.43-3.39,4.95-3.01,9.47-3.49,8.61-3.65,17.22-2.62,26.2.35,3.08,1.42,6.03,1.31,9.17-5.43,2.44-5.33-9.62-5.29-12.42.03-2.12,1.26-4.16,1.35-5.91s-.15-3.52,0-5.24-.21-3.54,0-5.24c.39-3.18.77-9.57,1.31-11.79.3-1.24,3.04-6.15,3.93-7.86,1.83-3.51,3.02-4.07,5.24-6.55Z"/>
  <path class="cls-29" d="M89.12,161.12c2.85,4.41,2.33,3.92,2.62,9.17.07,1.25.12,2.69,0,3.93-.15,1.57.26,6.59-2.6,3.93-1.06-.99-2.53-9.64-2.64-11.79-.09-1.71-.09-3.53,0-5.24h2.62Z"/>
  <path class="cls-18" d="M89.12,145.4c-1.09,3.19-.81,7.33-1.31,10.48-.13.82.09,1.77,0,2.62-.03.31-1.25,1.39-1.31,2.62-.09,1.71-.09,3.53,0,5.24-4.12,1.34-2.94-8.34-2.72-9.92.33-2.42,2.44-1.69,2.7-2.78.59-2.45-.27-5.65.03-8.26.4-.11.89.08,1.31,0h1.31Z"/>
  <path class="cls-29" d="M106.16,206.96v-6.54s2.61-.01,2.61-.01l1.32,9.18c-1.12-.62-3.07-2.53-3.93-2.62Z"/>
  <path class="cls-8" d="M98.3,205.65l1.31-1.31c-.2,1.13-1.3,1.22-1.31,1.31Z"/>
  <path class="cls-12" d="M39.32,112.65c3.98-.77,2.3,1.94,2.8,4.34s2.18,13.32,2.66,13.84c.7.76,3.06-.14,3.72.16,3.64,1.67,1.04,6.29,1.3,6.54.33.32,2.89-.24,3.94,0,.97.23,2.7,1.91,3.78,1.23.81-.52,3.76-8.07,2.78-9.08l-7.87-1.32c-1.09-4.6-4.5-10.66-1.31-14.41.18.2,1.2-.2,1.31,0,.3.57,1.26,1.08,1.31,1.31.33,1.46-.43,3.6.28,5.56,2.39,6.61,8.64,11.45,10.21.99h2.62c.47,5.54,2.47,5.96,2.62,6.55.26,1.04-.14,2.68,0,3.93-3.16,9.99-.32,21.09,0,31.44l-10.56-10.08-1.24-12.18c-3.42-.29-2.17-.18-2.57,1.96-.61,3.29.7,12.86-5.28,11.13-3.2-3.74-2.38-1.64-5.24-2.62-.42-.14-.87-1.17-1.31-1.31.2-2.11-.29-4.49,0-6.55.31-2.21,2.57-5.69,1.31-9.18-1.67.74-2.6.18-3.93,0,2.73-7.5-1.77-14.2-1.31-22.27ZM64.21,150.63c-.43-3.9,2.16-11.69-3.92-11.78-.53.63.89,7.09,1.28,8.59.56,2.18-1.33,3.83,2.64,3.18Z"/>
  <path class="cls-11" d="M69.46,134.92c1.21,9.3,2.4,18.26,3.93,27.51-2.26,1.78-1.3,6.31-1.31,9.17h-2.62c.06-2.6.08-5.26,0-7.86-.32-10.35-3.16-21.44,0-31.44.09.85-.11,1.77,0,2.62Z"/>
  <path class="cls-11" d="M44.56,151.95c2.86.98,2.04-1.12,5.24,2.62,3.41,3.98,3.6,8.47,5.24,11.79h-2.62c-.07-.12-1.79.47-2.57-.97-1.79-3.28-4.2-9.66-5.29-13.44Z"/>
  <path class="cls-15" d="M72.08,134.92c.05.87-.08,1.76,0,2.62.32,3.61,2.09,8.43,2.62,11.79.28,1.77,1.27,3.58,1.31,3.93.47,3.91-.56,6.86-1.31,10.48-.24,1.14.17,2.67-.01,3.92h-1.28c-.21-1.68.25-3.63-.01-5.23-1.53-9.25-2.72-18.21-3.93-27.51h2.62Z"/>
  <path class="cls-5" d="M78.64,144.09c.66,4.01,3.27,8.95-2.62,9.17-.04-.35-1.03-2.16-1.31-3.93,2.56-2.13-.43-6.31,3.93-5.24Z"/>
  <path class="cls-15" d="M66.84,121.82c-.36-4.27.25-8.79.01-13.09l1.31,9.16c2.3.27,1.24-3.7,1.3-5.23h3.93c-.2,5.27-1.27,10-1.31,15.72h-2.62c-.15-.59-2.16-1.01-2.62-6.55Z"/>
  <path class="cls-5" d="M69.46,112.65c-.05,1.54,1,5.5-1.3,5.23l-1.31-9.16c.23,4.3-.37,8.82-.01,13.09h-2.62c.4-2.7-.12-6.25,0-9.17.11-2.61-.06-5.25,0-7.86,0-.44,0-.87,0-1.31,5.9,1.14,2.62-1.99,5.24-5.24-.28,4.76.17,9.64,0,14.41Z"/>
  <path class="cls-18" d="M268.68,154.57c1.51,1.65,3,6.75,3.93,7.86l-5.24,3.28c3.51-.9,1.77,13.14,1.24,13.69-1.18,1.22-6.95-2.41-5.17,3.99-5.31.56-9.27,2.39-14.42,2.62.02-.12-1.27-.95-1.03-1.76.77-2.69,6.17-4.41,4.97-8.72.43,0,.88.04,1.31,0,1.1-.1,3.02.45,3.75-.19.64-.56-.01-1.96.19-2.43.49-1.14,1.81-2.1,1.31-3.93,4.57-.62,7.17-3.06,7.27-7.78.09-4.24-5.41-2.67-4.65-5.96.34-1.49,4.98-.33,6.56-.67Z"/>
  <path class="cls-12" d="M249.02,145.4c.49-.06,1.94-2.18,3.93-1.3-.64,1.83-.38,2.33,0,3.92,1.24,5.17,10.49,5.26,15.73,5.24v1.31c-1.58.34-6.22-.82-6.56.67-.76,3.29,4.74,1.72,4.65,5.96-.1,4.72-2.7,7.16-7.27,7.78-3.42.47-6.12-1.33-6.55-1.31l7.86-1.96c-2.67-2.97-6.49-5.28-10.48-5.9-1.22-.19-2.67.15-3.93,0-1.84-1.78.25-7.54,0-7.85-.21-.27-1.88.21-2.62,0,1.37-2.79,5.52-2.97,5.24-6.55Z"/>
  <path class="cls-14" d="M272.61,162.43c1.52,1.81,10.35,5.14,6.55,10.48-.35.5-4.71-1.44-1.32,6.54-4.46.64-9.76-2.57-6.55,3.94-2.53,0-5.44-.25-7.86,0-1.78-6.4,4-2.77,5.17-3.99.53-.55,2.27-14.59-1.24-13.69l5.24-3.28Z"/>
  <path class="cls-22" d="M249.02,106.1c1.65.83,3.18-.52,3.93,3.93-4.31-.86-13.74-.25-9.17,5.24v1.31c-4.01-.35-8.99-.12-13.11,0-14.46.41-26.85,3.38-39.2,11.25-2.76,1.76-6.52,3.27-6.67,7.09-.21.13-1.63,1.82-2.62,2.62h-2.62c.27-1.39-.63-3.47.29-4.92.69-1.09,8.72-5.53,10.62-6.82,1.2-.82.78-2.59.89-2.67,4.65-3.71,23.56-7.75,30.16-9.87,2.28-.73,3.12-.11,2.59-3.23-12.45,1.15-23.17,6.71-34.07,11.78-5.11,2.38-10.7,4.22-15.73,6.55,11.05-9.88,26.09-13.4,39.32-19.65,1.31-.04,2.62.03,3.93,0,.87-.02,1.75.02,2.62,0,5.66-.14,11.38.15,17.04,0,3.95-.1,10.12,1.49,11.8-2.62Z"/>
  <path class="cls-11" d="M231.98,120.51c10.3-.1,16.89.62,26.21,5.24,3.45,1.71,3.96,3.04,6.55,5.24.14.82-.21,1.94,0,2.62-4.57.22-7.25-3.93-11.44-4.94-4.56-1.11-13.76-1.58-18.71-1.61-1.3,0-2.64-.08-3.93,0,.02-5.3-5.39-3.9-9.17-3.93-1.32-4.23,6.55-2.58,10.49-2.62Z"/>
  <path class="cls-2" d="M243.78,116.58c7.21.63,9.48,3.53,15.73,5.24l-1.31,3.93c-9.32-4.62-15.91-5.33-26.21-5.24l-1.31-3.93c4.12-.12,9.09-.35,13.11,0Z"/>
  <path class="cls-28" d="M259.5,116.58c.05.1,1.59-.28,2.15.5.69.96,3.61,5.57,3.08,6.05-.48.43-4.03-.97-5.23-1.3-6.25-1.71-8.52-4.61-15.73-5.24v-1.31c4.04-3.14,11.21.14,15.73,1.31Z"/>
  <path class="cls-6" d="M252.95,110.03c.34.07,6.08,2.68,6.32,2.94.85.91-.04,3.09.23,3.61-4.52-1.17-11.69-4.45-15.73-1.31-4.57-5.49,4.87-6.1,9.17-5.24Z"/>
  <path class="cls-6" d="M242.47,102.17v1.31c-.74-.29-2.64.67-2.63-.65,0-1.3,1.68-.39,2.63-.65Z"/>
  <path class="cls-23" d="M209.7,79.9l-2.61,5.23,6.55,2.62c-10.5.16-8.28.25-9.18,7.86-.08.69-1.84,2.27-1.31,2.61,6.19-.3,12.11-1.2,18.35-1.3,2.59-.04,5.29-.16,7.86,0v2.62c-.44.01-.87-.01-1.31,0-6,.17-15.12,1.56-20.97,2.62-2.54.46-3.74.38-6.55,1.31-.41-.43-.8-1.01-1.31-1.31-5.65-3.37-14.47,3.62-20.97,3.93-.2-.62-1.51-.97-1.15-2.91.14-.77,3.66-7.11,4.03-7.31,1.54-.81,3.78.16,5.39-.27,1.16-.31.83-2.65,1.56-2.66,2.52-.01,6.8,5.79,11.13,3.98-1.82-4.88,6.16-10.83-.69-11.87-5.99-.91-6.09,4.79-11.09,5.3.03-2.17-.08-4.37,0-6.54.04-1.31-.06-2.63,0-3.93,2.17-.14,4.4.18,6.56,0,6.44-.52,9.47-1.16,15.73,0Z"/>
  <path class="cls-25" d="M228.05,99.55c.45,5.25-.02,3.6-3.93,3.93-6.24.53-3.02,1.77-3.93,2.62-.37.34-3.55-.72-2.62,2.62-1.31.03-2.62-.04-3.93,0-2.03.07-4.7-.37-7.86,0-.43.05-.89-.07-1.31,0l2.62-6.55c5.85-1.06,14.97-2.45,20.97-2.62Z"/>
  <path class="cls-11" d="M224.12,103.48c2.15,3.17,12.73.11,14.42,1.32l-1.31,3.92c-5.66.15-11.38-.14-17.04,0v-2.62c.91-.85-2.3-2.09,3.93-2.62Z"/>
  <path class="cls-1" d="M229.36,96.93c1.87.11,9.85.36,10.49,1.98,1.6,4.04-9.17.6-10.49.64v-2.62Z"/>
  <path class="cls-12" d="M218.88,82.52c3.63,4.18-1.36,3.88-1.31,4.7.07,1.1,1.18,2.43,1.01,3.64-.55,3.96-10.61,4.41-14.12,4.76.9-7.61-1.32-7.71,9.18-7.86l-6.55-2.62,2.61-5.23c2.87.53,8.32,2.64,9.17,2.62Z"/>
  <path class="cls-18" d="M148.1,145.4c-.23,4.16-3.3,7.89-5.24,11.79-4.16,8.37-11.05,20.56-11.8,30.13h-1.31c.06-4.19-1.1-6.71-1.31-9.17-.38-4.52-.94-7.04,3.01-9.47l2.23-10.18c.75-.84-.32-4.04,5.24-3.93.15,0,1.8,2.05,2.6,1.32,2.05-1.87.93-9.14,6.58-10.49Z"/>
  <path class="cls-14" d="M145.48,157.19c-1.35,3.21-.48,3.16,0,5.24.09.41-.07.89,0,1.31v1.31c-.4.12-.92-.13-1.31,0-.54.18-1.62-.41-2.37.21-3.32,2.75-6.12,16.18-6.8,20.74-.11.75-1.3,1.93-1.41,4.43-.25,5.86,1.23,10.84,1.39,16.53-4.76-4.08-4.36-13.97-3.92-19.65.74-9.57,7.63-21.76,11.8-30.13h2.62Z"/>
  <path class="cls-18" d="M144.17,165.05c.55,2.74-1.13,5.47-1.31,7.86-3.84,3.68-3.31,10.71-2.62,15.72-.25-.29-4.22.98-2.63-5.23h-1.28s-1.33,2.61-1.33,2.61c.68-4.57,3.48-18,6.8-20.74.76-.63,1.83-.04,2.37-.21Z"/>
  <path class="cls-14" d="M129.75,187.31c0,.17-1.35,1.49-1.36,3.17-.04,4.12-.5,10.06.05,13.86h-2.62c-1.03-8.98-.87-17.59,2.62-26.2.21,2.46,1.37,4.98,1.31,9.17Z"/>
  <path class="cls-22" d="M142.86,199.1c-.06,1.44.4,3.3-1.31,3.93-.4-3.3.69-12.09-1.31-14.41-.68-5.01-1.22-12.04,2.62-15.72-.64,8.46.36,17.62,0,26.2Z"/>
  <path class="cls-14" d="M146.79,199.1c-.29,3.76,1.26,9.11-1.31,11.79-1.08-1.95-3.2-1.73-3.93-6.55-.06-.43.05-.88,0-1.31,1.71-.63,1.25-2.49,1.31-3.93h3.93Z"/>
  <path class="cls-1" d="M159.9,179.45c-.07.28-1.87,1.54-2.29,3.55-.99,4.78-4.69,14.31,3.6,13.48-.72,2.1-1.16,4.33-1.31,6.55-.43.08-.91-.1-1.31,0-5.97,1.5-5.97,6.62-7.86,11.79-.37-.3-2.59-.22-3.29-1.27l-.64,1.27c-1.17-1.99-1.04-3.45-1.31-3.93,2.57-2.67,1.02-8.03,1.31-11.79.03-.43-.04-.88,0-1.31.74-.09,2.41.25,2.6,0,.46-.65,1.73-13.4,2.65-15.71.82-2.06,5.22-7.6,7.86-7.86-.12,1.63.33,3.89,0,5.24Z"/>
  <path class="cls-8" d="M263.44,183.38c2.43-.25,5.33,0,7.86,0h5.24c-1.71.06-8.42,1.7-6.55,3.93-1.53-.03-7.43-.27-7.86,0-3.1-.05-4.54-.88-3.93,2.62-.87-.02-1.75.01-2.62,0-2.88-.04-3.14-.72-7.86,0-.07-1.37,1.16-2.91,1.31-3.93,5.15-.23,9.11-2.06,14.42-2.62Z"/>
  <path class="cls-5" d="M255.57,189.93l-13.11,9.17c-10.12,2.24-13.26,9.27-19.66,17.03-3.27,3.96-6.87,7.65-9.17,11.79-2.68-.75-.03-3.96.76-5.14,3.29-4.89,8.23-7.84,8.42-14.51,5.58-2.4,8.42-5.5,12.64-8.98,1.42-1.17,10.46-4.68,3.09-5.43,0-.12-1.23-.6-1.33-1.25.81-.29,2.15.19,2.64-.06,2.47.05,5.13-.37,6.55-2.62.42-.09.88.07,1.31,0,4.72-.72,4.98-.04,7.86,0Z"/>
  <path class="cls-2" d="M288.34,206.96c-2.53-1.53-3.37-2.64-6.55-3.93-.59-5.76-5.47-4.45-9.17-5.24-.8-3.69,2.19-2.93,4.57-2.65,6.28.75,11.07,5.25,11.16,11.81Z"/>
  <path class="cls-5" d="M262.13,187.31c-.51.32,1.92,2.77-3.93,2.62-.61-3.5.83-2.67,3.93-2.62Z"/>
  <path class="cls-4" d="M32.77,129.68c.43.03.88,0,1.31,0,.87,0,1.75,0,2.62,0,.06.43-.08.89,0,1.31-1.51.72-1.15,3.8-1.31,3.93-.42.34-3.6-.8-4,.66-1.02,3.77,4.2,13.54,4.98,18.68.39,2.54,1.67,4.89-2.29,4.23-3.59-7.56-5.49-17.88-5.25-26.19-.21-.23-5.1,1.07-5.24,1.3v-6.55c3.23,2.31,5.51,2.33,9.17,2.62Z"/>
  <path class="cls-28" d="M38.01,134.92c.89,3.04,2.1,10.22,5.24,9.17-.29,2.06.2,4.44,0,6.55-.88-.28-3.18.55-3.78-.12-1.02-1.14-1.27-13.35-4.09-15.6.16-.13-.2-3.21,1.31-3.93.41,2.1.95,2.71,1.31,3.93Z"/>
  <path class="cls-23" d="M64.22,112.65c-.12,2.92.4,6.47,0,9.17-1.56,10.46-7.81,5.62-10.21-.99-.71-1.96.05-4.1-.28-5.56l10.49-2.62Z"/>
  <path class="cls-17" d="M48.49,103.48l5.23-2.62c.12,4.13,3.99,10.49-1.3,13.1-.11-.2-1.13.2-1.31,0-.35-.39.87-3.57-2.62-2.62.3-2.47-.21-5.32,0-7.86Z"/>
  <path class="cls-27" d="M47.18,103.48h1.31c-.21,2.54.3,5.39,0,7.86-.15,1.2-1.3,2.43-1.31,2.62-.93-.98-3.31-4.91-3.93-5.24.49-4.92,3.73-4.93,3.93-5.24Z"/>
  <path class="cls-15" d="M35.39,110.03l3.3-9.16,3.26,7.85c-.86-.07-1.75.02-2.61,0-.11,1.3.07,2.63,0,3.93-.46,8.07,4.04,14.76,1.31,22.27-.85-.11-1.76.07-2.62,0-.36-1.22-.9-1.83-1.31-3.93-.08-.42.06-.88,0-1.31-.12-.84.07-1.76,0-2.62-.49-5.77,0-11.29-1.31-17.03Z"/>
  <path class="cls-20" d="M41.94,108.72c.47.04,1.07-.13,1.31,0,.62.33,3,4.26,3.93,5.24-.23,6.8,3.08,11.14,1.31,17.03-.66-.3-3.02.6-3.72-.16-.48-.52-2.17-11.53-2.66-13.84s1.18-5.11-2.8-4.34c.07-1.3-.1-2.63,0-3.93.86.03,1.76-.07,2.61,0Z"/>
  <path class="cls-23" d="M264.75,133.61c1.76,5.8,5.49,7.87,2.62,15.72-.83-.14-1.79.13-2.62,0,1.79-6.76-3.68-2.16-3.92-2.62,1.32-7.09-1.79-4.27-3.91-5.9-1.52-1.17-.94-3.65-1.62-4.29-1.53-1.46-11.36-1.38-14.14-1.6-4.06-.32-8.17-.97-11.8-1.31v-1.31c5.23.37,10.27.28,15.72,0,1.43-6.35-10.95,1.21-10.48-5.23,4.95.02,14.15.5,18.71,1.61,4.19,1.02,6.87,5.16,11.44,4.94Z"/>
  <path class="cls-17" d="M241.16,134.92c2.78.22,12.61.14,14.14,1.6.68.64.1,3.12,1.62,4.29,2.12,1.63,5.23-1.19,3.91,5.9.24.46,5.71-4.13,3.92,2.62-3.9-.6-7.57-2.06-11.8-1.31-.38-1.59-.65-2.09,0-3.92-1.99-.88-3.44,1.24-3.93,1.3-5.46.66-15.28,1.38-14.41-6.54l6.55-3.94ZM251.63,138.86c-3.35.44-7.7-3.1-9.17,1.28,2.21-.67,8.5,1.62,9.17-1.28Z"/>
  <path class="cls-4" d="M256.23,221.37c.85.44.85.87,0,1.31v-1.31Z"/>
  <path class="cls-4" d="M220.19,201.72c-.95.74-12.54,12.35-13.11,13.1-9.94-1.44-4.69,2.36-7.39,5.38-1.33,1.48-13.72,7.34-16.2,7.72,2.27-3.46,6.84-14.11,9.74-15.81,6.04-3.56,12.43,1.04,19.16-8.42.89-1.26.98-2.93,1.25-3.28l6.55,1.31Z"/>
  <path class="cls-12" d="M250.33,175.53c-.39,7.6-17.8,10.08-19.42,12.04-.36.43-2.38,8.31-4.17,10.23-.4.16-6.04,3.53-6.55,3.93l-6.55-1.31c2.74-3.53,9.27-11.59,12.52-14.33,2.81-2.37,7.58-1.11,7.14-5.32,6.8-.72,6.36-3.49,10.49-5.24,3.01-1.27,5.49.05,6.55,0Z"/>
  <path class="cls-1" d="M252.95,175.53c1.2,4.31-4.2,6.03-4.97,8.72-.23.81,1.05,1.64,1.03,1.76-.15,1.02-1.38,2.56-1.31,3.93-.43.07-.89-.09-1.31,0-4.16.86-3.48,1.04-6.55,2.62-.49.25-1.83-.23-2.64.06.11.65,1.33,1.13,1.33,1.25-.04,2.08-3.78,3.04-5.24,3.93-.47-1.2-6.14-.16-6.55,0,1.8-1.92,3.82-9.8,4.17-10.23,1.62-1.96,19.03-4.44,19.42-12.04.87-.04,1.75,0,2.62,0Z"/>
  <path class="cls-18" d="M222.81,208.27c-.19,6.67-5.12,9.62-8.42,14.51-.79,1.17-3.44,4.39-.76,5.14-2.09,3.77-2.12,3.31-2.62,7.86s-.37,5.19,2.62,9.17c-7.66-1.23-9.36-2.87-9.17-10.48l14.42-24.89c1.46-.07,2.64-.76,3.93-1.31Z"/>
  <path class="cls-29" d="M238.53,193.86c7.38.75-1.67,4.26-3.09,5.43-4.22,3.48-7.07,6.58-12.64,8.98-1.29.55-2.48,1.24-3.93,1.31h-1.31c5.88-6.2,8.65-7.48,15.73-11.79,1.46-.89,5.21-1.85,5.24-3.93Z"/>
  <path class="cls-14" d="M204.46,234.47c.24-10.02,6.59-18.01,13.11-24.89h1.31l-14.42,24.89Z"/>
  <path class="cls-6" d="M222.81,217.44c.45,2.93-1.37,4.42-2.62,6.55-1.04,1.77-3.14,3.32-4.23,5.62-1.85,3.93.89,7.32-4.95,6.17.5-4.55.53-4.09,2.62-7.86,2.3-4.14,5.91-7.83,9.17-11.79v1.31Z"/>
  <path class="cls-28" d="M36.7,127.06c.07.86-.12,1.78,0,2.62-.87,0-1.75,0-2.62,0-.31-2.78-.16-2.93,2.62-2.62Z"/>
  <path class="cls-15" d="M246.4,159.81c1.26.15,2.71-.19,3.93,0l1.31,7.86c-.43.03-.87-.01-1.31,0-3.54-6.54-12.83-3.98-14.41,2.61,3.06-.46,6.09-.91,9.17-1.3l-1.31,6.55c-4.13,1.75-3.69,4.52-10.49,5.24-4.01.42-10.25-.86-13.55-.06-1.88.46-1.36,4.49-2.35,5.13-1.43.92-5.36-.37-6.38.17.45-3.94.19-9.23-3.95-11.12-5.86-2.68-5.14,1.72-7.5,3.29-4.84,3.23-11.74,7.67-17.38,9.14v-1.31c6.03-3.68,7.93-9.49,15.73-13.1,8.3-3.84,19.52-8.1,28.83-9.17,2.69-.31,9.87,3.16,10.49-3.93,2.91-.02,6.41-.32,9.17,0Z"/>
  <path class="cls-19" d="M211.01,186c-.1.05.25,1.6-.45,2.15-.8.63-2.06.35-2.17.47-1.66-.61-.34-4.95-2.62-3.28-9.04,6.59-21.86,16.45-28.83,24.24-4.94-9.98,3.82-13.91,5.24-22.27,5.64-1.47,12.54-5.91,17.38-9.14,2.36-1.57,1.64-5.97,7.5-3.29,4.14,1.89,4.41,7.18,3.95,11.12Z"/>
  <path class="cls-4" d="M175.62,227.92l-2.62,1.31c-.52-5.18,2-1.35,2.62-1.31Z"/>
  <path class="cls-19" d="M190.04,172.91c1.2-1.27,3.58-1.9,4.56-3.98.83-1.78.52-5,.69-5.19.59-.63,4.81,1.43,6.85,1.03,12.7-2.46,21.3-10.96,31.08-14.85,2.44-.97,4.64-1.72,4.01,2.04-3.93,1.63-8.73,6.73-13.11,8.51s-9.05,1.38-12.77,2.95c-2.44,1.03-3.86,4.09-5.59,4.89-3.89,1.81-9.14-1.87-7.85,4.61-7.79,3.6-9.7,9.42-15.73,13.1-4.53,2.76-11.15,3.88-15.7,7.88l2.58,3.89c-3.95-.55-2.97,4.04-3.92,5.26-.14.18-.87-.13-1.31,0-.37.11-.86-.06-1.31,0-.84.12-1.83-.15-2.62,0,.15-2.22.59-4.45,1.31-6.55,1.82-5.28,3.94-10.71,9.17-13.1,2.03-.93,5.95-1.07,9.17-2.62,5.77-2.78,6.28-3.42,10.49-7.86Z"/>
  <path class="cls-5" d="M162.52,203.03c-3.76,4.45-3.92,8.88-3.93,14.41-6.61-.02-2.2-10.51,0-14.41.4-.1.88.08,1.31,0,.79-.15,1.79.12,2.62,0Z"/>
  <path class="cls-15" d="M163.83,203.03c.45-.13,1.17.18,1.31,0l-.66,1.28-.66-1.28Z"/>
  <path class="cls-27" d="M154.65,56.33c-1.65,1.4-4.91,4.12-6.55,5.24-5.44,3.72-12.97,6.98-18.53,10.95-1.86,1.33-3.9,1.88-3.75,4.77-2.11,1.36-4.64,2.61-6.55,3.93l-2.62-1.31c.94-1.3,1.12-3.42,2.62-5.24,4.74-1.39,11.4-5.4,15.5-8.12.67-.44.06-2.2.23-2.36.29-.27,5.78-3.5,6.55-3.93,4.24-2.33,8.96-2.81,13.11-3.93Z"/>
  <path class="cls-15" d="M132.37,64.18c.87.04,1.75-.02,2.62,0-.17.16.44,1.92-.23,2.36-4.1,2.72-10.76,6.72-15.5,8.12,1.3-1.58,2.57-3.84,3.93-5.24,1.72-1.77,4.89-3.11,6.55-5.24.87.03,1.75-.04,2.62,0Z"/>
  <path class="cls-8" d="M141.55,60.25c-.78.43-6.27,3.66-6.55,3.93-.87-.02-1.75.04-2.62,0-.03-5.28,5.39-3.91,9.17-3.93Z"/>
  <path class="cls-22" d="M174.31,53.71v1.31c-9.7,2.08-16.9,5.72-26.21,7.86v-1.31c1.64-1.12,4.9-3.84,6.55-5.24,3.64-.98,6.67-2.06,10.49-2.62l1.95,1.3.67-1.3c3.95-.5,3.94-.09,6.55,0Z"/>
  <path class="cls-28" d="M182.18,51.09v2.62c-2.25.34-5.84.88-7.86,1.31v-1.31c3.03.1,4.13-1.57,7.86-2.62Z"/>
  <path class="cls-28" d="M167.76,53.71l-.67,1.3-1.95-1.3c.84-.12,1.78.11,2.62,0Z"/>
  <path class="cls-25" d="M200.53,55.02c1.19,5.54-2.3,3.53-2.62,3.93-8.04,2.21-18.82,4.19-26.44,6.98-4.38,1.6-7.38,4.95-10.64,6.39-9.08,4.01-15.94,3.55-24.52,10.21l-3.93-1.31c5.5-3.66,9.93-7.61,15.73-10.48.39-.13.91.13,1.31,0l2.62-1.31c.33-.19,1.19.21,1.31,0l2.62-1.31c.63.08,1.3-.06,1.95-.01l.67-1.3c3.71-1.02,7.56-1.45,11.27-2.53,2.12-.62,3.86-2.52,4.46-2.7,5.99-1.84,15.43-5.18,20.97-6.55,1.42-.35,3.64.26,5.24,0Z"/>
  <path class="cls-28" d="M193.97,53.71c.51.3.9.89,1.31,1.31-5.54,1.37-14.98,4.71-20.97,6.55v-1.31c6.48-2.31,12.74-5.7,19.66-6.55Z"/>
  <path class="cls-12" d="M136.31,82.52c-3.73,2.9-9.54,9.16-11.8,13.1-.53.92-.85,1.74-1.31,2.62-3.14.13-4.94,2.16-5.24,5.24-.91.82-1.7,1.8-2.62,2.62-1.25-3.31-3.97.05-3.93,2.62h-1.29s-1.33-3.93-1.33-3.93c4.19-6.25,7.02-13.93,13.11-18.34,2.31-1.68,7.41-3.2,10.49-5.24l3.93,1.31Z"/>
  <path class="cls-6" d="M142.86,86.45c-.2.31.19.99,0,1.31-2.92,4.88-25.72,22.99-32.77,31.44-1.21-.14-1.5-1.67-1.31-2.62s2.37-7.53,2.62-7.86c.14-.19,2.24-1.12,3.93-2.62.92-.82,1.71-1.8,2.62-2.62,2.36-2.11,2.2.61,5.24-5.24.46-.88.78-1.7,1.31-2.62,7.57.21,10.37-10.18,18.35-9.17Z"/>
  <path class="cls-14" d="M154.65,78.59l3.93,1.31c-2.92,1.1-12.4,5.11-11.8,7.86-1.3.09-2.63-.06-3.93,0,.19-.32-.2-1,0-1.31.68-1.07.24-3.57,1.68-4.87,2.43-2.2,7.89-2.17,10.12-2.99Z"/>
  <path class="cls-6" d="M154.65,78.59c5.88-2.17,9.97-5.13,16.39-5.29,2.47-.06,5.35-1.12,4.58,2.67-5.82.72-11.57,1.87-17.04,3.93l-3.93-1.31Z"/>
  <path class="cls-20" d="M146.79,87.76c12.42-.87,27.26-9.45,42.6-10.53,2.43-.17,5.37-1.07,4.58,2.67-2.16.18-4.4-.14-6.56,0-.05,1.3.05,2.62,0,3.93-2.74-.11-5.44-.13-8.16.34-11.12,1.93-39.7,8.94-44.26,19.31-.18.4-1.01.81-1.31,1.31-3.86-.33-8.99,4.5-10.49,7.86-.15.34.13.89,0,1.31-7.82-1.92-11.15,10.36-9.17,15.71-6.07-.39-8.73.17-9.17,6.56-.06.86,0,1.75,0,2.62-2.93-1.84-4.16,6.44-3.73,8.27.6,2.58,2.98,2.93,5.04,3.52.73.21,1.86-.19,2.62,0,.46.12,1.15-.17,1.31,0,.39.43-1.18,3.08,1.97,2.66s3.95-3.74,5.92-4.62c2.14-.96,4.83-.17,6.24-.96.98-.55,3.42-7.11,4.22-8.87.19-.42,1.11-.82,1.31-1.31,8.71.96,2.06-6.55,5.17-8.57,3.61-2.33,6.71.66,7.93.71-6.61,4.59-7.9,11.62-11.8,18.34-1.18,2.04-5.25,9.24-6.56,9.88-3.16,1.54-7.37-1.25-7.84-.72-.18.21.18,2.6-.7,3.9-.98,1.45-3.07,1.14-3.25,1.35-2.67,0-12.74-.9-13.86-2.53-1.64-2.39.6-11.71-4.49-14.5,1.38-3.38,2.54-8.57,3.93-11.79,5.95-5.1,6.9-8.54,11.8-14.41,7.04-8.45,29.84-26.56,32.77-31.44,1.3-.06,2.63.09,3.93,0Z"/>
  <path class="cls-15" d="M114.02,82.52h-1.31c.06.04,1.26.03,1.31,0Z"/>
  <path class="cls-14" d="M94.37,145.4c-1.29,3.16-3.95,11.25-6.55,10.48.5-3.14.22-7.29,1.31-10.48.21-.61,4.84-8.7,5.24-9.17.75-.87,2.86-1.7,3.93-2.62-1.39,3.22-2.55,8.41-3.93,11.79Z"/>
  <path class="cls-28" d="M148.1,61.56v1.31c-5.11,7.02-15.49,10.02-22.28,14.41-.15-2.89,1.89-3.44,3.75-4.77,5.56-3.98,13.09-7.23,18.53-10.95Z"/>
  <path class="cls-12" d="M107.47,116.58c-1.77,7.02-6.24,10.25-9.17,17.03-1.07.92-3.18,1.74-3.93,2.62l-1.28-.71c1.33-4.75,5.03-8.44,7.84-12.39.69-.98.99-2.21,1.31-2.62.99-1.29,5.32-6.62,5.24-3.93Z"/>
  <path class="cls-18" d="M103.54,110.03c-.75,2.28-2.92,9.35-1.31,10.48-.32.41-.62,1.64-1.31,2.62-1.2-.2-2.92.29-3.93,0l-1.31-1.31c.03-.6,4.77-10.49,5.15-10.97,1.1-1.39,2.56-.66,2.72-.82Z"/>
  <path class="cls-28" d="M98.3,107.41c-.61.71-2.22,7.85-6.55,13.1-.19-5.37,2.92-8.9,5.24-13.1h1.31Z"/>
  <path class="cls-16" d="M174.31,60.25v1.31c-.6.18-2.34,2.08-4.46,2.7-3.71,1.08-7.56,1.51-11.27,2.53l-1.33-1.28c5.63-1.57,11.57-3.31,17.05-5.27Z"/>
  <path class="cls-26" d="M121.89,86.45c-6.08,4.41-8.92,12.09-13.11,18.34-.92,1.38-3.87,3.91-5.24,5.24,3.82-11.7,9.55-16.32,18.35-23.58Z"/>
  <path class="cls-16" d="M103.54,98.24c-.06,2.7-1.19,6.07-2.52,8.35-.89,1.52-2.58.66-2.72.82h-1.31c2.6-4.69,3.74-5.53,6.55-9.17Z"/>
  <path class="cls-16" d="M148.1,70.73c-5.8,2.87-10.22,6.82-15.73,10.48-3.07,2.04-8.17,3.56-10.49,5.24,9.14-7.54,14.84-11.8,26.21-15.72Z"/>
  <path class="cls-16" d="M155.96,68.11l-2.62,1.31c.25-.45-.17-1.82.01-2.61,1.25-.46,2.27,1.26,2.61,1.3Z"/>
  <path class="cls-27" d="M117.96,82.52c-.45.34-1.75,1.82-2.62,2.62-.31-2.78-.16-2.93,2.62-2.62Z"/>
  <path class="cls-16" d="M152.03,69.42l-2.62,1.31c.14-.04,2.32-1.14,2.62-1.31Z"/>
  <path class="cls-29" d="M96.99,123.13c-.83-.24-1.38.03-1.31-1.31l1.31,1.31Z"/>
  <path class="cls-23" d="M72.08,128.37c-.02,2.17-.11,4.39,0,6.55h-2.62c-.11-.85.09-1.77,0-2.62-.14-1.24.26-2.89,0-3.93h2.62Z"/>
  <path class="cls-26" d="M123.2,184.69c-.21,1.7.15,3.52,0,5.24-6.52-2.6-5.61,5.04-7.36,5.33-1.9.32-14.97-2.5-10.23-6.66,7.17,1.08,11.55-.75,17.59-3.91Z"/>
  <path class="cls-20" d="M207.08,102.17l-2.62,6.55c-11.5,1.77-21.57,8.32-31.81,13.4-2.3,1.14-5.14.63-7.45,1.72-3.91,1.85-5.85,7.99-8.51,11.14s-6.68,2.8-7.28,7.79c-.1.85.07,1.76,0,2.62-.42.07-.9-.1-1.31,0-5.65,1.35-4.53,8.62-6.58,10.49-.8.73-2.45-1.32-2.6-1.32v-1.31c.3-2.46-.43-5.56,0-7.86.29-1.54,1.13-2.08,1.31-2.62,5.67-6.34,7.31-10.59,14.42-15.72,1.77-1.27,7.72-5.5,9.1-5.98,5.54-1.92,3.54,1.33,6.62-3.19.41-.6,1.05-.94,1.31-1.31,6.65-4.44,12.21-6.48,19.66-9.17.42-.08.9.09,1.31,0,4.03-.93,5.46-3.13,7.86-3.93,2.81-.93,4.01-.85,6.55-1.31Z"/>
  <path class="cls-1" d="M112.71,162.43c-.41.48-.16,2.61-1.88,3.96-5.53,4.35-12.39,4.24-19.09,3.9-.29-5.25.23-4.76-2.62-9.17-.39-.6-.24-2.05-1.31-2.62.09-.85-.13-1.8,0-2.62,2.6.77,5.26-7.31,6.55-10.48,5.1,2.8,2.85,12.11,4.49,14.5,1.11,1.63,11.19,2.52,13.86,2.53Z"/>
  <path class="cls-12" d="M145.48,129.68c-.07,4.89-3.66,8.34-5.24,13.1-.18.54-1.03,1.08-1.31,2.62l-7.86,2.62c3.9-6.72,5.19-13.75,11.8-18.34.83.03,1.81.11,2.62,0Z"/>
  <path class="cls-1" d="M138.93,153.26v1.31c-5.57-.11-4.49,3.09-5.24,3.93-2.22,2.48-3.42,3.04-5.24,6.55-7.55-3.91,5.16-13.93,10.49-11.79Z"/>
  <path class="cls-14" d="M89.12,161.12h-2.62c.06-1.23,1.28-2.31,1.31-2.62,1.07.57.92,2.02,1.31,2.62Z"/>
  <path class="cls-23" d="M48.49,111.34c3.5-.95,2.27,2.23,2.62,2.62-3.19,3.74.22,9.81,1.31,14.41.72,3.03,1.73,5.96,1.31,9.17-1.05-.25-3.62.31-3.94,0-.26-.25,2.33-4.88-1.3-6.54,1.77-5.89-1.54-10.23-1.31-17.03,0-.19,1.16-1.42,1.31-2.62Z"/>
  <path class="cls-9" d="M52.43,128.37l7.87,1.32c.98,1.01-1.96,8.56-2.78,9.08-1.08.69-2.81-1-3.78-1.23.42-3.21-.59-6.14-1.31-9.17Z"/>
  <path class="cls-8" d="M40.63,134.92c1.32.17,2.25.73,3.93,0,1.26,3.48-.99,6.97-1.31,9.18-3.15,1.05-4.35-6.13-5.24-9.17.86.07,1.77-.11,2.62,0Z"/>
  <path class="cls-20" d="M64.21,150.63c-3.97.65-2.09-1-2.64-3.18-.38-1.5-1.81-7.97-1.28-8.59,6.07.09,3.49,7.88,3.92,11.78Z"/>
  <path class="cls-23" d="M250.33,167.67c.44-.01.88.03,1.31,0s.87.02,1.31,0,3.14,1.78,6.55,1.31c.5,1.83-.82,2.79-1.31,3.93-3.1-.05-4.54-.88-3.93,2.62-.43.04-.88,0-1.31,0-.87,0-1.75-.04-2.62,0-1.06.05-3.55-1.27-6.55,0l1.31-6.55c1.69-.22,3.71-1.27,5.24-1.31Z"/>
  <path class="cls-12" d="M258.19,172.91c-.2.46.45,1.86-.19,2.43-.73.65-2.65.09-3.75.19-.61-3.5.83-2.67,3.93-2.62Z"/>
  <path class="cls-27" d="M229.36,133.61c3.63.34,7.73.99,11.8,1.31l-6.55,3.94c-.87,7.92,8.95,7.2,14.41,6.54.28,3.58-3.88,3.76-5.24,6.55-3.19-.94-3.46-1.28-6.55,0,.63-3.76-1.57-3.01-4.01-2.04-9.78,3.89-18.38,12.39-31.08,14.85-2.04.4-6.26-1.66-6.85-1.03-.18.19.13,3.42-.69,5.19-.97,2.09-3.35,2.72-4.56,3.98.25-6.29-4.44.83-7.22,1.29-2.49.41-5.52-.54-7.64,0-1.38.35-.74,2.57-.86,2.64-.44.29-9.27,1.67-10.5.64.39-1.97,1-4.1,2.16-5.76,2.68-3.84,7.99-9.33,10.97-13.21l5.88,3.92c7.26-5.89,17.06-19.18,26.28-20.9,3.53-.66,7.36.63,11.18-.62,4.3-1.41,4.72-7.7,9.09-7.29Z"/>
  <path class="cls-23" d="M243.78,151.95c.74.22,2.42-.26,2.62,0,.25.32-1.84,6.08,0,7.85-2.76-.32-6.27-.02-9.17,0-3.59.02-9.63-2.86-10.49,3.93-9.32,1.07-20.53,5.33-28.83,9.17-1.3-6.48,3.95-2.79,7.85-4.61,1.73-.8,3.15-3.86,5.59-4.89,3.72-1.57,8.24-1.11,12.77-2.95s9.18-6.88,13.11-8.51c3.1-1.28,3.36-.94,6.55,0Z"/>
  <path class="cls-17" d="M250.33,159.81c3.99.62,7.81,2.93,10.48,5.9l-7.86,1.96c-.44.02-.88-.03-1.31,0l-1.31-7.86Z"/>
  <path class="cls-6" d="M190.04,121.82l1.31,1.31c-.11.09.32,1.85-.89,2.67-1.9,1.29-9.93,5.73-10.62,6.82-.92,1.45-.01,3.53-.29,4.92-.14.69-1.94,2.3-1.31,3.93-3.26,3.17-5.32,5.31-7.86,9.17-.5.28-.94,1.17-1.31,1.31-4.55,1.68-1.61,1.38-2.62,2.62-1.36,1.67-2.58,3.57-3.93,5.24-1.59,1.96-7.38,6.85-9.17,10.48-5.24-1.3-3.82-3.86-2.62-9.17s3.93-10.22,5.24-15.72c3.51.27,3.51-2.29,4.8-3.73,3.9-4.37,8.35-7.34,12.24-11.98.42-.51.52-.94,1.31-1.31,5.02-2.33,10.62-4.17,15.73-6.55Z"/>
  <path class="cls-11" d="M192.66,132.3l-1.31,6.55c-5.88,3.3-5.95,6.04-9.17,9.17-1.16,1.13-3.97,1.79-5.95,3.88-5.61,5.95-11.26,14.46-16.33,21.01,0-.1-1.19-.75-1.03-1.72.53-3.28,4.94-6.97,3.65-11.38,1.36-1.67,2.57-3.57,3.93-5.24,1.34.09,1.81-.41,2.62-1.31,1.08-1.2.93-2.05,1.31-2.62,2.54-3.86,4.6-6,7.86-9.17,1.09-1.06,3.21-3.35,3.93-3.93.99-.8,2.41-2.49,2.62-2.62,1.6-1,5.86-1.71,7.86-2.62Z"/>
  <path class="cls-3" d="M230.67,116.58l1.31,3.93c-3.94.04-11.81-1.61-10.49,2.62-9.72-.07-19.99,5.14-28.83,9.17-2,.91-6.27,1.62-7.86,2.62.15-3.82,3.92-5.33,6.67-7.09,12.35-7.87,24.74-10.84,39.2-11.25Z"/>
  <path class="cls-5" d="M213.63,108.72c-13.23,6.25-28.26,9.77-39.32,19.65-.79.37-.89.8-1.31,1.31-2.76.07-4.01,2.4-6.18,3.67-.94.55-2.47,0-3,.26.22-.24-.04-2.05,1.33-3.2,11.97-10.07,26.78-14.95,40.62-21.69,3.17-.37,5.83.07,7.86,0Z"/>
  <path class="cls-28" d="M190.04,121.82c10.9-5.07,21.62-10.64,34.07-11.78.52,3.11-.32,2.49-2.59,3.23-6.6,2.12-25.52,6.16-30.16,9.87l-1.31-1.31Z"/>
  <path class="cls-3" d="M182.18,137.54c-.73.58-2.84,2.87-3.93,3.93-.63-1.63,1.17-3.24,1.31-3.93h2.62Z"/>
  <path class="cls-5" d="M220.19,106.1v2.62c-.87.02-1.75-.02-2.62,0-.93-3.34,2.25-2.28,2.62-2.62Z"/>
  <path class="cls-21" d="M230.67,127.06c1.3-.08,2.63,0,3.93,0-.47,6.44,11.9-1.11,10.48,5.23-5.45.29-10.49.37-15.72,0-19.11-1.34-28.26,5.31-42.75,16.87-1.44,1.15-3.97,1.09-4.44,1.46v-2.62c3.23-3.13,3.3-5.86,9.17-9.17,9.13-5.13,28.98-11.18,39.32-11.79Z"/>
  <path class="cls-5" d="M221.5,123.13c3.78.03,9.2-1.37,9.17,3.93-10.34.61-30.19,6.66-39.32,11.79l1.31-6.55c8.84-4.02,19.11-9.24,28.83-9.17Z"/>
  <path class="cls-17" d="M187.42,83.83c-.07,2.17.04,4.37,0,6.54,5-.52,5.11-6.21,11.09-5.3,6.85,1.04-1.12,6.99.69,11.87-4.33,1.81-8.61-4-11.13-3.98-.74,0-.41,2.35-1.56,2.66-1.62.43-3.85-.55-5.39.27-.37.2-3.88,6.54-4.03,7.31-.36,1.94.95,2.29,1.15,2.91.21.67-.14,1.8,0,2.62-.21.06-.81.94-1.31,1.31-2.53-1.15-10.25,1.3-12.16,2.57-1.54,1.01-4.47,5.79-4.87,7.91-4.15,1.69-4.91,5.02-5.24,5.24-1.45.93-7.61,3.73-9.17,3.93-.81.11-1.79.03-2.62,0-1.22-.04-4.32-3.04-7.93-.71-3.11,2.01,3.54,9.53-5.17,8.57,1.91-4.62,3.26-14.7,5.24-18.34.09-.16,2.03-2.01,2.62-2.62.31-.32,3.91,1.12,2.62-3.93,1.67-.22,3.59.24,5.24,0,9.82-1.41,5.09-3.49,4.2-7.53-.47-2.11,2.04-4.78-.23-6.26-4.87-3.19-9.17,5.36-14.46,4.62,4.56-10.36,33.14-17.38,44.26-19.31,2.72-.47,5.43-.45,8.16-.34Z"/>
  <path class="cls-21" d="M199.22,102.17c-2.45,2.17-6.94.71-6.55,5.24-.41.09-.89-.08-1.31,0-3.49.7-9.96.41-13.11,1.31-.14-.82.21-1.95,0-2.62,6.5-.31,15.32-7.3,20.97-3.93Z"/>
  <path class="cls-25" d="M200.53,103.48c-2.41.8-3.83,3-7.86,3.93-.38-4.53,4.1-3.07,6.55-5.24.51.3.9.88,1.31,1.31Z"/>
  <path class="cls-1" d="M204.46,108.72c.43-.07.88.05,1.31,0-13.84,6.73-28.64,11.61-40.62,21.69-1.37,1.15-1.1,2.97-1.33,3.2-.48.51-3.32-1.33-2.61,1.95.2.9,1.29.6,1.3.67.28,2.42-4.07,3.29-5.24,3.93-1.88,1.03-2.69,2.24-5.24,2.62-.83.12-1.77-.08-2.62,0,.6-4.99,4.7-4.75,7.28-7.79s4.6-9.29,8.51-11.14c2.31-1.09,5.15-.58,7.45-1.72,10.24-5.08,20.31-11.63,31.81-13.4Z"/>
  <path class="cls-29" d="M150.72,145.4c-1.67,6.01-3.36,7.3-5.24,11.79h-2.62c1.94-3.9,5.01-7.63,5.24-11.79.41-.1.89.07,1.31,0h1.31Z"/>
  <path class="cls-29" d="M150.72,161.12c-1.2,5.3-2.61,7.87,2.62,9.17-2.19,4.43-1.66,8.27-2.62,11.79-1.5,5.45-3.32,9.74-3.93,15.72-.04.43.03.88,0,1.31h-3.93c.36-8.58-.64-17.74,0-26.2.18-2.39,1.86-5.12,1.31-7.86.39-.13.91.12,1.31,0,.45-.14,1.05.19,1.28-.65l-1.28-.65c-.07-.42.09-.9,0-1.31l5.24-1.31ZM148.76,171.6v1.31c.85-.44.85-.87,0-1.31Z"/>
  <path class="cls-8" d="M155.96,145.4c-1.31,5.5-4.01,10.25-5.24,15.72l-5.24,1.31c-.48-2.08-1.35-2.03,0-5.24,1.89-4.49,3.57-5.78,5.24-11.79.17-.6,1.37-1.57,1.31-2.62,2.55-.38,3.36-1.59,5.24-2.62-1.31,1.58-.92,3.58-1.31,5.24Z"/>
  <path class="cls-18" d="M145.48,165.05v-1.31l1.28.65c-.24.84-.84.51-1.28.65Z"/>
  <path class="cls-23" d="M182.18,150.64c-3.06,2.5-3.61,5.73-5.24,7.86-2.98,3.89-8.29,9.37-10.97,13.21-1.15,1.66-1.77,3.79-2.16,5.76,1.23,1.04,10.06-.35,10.5-.64l5.24,3.93c-3.22,1.55-7.14,1.69-9.17,2.62-6.58,1.07-1.01-6.16-10.49-3.93.33-1.35-.12-3.61,0-5.24.03-.43-.03-.88,0-1.31,5.07-6.55,10.72-15.05,16.33-21.01,1.98-2.1,4.79-2.75,5.95-3.88v2.62Z"/>
  <path class="cls-20" d="M159.9,179.45c9.48-2.23,3.9,5,10.49,3.93-5.24,2.39-7.35,7.82-9.17,13.1-8.28.83-4.58-8.7-3.6-13.48.42-2.01,2.22-3.27,2.29-3.55Z"/>
  <path class="cls-3" d="M162.52,159.81c1.28,4.41-3.13,8.1-3.65,11.38-.16.97,1.04,1.62,1.03,1.72-.03.43.03.88,0,1.31-2.65.26-7.04,5.8-7.86,7.86h-1.31c.97-3.52.43-7.36,2.62-11.79,1.79-3.63,7.58-8.52,9.17-10.48Z"/>
  <path class="cls-6" d="M152.03,182.07c-.92,2.32-2.19,15.06-2.65,15.71-.18.26-1.86-.08-2.6,0,.62-5.98,2.44-10.27,3.93-15.72h1.31Z"/>
  <path class="cls-8" d="M246.4,189.93c-1.42,2.25-4.08,2.67-6.55,2.62,3.07-1.58,2.39-1.76,6.55-2.62Z"/>
  <path class="cls-19" d="M229.36,132.3v1.31c-4.37-.41-4.79,5.88-9.09,7.29-3.82,1.25-7.64-.04-11.18.62-9.22,1.72-19.01,15.01-26.28,20.9l-5.88-3.92c1.63-2.13,2.18-5.36,5.24-7.86.46-.38,2.99-.31,4.44-1.46,14.49-11.56,23.64-18.21,42.75-16.87Z"/>
  <path class="cls-23" d="M251.63,138.86c-.66,2.9-6.96.62-9.17,1.28,1.47-4.38,5.82-.84,9.17-1.28Z"/>
  <path class="cls-7" d="M250.33,167.67c-1.53.04-3.55,1.09-5.24,1.31-3.08.39-6.11.84-9.17,1.3,1.58-6.59,10.87-9.15,14.41-2.61Z"/>
  <path class="cls-21" d="M237.22,159.81c-.62,7.08-7.8,3.62-10.49,3.93.85-6.79,6.9-3.91,10.49-3.93Z"/>
  <path class="cls-21" d="M174.31,176.84c.12-.08-.52-2.3.86-2.64,2.12-.53,5.16.42,7.64,0,2.79-.46,7.47-7.58,7.22-1.29-4.21,4.44-4.72,5.08-10.49,7.86l-5.24-3.93Z"/>
  <path class="cls-26" d="M123.2,98.24c-3.04,5.85-2.88,3.13-5.24,5.24.3-3.08,2.1-5.11,5.24-5.24Z"/>
  <path class="cls-26" d="M110.09,119.2c-4.89,5.87-5.85,9.31-11.8,14.41,2.93-6.78,7.41-10.01,9.17-17.03h1.31c-.19.95.1,2.48,1.31,2.62Z"/>
  <path class="cls-21" d="M123.2,113.96c-.11.36.07.86,0,1.31-.39,2.55-2.5,4.49.68,6.54,2.5.89,1.59-2.32,2.81-2.61,2.42-.57,5.7.33,8.31,0-1.98,3.64-3.33,13.72-5.24,18.34-.2.49-1.12.89-1.31,1.31-1.23-.27-4.73.39-5.24,0-.45-.34-2.39-7.54-8.92-3.64-3.41,2.04.35,5.07-9.43,1.02.44-6.39,3.11-6.95,9.17-6.56-1.97-5.35,1.36-17.62,9.17-15.71Z"/>
  <path class="cls-19" d="M133.68,104.79c3.48.3,13.6,2.78,11.8,7.86-1.65.24-3.57-.22-5.24,0-.78.1-2.43-.23-2.62,0-.34.39.2,2.93,0,3.93-.59.61-2.53,2.46-2.62,2.62-2.61.33-5.89-.57-8.31,0-1.22.29-.3,3.5-2.81,2.61-3.18-2.05-1.07-3.99-.68-6.54,3.89.8,4.11-3.35,0-2.62,1.49-3.36,6.63-8.19,10.49-7.86Z"/>
  <path class="cls-19" d="M123.2,138.85c.37,1.3-1.11,2.09-1.31,2.62l-7.85-1.32c.07,2.68-.6,5.33-1.32,7.87-1.87.58-4.74-1.51-3.93,2.62-.76-.19-1.9.21-2.62,0-.29-3.34-1.31-8.73-1.31-11.79,0-.87-.06-1.76,0-2.62,9.78,4.05,6.02,1.02,9.43-1.02,6.53-3.9,8.47,3.29,8.92,3.64Z"/>
  <path class="cls-27" d="M145.48,112.65c1.81-5.08-8.31-7.56-11.8-7.86.3-.5,1.14-.91,1.31-1.31,5.29.74,9.59-7.81,14.46-4.62,2.27,1.48-.24,4.15.23,6.26.89,4.04,5.62,6.12-4.2,7.53Z"/>
  <path class="cls-17" d="M128.44,138.85c-.81,1.77-3.24,8.33-4.22,8.87-1.41.78-4.1,0-6.24.96-1.97.88-2.75,4.2-5.92,4.62s-1.58-2.23-1.97-2.66c3.23.57,2.15-.97,2.62-2.62.89-.27,7.97-3.57,8.35-3.82,1.39-.92.57-2.07.82-2.73.2-.53,1.68-1.32,1.31-2.62.51.39,4.02-.27,5.24,0Z"/>
  <path class="cls-21" d="M104.85,138.85c0,3.05,1.02,8.45,1.31,11.79-2.06-.59-4.44-.94-5.04-3.52-.43-1.83.81-10.11,3.73-8.27Z"/>
  <path class="cls-21" d="M121.89,141.47c-.25.66.57,1.81-.82,2.73-.38.25-7.47,3.55-8.35,3.82-.47,1.65.61,3.18-2.62,2.62-.16-.17-.85.12-1.31,0-.81-4.13,2.06-2.04,3.93-2.62.72-2.53,1.39-5.19,1.32-7.87l7.85,1.32Z"/>
  <path class="cls-27" d="M123.2,112.65c4.11-.73,3.89,3.42,0,2.62.07-.45-.11-.95,0-1.31.13-.42-.15-.97,0-1.31Z"/>
  <path class="cls-15" d="M176.93,110.03c-1.38,1.02-4.01,4.81-5.24,6.55-.26.37-.9.71-1.31,1.31-2.9,1.37-7.98,1.6-10.49,2.62.41-2.12,3.34-6.9,4.87-7.91,1.92-1.26,9.64-3.72,12.16-2.57Z"/>
  <path class="cls-25" d="M191.35,107.41c-7.45,2.69-13.01,4.73-19.66,9.17,1.24-1.74,3.87-5.53,5.24-6.55.5-.37,1.1-1.25,1.31-1.31,3.15-.9,9.61-.61,13.11-1.31Z"/>
  <path class="cls-11" d="M154.65,127.06c-7.11,5.12-8.75,9.38-14.42,15.72,1.58-4.75,5.17-8.21,5.24-13.1,1.56-.2,7.72-3,9.17-3.93v1.31Z"/>
  <path class="cls-5" d="M170.38,117.89c-3.09,4.52-1.08,1.27-6.62,3.19-1.38.48-7.34,4.7-9.1,5.98v-1.31c.34-.22,1.1-3.55,5.24-5.24,2.51-1.02,7.58-1.25,10.49-2.62Z"/>
  <path class="cls-18" d="M152.03,142.78c.06,1.05-1.14,2.02-1.31,2.62h-1.31c.07-.86-.1-1.77,0-2.62.85-.08,1.79.12,2.62,0Z"/>
  <path class="cls-22" d="M173,129.68c-3.9,4.65-8.34,7.61-12.24,11.98-1.29,1.45-1.29,4-4.8,3.73.39-1.66,0-3.65,1.31-5.24,1.17-.64,5.52-1.51,5.24-3.93.48-.6.95-2.45,1.31-2.62.53-.26,2.06.29,3-.26,2.17-1.27,3.42-3.6,6.18-3.67Z"/>
  <path class="cls-3" d="M169.07,151.95v1.31c-.81.9-1.28,1.4-2.62,1.31,1.01-1.24-1.93-.94,2.62-2.62Z"/>
  <path class="cls-22" d="M169.07,153.26v-1.31c.37-.14.81-1.03,1.31-1.31-.38.57-.23,1.42-1.31,2.62Z"/>
  <path class="cls-27" d="M140.24,112.65c1.29,5.05-2.31,3.61-2.62,3.93.2-1-.33-3.54,0-3.93.19-.22,1.84.11,2.62,0Z"/>
  <path class="cls-6" d="M148.76,171.6c.85.44.85.87,0,1.31v-1.31Z"/>
  <path class="cls-8" d="M163.83,133.61c-.36.17-.83,2.02-1.31,2.62,0-.07-1.1.24-1.3-.67-.72-3.28,2.13-1.44,2.61-1.95Z"/>
</svg>