<?xml version="1.0" encoding="UTF-8"?>
<svg id="Layer_1" data-name="Layer 1" xmlns="http://www.w3.org/2000/svg" viewBox="0 0 689.15 973.01">
  <defs>
    <style>
      .cls-1 {
        fill: #231f20;
      }

      .cls-2 {
        fill: #eb6224;
      }

      .cls-3, .cls-4, .cls-5 {
        stroke-miterlimit: 10;
      }

      .cls-3, .cls-5 {
        stroke: #000;
      }

      .cls-4 {
        stroke: #545554;
      }

      .cls-4, .cls-5 {
        fill: none;
      }

      .cls-5 {
        stroke-width: 1.5px;
      }
    </style>
  </defs>
  <g>
    <path d="M237.21,538.33c-4.28,2.98-14.03,5.46-13.56-1.92,5.12-9.25,6.48-20.4,11.02-29.75,5.04-10.38,12.26-14,15.69-26.31,8.94-32.02,7.01-69.75,15.99-103.23,8.15-30.41,13.3-49.57,15.57-81.97,2.37-33.82-5.34-87.29,32.55-104.28,3.59-1.61,21.13-6.02,21.8-6.95,2.69-3.73,6.31-26.65,6.69-32.3,2.77-40.93-16.99-98.04,24.98-125.4,13.46-8.77,32.11-11.09,47.12-5.04,18.82,7.59,28.59,15.45,34.92,35.53,9.29,29.47.69,61.93,2.63,92.19.47,7.27,2.99,25.94,5.81,32.13,2.24,4.92,17.05,7.42,22.68,9.84,38.71,16.6,30.56,64.69,32.56,98.85,2,34.21,6.92,53.9,15.57,86.04,9.18,34.13,6.98,77.83,17.3,108.69,2.54,7.61,11.15,14.44,14.79,21.79,4.61,9.31,5.66,21.46,11.28,30.6,1.68,7.37-11.32,4.48-14.23.13v31.83c0,.54-3.23,5.1-4.07,5.51-1.95.96-4.85-1.3-5.4-.78-.18.17-.03,3.08-1.3,4.79-3.48,4.69-4.62-.45-6.9-1.35s-5.02-.42-6.73-1.4c-2.62-1.5-3.01-9.02-4.34-9.9-1.01-.68-3.54-.03-5.11-.93-3.56-2.05-7.82-37.29-8.15-43.37-.6-10.92,2.26-23.81.98-33.51-3.53-26.72-23.38-61.07-30.42-88.78-6.69-26.31-6.76-54.85-14.35-81.85-.39-1.4-.33-4.1-2.28-3.78-1.79,18.97-8.49,38.32-6.77,57.54,1.28,14.33,10.78,30.37,15.25,44.36,14,43.79,18.92,92.73,13.01,138.37-7.59,58.62-30.87,110.5-28.34,170.92.82,19.49,4.16,38.31,2.75,58.18-3.2,44.95-25.48,86.04-22.58,132.6.91,14.66,24.42,33.66,23.94,42.07-.28,4.95-7.24,8.67-11.42,10.34-6.12,2.44-18.31,4.36-24.82,5.11-8.28.95-15.92-8.33-17.64-15.64-.69-2.93.22-6.18-.57-8.92-.64-2.21-3.85-3.69-4.99-5.85-4.26-8.1,1.08-16.13,1.28-24.21.3-12.25.54-14.15,2.28-26.09,5.57-38.32-8.4-80.11-6.42-118.85.47-9.21,3.45-19.63,4.03-28.48,1.51-22.96-5.56-44.9-6.81-67.66-1.17-21.33,2.26-42.68,1.47-63.78-.58-15.63-3.62-31.65-4.18-47.3-.46-13.1-.1-26.3,1.49-39.26-12.55-4.96-6.96,3.5-6.8,10.7.48,21.6-2.37,41.44-2.82,62.32-.6,27.18,1.64,55.86.11,82.75-1.19,20.9-8.23,39.59-6.81,60.89.55,8.23,3.46,17.54,4.03,25.77,2.73,39.55-10.7,80.54-6.75,120.54.53,5.39,3.75,11.71,3.98,16.45.22,4.47-1.65,9.26-1.33,14.76.39,6.79,4.48,12.81,2.01,19.54-.99,2.72-5.12,5.52-5.75,7.79-2.46,8.8,1.28,13.06-8.52,21.29-7.24,6.08-9.47,2.1-15.44,1.41-6.83-.78-10.45-.13-17.92-3.08-26.72-10.57-1.88-24.71,6.4-40.19,6.02-11.26,3.24-10.13,3.9-20.35,2.65-40.96-15.72-77.33-20.18-117.88-3.68-33.47,3.19-65.52,1.4-98.94-1.86-34.8-16.21-73.63-22.68-108.73-9.73-52.83-10.62-95.62,2.68-148.19,5.99-23.68,22.44-49.97,21.27-73.54-.78-15.77-6.36-32.2-6.77-48.1-1.85-.34-2.06,2.42-2.34,3.73-6.11,28.91-8.01,61.07-15.65,88.68-9.44,34.09-33.23,69.24-26.67,104.63l-6.08,52.29c-2.07,6.27-7.19,2.92-8.73,4.15-.44.35-1.84,9.72-3.07,10.48s-3.98-.21-5.56.48c-2.91,1.26-4.93,6.08-8.81,2.1-1.31-1.34-1.48-4.94-1.7-5.1-.7-.5-3.63,1.91-5.42.81-.71-.43-4.05-7.68-4.05-8.25v-27.77ZM433.22,34.86c-2.37-2.09-22.02-11.41-25.2-12.06-28.66-5.9-52.08,10.74-60.05,37.66-8.76,29.61.76,57.48-.95,87.11-.66,11.44-3.98,23.16-5.46,34.49,12.23-5.24,26.73-11.46,28.45-26.41,1.75-15.23-2.17-16.14-7.44-27.79-1.11-2.45-1.88-8.67-2.34-9.19-.5-.58-3.38-.5-5.21-2.22-3.53-3.31-8.06-23.1-5.46-26.97,1.37-2.04,5.37-1.48,7.54-3.63,4.1-4.07,4.53-10.36,12.46-15.99,15.17-10.78,40.75-7.34,47.89-27.33,4.14,1.43,2.06,6.64,3,9.85,2.56,8.72,11.87,15.36,15.14,22.8,1.28,2.91,1.71,9.38,2.8,10.75,2.32,2.9,6.91-1.95,7.53,7.43.42,6.28-2.04,17.6-6.07,22.43-6.2,7.43-5.85,7.91-9.57,17.49-1.08,2.79-3.81,4.94-4.44,7.75-4.79,21.12,8.34,35.74,28.17,39.67-1.25-11.51-4.79-22.88-5.47-34.48-1.89-32.17,12.76-86.62-15.32-111.35ZM417.41,50.65c-23.19,21.65-62.83,8.89-57.88,53.13,1.66,14.8,7.53,30.79,18.57,41.05,37.47,34.86,70.35-38.66,54.01-70.25-3.96-7.65-14.14-13.79-14.7-23.92ZM355.09,89.94c-8.37,1.17-1.2,22.56,4.06,25.73l-4.06-25.73ZM443.17,89.94c-6.28.06-3.5,8.2-4.22,12.7-.7,4.37-2.27,8.59-2.54,13.03,5.06-1.7,8.8-24.21,6.75-25.73ZM268.37,536.97v24.38c3.39.23,2.32.34,2.68-2.04,1.43-9.63,3.15-20.21,4.09-29.81,2.53-25.84-1.93-38.95,6.42-65.38,7.47-23.63,20.05-48.09,25.22-72.32,2.95-13.84,2.95-28.15,5.35-42.06,2.69-15.56,9.78-35.48,10.36-50.75.19-4.9-3.52-11.47-3.95-17.4-.62-8.59,2.62-13.87,2.67-20.3.05-6.12-3.44-13.51-4.04-19.64,1.96-.2,2.19,3.19,2.71,4.71,1.28,3.72,2.29,7.62,2.7,11.55l2.69-1.37c-5.59,18.56-6.51,43.88,15.31,51.77,13.1,4.73,22.76.71,34.83-4.33-13.09,13.19-35.9,11.91-48.77-1.37,2.33,24.86,13.36,53.73,7.16,78.29-2.99,11.84-10.13,24.3-14,36.12-11.76,35.86-18.28,83.04-14.85,120.61,6.03,65.92,32.58,121.68,29.86,189.72-.68,16.95-3.81,32.34-2.83,50.13,2.59,46.96,25.01,90.56,22.62,137.91-.83,16.4-20.6,29.05-23.91,44.22,5.13.59,1.98-9.01,8.12-8.11-3.13,2.06-5.2,16.09-.02,12.18.59-.45,3.49-11.97,8.15-10.82-1.81,1.88-9.41,11.83-3.39,12.18,5.65.33,2.21-1.66,4.11-5.34.94-1.82,4.17-4.38,6.05-5.49.75,2.92-2.49,3.6-3.36,5.43-2.76,5.84,2.5,10.5,4.72,8.12.28-.3-.2-5.12,1.03-6.43l7.1-8.47c2.34,5.45-6.66,7.8-5.33,12.67,1.21,4.4,9.61,4.22,12.88.93.34-.34,5.31-7.56,5.43-8.03,1.56-5.96,1.17-15.41,1.94-21.82l1.35,5.42c2.72.36,2.22.24,3.05-1.68,3.17-7.32-1.73-14.83-1.81-22.04-.15-13.51-1.61-18.75-2.65-31.09-3.38-40.02,9.7-80.4,6.81-120.6-.57-7.88-3.47-16.68-4.03-24.42-1.38-19.23,5.53-37.81,6.74-56.89,1.31-20.66-1.54-41.79-1.21-62.16.44-26.43,10.1-75.07,1.87-98.33-2.49-7.04-8.83-12.1-11.47-19,11.37,8.07,7.66,18.54,25.14,16.33,7.09-.9,8.69-13.31,15.48-16.33-2.14,6.5-7.51,11.18-10.14,17.62-9.42,23.04.43,71.93.78,98.2.27,19.96-2.75,40.71-1.52,61.02,1.24,20.51,8.26,40.11,6.81,60.88-.57,8.1-3.46,17.44-4.03,25.77-2.05,30.18,5.53,59.45,6.82,89.34.87,20.08-2.75,38.85-2.66,58.3.04,7.94-7.17,18.75.58,25.06l2.01-5.4c-3.12,8.94,5.36,39.98,18.19,31.03,6.97-4.86-4.21-8.21-3.26-13.42l6.47,5.7c-1.73,6.77,6.06,11.72,7.14,4.41.64-4.31-2.59-5.22-2.77-8.76,3.87,1.87,6.02,5.12,5.41,9.49,10.33-.16,3.02-7.54,0-12.19,2.21-2.29,8.41,8.27,6.78,10.82,8.92-1.62.94-9.17,0-13.55,3.52,1.87,6.33,5.45,6.78,9.48,7.27-4.32-6.61-15.26-10.09-20.41-3.91-5.79-10.79-16.99-11.13-23.82-2.3-45.63,18.26-87.53,22.54-132.57,2.07-21.73-1.79-39.81-2.75-60.89-2.61-57.36,20.58-110.76,28.32-166.87,6.46-46.9,1.41-96.89-13.67-141.73-3.15-9.36-8.77-19.7-11.49-29.15-7.58-26.36,2.27-53.99,6.38-80.21-4.91,1.66-8.33,5.74-13.56,7.43-13.12,4.25-28.21,1.18-37.93-8.78,13.47,6.27,24.67,11.15,39.3,4.73,21.75-9.54,19.51-38.1,10.84-56.21l5.41,6.75c.27-3.54.75-10.04,4.07-12.18.54,4.72-2.46,9.98-2.55,14.36-.14,7.2,3.35,13.48,2.42,22.75-3.25,32.12,2.42,44.52,7.91,75.01,1.73,9.62,1.55,20.63,3.44,30.42,6.18,31.99,24.93,62.79,31.75,94.24,2.83,13.03-.84,15.12-.94,25.34-.13,12.92,4.09,28.41,4.43,41.61l3.69,11.89v-22.35c0-.3,2.34-2.48,2.7-2.03,1.41,5.14,3.36,33.17,5.45,35.22,1.97,1.92,2.45-.12,2.69-2,1.3-10.14-2.78-20.86-1.36-31.18l2.06.65c1.31,12.22,1.46,24.69,4.74,36.59.51.39,2.69-1.78,2.69-2.03v-35.9l3.9,15.75c.25,3.47.07,6.85.56,10.32.3,2.15.28,6.09,3.67,5.08.88-15.11,1.23-30.06-1.64-45.08-1.93-4.54-15.74-5.56-15.96-13.16,4.52,5.36,11.33,5.85,16.29,10.12,5.79,4.99,6.75,13.66,14.2,16.96.95.29.85-1.06.68-2.03-.83-4.74-7.39-22-9.7-26.89-4.86-10.31-12.34-14.76-15.67-26.33-8.01-27.89-7.44-61.96-13.24-91.07-3.42-17.14-10.97-32.72-14.07-49.61-3.33-18.16-4.46-38.27-5.6-56.72-1.6-25.86,3.51-58.49-14.36-80.47-18.48-22.73-79.31-14.36-73.74-59.73-16.3,15.17-31.13,15.48-47.4,0,2.24,52.91-63.91,30.75-80.61,73.18-12.26,31.16-6.59,81.7-11.72,116.97-3.02,20.77-11.76,38.57-15.69,58.82-5.37,27.71-5.02,58.38-11.87,85.67-3.26,12.98-6.65,12.8-12.68,22.55-6.45,10.42-8.23,22.79-13.78,33.64,7.9,1.68,9.1-9.49,14.16-14.3,4.15-3.95,9.46-4.77,13.61-8.07,3.14-2.5,4.32-6.01,7.44-8.13-.15,10.49-18.78,13.62-20.26,21.05-1.96,9.81-2.35,29.14-1.28,39.12.14,1.3.59,5.1,2.57,4.85,2.1-9.55,2.08-19.53,4.13-29.11.5-2.31-1.52-4.04,2.65-3.39-1.62,12.57-2.25,25.41.02,37.92,7.8-9.1,3.5-26.39,6.78-37.92,2.36-.32,1.27,3.07,1.34,4.72.42,10.06-2.89,20.44.67,29.13,5.23-9.36,3.48-21.53,6.07-31.92.57-2.29-1.36-3.94,2.74-3.3Z"/>
    <path d="M446.86,723.51c-.98.81-6.36,3.46-6.38.42,10.26-2.88,8.72-15.06,9.87-23.33.21-1.52.38-6.59,2.31-6.48-1.06,7.75.31,24.32-5.79,29.39Z"/>
    <path d="M352.39,725.26c-12.05-3.82-8.75-21.11-10.83-31.14l3.71,10.49c-.12,9.12.21,14.3,7.12,20.64Z"/>
    <path d="M422.84,722.55c-2.37-1.3-4.15-6.93-4.79-9.41-1.08-4.19-1.42-9.27-1.96-13.6l6.75,23.02Z"/>
    <path d="M440.46,188.84c.03,2.1-4.68,2.25-6.27,2.51-5.63.94-12.36,1.37-18.11,1.52.8-1.87,6.91-2.25,8.97-2.53,4.97-.68,10.38-.49,15.41-1.51Z"/>
    <polygon points="380.84 191.54 373.4 192.87 360.52 190.19 380.84 191.54"/>
    <path d="M372.7,722.55l-.74-4.12,4.81-13.47c1.06,6.43-2.25,11.76-4.07,17.59Z"/>
    <path d="M410.64,179.33h-1.33c-1.05-2.23,1.82-9.98,2.68-8.11l-1.36,8.11Z"/>
    <path d="M402.52,195.61c-.66,2.6-3,3.05-5.41,2.68-1.4-.65,3.65-3.23,5.41-2.68Z"/>
    <path d="M388.97,81.83c.13.16.13,3.88,0,4.03-.57.65-11.34-4.04-14.27-4.13-4.52-.14-6.19,2.26-10.11,2.77,1.32-8,22.91-4.47,24.39-2.67Z"/>
    <path d="M430.98,81.82c5.48,4.95-8.15-.06-8.82-.11-5.34-.4-7.64,1.76-11.92,3.08-2.51.78-2.87,1.99-4.98-.96.07-1.63,10.71-4.68,12.89-4.81,1.9-.11,12.2,2.22,12.83,2.79Z"/>
    <path class="cls-5" d="M367,91.84c7.75-6.21,14.21-5.29,19.39,2.79-10.25,3.14-16.71,2.21-19.39-2.79Z"/>
    <circle class="cls-3" cx="376.56" cy="92.34" r="4.11"/>
    <circle class="cls-3" cx="415.76" cy="92.69" r="4.11"/>
    <path class="cls-5" d="M406.43,93.77c5.04-6.83,11.79-7.39,20.25-1.65-6.32,5.93-13.04,6.85-20.25,1.65Z"/>
    <line class="cls-5" x1="399.86" y1="90.25" x2="399.86" y2="103.91"/>
    <path class="cls-5" d="M387.7,113.02l.18,1.25c.11.82.26,1.7.87,2.27.91.84,2.37.54,3.51.07.21-.09.44-.18.67-.16.4.05.66.43.92.73.93,1.07,2.58,1.42,3.86.82,1.18-.55,2.09-1.82,3.39-1.84.77-.01,1.46.42,2.19.66s1.69.19,2.06-.48c.14-.25.17-.54.19-.82.1-1.01.09-2.24-.78-2.77"/>
    <path class="cls-5" d="M410.4,131.17c.2,0,.26-.28.08-.36-2.17-.97-4.35-1.94-6.52-2.9-1.12-.5-2.31-1.01-3.53-.88-1.3.14-2.48,1.01-3.79.94-1.01-.05-1.91-.65-2.9-.87-1.29-.28-2.63.11-3.89.51-2.08.68-4.14,1.42-6.18,2.24-.18.07-.15.34.04.37,7.31,1.08,16.54,1.24,26.7.95Z"/>
    <path class="cls-5" d="M382.69,129.76c8.32,10.16,19.89,9.75,27.78,1.04"/>
    <circle class="cls-1" cx="344.27" cy="279.63" r="2.71"/>
    <circle class="cls-1" cx="448.82" cy="279.63" r="2.71"/>
  </g>
  <g id="female">
    <line class="cls-4" x1="494.74" y1="37.09" x2="440.08" y2="54.07"/>
    <line class="cls-4" x1="292.9" y1="54.64" x2="367" y2="91.84"/>
    <line class="cls-4" x1="265.57" y1="103.91" x2="387.7" y2="113.02"/>
    <line class="cls-4" x1="211.58" y1="190.5" x2="388.76" y2="135.49"/>
    <line class="cls-4" x1="82.95" y1="259.92" x2="340.38" y2="279.61"/>
    <line class="cls-4" x1="168.88" y1="347.4" x2="329.49" y2="347.27"/>
    <line class="cls-4" x1="189.3" y1="467.65" x2="303.57" y2="469.41"/>
    <line class="cls-4" x1="494.74" y1="156.81" x2="402.52" y2="167.96"/>
    <line class="cls-4" x1="531.94" y1="246.38" x2="451.69" y2="268.77"/>
    <line class="cls-4" x1="559.17" y1="343.08" x2="517.44" y2="352.12"/>
    <line class="cls-4" x1="573.37" y1="462.1" x2="496.57" y2="478.01"/>
    <line class="cls-4" x1="509.09" y1="776.89" x2="468.53" y2="777.7"/>
    <line class="cls-4" x1="493.14" y1="920.78" x2="412.15" y2="935.39"/>
    <line class="cls-4" x1="573.23" y1="592.27" x2="556.4" y2="575.34"/>
    <polyline class="cls-4" points="144.05 594.18 291.19 594.18 390.4 523.55"/>
    <line class="cls-4" x1="211.67" y1="753.09" x2="325.04" y2="756.29"/>
    <line class="cls-4" x1="287.58" y1="928.09" x2="337.27" y2="933.81"/>
  </g>
  <g id="female-2" data-name="female">
    <g>
      <path class="cls-1" d="M513.77,12.45h2.29v7.85h.05c.36-.65.94-1.22,1.64-1.61.68-.39,1.48-.65,2.34-.65,1.69,0,4.39,1.04,4.39,5.38v7.49h-2.29v-7.23c0-2.03-.75-3.74-2.91-3.74-1.48,0-2.65,1.04-3.07,2.29-.13.31-.16.65-.16,1.09v7.59h-2.29V12.45Z"/>
      <path class="cls-1" d="M535.17,30.91l-.18-1.59h-.08c-.7.99-2.05,1.87-3.85,1.87-2.55,0-3.85-1.79-3.85-3.61,0-3.04,2.7-4.71,7.57-4.68v-.26c0-1.04-.29-2.91-2.86-2.91-1.17,0-2.39.36-3.28.94l-.52-1.51c1.04-.68,2.55-1.12,4.13-1.12,3.85,0,4.78,2.63,4.78,5.15v4.71c0,1.09.05,2.16.21,3.02h-2.08ZM534.83,24.49c-2.5-.05-5.33.39-5.33,2.83,0,1.48.99,2.18,2.16,2.18,1.64,0,2.68-1.04,3.04-2.11.08-.23.13-.49.13-.73v-2.18Z"/>
      <path class="cls-1" d="M543.28,14.79c.03.78-.55,1.4-1.46,1.4-.81,0-1.38-.62-1.38-1.4s.6-1.43,1.43-1.43,1.4.62,1.4,1.43ZM540.74,30.91v-12.58h2.29v12.58h-2.29Z"/>
      <path class="cls-1" d="M546.82,22.25c0-1.48-.03-2.76-.1-3.93h2l.08,2.47h.1c.57-1.69,1.95-2.76,3.48-2.76.26,0,.44.03.65.08v2.16c-.23-.05-.47-.08-.78-.08-1.61,0-2.76,1.22-3.07,2.94-.05.31-.1.68-.1,1.07v6.71h-2.26v-8.66Z"/>
      <path class="cls-1" d="M511.88,34.16v-1.3h41.55v1.3h-41.55Z"/>
      <path class="cls-2" d="M513.77,43.65h2.29v18.46h-2.29v-18.46Z"/>
      <path class="cls-2" d="M521.18,56.24c.05,3.09,2.03,4.37,4.32,4.37,1.64,0,2.63-.29,3.48-.65l.39,1.64c-.81.36-2.18.78-4.19.78-3.87,0-6.19-2.55-6.19-6.34s2.24-6.79,5.9-6.79c4.11,0,5.2,3.61,5.2,5.93,0,.47-.05.83-.08,1.07h-8.84ZM527.89,54.6c.03-1.46-.6-3.72-3.17-3.72-2.31,0-3.33,2.13-3.51,3.72h6.68Z"/>
      <path class="cls-2" d="M532.62,59.77c.68.44,1.87.91,3.02.91,1.66,0,2.44-.83,2.44-1.87,0-1.09-.65-1.69-2.34-2.31-2.26-.81-3.33-2.05-3.33-3.56,0-2.03,1.64-3.69,4.34-3.69,1.27,0,2.39.36,3.09.78l-.57,1.66c-.49-.31-1.4-.73-2.57-.73-1.35,0-2.11.78-2.11,1.72,0,1.04.75,1.51,2.39,2.13,2.18.83,3.3,1.92,3.3,3.8,0,2.21-1.72,3.77-4.71,3.77-1.38,0-2.65-.34-3.54-.86l.57-1.74Z"/>
      <path class="cls-2" d="M557.71,61.64c-.6.31-1.92.73-3.61.73-3.8,0-6.27-2.57-6.27-6.42s2.65-6.68,6.76-6.68c1.35,0,2.55.34,3.17.65l-.52,1.77c-.55-.31-1.4-.6-2.65-.6-2.89,0-4.45,2.13-4.45,4.76,0,2.91,1.87,4.71,4.37,4.71,1.3,0,2.16-.34,2.81-.62l.39,1.72Z"/>
      <path class="cls-2" d="M560.39,43.65h2.29v7.85h.05c.36-.65.94-1.22,1.64-1.61.68-.39,1.48-.65,2.34-.65,1.69,0,4.39,1.04,4.39,5.38v7.49h-2.29v-7.23c0-2.03-.75-3.74-2.91-3.74-1.48,0-2.65,1.04-3.07,2.29-.13.31-.16.65-.16,1.09v7.59h-2.29v-18.46Z"/>
      <path class="cls-2" d="M576.09,56.24c.05,3.09,2.03,4.37,4.32,4.37,1.64,0,2.63-.29,3.48-.65l.39,1.64c-.81.36-2.18.78-4.19.78-3.87,0-6.19-2.55-6.19-6.34s2.24-6.79,5.9-6.79c4.11,0,5.2,3.61,5.2,5.93,0,.47-.05.83-.08,1.07h-8.84ZM582.8,54.6c.03-1.46-.6-3.72-3.17-3.72-2.31,0-3.33,2.13-3.51,3.72h6.68Z"/>
      <path class="cls-2" d="M588.73,49.53l2.47,7.07c.42,1.14.75,2.18,1.01,3.22h.08c.29-1.04.65-2.08,1.07-3.22l2.44-7.07h2.39l-4.94,12.58h-2.18l-4.78-12.58h2.44Z"/>
      <path class="cls-2" d="M601.37,56.24c.05,3.09,2.03,4.37,4.32,4.37,1.64,0,2.63-.29,3.48-.65l.39,1.64c-.81.36-2.18.78-4.19.78-3.87,0-6.19-2.55-6.19-6.34s2.24-6.79,5.9-6.79c4.11,0,5.2,3.61,5.2,5.93,0,.47-.05.83-.08,1.07h-8.84ZM608.07,54.6c.03-1.46-.6-3.72-3.17-3.72-2.31,0-3.33,2.13-3.51,3.72h6.68Z"/>
      <path class="cls-2" d="M623.65,58.68c0,1.3.03,2.44.1,3.43h-2.03l-.13-2.05h-.05c-.6,1.01-1.92,2.34-4.16,2.34-1.98,0-4.34-1.09-4.34-5.51v-7.36h2.29v6.97c0,2.39.73,4,2.81,4,1.53,0,2.6-1.07,3.02-2.08.13-.34.21-.75.21-1.17v-7.72h2.29v9.15Z"/>
      <path class="cls-2" d="M628.51,49.53l1.79,2.7c.47.7.86,1.35,1.27,2.05h.08c.42-.75.83-1.4,1.25-2.08l1.77-2.68h2.47l-4.29,6.08,4.42,6.5h-2.6l-1.85-2.83c-.49-.73-.91-1.43-1.35-2.18h-.05c-.42.75-.86,1.43-1.33,2.18l-1.82,2.83h-2.52l4.47-6.42-4.26-6.16h2.55Z"/>
    </g>
    <g>
      <path class="cls-1" d="M204.65,100.24c0-1.3-.03-2.37-.1-3.41h2.03l.13,2.08h.05c.62-1.2,2.08-2.37,4.16-2.37,1.74,0,4.45,1.04,4.45,5.36v7.51h-2.29v-7.25c0-2.03-.75-3.72-2.91-3.72-1.51,0-2.68,1.07-3.07,2.34-.1.29-.16.68-.16,1.07v7.57h-2.29v-9.18Z"/>
      <path class="cls-1" d="M230.47,103.02c0,4.65-3.22,6.68-6.27,6.68-3.41,0-6.03-2.5-6.03-6.47,0-4.21,2.76-6.68,6.24-6.68s6.06,2.63,6.06,6.47ZM220.48,103.15c0,2.76,1.59,4.84,3.82,4.84s3.82-2.05,3.82-4.89c0-2.13-1.07-4.84-3.77-4.84s-3.87,2.5-3.87,4.89Z"/>
      <path class="cls-1" d="M233.04,107.08c.68.44,1.87.91,3.02.91,1.66,0,2.44-.83,2.44-1.87,0-1.09-.65-1.69-2.34-2.31-2.26-.81-3.33-2.05-3.33-3.56,0-2.03,1.64-3.69,4.34-3.69,1.27,0,2.39.36,3.09.78l-.57,1.66c-.49-.31-1.4-.73-2.57-.73-1.35,0-2.11.78-2.11,1.72,0,1.04.75,1.51,2.39,2.13,2.18.83,3.3,1.92,3.3,3.8,0,2.21-1.72,3.77-4.71,3.77-1.38,0-2.65-.34-3.54-.86l.57-1.74Z"/>
      <path class="cls-1" d="M244.92,103.54c.05,3.09,2.03,4.37,4.32,4.37,1.64,0,2.63-.29,3.48-.65l.39,1.64c-.81.36-2.18.78-4.19.78-3.87,0-6.19-2.55-6.19-6.34s2.24-6.79,5.9-6.79c4.11,0,5.2,3.61,5.2,5.93,0,.47-.05.83-.08,1.07h-8.84ZM251.63,101.9c.03-1.46-.6-3.72-3.17-3.72-2.31,0-3.33,2.13-3.51,3.72h6.68Z"/>
      <path class="cls-1" d="M202.75,112.67v-1.3h52.03v1.3h-52.03Z"/>
      <path class="cls-2" d="M204.65,122.16h2.29v18.46h-2.29v-18.46Z"/>
      <path class="cls-2" d="M212.06,134.74c.05,3.09,2.03,4.37,4.32,4.37,1.64,0,2.63-.29,3.48-.65l.39,1.64c-.81.36-2.18.78-4.19.78-3.87,0-6.19-2.55-6.19-6.34s2.24-6.79,5.9-6.79c4.11,0,5.2,3.61,5.2,5.93,0,.47-.05.83-.08,1.07h-8.84ZM218.77,133.1c.03-1.46-.6-3.72-3.17-3.72-2.31,0-3.33,2.13-3.51,3.72h6.68Z"/>
      <path class="cls-2" d="M229.32,131.44c0-1.3-.03-2.37-.1-3.41h2.03l.13,2.08h.05c.62-1.2,2.08-2.37,4.16-2.37,1.74,0,4.45,1.04,4.45,5.36v7.51h-2.29v-7.25c0-2.03-.75-3.72-2.91-3.72-1.51,0-2.68,1.07-3.07,2.34-.1.29-.16.68-.16,1.07v7.57h-2.29v-9.18Z"/>
      <path class="cls-2" d="M245.03,134.74c.05,3.09,2.03,4.37,4.32,4.37,1.64,0,2.63-.29,3.48-.65l.39,1.64c-.81.36-2.18.78-4.19.78-3.87,0-6.19-2.55-6.19-6.34s2.24-6.79,5.9-6.79c4.11,0,5.2,3.61,5.2,5.93,0,.47-.05.83-.08,1.07h-8.84ZM251.73,133.1c.03-1.46-.6-3.72-3.17-3.72-2.31,0-3.33,2.13-3.51,3.72h6.68Z"/>
      <path class="cls-2" d="M255.35,139.29l5.69-7.41c.55-.68,1.07-1.27,1.64-1.95v-.05h-6.81v-1.85h9.59l-.03,1.43-5.62,7.31c-.52.7-1.04,1.33-1.61,1.98v.05h7.36v1.82h-10.22v-1.33Z"/>
    </g>
    <g>
      <path class="cls-1" d="M122.83,179.66c0-1.3-.03-2.37-.1-3.41h2l.1,2.03h.08c.7-1.2,1.87-2.31,3.95-2.31,1.72,0,3.02,1.04,3.56,2.52h.05c.39-.7.88-1.25,1.4-1.64.75-.57,1.59-.88,2.78-.88,1.66,0,4.13,1.09,4.13,5.46v7.41h-2.24v-7.12c0-2.42-.88-3.87-2.73-3.87-1.3,0-2.31.96-2.7,2.08-.1.31-.18.73-.18,1.14v7.77h-2.24v-7.54c0-2-.88-3.46-2.63-3.46-1.43,0-2.47,1.14-2.83,2.29-.13.34-.18.73-.18,1.12v7.59h-2.24v-9.18Z"/>
      <path class="cls-1" d="M155.9,182.44c0,4.65-3.22,6.68-6.27,6.68-3.41,0-6.03-2.5-6.03-6.47,0-4.21,2.76-6.68,6.24-6.68s6.06,2.63,6.06,6.47ZM145.92,182.57c0,2.76,1.59,4.84,3.82,4.84s3.82-2.05,3.82-4.89c0-2.13-1.07-4.84-3.77-4.84s-3.87,2.5-3.87,4.89Z"/>
      <path class="cls-1" d="M169.32,185.4c0,1.3.03,2.44.1,3.43h-2.03l-.13-2.05h-.05c-.6,1.01-1.92,2.34-4.16,2.34-1.98,0-4.34-1.09-4.34-5.51v-7.36h2.29v6.97c0,2.39.73,4,2.81,4,1.53,0,2.6-1.07,3.02-2.08.13-.34.21-.75.21-1.17v-7.72h2.29v9.15Z"/>
      <path class="cls-1" d="M175.87,172.64v3.61h3.28v1.74h-3.28v6.79c0,1.56.44,2.44,1.72,2.44.6,0,1.04-.08,1.33-.16l.1,1.72c-.44.18-1.14.31-2.03.31-1.07,0-1.92-.34-2.47-.96-.65-.68-.88-1.79-.88-3.28v-6.86h-1.95v-1.74h1.95v-3.02l2.24-.6Z"/>
      <path class="cls-1" d="M181.72,170.38h2.29v7.85h.05c.36-.65.94-1.22,1.64-1.61.68-.39,1.48-.65,2.34-.65,1.69,0,4.39,1.04,4.39,5.38v7.49h-2.29v-7.23c0-2.03-.75-3.74-2.91-3.74-1.48,0-2.65,1.04-3.07,2.29-.13.31-.16.65-.16,1.09v7.59h-2.29v-18.46Z"/>
      <path class="cls-1" d="M120.93,192.08v-1.3h73.32v1.3h-73.32Z"/>
      <path class="cls-2" d="M122.83,201.58h2.29v18.46h-2.29v-18.46Z"/>
      <path class="cls-2" d="M135.93,220.04l-.18-1.59h-.08c-.7.99-2.05,1.87-3.85,1.87-2.55,0-3.85-1.79-3.85-3.61,0-3.04,2.7-4.71,7.57-4.68v-.26c0-1.04-.29-2.91-2.86-2.91-1.17,0-2.39.36-3.28.94l-.52-1.51c1.04-.68,2.55-1.12,4.13-1.12,3.85,0,4.78,2.63,4.78,5.15v4.71c0,1.09.05,2.16.21,3.02h-2.08ZM135.59,213.61c-2.5-.05-5.33.39-5.33,2.83,0,1.48.99,2.18,2.16,2.18,1.64,0,2.68-1.04,3.04-2.11.08-.23.13-.49.13-.73v-2.18Z"/>
      <path class="cls-2" d="M146.9,220.04c.05-.86.1-2.13.1-3.25v-15.21h2.26v7.9h.05c.81-1.4,2.26-2.31,4.29-2.31,3.12,0,5.33,2.6,5.3,6.42,0,4.5-2.83,6.73-5.64,6.73-1.82,0-3.28-.7-4.21-2.37h-.08l-.1,2.08h-1.98ZM149.27,214.99c0,.29.05.57.1.83.44,1.59,1.77,2.68,3.43,2.68,2.39,0,3.82-1.95,3.82-4.84,0-2.52-1.3-4.68-3.74-4.68-1.56,0-3.02,1.07-3.48,2.81-.05.26-.13.57-.13.94v2.26Z"/>
      <path class="cls-2" d="M173.19,213.64c0,4.65-3.22,6.68-6.27,6.68-3.41,0-6.03-2.5-6.03-6.47,0-4.21,2.76-6.68,6.24-6.68s6.06,2.63,6.06,6.47ZM163.2,213.77c0,2.76,1.59,4.84,3.82,4.84s3.82-2.05,3.82-4.89c0-2.13-1.07-4.84-3.77-4.84s-3.87,2.5-3.87,4.89Z"/>
      <path class="cls-2" d="M186.6,216.6c0,1.3.03,2.44.1,3.43h-2.03l-.13-2.05h-.05c-.6,1.01-1.92,2.34-4.16,2.34-1.98,0-4.34-1.09-4.34-5.51v-7.36h2.29v6.97c0,2.39.73,4,2.81,4,1.53,0,2.6-1.07,3.02-2.08.13-.34.21-.75.21-1.17v-7.72h2.29v9.15Z"/>
      <path class="cls-2" d="M199.37,219.57c-.6.31-1.92.73-3.61.73-3.8,0-6.27-2.57-6.27-6.42s2.65-6.68,6.76-6.68c1.35,0,2.55.34,3.17.65l-.52,1.77c-.55-.31-1.4-.6-2.65-.6-2.89,0-4.45,2.13-4.45,4.76,0,2.91,1.87,4.71,4.37,4.71,1.3,0,2.16-.34,2.81-.62l.39,1.72Z"/>
      <path class="cls-2" d="M202.05,201.58h2.29v7.85h.05c.36-.65.94-1.22,1.64-1.61.68-.39,1.48-.65,2.34-.65,1.69,0,4.39,1.04,4.39,5.38v7.49h-2.29v-7.23c0-2.03-.75-3.74-2.91-3.74-1.48,0-2.65,1.04-3.07,2.29-.13.31-.16.65-.16,1.09v7.59h-2.29v-18.46Z"/>
      <path class="cls-2" d="M217.75,214.16c.05,3.09,2.03,4.37,4.32,4.37,1.64,0,2.63-.29,3.48-.65l.39,1.64c-.81.36-2.18.78-4.19.78-3.87,0-6.19-2.55-6.19-6.34s2.24-6.79,5.9-6.79c4.11,0,5.2,3.61,5.2,5.93,0,.47-.05.83-.08,1.07h-8.84ZM224.46,212.52c.03-1.46-.6-3.72-3.17-3.72-2.31,0-3.33,2.13-3.51,3.72h6.68Z"/>
    </g>
    <g>
      <path class="cls-1" d="M159.55,11.93c.05,3.09,2.03,4.37,4.32,4.37,1.64,0,2.63-.29,3.48-.65l.39,1.64c-.81.36-2.18.78-4.19.78-3.87,0-6.19-2.55-6.19-6.34s2.24-6.79,5.9-6.79c4.11,0,5.2,3.61,5.2,5.93,0,.47-.05.83-.08,1.07h-8.84ZM166.26,10.3c.03-1.46-.6-3.72-3.17-3.72-2.31,0-3.33,2.13-3.51,3.72h6.68Z"/>
      <path class="cls-1" d="M172.14,5.23l2.76,7.44c.29.83.6,1.82.81,2.57h.05c.23-.75.49-1.72.81-2.63l2.5-7.38h2.42l-3.43,8.97c-1.64,4.32-2.76,6.53-4.32,7.88-1.12.99-2.24,1.38-2.81,1.48l-.57-1.92c.57-.18,1.33-.55,2-1.12.62-.49,1.4-1.38,1.92-2.55.1-.23.18-.42.18-.55s-.05-.31-.16-.6l-4.65-11.6h2.5Z"/>
      <path class="cls-1" d="M184.57,11.93c.05,3.09,2.03,4.37,4.32,4.37,1.64,0,2.63-.29,3.48-.65l.39,1.64c-.81.36-2.18.78-4.19.78-3.87,0-6.19-2.55-6.19-6.34s2.24-6.79,5.9-6.79c4.11,0,5.2,3.61,5.2,5.93,0,.47-.05.83-.08,1.07h-8.84ZM191.27,10.3c.03-1.46-.6-3.72-3.17-3.72-2.31,0-3.33,2.13-3.51,3.72h6.68Z"/>
      <path class="cls-1" d="M194.39,18.85l7.25-18.85h1.77l-7.28,18.85h-1.74Z"/>
      <path class="cls-1" d="M206.51,11.93c.05,3.09,2.03,4.37,4.32,4.37,1.64,0,2.63-.29,3.48-.65l.39,1.64c-.81.36-2.18.78-4.19.78-3.87,0-6.19-2.55-6.19-6.34s2.24-6.79,5.9-6.79c4.11,0,5.2,3.61,5.2,5.93,0,.47-.05.83-.08,1.07h-8.84ZM213.22,10.3c.03-1.46-.6-3.72-3.17-3.72-2.31,0-3.33,2.13-3.51,3.72h6.68Z"/>
      <path class="cls-1" d="M219.09,5.23l2.76,7.44c.29.83.6,1.82.81,2.57h.05c.23-.75.49-1.72.81-2.63l2.5-7.38h2.42l-3.43,8.97c-1.64,4.32-2.76,6.53-4.32,7.88-1.12.99-2.24,1.38-2.81,1.48l-.57-1.92c.57-.18,1.33-.55,2-1.12.62-.49,1.4-1.38,1.92-2.55.1-.23.18-.42.18-.55s-.05-.31-.16-.6l-4.65-11.6h2.5Z"/>
      <path class="cls-1" d="M231.52,11.93c.05,3.09,2.03,4.37,4.32,4.37,1.64,0,2.63-.29,3.48-.65l.39,1.64c-.81.36-2.18.78-4.19.78-3.87,0-6.19-2.55-6.19-6.34s2.24-6.79,5.9-6.79c4.11,0,5.2,3.61,5.2,5.93,0,.47-.05.83-.08,1.07h-8.84ZM238.23,10.3c.03-1.46-.6-3.72-3.17-3.72-2.31,0-3.33,2.13-3.51,3.72h6.68Z"/>
      <path class="cls-1" d="M242.96,15.47c.68.44,1.87.91,3.02.91,1.66,0,2.44-.83,2.44-1.87,0-1.09-.65-1.69-2.34-2.31-2.26-.81-3.33-2.05-3.33-3.56,0-2.03,1.64-3.69,4.34-3.69,1.27,0,2.39.36,3.09.78l-.57,1.66c-.49-.31-1.4-.73-2.57-.73-1.35,0-2.11.78-2.11,1.72,0,1.04.75,1.51,2.39,2.13,2.18.83,3.3,1.92,3.3,3.8,0,2.21-1.72,3.77-4.71,3.77-1.38,0-2.65-.34-3.54-.86l.57-1.74Z"/>
      <path class="cls-1" d="M156.38,21.06v-1.3h95.29v1.3h-95.29Z"/>
      <path class="cls-2" d="M158.28,30.55h2.29v18.46h-2.29v-18.46Z"/>
      <path class="cls-2" d="M167.46,31.2c-.6,2.18-1.72,4.97-2.44,6.16l-1.46.18c.57-1.53,1.25-4.24,1.53-6.11l2.37-.23Z"/>
      <path class="cls-2" d="M178.92,43.11c.03,2.86,1.79,4.39,4.19,4.39,1.56,0,2.52-.34,3.38-.7l.42,1.64c-1.01.57-2.7.86-4.08.86-2.18,0-3.98-.91-4.97-2.96h-.08c-.94,2.03-2.91,2.96-4.86,2.96-3.33,0-5.88-2.52-5.88-6.5s2.65-6.66,6.03-6.66c2.13,0,3.98,1.09,4.76,3.02h.05c.94-2,2.63-3.02,4.58-3.02,4.03,0,5.1,3.67,5.1,5.9,0,.44-.03.83-.08,1.07h-8.55ZM169.36,42.74c0,2.73,1.56,4.84,3.74,4.84s3.69-1.98,3.69-4.86c0-2.39-1.09-4.86-3.69-4.86-2.76,0-3.74,2.73-3.74,4.89ZM185.35,41.47c.03-1.4-.57-3.67-3.07-3.67-2.26,0-3.22,2.08-3.35,3.67h6.42Z"/>
      <path class="cls-2" d="M192.94,32.89c.03.78-.55,1.4-1.46,1.4-.81,0-1.38-.62-1.38-1.4s.6-1.43,1.43-1.43,1.4.62,1.4,1.43ZM190.39,49.01v-12.58h2.29v12.58h-2.29Z"/>
      <path class="cls-2" d="M196.47,30.55h2.29v18.46h-2.29v-18.46Z"/>
      <path class="cls-2" d="M202.17,29.95c0-1-.02-1.82-.08-2.62h1.54l.08,1.56h.06c.54-.92,1.44-1.78,3.04-1.78,1.32,0,2.32.8,2.74,1.94h.04c.3-.54.68-.96,1.08-1.26.58-.44,1.22-.68,2.14-.68,1.28,0,3.18.84,3.18,4.2v5.7h-1.72v-5.48c0-1.86-.68-2.98-2.1-2.98-1,0-1.78.74-2.08,1.6-.08.24-.14.56-.14.88v5.98h-1.72v-5.8c0-1.54-.68-2.66-2.02-2.66-1.1,0-1.9.88-2.18,1.76-.1.26-.14.56-.14.86v5.84h-1.72v-7.06Z"/>
      <path class="cls-2" d="M217.36,50.05l7.25-18.85h1.77l-7.28,18.85h-1.74Z"/>
      <path class="cls-2" d="M228.21,30.55h2.29v18.46h-2.29v-18.46Z"/>
      <path class="cls-2" d="M235.62,43.13c.05,3.09,2.03,4.37,4.32,4.37,1.64,0,2.63-.29,3.48-.65l.39,1.64c-.81.36-2.18.78-4.19.78-3.87,0-6.19-2.55-6.19-6.34s2.24-6.79,5.9-6.79c4.11,0,5.2,3.61,5.2,5.93,0,.47-.05.83-.08,1.07h-8.84ZM242.32,41.5c.03-1.46-.6-3.72-3.17-3.72-2.31,0-3.33,2.13-3.51,3.72h6.68Z"/>
      <path class="cls-2" d="M247.06,46.67c.68.44,1.87.91,3.02.91,1.66,0,2.44-.83,2.44-1.87,0-1.09-.65-1.69-2.34-2.31-2.26-.81-3.33-2.05-3.33-3.56,0-2.03,1.64-3.69,4.34-3.69,1.27,0,2.39.36,3.09.78l-.57,1.66c-.49-.31-1.4-.73-2.57-.73-1.35,0-2.11.78-2.11,1.72,0,1.04.75,1.51,2.39,2.13,2.18.83,3.3,1.92,3.3,3.8,0,2.21-1.72,3.77-4.71,3.77-1.38,0-2.65-.34-3.54-.86l.57-1.74Z"/>
      <path class="cls-2" d="M264.01,36.43l2.76,7.44c.29.83.6,1.82.81,2.57h.05c.23-.75.49-1.72.81-2.63l2.5-7.38h2.42l-3.43,8.97c-1.64,4.32-2.76,6.53-4.32,7.88-1.12.99-2.24,1.38-2.81,1.48l-.57-1.92c.57-.18,1.33-.55,2-1.12.62-.49,1.4-1.38,1.92-2.55.1-.23.18-.42.18-.55s-.05-.31-.16-.6l-4.65-11.6h2.5Z"/>
      <path class="cls-2" d="M276.44,43.13c.05,3.09,2.03,4.37,4.32,4.37,1.64,0,2.63-.29,3.48-.65l.39,1.64c-.81.36-2.18.78-4.19.78-3.87,0-6.19-2.55-6.19-6.34s2.24-6.79,5.9-6.79c4.11,0,5.2,3.61,5.2,5.93,0,.47-.05.83-.08,1.07h-8.84ZM283.14,41.5c.03-1.46-.6-3.72-3.17-3.72-2.31,0-3.33,2.13-3.51,3.72h6.68Z"/>
      <path class="cls-2" d="M298.72,45.58c0,1.3.03,2.44.1,3.43h-2.03l-.13-2.05h-.05c-.6,1.01-1.92,2.34-4.16,2.34-1.98,0-4.34-1.09-4.34-5.51v-7.36h2.29v6.97c0,2.39.73,4,2.81,4,1.53,0,2.6-1.07,3.02-2.08.13-.34.21-.75.21-1.17v-7.72h2.29v9.15Z"/>
      <path class="cls-2" d="M303.58,36.43l1.79,2.7c.47.7.86,1.35,1.27,2.05h.08c.42-.75.83-1.4,1.25-2.08l1.77-2.68h2.47l-4.29,6.08,4.42,6.5h-2.6l-1.85-2.83c-.49-.73-.91-1.43-1.35-2.18h-.05c-.42.75-.86,1.43-1.33,2.18l-1.82,2.83h-2.52l4.47-6.42-4.26-6.16h2.55Z"/>
    </g>
    <g>
      <path class="cls-1" d="M515.54,141.12c0-1.3-.03-2.37-.1-3.41h2.03l.13,2.08h.05c.62-1.2,2.08-2.37,4.16-2.37,1.74,0,4.45,1.04,4.45,5.36v7.51h-2.29v-7.25c0-2.03-.75-3.72-2.91-3.72-1.51,0-2.68,1.07-3.07,2.34-.1.29-.16.68-.16,1.07v7.57h-2.29v-9.18Z"/>
      <path class="cls-1" d="M531.24,144.42c.05,3.09,2.03,4.37,4.32,4.37,1.64,0,2.63-.29,3.48-.65l.39,1.64c-.81.36-2.18.78-4.19.78-3.87,0-6.19-2.55-6.19-6.34s2.24-6.79,5.9-6.79c4.11,0,5.2,3.61,5.2,5.93,0,.47-.05.83-.08,1.07h-8.84ZM537.95,142.78c.03-1.46-.6-3.72-3.17-3.72-2.31,0-3.33,2.13-3.51,3.72h6.68Z"/>
      <path class="cls-1" d="M551.97,149.83c-.6.31-1.92.73-3.61.73-3.8,0-6.27-2.57-6.27-6.42s2.65-6.68,6.76-6.68c1.35,0,2.55.34,3.17.65l-.52,1.77c-.55-.31-1.4-.6-2.65-.6-2.89,0-4.45,2.13-4.45,4.76,0,2.91,1.87,4.71,4.37,4.71,1.3,0,2.16-.34,2.81-.62l.39,1.72Z"/>
      <path class="cls-1" d="M556.9,143.48h.05c.31-.44.75-.99,1.12-1.43l3.69-4.34h2.76l-4.86,5.17,5.54,7.41h-2.78l-4.34-6.03-1.17,1.3v4.73h-2.26v-18.46h2.26v11.65Z"/>
      <path class="cls-1" d="M513.64,153.55v-1.3h51.3v1.3h-51.3Z"/>
      <path class="cls-2" d="M515.54,163.04h2.29v18.46h-2.29v-18.46Z"/>
      <path class="cls-2" d="M522.95,175.62c.05,3.09,2.03,4.37,4.32,4.37,1.64,0,2.63-.29,3.48-.65l.39,1.64c-.81.36-2.18.78-4.19.78-3.87,0-6.19-2.55-6.19-6.34s2.24-6.79,5.9-6.79c4.11,0,5.2,3.61,5.2,5.93,0,.47-.05.83-.08,1.07h-8.84ZM529.66,173.98c.03-1.46-.6-3.72-3.17-3.72-2.31,0-3.33,2.13-3.51,3.72h6.68Z"/>
      <path class="cls-2" d="M549.18,181.03c-.6.31-1.92.73-3.61.73-3.8,0-6.27-2.57-6.27-6.42s2.65-6.68,6.76-6.68c1.35,0,2.55.34,3.17.65l-.52,1.77c-.55-.31-1.4-.6-2.65-.6-2.89,0-4.45,2.13-4.45,4.76,0,2.91,1.87,4.71,4.37,4.71,1.3,0,2.16-.34,2.81-.62l.39,1.72Z"/>
      <path class="cls-2" d="M563.09,175.1c0,4.65-3.22,6.68-6.27,6.68-3.41,0-6.03-2.5-6.03-6.47,0-4.21,2.76-6.68,6.24-6.68s6.06,2.63,6.06,6.47ZM553.11,175.23c0,2.76,1.59,4.84,3.82,4.84s3.82-2.05,3.82-4.89c0-2.13-1.07-4.84-3.77-4.84s-3.87,2.5-3.87,4.89Z"/>
      <path class="cls-2" d="M576.51,178.06c0,1.3.03,2.44.1,3.43h-2.03l-.13-2.05h-.05c-.6,1.01-1.92,2.34-4.16,2.34-1.98,0-4.34-1.09-4.34-5.51v-7.36h2.29v6.97c0,2.39.73,4,2.81,4,1.53,0,2.6-1.07,3.02-2.08.13-.34.21-.75.21-1.17v-7.72h2.29v9.15Z"/>
    </g>
    <g>
      <path class="cls-1" d="M115.11,725.09h2.29v18.46h-2.29v-18.46Z"/>
      <path class="cls-1" d="M122.52,737.68c.05,3.09,2.03,4.37,4.32,4.37,1.64,0,2.63-.29,3.48-.65l.39,1.64c-.81.36-2.18.78-4.19.78-3.87,0-6.19-2.55-6.19-6.34s2.24-6.79,5.9-6.79c4.11,0,5.2,3.61,5.2,5.93,0,.47-.05.83-.08,1.07h-8.84ZM129.23,736.04c.03-1.46-.6-3.72-3.17-3.72-2.31,0-3.33,2.13-3.51,3.72h6.68Z"/>
      <path class="cls-1" d="M145.11,730.97c-.05.91-.1,1.92-.1,3.46v7.31c0,2.89-.57,4.65-1.79,5.75-1.22,1.14-2.99,1.51-4.58,1.51s-3.17-.36-4.19-1.04l.57-1.74c.83.52,2.13.99,3.69.99,2.34,0,4.06-1.22,4.06-4.39v-1.4h-.05c-.7,1.17-2.05,2.11-4,2.11-3.12,0-5.36-2.65-5.36-6.14,0-4.26,2.78-6.68,5.67-6.68,2.18,0,3.38,1.14,3.93,2.18h.05l.1-1.9h2ZM142.75,735.94c0-.39-.03-.73-.13-1.04-.42-1.33-1.53-2.42-3.2-2.42-2.18,0-3.74,1.85-3.74,4.76,0,2.47,1.25,4.52,3.72,4.52,1.4,0,2.68-.88,3.17-2.34.13-.39.18-.83.18-1.22v-2.26Z"/>
      <path class="cls-1" d="M113.21,746.8v-1.3h33.7v1.3h-33.7Z"/>
      <path class="cls-2" d="M115.11,756.29h2.29v18.46h-2.29v-18.46Z"/>
      <path class="cls-2" d="M128.21,774.75l-.18-1.59h-.08c-.7.99-2.05,1.87-3.85,1.87-2.55,0-3.85-1.79-3.85-3.61,0-3.04,2.7-4.71,7.57-4.68v-.26c0-1.04-.29-2.91-2.86-2.91-1.17,0-2.39.36-3.28.94l-.52-1.51c1.04-.68,2.55-1.12,4.13-1.12,3.85,0,4.78,2.63,4.78,5.15v4.71c0,1.09.05,2.16.21,3.02h-2.08ZM127.87,768.33c-2.5-.05-5.33.39-5.33,2.83,0,1.48.99,2.18,2.16,2.18,1.64,0,2.68-1.04,3.04-2.11.08-.23.13-.49.13-.73v-2.18Z"/>
      <path class="cls-2" d="M136.22,778.4c1.04-.08,1.95-.36,2.5-.96.62-.73.86-1.72.86-4.73v-10.53h2.29v11.41c0,2.44-.39,4.03-1.51,5.17-1.01,1.01-2.68,1.43-3.9,1.43l-.23-1.79ZM142.12,758.63c.03.75-.52,1.4-1.43,1.4-.86,0-1.4-.65-1.4-1.4,0-.81.6-1.43,1.46-1.43s1.38.62,1.38,1.43Z"/>
      <path class="cls-2" d="M152.57,774.75l-.18-1.59h-.08c-.7.99-2.05,1.87-3.85,1.87-2.55,0-3.85-1.79-3.85-3.61,0-3.04,2.7-4.71,7.57-4.68v-.26c0-1.04-.29-2.91-2.86-2.91-1.17,0-2.39.36-3.28.94l-.52-1.51c1.04-.68,2.55-1.12,4.13-1.12,3.85,0,4.78,2.63,4.78,5.15v4.71c0,1.09.05,2.16.21,3.02h-2.08ZM152.24,768.33c-2.5-.05-5.33.39-5.33,2.83,0,1.48.99,2.18,2.16,2.18,1.64,0,2.68-1.04,3.04-2.11.08-.23.13-.49.13-.73v-2.18Z"/>
      <path class="cls-2" d="M158.14,765.58c0-1.3-.03-2.37-.1-3.41h2l.1,2.03h.08c.7-1.2,1.87-2.31,3.95-2.31,1.72,0,3.02,1.04,3.56,2.52h.05c.39-.7.88-1.25,1.4-1.64.75-.57,1.59-.88,2.78-.88,1.66,0,4.13,1.09,4.13,5.46v7.41h-2.24v-7.12c0-2.42-.88-3.87-2.73-3.87-1.3,0-2.31.96-2.7,2.08-.1.31-.18.73-.18,1.14v7.77h-2.24v-7.54c0-2-.88-3.46-2.63-3.46-1.43,0-2.47,1.14-2.83,2.29-.13.34-.18.73-.18,1.12v7.59h-2.24v-9.18Z"/>
      <path class="cls-2" d="M179.72,774.75c.05-.86.1-2.13.1-3.25v-15.21h2.26v7.9h.05c.81-1.4,2.26-2.31,4.29-2.31,3.12,0,5.33,2.6,5.3,6.42,0,4.5-2.83,6.73-5.64,6.73-1.82,0-3.28-.7-4.21-2.37h-.08l-.1,2.08h-1.98ZM182.08,769.71c0,.29.05.57.1.83.44,1.59,1.77,2.68,3.43,2.68,2.39,0,3.82-1.95,3.82-4.84,0-2.52-1.3-4.68-3.74-4.68-1.56,0-3.02,1.07-3.48,2.81-.05.26-.13.57-.13.94v2.26Z"/>
      <path class="cls-2" d="M195.89,768.88c.05,3.09,2.03,4.37,4.32,4.37,1.64,0,2.63-.29,3.48-.65l.39,1.64c-.81.36-2.18.78-4.19.78-3.87,0-6.19-2.55-6.19-6.34s2.24-6.79,5.9-6.79c4.11,0,5.2,3.61,5.2,5.93,0,.47-.05.83-.08,1.07h-8.84ZM202.6,767.24c.03-1.46-.6-3.72-3.17-3.72-2.31,0-3.33,2.13-3.51,3.72h6.68Z"/>
    </g>
    <g>
      <path class="cls-1" d="M563.11,339.4c.05,3.09,2.03,4.37,4.32,4.37,1.64,0,2.63-.29,3.48-.65l.39,1.64c-.81.36-2.18.78-4.19.78-3.88,0-6.19-2.55-6.19-6.34s2.24-6.79,5.9-6.79c4.11,0,5.2,3.61,5.2,5.93,0,.47-.05.83-.08,1.07h-8.84ZM569.82,337.76c.03-1.46-.6-3.72-3.17-3.72-2.31,0-3.33,2.13-3.51,3.72h6.68Z"/>
      <path class="cls-1" d="M574.86,326.81h2.29v18.46h-2.29v-18.46Z"/>
      <path class="cls-1" d="M580.9,345.27c.05-.86.1-2.13.1-3.25v-15.21h2.26v7.9h.05c.81-1.4,2.26-2.31,4.29-2.31,3.12,0,5.33,2.6,5.3,6.42,0,4.5-2.83,6.73-5.64,6.73-1.82,0-3.28-.7-4.21-2.37h-.08l-.1,2.08h-1.98ZM583.26,340.23c0,.29.05.57.1.83.44,1.59,1.77,2.68,3.43,2.68,2.39,0,3.82-1.95,3.82-4.84,0-2.52-1.3-4.68-3.74-4.68-1.56,0-3.02,1.07-3.48,2.81-.05.26-.13.57-.13.94v2.26Z"/>
      <path class="cls-1" d="M607.18,338.88c0,4.65-3.22,6.68-6.27,6.68-3.41,0-6.03-2.5-6.03-6.47,0-4.21,2.76-6.68,6.24-6.68s6.06,2.63,6.06,6.47ZM597.2,339.01c0,2.76,1.59,4.84,3.82,4.84s3.82-2.05,3.82-4.89c0-2.13-1.07-4.84-3.77-4.84s-3.88,2.5-3.88,4.89Z"/>
      <path class="cls-1" d="M610.8,332.69l1.66,6.4c.36,1.4.7,2.7.94,4h.08c.29-1.27.7-2.63,1.12-3.98l2.05-6.42h1.92l1.95,6.29c.47,1.51.83,2.83,1.12,4.11h.08c.21-1.27.55-2.6.96-4.08l1.79-6.32h2.26l-4.06,12.58h-2.08l-1.92-6.01c-.44-1.4-.81-2.65-1.12-4.13h-.05c-.31,1.51-.7,2.81-1.14,4.16l-2.03,5.98h-2.08l-3.8-12.58h2.34Z"/>
      <path class="cls-1" d="M559.94,348.52v-1.3h67.18v1.3h-67.18Z"/>
      <path class="cls-2" d="M561.84,358.01h2.29v18.46h-2.29v-18.46Z"/>
      <path class="cls-2" d="M569.25,370.6c.05,3.09,2.03,4.37,4.32,4.37,1.64,0,2.63-.29,3.48-.65l.39,1.64c-.81.36-2.18.78-4.19.78-3.87,0-6.19-2.55-6.19-6.34s2.24-6.79,5.9-6.79c4.11,0,5.2,3.61,5.2,5.93,0,.47-.05.83-.08,1.07h-8.84ZM575.96,368.96c.03-1.46-.6-3.72-3.17-3.72-2.31,0-3.33,2.13-3.51,3.72h6.68Z"/>
      <path class="cls-2" d="M595.48,376c-.6.31-1.92.73-3.61.73-3.8,0-6.27-2.57-6.27-6.42s2.65-6.68,6.76-6.68c1.35,0,2.55.34,3.17.65l-.52,1.77c-.55-.31-1.4-.6-2.65-.6-2.89,0-4.45,2.13-4.45,4.76,0,2.91,1.87,4.71,4.37,4.71,1.3,0,2.16-.34,2.81-.62l.39,1.72Z"/>
      <path class="cls-2" d="M609.39,370.08c0,4.65-3.22,6.68-6.27,6.68-3.41,0-6.03-2.5-6.03-6.47,0-4.21,2.76-6.68,6.24-6.68s6.06,2.63,6.06,6.47ZM599.41,370.21c0,2.76,1.59,4.84,3.82,4.84s3.82-2.05,3.82-4.89c0-2.13-1.07-4.84-3.77-4.84s-3.87,2.5-3.87,4.89Z"/>
      <path class="cls-2" d="M622.81,373.04c0,1.3.03,2.44.1,3.43h-2.03l-.13-2.05h-.05c-.6,1.01-1.92,2.34-4.16,2.34-1.98,0-4.34-1.09-4.34-5.51v-7.36h2.29v6.97c0,2.39.73,4,2.81,4,1.53,0,2.6-1.07,3.02-2.08.13-.34.21-.75.21-1.17v-7.72h2.29v9.15Z"/>
      <path class="cls-2" d="M637.47,358.01v15.21c0,1.12.03,2.39.1,3.25h-2.05l-.1-2.18h-.05c-.7,1.4-2.24,2.47-4.29,2.47-3.04,0-5.38-2.57-5.38-6.4-.03-4.19,2.57-6.76,5.64-6.76,1.92,0,3.22.91,3.8,1.92h.05v-7.51h2.29ZM635.18,369.01c0-.29-.03-.68-.1-.96-.34-1.46-1.59-2.65-3.3-2.65-2.37,0-3.77,2.08-3.77,4.86,0,2.55,1.25,4.65,3.72,4.65,1.53,0,2.94-1.01,3.35-2.73.08-.31.1-.62.1-.99v-2.18Z"/>
      <path class="cls-2" d="M642.54,370.6c.05,3.09,2.03,4.37,4.32,4.37,1.64,0,2.63-.29,3.48-.65l.39,1.64c-.81.36-2.18.78-4.19.78-3.87,0-6.19-2.55-6.19-6.34s2.24-6.79,5.9-6.79c4.11,0,5.2,3.61,5.2,5.93,0,.47-.05.83-.08,1.07h-8.84ZM649.25,368.96c.03-1.46-.6-3.72-3.17-3.72-2.31,0-3.33,2.13-3.51,3.72h6.68Z"/>
    </g>
    <g>
      <path class="cls-1" d="M587.31,442h2.29v7.85h.05c.36-.65.94-1.22,1.64-1.61.68-.39,1.48-.65,2.34-.65,1.69,0,4.39,1.04,4.39,5.38v7.49h-2.29v-7.23c0-2.03-.75-3.74-2.91-3.74-1.48,0-2.65,1.04-3.07,2.29-.13.31-.16.65-.16,1.09v7.59h-2.29v-18.46Z"/>
      <path class="cls-1" d="M604.29,444.34c.03.78-.55,1.4-1.46,1.4-.81,0-1.38-.62-1.38-1.4s.6-1.43,1.43-1.43,1.4.62,1.4,1.43ZM601.74,460.46v-12.58h2.29v12.58h-2.29Z"/>
      <path class="cls-1" d="M607.82,451.99c0-1.61-.05-2.91-.1-4.11h2.05l.1,2.16h.05c.94-1.53,2.42-2.44,4.47-2.44,3.04,0,5.33,2.57,5.33,6.4,0,4.52-2.76,6.76-5.72,6.76-1.66,0-3.12-.73-3.87-1.98h-.05v6.84h-2.26v-13.62ZM610.08,455.34c0,.34.05.65.1.94.42,1.59,1.79,2.68,3.43,2.68,2.42,0,3.82-1.98,3.82-4.86,0-2.52-1.33-4.68-3.74-4.68-1.56,0-3.02,1.12-3.46,2.83-.08.29-.16.62-.16.94v2.16Z"/>
      <path class="cls-1" d="M585.41,463.71v-1.3h35.31v1.3h-35.31Z"/>
      <path class="cls-2" d="M587.31,473.2h2.29v18.46h-2.29v-18.46Z"/>
      <path class="cls-2" d="M600.41,491.66l-.18-1.59h-.08c-.7.99-2.05,1.87-3.85,1.87-2.55,0-3.85-1.79-3.85-3.61,0-3.04,2.7-4.71,7.57-4.68v-.26c0-1.04-.29-2.91-2.86-2.91-1.17,0-2.39.36-3.28.94l-.52-1.51c1.04-.68,2.55-1.12,4.13-1.12,3.85,0,4.78,2.63,4.78,5.15v4.71c0,1.09.05,2.16.21,3.02h-2.08ZM600.07,485.24c-2.5-.05-5.33.39-5.33,2.83,0,1.48.99,2.18,2.16,2.18,1.64,0,2.68-1.04,3.04-2.11.08-.23.13-.49.13-.73v-2.18Z"/>
      <path class="cls-2" d="M611.49,473.2h2.29v7.85h.05c.36-.65.94-1.22,1.64-1.61.68-.39,1.48-.65,2.34-.65,1.69,0,4.39,1.04,4.39,5.38v7.49h-2.29v-7.23c0-2.03-.75-3.74-2.91-3.74-1.48,0-2.65,1.04-3.07,2.29-.13.31-.16.65-.16,1.09v7.59h-2.29v-18.46Z"/>
      <path class="cls-2" d="M632.89,491.66l-.18-1.59h-.08c-.7.99-2.05,1.87-3.85,1.87-2.55,0-3.85-1.79-3.85-3.61,0-3.04,2.7-4.71,7.57-4.68v-.26c0-1.04-.29-2.91-2.86-2.91-1.17,0-2.39.36-3.28.94l-.52-1.51c1.04-.68,2.55-1.12,4.13-1.12,3.85,0,4.78,2.63,4.78,5.15v4.71c0,1.09.05,2.16.21,3.02h-2.08ZM632.55,485.24c-2.5-.05-5.33.39-5.33,2.83,0,1.48.99,2.18,2.16,2.18,1.64,0,2.68-1.04,3.04-2.11.08-.23.13-.49.13-.73v-2.18Z"/>
      <path class="cls-2" d="M638.45,482.49c0-1.3-.03-2.37-.1-3.41h2.03l.13,2.08h.05c.62-1.2,2.08-2.37,4.16-2.37,1.74,0,4.45,1.04,4.45,5.36v7.51h-2.29v-7.25c0-2.03-.75-3.72-2.91-3.72-1.51,0-2.68,1.07-3.07,2.34-.1.29-.16.68-.16,1.07v7.57h-2.29v-9.18Z"/>
      <path class="cls-2" d="M661.85,491.2c-.6.31-1.92.73-3.61.73-3.8,0-6.27-2.57-6.27-6.42s2.65-6.68,6.76-6.68c1.35,0,2.55.34,3.17.65l-.52,1.77c-.55-.31-1.4-.6-2.65-.6-2.89,0-4.45,2.13-4.45,4.76,0,2.91,1.87,4.71,4.37,4.71,1.3,0,2.16-.34,2.81-.62l.39,1.72Z"/>
      <path class="cls-2" d="M664.53,473.2h2.29v7.85h.05c.36-.65.94-1.22,1.64-1.61.68-.39,1.48-.65,2.34-.65,1.69,0,4.39,1.04,4.39,5.38v7.49h-2.29v-7.23c0-2.03-.75-3.74-2.91-3.74-1.48,0-2.65,1.04-3.07,2.29-.13.31-.16.65-.16,1.09v7.59h-2.29v-18.46Z"/>
      <path class="cls-2" d="M680.23,485.79c.05,3.09,2.03,4.37,4.32,4.37,1.64,0,2.63-.29,3.48-.65l.39,1.64c-.81.36-2.18.78-4.19.78-3.88,0-6.19-2.55-6.19-6.34s2.24-6.79,5.9-6.79c4.11,0,5.2,3.61,5.2,5.93,0,.47-.05.83-.08,1.07h-8.84ZM686.94,484.15c.03-1.46-.6-3.72-3.17-3.72-2.31,0-3.33,2.13-3.51,3.72h6.68Z"/>
    </g>
    <g>
      <path class="cls-1" d="M93.11,471.44c.05-.86.1-2.13.1-3.25v-15.21h2.26v7.9h.05c.81-1.4,2.26-2.31,4.29-2.31,3.12,0,5.33,2.6,5.3,6.42,0,4.5-2.83,6.73-5.64,6.73-1.82,0-3.28-.7-4.21-2.37h-.08l-.1,2.08h-1.98ZM95.47,466.4c0,.29.05.57.1.83.44,1.59,1.77,2.68,3.43,2.68,2.39,0,3.82-1.95,3.82-4.84,0-2.52-1.3-4.68-3.74-4.68-1.56,0-3.02,1.07-3.48,2.81-.05.26-.13.57-.13.94v2.26Z"/>
      <path class="cls-1" d="M118.54,468.01c0,1.3.03,2.44.1,3.43h-2.03l-.13-2.05h-.05c-.6,1.01-1.92,2.34-4.16,2.34-1.98,0-4.34-1.09-4.34-5.51v-7.36h2.29v6.97c0,2.39.73,4,2.81,4,1.53,0,2.6-1.07,3.02-2.08.13-.34.21-.75.21-1.17v-7.72h2.29v9.15Z"/>
      <path class="cls-1" d="M125.09,455.24v3.61h3.28v1.74h-3.28v6.79c0,1.56.44,2.44,1.72,2.44.6,0,1.04-.08,1.33-.16l.1,1.72c-.44.18-1.14.31-2.03.31-1.07,0-1.92-.34-2.47-.96-.65-.68-.88-1.79-.88-3.28v-6.86h-1.95v-1.74h1.95v-3.02l2.24-.6Z"/>
      <path class="cls-1" d="M133.69,455.24v3.61h3.28v1.74h-3.28v6.79c0,1.56.44,2.44,1.72,2.44.6,0,1.04-.08,1.33-.16l.1,1.72c-.44.18-1.14.31-2.03.31-1.07,0-1.92-.34-2.47-.96-.65-.68-.88-1.79-.88-3.28v-6.86h-1.95v-1.74h1.95v-3.02l2.24-.6Z"/>
      <path class="cls-1" d="M150.77,465.04c0,4.65-3.22,6.68-6.27,6.68-3.41,0-6.03-2.5-6.03-6.47,0-4.21,2.76-6.68,6.24-6.68s6.06,2.63,6.06,6.47ZM140.79,465.17c0,2.76,1.59,4.84,3.82,4.84s3.82-2.05,3.82-4.89c0-2.13-1.07-4.84-3.77-4.84s-3.87,2.5-3.87,4.89Z"/>
      <path class="cls-1" d="M162.63,470.97c-.6.31-1.92.73-3.61.73-3.8,0-6.27-2.57-6.27-6.42s2.65-6.68,6.76-6.68c1.35,0,2.55.34,3.17.65l-.52,1.77c-.55-.31-1.4-.6-2.65-.6-2.89,0-4.45,2.13-4.45,4.76,0,2.91,1.87,4.71,4.37,4.71,1.3,0,2.16-.34,2.81-.62l.39,1.72Z"/>
      <path class="cls-1" d="M167.57,464.63h.05c.31-.44.75-.99,1.12-1.43l3.69-4.34h2.76l-4.86,5.17,5.54,7.41h-2.78l-4.34-6.03-1.17,1.3v4.73h-2.26v-18.46h2.26v11.65Z"/>
      <path class="cls-1" d="M177.19,469.1c.68.44,1.87.91,3.02.91,1.66,0,2.44-.83,2.44-1.87,0-1.09-.65-1.69-2.34-2.31-2.26-.81-3.33-2.05-3.33-3.56,0-2.03,1.64-3.69,4.34-3.69,1.27,0,2.39.36,3.09.78l-.57,1.66c-.49-.31-1.4-.73-2.57-.73-1.35,0-2.11.78-2.11,1.72,0,1.04.75,1.51,2.39,2.13,2.18.83,3.3,1.92,3.3,3.8,0,2.21-1.72,3.77-4.71,3.77-1.38,0-2.65-.34-3.54-.86l.57-1.74Z"/>
      <path class="cls-1" d="M91.31,474.69v-1.3h94.59v1.3h-94.59Z"/>
      <path class="cls-2" d="M93.21,484.18h2.29v18.46h-2.29v-18.46Z"/>
      <path class="cls-2" d="M100.62,496.76c.05,3.09,2.03,4.37,4.32,4.37,1.64,0,2.63-.29,3.48-.65l.39,1.64c-.81.36-2.18.78-4.19.78-3.87,0-6.19-2.55-6.19-6.34s2.24-6.79,5.9-6.79c4.11,0,5.2,3.61,5.2,5.93,0,.47-.05.83-.08,1.07h-8.84ZM107.33,495.13c.03-1.46-.6-3.72-3.17-3.72-2.31,0-3.33,2.13-3.51,3.72h6.68Z"/>
      <path class="cls-2" d="M112.06,500.3c.68.44,1.87.91,3.02.91,1.66,0,2.44-.83,2.44-1.87,0-1.09-.65-1.69-2.34-2.31-2.26-.81-3.33-2.05-3.33-3.56,0-2.03,1.64-3.69,4.34-3.69,1.27,0,2.39.36,3.09.78l-.57,1.66c-.49-.31-1.4-.73-2.57-.73-1.35,0-2.11.78-2.11,1.72,0,1.04.75,1.51,2.39,2.13,2.18.83,3.3,1.92,3.3,3.8,0,2.21-1.72,3.77-4.71,3.77-1.38,0-2.65-.34-3.54-.86l.57-1.74Z"/>
      <path class="cls-2" d="M128.42,502.64v-10.84h-1.77v-1.74h1.77v-.6c0-1.77.39-3.38,1.46-4.39.86-.83,2-1.17,3.07-1.17.81,0,1.51.18,1.95.36l-.31,1.77c-.34-.16-.81-.29-1.46-.29-1.95,0-2.44,1.72-2.44,3.64v.68h3.04v1.74h-3.04v10.84h-2.26Z"/>
      <path class="cls-2" d="M136.71,496.76c.05,3.09,2.03,4.37,4.32,4.37,1.64,0,2.63-.29,3.48-.65l.39,1.64c-.81.36-2.18.78-4.19.78-3.87,0-6.19-2.55-6.19-6.34s2.24-6.79,5.9-6.79c4.11,0,5.2,3.61,5.2,5.93,0,.47-.05.83-.08,1.07h-8.84ZM143.42,495.13c.03-1.46-.6-3.72-3.17-3.72-2.31,0-3.33,2.13-3.51,3.72h6.68Z"/>
      <path class="cls-2" d="M148.15,500.3c.68.44,1.87.91,3.02.91,1.66,0,2.44-.83,2.44-1.87,0-1.09-.65-1.69-2.34-2.31-2.26-.81-3.33-2.05-3.33-3.56,0-2.03,1.64-3.69,4.34-3.69,1.27,0,2.39.36,3.09.78l-.57,1.66c-.49-.31-1.4-.73-2.57-.73-1.35,0-2.11.78-2.11,1.72,0,1.04.75,1.51,2.39,2.13,2.18.83,3.3,1.92,3.3,3.8,0,2.21-1.72,3.77-4.71,3.77-1.38,0-2.65-.34-3.54-.86l.57-1.74Z"/>
      <path class="cls-2" d="M158.44,500.3c.68.44,1.87.91,3.02.91,1.66,0,2.44-.83,2.44-1.87,0-1.09-.65-1.69-2.34-2.31-2.26-.81-3.33-2.05-3.33-3.56,0-2.03,1.64-3.69,4.34-3.69,1.27,0,2.39.36,3.09.78l-.57,1.66c-.49-.31-1.4-.73-2.57-.73-1.35,0-2.11.78-2.11,1.72,0,1.04.75,1.51,2.39,2.13,2.18.83,3.3,1.92,3.3,3.8,0,2.21-1.72,3.77-4.71,3.77-1.38,0-2.65-.34-3.54-.86l.57-1.74Z"/>
      <path class="cls-2" d="M170.33,496.76c.05,3.09,2.03,4.37,4.32,4.37,1.64,0,2.63-.29,3.48-.65l.39,1.64c-.81.36-2.18.78-4.19.78-3.87,0-6.19-2.55-6.19-6.34s2.24-6.79,5.9-6.79c4.11,0,5.2,3.61,5.2,5.93,0,.47-.05.83-.08,1.07h-8.84ZM177.04,495.13c.03-1.46-.6-3.72-3.17-3.72-2.31,0-3.33,2.13-3.51,3.72h6.68Z"/>
      <path class="cls-2" d="M181.77,500.3c.68.44,1.87.91,3.02.91,1.66,0,2.44-.83,2.44-1.87,0-1.09-.65-1.69-2.34-2.31-2.26-.81-3.33-2.05-3.33-3.56,0-2.03,1.64-3.69,4.34-3.69,1.27,0,2.39.36,3.09.78l-.57,1.66c-.49-.31-1.4-.73-2.57-.73-1.35,0-2.11.78-2.11,1.72,0,1.04.75,1.51,2.39,2.13,2.18.83,3.3,1.92,3.3,3.8,0,2.21-1.72,3.77-4.71,3.77-1.38,0-2.65-.34-3.54-.86l.57-1.74Z"/>
      <path class="cls-2" d="M192.12,490.64v-8.34h-1.36v-1.34h1.36v-.46c0-1.36.3-2.6,1.12-3.38.66-.64,1.54-.9,2.36-.9.62,0,1.16.14,1.5.28l-.24,1.36c-.26-.12-.62-.22-1.12-.22-1.5,0-1.88,1.32-1.88,2.8v.52h2.34v1.34h-2.34v8.34h-1.74Z"/>
    </g>
    <g>
      <path class="cls-1" d="M64.15,579.84l2.47,7.07c.42,1.14.75,2.18,1.01,3.22h.08c.29-1.04.65-2.08,1.07-3.22l2.44-7.07h2.39l-4.94,12.58h-2.18l-4.78-12.58h2.44Z"/>
      <path class="cls-1" d="M82.64,592.43l-.18-1.59h-.08c-.7.99-2.05,1.87-3.85,1.87-2.55,0-3.85-1.79-3.85-3.61,0-3.04,2.7-4.71,7.57-4.68v-.26c0-1.04-.29-2.91-2.86-2.91-1.17,0-2.39.36-3.28.94l-.52-1.51c1.04-.68,2.55-1.12,4.13-1.12,3.85,0,4.78,2.63,4.78,5.15v4.71c0,1.09.05,2.16.21,3.02h-2.08ZM82.3,586c-2.5-.05-5.33.39-5.33,2.83,0,1.48.99,2.18,2.16,2.18,1.64,0,2.68-1.04,3.04-2.11.08-.23.13-.49.13-.73v-2.18Z"/>
      <path class="cls-1" d="M99.04,579.84c-.05.91-.1,1.92-.1,3.46v7.31c0,2.89-.57,4.65-1.79,5.75-1.22,1.14-2.99,1.51-4.58,1.51s-3.17-.36-4.19-1.04l.57-1.74c.83.52,2.13.99,3.69.99,2.34,0,4.06-1.22,4.06-4.39v-1.4h-.05c-.7,1.17-2.05,2.11-4,2.11-3.12,0-5.36-2.65-5.36-6.14,0-4.26,2.78-6.68,5.67-6.68,2.18,0,3.38,1.14,3.93,2.18h.05l.1-1.9h2ZM96.68,584.81c0-.39-.03-.73-.13-1.04-.42-1.33-1.53-2.42-3.2-2.42-2.18,0-3.74,1.85-3.74,4.76,0,2.47,1.25,4.52,3.72,4.52,1.4,0,2.68-.88,3.17-2.34.13-.39.18-.83.18-1.22v-2.26Z"/>
      <path class="cls-1" d="M105.13,576.31c.03.78-.55,1.4-1.46,1.4-.81,0-1.38-.62-1.38-1.4s.6-1.43,1.43-1.43,1.4.62,1.4,1.43ZM102.58,592.43v-12.58h2.29v12.58h-2.29Z"/>
      <path class="cls-1" d="M108.66,583.25c0-1.3-.03-2.37-.1-3.41h2.03l.13,2.08h.05c.62-1.2,2.08-2.37,4.16-2.37,1.74,0,4.45,1.04,4.45,5.36v7.51h-2.29v-7.25c0-2.03-.75-3.72-2.91-3.72-1.51,0-2.68,1.07-3.07,2.34-.1.29-.16.68-.16,1.07v7.57h-2.29v-9.18Z"/>
      <path class="cls-1" d="M130.06,592.43l-.18-1.59h-.08c-.7.99-2.05,1.87-3.85,1.87-2.55,0-3.85-1.79-3.85-3.61,0-3.04,2.7-4.71,7.57-4.68v-.26c0-1.04-.29-2.91-2.86-2.91-1.17,0-2.39.36-3.28.94l-.52-1.51c1.04-.68,2.55-1.12,4.13-1.12,3.85,0,4.78,2.63,4.78,5.15v4.71c0,1.09.05,2.16.21,3.02h-2.08ZM129.72,586c-2.5-.05-5.33.39-5.33,2.83,0,1.48.99,2.18,2.16,2.18,1.64,0,2.68-1.04,3.04-2.11.08-.23.13-.49.13-.73v-2.18Z"/>
      <path class="cls-1" d="M61.37,595.68v-1.3h72.36v1.3H61.37Z"/>
      <path class="cls-2" d="M63.27,605.17h2.29v18.46h-2.29v-18.46Z"/>
      <path class="cls-2" d="M70.68,617.75c.05,3.09,2.03,4.37,4.32,4.37,1.64,0,2.63-.29,3.48-.65l.39,1.64c-.81.36-2.18.78-4.19.78-3.87,0-6.19-2.55-6.19-6.34s2.24-6.79,5.9-6.79c4.11,0,5.2,3.61,5.2,5.93,0,.47-.05.83-.08,1.07h-8.84ZM77.39,616.11c.03-1.46-.6-3.72-3.17-3.72-2.31,0-3.33,2.13-3.51,3.72h6.68Z"/>
      <path class="cls-2" d="M88.82,611.04l2.47,7.07c.42,1.14.75,2.18,1.01,3.22h.08c.29-1.04.65-2.08,1.07-3.22l2.44-7.07h2.39l-4.94,12.58h-2.18l-4.78-12.58h2.44Z"/>
      <path class="cls-2" d="M107.31,623.63l-.18-1.59h-.08c-.7.99-2.05,1.87-3.85,1.87-2.55,0-3.85-1.79-3.85-3.61,0-3.04,2.7-4.71,7.57-4.68v-.26c0-1.04-.29-2.91-2.86-2.91-1.17,0-2.39.36-3.28.94l-.52-1.51c1.04-.68,2.55-1.12,4.13-1.12,3.85,0,4.78,2.63,4.78,5.15v4.71c0,1.09.05,2.16.21,3.02h-2.08ZM106.97,617.2c-2.5-.05-5.33.39-5.33,2.83,0,1.48.99,2.18,2.16,2.18,1.64,0,2.68-1.04,3.04-2.11.08-.23.13-.49.13-.73v-2.18Z"/>
      <path class="cls-2" d="M123.72,611.04c-.05.91-.1,1.92-.1,3.46v7.31c0,2.89-.57,4.65-1.79,5.75-1.22,1.14-2.99,1.51-4.58,1.51s-3.17-.36-4.19-1.04l.57-1.74c.83.52,2.13.99,3.69.99,2.34,0,4.06-1.22,4.06-4.39v-1.4h-.05c-.7,1.17-2.05,2.11-4,2.11-3.12,0-5.36-2.65-5.36-6.14,0-4.26,2.78-6.68,5.67-6.68,2.18,0,3.38,1.14,3.93,2.18h.05l.1-1.9h2ZM121.35,616.01c0-.39-.03-.73-.13-1.04-.42-1.33-1.53-2.42-3.2-2.42-2.18,0-3.74,1.85-3.74,4.76,0,2.47,1.25,4.52,3.72,4.52,1.4,0,2.68-.88,3.17-2.34.13-.39.18-.83.18-1.22v-2.26Z"/>
      <path class="cls-2" d="M129.8,607.51c.03.78-.55,1.4-1.46,1.4-.81,0-1.38-.62-1.38-1.4s.6-1.43,1.43-1.43,1.4.62,1.4,1.43ZM127.25,623.63v-12.58h2.29v12.58h-2.29Z"/>
      <path class="cls-2" d="M133.34,614.45c0-1.3-.03-2.37-.1-3.41h2.03l.13,2.08h.05c.62-1.2,2.08-2.37,4.16-2.37,1.74,0,4.45,1.04,4.45,5.36v7.51h-2.29v-7.25c0-2.03-.75-3.72-2.91-3.72-1.51,0-2.68,1.07-3.07,2.34-.1.29-.16.68-.16,1.07v7.57h-2.29v-9.18Z"/>
    </g>
    <g>
      <path class="cls-1" d="M526.41,771.37c-.6.31-1.92.73-3.61.73-3.8,0-6.27-2.57-6.27-6.42s2.65-6.68,6.76-6.68c1.35,0,2.55.34,3.17.65l-.52,1.77c-.55-.31-1.4-.6-2.65-.6-2.89,0-4.45,2.13-4.45,4.76,0,2.91,1.87,4.71,4.37,4.71,1.3,0,2.16-.34,2.81-.62l.39,1.72Z"/>
      <path class="cls-1" d="M536.05,771.84l-.18-1.59h-.08c-.7.99-2.05,1.87-3.85,1.87-2.55,0-3.85-1.79-3.85-3.61,0-3.04,2.7-4.71,7.57-4.68v-.26c0-1.04-.29-2.91-2.86-2.91-1.17,0-2.39.36-3.28.94l-.52-1.51c1.04-.68,2.55-1.12,4.13-1.12,3.85,0,4.78,2.63,4.78,5.15v4.71c0,1.09.05,2.16.21,3.02h-2.08ZM535.71,765.42c-2.5-.05-5.33.39-5.33,2.83,0,1.48.99,2.18,2.16,2.18,1.64,0,2.68-1.04,3.04-2.11.08-.23.13-.49.13-.73v-2.18Z"/>
      <path class="cls-1" d="M541.62,753.38h2.29v18.46h-2.29v-18.46Z"/>
      <path class="cls-1" d="M547.99,771.84v-10.84h-1.77v-1.74h1.77v-.6c0-1.77.39-3.38,1.46-4.39.86-.83,2-1.17,3.07-1.17.81,0,1.51.18,1.95.36l-.31,1.77c-.34-.16-.81-.29-1.46-.29-1.95,0-2.44,1.72-2.44,3.64v.68h3.04v1.74h-3.04v10.84h-2.26Z"/>
      <path class="cls-1" d="M515.54,775.09v-1.3h37.91v1.3h-37.91Z"/>
      <path class="cls-2" d="M517.44,784.58h2.29v18.46h-2.29v-18.46Z"/>
      <path class="cls-2" d="M524.85,797.16c.05,3.09,2.03,4.37,4.32,4.37,1.64,0,2.63-.29,3.48-.65l.39,1.64c-.81.36-2.18.78-4.19.78-3.87,0-6.19-2.55-6.19-6.34s2.24-6.79,5.9-6.79c4.11,0,5.2,3.61,5.2,5.93,0,.47-.05.83-.08,1.07h-8.84ZM531.56,795.52c.03-1.46-.6-3.72-3.17-3.72-2.31,0-3.33,2.13-3.51,3.72h6.68Z"/>
      <path class="cls-2" d="M542.11,793.86c0-1.3-.03-2.37-.1-3.41h2l.1,2.03h.08c.7-1.2,1.87-2.31,3.95-2.31,1.72,0,3.02,1.04,3.56,2.52h.05c.39-.7.88-1.25,1.4-1.64.75-.57,1.59-.88,2.78-.88,1.66,0,4.13,1.09,4.13,5.46v7.41h-2.24v-7.12c0-2.42-.88-3.87-2.73-3.87-1.3,0-2.31.96-2.7,2.08-.1.31-.18.73-.18,1.14v7.77h-2.24v-7.54c0-2-.88-3.46-2.63-3.46-1.43,0-2.47,1.14-2.83,2.29-.13.34-.18.73-.18,1.12v7.59h-2.24v-9.18Z"/>
      <path class="cls-2" d="M575.18,796.64c0,4.65-3.22,6.68-6.27,6.68-3.41,0-6.03-2.5-6.03-6.47,0-4.21,2.76-6.68,6.24-6.68s6.06,2.63,6.06,6.47ZM565.2,796.77c0,2.76,1.59,4.84,3.82,4.84s3.82-2.05,3.82-4.89c0-2.13-1.07-4.84-3.77-4.84s-3.88,2.5-3.88,4.89Z"/>
      <path class="cls-2" d="M578.07,784.58h2.29v18.46h-2.29v-18.46Z"/>
      <path class="cls-2" d="M584.2,784.58h2.29v18.46h-2.29v-18.46Z"/>
      <path class="cls-2" d="M591.61,797.16c.05,3.09,2.03,4.37,4.32,4.37,1.64,0,2.63-.29,3.48-.65l.39,1.64c-.81.36-2.18.78-4.19.78-3.87,0-6.19-2.55-6.19-6.34s2.24-6.79,5.9-6.79c4.11,0,5.2,3.61,5.2,5.93,0,.47-.05.83-.08,1.07h-8.84ZM598.32,795.52c.03-1.46-.6-3.72-3.17-3.72-2.31,0-3.33,2.13-3.51,3.72h6.68Z"/>
      <path class="cls-2" d="M606.12,786.84v3.61h3.28v1.74h-3.28v6.79c0,1.56.44,2.44,1.72,2.44.6,0,1.04-.08,1.33-.16l.1,1.72c-.44.18-1.14.31-2.03.31-1.07,0-1.92-.34-2.47-.96-.65-.68-.88-1.79-.88-3.28v-6.86h-1.95v-1.74h1.95v-3.02l2.24-.6Z"/>
    </g>
    <g>
      <path class="cls-1" d="M503.37,896.89h2.29v7.85h.05c.36-.65.94-1.22,1.64-1.61.68-.39,1.48-.65,2.34-.65,1.69,0,4.39,1.04,4.39,5.38v7.49h-2.29v-7.23c0-2.03-.75-3.74-2.91-3.74-1.48,0-2.65,1.04-3.07,2.29-.13.31-.16.65-.16,1.09v7.59h-2.29v-18.46Z"/>
      <path class="cls-1" d="M519.07,909.47c.05,3.09,2.03,4.37,4.32,4.37,1.64,0,2.63-.29,3.48-.65l.39,1.64c-.81.36-2.18.78-4.19.78-3.88,0-6.19-2.55-6.19-6.34s2.24-6.79,5.9-6.79c4.11,0,5.2,3.61,5.2,5.93,0,.47-.05.83-.08,1.07h-8.84ZM525.78,907.83c.03-1.46-.6-3.72-3.17-3.72-2.31,0-3.33,2.13-3.51,3.72h6.68Z"/>
      <path class="cls-1" d="M532.1,909.47c.05,3.09,2.03,4.37,4.32,4.37,1.64,0,2.63-.29,3.48-.65l.39,1.64c-.81.36-2.18.78-4.19.78-3.87,0-6.19-2.55-6.19-6.34s2.24-6.79,5.9-6.79c4.11,0,5.2,3.61,5.2,5.93,0,.47-.05.83-.08,1.07h-8.84ZM538.81,907.83c.03-1.46-.6-3.72-3.17-3.72-2.31,0-3.33,2.13-3.51,3.72h6.68Z"/>
      <path class="cls-1" d="M543.85,896.89h2.29v18.46h-2.29v-18.46Z"/>
      <path class="cls-1" d="M501.47,918.6v-1.3h46.62v1.3h-46.62Z"/>
      <path class="cls-2" d="M503.37,928.09h2.29v18.46h-2.29v-18.46Z"/>
      <path class="cls-2" d="M510.78,940.67c.05,3.09,2.03,4.37,4.32,4.37,1.64,0,2.63-.29,3.48-.65l.39,1.64c-.81.36-2.18.78-4.19.78-3.87,0-6.19-2.55-6.19-6.34s2.24-6.79,5.9-6.79c4.11,0,5.2,3.61,5.2,5.93,0,.47-.05.83-.08,1.07h-8.84ZM517.48,939.03c.03-1.46-.6-3.72-3.17-3.72-2.31,0-3.33,2.13-3.51,3.72h6.68Z"/>
      <path class="cls-2" d="M530.8,930.35v3.61h3.28v1.74h-3.28v6.79c0,1.56.44,2.44,1.72,2.44.6,0,1.04-.08,1.33-.16l.1,1.72c-.44.18-1.14.31-2.03.31-1.07,0-1.92-.34-2.47-.96-.65-.68-.88-1.79-.88-3.28v-6.86h-1.95v-1.74h1.95v-3.02l2.24-.6Z"/>
      <path class="cls-2" d="M543.61,946.55l-.18-1.59h-.08c-.7.99-2.05,1.87-3.85,1.87-2.55,0-3.85-1.79-3.85-3.61,0-3.04,2.7-4.71,7.57-4.68v-.26c0-1.04-.29-2.91-2.86-2.91-1.17,0-2.39.36-3.28.94l-.52-1.51c1.04-.68,2.55-1.12,4.13-1.12,3.85,0,4.78,2.63,4.78,5.15v4.71c0,1.09.05,2.16.21,3.02h-2.08ZM543.28,940.12c-2.5-.05-5.33.39-5.33,2.83,0,1.48.99,2.18,2.16,2.18,1.64,0,2.68-1.04,3.04-2.11.08-.23.13-.49.13-.73v-2.18Z"/>
      <path class="cls-2" d="M549.18,928.09h2.29v18.46h-2.29v-18.46Z"/>
      <path class="cls-2" d="M566.7,940.15c0,4.65-3.22,6.68-6.27,6.68-3.41,0-6.03-2.5-6.03-6.47,0-4.21,2.76-6.68,6.24-6.68s6.06,2.63,6.06,6.47ZM556.72,940.28c0,2.76,1.59,4.84,3.82,4.84s3.82-2.05,3.82-4.89c0-2.13-1.07-4.84-3.77-4.84s-3.88,2.5-3.88,4.89Z"/>
      <path class="cls-2" d="M569.59,937.37c0-1.3-.03-2.37-.1-3.41h2.03l.13,2.08h.05c.62-1.2,2.08-2.37,4.16-2.37,1.74,0,4.45,1.04,4.45,5.36v7.51h-2.29v-7.25c0-2.03-.75-3.72-2.91-3.72-1.51,0-2.68,1.07-3.07,2.34-.1.29-.16.68-.16,1.07v7.57h-2.29v-9.18Z"/>
    </g>
    <g>
      <path class="cls-1" d="M113.11,345.27c.05-.86.1-2.13.1-3.25v-15.21h2.26v7.9h.05c.81-1.4,2.26-2.31,4.29-2.31,3.12,0,5.33,2.6,5.3,6.42,0,4.5-2.83,6.73-5.64,6.73-1.82,0-3.28-.7-4.21-2.37h-.08l-.1,2.08h-1.98ZM115.47,340.23c0,.29.05.57.1.83.44,1.59,1.77,2.68,3.43,2.68,2.39,0,3.82-1.95,3.82-4.84,0-2.52-1.3-4.68-3.74-4.68-1.56,0-3.02,1.07-3.48,2.81-.05.26-.13.57-.13.94v2.26Z"/>
      <path class="cls-1" d="M134.97,345.27l-.18-1.59h-.08c-.7.99-2.05,1.87-3.85,1.87-2.55,0-3.85-1.79-3.85-3.61,0-3.04,2.7-4.71,7.57-4.68v-.26c0-1.04-.29-2.91-2.86-2.91-1.17,0-2.39.36-3.28.94l-.52-1.51c1.04-.68,2.55-1.12,4.13-1.12,3.85,0,4.78,2.63,4.78,5.15v4.71c0,1.09.05,2.16.21,3.02h-2.08ZM134.64,338.85c-2.5-.05-5.33.39-5.33,2.83,0,1.48.99,2.18,2.16,2.18,1.64,0,2.68-1.04,3.04-2.11.08-.23.13-.49.13-.73v-2.18Z"/>
      <path class="cls-1" d="M149.51,344.8c-.6.31-1.92.73-3.61.73-3.8,0-6.27-2.57-6.27-6.42s2.65-6.68,6.76-6.68c1.35,0,2.55.34,3.17.65l-.52,1.77c-.55-.31-1.4-.6-2.65-.6-2.89,0-4.45,2.13-4.45,4.76,0,2.91,1.87,4.71,4.37,4.71,1.3,0,2.16-.34,2.81-.62l.39,1.72Z"/>
      <path class="cls-1" d="M154.45,338.46h.05c.31-.44.75-.99,1.12-1.43l3.69-4.34h2.76l-4.86,5.17,5.54,7.41h-2.78l-4.34-6.03-1.17,1.3v4.73h-2.26v-18.46h2.26v11.65Z"/>
      <path class="cls-1" d="M111.31,348.52v-1.3h51.17v1.3h-51.17Z"/>
      <path class="cls-2" d="M113.21,358.01h2.29v18.46h-2.29v-18.46Z"/>
      <path class="cls-2" d="M120.62,370.6c.05,3.09,2.03,4.37,4.32,4.37,1.64,0,2.63-.29,3.48-.65l.39,1.64c-.81.36-2.18.78-4.19.78-3.87,0-6.19-2.55-6.19-6.34s2.24-6.79,5.9-6.79c4.11,0,5.2,3.61,5.2,5.93,0,.47-.05.83-.08,1.07h-8.84ZM127.33,368.96c.03-1.46-.6-3.72-3.17-3.72-2.31,0-3.33,2.13-3.51,3.72h6.68Z"/>
      <path class="cls-2" d="M148.75,358.01v15.21c0,1.12.03,2.39.1,3.25h-2.05l-.1-2.18h-.05c-.7,1.4-2.24,2.47-4.29,2.47-3.04,0-5.38-2.57-5.38-6.4-.03-4.19,2.57-6.76,5.64-6.76,1.92,0,3.22.91,3.8,1.92h.05v-7.51h2.29ZM146.46,369.01c0-.29-.03-.68-.1-.96-.34-1.46-1.59-2.65-3.3-2.65-2.37,0-3.77,2.08-3.77,4.86,0,2.55,1.25,4.65,3.72,4.65,1.53,0,2.94-1.01,3.35-2.73.08-.31.1-.62.1-.99v-2.18Z"/>
      <path class="cls-2" d="M163.94,370.08c0,4.65-3.22,6.68-6.27,6.68-3.41,0-6.03-2.5-6.03-6.47,0-4.21,2.76-6.68,6.24-6.68s6.06,2.63,6.06,6.47ZM153.95,370.21c0,2.76,1.59,4.84,3.82,4.84s3.82-2.05,3.82-4.89c0-2.13-1.07-4.84-3.77-4.84s-3.87,2.5-3.87,4.89Z"/>
      <path class="cls-2" d="M166.51,374.13c.68.44,1.87.91,3.02.91,1.66,0,2.44-.83,2.44-1.87,0-1.09-.65-1.69-2.34-2.31-2.26-.81-3.33-2.05-3.33-3.56,0-2.03,1.64-3.69,4.34-3.69,1.27,0,2.39.36,3.09.78l-.57,1.66c-.49-.31-1.4-.73-2.57-.73-1.35,0-2.11.78-2.11,1.72,0,1.04.75,1.51,2.39,2.13,2.18.83,3.3,1.92,3.3,3.8,0,2.21-1.72,3.77-4.71,3.77-1.38,0-2.65-.34-3.54-.86l.57-1.74Z"/>
    </g>
    <g>
      <path class="cls-1" d="M102.67,918.88c.68.44,1.87.91,3.02.91,1.66,0,2.44-.83,2.44-1.87,0-1.09-.65-1.69-2.34-2.31-2.26-.81-3.33-2.05-3.33-3.56,0-2.03,1.64-3.69,4.34-3.69,1.27,0,2.39.36,3.09.78l-.57,1.66c-.49-.31-1.4-.73-2.57-.73-1.35,0-2.11.78-2.11,1.72,0,1.04.75,1.51,2.39,2.13,2.18.83,3.3,1.92,3.3,3.8,0,2.21-1.72,3.77-4.71,3.77-1.38,0-2.65-.34-3.54-.86l.57-1.74Z"/>
      <path class="cls-1" d="M124.67,914.83c0,4.65-3.22,6.68-6.27,6.68-3.41,0-6.03-2.5-6.03-6.47,0-4.21,2.76-6.68,6.24-6.68s6.06,2.63,6.06,6.47ZM114.68,914.96c0,2.76,1.59,4.84,3.82,4.84s3.82-2.05,3.82-4.89c0-2.13-1.07-4.84-3.77-4.84s-3.87,2.5-3.87,4.89Z"/>
      <path class="cls-1" d="M127.55,902.76h2.29v18.46h-2.29v-18.46Z"/>
      <path class="cls-1" d="M134.96,915.35c.05,3.09,2.03,4.37,4.32,4.37,1.64,0,2.63-.29,3.48-.65l.39,1.64c-.81.36-2.18.78-4.19.78-3.87,0-6.19-2.55-6.19-6.34s2.24-6.79,5.9-6.79c4.11,0,5.2,3.61,5.2,5.93,0,.47-.05.83-.08,1.07h-8.84ZM141.67,913.71c.03-1.46-.6-3.72-3.17-3.72-2.31,0-3.33,2.13-3.51,3.72h6.68Z"/>
      <path class="cls-1" d="M101.09,924.47v-1.3h43.73v1.3h-43.73Z"/>
      <path class="cls-2" d="M102.98,933.96h2.29v18.46h-2.29v-18.46Z"/>
      <path class="cls-2" d="M116.09,952.42l-.18-1.59h-.08c-.7.99-2.05,1.87-3.85,1.87-2.55,0-3.85-1.79-3.85-3.61,0-3.04,2.7-4.71,7.57-4.68v-.26c0-1.04-.29-2.91-2.86-2.91-1.17,0-2.39.36-3.28.94l-.52-1.51c1.04-.68,2.55-1.12,4.13-1.12,3.85,0,4.78,2.63,4.78,5.15v4.71c0,1.09.05,2.16.21,3.02h-2.08ZM115.75,946c-2.5-.05-5.33.39-5.33,2.83,0,1.48.99,2.18,2.16,2.18,1.64,0,2.68-1.04,3.04-2.11.08-.23.13-.49.13-.73v-2.18Z"/>
      <path class="cls-2" d="M127.16,943.95c0-1.61-.05-2.91-.1-4.11h2.05l.1,2.16h.05c.94-1.53,2.42-2.44,4.47-2.44,3.04,0,5.33,2.57,5.33,6.4,0,4.52-2.76,6.76-5.72,6.76-1.66,0-3.12-.73-3.87-1.98h-.05v6.84h-2.26v-13.62ZM129.43,947.3c0,.34.05.65.1.94.42,1.59,1.79,2.68,3.43,2.68,2.42,0,3.82-1.98,3.82-4.86,0-2.52-1.33-4.68-3.74-4.68-1.56,0-3.02,1.12-3.46,2.83-.08.29-.16.62-.16.94v2.16Z"/>
      <path class="cls-2" d="M141.96,933.96h2.29v18.46h-2.29v-18.46Z"/>
      <path class="cls-2" d="M155.06,952.42l-.18-1.59h-.08c-.7.99-2.05,1.87-3.85,1.87-2.55,0-3.85-1.79-3.85-3.61,0-3.04,2.7-4.71,7.57-4.68v-.26c0-1.04-.29-2.91-2.86-2.91-1.17,0-2.39.36-3.28.94l-.52-1.51c1.04-.68,2.55-1.12,4.13-1.12,3.85,0,4.78,2.63,4.78,5.15v4.71c0,1.09.05,2.16.21,3.02h-2.08ZM154.72,946c-2.5-.05-5.33.39-5.33,2.83,0,1.48.99,2.18,2.16,2.18,1.64,0,2.68-1.04,3.04-2.11.08-.23.13-.49.13-.73v-2.18Z"/>
      <path class="cls-2" d="M160.62,943.25c0-1.3-.03-2.37-.1-3.41h2.03l.13,2.08h.05c.62-1.2,2.08-2.37,4.16-2.37,1.74,0,4.45,1.04,4.45,5.36v7.51h-2.29v-7.25c0-2.03-.75-3.72-2.91-3.72-1.51,0-2.68,1.07-3.07,2.34-.1.29-.16.68-.16,1.07v7.57h-2.29v-9.18Z"/>
      <path class="cls-2" d="M177.71,936.22v3.61h3.28v1.74h-3.28v6.79c0,1.56.44,2.44,1.72,2.44.6,0,1.04-.08,1.33-.16l.1,1.72c-.44.18-1.14.31-2.03.31-1.07,0-1.92-.34-2.47-.96-.65-.68-.88-1.79-.88-3.28v-6.86h-1.95v-1.74h1.95v-3.02l2.24-.6Z"/>
      <path class="cls-2" d="M184.67,946.55c.05,3.09,2.03,4.37,4.32,4.37,1.64,0,2.63-.29,3.48-.65l.39,1.64c-.81.36-2.18.78-4.19.78-3.88,0-6.19-2.55-6.19-6.34s2.24-6.79,5.9-6.79c4.11,0,5.2,3.61,5.2,5.93,0,.47-.05.83-.08,1.07h-8.84ZM191.38,944.91c.03-1.46-.6-3.72-3.17-3.72-2.31,0-3.33,2.13-3.51,3.72h6.68Z"/>
      <path class="cls-2" d="M212.81,933.96v15.21c0,1.12.03,2.39.1,3.25h-2.05l-.1-2.18h-.05c-.7,1.4-2.24,2.47-4.29,2.47-3.04,0-5.38-2.57-5.38-6.4-.03-4.19,2.57-6.76,5.64-6.76,1.92,0,3.22.91,3.8,1.92h.05v-7.51h2.29ZM210.52,944.96c0-.29-.03-.68-.1-.96-.34-1.46-1.59-2.65-3.3-2.65-2.37,0-3.77,2.08-3.77,4.86,0,2.55,1.25,4.65,3.72,4.65,1.53,0,2.94-1.01,3.35-2.73.08-.31.1-.62.1-.99v-2.18Z"/>
      <path class="cls-2" d="M217.88,946.55c.05,3.09,2.03,4.37,4.32,4.37,1.64,0,2.63-.29,3.48-.65l.39,1.64c-.81.36-2.18.78-4.19.78-3.87,0-6.19-2.55-6.19-6.34s2.24-6.79,5.9-6.79c4.11,0,5.2,3.61,5.2,5.93,0,.47-.05.83-.08,1.07h-8.84ZM224.58,944.91c.03-1.46-.6-3.72-3.17-3.72-2.31,0-3.33,2.13-3.51,3.72h6.68Z"/>
      <path class="cls-2" d="M235.14,943.95c0-1.61-.05-2.91-.1-4.11h2.05l.1,2.16h.05c.94-1.53,2.42-2.44,4.47-2.44,3.04,0,5.33,2.57,5.33,6.4,0,4.52-2.76,6.76-5.72,6.76-1.66,0-3.12-.73-3.87-1.98h-.05v6.84h-2.26v-13.62ZM237.4,947.3c0,.34.05.65.1.94.42,1.59,1.79,2.68,3.43,2.68,2.42,0,3.82-1.98,3.82-4.86,0-2.52-1.33-4.68-3.74-4.68-1.56,0-3.02,1.12-3.46,2.83-.08.29-.16.62-.16.94v2.16Z"/>
      <path class="cls-2" d="M252.48,936.3c.03.78-.55,1.4-1.46,1.4-.81,0-1.38-.62-1.38-1.4s.6-1.43,1.43-1.43,1.4.62,1.4,1.43ZM249.93,952.42v-12.58h2.29v12.58h-2.29Z"/>
      <path class="cls-2" d="M257.29,946.55c.05,3.09,2.03,4.37,4.32,4.37,1.64,0,2.63-.29,3.48-.65l.39,1.64c-.81.36-2.18.78-4.19.78-3.88,0-6.19-2.55-6.19-6.34s2.24-6.79,5.9-6.79c4.11,0,5.2,3.61,5.2,5.93,0,.47-.05.83-.08,1.07h-8.84ZM264,944.91c.03-1.46-.6-3.72-3.17-3.72-2.31,0-3.33,2.13-3.51,3.72h6.68Z"/>
      <path class="cls-2" d="M279.91,933.96v15.21c0,1.12.03,2.39.1,3.25h-2.05l-.1-2.18h-.05c-.7,1.4-2.24,2.47-4.29,2.47-3.04,0-5.38-2.57-5.38-6.4-.03-4.19,2.57-6.76,5.64-6.76,1.92,0,3.22.91,3.8,1.92h.05v-7.51h2.29ZM277.62,944.96c0-.29-.03-.68-.1-.96-.34-1.46-1.59-2.65-3.3-2.65-2.37,0-3.77,2.08-3.77,4.86,0,2.55,1.25,4.65,3.72,4.65,1.53,0,2.94-1.01,3.35-2.73.08-.31.1-.62.1-.99v-2.18Z"/>
    </g>
    <g>
      <path class="cls-1" d="M1.9,250.74c0-1.3-.03-2.37-.1-3.41h2.03l.13,2.08h.05c.62-1.2,2.08-2.37,4.16-2.37,1.74,0,4.45,1.04,4.45,5.36v7.51h-2.29v-7.25c0-2.03-.75-3.72-2.91-3.72-1.51,0-2.68,1.07-3.07,2.34-.1.29-.16.68-.16,1.07v7.57H1.9v-9.18Z"/>
      <path class="cls-1" d="M18.88,243.8c.03.78-.55,1.4-1.46,1.4-.81,0-1.38-.62-1.38-1.4s.6-1.43,1.43-1.43,1.4.62,1.4,1.43ZM16.33,259.92v-12.58h2.29v12.58h-2.29Z"/>
      <path class="cls-1" d="M22.41,251.44c0-1.61-.05-2.91-.1-4.11h2.05l.1,2.16h.05c.94-1.53,2.42-2.44,4.47-2.44,3.04,0,5.33,2.57,5.33,6.4,0,4.52-2.76,6.76-5.72,6.76-1.66,0-3.12-.73-3.87-1.98h-.05v6.84h-2.26v-13.62ZM24.67,254.8c0,.34.05.65.1.94.42,1.59,1.79,2.68,3.43,2.68,2.42,0,3.82-1.98,3.82-4.86,0-2.52-1.33-4.68-3.74-4.68-1.56,0-3.02,1.12-3.46,2.83-.08.29-.16.62-.16.94v2.16Z"/>
      <path class="cls-1" d="M37.21,251.44c0-1.61-.05-2.91-.1-4.11h2.05l.1,2.16h.05c.94-1.53,2.42-2.44,4.47-2.44,3.04,0,5.33,2.57,5.33,6.4,0,4.52-2.76,6.76-5.72,6.76-1.66,0-3.12-.73-3.87-1.98h-.05v6.84h-2.26v-13.62ZM39.47,254.8c0,.34.05.65.1.94.42,1.59,1.79,2.68,3.43,2.68,2.42,0,3.82-1.98,3.82-4.86,0-2.52-1.33-4.68-3.74-4.68-1.56,0-3.02,1.12-3.46,2.83-.08.29-.16.62-.16.94v2.16Z"/>
      <path class="cls-1" d="M52,241.46h2.29v18.46h-2.29v-18.46Z"/>
      <path class="cls-1" d="M59.41,254.04c.05,3.09,2.03,4.37,4.32,4.37,1.64,0,2.63-.29,3.48-.65l.39,1.64c-.81.36-2.18.78-4.19.78-3.88,0-6.19-2.55-6.19-6.34s2.24-6.79,5.9-6.79c4.11,0,5.2,3.61,5.2,5.93,0,.47-.05.83-.08,1.07h-8.84ZM66.12,252.41c.03-1.46-.6-3.72-3.17-3.72-2.31,0-3.33,2.13-3.51,3.72h6.68Z"/>
      <path class="cls-1" d="M0,263.17v-1.3h69.26v1.3H0Z"/>
      <path class="cls-2" d="M1.9,272.66h2.29v18.46H1.9v-18.46Z"/>
      <path class="cls-2" d="M9.31,285.24c.05,3.09,2.03,4.37,4.32,4.37,1.64,0,2.63-.29,3.48-.65l.39,1.64c-.81.36-2.18.78-4.19.78-3.87,0-6.19-2.55-6.19-6.34s2.24-6.79,5.9-6.79c4.11,0,5.2,3.61,5.2,5.93,0,.47-.05.83-.08,1.07h-8.84ZM16.02,283.61c.03-1.46-.6-3.72-3.17-3.72-2.31,0-3.33,2.13-3.51,3.72h6.68Z"/>
      <path class="cls-2" d="M26.57,281.94c0-1.3-.03-2.37-.1-3.41h2l.1,2.03h.08c.7-1.2,1.87-2.31,3.95-2.31,1.72,0,3.02,1.04,3.56,2.52h.05c.39-.7.88-1.25,1.4-1.64.75-.57,1.59-.88,2.78-.88,1.66,0,4.13,1.09,4.13,5.46v7.41h-2.24v-7.12c0-2.42-.88-3.87-2.73-3.87-1.3,0-2.31.96-2.7,2.08-.1.31-.18.73-.18,1.14v7.77h-2.24v-7.54c0-2-.88-3.46-2.63-3.46-1.43,0-2.47,1.14-2.83,2.29-.13.34-.18.73-.18,1.12v7.59h-2.24v-9.18Z"/>
      <path class="cls-2" d="M55.22,291.12l-.18-1.59h-.08c-.7.99-2.05,1.87-3.85,1.87-2.55,0-3.85-1.79-3.85-3.61,0-3.04,2.7-4.71,7.57-4.68v-.26c0-1.04-.29-2.91-2.86-2.91-1.17,0-2.39.36-3.28.94l-.52-1.51c1.04-.68,2.55-1.12,4.13-1.12,3.85,0,4.78,2.63,4.78,5.15v4.71c0,1.09.05,2.16.21,3.02h-2.08ZM54.89,284.7c-2.5-.05-5.33.39-5.33,2.83,0,1.48.99,2.18,2.16,2.18,1.64,0,2.68-1.04,3.04-2.11.08-.23.13-.49.13-.73v-2.18Z"/>
      <path class="cls-2" d="M60.79,281.94c0-1.3-.03-2.37-.1-3.41h2l.1,2.03h.08c.7-1.2,1.87-2.31,3.95-2.31,1.72,0,3.02,1.04,3.56,2.52h.05c.39-.7.88-1.25,1.4-1.64.75-.57,1.59-.88,2.78-.88,1.66,0,4.13,1.09,4.13,5.46v7.41h-2.24v-7.12c0-2.42-.88-3.87-2.73-3.87-1.3,0-2.31.96-2.7,2.08-.1.31-.18.73-.18,1.14v7.77h-2.24v-7.54c0-2-.88-3.46-2.63-3.46-1.43,0-2.47,1.14-2.83,2.29-.13.34-.18.73-.18,1.12v7.59h-2.24v-9.18Z"/>
      <path class="cls-2" d="M83.75,285.24c.05,3.09,2.03,4.37,4.32,4.37,1.64,0,2.63-.29,3.48-.65l.39,1.64c-.81.36-2.18.78-4.19.78-3.87,0-6.19-2.55-6.19-6.34s2.24-6.79,5.9-6.79c4.11,0,5.2,3.61,5.2,5.93,0,.47-.05.83-.08,1.07h-8.84ZM90.45,283.61c.03-1.46-.6-3.72-3.17-3.72-2.31,0-3.33,2.13-3.51,3.72h6.68Z"/>
      <path class="cls-2" d="M95.5,272.66h2.29v18.46h-2.29v-18.46Z"/>
      <path class="cls-2" d="M113.02,284.72c0,4.65-3.22,6.68-6.27,6.68-3.41,0-6.03-2.5-6.03-6.47,0-4.21,2.76-6.68,6.24-6.68s6.06,2.63,6.06,6.47ZM103.04,284.85c0,2.76,1.59,4.84,3.82,4.84s3.82-2.05,3.82-4.89c0-2.13-1.07-4.84-3.77-4.84s-3.88,2.5-3.88,4.89Z"/>
      <path class="cls-2" d="M115.91,281.94c0-1.3-.03-2.37-.1-3.41h2.03l.13,2.08h.05c.62-1.2,2.08-2.37,4.16-2.37,1.74,0,4.45,1.04,4.45,5.36v7.51h-2.29v-7.25c0-2.03-.75-3.72-2.91-3.72-1.51,0-2.68,1.07-3.07,2.34-.1.29-.16.68-.16,1.07v7.57h-2.29v-9.18Z"/>
    </g>
    <g>
      <path class="cls-1" d="M547.93,247.18c.05-.86.1-2.13.1-3.25v-15.21h2.26v7.9h.05c.81-1.4,2.26-2.31,4.29-2.31,3.12,0,5.33,2.6,5.3,6.42,0,4.5-2.83,6.73-5.64,6.73-1.82,0-3.28-.7-4.21-2.37h-.08l-.1,2.08h-1.98ZM550.3,242.14c0,.29.05.57.1.83.44,1.59,1.77,2.68,3.43,2.68,2.39,0,3.82-1.95,3.82-4.84,0-2.52-1.3-4.68-3.74-4.68-1.56,0-3.02,1.07-3.48,2.81-.05.26-.13.57-.13.94v2.26Z"/>
      <path class="cls-1" d="M562.83,238.52c0-1.48-.03-2.76-.1-3.93h2l.08,2.47h.1c.57-1.69,1.95-2.76,3.48-2.76.26,0,.44.03.65.08v2.16c-.23-.05-.47-.08-.78-.08-1.61,0-2.76,1.22-3.07,2.94-.05.31-.1.68-.1,1.07v6.71h-2.26v-8.66Z"/>
      <path class="cls-1" d="M572.34,241.3c.05,3.09,2.03,4.37,4.32,4.37,1.64,0,2.63-.29,3.48-.65l.39,1.64c-.81.36-2.18.78-4.19.78-3.87,0-6.19-2.55-6.19-6.34s2.24-6.79,5.9-6.79c4.11,0,5.2,3.61,5.2,5.93,0,.47-.05.83-.08,1.07h-8.84ZM579.05,239.67c.03-1.46-.6-3.72-3.17-3.72-2.31,0-3.33,2.13-3.51,3.72h6.68Z"/>
      <path class="cls-1" d="M591.06,247.18l-.18-1.59h-.08c-.7.99-2.05,1.87-3.85,1.87-2.55,0-3.85-1.79-3.85-3.61,0-3.04,2.7-4.71,7.57-4.68v-.26c0-1.04-.29-2.91-2.86-2.91-1.17,0-2.39.36-3.28.94l-.52-1.51c1.04-.68,2.55-1.12,4.13-1.12,3.85,0,4.78,2.63,4.78,5.15v4.71c0,1.09.05,2.16.21,3.02h-2.08ZM590.73,240.76c-2.5-.05-5.33.39-5.33,2.83,0,1.48.99,2.18,2.16,2.18,1.64,0,2.68-1.04,3.04-2.11.08-.23.13-.49.13-.73v-2.18Z"/>
      <path class="cls-1" d="M596.31,244.84c.68.44,1.87.91,3.02.91,1.66,0,2.44-.83,2.44-1.87,0-1.09-.65-1.69-2.34-2.31-2.26-.81-3.33-2.05-3.33-3.56,0-2.03,1.64-3.69,4.34-3.69,1.27,0,2.39.36,3.09.78l-.57,1.66c-.49-.31-1.4-.73-2.57-.73-1.35,0-2.11.78-2.11,1.72,0,1.04.75,1.51,2.39,2.13,2.18.83,3.3,1.92,3.3,3.8,0,2.21-1.72,3.77-4.71,3.77-1.38,0-2.65-.34-3.54-.86l.57-1.74Z"/>
      <path class="cls-1" d="M609.68,230.98v3.61h3.28v1.74h-3.28v6.79c0,1.56.44,2.44,1.72,2.44.6,0,1.04-.08,1.33-.16l.1,1.72c-.44.18-1.14.31-2.03.31-1.07,0-1.92-.34-2.47-.96-.65-.68-.88-1.79-.88-3.28v-6.86h-1.95v-1.74h1.95v-3.02l2.24-.6Z"/>
      <path class="cls-1" d="M546.14,250.43v-1.3h67.5v1.3h-67.5Z"/>
      <path class="cls-2" d="M548.03,259.92h2.29v18.46h-2.29v-18.46Z"/>
      <path class="cls-2" d="M555.44,272.5c.05,3.09,2.03,4.37,4.32,4.37,1.64,0,2.63-.29,3.48-.65l.39,1.64c-.81.36-2.18.78-4.19.78-3.87,0-6.19-2.55-6.19-6.34s2.24-6.79,5.9-6.79c4.11,0,5.2,3.61,5.2,5.93,0,.47-.05.83-.08,1.07h-8.84ZM562.15,270.87c.03-1.46-.6-3.72-3.17-3.72-2.31,0-3.33,2.13-3.51,3.72h6.68Z"/>
      <path class="cls-2" d="M572.39,276.04c.68.44,1.87.91,3.02.91,1.66,0,2.44-.83,2.44-1.87,0-1.09-.65-1.69-2.34-2.31-2.26-.81-3.33-2.05-3.33-3.56,0-2.03,1.64-3.69,4.34-3.69,1.27,0,2.39.36,3.09.78l-.57,1.66c-.49-.31-1.4-.73-2.57-.73-1.35,0-2.11.78-2.11,1.72,0,1.04.75,1.51,2.39,2.13,2.18.83,3.3,1.92,3.3,3.8,0,2.21-1.72,3.77-4.71,3.77-1.38,0-2.65-.34-3.54-.86l.57-1.74Z"/>
      <path class="cls-2" d="M584.28,272.5c.05,3.09,2.03,4.37,4.32,4.37,1.64,0,2.63-.29,3.48-.65l.39,1.64c-.81.36-2.18.78-4.19.78-3.87,0-6.19-2.55-6.19-6.34s2.24-6.79,5.9-6.79c4.11,0,5.2,3.61,5.2,5.93,0,.47-.05.83-.08,1.07h-8.84ZM590.99,270.87c.03-1.46-.6-3.72-3.17-3.72-2.31,0-3.33,2.13-3.51,3.72h6.68Z"/>
      <path class="cls-2" d="M598.58,262.26c.03.78-.55,1.4-1.46,1.4-.81,0-1.38-.62-1.38-1.4s.6-1.43,1.43-1.43,1.4.62,1.4,1.43ZM596.03,278.38v-12.58h2.29v12.58h-2.29Z"/>
      <path class="cls-2" d="M602.11,269.2c0-1.3-.03-2.37-.1-3.41h2.03l.13,2.08h.05c.62-1.2,2.08-2.37,4.16-2.37,1.74,0,4.45,1.04,4.45,5.36v7.51h-2.29v-7.25c0-2.03-.75-3.72-2.91-3.72-1.51,0-2.68,1.07-3.07,2.34-.1.29-.16.68-.16,1.07v7.57h-2.29v-9.18Z"/>
    </g>
    <g>
      <path class="cls-1" d="M578.74,610.89v-10.84h-1.77v-1.74h1.77v-.68c0-3.33,1.95-5.49,5.49-5.49,1.17,0,2.55.36,3.2.83l-.65,1.74c-.55-.39-1.53-.73-2.65-.73-2.42,0-3.12,1.69-3.12,3.69v.62h7.31v12.58h-2.26v-10.84h-5.04v10.84h-2.26Z"/>
      <path class="cls-1" d="M592.11,601.71c0-1.3-.03-2.37-.1-3.41h2.03l.13,2.08h.05c.62-1.2,2.08-2.37,4.16-2.37,1.74,0,4.45,1.04,4.45,5.36v7.51h-2.29v-7.25c0-2.03-.75-3.72-2.91-3.72-1.51,0-2.68,1.07-3.07,2.34-.1.29-.16.68-.16,1.07v7.57h-2.29v-9.18Z"/>
      <path class="cls-1" d="M617.38,598.3c-.05.91-.1,1.92-.1,3.46v7.31c0,2.89-.57,4.65-1.79,5.75-1.22,1.14-2.99,1.51-4.58,1.51s-3.17-.36-4.19-1.04l.57-1.74c.83.52,2.13.99,3.69.99,2.34,0,4.06-1.22,4.06-4.39v-1.4h-.05c-.7,1.17-2.05,2.11-4,2.11-3.12,0-5.36-2.65-5.36-6.14,0-4.26,2.78-6.68,5.67-6.68,2.18,0,3.38,1.14,3.93,2.18h.05l.1-1.9h2ZM615.01,603.27c0-.39-.03-.73-.13-1.04-.42-1.33-1.53-2.42-3.2-2.42-2.18,0-3.74,1.85-3.74,4.76,0,2.47,1.25,4.52,3.72,4.52,1.4,0,2.68-.88,3.17-2.34.13-.39.18-.83.18-1.22v-2.26Z"/>
      <path class="cls-1" d="M622.35,605.01c.05,3.09,2.03,4.37,4.32,4.37,1.64,0,2.63-.29,3.48-.65l.39,1.64c-.81.36-2.18.78-4.19.78-3.87,0-6.19-2.55-6.19-6.34s2.24-6.79,5.9-6.79c4.11,0,5.2,3.61,5.2,5.93,0,.47-.05.83-.08,1.07h-8.84ZM629.05,603.37c.03-1.46-.6-3.72-3.17-3.72-2.31,0-3.33,2.13-3.51,3.72h6.68Z"/>
      <path class="cls-1" d="M634.1,602.23c0-1.48-.03-2.76-.1-3.93h2l.08,2.47h.1c.57-1.69,1.95-2.76,3.48-2.76.26,0,.44.03.65.08v2.16c-.23-.05-.47-.08-.78-.08-1.61,0-2.76,1.22-3.07,2.94-.05.31-.1.68-.1,1.07v6.71h-2.26v-8.66Z"/>
      <path class="cls-1" d="M576.61,614.14v-1.3h64.09v1.3h-64.09Z"/>
      <path class="cls-2" d="M578.51,623.63h2.29v18.46h-2.29v-18.46Z"/>
      <path class="cls-2" d="M585.92,636.21c.05,3.09,2.03,4.37,4.32,4.37,1.64,0,2.63-.29,3.48-.65l.39,1.64c-.81.36-2.18.78-4.19.78-3.87,0-6.19-2.55-6.19-6.34s2.24-6.79,5.9-6.79c4.11,0,5.2,3.61,5.2,5.93,0,.47-.05.83-.08,1.07h-8.84ZM592.63,634.57c.03-1.46-.6-3.72-3.17-3.72-2.31,0-3.33,2.13-3.51,3.72h6.68Z"/>
      <path class="cls-2" d="M614.05,623.63v15.21c0,1.12.03,2.39.1,3.25h-2.05l-.1-2.18h-.05c-.7,1.4-2.24,2.47-4.29,2.47-3.04,0-5.38-2.57-5.38-6.4-.03-4.19,2.57-6.76,5.64-6.76,1.92,0,3.22.91,3.8,1.92h.05v-7.51h2.29ZM611.76,634.62c0-.29-.03-.68-.1-.96-.34-1.46-1.59-2.65-3.3-2.65-2.37,0-3.77,2.08-3.77,4.86,0,2.55,1.25,4.65,3.72,4.65,1.53,0,2.94-1.01,3.35-2.73.08-.31.1-.62.1-.99v-2.18Z"/>
      <path class="cls-2" d="M629.24,635.69c0,4.65-3.22,6.68-6.27,6.68-3.41,0-6.03-2.5-6.03-6.47,0-4.21,2.76-6.68,6.24-6.68s6.06,2.63,6.06,6.47ZM619.25,635.82c0,2.76,1.59,4.84,3.82,4.84s3.82-2.05,3.82-4.89c0-2.13-1.07-4.84-3.77-4.84s-3.87,2.5-3.87,4.89Z"/>
      <path class="cls-2" d="M634.67,625.97c.03.78-.55,1.4-1.46,1.4-.81,0-1.38-.62-1.38-1.4s.6-1.43,1.43-1.43,1.4.62,1.4,1.43ZM632.12,642.09v-12.58h2.29v12.58h-2.29Z"/>
      <path class="cls-2" d="M649.05,629.5c-.05.91-.1,1.92-.1,3.46v7.31c0,2.89-.57,4.65-1.79,5.75-1.22,1.14-2.99,1.51-4.58,1.51s-3.17-.36-4.19-1.04l.57-1.74c.83.52,2.13.99,3.69.99,2.34,0,4.06-1.22,4.06-4.39v-1.4h-.05c-.7,1.17-2.05,2.11-4,2.11-3.12,0-5.36-2.65-5.36-6.14,0-4.26,2.78-6.68,5.67-6.68,2.18,0,3.38,1.14,3.93,2.18h.05l.1-1.9h2ZM646.68,634.47c0-.39-.03-.73-.13-1.04-.42-1.33-1.53-2.42-3.2-2.42-2.18,0-3.74,1.85-3.74,4.76,0,2.47,1.25,4.52,3.72,4.52,1.4,0,2.68-.88,3.17-2.34.13-.39.18-.83.18-1.22v-2.26Z"/>
      <path class="cls-2" d="M655.5,625.89v3.61h3.28v1.74h-3.28v6.79c0,1.56.44,2.44,1.72,2.44.6,0,1.04-.08,1.33-.16l.1,1.72c-.44.18-1.14.31-2.03.31-1.07,0-1.92-.34-2.47-.96-.65-.68-.88-1.79-.88-3.28v-6.86h-1.95v-1.74h1.95v-3.02l2.24-.6Z"/>
    </g>
  </g>
</svg>