<?xml version="1.0" encoding="UTF-8"?>
<svg id="_10n3" data-name="10n3" xmlns="http://www.w3.org/2000/svg" viewBox="0 0 564.92 513.25">
  <defs>
    <style>
      .cls-1 {
        fill: #ffadae;
      }

      .cls-2 {
        fill: #c4535e;
      }

      .cls-3 {
        fill: #799641;
      }

      .cls-4, .cls-5 {
        fill: #fff;
      }

      .cls-6 {
        fill: #cecece;
      }

      .cls-7 {
        fill: #4f6d15;
      }

      .cls-8 {
        fill: #2b0003;
      }

      .cls-9 {
        fill: #89bc39;
      }

      .cls-10 {
        fill: #ecf193;
      }

      .cls-11 {
        fill: #597a23;
      }

      .cls-12 {
        fill: #719e29;
      }

      .cls-13 {
        fill: #3b5210;
      }

      .cls-14 {
        fill: #420003;
      }

      .cls-15 {
        fill: #0060e6;
      }

      .cls-16 {
        fill: #d6d86d;
      }

      .cls-17 {
        fill: #670001;
      }

      .cls-18 {
        fill: #ffdee0;
      }

      .cls-19 {
        fill: #f78d93;
      }

      .cls-20 {
        fill: #b8d788;
      }

      .cls-21 {
        fill: #4e6d13;
      }

      .cls-5 {
        opacity: .6;
      }

      .cls-22 {
        fill: #6b6c2d;
      }

      .cls-23 {
        fill: #4d6818;
      }

      .cls-24 {
        fill: #0079ff;
      }
    </style>
  </defs>
  <path class="cls-16" d="M72.44,428.6c-4.1.62-30.97,8.82-33.44,9.85,13.64-.46,23.9,12.87,17.84,27.28,2.46-2.25,16.21-25.84,18.87-29.53,2.66-3.69,10.05-4.51,15.59-4.92-4.51-2.05-14.77-3.28-18.87-2.67Z"/>
  <path class="cls-10" d="M51.23,442.25c6.5,4.91,9.62,13.96,5.62,23.47,2.46-2.25,16.21-25.84,18.87-29.53,1.48-2.05,4.42-3.21,7.68-3.91-11.79-3.68-22.35,3.23-32.18,9.98Z"/>
  <path class="cls-22" d="M72.37,428.1c-4,.6-30.94,8.79-33.55,9.88l.21.96c6.55-.22,12.56,2.85,16.07,8.13,3.52,5.3,4,12.03,1.29,18.45l.8.56c1.58-1.44,7.3-10.81,12.34-19.07,3-4.91,5.59-9.16,6.6-10.55,2.41-3.34,9.04-4.26,15.22-4.72l1.95-.14-1.78-.81c-4.62-2.1-15.15-3.31-19.15-2.71ZM75.32,435.89c-1.02,1.42-3.63,5.68-6.64,10.61-3.59,5.88-7.84,12.84-10.35,16.49,1.61-5.82.78-11.69-2.4-16.47-3.21-4.82-8.42-7.9-14.22-8.49,7.37-2.41,27.41-8.43,30.81-8.94,3.29-.49,11.51.31,16.52,1.86-5.71.55-11.38,1.69-13.72,4.94Z"/>
  <path class="cls-16" d="M64.97,469.88c9.21-3.75,12.44,2.1,15.06,16.56,1.43-1.85,13.54-27.28,18.05-30.35,4.52-3.08,20.21-5.88,28.92-11.49-14.36,2.46-31.17,1.03-36.3,2.66-5.13,1.64-24.29,19.75-25.72,22.62Z"/>
  <path class="cls-10" d="M74.92,471.27c2.32,2.79,3.79,7.88,5.11,15.17,1.43-1.85,13.54-27.28,18.05-30.35,2.74-1.87,9.61-3.64,16.53-5.99-23.3.38-26.85.25-39.69,21.18Z"/>
  <path class="cls-22" d="M103.7,445.77c-6,.13-10.75.24-13.16,1.01-5.44,1.75-24.62,20.09-26.02,22.87l.64.69c1.77-.72,3.27-1.07,4.61-1.07,4.85,0,7.5,4.68,9.77,17.25l.89.22c.42-.54,1.49-2.57,3.49-6.41,4.24-8.12,11.33-21.71,14.44-23.83,1.89-1.29,5.88-2.55,10.51-4.01,6.28-1.99,13.4-4.24,18.4-7.47l2.06-1.33-2.42.41c-7.75,1.33-16.32,1.52-23.21,1.67ZM108.56,451.53c-4.7,1.49-8.76,2.77-10.77,4.14-3.32,2.26-10.21,15.46-14.77,24.2-1.14,2.18-2.12,4.05-2.75,5.19-1.98-10.4-4.53-16.78-10.51-16.78-1.05,0-2.18.19-3.43.58,4.12-4.89,19.93-19.65,24.51-21.12,2.28-.73,7.19-.83,12.88-.96,6.16-.14,13.65-.3,20.74-1.28-4.66,2.48-10.59,4.35-15.91,6.04Z"/>
  <path class="cls-12" d="M1.6,276.17c-9.06,20.94,37.41,90.82,148.78,126.17-26.05,12.51-56.81,8.41-66.45,8.82-9.64.41-44.92,18.25-49.84,18.66-4.92.41-11.89-2.46-19.48,1.44-7.59,3.9-10.67,12.72-6.77,17.84,3.9,5.13,13.97,4.95,20.77.67,5.01-3.16,7.95-10.31,10.41-11.33,2.46-1.03,29.33-9.23,33.43-9.85,4.1-.62,14.36.62,18.87,2.67-5.54.41-12.92,1.23-15.59,4.92-2.67,3.69-16.41,27.28-18.87,29.54-2.46,2.26-12.31,3.69-16.2,10.05-3.9,6.36-2.67,14.77,4.72,18.05,7.38,3.28,15.18-3.49,17.23-9.02,2.05-5.54.94-12.05,2.38-14.92,1.44-2.87,20.6-20.98,25.72-22.62,5.13-1.64,21.95-.2,36.3-2.67-8.71,5.61-24.41,8.41-28.92,11.48-4.51,3.08-16.61,28.51-18.05,30.36-1.44,1.85-8.41,2.67-12.51,9.64-4.1,6.97-1.84,13.95,3.9,16,5.74,2.05,11.23-.79,14.36-6.77,2.96-5.65.62-12.1,2.26-15.79,1.64-3.69,17.84-20.51,20.71-22.15,2.87-1.64,27.05-4.07,38.15-13.13,23.89-19.48,46.25-28.21,54.04-37.33,6.88-8.06.01-17.1-5.23-29.23,14.46,6.54,25.51,4.5,32-2.77,10.15-11.38-3.51-34.85-37.17-74.41C116.05,222.95,13.37,248.97,1.6,276.17Z"/>
  <path class="cls-12" d="M1.6,276.17c-3.81,8.81,2.2,26.26,18.73,46.17,12.61,15.2,31.35,31.82,56.53,47.1,20.28,12.31,44.73,23.76,73.52,32.9-26.05,12.52-56.81,8.41-66.45,8.82-9.64.41-44.92,18.26-49.84,18.67-4.92.41-11.9-2.46-19.48,1.43-7.59,3.9-10.67,12.72-6.77,17.85,3.89,5.12,13.97,4.94,20.76.66,5.01-3.16,7.95-10.3,10.41-11.33,2.46-1.02,29.33-9.23,33.43-9.84,4.1-.62,14.36.61,18.87,2.66-5.54.41-12.92,1.23-15.59,4.92-2.66,3.7-16.4,27.28-18.86,29.54-2.47,2.26-12.31,3.69-16.21,10.05-3.89,6.36-2.66,14.77,4.72,18.05,7.38,3.28,15.18-3.49,17.23-9.03,2.05-5.53.94-12.04,2.37-14.91,1.44-2.87,20.6-20.98,25.73-22.62,5.12-1.64,21.94-.2,36.3-2.67-8.71,5.62-24.41,8.41-28.92,11.49-4.51,3.08-16.61,28.51-18.05,30.35-1.43,1.85-8.41,2.67-12.51,9.64-4.1,6.98-1.85,13.95,3.9,16,5.74,2.05,11.23-.79,14.35-6.77,2.96-5.65.62-12.1,2.26-15.79,1.64-3.69,17.84-20.51,20.71-22.15,2.88-1.64,27.05-4.07,38.15-13.13,23.9-19.48,46.26-28.2,54.05-37.32,6.88-8.06.01-17.11-5.23-29.23,14.46,6.54,25.51,4.5,31.99-2.77,10.16-11.38-3.51-34.85-37.16-74.41C116.05,222.95,13.37,248.97,1.6,276.17Z"/>
  <path class="cls-9" d="M1.6,276.17c-9.06,20.94,98.91,96.83,180.13,124.55-26.05,12.51-88.16,10.03-97.8,10.44-9.64.41-44.92,18.25-49.84,18.66-4.92.41-11.89-2.46-19.48,1.44-7.59,3.9-10.67,12.72-6.77,17.84,2.02,2.65,11.04,2.73,17.42-1.32,5.95-3.77,9.31-11.57,10.5-12.07,2.46-1.03,36.31-13.13,40.42-13.75,2.15-.32,36.64,3.55,40.46,4.09-9.37,3.32-16.75,4.6-25.32,5.2-5.54.41-12.92,1.23-15.59,4.92-2.67,3.69-16.41,27.28-18.87,29.54-2.46,2.26-12.31,3.69-16.2,10.05-3.9,6.36-2.67,14.77,4.72,18.05,3.77,1.67,10.61-3.52,13.83-10.1,3.09-6.32,2.61-13.97,3.31-15.38,1.44-2.87,21.5-23.48,26.62-25.12,4.04-1.29,33.62,0,47.17-6.29-2.32,2.57-5.58,5.46-9.3,7.67-8.71,5.61-24.41,8.41-28.92,11.48-4.51,3.08-16.61,28.51-18.05,30.36-1.44,1.85-8.41,2.67-12.51,9.64-4.1,6.97-1.84,13.95,3.9,16,2.82,1.01,7.89-3.55,10.21-8.85,2.41-5.5,2.04-11.81,2.87-13.69,1.64-3.69,18.8-25.42,21.67-27.06,2.87-1.64,30.23-8.39,41.33-17.44,23.89-19.48,45.64-19,53.43-28.12,6.88-8.06.01-17.1-5.23-29.23,14.46,6.54,25.51,4.5,32-2.77,10.15-11.38-3.51-34.85-37.17-74.41C116.05,222.95,13.37,248.97,1.6,276.17Z"/>
  <path class="cls-20" d="M15.05,433.46c-3.33,1.4-5.42,3.98-4.67,5.75.75,1.77,4.05,2.07,7.38.66,3.33-1.4,5.42-3.98,4.67-5.75-.75-1.77-4.05-2.07-7.38-.66Z"/>
  <path class="cls-20" d="M43.57,476.66c-2.26,2.81-2.62,6.29-.79,7.76,1.83,1.47,5.14.38,7.4-2.44,2.26-2.81,2.62-6.29.79-7.75-1.82-1.47-5.14-.38-7.4,2.44Z"/>
  <path class="cls-20" d="M70.98,496.08c-1.71,2.13-2.07,4.69-.79,5.71,1.28,1.02,3.7.13,5.41-2,1.71-2.13,2.07-4.69.79-5.71-1.27-1.02-3.7-.13-5.41,2Z"/>
  <path class="cls-20" d="M4.97,270.98c13.19-7.54,30.2-11.46,48.73-11.96,18.33-.5,38.14,2.34,57.18,8.34,12.35,3.89,24.38,9.11,35.47,15.6,9.95,5.82,19.15,12.67,27.16,20.51,7.56,7.56,15.47,11.43,21.28,12.07-1.38-1.65-2.79-3.33-4.25-5.04C120.83,228.57,26.43,246.1,4.97,270.98Z"/>
  <path class="cls-11" d="M87.06,322.57c-3.89,5.89,5.36,19.64,14.77,18.11,4.82-.78,7.79-10.32,0-18.11-6.83-6.83-12.62-3.26-14.77,0Z"/>
  <path class="cls-11" d="M83.11,262.18c-11.05-2.75-12.31,10.3-5.54,12.64,10.87,3.76,19.06-9.27,5.54-12.64Z"/>
  <path class="cls-11" d="M118.63,349.89c-7.53,4.33-5.76,14.61,0,19.56,5.76,4.95,15.5,4.56,18.5,1.61,6-5.89-4.25-29.36-18.5-21.17Z"/>
  <path class="cls-23" d="M1.14,276.63c-1.33,3.08-1.46,7.21-.36,12.14,43.12,12.6,59.06-19.17,51.05-37.09-26.46,3.23-45.95,13.99-50.69,24.95Z"/>
  <path class="cls-11" d="M6.29,269.54c-.06.06-.11.11-.16.16-2.05,2.11-3.59,4.29-4.53,6.47-1.45,3.35.1,8.12,4.07,13.87,39.43,8.89,53.86-21.13,46.16-38.36-20.67,2.52-37.09,9.64-45.54,17.86Z"/>
  <path class="cls-3" d="M4.95,270.92s0,.04,0,.06c13.19-7.54,30.21-11.46,48.74-11.96-.23-2.59-.86-5.08-1.87-7.34-21.82,2.66-38.9,10.45-46.88,19.24Z"/>
  <path class="cls-11" d="M155.16,278.15c-13.88-9.64-28.07-16.39-41.94-20.82-12.93,21.03,27.63,35.06,41.94,20.82Z"/>
  <path class="cls-3" d="M110.88,267.36c12.35,3.89,24.38,9.11,35.47,15.6,3.41-.9,6.46-2.48,8.81-4.81-13.88-9.64-28.07-16.39-41.94-20.82-2.2,3.58-2.85,6.97-2.34,10.03Z"/>
  <path class="cls-7" d="M20.33,322.34c12.61,15.2,31.35,31.82,56.53,47.1-.08-1.39-.2-2.88-.39-4.48-5.5-48.77-44.81-54.67-56.14-42.62Z"/>
  <path class="cls-11" d="M32.73,317.09c11.02,9.01,24.33,18.63,38.95,28.14-8.71-21.64-26.16-29.23-38.95-28.14Z"/>
  <path class="cls-13" d="M68.54,249.75c-35.09,0-61.83,13.33-67.41,26.22-2.25,5.21-1.13,13.26,3.15,22.68,15.26,33.49,65.89,78.47,144.72,103.78-12.53,5.76-27.82,8.56-46.66,8.56-4.08,0-7.68-.12-10.87-.22-3.17-.1-5.75-.18-7.58-.11-5.84.25-20.85,6.76-32.91,11.98-8.07,3.5-15.04,6.52-16.95,6.68-1.48.12-3.18-.06-5.01-.26-1.7-.18-3.46-.38-5.36-.38-3.51,0-6.47.68-9.29,2.13-4.3,2.21-7.45,6.1-8.43,10.41-.7,3.09-.17,5.99,1.49,8.18,1.96,2.58,5.61,4.06,10,4.06,3.96,0,8.13-1.19,11.43-3.27,2.88-1.81,5.09-4.9,6.87-7.39,1.35-1.88,2.51-3.51,3.47-3.91,2.6-1.09,29.36-9.22,33.31-9.81,3.3-.49,11.51.31,16.52,1.86-5.71.55-11.38,1.69-13.72,4.94-1.03,1.42-3.64,5.7-6.66,10.65-4.75,7.78-10.67,17.46-12.14,18.81-.77.71-2.45,1.37-4.4,2.15-3.9,1.55-9.24,3.67-11.9,8.01-2.21,3.61-2.83,7.8-1.68,11.49,1.02,3.29,3.31,5.81,6.62,7.28,1.35.6,2.77.9,4.23.9,6.1,0,11.85-5.3,13.67-10.21,1.13-3.05,1.32-6.33,1.49-9.22.14-2.37.25-4.41.87-5.64,1.32-2.63,20.33-20.73,25.43-22.37,2.28-.73,7.2-.84,12.89-.96,6.15-.14,13.65-.3,20.73-1.28-4.66,2.48-10.59,4.36-15.91,6.04-4.7,1.49-8.75,2.77-10.76,4.14-3.32,2.26-10.2,15.46-14.76,24.19-1.68,3.23-3.02,5.78-3.4,6.27-.39.51-1.46,1-2.69,1.58-2.79,1.31-7.01,3.28-9.86,8.12-2.18,3.71-2.74,7.74-1.53,11.06.97,2.69,3,4.69,5.69,5.66,1.28.46,2.58.69,3.87.69,4.49,0,8.54-2.81,11.1-7.7,1.75-3.35,1.71-6.92,1.67-10.06-.03-2.3-.05-4.28.6-5.76,1.52-3.42,17.66-20.29,20.5-21.92.74-.42,3.33-.97,6.6-1.65,8.81-1.85,23.56-4.95,31.62-11.52,12.33-10.06,24.34-17.29,33.99-23.11,9.11-5.49,16.3-9.82,20.12-14.29,5.79-6.78,2.13-14.38-2.1-23.18-.84-1.74-1.7-3.53-2.53-5.4,5.42,2.31,10.52,3.47,15.17,3.47,6.59,0,12.2-2.38,16.22-6.88,9.84-11.03-.58-32.07-37.16-75.06-44.74-52.58-95.87-60.43-122.37-60.43ZM227.33,384.58c-3.82,4.29-9.17,6.55-15.47,6.55-4.85,0-10.21-1.31-15.94-3.9l-1.18-.53.51,1.19c1,2.31,2.05,4.49,3.06,6.6,4.25,8.84,7.61,15.82,2.25,22.1-3.71,4.34-10.84,8.64-19.87,14.08-9.68,5.83-21.72,13.08-34.11,23.19-7.88,6.42-22.47,9.49-31.19,11.32-3.62.76-6.01,1.26-6.89,1.76-2.69,1.54-19.19,18.48-20.92,22.38-.75,1.68-.72,3.86-.69,6.18.04,3.03.08,6.46-1.55,9.59-2.38,4.55-6.11,7.16-10.22,7.16-1.17,0-2.35-.21-3.53-.63-2.41-.86-4.22-2.66-5.09-5.06-1.1-3.04-.58-6.77,1.45-10.22,2.69-4.57,6.58-6.39,9.42-7.72,1.4-.66,2.51-1.17,3.05-1.87.42-.54,1.49-2.58,3.5-6.43,4.24-8.12,11.33-21.7,14.44-23.82,1.89-1.29,5.88-2.55,10.5-4.01,6.28-1.99,13.4-4.24,18.41-7.47l2.06-1.33-2.41.41c-7.75,1.33-16.31,1.52-23.2,1.67-6.01.13-10.76.24-13.17,1.01-5.45,1.74-24.63,20.09-26.02,22.87-.71,1.42-.83,3.56-.97,6.04-.16,2.82-.35,6.02-1.42,8.93-1.71,4.62-7.23,9.56-12.73,9.56-1.32,0-2.61-.28-3.83-.82-3.04-1.35-5.14-3.65-6.07-6.66-1.06-3.41-.48-7.3,1.58-10.67,2.48-4.05,7.64-6.11,11.41-7.6,2.12-.84,3.8-1.51,4.7-2.34,1.57-1.44,7.28-10.78,12.31-19.03,3.01-4.93,5.62-9.19,6.62-10.59,2.41-3.34,9.05-4.26,15.22-4.72l1.95-.14-1.78-.81c-4.62-2.1-15.15-3.31-19.15-2.71-3.98.6-30.93,8.79-33.55,9.88-1.22.51-2.4,2.16-3.9,4.25-1.73,2.41-3.88,5.41-6.59,7.12-3.15,1.98-7.12,3.12-10.9,3.12-4.08,0-7.43-1.34-9.2-3.67-1.48-1.95-1.95-4.56-1.31-7.35.91-4.02,3.87-7.67,7.91-9.74,2.68-1.38,5.49-2.02,8.84-2.02,1.84,0,3.58.19,5.25.37,1.89.21,3.64.39,5.21.26,2.07-.17,8.77-3.08,17.26-6.76,11.98-5.2,26.9-11.66,32.56-11.9,1.8-.08,4.36,0,7.5.11,3.19.1,6.81.22,10.9.22,19.58,0,35.36-3.01,48.24-9.2l1.14-.55-1.2-.38c-79.24-25.15-130.08-70.17-145.33-103.63-4.17-9.15-5.29-16.92-3.15-21.87,5.45-12.59,31.81-25.62,66.49-25.62,26.33,0,77.13,7.81,121.61,60.08,35.7,41.96,46.47,63.33,37.18,73.75Z"/>
  <path class="cls-13" d="M143.48,322.89c-27.17-20.01-59.43-30.08-95.97-30.02-2.82,0-8.48,1.2-8.48,1.2,97.88-4.3,141.85,64.18,156.23,93.83l.9-.44c-8.87-18.3-25.21-44.35-52.67-64.57Z"/>
  <path class="cls-13" d="M91.33,431.76c10.09-.34,22.25-3.62,31.05-7.34,2.48-1.05,6.01-4.06,6.01-4.06-8.2,4.78-24.32,9.98-37.09,10.4l.03,1Z"/>
  <path class="cls-13" d="M126.75,444.16l.49.87c2.47-1.4,4.81-3.27,6.76-5.04,2.99-2.72,4.4-6.02,4.4-6.02-.05.07-5.55,6.74-11.65,10.19Z"/>
  <path class="cls-16" d="M473.61,431.26c5.54.41,12.92,1.23,15.59,4.92,2.66,3.69,16.41,27.28,18.87,29.53-6.05-14.4,4.2-27.74,17.84-27.28-2.46-1.03-29.33-9.23-33.44-9.85-4.1-.62-14.35.62-18.87,2.67Z"/>
  <path class="cls-10" d="M481.52,432.27c3.27.7,6.2,1.86,7.68,3.91,2.66,3.69,16.41,27.28,18.87,29.53-4-9.51-.88-18.55,5.62-23.47-9.83-6.75-20.38-13.66-32.18-9.98Z"/>
  <path class="cls-22" d="M473.41,430.81l-1.78.81,1.95.14c6.17.46,12.81,1.38,15.22,4.72,1,1.39,3.59,5.63,6.6,10.55,5.05,8.26,10.77,17.62,12.34,19.07l.8-.56c-2.7-6.42-2.23-13.15,1.29-18.45,3.51-5.28,9.52-8.35,16.07-8.13l.21-.96c-2.61-1.09-29.56-9.28-33.55-9.88-3.99-.6-14.53.61-19.15,2.71ZM508.99,446.52c-3.18,4.78-4,10.65-2.4,16.47-2.51-3.65-6.76-10.61-10.35-16.49-3.01-4.93-5.61-9.19-6.64-10.61-2.34-3.24-8.01-4.39-13.72-4.94,5.01-1.55,13.23-2.36,16.52-1.86,3.39.51,23.44,6.53,30.81,8.94-5.8.58-11.01,3.66-14.22,8.49Z"/>
  <path class="cls-16" d="M474.23,447.26c-5.13-1.64-21.95-.2-36.3-2.66,8.71,5.61,24.4,8.41,28.92,11.49,4.51,3.08,16.61,28.51,18.05,30.35,2.62-14.46,5.84-20.3,15.06-16.56-1.43-2.87-20.59-20.98-25.72-22.62Z"/>
  <path class="cls-10" d="M450.32,450.09c6.92,2.36,13.79,4.12,16.53,5.99,4.51,3.08,16.61,28.51,18.05,30.35,1.32-7.29,2.79-12.38,5.11-15.17-12.84-20.92-16.39-20.8-39.69-21.18Z"/>
  <path class="cls-22" d="M474.38,446.78c-2.42-.77-7.16-.88-13.16-1.01-6.89-.15-15.46-.34-23.21-1.67l-2.41-.41,2.06,1.33c5,3.23,12.12,5.48,18.4,7.47,4.62,1.46,8.62,2.73,10.51,4.01,3.11,2.12,10.21,15.71,14.44,23.83,2,3.84,3.07,5.87,3.49,6.41l.89-.22c2.27-12.58,4.92-17.25,9.77-17.25,1.33,0,2.84.35,4.61,1.07l.64-.69c-1.39-2.78-20.57-21.13-26.02-22.87ZM495.16,468.27c-5.99,0-8.53,6.39-10.51,16.78-.63-1.13-1.61-3.01-2.75-5.19-4.56-8.73-11.45-21.93-14.77-24.2-2.01-1.37-6.07-2.65-10.77-4.14-5.32-1.68-11.24-3.56-15.91-6.04,7.09.98,14.59,1.15,20.74,1.28,5.69.13,10.6.24,12.88.96,4.58,1.47,20.39,16.23,24.51,21.12-1.25-.39-2.38-.58-3.43-.58Z"/>
  <path class="cls-12" d="M563.33,276.17c-11.77-27.2-114.45-53.22-188.94,34.33-33.65,39.56-47.32,63.02-37.17,74.41,6.48,7.27,17.54,9.31,32,2.77-5.24,12.12-12.11,21.17-5.23,29.23,7.79,9.12,30.15,17.84,54.04,37.33,11.1,9.05,35.28,11.49,38.15,13.13,2.87,1.64,19.07,18.46,20.71,22.15,1.64,3.69-.7,10.14,2.26,15.79,3.13,5.97,8.61,8.82,14.36,6.77,5.74-2.05,8-9.02,3.9-16-4.1-6.97-11.08-7.79-12.51-9.64-1.44-1.85-13.54-27.28-18.05-30.36-4.51-3.08-20.21-5.87-28.92-11.48,14.36,2.46,31.18,1.03,36.3,2.67,5.13,1.64,24.29,19.75,25.72,22.62,1.43,2.87.33,9.38,2.38,14.92,2.05,5.54,9.85,12.31,17.23,9.02,7.38-3.28,8.61-11.69,4.72-18.05-3.9-6.36-13.74-7.79-16.2-10.05-2.46-2.26-16.2-25.84-18.87-29.54-2.67-3.69-10.05-4.51-15.59-4.92,4.51-2.05,14.77-3.28,18.87-2.67,4.1.62,30.97,8.82,33.43,9.85,2.46,1.03,5.4,8.17,10.41,11.33,6.79,4.28,16.87,4.46,20.77-.67,3.9-5.13.82-13.95-6.77-17.84-7.59-3.9-14.56-1.02-19.48-1.44-4.92-.41-40.2-18.25-49.84-18.66-9.64-.41-40.41,3.69-66.45-8.82,111.37-35.35,157.84-105.23,148.78-126.17Z"/>
  <path class="cls-9" d="M563.33,276.17c-11.77-27.2-114.45-53.22-188.94,34.33-33.65,39.56-47.32,63.02-37.17,74.41,6.48,7.27,17.54,9.31,32,2.77-5.24,12.12-12.11,21.17-5.23,29.23,7.79,9.12,29.54,8.64,53.43,28.12,11.1,9.05,38.46,15.8,41.33,17.44,2.87,1.64,20.03,23.37,21.67,27.06.84,1.88.46,8.19,2.87,13.69,2.32,5.3,7.4,9.86,10.21,8.85,5.74-2.05,8-9.02,3.9-16-4.1-6.97-11.08-7.79-12.51-9.64-1.44-1.85-13.54-27.28-18.05-30.36-4.51-3.08-20.21-5.87-28.92-11.48-3.72-2.21-6.98-5.09-9.3-7.67,13.54,6.29,43.12,5,47.17,6.29,5.13,1.64,25.19,22.25,26.62,25.12.7,1.41.22,9.06,3.31,15.38,3.22,6.58,10.06,11.77,13.83,10.1,7.38-3.28,8.61-11.69,4.72-18.05-3.9-6.36-13.74-7.79-16.2-10.05-2.46-2.26-16.2-25.84-18.87-29.54-2.67-3.69-10.05-4.51-15.59-4.92-8.57-.61-15.95-1.88-25.32-5.2,3.82-.54,38.31-4.41,40.46-4.09,4.1.62,37.96,12.72,40.42,13.75,1.19.5,4.55,8.3,10.5,12.07,6.38,4.05,15.4,3.97,17.42,1.32,3.9-5.13.82-13.95-6.77-17.84-7.59-3.9-14.56-1.02-19.48-1.44-4.92-.41-40.2-18.25-49.84-18.66-9.64-.41-71.75,2.07-97.8-10.44,81.22-27.72,189.19-103.61,180.13-124.55Z"/>
  <path class="cls-20" d="M548.19,432.78c-3.33-1.4-6.63-1.11-7.38.66-.75,1.77,1.34,4.35,4.67,5.75,3.33,1.4,6.63,1.11,7.38-.66.75-1.77-1.34-4.34-4.67-5.75Z"/>
  <path class="cls-20" d="M514.86,474.22c-1.83,1.47-1.47,4.94.79,7.75,2.26,2.82,5.58,3.91,7.4,2.44,1.83-1.47,1.47-4.94-.79-7.76-2.26-2.81-5.58-3.91-7.4-2.44Z"/>
  <path class="cls-20" d="M490.19,494.08c-1.28,1.02-.92,3.58.79,5.71,1.71,2.13,4.13,3.03,5.41,2,1.28-1.02.92-3.58-.79-5.71-1.71-2.13-4.14-3.03-5.41-2Z"/>
  <path class="cls-20" d="M374.39,310.5c-19.19,22.56-2.67,12.67,17.03-7.03,44.58-43.65,126.23-56.67,168.54-32.49-21.48-24.88-115.87-42.41-185.57,39.53Z"/>
  <path class="cls-11" d="M462.64,322.12c-7.79,7.79-4.82,17.33,0,18.11,9.41,1.53,18.65-12.23,14.77-18.11-2.15-3.26-7.94-6.83-14.77,0Z"/>
  <path class="cls-23" d="M432.81,364.98c-6.24,3.59-4.91,11.55-.43,15.73,4.48,4.17,17.36-1.79,19.76-6.68,3.35-6.83-13.09-12.64-19.33-9.05Z"/>
  <path class="cls-11" d="M432.81,364.98c-5.99,3.44-5.01,10.92-.96,15.2,6.69-3.28,13.38-6.75,20-10.34-2.98-4.71-14.15-7.68-19.04-4.86Z"/>
  <path class="cls-11" d="M467.17,264.64c-7.42,1.02-10.25,13.83,2.34,11.37,6.81-1.33,8.8-12.9-2.34-11.37Z"/>
  <path class="cls-23" d="M472.38,378.33c17.72-9.36,32.78-19.48,45.27-29.66-30.87-26.49-47.03,7.8-45.27,29.66Z"/>
  <path class="cls-11" d="M476.07,355.98c8.9-5.36,17.49-10.85,25.58-16.33-12.34-2.95-21,5.37-25.58,16.33Z"/>
  <path class="cls-11" d="M554.44,265.91c-11.27-8.47-31.17-15.13-55.11-15.63,9.75,21.42,38.89,36.54,55.11,15.63Z"/>
  <path class="cls-3" d="M504.6,258.98c17.95-.29,34.78,2.5,48.49,8.55.46-.51.91-1.05,1.35-1.62-11.27-8.47-31.17-15.13-55.11-15.63,1.39,3.06,3.18,5.99,5.27,8.7Z"/>
  <path class="cls-11" d="M384.59,299.38c28.29,20.14,47.06-13.26,42.73-31.86-14.52,7.57-28.99,17.98-42.73,31.86Z"/>
  <path class="cls-3" d="M384.59,299.38c2.38,1.7,4.7,3.02,6.94,3.99,10.34-10.11,22.67-18.56,36.04-25.3.56-3.72.49-7.35-.25-10.55-14.52,7.57-28.99,17.98-42.73,31.86Z"/>
  <path class="cls-23" d="M531.39,305.95c-14.25-8.19-24.5,15.29-18.5,21.17,3,2.94,12.74,3.33,18.5-1.62,5.76-4.95,7.53-15.22,0-19.56Z"/>
  <path class="cls-11" d="M531.39,305.95c-14.25-8.2-24.5,15.28-18.5,21.17.85.84,2.26,1.47,3.96,1.83,7.13-5.24,13.69-10.38,19.49-15.32-.29-3.05-1.82-5.88-4.95-7.68Z"/>
  <path class="cls-13" d="M496.38,249.75c-26.5,0-77.63,7.85-122.37,60.43-36.58,42.99-47,64.04-37.16,75.06,4.02,4.5,9.63,6.88,16.22,6.88,4.66,0,9.76-1.17,15.17-3.47-.83,1.87-1.69,3.65-2.53,5.4-4.23,8.8-7.89,16.41-2.1,23.18,3.81,4.46,11.01,8.8,20.12,14.29,9.65,5.81,21.66,13.05,33.99,23.11,8.06,6.58,22.81,9.67,31.62,11.52,3.27.69,5.86,1.23,6.6,1.65,2.84,1.63,18.99,18.5,20.5,21.92.66,1.48.63,3.46.6,5.76-.04,3.15-.09,6.72,1.67,10.06,2.56,4.89,6.61,7.7,11.1,7.7,1.28,0,2.58-.23,3.87-.69,2.7-.96,4.72-2.97,5.69-5.66,1.21-3.32.65-7.36-1.53-11.06-2.85-4.84-7.07-6.81-9.86-8.12-1.23-.57-2.29-1.07-2.69-1.58-.38-.49-1.72-3.05-3.4-6.27-4.56-8.73-11.44-21.92-14.76-24.19-2.01-1.37-6.06-2.65-10.76-4.14-5.32-1.68-11.25-3.56-15.91-6.04,7.09.98,14.58,1.15,20.73,1.28,5.69.13,10.61.24,12.89.96,5.1,1.63,24.11,19.73,25.43,22.37.62,1.23.73,3.28.87,5.64.17,2.89.35,6.17,1.49,9.22,1.82,4.91,7.56,10.21,13.67,10.21,1.46,0,2.88-.3,4.23-.9,3.31-1.47,5.6-3.99,6.62-7.28,1.15-3.69.53-7.87-1.68-11.49-2.66-4.34-8-6.46-11.9-8.01-1.95-.77-3.63-1.44-4.4-2.15-1.47-1.35-7.38-11.03-12.14-18.81-3.02-4.95-5.64-9.23-6.66-10.65-2.34-3.25-8.01-4.39-13.72-4.94,5.01-1.55,13.23-2.36,16.52-1.86,3.95.59,30.71,8.73,33.31,9.81.96.4,2.12,2.02,3.47,3.91,1.78,2.48,3.99,5.57,6.87,7.39,3.3,2.08,7.47,3.27,11.43,3.27,4.39,0,8.03-1.48,10-4.06,1.66-2.19,2.19-5.09,1.49-8.18-.98-4.31-4.13-8.2-8.43-10.41-2.83-1.45-5.78-2.13-9.29-2.13-1.9,0-3.66.19-5.36.38-1.84.2-3.53.39-5.01.26-1.9-.16-8.88-3.18-16.95-6.68-12.06-5.23-27.07-11.74-32.91-11.98-1.83-.08-4.41,0-7.58.11-3.18.1-6.79.22-10.87.22-18.85,0-34.13-2.8-46.66-8.56,78.83-25.32,129.46-70.3,144.72-103.78,4.29-9.41,5.41-17.47,3.15-22.68-5.58-12.89-32.32-26.22-67.41-26.22ZM559.72,298.23c-15.24,33.46-66.09,78.48-145.33,103.63l-1.2.38,1.14.55c12.88,6.19,28.66,9.2,48.24,9.2,4.09,0,7.71-.12,10.9-.22,3.14-.1,5.7-.18,7.5-.11,5.66.24,20.57,6.71,32.56,11.9,8.49,3.68,15.19,6.59,17.26,6.76,1.57.13,3.32-.06,5.21-.26,1.68-.18,3.41-.37,5.25-.37,3.35,0,6.16.64,8.84,2.02,4.04,2.08,7,5.72,7.91,9.74.63,2.79.17,5.41-1.31,7.35-1.77,2.33-5.12,3.67-9.2,3.67-3.78,0-7.75-1.14-10.9-3.12-2.71-1.71-4.86-4.71-6.59-7.12-1.5-2.09-2.68-3.74-3.9-4.25-2.62-1.09-29.57-9.28-33.55-9.88-4-.6-14.53.61-19.15,2.71l-1.78.81,1.95.14c6.17.46,12.81,1.38,15.22,4.72,1.01,1.39,3.61,5.65,6.62,10.59,5.03,8.24,10.74,17.58,12.31,19.03.9.83,2.58,1.49,4.7,2.34,3.77,1.5,8.93,3.55,11.41,7.6,2.06,3.37,2.64,7.26,1.58,10.67-.94,3.01-3.04,5.31-6.07,6.66-1.22.54-2.51.82-3.83.82-5.5,0-11.02-4.94-12.73-9.56-1.08-2.91-1.26-6.11-1.42-8.93-.14-2.48-.26-4.62-.97-6.04-1.39-2.78-20.57-21.13-26.02-22.87-2.42-.77-7.16-.88-13.17-1.01-6.88-.15-15.45-.34-23.2-1.67l-2.41-.41,2.06,1.33c5,3.23,12.12,5.48,18.41,7.47,4.62,1.46,8.62,2.73,10.5,4.01,3.11,2.12,10.2,15.71,14.44,23.82,2.01,3.85,3.08,5.89,3.5,6.43.54.7,1.65,1.21,3.05,1.87,2.84,1.33,6.73,3.15,9.42,7.72,2.03,3.45,2.56,7.17,1.45,10.22-.87,2.4-2.68,4.2-5.09,5.06-1.17.42-2.36.63-3.53.63-4.11,0-7.83-2.61-10.22-7.16-1.64-3.12-1.59-6.56-1.55-9.59.03-2.31.06-4.5-.69-6.18-1.73-3.9-18.23-20.84-20.92-22.38-.88-.5-3.27-1-6.89-1.76-8.72-1.83-23.32-4.9-31.19-11.32-12.39-10.1-24.43-17.36-34.11-23.19-9.03-5.44-16.17-9.74-19.87-14.08-5.36-6.28-2-13.26,2.25-22.1,1.02-2.11,2.07-4.29,3.06-6.6l.51-1.19-1.18.53c-5.73,2.59-11.09,3.9-15.94,3.9-6.3,0-11.65-2.27-15.47-6.55-9.29-10.42,1.48-31.79,37.18-73.75,44.47-52.28,95.28-60.08,121.61-60.08,34.68,0,61.04,13.03,66.49,25.62,2.14,4.95,1.02,12.71-3.15,21.87Z"/>
  <path class="cls-13" d="M421.44,322.89c-27.46,20.22-43.8,46.27-52.67,64.57l.9.44c14.38-29.64,58.34-98.13,156.23-93.83,0,0-5.66-1.19-8.48-1.2-36.55-.07-68.81,10.01-95.97,30.02Z"/>
  <path class="cls-13" d="M442.55,424.42c8.8,3.73,20.96,7.01,31.05,7.34l.03-1c-12.78-.43-28.89-5.62-37.09-10.4,0,0,3.53,3.01,6.01,4.06Z"/>
  <path class="cls-13" d="M426.52,433.97s1.42,3.29,4.4,6.02c1.95,1.77,4.29,3.65,6.76,5.04l.49-.87c-6.1-3.45-11.6-10.12-11.65-10.19Z"/>
  <path class="cls-10" d="M282.46,255.49c-47.49-.38-68.64-10.46-68.64-10.46-33.23,39.42-50.72,206.97,68.64,206.97s101.87-167.55,68.65-206.97c0,0-21.15,10.08-68.65,10.46Z"/>
  <path d="M351.24,244.42l-.35.17c-.21.1-21.63,10.03-68.43,10.41-46.8-.38-68.22-10.31-68.43-10.41l-.35-.17-.25.29c-21.65,25.69-36.55,105.06-11.99,157.9,15.17,32.64,43.19,49.89,81.01,49.89s65.84-17.25,81.01-49.89c24.57-52.84,9.67-132.22-11.99-157.9l-.25-.29ZM362.57,402.19c-15,32.26-42.7,49.31-80.11,49.31s-65.11-17.05-80.11-49.31c-24.32-52.31-9.75-130.76,11.6-156.55,2.99,1.29,24.72,10,68.51,10.35,43.78-.35,65.51-9.06,68.5-10.35,21.36,25.79,35.93,104.24,11.6,156.55Z"/>
  <path class="cls-9" d="M282.46,255.49c-27.73-.22-46.48-3.75-57.28-6.65-7.7-2.06-11.36-3.8-11.36-3.8-28.45,33.74-45.36,161.41,25.27,197.44,11.87,6.05,26.2,9.52,43.37,9.52,119.37,0,101.88-167.55,68.65-206.96,0,0-21.15,10.07-68.65,10.45Z"/>
  <path d="M351.24,244.42l-.35.17c-.21.1-21.63,10.03-68.43,10.4-27.64-.22-46.34-3.73-57.16-6.63-7.55-2.02-11.24-3.75-11.27-3.77l-.35-.16-.25.29c-18.06,21.41-31.24,79.6-21.29,128.87,6.7,33.19,22.86,57.17,46.72,69.34,12.46,6.35,27.13,9.57,43.6,9.57,37.83,0,65.85-17.25,81.02-49.9,24.56-52.84,9.66-132.21-11.99-157.88l-.25-.29ZM362.57,402.18c-15,32.27-42.7,49.32-80.12,49.32-16.3,0-30.82-3.18-43.14-9.47-23.58-12.03-39.55-35.77-46.19-68.65-9.85-48.77,3.05-106.27,20.83-127.74,1.09.48,4.68,1.96,11.09,3.67,10.88,2.92,29.66,6.45,57.41,6.67,43.79-.35,65.52-9.05,68.5-10.34,21.36,25.79,35.93,104.21,11.61,156.53Z"/>
  <path class="cls-16" d="M339.74,248.84c-10.8,2.9-29.55,6.43-57.28,6.65-27.73-.22-46.48-3.75-57.28-6.65,19.24,37.74-2.76,60.8-15.26,104.8-8.37,29.48-11.71,68.58,29.17,88.84,11.87,6.05,26.2,9.52,43.37,9.52s31.5-3.47,43.37-9.52c40.88-20.26,37.54-59.37,29.17-88.84-12.5-44-34.5-67.06-15.26-104.8Z"/>
  <path class="cls-10" d="M339.74,248.84c-10.8,2.9-31.09,21.35-58.82,21.57-27.73-.22-44.94-18.67-55.74-21.57,19.24,37.74-2.76,60.8-15.26,104.8-3.98,14-6.82,30.18-4.32,45.48,8.06,16.6,46.15,32.71,76.86,32.65,30.71-.06,68-14.58,77.11-34.32,2.04-14.8-.74-30.31-4.57-43.81-12.5-44-34.5-67.06-15.26-104.8Z"/>
  <path class="cls-22" d="M344.08,321.25c-9.92-25.14-17.76-44.99-3.9-72.18l.51-1-1.09.29c-10.82,2.9-29.52,6.41-57.15,6.63-27.64-.22-46.34-3.73-57.15-6.63l-1.09-.29.51,1c13.86,27.19,6.02,47.04-3.9,72.18-3.73,9.45-7.96,20.16-11.39,32.25-5.35,18.84-6.63,34.58-3.89,48.11,3.69,18.29,14.9,32.19,33.32,41.31,12.46,6.35,27.13,9.57,43.6,9.57s31.13-3.22,43.59-9.57c18.42-9.13,29.63-23.03,33.32-41.31,2.73-13.53,1.46-29.27-3.89-48.11-3.43-12.09-7.66-22.8-11.39-32.25ZM325.6,442.03c-12.32,6.28-26.84,9.47-43.14,9.47s-30.82-3.18-43.15-9.47c-31.84-15.78-41.3-44.65-28.91-88.26,3.42-12.04,7.64-22.73,11.36-32.16,9.9-25.07,17.74-44.93,4.36-72.01,11.02,2.86,29.48,6.17,56.34,6.38,26.85-.21,45.31-3.52,56.33-6.38-13.38,27.08-5.54,46.94,4.36,72.01,3.72,9.43,7.94,20.12,11.36,32.16,12.39,43.61,2.93,72.48-28.92,88.26Z"/>
  <path d="M161.57,424.07l.69.73c3.51-3.3,10.51-6.69,10.58-6.72l-.43-.9c-.29.14-7.2,3.48-10.83,6.89Z"/>
  <path class="cls-16" d="M389.64,456.64c5.48,13.53-.43,30.79.38,32.73,4.37-9.15,16.23-9.53,21.28-2.37-.16-3.23-2.44-15.37-5.43-19.1-2.99-3.73-10.53-9.8-16.23-11.26Z"/>
  <path class="cls-10" d="M389.64,456.64s.02.05.03.07c6.51,7.11,7.25,16.54,5.54,27,5.35-3.08,12.47-1.85,16.1,3.29-.16-3.23-2.44-15.37-5.43-19.1-2.99-3.73-10.53-9.8-16.23-11.26Z"/>
  <path class="cls-22" d="M406.26,467.58c-2.97-3.71-10.55-9.91-16.5-11.43l-.96-.25.37.92c3.91,9.66,1.91,21.43.84,27.75-.51,2.99-.72,4.34-.46,4.98l.43,1.03.48-1.01c2.11-4.42,6.22-7.06,10.99-7.06,3.81,0,7.33,1.78,9.44,4.76l.99,1.41-.08-1.72c-.16-3.2-2.43-15.51-5.54-19.38ZM401.45,481.52c-4.49,0-8.43,2.15-10.88,5.85.11-.76.26-1.68.42-2.63,1.06-6.21,3-17.61-.53-27.34,5.4,1.8,12.23,7.33,15.01,10.8,2.49,3.11,4.57,12.63,5.16,17.19-2.32-2.46-5.64-3.88-9.19-3.88Z"/>
  <path class="cls-16" d="M367.94,454.41c-3.35-1.07-17.91,16.67-16.01,31.06,10.44-7.89,21.81-6.2,29.64,2.86,1.32-13-10.28-32.85-13.63-33.92Z"/>
  <path class="cls-10" d="M367.94,454.41c-.07-.02-.15-.02-.23-.03-5.1,2.86-11.21,16.97-10.29,27.86,8.78-3.83,17.67-1.4,24.14,6.09,1.32-13-10.28-32.85-13.63-33.92Z"/>
  <path class="cls-22" d="M368.09,453.93c-.14-.05-.3-.07-.47-.07-1.89,0-4.76,3.04-5.91,4.35-5.81,6.63-11.51,18.01-10.28,27.32l.11.85.68-.52c4.28-3.23,8.92-4.94,13.44-4.94,5.79,0,11.15,2.67,15.52,7.72l.76.88.12-1.15c1.31-12.92-10.07-33.2-13.97-34.45ZM381.16,487.12c-4.37-4.65-9.83-7.19-15.48-7.19-4.49,0-9.08,1.6-13.34,4.62-.75-8.84,4.64-19.42,10.13-25.68,2.81-3.21,4.73-4.18,5.32-3.99,3.06.98,13.92,19.44,13.37,32.24Z"/>
  <path class="cls-16" d="M315.21,471.71c10.91-3.14,21.44,3.57,25.9,12.18,1.02-2.26-1.74-24.4.3-35.26-11.62,1.28-26.23,21.23-26.21,23.08Z"/>
  <path class="cls-10" d="M341.1,450.69c-8.42,4.62-16.56,11.37-21.42,20.27,9.22-.49,17.58,5.51,21.43,12.93.96-2.13-1.42-21.82-.01-33.2Z"/>
  <path class="cls-22" d="M314.71,471.71v.66s.64-.18.64-.18c1.77-.51,3.58-.76,5.4-.76,9.22,0,16.65,6.38,19.92,12.69l.48.92.42-.94c.43-.97.3-4.25,0-10.44-.37-7.79-.88-18.46.33-24.93l.12-.66-.67.07c-11.83,1.3-26.68,21.15-26.65,23.59ZM340.83,482.35c-4.31-7.19-12.2-11.93-20.08-11.93-1.59,0-3.18.19-4.73.56,2.07-3.85,14.29-20,24.79-21.77-1.08,6.63-.59,16.91-.23,24.48.17,3.48.33,6.82.26,8.66Z"/>
  <path class="cls-12" d="M421.37,486.03c-1.05-1.29-.68-10.29-2.7-19.98-2.02-9.7-10.1-19.73-15.67-24.61-3.07-2.68,5.77-20.38,10.18-41.78,3.6-17.43,2.79-38.59,2.28-45.76-1.13-15.96-36.13-122.52-64.36-108.87l1.82,72.72c-2.2,19.71,7.96,36.42,18.23,49.95-10.32,13.2-13.87,45.23-26.2,56.77-27.65,8.08-37.32,40.85-38.38,42.65-1.06,1.8-6.78,4.98-8.61,11.65-1.83,6.67,1.47,13.61,5.77,14.9,4.3,1.29,10.25.56,13.09-5.28,2.84-5.84-1.59-14.84-1.61-16.69-.02-1.85,14.59-21.81,26.21-23.08-2.04,10.86.71,33-.3,35.26-1.02,2.26-4.04,4.56-5.53,9.96-1.49,5.4-.03,12.52,6.03,14.41,6.05,1.89,12.63-.45,14.21-6.47,1.58-6.02-3.45-12.94-3.89-16.31-1.9-14.4,12.66-32.13,16.01-31.06,3.35,1.07,14.95,20.91,13.63,33.92-.23,2.23-5.6,6.15-6.77,11.47-1.33,6,2.7,11.95,8.34,12.79,5.65.85,11.88-1.77,12.75-8.8.87-7.04-5.07-12.49-5.87-14.42-.8-1.93,5.1-19.19-.38-32.73,5.7,1.46,13.25,7.53,16.23,11.26,2.99,3.73,5.27,15.87,5.43,19.1.16,3.23-3.37,5.43-3.91,12.59-.54,7.16,4.23,11.8,10.89,11.93,6.66.13,11.6-4.55,10.82-12.43-.59-6.02-6.66-11.77-7.71-13.06Z"/>
  <path class="cls-9" d="M418.67,488.33c-1.05-1.29-1.98-10.66-4-20.36-2.02-9.7-13.32-21.63-18.89-26.5-3.07-2.68,9.22-22.1,13.64-43.5,3.6-17.43,6.56-36.9,6.05-44.07-1.13-15.96-36.13-122.52-64.36-108.87,0,0-3.94,5.17-4.61,31.28-.67,26.11,6.43,41.44,6.43,41.44,2.38,23.36,11.37,41.24,28.96,40.64-22.66,11.44-20.72,50.08-36.93,66.09-27.65,8.08-37.32,40.85-38.38,42.65-1.06,1.8-6.78,4.98-8.61,11.65-1.83,6.67,1.47,13.61,5.77,14.9,2.03.61,7.42-2.47,9.68-7.54,2.52-5.66-.15-15.36-.17-16.33-.02-1.85,16.55-19.9,28.17-21.18-2.04,10.86.71,33-.3,35.26-1.02,2.26-4.04,4.56-5.53,9.96-1.49,5.4-.03,12.52,6.03,14.41,2.8.87,8.42-2.05,9.65-7.12,1.43-5.91-1.78-14.29-2.02-16.1-1.9-14.4,15.34-31.69,18.69-30.63,3.35,1.07,14.95,20.91,13.63,33.92-.23,2.23-5.6,6.15-6.77,11.47-1.33,6,2.7,11.95,8.34,12.79,2.67.4,7.48-3.81,8.61-9.12,1.27-5.92-3.91-12.92-4.33-13.94-.8-1.93,7.7-19.36,2.22-32.89,5.7,1.46,13.25,7.53,16.23,11.26,2.99,3.73,5.27,15.87,5.43,19.1.16,3.23-3.37,5.43-3.91,12.59-.54,7.16,4.23,11.8,10.89,11.93,3.22.06,6.67-5.34,6.15-10.8-.55-5.82-5.21-11.73-5.75-12.39Z"/>
  <path class="cls-20" d="M305.64,476.47c-1.62-.19-3.2,1.86-3.52,4.57-.32,2.71.74,5.07,2.36,5.26,1.62.19,3.2-1.86,3.52-4.57.32-2.72-.74-5.07-2.36-5.26Z"/>
  <path class="cls-20" d="M342.7,491.61c-2-.24-3.91,2.11-4.28,5.25-.37,3.13.95,5.86,2.95,6.09,2,.24,3.91-2.11,4.28-5.25.37-3.13-.95-5.86-2.95-6.09Z"/>
  <path class="cls-20" d="M382,495.99c-1.92-.23-3.74,1.9-4.07,4.74-.33,2.84.95,5.33,2.86,5.55,1.92.23,3.74-1.9,4.07-4.74.33-2.84-.95-5.33-2.87-5.55Z"/>
  <path class="cls-20" d="M412.9,496.58c-1.87.49-2.79,3.13-2.06,5.9.73,2.77,2.83,4.61,4.7,4.12,1.87-.49,2.79-3.13,2.06-5.9-.73-2.77-2.83-4.61-4.7-4.12Z"/>
  <path class="cls-20" d="M344.96,424.48c-22.37,6.53-32.96,29.21-36.76,38.6,16.38-29.37,36.56-33.43,39.22-35.03,15.89-9.58,9.92-34.08,30.1-66.89-18.1,13.94-17.48,48.42-32.56,63.32Z"/>
  <path class="cls-11" d="M400.15,304c-13.22,15.5-13.13,52.29,15.52,53.35-.07-1.36-.14-2.52-.2-3.45-.46-6.46-6.46-27.75-15.32-49.9Z"/>
  <path class="cls-11" d="M383.27,285.33c-4.41,0-9.95,9.02-6.15,12.92,3.79,3.9,9.87-.44,11.18-3.18,2.15-4.51-.31-9.74-5.03-9.74Z"/>
  <path class="cls-11" d="M392.3,361.53c-3.99-1.85-9.76,1.68-13.44,8.16-3.01,5.28-1.33,16.15,7.28,15.23,8.62-.92,13.28-20.09,6.16-23.38Z"/>
  <path class="cls-13" d="M422.45,486.48c-.31-.33-.54-.59-.69-.77-.39-.48-.6-3.09-.82-5.85-.29-3.68-.7-8.72-1.78-13.92-1.93-9.27-9.56-19.4-15.83-24.88-1.46-1.28.63-7.77,3.28-15.98,2.27-7.05,5.1-15.82,7.06-25.32,4-19.4,2.48-43.24,2.29-45.89-.89-12.65-26.04-93.21-51.92-108.2-4.65-2.69-9.08-3.05-13.16-1.08l.44.9c3.77-1.82,7.88-1.47,12.22,1.05,10.5,6.08,22.8,25.25,34.66,53.99,10.09,24.47,16.32,47.12,16.76,53.42.19,2.64,1.71,26.35-2.27,45.62-1.95,9.45-4.77,18.2-7.04,25.22-3.08,9.56-4.94,15.33-2.99,17.04,6.15,5.38,13.62,15.29,15.51,24.33,1.07,5.14,1.47,10.15,1.76,13.8.31,3.83.48,5.71,1.04,6.4.15.18.4.46.73.81,1.91,2.08,6.38,6.97,6.88,11.98.36,3.63-.5,6.68-2.5,8.84-1.87,2.02-4.65,3.11-7.81,3.04-3.22-.06-6.04-1.24-7.91-3.3-1.87-2.06-2.73-4.86-2.49-8.09.3-3.97,1.54-6.37,2.54-8.31.78-1.51,1.45-2.82,1.38-4.35-.15-3.2-2.43-15.51-5.54-19.38-2.97-3.71-10.55-9.91-16.5-11.43l-.96-.25.37.92c3.91,9.66,1.91,21.43.84,27.75-.51,2.99-.72,4.34-.46,4.98.22.52.73,1.22,1.37,2.1,1.91,2.59,5.1,6.94,4.47,12.08-.33,2.71-1.55,4.93-3.51,6.43-2.26,1.72-5.42,2.43-8.67,1.94-2.5-.37-4.81-1.86-6.33-4.08-1.63-2.37-2.21-5.33-1.6-8.11.66-3,2.74-5.57,4.4-7.64,1.27-1.58,2.27-2.82,2.38-3.89,1.31-12.92-10.07-33.2-13.97-34.45-.85-.27-2.09.26-3.67,1.59-5.16,4.32-14.58,17.98-12.99,30.02.16,1.18.81,2.7,1.57,4.45,1.5,3.47,3.36,7.79,2.34,11.67-.62,2.36-2.08,4.24-4.22,5.42-2.66,1.47-6.07,1.73-9.36.7-5.68-1.77-7.17-8.43-5.69-13.8.96-3.47,2.56-5.63,3.86-7.36.69-.92,1.28-1.71,1.65-2.53.43-.97.3-4.25,0-10.44-.37-7.79-.88-18.46.33-24.93l.12-.66-.67.07c-11.83,1.3-26.68,21.15-26.65,23.59,0,.55.3,1.49.71,2.8,1.11,3.55,2.97,9.5.95,13.66-2.74,5.65-8.45,6.23-12.5,5.02-3.91-1.17-7.21-7.8-5.43-14.29,1.26-4.59,4.46-7.51,6.58-9.45.91-.84,1.64-1.49,1.98-2.08.13-.22.31-.68.7-1.69,8.62-22.3,21.19-36,37.39-40.73l.11-.03.09-.08c6.81-6.38,10.97-18.88,14.99-30.96,3.41-10.25,6.62-19.93,11.27-25.87l.24-.3-.23-.31c-10.07-13.27-19.08-27.06-18.63-49.65,0,0-.98,5.07-.8,7.45,1.41,18.44,9.46,30.7,18.4,42.5-4.62,6.1-7.81,15.7-11.19,25.86-3.96,11.92-8.06,24.24-14.63,30.47-16.45,4.85-29.21,18.75-37.92,41.3-.3.77-.54,1.39-.63,1.55-.27.46-.98,1.1-1.8,1.85-2.2,2.01-5.53,5.05-6.87,9.92-1.95,7.12,1.68,14.18,6.1,15.51,4.42,1.32,10.66.67,13.68-5.54,2.2-4.52.26-10.7-.9-14.4-.35-1.13-.66-2.12-.67-2.51.12-1.51,13.63-20.57,25.1-22.5-1.08,6.63-.59,16.91-.23,24.48.23,4.73.44,9.19.08,9.98-.32.72-.88,1.47-1.54,2.34-1.34,1.8-3.01,4.04-4.02,7.69-1.6,5.82.08,13.06,6.36,15.02,3.55,1.11,7.25.82,10.14-.78,2.38-1.32,4.01-3.41,4.7-6.04,1.1-4.21-.83-8.7-2.39-12.32-.73-1.69-1.36-3.15-1.49-4.19-1.47-11.12,7.31-24.66,12.63-29.12,1.45-1.21,2.37-1.51,2.73-1.4,3.15,1.01,14.58,20.58,13.28,33.39-.08.78-1.05,1.98-2.17,3.37-1.73,2.15-3.89,4.82-4.6,8.05-.67,3.05-.04,6.29,1.75,8.89,1.68,2.45,4.24,4.09,7.01,4.5.72.11,1.43.16,2.14.16,2.74,0,5.31-.8,7.28-2.29,2.19-1.66,3.53-4.12,3.9-7.1.68-5.53-2.66-10.08-4.65-12.79-.58-.79-1.08-1.48-1.26-1.89-.17-.4.17-2.36.52-4.43,1.06-6.21,3-17.61-.53-27.34,5.4,1.8,12.23,7.33,15.01,10.8,2.85,3.56,5.16,15.48,5.32,18.81.06,1.26-.53,2.4-1.27,3.84-1.04,2.01-2.33,4.52-2.65,8.69-.27,3.51.68,6.57,2.74,8.84,2.07,2.27,5.13,3.56,8.63,3.63,3.45.06,6.5-1.13,8.57-3.36,2.19-2.37,3.15-5.7,2.76-9.62-.53-5.34-5.16-10.4-7.14-12.56Z"/>
  <path class="cls-21" d="M370.77,367.39l.78.63c4.93-6.06,11.58-10.21,11.65-10.25,0,0-3.14.78-6.29,3.44-1.98,1.68-4.19,3.78-6.14,6.18Z"/>
  <path class="cls-16" d="M159.05,467.9c-2.99,3.73-5.27,15.87-5.43,19.1,5.05-7.16,16.91-6.78,21.28,2.37.8-1.93-5.1-19.19.38-32.73-5.7,1.46-13.25,7.53-16.23,11.26Z"/>
  <path class="cls-10" d="M174.14,460.13c-6.82,5.79-12.9,12.91-13.7,22.28,5.33-1.32,11.56.86,14.47,6.95.74-1.77-4.15-16.39-.77-29.24Z"/>
  <path class="cls-22" d="M158.66,467.58c-3.1,3.87-5.38,16.18-5.54,19.38l-.08,1.72.99-1.41c2.1-2.98,5.63-4.76,9.44-4.76,4.77,0,8.88,2.64,10.99,7.06l.48,1.01.43-1.03c.27-.64.05-1.99-.46-4.98-1.08-6.32-3.08-18.08.84-27.75l.37-.92-.96.25c-5.95,1.52-13.53,7.72-16.5,11.43ZM173.93,484.74c.16.94.32,1.87.42,2.63-2.45-3.7-6.4-5.85-10.88-5.85-3.54,0-6.87,1.43-9.19,3.88.59-4.56,2.67-14.08,5.16-17.19,2.78-3.47,9.61-9.01,15.01-10.8-3.53,9.73-1.59,21.12-.53,27.34Z"/>
  <path class="cls-16" d="M196.98,454.41c-3.35,1.07-14.95,20.92-13.63,33.92,7.83-9.06,19.2-10.75,29.64-2.86,1.9-14.39-12.66-32.13-16.01-31.06Z"/>
  <path class="cls-10" d="M199.08,455.08c-6.19,7.56-9.39,17.72-9.14,27.81,6.97-3.85,15.27-3.3,23.05,2.58,1.62-12.29-8.76-27.02-13.91-30.39Z"/>
  <path class="cls-22" d="M197.3,453.86c-.17,0-.32.02-.47.07-3.91,1.25-15.29,21.53-13.97,34.45l.12,1.15.76-.88c4.37-5.05,9.73-7.72,15.52-7.72,4.51,0,9.16,1.71,13.44,4.94l.68.52.11-.85c1.23-9.31-4.47-20.69-10.28-27.32-1.15-1.31-4.02-4.35-5.91-4.35ZM212.59,484.55c-4.26-3.03-8.85-4.62-13.34-4.62-5.65,0-11.11,2.54-15.48,7.19-.55-12.8,10.3-31.26,13.37-32.24.05-.01.1-.02.17-.02.76,0,2.56,1.05,5.16,4.01,5.49,6.27,10.88,16.84,10.13,25.68Z"/>
  <path class="cls-16" d="M223.5,448.62c2.04,10.86-.71,33,.3,35.26,4.46-8.61,15-15.32,25.9-12.18.02-1.85-14.59-21.81-26.21-23.08Z"/>
  <path class="cls-10" d="M224.64,448.8c2.94,5.56,5.02,17.74,4.68,28.06,5.31-4.72,12.76-7.35,20.39-5.16.02-1.79-13.66-20.53-25.07-22.9Z"/>
  <path class="cls-22" d="M223.56,448.12l-.67-.07.12.66c1.22,6.47.71,17.14.34,24.93-.3,6.2-.43,9.48,0,10.44l.42.94.48-.92c3.27-6.32,10.7-12.69,19.92-12.69,1.82,0,3.63.26,5.4.76l.63.18v-.66c.04-2.43-14.81-22.29-26.64-23.59ZM244.17,470.42c-7.88,0-15.77,4.74-20.08,11.93-.07-1.83.09-5.17.26-8.66.36-7.58.85-17.86-.23-24.48,10.51,1.77,22.74,17.93,24.8,21.77-1.56-.37-3.15-.56-4.74-.56Z"/>
  <path class="cls-12" d="M258.34,467.13c-1.06-1.8-10.73-34.57-38.38-42.65-12.33-11.54-15.88-43.57-26.2-56.77,10.27-13.54,19.57-27.57,18.23-49.95l1.82-72.72c-28.24-13.65-63.23,92.9-64.36,108.87-.51,7.16-1.32,28.33,2.28,45.76,4.42,21.4,13.25,39.1,10.18,41.78-5.57,4.87-13.65,14.91-15.67,24.61-2.02,9.7-1.65,18.69-2.7,19.98-1.05,1.29-7.12,7.04-7.71,13.06-.78,7.88,4.16,12.56,10.82,12.43,6.66-.13,11.43-4.77,10.89-11.93-.54-7.16-4.07-9.36-3.91-12.59.16-3.23,2.44-15.37,5.43-19.1,2.99-3.73,10.53-9.8,16.23-11.26-5.48,13.53.43,30.79-.38,32.73-.8,1.93-6.74,7.39-5.87,14.42.87,7.04,7.1,9.65,12.75,8.8,5.64-.85,9.67-6.79,8.34-12.79-1.18-5.32-6.55-9.24-6.77-11.47-1.32-13.01,10.28-32.85,13.63-33.92,3.35-1.07,17.91,16.67,16.01,31.06-.45,3.37-5.47,10.29-3.89,16.31,1.58,6.03,8.16,8.36,14.21,6.47,6.06-1.89,7.52-9.01,6.03-14.41-1.49-5.4-4.51-7.7-5.53-9.96-1.02-2.26,1.74-24.4-.3-35.26,11.62,1.28,26.23,21.23,26.21,23.08-.03,1.85-4.45,10.85-1.61,16.69,2.84,5.84,8.79,6.57,13.09,5.28,4.3-1.29,7.6-8.23,5.77-14.9-1.83-6.67-7.55-9.85-8.61-11.65Z"/>
  <path class="cls-9" d="M256.42,469.97c-1.06-1.8-15.6-35.83-43.25-43.91-12.33-11.54-16.05-51.89-26.37-65.09,10.27-13.54,26.54-20.83,25.2-43.21,0,0,6.17-24.88,6.17-41.44s-4.35-31.28-4.35-31.28c-28.24-13.65-63.23,92.9-64.36,108.87-.51,7.16-1.32,28.33,2.28,45.76,4.42,21.4,13.25,39.1,10.18,41.78-5.57,4.87-13.65,14.91-15.67,24.61-2.02,9.7-1.65,18.69-2.7,19.98-1.05,1.29-7.12,7.04-7.71,13.06-.78,7.88,4.16,12.56,10.82,12.43,6.66-.13,8.81-4.76,8.27-11.92-.54-7.16-4.41-10.77-4.25-14,.16-3.23,4.26-15.32,7.25-19.05,2.99-3.73,11.66-8.45,17.37-9.9-5.48,13.53.43,30.79-.38,32.73-.8,1.93-6.74,7.39-5.87,14.42.87,7.04,7.1,9.65,12.75,8.8,5.64-.85,6.59-7.87,5.26-13.87-1.18-5.32-5.27-8.17-5.5-10.39-1.32-13.01,12.09-32.85,15.44-33.92,3.35-1.07,17.91,16.67,16.01,31.06-.45,3.37-5.47,10.29-3.89,16.31,1.58,6.03,8.16,8.36,14.21,6.47,6.06-1.89,5.6-8.76,4.11-14.16-1.49-5.4-4.86-7.95-5.88-10.21-1.02-2.26,4-24.4,1.96-35.26,11.62,1.28,26.23,21.23,26.21,23.08-.03,1.85-4.45,10.85-1.61,16.69,2.84,5.84,8.79,6.57,13.09,5.28,2.03-.61,5.73-6.21,2.65-14.62-2.08-5.68-6.86-8.13-7.42-9.08Z"/>
  <path class="cls-20" d="M252.11,480.76c-1.51.64-1.86,3.2-.79,5.71,1.07,2.51,3.16,4.03,4.66,3.39,1.5-.64,1.86-3.2.79-5.71-1.07-2.52-3.16-4.03-4.66-3.39Z"/>
  <path class="cls-20" d="M215.48,493.52c-1.99.25-3.28,3-2.88,6.12.4,3.13,2.34,5.45,4.33,5.2,1.99-.25,3.29-3,2.88-6.12-.4-3.13-2.34-5.46-4.33-5.2Z"/>
  <path class="cls-20" d="M175.16,497.74c-1.93.04-3.44,2.4-3.37,5.26.07,2.86,1.68,5.14,3.61,5.1,1.93-.05,3.44-2.4,3.37-5.26-.07-2.86-1.69-5.14-3.61-5.1Z"/>
  <path class="cls-20" d="M142.76,494.69c-1.92-.19-3.7,1.97-3.98,4.82-.28,2.85,1.05,5.31,2.97,5.5,1.92.19,3.7-1.97,3.98-4.82.28-2.85-1.05-5.31-2.97-5.5Z"/>
  <path class="cls-20" d="M191.62,254.5c-21.66,25.25-41.33,87.5-42.17,99.4-.51,7.16-1.32,28.33,2.28,45.76,4.42,21.4,13.25,39.1,10.18,41.78-5.57,4.87-13.65,14.91-15.67,24.61-.18.86-.33,1.71-.48,2.55,7.27-15.44,16.08-20.57,20.64-24.91,4.56-4.34,0-16.22-3-24.22-8-25-10.21-46.01-8.26-65,2.82-27.51,16.45-60.14,37.38-92.59,3.85-5.98,3.67-12.13-.91-7.38Z"/>
  <path class="cls-11" d="M154.44,371.54c-4,8.56-.92,23.13,5.84,27.95,6.76,4.83,14.77-10.67,11.99-22.98-2.78-12.31-15.11-10.81-17.83-4.98Z"/>
  <path class="cls-3" d="M154.44,371.54c-3.4,7.27-1.69,18.86,3.04,25.15-1.77-8.94-2.71-17.34-2.94-25.35-.03.06-.07.13-.1.2Z"/>
  <path class="cls-11" d="M178.51,274.27c-7.55,13.85-14.33,30.36-19.43,44.89,12.2,3.13,25.52-3.36,30.15-14.66,5.04-12.27-1.13-24.64-10.72-30.23Z"/>
  <path class="cls-3" d="M159.08,319.16c1.41.36,2.83.6,4.25.71,4.79-13.64,11.44-27.89,19.66-42.26-1.37-1.28-2.88-2.41-4.48-3.34-7.55,13.85-14.33,30.36-19.43,44.89Z"/>
  <path class="cls-11" d="M170.17,334.03c-5.33.16-11.38,10.04-10.15,15.27s7.69,3.69,11.69,0c4-3.69,4.92-15.46-1.54-15.27Z"/>
  <path class="cls-13" d="M260.57,468.73c-.82-.75-1.53-1.39-1.8-1.85-.09-.16-.33-.77-.63-1.55-8.71-22.55-21.47-36.44-37.92-41.3-6.58-6.23-10.67-18.55-14.63-30.47-3.38-10.16-6.57-19.77-11.19-25.86,8.92-11.79,16.97-24.03,18.4-42.44.19-2.4-.79-7.51-.79-7.51.45,22.59-8.56,36.38-18.63,49.65l-.23.31.24.3c4.64,5.94,7.86,15.62,11.27,25.87,4.02,12.09,8.17,24.58,14.99,30.96l.09.08.11.03c16.19,4.73,28.77,18.43,37.39,40.73.39,1.01.57,1.47.7,1.69.35.59,1.07,1.25,1.98,2.08,2.12,1.93,5.32,4.85,6.58,9.45,1.78,6.48-1.51,13.12-5.43,14.29-4.05,1.21-9.75.62-12.5-5.02-2.02-4.16-.16-10.11.95-13.66.41-1.31.7-2.25.71-2.8.03-2.43-14.82-22.29-26.65-23.59l-.67-.07.12.66c1.22,6.47.71,17.14.34,24.93-.3,6.2-.43,9.48,0,10.44.37.82.96,1.61,1.65,2.53,1.29,1.73,2.9,3.88,3.86,7.36,1.48,5.37-.01,12.03-5.69,13.8-3.29,1.03-6.7.77-9.36-.7-2.14-1.18-3.6-3.06-4.22-5.42-1.02-3.88.84-8.2,2.34-11.67.76-1.76,1.41-3.28,1.57-4.45,1.59-12.04-7.83-25.7-12.99-30.02-1.58-1.32-2.82-1.86-3.67-1.59-3.91,1.25-15.29,21.53-13.97,34.45.11,1.07,1.11,2.32,2.38,3.89,1.67,2.07,3.74,4.64,4.4,7.64.62,2.78.03,5.74-1.6,8.11-1.53,2.22-3.83,3.71-6.33,4.08-3.24.49-6.4-.22-8.67-1.94-1.96-1.49-3.18-3.72-3.51-6.43-.63-5.14,2.56-9.48,4.47-12.08.65-.88,1.16-1.57,1.37-2.1.27-.64.05-1.99-.46-4.98-1.08-6.32-3.08-18.08.84-27.75l.37-.92-.96.25c-5.95,1.52-13.53,7.72-16.5,11.43-3.1,3.88-5.38,16.19-5.54,19.38-.08,1.53.6,2.84,1.38,4.35,1,1.93,2.24,4.34,2.54,8.31.25,3.23-.61,6.03-2.49,8.09-1.88,2.07-4.69,3.24-7.91,3.3-3.14.07-5.94-1.02-7.81-3.04-1.99-2.16-2.86-5.21-2.5-8.84.5-5.01,4.97-9.9,6.88-11.98.32-.35.57-.63.73-.81.56-.69.74-2.57,1.04-6.4.29-3.65.69-8.66,1.76-13.8,1.88-9.05,9.36-18.95,15.51-24.33,1.96-1.71.1-7.48-2.99-17.04-2.27-7.02-5.09-15.77-7.04-25.22-3.98-19.27-2.46-42.98-2.27-45.62.45-6.3,6.67-28.95,16.76-53.42,11.85-28.74,24.16-47.91,34.66-53.99,4.34-2.52,8.46-2.87,12.22-1.05l.44-.9c-4.08-1.98-8.51-1.61-13.16,1.08-25.88,14.99-51.02,95.55-51.92,108.2-.19,2.65-1.71,26.49,2.29,45.89,1.96,9.51,4.79,18.28,7.06,25.32,2.65,8.21,4.74,14.7,3.28,15.98-6.27,5.48-13.9,15.61-15.83,24.88-1.08,5.2-1.49,10.24-1.78,13.92-.22,2.76-.43,5.37-.82,5.85-.14.18-.38.44-.69.77-1.98,2.16-6.61,7.21-7.14,12.56-.39,3.92.57,7.24,2.76,9.62,2.07,2.24,5.08,3.43,8.57,3.36,3.5-.07,6.57-1.36,8.63-3.63,2.06-2.27,3.01-5.32,2.74-8.84-.32-4.17-1.61-6.67-2.65-8.69-.74-1.44-1.33-2.58-1.27-3.84.16-3.33,2.47-15.25,5.32-18.81,2.78-3.47,9.61-9.01,15.01-10.8-3.53,9.73-1.59,21.12-.53,27.34.35,2.07.69,4.03.52,4.43-.17.41-.67,1.1-1.26,1.89-2,2.71-5.33,7.26-4.65,12.79.37,2.99,1.72,5.44,3.9,7.1,1.97,1.5,4.54,2.29,7.28,2.29.7,0,1.42-.05,2.14-.16,2.77-.41,5.33-2.06,7.01-4.5,1.79-2.6,2.42-5.84,1.75-8.89-.71-3.23-2.87-5.9-4.6-8.05-1.12-1.39-2.09-2.59-2.17-3.37-1.3-12.81,10.13-32.39,13.28-33.39.37-.11,1.28.19,2.73,1.4,5.33,4.46,14.11,18,12.63,29.12-.14,1.04-.77,2.5-1.49,4.19-1.56,3.61-3.49,8.11-2.39,12.32.69,2.63,2.32,4.72,4.7,6.04,2.9,1.6,6.59,1.89,10.14.78,6.28-1.96,7.96-9.2,6.36-15.02-1.01-3.66-2.68-5.89-4.02-7.69-.65-.87-1.21-1.62-1.54-2.34-.36-.79-.14-5.26.08-9.98.36-7.58.85-17.86-.23-24.48,11.47,1.93,24.98,20.99,25.1,22.49,0,.4-.31,1.38-.67,2.52-1.16,3.69-3.09,9.88-.9,14.4,3.02,6.21,9.25,6.87,13.68,5.54,4.43-1.32,8.06-8.39,6.1-15.51-1.34-4.87-4.66-7.91-6.87-9.92Z"/>
  <path class="cls-13" d="M186.77,360.19c-2.55-2.05-5.04-2.42-5.04-2.42.07.04,6.72,4.19,11.65,10.25l.78-.63c-2.37-2.91-5.12-5.39-7.38-7.2Z"/>
  <path class="cls-12" d="M356.9,78.32c-16.8-6.74-33.84-31.96-74.44-31.96s-57.64,25.22-74.44,31.96c-16.8,6.74-95.68,20.47-95.68,80.39s88.21,100.37,170.12,100.37,170.12-40.45,170.12-100.37-78.88-73.65-95.68-80.39Z"/>
  <path class="cls-9" d="M356.9,78.32c-16.8-6.74-33.84-31.96-74.44-31.96s-57.64,25.22-74.44,31.96c-16.8,6.74-95.68,20.47-95.68,80.39s88.21,91.03,170.12,91.03,156.22-43.1,156.56-94.17c.4-59.92-65.31-70.51-82.11-77.25Z"/>
  <path class="cls-20" d="M282.46,46.36c-40.6,0-57.64,25.22-74.44,31.97-16.8,6.74-95.68,20.46-95.68,80.38,0,11.56,3.28,22.05,9.17,31.45-3.33-7.38-5.26-21.72-5.26-30.29,0-59.92,78.01-70.13,94.81-76.87,16.8-6.74,35.09-32.89,75.7-32.89,33,0,48.5,22.6,69.67,31.2,6.66,2.71,35.65,9.37,56.38,21.33-20.17-15.23-46.19-20.41-55.89-24.3-16.81-6.75-33.84-31.97-74.45-31.97Z"/>
  <path class="cls-11" d="M156.1,135.87c-4.61-2.58-12.25,8.61-6.65,9.74,5.6,1.12,14-5.62,6.65-9.74Z"/>
  <path class="cls-23" d="M432.34,113.99c-5.49,3.04-8.67,10.42-2.97,21.63,4.34,8.52,14.09,13.42,22.31,12.3-2.47-14.16-9.77-25.22-19.34-33.93Z"/>
  <path class="cls-11" d="M429.37,135.62c2.04,4,5.27,7.21,8.98,9.36-1.45-10.62-5.18-19.44-10.32-26.8-2.3,3.92-2.55,9.79,1.34,17.44Z"/>
  <path class="cls-11" d="M413.73,135.12c-2.34,1.97-3.62,7.74-.82,10.11,2.8,2.37,11.79-2.12,10.97-6.99-.82-4.87-6.57-6.12-10.15-3.12Z"/>
  <path class="cls-11" d="M131.1,115.37c-11.08,10.65-18.76,24.67-18.76,43.34,0,.42,0,.84.01,1.25,12,2.14,33.75-21.28,32.78-31.96-.6-6.67-6.59-11.49-14.03-12.63Z"/>
  <path class="cls-3" d="M112.34,158.71c0,.42,0,.84.02,1.25,1.21.22,2.51.17,3.89-.09,0-18.96,7.81-32.94,19.02-43.42-1.32-.49-2.71-.86-4.17-1.08-11.08,10.66-18.76,24.67-18.76,43.34Z"/>
  <path class="cls-13" d="M367.69,81.29c-4.59-1.38-8.21-2.47-10.6-3.43-5.01-2.01-10-5.66-15.79-9.88-13.5-9.86-30.31-22.12-58.84-22.12s-45.33,12.27-58.84,22.12c-5.79,4.22-10.78,7.87-15.79,9.88-2.39.96-6.01,2.05-10.6,3.43-27.72,8.35-85.39,25.72-85.39,77.42,0,60.34,88.22,100.87,170.62,100.87s170.62-40.53,170.62-100.87c0-51.7-57.68-69.07-85.39-77.42ZM398,230.93c-32.24,17.57-74.35,27.65-115.54,27.65s-83.3-10.08-115.54-27.65c-34.88-19.01-54.08-44.66-54.08-72.22,0-50.96,57.19-68.18,84.68-76.46,4.61-1.39,8.26-2.49,10.69-3.46,5.12-2.06,10.17-5.74,16.01-10,13.39-9.77,30.05-21.93,58.25-21.93s44.86,12.16,58.25,21.93c5.84,4.26,10.88,7.94,16.01,10,2.43.98,6.07,2.07,10.69,3.46,27.49,8.28,84.68,25.51,84.68,76.46,0,27.56-19.21,53.2-54.08,72.22Z"/>
  <path class="cls-16" d="M427.98,155.03c-16.83-7.21-35.36,17.08-62.92,36.63-29.57,20.97-59.97,30.71-82.6,32.96-22.63-2.25-53.04-11.98-82.6-32.96-27.56-19.56-46.09-43.84-62.92-36.63-12.42,5.32-18.72,24.15-7.11,47.62,29.77,34.9,92.87,56.43,152.63,56.43s122.86-21.53,152.63-56.43c11.61-23.47,5.31-42.3-7.11-47.62Z"/>
  <path class="cls-10" d="M427.99,155.04c-16.83-7.21-35.36,17.07-62.92,36.63-29.57,20.97-59.97,30.71-82.61,32.96-22.63-2.25-53.04-11.99-82.6-32.96-27.56-19.56-46.09-43.84-62.92-36.63-11.8,5.05-18.08,22.3-8.7,44.15,29.06,33.4,93.38,50.56,154.22,50.56,76.86,0,147.02-37.95,155.67-84.82-2.34-4.65-5.88-8.07-10.14-9.89Z"/>
  <path class="cls-22" d="M428.18,154.58c-2.07-.89-4.26-1.34-6.51-1.34-10.36,0-21.24,9.13-35.02,20.69-6.51,5.46-13.89,11.66-21.88,17.33-25.72,18.24-55.74,30.22-82.27,32.87-26.62-2.64-56.65-14.62-82.37-32.87-7.99-5.67-15.37-11.86-21.88-17.33-13.78-11.56-24.66-20.69-35.02-20.69-2.24,0-4.43.45-6.5,1.34-5.24,2.24-9.36,6.83-11.61,12.91-3.65,9.9-2.14,22.47,4.25,35.39l.07.1c28.88,33.86,90.36,56.6,153.01,56.6s124.13-22.75,153.01-56.6l.07-.1c6.39-12.91,7.9-25.48,4.25-35.39-2.24-6.08-6.36-10.67-11.6-12.91ZM434.67,202.37c-28.71,33.62-89.87,56.21-152.21,56.21s-123.49-22.59-152.21-56.21c-6.25-12.65-7.73-24.91-4.18-34.54,2.15-5.82,6.08-10.2,11.06-12.34,1.98-.85,3.97-1.26,6.11-1.26,10,0,20.75,9.03,34.38,20.46,6.53,5.48,13.92,11.68,21.95,17.38,25.86,18.34,56.05,30.39,82.94,33.05,26.79-2.66,56.99-14.7,82.84-33.05,8.02-5.69,15.42-11.9,21.95-17.38,13.62-11.43,24.38-20.46,34.37-20.46,2.14,0,4.14.41,6.11,1.26,4.99,2.14,8.91,6.52,11.06,12.34,3.55,9.63,2.07,21.89-4.18,34.54Z"/>
  <path class="cls-17" d="M282.46,176.88c-29.4,0-54.96,24.16-87.51,24.16-.32,0-.64,0-.96,0,7.6,2.78,16.55,6.76,26.34,12.18,17.67,9.78,31.33,23.22,62.13,23.22s44.46-13.44,62.13-23.22c9.79-5.41,18.73-9.4,26.34-12.18-.32,0-.64,0-.96,0-32.55,0-58.11-24.16-87.51-24.16Z"/>
  <path class="cls-14" d="M282.46,183.9c-22.04,0-39.91,17.73-39.91,39.6,0,1.02.04,2.03.12,3.04,10.31,5.54,22.28,9.88,39.79,9.88s29.48-4.34,39.79-9.88c.08-1.01.12-2.02.12-3.04,0-21.87-17.87-39.6-39.91-39.6Z"/>
  <path class="cls-19" d="M280.1,211.64c-13.07-15.48-45.47-9.33-46.75,9.43h0c12.68,7.86,26.12,15.35,49.1,15.35,20.04,0,32.83-5.69,44.18-12.36h0c3.1-15.81-28.34-30.9-46.54-12.42Z"/>
  <path class="cls-1" d="M316.21,207.18c-10.14-5.66-29.03-7.55-31.51,13.35-6.28-20.73-30.03-19.88-41-13.99-12.72,7.09,15.05,27.21,43.48,26.76,23.76-.38,40.18-18.83,29.03-26.12Z"/>
  <path class="cls-2" d="M300.59,202.64c-5.52,0-13.5,1.45-20.46,8.28-4.83-5.44-12.49-8.54-21.11-8.54-12.07,0-25.34,6.54-26.16,18.71v.28l.24.15c13.11,8.12,26.75,15.41,49.37,15.41,20.46,0,33.45-5.97,44.44-12.43l.24-.06v-.29c.76-3.89-.42-7.87-3.42-11.51-5-6.08-14.08-10.01-23.13-10.01ZM326.19,223.75c-10.82,6.34-23.63,12.17-43.73,12.17-22.24,0-35.2-6.83-48.58-15.1.98-11.34,13.62-17.45,25.14-17.45,8.54,0,16.09,3.13,20.7,8.6l.35.42.38-.39c6.81-6.91,14.71-8.36,20.13-8.36,8.76,0,17.53,3.79,22.35,9.64,2.75,3.34,3.87,6.95,3.25,10.47Z"/>
  <path class="cls-2" d="M280.49,211.33l-.78.63c4.74,5.82,7.37,19.37,7.39,19.5,0,0,.39-3.24-.63-6.8-1.27-4.42-3.27-10-5.99-13.34Z"/>
  <path class="cls-22" d="M369.97,200.53c-16.59,0-31.45-6.35-45.82-12.5-14.02-5.99-27.26-11.66-41.69-11.66s-27.67,5.66-41.69,11.66c-14.37,6.14-29.23,12.5-45.82,12.5-.32,0-.64,0-.95,0l-3.03-.07,2.84,1.04c8.43,3.08,17.27,7.17,26.27,12.15,3.58,1.98,7.06,4.16,10.43,6.26,13.4,8.37,27.26,17.02,51.94,17.02s38.54-8.65,51.94-17.02c3.37-2.1,6.85-4.28,10.43-6.26,9-4.98,17.83-9.06,26.27-12.15l2.84-1.04-3.03.07c-.31,0-.66,0-.95,0ZM344.35,212.77c-3.6,1.99-7.1,4.18-10.48,6.29-13.28,8.29-27.01,16.87-51.41,16.87s-38.13-8.58-51.41-16.87c-3.38-2.11-6.88-4.29-10.48-6.29-8.15-4.51-16.16-8.29-23.87-11.26,16.09-.42,30.5-6.59,44.46-12.56,13.92-5.95,27.07-11.58,41.3-11.58s27.38,5.62,41.3,11.58c13.96,5.97,28.37,12.13,44.46,12.56-7.71,2.97-15.73,6.75-23.87,11.26Z"/>
  <path class="cls-9" d="M150.01,95.16c-.27,3.86-.57,7.22-.07,11.89,0,0,31.87,2.4,61.53-11.73,29.66-14.13,45.32-38.29,45.32-38.29-1.35-5.89-3.28-9.72-5.27-13.99C215.87-33.34,156.86-1.38,150.01,95.16Z"/>
  <path class="cls-20" d="M150.58,88.44c12.78-79.54,61.84-116.64,100.94-45.41C216.72-31.54,159.63-2.82,150.58,88.44Z"/>
  <path class="cls-13" d="M230.5,11.44c-9.72-8.95-20.37-12.76-30.79-11.03-13.29,2.21-25.61,13.34-34.69,31.34-9.19,18.23-14.66,42.36-15.89,70.06-.08,1.72.82,5.24.82,5.24.75-29.73,6.27-55.62,15.97-74.84,8.93-17.71,20.99-28.65,33.96-30.81,21.76-3.61,42.49,16.66,56.92,55.63,0,0-1.01-5.45-2.02-7.88-6.92-16.57-15.06-29.23-24.27-37.7Z"/>
  <path class="cls-9" d="M313.41,43.03c-1.99,4.27-3.92,8.1-5.27,13.99,0,0,10.29,28.66,39.99,43.87,29.71,15.21,66.85,6.15,66.85,6.15.5-4.67.21-8.03-.07-11.89-6.85-96.53-65.87-128.49-101.51-52.13Z"/>
  <path class="cls-12" d="M367.76,14.97c-22.09-9.7-50.38,25.71-49.75,48.79,1.5,54.5,60.37,69.46,81.97,48.78,16.08-15.4-2.74-84.62-32.22-97.57Z"/>
  <path class="cls-20" d="M313.41,43.03c-.06.12-.12.25-.17.37,39.68-73.93,91.91-35.03,101.72,52.36,0-.2-.03-.4-.04-.6-6.85-96.53-65.87-128.5-101.51-52.13Z"/>
  <path class="cls-6" d="M366.47,23.64c-19.23-8.6-45.02,22.99-44.98,43.47.1,48.23,57.35,63.64,72.52,44.92,12.33-15.23-1.87-76.9-27.54-88.38Z"/>
  <path class="cls-4" d="M366.47,23.64c-15.27-6.83-34.67,11.68-42,29.85,3.28,42.27,68.03,64.77,73.91,43.99,1.59-24.04-11.55-64.73-31.91-73.84Z"/>
  <path d="M366.68,23.18c-2.22-.99-4.6-1.5-7.08-1.5-6.98,0-14.81,4-22.05,11.25-9.92,9.94-16.57,23.67-16.55,34.17.08,36.25,31.64,53.15,52.95,53.15h0c9.05,0,16.32-2.81,20.45-7.91,5.47-6.76,6.13-23.14,1.69-41.75-4.43-18.54-14.49-40.73-29.41-47.41ZM393.62,111.71c-3.94,4.87-10.93,7.54-19.67,7.54-20.91,0-51.88-16.57-51.95-52.15-.02-10.25,6.51-23.69,16.26-33.46,7.05-7.07,14.63-10.96,21.34-10.96,2.34,0,4.59.47,6.67,1.41,14.61,6.54,24.67,29.26,28.84,46.73,4.38,18.31,3.79,34.36-1.49,40.89Z"/>
  <ellipse class="cls-15" cx="356.9" cy="72.71" rx="21.47" ry="30.09"/>
  <path class="cls-24" d="M356.91,42.62c-11.86,0-21.47,13.47-21.47,30.09,0,2.76.26,5.43.77,7.96,7.67,9.13,18.09,16.07,28.22,20.22,8.15-4.26,13.95-15.27,13.95-28.18,0-16.62-9.61-30.09-21.47-30.09Z"/>
  <path d="M356.9,50.11c-7.84,0-14.47,10.35-14.47,22.6s6.62,22.6,14.47,22.6,14.47-10.35,14.47-22.6-6.63-22.6-14.47-22.6Z"/>
  <path class="cls-5" d="M348.13,42.62c-5.8,0-10.5,5.03-10.5,11.23s4.7,11.24,10.5,11.24,10.5-5.03,10.5-11.24-4.7-11.23-10.5-11.23Z"/>
  <path class="cls-4" d="M363,77.07c-2.41,0-4.37,2.09-4.37,4.67s1.96,4.67,4.37,4.67,4.37-2.09,4.37-4.67-1.96-4.67-4.37-4.67Z"/>
  <path class="cls-13" d="M399.91,31.75c-9.08-18-21.4-29.13-34.69-31.34-10.42-1.73-21.06,2.08-30.79,11.03-9.2,8.47-17.35,21.13-24.27,37.7-1.01,2.43-2.02,7.88-2.02,7.88,14.42-38.96,35.16-59.24,56.92-55.63,12.97,2.15,25.03,13.1,33.96,30.81,9.7,19.23,15.22,45.11,15.97,74.84,0,0,.9-3.51.82-5.24-1.24-27.7-6.7-51.83-15.89-70.06Z"/>
  <path class="cls-12" d="M194.95,201.03c32.55,0,58.11-24.16,87.51-24.16s54.96,24.16,87.51,24.16c36.75,0,38.27-48.31,68.7-48.31H126.25c30.43,0,31.95,48.31,68.7,48.31Z"/>
  <path class="cls-9" d="M126.25,152.72c30.43,0,33.08,38.41,69.84,38.41,32.55,0,57.96-19.33,87.36-19.33s51.92,17.5,84.47,17.5c36.75,0,40.33-36.58,70.75-36.58,0,0-74.67-13.03-156.21-13.03s-156.21,13.03-156.21,13.03Z"/>
  <path class="cls-13" d="M407.53,174.87c-9.13,12.61-18.57,25.66-37.56,25.66-16.59,0-31.45-6.35-45.82-12.5-14.02-5.99-27.26-11.66-41.69-11.66s-27.67,5.66-41.69,11.66c-14.37,6.14-29.23,12.5-45.82,12.5-18.99,0-28.43-13.04-37.56-25.66-8.43-11.65-16.39-22.65-31.14-22.65v1c14.24,0,22.06,10.8,30.33,22.24,9.28,12.82,18.87,26.07,38.37,26.07,16.79,0,31.75-6.39,46.21-12.58,13.92-5.95,27.07-11.58,41.3-11.58s27.38,5.62,41.3,11.58c14.46,6.18,29.42,12.58,46.21,12.58,19.5,0,29.09-13.25,38.37-26.07,8.28-11.44,16.09-22.24,30.33-22.24v-1c-14.75,0-22.71,11-31.14,22.65Z"/>
  <path class="cls-13" d="M149.02,155.93c-10.25-5.72-18.17-5.1-22.9-3.65-3.19.98-4.37,3.15-4.37,3.15.12-.1,12.22-9.38,31.6,4.44,0,0-2.75-3.06-4.33-3.94Z"/>
  <path class="cls-13" d="M438.64,152.23c-4.72-1.4-12.5-1.95-22.53,3.59-1.65.91-4.54,4.05-4.54,4.05,19.38-13.82,31.48-4.54,31.6-4.44,0,0-1.23-2.22-4.53-3.2Z"/>
  <path class="cls-8" d="M308.28,152.3c-2.86,2.64-1.85,8.89,2.24,13.95,4.09,5.06,9.72,7.02,12.58,4.38,2.85-2.64,1.85-8.89-2.24-13.95-4.09-5.06-9.73-7.02-12.58-4.38Z"/>
  <path class="cls-17" d="M313.95,151.56c-2.22-.73-4.28-.55-5.67.74-2.86,2.64-1.85,8.89,2.24,13.95,3.81,4.71,8.96,6.73,11.95,4.85-6.78-2.13-13.13-15.52-8.52-19.55Z"/>
  <path class="cls-13" d="M311.5,150.62c-1.41,0-2.64.45-3.57,1.31-3.04,2.81-2.06,9.37,2.19,14.63,2.86,3.54,6.6,5.74,9.74,5.74,1.41,0,2.64-.45,3.57-1.31,3.04-2.81,2.06-9.37-2.19-14.63-2.86-3.54-6.6-5.74-9.74-5.74ZM322.76,170.26c-.75.69-1.72,1.04-2.89,1.04-2.85,0-6.29-2.06-8.96-5.37-3.92-4.85-4.95-10.81-2.29-13.27.75-.69,1.72-1.04,2.89-1.04,2.85,0,6.29,2.06,8.97,5.37,3.92,4.85,4.95,10.8,2.29,13.27Z"/>
  <path class="cls-8" d="M244.07,156.68c-4.09,5.06-5.09,11.31-2.24,13.95,2.86,2.64,8.49.68,12.58-4.38,4.09-5.06,5.1-11.31,2.24-13.95-2.85-2.64-8.49-.68-12.58,4.38Z"/>
  <path class="cls-17" d="M250.97,151.56c4.61,4.02-1.74,17.41-8.52,19.55,3,1.88,8.14-.14,11.95-4.85,4.09-5.06,5.1-11.31,2.24-13.95-1.39-1.29-3.46-1.48-5.67-.74Z"/>
  <path class="cls-13" d="M253.42,150.62c-3.15,0-6.88,2.2-9.74,5.74-4.25,5.25-5.23,11.82-2.19,14.63.93.86,2.16,1.31,3.57,1.31,3.15,0,6.88-2.2,9.74-5.74,4.25-5.25,5.23-11.82,2.19-14.63-.92-.86-2.16-1.31-3.57-1.31ZM254.02,165.93c-2.68,3.31-6.11,5.37-8.96,5.37-1.17,0-2.14-.35-2.89-1.04-2.66-2.46-1.63-8.41,2.29-13.27,2.68-3.31,6.12-5.37,8.97-5.37,1.17,0,2.14.35,2.89,1.04,2.66,2.46,1.63,8.41-2.29,13.27Z"/>
  <path class="cls-12" d="M197.17,14.97c-29.49,12.95-48.31,82.17-32.22,97.57,21.6,20.68,80.47,5.72,81.97-48.78.63-23.08-27.66-58.49-49.75-48.79Z"/>
  <path class="cls-6" d="M198.45,23.64c-25.67,11.48-39.87,73.16-27.54,88.38,15.17,18.73,72.41,3.31,72.52-44.92.04-20.47-25.75-52.07-44.98-43.47Z"/>
  <path class="cls-4" d="M198.45,23.64c-20.36,9.11-33.51,49.8-31.92,73.84,5.88,20.78,70.63-1.72,73.91-43.99-7.33-18.17-26.73-36.68-42-29.85Z"/>
  <path d="M205.33,21.69c-2.48,0-4.87.5-7.08,1.5-14.92,6.68-24.98,28.87-29.41,47.41-4.45,18.6-3.79,34.99,1.69,41.75,4.13,5.1,11.4,7.91,20.45,7.91h0c21.31,0,52.88-16.89,52.95-53.15.02-10.5-6.63-24.23-16.55-34.17-7.24-7.26-15.07-11.25-22.05-11.25ZM190.98,119.25c-8.75,0-15.73-2.68-19.67-7.54-5.28-6.52-5.87-22.57-1.49-40.89,4.18-17.47,14.24-40.19,28.84-46.73,2.09-.93,4.33-1.41,6.67-1.41,6.71,0,14.29,3.89,21.34,10.96,9.75,9.76,16.28,23.21,16.26,33.46-.08,35.58-31.04,52.15-51.95,52.15Z"/>
  <ellipse class="cls-15" cx="208.02" cy="72.71" rx="21.47" ry="30.09"/>
  <path class="cls-24" d="M208.02,42.62c-11.86,0-21.47,13.47-21.47,30.09,0,12.91,5.8,23.92,13.95,28.18,10.13-4.15,20.55-11.09,28.22-20.22.51-2.53.77-5.2.77-7.96,0-16.62-9.61-30.09-21.47-30.09Z"/>
  <path d="M208.02,50.11c-7.84,0-14.47,10.35-14.47,22.6s6.63,22.6,14.47,22.6,14.47-10.35,14.47-22.6-6.62-22.6-14.47-22.6Z"/>
  <path class="cls-5" d="M200.55,42.62c-5.8,0-10.5,5.03-10.5,11.23s4.7,11.24,10.5,11.24,10.5-5.03,10.5-11.24-4.7-11.23-10.5-11.23Z"/>
  <path class="cls-4" d="M213.93,78.32c-2.41,0-4.37,2.09-4.37,4.67s1.96,4.67,4.37,4.67,4.37-2.09,4.37-4.67-1.95-4.67-4.37-4.67Z"/>
  <path class="cls-18" d="M278.44,213.25c-.58-.49-.84-.02-.29.76,1.86,2.62,3.98,6.14,5.36,11.58.22.85.66.84.62-.03-.23-5.32-2.24-9.38-5.7-12.3Z"/>
</svg>