<?xml version="1.0" encoding="UTF-8"?>
<svg id="Layer_1" data-name="Layer 1" xmlns="http://www.w3.org/2000/svg" viewBox="0 0 19.61 23.84">
  <path d="M3.52,4.61c-1.12.24-.86,1.67-.86,2.5h-1.33c-.18-1.67.3-3.43,2.19-3.66,3.9-.47,8.74.35,12.74.02.88.09,1.52.78,1.93,1.51v16.36c-.49.87-1.08,1.41-2.1,1.53-2.78.32-9.57.28-12.38,0-2.05-.2-2.53-1.81-2.37-3.66h1.33c.02,1.11-.34,2.26,1.06,2.49,3.8-.29,8.27.43,11.98.01.39-.04,1.15-.2,1.34-.57l.09-15.67c-.18-.91-1.53-.9-2.28-.87v8.56c0,1.71-3.19-1.07-3.71-1.05-.48.02-2.37,1.49-2.95,1.64-.18.05-.77-.07-.77-.11V4.61c-1.13.16-2.86-.22-3.9,0ZM13.52,4.61h-4.95v7.31c.81,0,1.92-1.12,2.59-1.16s1.62,1.13,2.36,1.16v-7.31Z"/>
  <path d="M2.71,13.03c.15.15,1.42.15,1.02,1-.29.61-3.36.55-3.52.08-.33-1.02.95-.89,1.09-1.07.13-.16-.05-.94.54-1.1.79-.21.67.89.87,1.09Z"/>
  <path d="M2.71,16.68c.16.16.68.03.92.37,1.03,1.46-3.23,1.1-3.42.81-.63-.94,1.04-1.09,1.1-1.16.1-.1-.07-.95.53-1.11.79-.21.67.89.87,1.09Z"/>
  <path d="M2.43,8.51c.27.3.19,1.05.24,1.1.14.13,1.12-.33,1.1.52-.02,1.07-3.42.64-3.56.43-.11-.16-.04-.72.16-.86.26-.18.9-.02.96-.08.07-.08.1-2.19,1.1-1.1Z"/>
</svg>