<?xml version="1.0" encoding="UTF-8"?>
<svg id="Layer_1" data-name="Layer 1" xmlns="http://www.w3.org/2000/svg" viewBox="0 0 100.83 128.7">
  <defs>
    <style>
      .cls-1 {
        fill: #493d26;
      }

      .cls-2 {
        fill: #231d0d;
      }

      .cls-3 {
        fill: #190f09;
      }

      .cls-4 {
        fill: #e3d261;
      }

      .cls-5 {
        fill: #211a17;
      }

      .cls-6 {
        fill: #dac561;
      }
    </style>
  </defs>
  <path class="cls-5" d="M25,78.83s-7.12,4.3-8.76,8.93c-1.64,4.63-.83,6.04.98,6.64,1.81.61,2.49-1.81,2.95-4.83.47-3.02,4.82-8.25,4.82-8.25v-2.49Z"/>
  <path class="cls-5" d="M18.02,93.2s.19,4.63,1.41,8.45c1.22,3.82,4.03,6.44,2.83,7.65s-1.83-1.81-4.24-1.81-2.76-2.72-1.78-3.37c.98-.66-1.58-11.32,0-12.33,1.58-1.01,1.78,1.41,1.78,1.41Z"/>
  <path class="cls-5" d="M19.43,106.5s-.52,7.23.75,10.25c1.27,3.02,5.35,7.45,7.24,8.86,1.89,1.41-.28.81,0,2.21s-6.98-6.23-8.28-10.66c-1.3-4.43-1.11-11.44-1.11-11.44l1.41.78Z"/>
  <path class="cls-5" d="M76.91,79.54s7.12,4.3,8.76,8.93c1.64,4.63.83,6.04-.98,6.64-1.81.61-2.49-1.81-2.95-4.83-.47-3.02-4.82-8.25-4.82-8.25v-2.49Z"/>
  <path class="cls-5" d="M83.89,93.91s-.19,4.63-1.41,8.45c-1.22,3.82-4.03,6.44-2.83,7.65s1.83-1.81,4.24-1.81,2.76-2.72,1.78-3.37c-.98-.66,1.58-11.32,0-12.33s-1.78,1.41-1.78,1.41Z"/>
  <path class="cls-5" d="M82.48,107.2s.52,7.23-.75,10.25c-1.27,3.02-5.35,7.45-7.24,8.86-1.89,1.41.28.81,0,2.21s6.98-6.23,8.28-10.66,1.11-11.44,1.11-11.44l-1.41.78Z"/>
  <path class="cls-5" d="M64.21,38.88s6.87-4.98,9.28-9.44c2.41-4.45,4.22-12.1,6.43-13.51,2.21-1.41.48,2.03,1.95,2.63,1.47.6,2.74-.8,3.11,0,.37.8-3.85,4.49-5.26,5.56s-6.44,9.73-10.97,13.15l-4.53,3.42v-1.81Z"/>
  <path class="cls-5" d="M81.87,18.56s-.26-3.26,2.37-5.07c2.63-1.81,5.74-3.22,7.41-5.03,1.67-1.81,2.29-8.66,3.59-8.45s.04,2.62.97,2.21c.93-.4,2.7-.2,1.81.81-.88,1.01-3.49,5.64-6.01,7.65-2.52,2.01-7.47,5.57-9.02,8.02s-1.12-.13-1.12-.13Z"/>
  <path class="cls-5" d="M37.04,39.41s-6.87-4.98-9.28-9.44c-2.41-4.45-4.22-12.1-6.43-13.51s-.48,2.03-1.95,2.63-2.74-.8-3.11,0,3.85,4.49,5.26,5.56c1.41,1.07,6.44,9.73,10.97,13.15l4.53,3.42v-1.81Z"/>
  <path class="cls-5" d="M19.38,19.09s.26-3.26-2.37-5.07-5.74-3.22-7.4-5.03C7.93,7.17,7.32.33,6.02.53c-1.3.2-.04,2.62-.97,2.21s-2.7-.2-1.81.81c.88,1.01,3.49,5.64,6.01,7.65,2.52,2.01,7.47,5.57,9.02,8.02s1.12-.13,1.12-.13Z"/>
  <path class="cls-5" d="M11.84,74.95s1.08,3.09-1.02,5.5-4.74,4.56-5.9,6.74c-1.16,2.17-.03,8.95-1.34,9.09-1.31.13-.7-2.52-1.5-1.9-.8.62-2.56.87-1.96-.32.6-1.2,1.96-6.33,3.89-8.92,1.93-2.58,5.83-7.27,6.71-10.03.88-2.76,1.12-.16,1.12-.16Z"/>
  <path class="cls-5" d="M25.31,55.79s-4.46,7.57-7.48,9.61c-3.02,2.04-6.93,3.45-7.59,5.66-.66,2.21-.92,8.5,2.33,7.77,3.25-.73,2.52-6.77,5-9.38,2.48-2.62,8.28-9.25,8.6-10.67s-.85-2.99-.85-2.99Z"/>
  <path class="cls-5" d="M88.99,74.1s-1.08,3.09,1.02,5.5c2.09,2.42,4.74,4.56,5.9,6.74s.03,8.95,1.34,9.09c1.31.13.7-2.52,1.5-1.9.8.62,2.56.87,1.96-.32-.6-1.2-1.96-6.33-3.89-8.92-1.93-2.58-5.83-7.27-6.71-10.03-.88-2.76-1.12-.16-1.12-.16Z"/>
  <path class="cls-5" d="M75.51,54.94s4.46,7.57,7.48,9.61c3.02,2.04,6.93,3.45,7.59,5.66.66,2.21.92,8.5-2.33,7.77-3.25-.73-2.52-6.77-5-9.38s-8.28-9.25-8.6-10.67c-.32-1.41.85-2.99.85-2.99Z"/>
  <path class="cls-4" d="M33,102.6s5.36,11.07,17.94,10.47c12.58-.6,17.97-11.27,17.97-11.27l-18.5-6.64-17.41,7.45Z"/>
  <path class="cls-5" d="M54.03,21.14s1.81-2.15,5.65-.27c3.84,1.88,3.57-1.14,2.4-3.35-1.17-2.21,2.65-3.02,3.16-1.21.5,1.81-1.18,7.05-3.16,6.64-1.98-.4-5.2-1.41-7.41,0s-.64-1.81-.64-1.81Z"/>
  <path class="cls-5" d="M48.12,21.14s-1.81-2.15-5.65-.27c-3.84,1.88-3.57-1.14-2.4-3.35,1.17-2.21-2.65-3.02-3.16-1.21-.5,1.81,1.18,7.05,3.16,6.64,1.98-.4,5.2-1.41,7.41,0,2.21,1.41.64-1.81.64-1.81Z"/>
  <path class="cls-5" d="M54.67,14.3c-2.14-.33-3.63.96-4.1,1.44-.47-.48-1.96-1.77-4.1-1.44-2.62.4,0,8.66,0,8.66h8.2s2.62-8.25,0-8.66Z"/>
  <path class="cls-3" d="M59.51,26.98c-2.22-1.4-2.39-1.13-2.4-1.03-.01-.27-.26-4.22-3.08-4.81-1.73-.36-2.78-.29-3.36-.18-.58-.11-1.63-.18-3.36.18-2.82.58-3.06,4.54-3.08,4.81,0-.1-.18-.36-2.4,1.03-2.56,1.61,0,4.54,0,4.54h17.67s2.56-2.93,0-4.54Z"/>
  <path class="cls-6" d="M50.82,100.48c-.23.97-.88,2.42-2.6,3.99-1.91,1.75-7.36,2.95-13.27,1.09-.05-.02-.08-.03-.09-.03-3.62-1.15-7.49-3.13-8.99-8.11-3.69-12.28-.28-44.77-.28-44.77,6.35-2.55,23.58,1.36,25.21,1.67.08.02.11.02.11.02v44.88s.07.47-.11,1.24Z"/>
  <path class="cls-4" d="M76.92,95.82c-.59,1.88-1.38,3.41-2.32,4.64-2.39,3.18-5.66,4.48-8.42,5.26-.07.02-.13.04-.2.05,0,0,0,0-.02,0h-.01c-5.63,1.54-10.7.37-12.53-1.3-1.73-1.58-2.37-3.02-2.6-3.99-.19-.77-.11-1.24-.11-1.24v-27.08s-.01-17.8-.01-17.8c0,0,.04,0,.12-.02,1.67-.32,18.09-4.95,24.43-2.39,0,0,5.77,30.71,1.67,43.88Z"/>
  <path class="cls-2" d="M65.95,105.78c-5.63,1.54-10.7.37-12.53-1.3-1.73-1.58-2.37-3.02-2.6-3.99-.23.97-.88,2.42-2.6,3.99-1.91,1.75-7.36,2.95-13.27,1.09-.05-.02-.08-.03-.09-.03.24.03,6.03.85,11.14-4.49,3.13-3.26,4.28-17.78,4.7-28.89.16-4.31.22-8.11.23-10.54v-.29c0-.56,0-1.04,0-1.43.06,6.11.53,35.55,4.12,40.95,3.86,5.78,10.34,5.01,10.88,4.93Z"/>
  <path class="cls-3" d="M45.31,58.02s1.41,9.01,5.64,8.71c4.23-.3,5.47-8.71,5.47-8.71h-11.1Z"/>
  <path class="cls-1" d="M67.37,34.12c-6.87-6.88-16.73-5.93-16.73-5.93,0,0-9.86-.95-16.73,5.93-4.84,4.85-7.6,12.28-8.81,16.25-.41,1.36.54,2.75,1.96,2.85,3.42.24,9.3.91,12.85,2.71,7.02,3.56,14.36,4.03,21.47,0,3.57-2.02,9.67-2.61,13.07-2.78,1.29-.06,2.18-1.32,1.8-2.56-1.17-3.91-3.95-11.54-8.88-16.48Z"/>
  <path class="cls-2" d="M60.1,42.73c-4.1-2.05-7.7-.79-9.43.09-1.65-.88-5.14-2.14-9.23-.09-5.74,2.87-4.12,10.24-.91,12.53,3.17,2.26,4.93,3.25,10.14,3.51h0s.06,0,.09,0c.03,0,.06,0,.09,0h0c5.21-.27,6.97-1.26,10.14-3.52,3.21-2.29,4.83-9.66-.91-12.53Z"/>
  <path class="cls-3" d="M74.03,57.74c-.24-1.34-1.58-2.21-2.9-1.88-1.74.44-3.97,1.49-5.17,4.03-2.17,4.57,1,5.33,4.47,5.48,3.19.14,4.98-.1,3.61-7.63Z"/>
  <path class="cls-3" d="M62.27,82.13s2.74-6.94,6.67-6.94,7.22,6.66,6.77,8.01c-.45,1.35-15.44,1.5-13.44-1.07Z"/>
  <path class="cls-3" d="M74.6,100.46c-2.39,3.18-5.66,4.48-8.42,5.26-4.15-.05-7.59-1.08-6.18-3.66,0,0,3.22-1.21,5.24-3.62,2.01-2.42,5.46-4.76,7.9-2.11.96,1.04,1.5,2.6,1.47,4.14Z"/>
  <path class="cls-3" d="M27.88,57.74c.24-1.34,1.58-2.21,2.9-1.88,1.74.44,3.97,1.49,5.17,4.03,2.17,4.57-1,5.33-4.47,5.48-3.19.14-4.98-.1-3.61-7.63Z"/>
  <path class="cls-3" d="M39.64,82.13s-2.74-6.94-6.67-6.94-7.22,6.66-6.77,8.01c.45,1.35,15.44,1.5,13.44-1.07Z"/>
  <path class="cls-3" d="M27.31,100.46c2.39,3.18,5.66,4.48,8.42,5.26,4.15-.05,7.59-1.08,6.18-3.66,0,0-3.22-1.21-5.24-3.62s-5.46-4.76-7.9-2.11c-.96,1.04-1.5,2.6-1.47,4.14Z"/>
</svg>