<?xml version="1.0" encoding="UTF-8"?>
<svg id="Layer_1" data-name="Layer 1" xmlns="http://www.w3.org/2000/svg" viewBox="0 0 814.31 1019.02">
  <defs>
    <style>
      .cls-1 {
        fill: #231f20;
      }

      .cls-2 {
        fill: #eb6224;
      }

      .cls-3, .cls-4, .cls-5 {
        stroke-miterlimit: 10;
      }

      .cls-3, .cls-5 {
        stroke: #000;
      }

      .cls-4 {
        stroke: #545554;
      }

      .cls-4, .cls-5 {
        fill: none;
      }

      .cls-5 {
        stroke-width: 1.5px;
      }
    </style>
  </defs>
  <g>
    <path d="M374.22,24.99c1.92,1.56,8.82,8.27,10.66,10.34,5.52,6.18,8.7,18.27,8.88,26.43.11,5.08-3.26,16.01-2.59,18.72s4.59,2.96,5.29,8.33c.68,5.24-3.91,24.34-7.57,27.79-1.53,1.45-4.32,1.35-5.38,2.75-4.19,5.56-5.06,33.56-2.79,40.71,1.65,5.21,13.38,11.46,18.34,14.18,39.54,21.68,71.34,11.93,80.99,68.05,2.54,14.77-1.02,26.48.36,40.28.76,7.68,4.14,16.36,5.24,24.57,1.85,13.89.61,29.45,3.23,42.83,2.3,11.76,9.36,23.08,12.82,34.59,10.58,35.18,8.53,76.08,20,111.41,3.58,11.02,14.13,16.02,19.93,26.13,2.03,3.54,13.56,31.89,13.37,34.1-.53,5.99-9.6,4.95-13.03,2.12-1.69-1.39-1.16-4.25-3.27-4.13-.01,0-.03.01-.03.02-.88,8.24,6.26,36.35,1.02,41.63-3.58,3.61-8.85-.05-9.15.33-.78,1,1.49,6.02-4.49,8.5-6.2,2.57-6.66-3.75-8.3-4-1.99-.3-5.66,2.17-8.58-.77-2.05-2.06-3.22-10.05-3.04-13.18,0-.02-.01-.03-.03-.03-2.55.16-.94,3.8-4.7,4.17-2.74.27-4.66-1.43-5.93-3.66-2.24-3.95-9.05-45.74-9.62-52.69-.69-8.34,1.99-18.54,1.05-25.36-2.24-16.15-16.39-38.96-22.99-54.3-12.33-28.67-22.59-55.87-21.82-87.91,0,0,0,0,0,0l-10.41-36.11s-.05-.02-.05,0c-.66,16.14-8.35,34.79-8.26,50.63.06,11.15,4.51,25.11,5.52,36.6,2.48,28.07,5.47,50.94,9.28,78.78,6.78,49.57,8.51,97.59,1.39,147.24-2.47,17.22-9.34,37-10.7,52.98-2.52,29.73,1.43,55.18,4.1,84.05,4.55,49.13-13.05,90.04-19.92,137.2-1.38,9.5-2.32,31.03-.06,39.91.63,2.5,9.18,15.59,11.31,18.5,7.78,10.63,28.07,23.17,9.36,33.99-6.94,4.01-22.04,7-29.91,8.09-4.51.62-9.14-.64-12.73-3.39-.74-.57-9.16-8.84-9.57-9.4-3.38-4.61-1.63-10.25-2.97-12.62-1.01-1.8-8.98-4.65-10.29-10.76-1.56-7.3,3.7-17.25,3.87-24.14.13-5.55-2.17-10.6-1.29-17.44,2.98-23.22,4.78-35.36,2.59-59.71-2.23-24.78-10.64-49.57-9.47-74.5.59-12.42,5.65-27.48,5.52-39.29-.11-10.35-5.96-25.83-7.82-37.01-3.59-21.57-2.64-41.88-4.5-63.23-2.25-25.76-9.18-51.53-10.81-77.24-.59-9.31,1.5-22.8-.02-31.14-.42-2.32-1.44-3.8-4.02-3.39-.01,0-.03.02-.02.03,2.81,36.87-7.51,72.72-10.84,109.03-2.24,24.44-1.74,46.61-5.86,71.36-2.13,12.8-7.18,23.7-6.32,36.99.49,7.66,3.27,16.53,4.02,24.42,4.14,43.37-16.2,89.09-9.12,132.39,2.27,13.86,1.78,16.82,2.34,30.09.39,9.23,7.13,18.4,1.37,27.16-1.77,2.69-7.57,5.92-7.83,6.38-1.52,2.7.66,8.19-3.59,13.35-.71.86-9.74,9.6-10.35,9.97-2.58,1.57-7.1,2.56-10.09,2.26-2.9-.29-4.24-2.25-5.75-2.54-8.66-1.67-15.98-.94-25.65-5.48-19.37-9.1,1.69-24.5,8.27-32.87,3.17-4.03,10.18-14.98,11.74-19.53,1.58-4.6-.59-6.82-.16-10.77,5.67-52.35-23.01-103.46-20.26-157.2,1.61-31.38,8.96-62.18,5.42-94.85-1.52-14.03-8.28-32.2-10.66-47.6-6.2-40.23-7.07-82.59-2.89-123.07,2.69-26.04,10.98-53.72,13.38-78.75.89-9.34-.47-18.92.18-28.27.77-11.07,5.33-24.95,5.45-35.3.18-15.52-7.46-33.65-8.18-49.36,0-.01-.01-.02-.03-.02-3.55-.32-2.18-.07-2.66,2.03-1.91,8.33-4.6,16.71-6.17,25.02-3.68,19.58-2.5,36.44-8.4,56.62-7.8,26.69-35.19,69.07-38.04,92.13-.78,6.33,2.79,12.88,2.47,19.89-.52,11.28-6.65,42.51-9.65,54.09-.9,3.48-2.34,9.3-7.1,8.65-1.83-.25-3.89-2.38-4.28-2.37-2.67.04-1.42,9.13-4.27,10.92-2.8,1.74-6.36.6-8.95,1.32-1.07.3-.99,2.85-4.97,3.39-8.8,1.2-5.53-7.29-6.88-8.89-.23-.27-3.4,2.35-6.75.73-8.93-4.32-.83-35.23-.03-43.95,0-.03-.03-.04-.05,0-3.11,6.51-17.34,11.86-17.51,1.94-.03-1.82,11.86-30.62,13.74-33.68,4.14-6.74,15-14.68,17.68-20.25,12.36-25.67,11.75-77.2,19.08-106.91,3.75-15.19,12.8-30.56,15.52-45.45,2.3-12.57,1.71-27.12,3.23-40.12,1.04-8.94,4.5-18.62,5.23-27.29,1.08-12.92-1.79-24.03.19-37.74,7.75-53.96,35.71-47.04,74.85-66.06,9.79-4.76,23.91-10.31,25.26-22.16.77-6.75-1.06-30.75-4.71-35.93-.93-1.32-3.88-1.25-5.42-2.71-3.53-3.35-8.9-21.41-8.87-26.43.04-5.75,5.17-7.52,5.34-10.69.46-8.6-2.62-19.53-.93-29.58,5.44-32.38,55.47-45.29,80.51-24.91ZM385.49,86.73s.04.03.05,0c4.39-14.38,7.23-36.38-3.35-48.71-16.03-18.68-39.88-25.5-62.61-13.74-25.03,12.95-26.55,39.33-19.43,63.8,0,.03.04.03.05,0l5.06-18.5s0,0,0,0c.52-6.28-.28-11.74,2.76-17.56,6.87-13.14,22.46-4.59,33.45-4.38,20.28.39,40.07-14.23,38.95,20.58,0,0,0,0,0,0l5.06,18.5ZM316.03,47.83c-8.96,2.65-6.66,14.72-7.84,20.6-4.27,21.22-7.65,38.42,1.2,59.98,6.77,16.49,28.11,32.72,46.66,24.43,8.94-4,21.24-22.48,23.47-32.08,4.84-20.87,2.15-32.66-1.78-52.55-.83-4.19.16-8.19-.96-12.59-3.79-14.96-21.98-5.41-32.55-5.27-8.18.11-21.2-4.59-28.2-2.52ZM298.8,89.53c.91-.97-1.08-4.51-3.35-4.06-5.42,1.07,1.44,19.87,2.75,22.99.95,2.25,1.29,6.32,4.66,5.45.01,0,.02-.01.02-.02.73-4.14-2.77-8.29-3.39-11.48-.89-4.57,3.03-9.12-4.73-13.56.59-1.9,3.54,1.22,4.05.68ZM384.24,113.89c5.71-3.88,13.67-30.58,2.65-27.73-.01,0-.02.01-.02.03v19.57s0,.03-.03.02l-2.61-1.33s-.04,0-.04.02v9.4s.03.04.04.02ZM376.05,159.3c-1.07-6.02.77-14.56,0-20.94,0-.02-.03-.03-.05-.01-9.72,9.92-16.07,20.06-31.81,20.38s-22.03-9.89-31.79-19.03c-.02-.02-.05,0-.05.02v19.58c0,8.32-18.51,17.33-25.32,20.75-33.87,16.98-62.64,11.09-73.2,55.52-4.37,18.39-.76,29.13-1.78,45.63-.69,11.14-5.39,25.72-6.74,37.97-1.01,9.13.12,20.34-1.47,29.68-2.8,16.45-12.95,33.23-16.85,50.89-6.49,29.39-7.16,59.76-14.87,89.44-5.87,22.57-12.99,19.77-22.41,35.84-5.24,8.94-6.42,20.91-12.13,29.82,0,.01,0,.03.01.04,10.79,4.34,12.59-14.85,18.94-17.62,5.25-2.28,14.92-1,20.3-7.47-.24,8-18,8.42-19.68,10.79-2.28,3.21-7.25,46.1-5.87,50.66s3.91.17,4.86-2.9c1.04-3.35,6.25-27.53,5.86-29.24-.36-1.58-3.36.03-2.77-2.21,10.4,2.99,20.4,3.89,31.12,1.36.02,0,.03,0,.03.03.32,2.23-3.5,1.36-3.94,3.42-.25,1.16,1.47,4.2,1.3,6.63-.38,5.3-3.45,12.67-1.59,17.77.51,1.41.77,3.98,2.87,1.93,3.2-3.13,7.67-50.94,10.85-58.95,0,0,0,0,0-.01-6.15-37.81,21.75-71.1,33.54-105.97,7.73-22.86,6.23-39.39,10.2-61.6,5.62-31.36,13.56-44.18,7.66-78.84-1.16-6.82-5.27-13.79-5.3-20.95,0-.03.04-.04.05-.01l6.9,16.6s0,0,0,0c3.62,12.19,18.36,27.96,31.65,27.96h20.33c1.39,0,8.66-3.95,10.14-.05,0,.02,0,.04-.02.04-17.2,2.93-36.9,4.2-51.48-7.41,0,0,0,0,0,0l-9.39-11.46s-.05,0-.05.02c1.53,11.83,2.45,23.76,4.27,35.57,3.45,22.41,10.95,45.14,9.31,68.01-2.51,34.94-8.15,68.54-13.37,103.13-7.49,49.57-9.5,95.98-2.74,145.88,2.53,18.67,10.32,39.96,11.99,57.1,3.13,32.03-3.44,60.22-5.39,90.77-3.5,54.75,23.27,103.61,20.19,159.83-.19,3.55,2.05,5.85.9,10.16-1.21,4.53-9.31,17.3-12.41,21.56-5.63,7.72-17.01,14.5-15.47,24.43,0,.02.03.03.05.01l6.67-8.02s.05-.01.05.01c.2,2.43-3.85,11.06-2.7,12.12,4.22,3.87,6.53-10.82,10.77-12.17.02,0,.04.01.04.03-1.26,6.35-9.47,15.71,2.7,14.84.02,0,.03-.02.02-.04-2.58-5.58,3.49-11.74,8.07-14.81.02-.01.05,0,.04.03-1.04,3.76-10.09,13.86-5.46,16.93,6.28,4.16,6.43-3.85,8.13-6.91,1.84-3.31,4.93-7.95,8.16-10.07.01,0,.04,0,.04.01.88,2.23-4.15,5.22-2.71,6.72.28.3,6.53.42,6.77,4.03,0,.02-.01.03-.03.03l-10.78-1.34s-.03,0-.03.02c-1.05,7.63.28,10.49,8.47,9.21,2.9-.46,13.1-9.04,14.43-11.4,2.41-4.28,1.98-13,2.86-18.09,0-.02.03-.03.05-.01l3.31,3.99s.03.01.04,0c9.17-6.27,4.49-13.93,3.37-22.92,0-.03-.04-.03-.05,0l-2.6,5.23s-.05.02-.05-.01c-.43-8.48,3.14-18.04,2.8-26.32-.26-6.43-3.68-12.78-4.22-20.24-2.84-38.9,9.63-71.16,10.95-107.01.58-15.74-4.71-31.08-5.45-46.13-.85-17.47,9.05-46.3,10.8-66.38,3.03-34.81,6.8-68.44,10.69-103.11.89-7.95,4.5-40.45,2.7-45.71-.78-2.28-6.11-2.92-8.67-4.88-8.22-6.32-9.46-21.28-11.4-30.89,0-.03.04-.04.05,0l8.75,22.67s0,0,0,0c4.72,5.61,7.2,8.07,14.82,8.28,20.67.56,18.58-17.15,25.69-31.13.01-.03.06-.02.05.01-1.08,9.7-3.08,25.72-11.56,31.65-2.35,1.64-7.07,1.88-7.89,4.3-.9,2.62-.37,13.75-.24,17.48.95,27.78,8.09,55.15,10.88,82.6,2.23,21.96,1.3,44.28,4.26,66.18,1.8,13.3,9.08,31.54,9.39,43.52.32,12.21-4.8,26.68-5.5,39.31-2.04,37.04,13.73,76.85,10.89,116.55-.56,7.82-3.64,14.5-4.18,21.55-.72,9.4,2.51,18.48,2.75,27.77,0,.02-.03.04-.05.02l-3.95-3.97s-.04,0-.04.02c-.44,8.28-4.56,16.94,4.72,21.59.01,0,.03,0,.04,0l3.31-5.31s.05-.02.05.01c.23,5.29.34,13.83,2.37,18.54.48,1.1,11.38,11.57,12.45,11.93,14.54,4.91,17.6-12.33,1.52-8.91-.02,0-.04-.02-.03-.04,2.5-4.15,7.12-.09,4.06-6.64,0-.02.01-.05.03-.04,7.94,2.41,7.57,19.52,16.16,11.42,0,0,.01-.02,0-.02-.34-2.49-1.29-4.88-4.03-4.66v-1.31s0-.02.02-.03l2.64-.67s.03-.03.02-.04l-4.03-6.07c3.62,3.01,8.81,8.94,8.13,13.53,0,.01,0,.03.02.03,6.24.93,8.32-6.75,1.44-5.47-.03,0-.05-.03-.02-.04l2.59-1.93s.01-.02,0-.04c-9.59-15.86,4.36-2.83,4.1,6.06,0,.02.02.03.04.02,8.16-4.04.79-8.94-.03-14.78,0-.03.03-.04.05-.02l8,9.37s.04,0,.05-.01c1.98-9.6-7.37-13.74-12.73-20.4-3.85-4.78-12.92-17.92-14.67-23.25-2-6.09-1.65-32.27-.88-39.44,4.51-42.34,23.66-85.67,21.51-128.84-1.53-30.71-8.16-61.31-6.29-93.29.8-13.72,9.24-37.09,11.55-53.2,13.61-95.04-9.31-164.64-14.79-255.8-1.54-25.7,7.2-50.9,10.7-76.11,1.21-8.68,1.08-17.55,2.87-26.13,0-.03-.03-.04-.05-.02-4.19,4.09-5.68,9.02-10.85,12.72-11.53,8.25-26.38,7.98-39.86,7.52,0,0,0,0,0,0l-13.79-3.9s-.02-.06.01-.05c23.51,3.91,49.47,6.36,62.46-17.79,2.71-5.03,3.77-10.51,5.94-15.73.8-1.93,2.3-6.43,4.24-7.19.02,0,.04.01.04.04-7.16,23.99-9.98,47.15-4.76,71.78,4.81,22.72,6.97,40.02,10.6,62.55,6.66,41.33,34.54,74.69,42.45,115.31,0,0,0,0,0,.01-4.8,23.26,4.75,48.25,7.61,71.69,0,0,0,.01.01.02l3.69,2.32s.04,0,.04-.02c1.19-6.7-1.2-13.38-1.48-19.6-.12-2.63,1.64-5.32,1.56-6.69-.08-1.48-3.41.21-2.78-2.09,8.96,1.96,18.15,1.95,27.06-.01.01,0,.03,0,.03.02,1.91,6.95,3.42,29.81,6.65,34.41,1.12,1.59,2.65.61,4.15.8.02,0,.03,0,.03-.03-.28-6.03.43-12.22-.01-18.25-.42-5.76-3.77-29.37-5.66-33.63-2.13-4.81-10.77-1.56-13.25-6.26-.01-.02.01-.05.04-.04,3.99,2.05,9.36-.23,12.56,1.42,5.96,3.08,7.97,13.67,12.38,17.55,1.29,1.13,7.29,3.77,7.47.64.09-1.61-10.43-26.86-12.12-29.86-4.79-8.53-17.6-17.69-20.01-24.7-12.5-36.35-9.95-81.08-21.65-117.88-2.46-7.72-7.15-15.54-9.57-22.95-5.19-15.91-3.7-36.65-5.88-53.72-1.02-7.94-4.59-16.95-5.24-24.55-1.19-14.01,2.39-23.97-.65-40-10.12-53.49-43.68-43.35-82.06-65.62-5.97-3.46-16.27-8.93-17.59-16.29ZM172.75,562.39c-.38-.54-7.52-1.93-8.08-1.44,0,0,0,.01,0,.02-.89,13.01-4.75,26.37-2.7,39.26,0,.01.01.02.03.02,2.96.26,3.63.4,5.08-2.34.84-1.59,6.72-34.05,5.69-35.52ZM523.7,561.02c-.99-.94-8.78-.35-8.11,3.31,2.65,5.54,3.64,37.04,8.84,37.24,1.93.08,1.99-4.59,2.09-6.01.3-4.03-1.55-33.33-2.83-34.54ZM183.6,562.37s0-.04-.02-.03c-2.13.4-7.01-1.15-8.15.85-.74,1.3-3.91,25.09-4.05,28.32-.23,5.24,3.88,8.51,5.45,5.16,3.41-7.28,2.56-25.71,6.77-34.3ZM512.9,562.33c-.28-.29-7.01-.41-8.08.62,0,0-.01.02,0,.03,3.89,7.5,3.31,27.66,6.74,33.68,2,3.51,5.68-.3,5.47-5.16-.14-3.19-3.11-28.12-4.13-29.18Z"/>
    <path d="M412.62,758.74c-.12.11-2.86.5-2.68-.66,5.83-6.54,3.55-12.56,2.66-20.25l4.09-23.78c-.71,7.53,0,40.96-4.07,44.69Z"/>
    <path d="M277.12,758.74c-7.24-4.37-3.4-13.78-4-19.57-.86-8.33-3.73-16.61-2.75-25.13l4.03,19.66c-.12,8.85-.6,16.7,2.72,25.04Z"/>
    <path d="M325.9,197.92c.29,2.52-2.85,1.12-4.34.95-8.48-.94-18.6-2.6-27.08-4.1-1.69-.3-6.56-.25-6.51-2.28l37.93,5.42Z"/>
    <polygon points="399.08 192.5 362.51 199.25 379.83 194.24 399.08 192.5"/>
    <path d="M301.5,760.09l-.69-4.08,8.83-24.35c-.3,10.1-4.53,19.25-8.13,28.43Z"/>
    <path d="M388.25,758.73c-2.43,2.55-5.05-6.36-5.45-7.41-2.38-6.2-4.34-12.97-4.02-19.66l9.47,27.07Z"/>
    <polygon points="187.7 544.72 181.67 547.47 163.31 543.36 187.7 544.72"/>
    <path d="M522.4,543.36c-4.91,4.86-16.54,3.28-23.03,2.68l23.03-2.68Z"/>
    <rect x="347.46" y="173.7" width="22.46" height="2.28" transform="translate(72.04 452.43) rotate(-70.07)"/>
    <path d="M411.28,445.83l-14.89,16.24c-.61-3.52,13.05-17.97,14.89-16.24Z"/>
    <rect x="327.57" y="161.96" width="2.1" height="23.13" transform="translate(-40.11 127.3) rotate(-20.69)"/>
    <path d="M292.02,463.42l-16.25-18.95c2.17-1.9,17.09,14.74,16.25,18.95Z"/>
    <path d="M408.58,291.37c-.69-2.24,4.27-.49,2.69-3.35-1.43-2.59-5.42-.8-5.4-3.39,7.05-1.31,12.47,6.74,2.71,6.75Z"/>
    <path d="M344.89,421.43c1.65-3.74.77-6.81-3.42-4.08-1.94-7.63,11.59-1.1,3.42,4.08Z"/>
    <path d="M347.59,203.34c-2.06,4.68-8.21.67-9.48-2.71l9.48,2.71Z"/>
    <path d="M282.55,285.96c1.21.48,3.38.26,4.06,2.04,1.66,4.31-1.51,2.89-2.7,3.38,2.17-.84-.47-5.06-1.36-5.42Z"/>
    <path d="M283.91,291.38c-3.44,1.41-4,2.94-6.78-1.35.2.28,5.98,1.66,6.78,1.35Z"/>
    <path d="M282.55,285.96c-2.66-1.07-6.88,2.02-5.42,4.06-3.42-5.29.53-6,5.42-4.06Z"/>
    <path d="M378.76,82.75c-9.83-4.53-16.49-.3-25.1,0-6.52.22-3.14-3.2.93-4.51,7.99-2.55,19.1-3.69,24.17,4.51Z"/>
    <path d="M335.38,78.74c.13.17.15,3.87.01,4.01-.72.75-12.7-2.28-15.37-2.2-3.79.12-7.81,2.28-11.72,2.2-3.23-2.57,9.42-6.03,10.76-6.16,1.99-.19,15.8,1.51,16.31,2.15Z"/>
    <path class="cls-5" d="M312.36,89.45c6.81-7.95,14.18-6.46,19.79.68-7.21,2.04-14.59,4.71-19.79-.68Z"/>
    <circle class="cls-3" cx="322.19" cy="88.31" r="3.58"/>
    <circle class="cls-3" cx="361.66" cy="88.29" r="3.58"/>
    <path class="cls-5" d="M351.77,89.28c6.14-6.6,12.74-6.9,19.79-.92-3.48,4.91-13.99,5.68-19.79.92Z"/>
    <line class="cls-5" x1="345.53" y1="86.18" x2="345.53" y2="101.01"/>
    <path class="cls-5" d="M333.14,109.53c-.37.81-.74,1.64-.84,2.53s.11,1.85.76,2.47c.93.88,2.42.77,3.64.37.77-.26,1.62-.61,2.37-.28.3.13.54.35.8.54,1.73,1.27,4.37,1.08,5.89-.43.43-.43.8-.96,1.36-1.21.89-.39,1.9.08,2.8.45s2.09.57,2.73-.17c.45-.52.42-1.3.29-1.97-.22-1.2-.89-2.58-2.1-2.65"/>
    <path class="cls-5" d="M333.17,134.03c6.98,3.5,13.2,3.6,18.6,0"/>
    <path class="cls-5" d="M357.97,128.29l-9.41-2.82c-.64-.19-1.33-.24-1.99-.1-2.44.51-4.75.59-6.89.03-.61-.16-1.25-.13-1.86.03l-10.85,2.86s-.03.05,0,.05c10.27,1.33,20.6,1.33,30.99,0,.03,0,.03-.04,0-.05Z"/>
  </g>
  <g id="male">
    <line class="cls-4" x1="190.09" y1="49.95" x2="307.78" y2="95.19"/>
    <line class="cls-4" x1="449.07" y1="18.46" x2="396.37" y2="58.12"/>
    <line class="cls-4" x1="474.48" y1="93.59" x2="399.08" y2="95.19"/>
    <line class="cls-4" x1="180.92" y1="149.57" x2="228.31" y2="192.5"/>
    <line class="cls-4" x1="156.45" y1="227.45" x2="275.84" y2="238.53"/>
    <line class="cls-4" x1="541.11" y1="224.48" x2="483.97" y2="258.24"/>
    <line class="cls-4" x1="659.46" y1="387.65" x2="506.25" y2="403.68"/>
    <line class="cls-4" x1="612.47" y1="462.07" x2="515.55" y2="500.41"/>
    <line class="cls-4" x1="608.65" y1="569.49" x2="512.82" y2="543.36"/>
    <polyline class="cls-4" points="512.82 637.8 462.63 637.8 388.25 470.38"/>
    <line class="cls-4" x1="495.41" y1="728.02" x2="403.83" y2="745.42"/>
    <line class="cls-4" x1="485.57" y1="826.75" x2="400.71" y2="837.45"/>
    <line class="cls-4" x1="504.81" y1="942.95" x2="422.88" y2="961.01"/>
    <line class="cls-4" x1="198.13" y1="951.98" x2="273.64" y2="951.98"/>
    <polyline class="cls-4" points="192.77 693.18 227.17 693.18 335.73 558.24"/>
    <line class="cls-4" x1="133.9" y1="621" x2="256.22" y2="614.31"/>
    <polyline class="cls-4" points="75.76 487.95 118.65 487.95 259.97 413.86"/>
    <line class="cls-4" x1="137.58" y1="372.19" x2="328.62" y2="372.76"/>
    <line class="cls-4" x1="512.82" y1="328.17" x2="357.98" y2="413.86"/>
  </g>
  <g id="male-2" data-name="male">
    <g>
      <path class="cls-1" d="M76.33,147.23c.68.44,1.87.91,3.02.91,1.66,0,2.44-.83,2.44-1.87,0-1.09-.65-1.69-2.34-2.31-2.26-.81-3.33-2.05-3.33-3.56,0-2.03,1.64-3.69,4.34-3.69,1.27,0,2.39.36,3.09.78l-.57,1.66c-.49-.31-1.4-.73-2.57-.73-1.35,0-2.11.78-2.11,1.72,0,1.04.75,1.51,2.39,2.13,2.18.83,3.3,1.92,3.3,3.8,0,2.21-1.72,3.77-4.71,3.77-1.38,0-2.65-.34-3.54-.86l.57-1.74Z"/>
      <path class="cls-1" d="M86.94,131.11h2.29v7.85h.05c.36-.65.94-1.22,1.64-1.61.68-.39,1.48-.65,2.34-.65,1.69,0,4.39,1.04,4.39,5.38v7.49h-2.29v-7.23c0-2.03-.75-3.74-2.91-3.74-1.48,0-2.65,1.04-3.07,2.29-.13.31-.16.65-.16,1.09v7.59h-2.29v-18.46Z"/>
      <path class="cls-1" d="M112.76,143.18c0,4.65-3.22,6.68-6.27,6.68-3.41,0-6.03-2.5-6.03-6.47,0-4.21,2.76-6.68,6.24-6.68s6.06,2.63,6.06,6.47ZM102.77,143.31c0,2.76,1.59,4.84,3.82,4.84s3.82-2.05,3.82-4.89c0-2.13-1.07-4.84-3.77-4.84s-3.87,2.5-3.87,4.89Z"/>
      <path class="cls-1" d="M126.17,146.14c0,1.3.03,2.44.1,3.43h-2.03l-.13-2.05h-.05c-.6,1.01-1.92,2.34-4.16,2.34-1.98,0-4.34-1.09-4.34-5.51v-7.36h2.29v6.97c0,2.39.73,4,2.81,4,1.54,0,2.6-1.07,3.02-2.08.13-.34.21-.75.21-1.17v-7.72h2.29v9.15Z"/>
      <path class="cls-1" d="M129.97,131.11h2.29v18.46h-2.29v-18.46Z"/>
      <path class="cls-1" d="M146.97,131.11v15.21c0,1.12.03,2.39.1,3.25h-2.05l-.1-2.18h-.05c-.7,1.4-2.24,2.47-4.29,2.47-3.04,0-5.38-2.57-5.38-6.4-.03-4.19,2.57-6.76,5.64-6.76,1.92,0,3.22.91,3.8,1.92h.05v-7.51h2.29ZM144.68,142.11c0-.29-.03-.68-.1-.96-.34-1.46-1.59-2.65-3.3-2.65-2.37,0-3.77,2.08-3.77,4.86,0,2.55,1.25,4.65,3.72,4.65,1.53,0,2.94-1.01,3.35-2.73.08-.31.1-.62.1-.99v-2.18Z"/>
      <path class="cls-1" d="M152.04,143.7c.05,3.09,2.03,4.37,4.32,4.37,1.64,0,2.63-.29,3.48-.65l.39,1.64c-.81.36-2.18.78-4.19.78-3.88,0-6.19-2.55-6.19-6.34s2.24-6.79,5.9-6.79c4.11,0,5.2,3.61,5.2,5.93,0,.47-.05.83-.08,1.07h-8.84ZM158.75,142.06c.03-1.46-.6-3.72-3.17-3.72-2.31,0-3.33,2.13-3.51,3.72h6.68Z"/>
      <path class="cls-1" d="M163.79,140.91c0-1.48-.03-2.76-.1-3.93h2l.08,2.47h.1c.57-1.69,1.95-2.76,3.48-2.76.26,0,.44.03.65.08v2.16c-.23-.05-.47-.08-.78-.08-1.61,0-2.76,1.22-3.07,2.94-.05.31-.1.68-.1,1.07v6.71h-2.26v-8.66Z"/>
      <path class="cls-1" d="M74.74,152.82v-1.3h95.65v1.3h-95.65Z"/>
      <path class="cls-2" d="M76.64,162.31h2.29v18.46h-2.29v-18.46Z"/>
      <path class="cls-2" d="M85.82,162.96c-.6,2.18-1.71,4.97-2.44,6.16l-1.46.18c.57-1.53,1.25-4.24,1.54-6.11l2.37-.23Z"/>
      <path class="cls-2" d="M87.59,174.9c.05,3.09,2.03,4.37,4.32,4.37,1.64,0,2.63-.29,3.48-.65l.39,1.64c-.81.36-2.18.78-4.19.78-3.87,0-6.19-2.55-6.19-6.34s2.24-6.79,5.9-6.79c4.11,0,5.2,3.61,5.2,5.93,0,.47-.05.83-.08,1.07h-8.84ZM94.29,173.26c.03-1.46-.6-3.72-3.17-3.72-2.31,0-3.33,2.13-3.51,3.72h6.68ZM94.84,162.75l-3.17,3.72h-1.64l2.29-3.72h2.52Z"/>
      <path class="cls-2" d="M99.34,172.3c0-1.61-.05-2.91-.1-4.11h2.05l.1,2.16h.05c.94-1.53,2.42-2.44,4.47-2.44,3.04,0,5.33,2.57,5.33,6.4,0,4.52-2.76,6.76-5.72,6.76-1.66,0-3.12-.73-3.88-1.98h-.05v6.84h-2.26v-13.62ZM101.6,175.65c0,.34.05.65.1.94.42,1.59,1.79,2.68,3.43,2.68,2.42,0,3.82-1.98,3.82-4.86,0-2.52-1.33-4.68-3.74-4.68-1.56,0-3.02,1.12-3.46,2.83-.08.29-.16.62-.16.94v2.16Z"/>
      <path class="cls-2" d="M121.1,180.77l-.18-1.59h-.08c-.7.99-2.05,1.87-3.85,1.87-2.55,0-3.85-1.79-3.85-3.61,0-3.04,2.7-4.71,7.57-4.68v-.26c0-1.04-.29-2.91-2.86-2.91-1.17,0-2.39.36-3.28.94l-.52-1.51c1.04-.68,2.55-1.12,4.13-1.12,3.85,0,4.79,2.63,4.79,5.15v4.71c0,1.09.05,2.16.21,3.02h-2.08ZM120.76,174.35c-2.5-.05-5.33.39-5.33,2.83,0,1.48.99,2.18,2.16,2.18,1.64,0,2.68-1.04,3.04-2.11.08-.23.13-.49.13-.73v-2.18Z"/>
      <path class="cls-2" d="M137.2,177.34c0,1.3.03,2.44.1,3.43h-2.03l-.13-2.05h-.05c-.6,1.01-1.92,2.34-4.16,2.34-1.98,0-4.34-1.09-4.34-5.51v-7.36h2.29v6.97c0,2.39.73,4,2.81,4,1.54,0,2.6-1.07,3.02-2.08.13-.34.21-.75.21-1.17v-7.72h2.29v9.15Z"/>
      <path class="cls-2" d="M140.99,162.31h2.29v18.46h-2.29v-18.46Z"/>
      <path class="cls-2" d="M148.4,174.9c.05,3.09,2.03,4.37,4.32,4.37,1.64,0,2.63-.29,3.48-.65l.39,1.64c-.81.36-2.18.78-4.19.78-3.88,0-6.19-2.55-6.19-6.34s2.24-6.79,5.9-6.79c4.11,0,5.2,3.61,5.2,5.93,0,.47-.05.83-.08,1.07h-8.84ZM155.11,173.26c.03-1.46-.6-3.72-3.17-3.72-2.31,0-3.33,2.13-3.51,3.72h6.68Z"/>
      <path class="cls-2" d="M159.89,168.77v-8.34h-1.36v-1.34h1.36v-.46c0-1.36.3-2.6,1.12-3.38.66-.64,1.54-.9,2.36-.9.62,0,1.16.14,1.5.28l-.24,1.36c-.26-.12-.62-.22-1.12-.22-1.5,0-1.88,1.32-1.88,2.8v.52h2.34v1.34h-2.34v8.34h-1.74Z"/>
    </g>
    <g>
      <path class="cls-1" d="M530.35,306.25c0-1.3-.03-2.37-.1-3.41h2.03l.13,2.08h.05c.62-1.2,2.08-2.37,4.16-2.37,1.74,0,4.45,1.04,4.45,5.36v7.51h-2.29v-7.25c0-2.03-.75-3.72-2.91-3.72-1.51,0-2.68,1.07-3.07,2.34-.1.29-.16.68-.16,1.07v7.57h-2.29v-9.18Z"/>
      <path class="cls-1" d="M551.75,315.43l-.18-1.59h-.08c-.7.99-2.05,1.87-3.85,1.87-2.55,0-3.85-1.79-3.85-3.61,0-3.04,2.7-4.71,7.57-4.68v-.26c0-1.04-.29-2.91-2.86-2.91-1.17,0-2.39.36-3.28.94l-.52-1.51c1.04-.68,2.55-1.12,4.13-1.12,3.85,0,4.78,2.63,4.78,5.15v4.71c0,1.09.05,2.16.21,3.02h-2.08ZM551.41,309.01c-2.5-.05-5.33.39-5.33,2.83,0,1.48.99,2.18,2.16,2.18,1.64,0,2.68-1.04,3.04-2.11.08-.23.13-.49.13-.73v-2.18Z"/>
      <path class="cls-1" d="M557.99,302.84l2.47,7.07c.42,1.14.75,2.18,1.01,3.22h.08c.29-1.04.65-2.08,1.07-3.22l2.44-7.07h2.39l-4.94,12.58h-2.18l-4.78-12.58h2.44Z"/>
      <path class="cls-1" d="M570.63,309.55c.05,3.09,2.03,4.37,4.32,4.37,1.64,0,2.63-.29,3.48-.65l.39,1.64c-.81.36-2.18.78-4.19.78-3.88,0-6.19-2.55-6.19-6.34s2.24-6.79,5.9-6.79c4.11,0,5.2,3.61,5.2,5.93,0,.47-.05.83-.08,1.07h-8.84ZM577.33,307.91c.03-1.46-.6-3.72-3.17-3.72-2.31,0-3.33,2.13-3.51,3.72h6.68Z"/>
      <path class="cls-1" d="M582.38,296.97h2.29v18.46h-2.29v-18.46Z"/>
      <path class="cls-1" d="M528.45,318.68v-1.3h58.16v1.3h-58.16Z"/>
      <path class="cls-2" d="M530.35,328.17h2.29v18.46h-2.29v-18.46Z"/>
      <path class="cls-2" d="M537.76,340.75c.05,3.09,2.03,4.37,4.32,4.37,1.64,0,2.63-.29,3.48-.65l.39,1.64c-.81.36-2.18.78-4.19.78-3.87,0-6.19-2.55-6.19-6.34s2.24-6.79,5.9-6.79c4.11,0,5.2,3.61,5.2,5.93,0,.47-.05.83-.08,1.07h-8.84ZM544.47,339.11c.03-1.46-.6-3.72-3.17-3.72-2.31,0-3.33,2.13-3.51,3.72h6.68Z"/>
      <path class="cls-2" d="M555.03,337.45c0-1.3-.03-2.37-.1-3.41h2.03l.13,2.08h.05c.62-1.2,2.08-2.37,4.16-2.37,1.74,0,4.45,1.04,4.45,5.36v7.51h-2.29v-7.25c0-2.03-.75-3.72-2.91-3.72-1.51,0-2.68,1.07-3.07,2.34-.1.29-.16.68-.16,1.07v7.57h-2.29v-9.18Z"/>
      <path class="cls-2" d="M580.84,340.23c0,4.65-3.22,6.68-6.27,6.68-3.41,0-6.03-2.5-6.03-6.47,0-4.21,2.76-6.68,6.24-6.68s6.06,2.63,6.06,6.47ZM570.86,340.36c0,2.76,1.59,4.84,3.82,4.84s3.82-2.05,3.82-4.89c0-2.13-1.07-4.84-3.77-4.84s-3.88,2.5-3.88,4.89Z"/>
      <path class="cls-2" d="M583.73,337.45c0-1.3-.03-2.37-.1-3.41h2l.1,2.03h.08c.7-1.2,1.87-2.31,3.95-2.31,1.72,0,3.02,1.04,3.56,2.52h.05c.39-.7.88-1.25,1.4-1.64.75-.57,1.59-.88,2.78-.88,1.66,0,4.13,1.09,4.13,5.46v7.41h-2.24v-7.12c0-2.42-.88-3.87-2.73-3.87-1.3,0-2.31.96-2.7,2.08-.1.31-.18.73-.18,1.14v7.77h-2.24v-7.54c0-2-.88-3.46-2.63-3.46-1.43,0-2.47,1.14-2.83,2.29-.13.34-.18.73-.18,1.12v7.59h-2.24v-9.18Z"/>
      <path class="cls-2" d="M605.31,346.63c.05-.86.1-2.13.1-3.25v-15.21h2.26v7.9h.05c.81-1.4,2.26-2.31,4.29-2.31,3.12,0,5.33,2.6,5.3,6.42,0,4.5-2.83,6.73-5.64,6.73-1.82,0-3.28-.7-4.21-2.37h-.08l-.1,2.08h-1.98ZM607.68,341.58c0,.29.05.57.1.83.44,1.59,1.77,2.68,3.43,2.68,2.39,0,3.82-1.95,3.82-4.84,0-2.52-1.3-4.68-3.74-4.68-1.56,0-3.02,1.07-3.48,2.81-.05.26-.13.57-.13.94v2.26Z"/>
      <path class="cls-2" d="M620.21,337.97c0-1.48-.03-2.76-.1-3.93h2l.08,2.47h.1c.57-1.69,1.95-2.76,3.48-2.76.26,0,.44.03.65.08v2.16c-.23-.05-.47-.08-.78-.08-1.61,0-2.76,1.22-3.07,2.94-.05.31-.1.68-.1,1.07v6.71h-2.26v-8.66Z"/>
      <path class="cls-2" d="M631.36,330.51c.03.78-.55,1.4-1.46,1.4-.81,0-1.38-.62-1.38-1.4s.6-1.43,1.43-1.43,1.4.62,1.4,1.43ZM628.81,346.63v-12.58h2.29v12.58h-2.29Z"/>
      <path class="cls-2" d="M634.9,328.17h2.29v18.46h-2.29v-18.46Z"/>
    </g>
    <g>
      <path class="cls-1" d="M621.42,558.24h2.29v7.85h.05c.36-.65.94-1.22,1.64-1.61.68-.39,1.48-.65,2.34-.65,1.69,0,4.39,1.04,4.39,5.38v7.49h-2.29v-7.23c0-2.03-.75-3.74-2.91-3.74-1.48,0-2.65,1.04-3.07,2.29-.13.31-.16.65-.16,1.09v7.59h-2.29v-18.46Z"/>
      <path class="cls-1" d="M642.82,576.7l-.18-1.59h-.08c-.7.99-2.05,1.87-3.85,1.87-2.55,0-3.85-1.79-3.85-3.61,0-3.04,2.7-4.71,7.57-4.68v-.26c0-1.04-.29-2.91-2.86-2.91-1.17,0-2.39.36-3.28.94l-.52-1.51c1.04-.68,2.55-1.12,4.13-1.12,3.85,0,4.78,2.63,4.78,5.15v4.71c0,1.09.05,2.16.21,3.02h-2.08ZM642.48,570.28c-2.5-.05-5.33.39-5.33,2.83,0,1.48.99,2.18,2.16,2.18,1.64,0,2.68-1.04,3.04-2.11.08-.23.13-.49.13-.73v-2.18Z"/>
      <path class="cls-1" d="M648.38,567.52c0-1.3-.03-2.37-.1-3.41h2.03l.13,2.08h.05c.62-1.2,2.08-2.37,4.16-2.37,1.74,0,4.45,1.04,4.45,5.36v7.51h-2.29v-7.25c0-2.03-.75-3.72-2.91-3.72-1.51,0-2.68,1.07-3.07,2.34-.1.29-.16.68-.16,1.07v7.57h-2.29v-9.18Z"/>
      <path class="cls-1" d="M673.68,558.24v15.21c0,1.12.03,2.39.1,3.25h-2.05l-.1-2.18h-.05c-.7,1.4-2.24,2.47-4.29,2.47-3.04,0-5.38-2.57-5.38-6.4-.03-4.19,2.57-6.76,5.64-6.76,1.92,0,3.22.91,3.8,1.92h.05v-7.51h2.29ZM671.39,569.24c0-.29-.03-.68-.1-.96-.34-1.46-1.59-2.65-3.3-2.65-2.37,0-3.77,2.08-3.77,4.86,0,2.55,1.25,4.65,3.72,4.65,1.53,0,2.94-1.01,3.35-2.73.08-.31.1-.62.1-.99v-2.18Z"/>
      <path class="cls-1" d="M619.52,579.95v-1.3h56.06v1.3h-56.06Z"/>
      <path class="cls-2" d="M621.42,589.44h2.29v18.46h-2.29v-18.46Z"/>
      <path class="cls-2" d="M634.52,607.9l-.18-1.59h-.08c-.7.99-2.05,1.87-3.85,1.87-2.55,0-3.85-1.79-3.85-3.61,0-3.04,2.7-4.71,7.57-4.68v-.26c0-1.04-.29-2.91-2.86-2.91-1.17,0-2.39.36-3.28.94l-.52-1.51c1.04-.68,2.55-1.12,4.13-1.12,3.85,0,4.78,2.63,4.78,5.15v4.71c0,1.09.05,2.16.21,3.02h-2.08ZM634.18,601.48c-2.5-.05-5.33.39-5.33,2.83,0,1.48.99,2.18,2.16,2.18,1.64,0,2.68-1.04,3.04-2.11.08-.23.13-.49.13-.73v-2.18Z"/>
      <path class="cls-2" d="M645.6,598.72c0-1.3-.03-2.37-.1-3.41h2l.1,2.03h.08c.7-1.2,1.87-2.31,3.95-2.31,1.72,0,3.02,1.04,3.56,2.52h.05c.39-.7.88-1.25,1.4-1.64.75-.57,1.59-.88,2.78-.88,1.66,0,4.13,1.09,4.13,5.46v7.41h-2.24v-7.12c0-2.42-.88-3.87-2.73-3.87-1.3,0-2.31.96-2.7,2.08-.1.31-.18.73-.18,1.14v7.77h-2.24v-7.54c0-2-.88-3.46-2.63-3.46-1.43,0-2.47,1.14-2.83,2.29-.13.34-.18.73-.18,1.12v7.59h-2.24v-9.18Z"/>
      <path class="cls-2" d="M674.25,607.9l-.18-1.59h-.08c-.7.99-2.05,1.87-3.85,1.87-2.55,0-3.85-1.79-3.85-3.61,0-3.04,2.7-4.71,7.57-4.68v-.26c0-1.04-.29-2.91-2.86-2.91-1.17,0-2.39.36-3.28.94l-.52-1.51c1.04-.68,2.55-1.12,4.13-1.12,3.85,0,4.78,2.63,4.78,5.15v4.71c0,1.09.05,2.16.21,3.02h-2.08ZM673.91,601.48c-2.5-.05-5.33.39-5.33,2.83,0,1.48.99,2.18,2.16,2.18,1.64,0,2.68-1.04,3.04-2.11.08-.23.13-.49.13-.73v-2.18Z"/>
      <path class="cls-2" d="M682.36,591.78c.03.78-.55,1.4-1.46,1.4-.81,0-1.38-.62-1.38-1.4s.6-1.43,1.43-1.43,1.4.62,1.4,1.43ZM679.81,607.9v-12.58h2.29v12.58h-2.29Z"/>
      <path class="cls-2" d="M685.9,598.72c0-1.3-.03-2.37-.1-3.41h2.03l.13,2.08h.05c.62-1.2,2.08-2.37,4.16-2.37,1.74,0,4.45,1.04,4.45,5.36v7.51h-2.29v-7.25c0-2.03-.75-3.72-2.91-3.72-1.51,0-2.68,1.07-3.07,2.34-.1.29-.16.68-.16,1.07v7.57h-2.29v-9.18Z"/>
    </g>
    <g>
      <path class="cls-1" d="M517.4,948.27v-10.84h-1.77v-1.74h1.77v-.6c0-1.77.39-3.38,1.46-4.39.86-.83,2-1.17,3.07-1.17.81,0,1.51.18,1.95.36l-.31,1.77c-.34-.16-.81-.29-1.46-.29-1.95,0-2.44,1.72-2.44,3.64v.68h3.04v1.74h-3.04v10.84h-2.26Z"/>
      <path class="cls-1" d="M535.81,941.87c0,4.65-3.22,6.68-6.27,6.68-3.41,0-6.03-2.5-6.03-6.47,0-4.21,2.76-6.68,6.24-6.68s6.06,2.63,6.06,6.47ZM525.83,942c0,2.76,1.59,4.84,3.82,4.84s3.82-2.05,3.82-4.89c0-2.13-1.07-4.84-3.77-4.84s-3.88,2.5-3.88,4.89Z"/>
      <path class="cls-1" d="M550.08,941.87c0,4.65-3.22,6.68-6.27,6.68-3.41,0-6.03-2.5-6.03-6.47,0-4.21,2.76-6.68,6.24-6.68s6.06,2.63,6.06,6.47ZM540.1,942c0,2.76,1.59,4.84,3.82,4.84s3.82-2.05,3.82-4.89c0-2.13-1.07-4.84-3.77-4.84s-3.87,2.5-3.87,4.89Z"/>
      <path class="cls-1" d="M555.73,932.07v3.61h3.28v1.74h-3.28v6.79c0,1.56.44,2.44,1.72,2.44.6,0,1.04-.08,1.33-.16l.1,1.72c-.44.18-1.14.31-2.03.31-1.07,0-1.92-.34-2.47-.96-.65-.68-.88-1.79-.88-3.28v-6.86h-1.95v-1.74h1.95v-3.02l2.24-.6Z"/>
      <path class="cls-1" d="M515.27,951.52v-1.3h44.41v1.3h-44.41Z"/>
      <path class="cls-2" d="M517.17,961.01h2.29v18.46h-2.29v-18.46Z"/>
      <path class="cls-2" d="M524.58,973.59c.05,3.09,2.03,4.37,4.32,4.37,1.64,0,2.63-.29,3.48-.65l.39,1.64c-.81.36-2.18.78-4.19.78-3.87,0-6.19-2.55-6.19-6.34s2.24-6.79,5.9-6.79c4.11,0,5.2,3.61,5.2,5.93,0,.47-.05.83-.08,1.07h-8.84ZM531.29,971.96c.03-1.46-.6-3.72-3.17-3.72-2.31,0-3.33,2.13-3.51,3.72h6.68Z"/>
      <path class="cls-2" d="M541.84,970.99c0-1.61-.05-2.91-.1-4.11h2.05l.1,2.16h.05c.94-1.53,2.42-2.44,4.47-2.44,3.04,0,5.33,2.57,5.33,6.4,0,4.52-2.76,6.76-5.72,6.76-1.66,0-3.12-.73-3.87-1.98h-.05v6.84h-2.26v-13.62ZM544.1,974.35c0,.34.05.65.1.94.42,1.59,1.79,2.68,3.43,2.68,2.42,0,3.82-1.98,3.82-4.86,0-2.52-1.33-4.68-3.74-4.68-1.56,0-3.02,1.12-3.46,2.83-.08.29-.16.62-.16.94v2.16Z"/>
      <path class="cls-2" d="M559.18,963.35c.03.78-.55,1.4-1.46,1.4-.81,0-1.38-.62-1.38-1.4s.6-1.43,1.43-1.43,1.4.62,1.4,1.43ZM556.63,979.47v-12.58h2.29v12.58h-2.29Z"/>
      <path class="cls-2" d="M563.99,973.59c.05,3.09,2.03,4.37,4.32,4.37,1.64,0,2.63-.29,3.48-.65l.39,1.64c-.81.36-2.18.78-4.19.78-3.88,0-6.19-2.55-6.19-6.34s2.24-6.79,5.9-6.79c4.11,0,5.2,3.61,5.2,5.93,0,.47-.05.83-.08,1.07h-8.84ZM570.7,971.96c.03-1.46-.6-3.72-3.17-3.72-2.31,0-3.33,2.13-3.51,3.72h6.68Z"/>
      <path class="cls-2" d="M586.61,961.01v15.21c0,1.12.03,2.39.1,3.25h-2.05l-.1-2.18h-.05c-.7,1.4-2.24,2.47-4.29,2.47-3.04,0-5.38-2.57-5.38-6.4-.03-4.19,2.57-6.76,5.64-6.76,1.92,0,3.22.91,3.8,1.92h.05v-7.51h2.29ZM584.32,972.01c0-.29-.03-.68-.1-.96-.34-1.46-1.59-2.65-3.3-2.65-2.37,0-3.77,2.08-3.77,4.86,0,2.55,1.25,4.65,3.72,4.65,1.53,0,2.94-1.01,3.35-2.73.08-.31.1-.62.1-.99v-2.18Z"/>
    </g>
    <g>
      <path class="cls-1" d="M495.1,827.9c.68.44,1.87.91,3.02.91,1.66,0,2.44-.83,2.44-1.87,0-1.09-.65-1.69-2.34-2.31-2.26-.81-3.33-2.05-3.33-3.56,0-2.03,1.64-3.69,4.34-3.69,1.27,0,2.39.36,3.09.78l-.57,1.66c-.49-.31-1.4-.73-2.57-.73-1.35,0-2.11.78-2.11,1.72,0,1.04.75,1.51,2.39,2.13,2.18.83,3.3,1.92,3.3,3.8,0,2.21-1.72,3.77-4.71,3.77-1.38,0-2.65-.34-3.54-.86l.57-1.74Z"/>
      <path class="cls-1" d="M505.71,811.78h2.29v7.85h.05c.36-.65.94-1.22,1.64-1.61.68-.39,1.48-.65,2.34-.65,1.69,0,4.39,1.04,4.39,5.38v7.49h-2.29v-7.23c0-2.03-.75-3.74-2.91-3.74-1.48,0-2.65,1.04-3.07,2.29-.13.31-.16.65-.16,1.09v7.59h-2.29v-18.46Z"/>
      <path class="cls-1" d="M522.69,814.12c.03.78-.55,1.4-1.46,1.4-.81,0-1.38-.62-1.38-1.4s.6-1.43,1.43-1.43,1.4.62,1.4,1.43ZM520.14,830.24v-12.58h2.29v12.58h-2.29Z"/>
      <path class="cls-1" d="M526.22,821.06c0-1.3-.03-2.37-.1-3.41h2.03l.13,2.08h.05c.62-1.2,2.08-2.37,4.16-2.37,1.74,0,4.45,1.04,4.45,5.36v7.51h-2.29v-7.25c0-2.03-.75-3.72-2.91-3.72-1.51,0-2.68,1.07-3.07,2.34-.1.29-.16.68-.16,1.07v7.57h-2.29v-9.18Z"/>
      <path class="cls-1" d="M493.52,833.49v-1.3h45.24v1.3h-45.24Z"/>
      <path class="cls-2" d="M495.42,842.98h2.29v18.46h-2.29v-18.46Z"/>
      <path class="cls-2" d="M502.82,855.56c.05,3.09,2.03,4.37,4.32,4.37,1.64,0,2.63-.29,3.48-.65l.39,1.64c-.81.36-2.18.78-4.19.78-3.87,0-6.19-2.55-6.19-6.34s2.24-6.79,5.9-6.79c4.11,0,5.2,3.61,5.2,5.93,0,.47-.05.83-.08,1.07h-8.84ZM509.53,853.93c.03-1.46-.6-3.72-3.17-3.72-2.31,0-3.33,2.13-3.51,3.72h6.68Z"/>
      <path class="cls-2" d="M522.84,845.24v3.61h3.28v1.74h-3.28v6.79c0,1.56.44,2.44,1.72,2.44.6,0,1.04-.08,1.33-.16l.1,1.72c-.44.18-1.14.31-2.03.31-1.07,0-1.92-.34-2.47-.96-.65-.68-.88-1.79-.88-3.28v-6.86h-1.95v-1.74h1.95v-3.02l2.24-.6Z"/>
      <path class="cls-2" d="M531.24,845.32c.03.78-.55,1.4-1.46,1.4-.81,0-1.38-.62-1.38-1.4s.6-1.43,1.43-1.43,1.4.62,1.4,1.43ZM528.69,861.44v-12.58h2.29v12.58h-2.29Z"/>
      <path class="cls-2" d="M534.67,861.44c.05-.86.1-2.13.1-3.25v-15.21h2.26v7.9h.05c.81-1.4,2.26-2.31,4.29-2.31,3.12,0,5.33,2.6,5.3,6.42,0,4.5-2.83,6.73-5.64,6.73-1.82,0-3.28-.7-4.21-2.37h-.08l-.1,2.08h-1.98ZM537.04,856.4c0,.29.05.57.1.83.44,1.59,1.77,2.68,3.43,2.68,2.39,0,3.82-1.95,3.82-4.84,0-2.52-1.3-4.68-3.74-4.68-1.56,0-3.02,1.07-3.48,2.81-.05.26-.13.57-.13.94v2.26Z"/>
      <path class="cls-2" d="M552.12,845.32c.03.78-.55,1.4-1.46,1.4-.81,0-1.38-.62-1.38-1.4s.6-1.43,1.43-1.43,1.4.62,1.4,1.43ZM549.57,861.44v-12.58h2.29v12.58h-2.29Z"/>
      <path class="cls-2" d="M562.62,861.44l-.18-1.59h-.08c-.7.99-2.05,1.87-3.85,1.87-2.55,0-3.85-1.79-3.85-3.61,0-3.04,2.7-4.71,7.57-4.68v-.26c0-1.04-.29-2.91-2.86-2.91-1.17,0-2.39.36-3.28.94l-.52-1.51c1.04-.68,2.55-1.12,4.13-1.12,3.85,0,4.78,2.63,4.78,5.15v4.71c0,1.09.05,2.16.21,3.02h-2.08ZM562.29,855.02c-2.5-.05-5.33.39-5.33,2.83,0,1.48.99,2.18,2.16,2.18,1.64,0,2.68-1.04,3.04-2.11.08-.23.13-.49.13-.73v-2.18Z"/>
    </g>
    <g>
      <path class="cls-1" d="M112.53,948.27l-.18-1.59h-.08c-.7.99-2.05,1.87-3.85,1.87-2.55,0-3.85-1.79-3.85-3.61,0-3.04,2.7-4.71,7.57-4.68v-.26c0-1.04-.29-2.91-2.86-2.91-1.17,0-2.39.36-3.28.94l-.52-1.51c1.04-.68,2.55-1.12,4.13-1.12,3.85,0,4.78,2.63,4.78,5.15v4.71c0,1.09.05,2.16.21,3.02h-2.08ZM112.19,941.85c-2.5-.05-5.33.39-5.33,2.83,0,1.48.99,2.18,2.16,2.18,1.64,0,2.68-1.04,3.04-2.11.08-.23.13-.49.13-.73v-2.18Z"/>
      <path class="cls-1" d="M118.1,939.09c0-1.3-.03-2.37-.1-3.41h2.03l.13,2.08h.05c.62-1.2,2.08-2.37,4.16-2.37,1.74,0,4.45,1.04,4.45,5.36v7.51h-2.29v-7.25c0-2.03-.75-3.72-2.91-3.72-1.51,0-2.68,1.07-3.07,2.34-.1.29-.16.68-.16,1.07v7.57h-2.29v-9.18Z"/>
      <path class="cls-1" d="M134.79,941.46h.05c.31-.44.75-.99,1.12-1.43l3.69-4.34h2.76l-4.86,5.17,5.54,7.41h-2.78l-4.34-6.03-1.17,1.3v4.73h-2.26v-18.46h2.26v11.65Z"/>
      <path class="cls-1" d="M145.16,929.81h2.29v18.46h-2.29v-18.46Z"/>
      <path class="cls-1" d="M152.57,942.39c.05,3.09,2.03,4.37,4.32,4.37,1.64,0,2.63-.29,3.48-.65l.39,1.64c-.81.36-2.18.78-4.19.78-3.87,0-6.19-2.55-6.19-6.34s2.24-6.79,5.9-6.79c4.11,0,5.2,3.61,5.2,5.93,0,.47-.05.83-.08,1.07h-8.84ZM159.28,940.76c.03-1.46-.6-3.72-3.17-3.72-2.31,0-3.33,2.13-3.51,3.72h6.68Z"/>
      <path class="cls-1" d="M103.67,951.52v-1.3h58.76v1.3h-58.76Z"/>
      <path class="cls-2" d="M105.56,961.01h2.29v18.46h-2.29v-18.46Z"/>
      <path class="cls-2" d="M118.67,979.47l-.18-1.59h-.08c-.7.99-2.05,1.87-3.85,1.87-2.55,0-3.85-1.79-3.85-3.61,0-3.04,2.7-4.71,7.57-4.68v-.26c0-1.04-.29-2.91-2.86-2.91-1.17,0-2.39.36-3.28.94l-.52-1.51c1.04-.68,2.55-1.12,4.13-1.12,3.85,0,4.78,2.63,4.78,5.15v4.71c0,1.09.05,2.16.21,3.02h-2.08ZM118.33,973.05c-2.5-.05-5.33.39-5.33,2.83,0,1.48.99,2.18,2.16,2.18,1.64,0,2.68-1.04,3.04-2.11.08-.23.13-.49.13-.73v-2.18Z"/>
      <path class="cls-2" d="M138.71,979c-.6.31-1.92.73-3.61.73-3.8,0-6.27-2.57-6.27-6.42s2.65-6.68,6.76-6.68c1.35,0,2.55.34,3.17.65l-.52,1.77c-.55-.31-1.4-.6-2.65-.6-2.89,0-4.45,2.13-4.45,4.76,0,2.91,1.87,4.71,4.37,4.71,1.3,0,2.16-.34,2.81-.62l.39,1.72Z"/>
      <path class="cls-2" d="M141.39,961.01h2.29v7.85h.05c.36-.65.94-1.22,1.64-1.61.68-.39,1.48-.65,2.34-.65,1.69,0,4.39,1.04,4.39,5.38v7.49h-2.29v-7.23c0-2.03-.75-3.74-2.91-3.74-1.48,0-2.65,1.04-3.07,2.29-.13.31-.16.65-.16,1.09v7.59h-2.29v-18.46Z"/>
      <path class="cls-2" d="M157.09,973.59c.05,3.09,2.03,4.37,4.32,4.37,1.64,0,2.63-.29,3.48-.65l.39,1.64c-.81.36-2.18.78-4.19.78-3.87,0-6.19-2.55-6.19-6.34s2.24-6.79,5.9-6.79c4.11,0,5.2,3.61,5.2,5.93,0,.47-.05.83-.08,1.07h-8.84ZM163.8,971.96c.03-1.46-.6-3.72-3.17-3.72-2.31,0-3.33,2.13-3.51,3.72h6.68Z"/>
      <path class="cls-2" d="M169.73,966.89l2.47,7.07c.42,1.14.75,2.18,1.01,3.22h.08c.29-1.04.65-2.08,1.07-3.22l2.44-7.07h2.39l-4.94,12.58h-2.18l-4.78-12.58h2.44Z"/>
      <path class="cls-2" d="M183.9,963.35c.03.78-.55,1.4-1.46,1.4-.81,0-1.38-.62-1.38-1.4s.6-1.43,1.43-1.43,1.4.62,1.4,1.43ZM181.35,979.47v-12.58h2.29v12.58h-2.29Z"/>
      <path class="cls-2" d="M187.44,961.01h2.29v18.46h-2.29v-18.46Z"/>
      <path class="cls-2" d="M193.57,961.01h2.29v18.46h-2.29v-18.46Z"/>
      <path class="cls-2" d="M200.98,973.59c.05,3.09,2.03,4.37,4.32,4.37,1.64,0,2.63-.29,3.48-.65l.39,1.64c-.81.36-2.18.78-4.19.78-3.88,0-6.19-2.55-6.19-6.34s2.24-6.79,5.9-6.79c4.11,0,5.2,3.61,5.2,5.93,0,.47-.05.83-.08,1.07h-8.84ZM207.69,971.96c.03-1.46-.6-3.72-3.17-3.72-2.31,0-3.33,2.13-3.51,3.72h6.68Z"/>
    </g>
    <g>
      <path class="cls-1" d="M515.09,721.2h.05c.31-.44.75-.99,1.12-1.43l3.69-4.34h2.76l-4.86,5.17,5.54,7.41h-2.78l-4.34-6.03-1.17,1.3v4.73h-2.26v-18.46h2.26v11.65Z"/>
      <path class="cls-1" d="M525.46,718.84c0-1.3-.03-2.37-.1-3.41h2.03l.13,2.08h.05c.62-1.2,2.08-2.37,4.16-2.37,1.74,0,4.45,1.04,4.45,5.36v7.51h-2.29v-7.25c0-2.03-.75-3.72-2.91-3.72-1.51,0-2.68,1.07-3.07,2.34-.1.29-.16.68-.16,1.07v7.57h-2.29v-9.18Z"/>
      <path class="cls-1" d="M541.16,722.14c.05,3.09,2.03,4.37,4.32,4.37,1.64,0,2.63-.29,3.48-.65l.39,1.64c-.81.36-2.18.78-4.19.78-3.87,0-6.19-2.55-6.19-6.34s2.24-6.79,5.9-6.79c4.11,0,5.2,3.61,5.2,5.93,0,.47-.05.83-.08,1.07h-8.84ZM547.87,720.5c.03-1.46-.6-3.72-3.17-3.72-2.31,0-3.33,2.13-3.51,3.72h6.68Z"/>
      <path class="cls-1" d="M554.19,722.14c.05,3.09,2.03,4.37,4.32,4.37,1.64,0,2.63-.29,3.48-.65l.39,1.64c-.81.36-2.18.78-4.19.78-3.88,0-6.19-2.55-6.19-6.34s2.24-6.79,5.9-6.79c4.11,0,5.2,3.61,5.2,5.93,0,.47-.05.83-.08,1.07h-8.84ZM560.9,720.5c.03-1.46-.6-3.72-3.17-3.72-2.31,0-3.33,2.13-3.51,3.72h6.68Z"/>
      <path class="cls-1" d="M510.93,731.26v-1.3h53.12v1.3h-53.12Z"/>
      <path class="cls-2" d="M512.82,740.75h2.29v18.46h-2.29v-18.46Z"/>
      <path class="cls-2" d="M520.23,753.34c.05,3.09,2.03,4.37,4.32,4.37,1.64,0,2.63-.29,3.48-.65l.39,1.64c-.81.36-2.18.78-4.19.78-3.87,0-6.19-2.55-6.19-6.34s2.24-6.79,5.9-6.79c4.11,0,5.2,3.61,5.2,5.93,0,.47-.05.83-.08,1.07h-8.84ZM526.94,751.7c.03-1.46-.6-3.72-3.17-3.72-2.31,0-3.33,2.13-3.51,3.72h6.68Z"/>
      <path class="cls-2" d="M548.34,746.63c-.05.91-.1,1.92-.1,3.46v7.31c0,2.89-.57,4.65-1.79,5.75-1.22,1.14-2.99,1.51-4.58,1.51s-3.17-.36-4.19-1.04l.57-1.74c.83.52,2.13.99,3.69.99,2.34,0,4.06-1.22,4.06-4.39v-1.4h-.05c-.7,1.17-2.05,2.11-4,2.11-3.12,0-5.36-2.65-5.36-6.14,0-4.26,2.78-6.68,5.67-6.68,2.18,0,3.38,1.14,3.93,2.18h.05l.1-1.9h2ZM545.97,751.6c0-.39-.03-.73-.13-1.04-.42-1.33-1.53-2.42-3.2-2.42-2.18,0-3.74,1.85-3.74,4.76,0,2.47,1.25,4.52,3.72,4.52,1.4,0,2.68-.88,3.17-2.34.13-.39.18-.83.18-1.22v-2.26Z"/>
      <path class="cls-2" d="M553.3,753.34c.05,3.09,2.03,4.37,4.32,4.37,1.64,0,2.63-.29,3.48-.65l.39,1.64c-.81.36-2.18.78-4.19.78-3.88,0-6.19-2.55-6.19-6.34s2.24-6.79,5.9-6.79c4.11,0,5.2,3.61,5.2,5.93,0,.47-.05.83-.08,1.07h-8.84ZM560.01,751.7c.03-1.46-.6-3.72-3.17-3.72-2.31,0-3.33,2.13-3.51,3.72h6.68Z"/>
      <path class="cls-2" d="M565.06,750.04c0-1.3-.03-2.37-.1-3.41h2.03l.13,2.08h.05c.62-1.2,2.08-2.37,4.16-2.37,1.74,0,4.45,1.04,4.45,5.36v7.51h-2.29v-7.25c0-2.03-.75-3.72-2.91-3.72-1.51,0-2.68,1.07-3.07,2.34-.1.29-.16.68-.16,1.07v7.57h-2.29v-9.18Z"/>
      <path class="cls-2" d="M590.88,752.82c0,4.65-3.22,6.68-6.27,6.68-3.41,0-6.03-2.5-6.03-6.47,0-4.21,2.76-6.68,6.24-6.68s6.06,2.63,6.06,6.47ZM580.89,752.95c0,2.76,1.59,4.84,3.82,4.84s3.82-2.05,3.82-4.89c0-2.13-1.07-4.84-3.77-4.84s-3.87,2.5-3.87,4.89Z"/>
      <path class="cls-2" d="M604.29,755.78c0,1.3.03,2.44.1,3.43h-2.03l-.13-2.05h-.05c-.6,1.01-1.92,2.34-4.16,2.34-1.98,0-4.34-1.09-4.34-5.51v-7.36h2.29v6.97c0,2.39.73,4,2.81,4,1.53,0,2.6-1.07,3.02-2.08.13-.34.21-.75.21-1.17v-7.72h2.29v9.15Z"/>
    </g>
    <g>
      <path class="cls-1" d="M539.3,630.94c-.05.91-.1,1.92-.1,3.46v7.31c0,2.89-.57,4.65-1.79,5.75-1.22,1.14-2.99,1.51-4.58,1.51s-3.17-.36-4.19-1.04l.57-1.74c.83.52,2.13.99,3.69.99,2.34,0,4.06-1.22,4.06-4.39v-1.4h-.05c-.7,1.17-2.05,2.11-4,2.11-3.12,0-5.36-2.65-5.36-6.14,0-4.26,2.78-6.68,5.67-6.68,2.18,0,3.38,1.14,3.93,2.18h.05l.1-1.9h2ZM536.93,635.91c0-.39-.03-.73-.13-1.04-.42-1.33-1.53-2.42-3.2-2.42-2.18,0-3.74,1.85-3.74,4.76,0,2.47,1.25,4.52,3.72,4.52,1.4,0,2.68-.88,3.17-2.34.13-.39.18-.83.18-1.22v-2.26Z"/>
      <path class="cls-1" d="M542.83,634.87c0-1.48-.03-2.76-.1-3.93h2l.08,2.47h.1c.57-1.69,1.95-2.76,3.48-2.76.26,0,.44.03.65.08v2.16c-.23-.05-.47-.08-.78-.08-1.61,0-2.76,1.22-3.07,2.94-.05.31-.1.68-.1,1.07v6.71h-2.26v-8.66Z"/>
      <path class="cls-1" d="M562.46,637.13c0,4.65-3.22,6.68-6.27,6.68-3.41,0-6.03-2.5-6.03-6.47,0-4.21,2.76-6.68,6.24-6.68s6.06,2.63,6.06,6.47ZM552.48,637.26c0,2.76,1.59,4.84,3.82,4.84s3.82-2.05,3.82-4.89c0-2.13-1.07-4.84-3.77-4.84s-3.87,2.5-3.87,4.89Z"/>
      <path class="cls-1" d="M567.9,627.4c.03.78-.55,1.4-1.46,1.4-.81,0-1.38-.62-1.38-1.4s.6-1.43,1.43-1.43,1.4.62,1.4,1.43ZM565.35,643.52v-12.58h2.29v12.58h-2.29Z"/>
      <path class="cls-1" d="M571.43,634.35c0-1.3-.03-2.37-.1-3.41h2.03l.13,2.08h.05c.62-1.2,2.08-2.37,4.16-2.37,1.74,0,4.45,1.04,4.45,5.36v7.51h-2.29v-7.25c0-2.03-.75-3.72-2.91-3.72-1.51,0-2.68,1.07-3.07,2.34-.1.29-.16.68-.16,1.07v7.57h-2.29v-9.18Z"/>
      <path class="cls-1" d="M526.56,646.77v-1.3h57.41v1.3h-57.41Z"/>
      <path class="cls-2" d="M528.46,656.26h2.29v18.46h-2.29v-18.46Z"/>
      <path class="cls-2" d="M537.63,656.91c-.6,2.18-1.72,4.97-2.44,6.16l-1.46.18c.57-1.53,1.25-4.24,1.53-6.11l2.37-.23Z"/>
      <path class="cls-2" d="M546.63,674.72l-.18-1.59h-.08c-.7.99-2.05,1.87-3.85,1.87-2.55,0-3.85-1.79-3.85-3.61,0-3.04,2.7-4.71,7.57-4.68v-.26c0-1.04-.29-2.91-2.86-2.91-1.17,0-2.39.36-3.28.94l-.52-1.51c1.04-.68,2.55-1.12,4.13-1.12,3.85,0,4.78,2.63,4.78,5.15v4.71c0,1.09.05,2.16.21,3.02h-2.08ZM546.29,668.3c-2.5-.05-5.33.39-5.33,2.83,0,1.48.99,2.18,2.16,2.18,1.64,0,2.68-1.04,3.04-2.11.08-.23.13-.49.13-.73v-2.18Z"/>
      <path class="cls-2" d="M554.74,658.6c.03.78-.55,1.4-1.46,1.4-.81,0-1.38-.62-1.38-1.4s.6-1.43,1.43-1.43,1.4.62,1.4,1.43ZM552.19,674.72v-12.58h2.29v12.58h-2.29Z"/>
      <path class="cls-2" d="M558.28,665.55c0-1.3-.03-2.37-.1-3.41h2.03l.13,2.08h.05c.62-1.2,2.08-2.37,4.16-2.37,1.74,0,4.45,1.04,4.45,5.36v7.51h-2.29v-7.25c0-2.03-.75-3.72-2.91-3.72-1.51,0-2.68,1.07-3.07,2.34-.1.29-.16.68-.16,1.07v7.57h-2.29v-9.18Z"/>
      <path class="cls-2" d="M573.98,668.85c.05,3.09,2.03,4.37,4.32,4.37,1.64,0,2.63-.29,3.48-.65l.39,1.64c-.81.36-2.18.78-4.19.78-3.87,0-6.19-2.55-6.19-6.34s2.24-6.79,5.9-6.79c4.11,0,5.2,3.61,5.2,5.93,0,.47-.05.83-.08,1.07h-8.84ZM580.69,667.21c.03-1.46-.6-3.72-3.17-3.72-2.31,0-3.33,2.13-3.51,3.72h6.68Z"/>
      <path class="cls-2" d="M585.47,662.72v-8.34h-1.36v-1.34h1.36v-.46c0-1.36.3-2.6,1.12-3.38.66-.64,1.54-.9,2.36-.9.62,0,1.16.14,1.5.28l-.24,1.36c-.26-.12-.62-.22-1.12-.22-1.5,0-1.88,1.32-1.88,2.8v.52h2.34v1.34h-2.34v8.34h-1.74Z"/>
    </g>
    <g>
      <path class="cls-1" d="M31.61,585.37v3.61h3.28v1.74h-3.28v6.79c0,1.56.44,2.44,1.72,2.44.6,0,1.04-.08,1.33-.16l.1,1.72c-.44.18-1.14.31-2.03.31-1.07,0-1.92-.34-2.47-.96-.65-.68-.88-1.79-.88-3.28v-6.86h-1.95v-1.74h1.95v-3.02l2.24-.6Z"/>
      <path class="cls-1" d="M37.46,583.11h2.29v7.85h.05c.37-.65.94-1.22,1.64-1.61.68-.39,1.48-.65,2.34-.65,1.69,0,4.39,1.04,4.39,5.38v7.49h-2.29v-7.23c0-2.03-.75-3.74-2.91-3.74-1.48,0-2.65,1.04-3.07,2.29-.13.31-.15.65-.15,1.09v7.59h-2.29v-18.46Z"/>
      <path class="cls-1" d="M54.44,585.45c.03.78-.54,1.4-1.46,1.4-.81,0-1.38-.62-1.38-1.4s.6-1.43,1.43-1.43,1.4.62,1.4,1.43ZM51.89,601.57v-12.58h2.29v12.58h-2.29Z"/>
      <path class="cls-1" d="M68.81,588.99c-.05.91-.1,1.92-.1,3.46v7.31c0,2.89-.57,4.65-1.79,5.75-1.22,1.14-2.99,1.51-4.58,1.51s-3.17-.36-4.19-1.04l.57-1.74c.83.52,2.13.99,3.69.99,2.34,0,4.05-1.22,4.05-4.39v-1.4h-.05c-.7,1.17-2.05,2.11-4,2.11-3.12,0-5.36-2.65-5.36-6.14,0-4.26,2.78-6.68,5.67-6.68,2.19,0,3.38,1.14,3.93,2.18h.05l.1-1.9h2ZM66.45,593.96c0-.39-.03-.73-.13-1.04-.42-1.33-1.53-2.42-3.2-2.42-2.18,0-3.74,1.85-3.74,4.76,0,2.47,1.25,4.52,3.72,4.52,1.4,0,2.68-.88,3.17-2.34.13-.39.18-.83.18-1.22v-2.26Z"/>
      <path class="cls-1" d="M72.51,583.11h2.29v7.85h.05c.36-.65.94-1.22,1.64-1.61.68-.39,1.48-.65,2.34-.65,1.69,0,4.39,1.04,4.39,5.38v7.49h-2.29v-7.23c0-2.03-.75-3.74-2.91-3.74-1.48,0-2.65,1.04-3.07,2.29-.13.31-.16.65-.16,1.09v7.59h-2.29v-18.46Z"/>
      <path class="cls-1" d="M26.95,604.82v-1.3h58.08v1.3H26.95Z"/>
      <path class="cls-2" d="M28.85,614.31h2.29v18.46h-2.29v-18.46Z"/>
      <path class="cls-2" d="M41.96,632.77l-.18-1.59h-.08c-.7.99-2.05,1.87-3.85,1.87-2.55,0-3.85-1.79-3.85-3.61,0-3.04,2.7-4.71,7.57-4.68v-.26c0-1.04-.29-2.91-2.86-2.91-1.17,0-2.39.36-3.28.94l-.52-1.51c1.04-.68,2.55-1.12,4.13-1.12,3.85,0,4.79,2.63,4.79,5.15v4.71c0,1.09.05,2.16.21,3.02h-2.08ZM41.62,626.35c-2.5-.05-5.33.39-5.33,2.83,0,1.48.99,2.18,2.16,2.18,1.64,0,2.68-1.04,3.04-2.11.08-.23.13-.49.13-.73v-2.18Z"/>
      <path class="cls-2" d="M62,632.31c-.6.31-1.92.73-3.62.73-3.79,0-6.27-2.57-6.27-6.42s2.65-6.68,6.76-6.68c1.35,0,2.55.34,3.17.65l-.52,1.77c-.54-.31-1.4-.6-2.65-.6-2.88,0-4.45,2.13-4.45,4.76,0,2.91,1.87,4.71,4.37,4.71,1.3,0,2.16-.34,2.81-.62l.39,1.72Z"/>
      <path class="cls-2" d="M75.21,629.34c0,1.3.03,2.44.1,3.43h-2.03l-.13-2.05h-.05c-.6,1.01-1.92,2.34-4.16,2.34-1.98,0-4.34-1.09-4.34-5.51v-7.36h2.29v6.97c0,2.39.73,4,2.81,4,1.53,0,2.6-1.07,3.02-2.08.13-.34.21-.75.21-1.17v-7.72h2.29v9.15Z"/>
      <path class="cls-2" d="M81.55,616.65c.03.78-.54,1.4-1.46,1.4-.81,0-1.38-.62-1.38-1.4s.6-1.43,1.43-1.43,1.4.62,1.4,1.43ZM79.01,632.77v-12.58h2.29v12.58h-2.29Z"/>
      <path class="cls-2" d="M84.78,630.43c.68.44,1.87.91,3.02.91,1.66,0,2.44-.83,2.44-1.87,0-1.09-.65-1.69-2.34-2.31-2.26-.81-3.33-2.05-3.33-3.56,0-2.03,1.64-3.69,4.34-3.69,1.27,0,2.39.36,3.09.78l-.57,1.66c-.49-.31-1.4-.73-2.57-.73-1.35,0-2.11.78-2.11,1.72,0,1.04.75,1.51,2.39,2.13,2.19.83,3.3,1.92,3.3,3.8,0,2.21-1.72,3.77-4.71,3.77-1.38,0-2.65-.34-3.54-.86l.57-1.74Z"/>
      <path class="cls-2" d="M95.07,630.43c.68.44,1.87.91,3.02.91,1.66,0,2.44-.83,2.44-1.87,0-1.09-.65-1.69-2.34-2.31-2.26-.81-3.33-2.05-3.33-3.56,0-2.03,1.64-3.69,4.34-3.69,1.27,0,2.39.36,3.09.78l-.57,1.66c-.49-.31-1.4-.73-2.57-.73-1.35,0-2.11.78-2.11,1.72,0,1.04.75,1.51,2.39,2.13,2.18.83,3.3,1.92,3.3,3.8,0,2.21-1.72,3.77-4.71,3.77-1.38,0-2.65-.34-3.54-.86l.57-1.74Z"/>
      <path class="cls-2" d="M106.96,626.9c.05,3.09,2.03,4.37,4.32,4.37,1.64,0,2.62-.29,3.48-.65l.39,1.64c-.8.36-2.18.78-4.19.78-3.88,0-6.19-2.55-6.19-6.34s2.24-6.79,5.9-6.79c4.11,0,5.2,3.61,5.2,5.93,0,.47-.05.83-.08,1.07h-8.84ZM113.66,625.26c.03-1.46-.6-3.72-3.17-3.72-2.31,0-3.33,2.13-3.51,3.72h6.68Z"/>
    </g>
    <g>
      <path class="cls-1" d="M10.76,372.48l-.18-1.59h-.08c-.7.99-2.05,1.87-3.85,1.87-2.55,0-3.85-1.79-3.85-3.61,0-3.04,2.7-4.71,7.57-4.68v-.26c0-1.04-.29-2.91-2.86-2.91-1.17,0-2.39.36-3.28.94l-.52-1.51c1.04-.68,2.55-1.12,4.13-1.12,3.85,0,4.78,2.63,4.78,5.15v4.71c0,1.09.05,2.16.21,3.02h-2.08ZM10.43,366.05c-2.5-.05-5.33.39-5.33,2.83,0,1.48.99,2.18,2.16,2.18,1.64,0,2.68-1.04,3.04-2.11.08-.23.13-.49.13-.73v-2.18Z"/>
      <path class="cls-1" d="M16.22,372.48c.05-.86.1-2.13.1-3.25v-15.21h2.26v7.9h.05c.81-1.4,2.26-2.31,4.29-2.31,3.12,0,5.33,2.6,5.3,6.42,0,4.5-2.83,6.73-5.64,6.73-1.82,0-3.28-.7-4.21-2.37h-.08l-.1,2.08h-1.98ZM18.59,367.43c0,.29.05.57.1.83.44,1.59,1.77,2.68,3.43,2.68,2.39,0,3.82-1.95,3.82-4.84,0-2.52-1.3-4.68-3.74-4.68-1.56,0-3.02,1.07-3.48,2.81-.05.26-.13.57-.13.94v2.26Z"/>
      <path class="cls-1" d="M41.99,354.02v15.21c0,1.12.03,2.39.1,3.25h-2.05l-.1-2.18h-.05c-.7,1.4-2.24,2.47-4.29,2.47-3.04,0-5.38-2.57-5.38-6.4-.03-4.19,2.57-6.76,5.64-6.76,1.92,0,3.22.91,3.8,1.92h.05v-7.51h2.29ZM39.7,365.01c0-.29-.03-.68-.1-.96-.34-1.46-1.59-2.65-3.3-2.65-2.37,0-3.77,2.08-3.77,4.86,0,2.55,1.25,4.65,3.72,4.65,1.53,0,2.94-1.01,3.35-2.73.08-.31.1-.62.1-.99v-2.18Z"/>
      <path class="cls-1" d="M57.17,366.08c0,4.65-3.22,6.68-6.27,6.68-3.41,0-6.03-2.5-6.03-6.47,0-4.21,2.76-6.68,6.24-6.68s6.06,2.63,6.06,6.47ZM47.19,366.21c0,2.76,1.59,4.84,3.82,4.84s3.82-2.05,3.82-4.89c0-2.13-1.07-4.84-3.77-4.84s-3.87,2.5-3.87,4.89Z"/>
      <path class="cls-1" d="M60.06,363.3c0-1.3-.03-2.37-.1-3.41h2l.1,2.03h.08c.7-1.2,1.87-2.31,3.95-2.31,1.72,0,3.02,1.04,3.56,2.52h.05c.39-.7.88-1.25,1.4-1.64.75-.57,1.59-.88,2.78-.88,1.66,0,4.13,1.09,4.13,5.46v7.41h-2.24v-7.12c0-2.42-.88-3.87-2.73-3.87-1.3,0-2.31.96-2.7,2.08-.1.31-.18.73-.18,1.14v7.77h-2.24v-7.54c0-2-.88-3.46-2.63-3.46-1.43,0-2.47,1.14-2.83,2.29-.13.34-.18.73-.18,1.12v7.59h-2.24v-9.18Z"/>
      <path class="cls-1" d="M83.02,366.6c.05,3.09,2.03,4.37,4.32,4.37,1.64,0,2.63-.29,3.48-.65l.39,1.64c-.81.36-2.18.78-4.19.78-3.88,0-6.19-2.55-6.19-6.34s2.24-6.79,5.9-6.79c4.11,0,5.2,3.61,5.2,5.93,0,.47-.05.83-.08,1.07h-8.84ZM89.72,364.96c.03-1.46-.6-3.72-3.17-3.72-2.31,0-3.33,2.13-3.51,3.72h6.68Z"/>
      <path class="cls-1" d="M94.77,363.3c0-1.3-.03-2.37-.1-3.41h2.03l.13,2.08h.05c.62-1.2,2.08-2.37,4.16-2.37,1.74,0,4.45,1.04,4.45,5.36v7.51h-2.29v-7.25c0-2.03-.75-3.72-2.91-3.72-1.51,0-2.68,1.07-3.07,2.34-.1.29-.16.68-.16,1.07v7.57h-2.29v-9.18Z"/>
      <path class="cls-1" d="M1.9,375.73v-1.3h105.4v1.3H1.9Z"/>
      <path class="cls-2" d="M3.8,385.22h2.29v18.46h-2.29v-18.46Z"/>
      <path class="cls-2" d="M12.97,385.87c-.6,2.18-1.72,4.97-2.44,6.16l-1.46.18c.57-1.53,1.25-4.24,1.53-6.11l2.37-.23Z"/>
      <path class="cls-2" d="M21.97,403.68l-.18-1.59h-.08c-.7.99-2.05,1.87-3.85,1.87-2.55,0-3.85-1.79-3.85-3.61,0-3.04,2.7-4.71,7.57-4.68v-.26c0-1.04-.29-2.91-2.86-2.91-1.17,0-2.39.36-3.28.94l-.52-1.51c1.04-.68,2.55-1.12,4.13-1.12,3.85,0,4.78,2.63,4.78,5.15v4.71c0,1.09.05,2.16.21,3.02h-2.08ZM21.63,397.25c-2.5-.05-5.33.39-5.33,2.83,0,1.48.99,2.18,2.16,2.18,1.64,0,2.68-1.04,3.04-2.11.08-.23.13-.49.13-.73v-2.18Z"/>
      <path class="cls-2" d="M27.43,403.68c.05-.86.1-2.13.1-3.25v-15.21h2.26v7.9h.05c.81-1.4,2.26-2.31,4.29-2.31,3.12,0,5.33,2.6,5.3,6.42,0,4.5-2.83,6.73-5.64,6.73-1.82,0-3.28-.7-4.21-2.37h-.08l-.1,2.08h-1.98ZM29.79,398.63c0,.29.05.57.1.83.44,1.59,1.77,2.68,3.43,2.68,2.39,0,3.82-1.95,3.82-4.84,0-2.52-1.3-4.68-3.74-4.68-1.56,0-3.02,1.07-3.48,2.81-.05.26-.13.57-.13.94v2.26Z"/>
      <path class="cls-2" d="M53.2,385.22v15.21c0,1.12.03,2.39.1,3.25h-2.05l-.1-2.18h-.05c-.7,1.4-2.24,2.47-4.29,2.47-3.04,0-5.38-2.57-5.38-6.4-.03-4.19,2.57-6.76,5.64-6.76,1.92,0,3.22.91,3.8,1.92h.05v-7.51h2.29ZM50.91,396.21c0-.29-.03-.68-.1-.96-.34-1.46-1.59-2.65-3.3-2.65-2.37,0-3.77,2.08-3.77,4.86,0,2.55,1.25,4.65,3.72,4.65,1.53,0,2.94-1.01,3.35-2.73.08-.31.1-.62.1-.99v-2.18Z"/>
      <path class="cls-2" d="M68.38,397.28c0,4.65-3.22,6.68-6.27,6.68-3.41,0-6.03-2.5-6.03-6.47,0-4.21,2.76-6.68,6.24-6.68s6.06,2.63,6.06,6.47ZM58.39,397.41c0,2.76,1.59,4.84,3.82,4.84s3.82-2.05,3.82-4.89c0-2.13-1.07-4.84-3.77-4.84s-3.88,2.5-3.88,4.89Z"/>
      <path class="cls-2" d="M71.26,394.5c0-1.3-.03-2.37-.1-3.41h2l.1,2.03h.08c.7-1.2,1.87-2.31,3.95-2.31,1.72,0,3.02,1.04,3.56,2.52h.05c.39-.7.88-1.25,1.4-1.64.75-.57,1.59-.88,2.78-.88,1.66,0,4.13,1.09,4.13,5.46v7.41h-2.24v-7.12c0-2.42-.88-3.87-2.73-3.87-1.3,0-2.31.96-2.7,2.08-.1.31-.18.73-.18,1.14v7.77h-2.24v-7.54c0-2-.88-3.46-2.63-3.46-1.43,0-2.47,1.14-2.83,2.29-.13.34-.18.73-.18,1.12v7.59h-2.24v-9.18Z"/>
      <path class="cls-2" d="M94.22,397.8c.05,3.09,2.03,4.37,4.32,4.37,1.64,0,2.63-.29,3.48-.65l.39,1.64c-.81.36-2.18.78-4.19.78-3.87,0-6.19-2.55-6.19-6.34s2.24-6.79,5.9-6.79c4.11,0,5.2,3.61,5.2,5.93,0,.47-.05.83-.08,1.07h-8.84ZM100.93,396.16c.03-1.46-.6-3.72-3.17-3.72-2.31,0-3.33,2.13-3.51,3.72h6.68Z"/>
      <path class="cls-2" d="M105.97,394.5c0-1.3-.03-2.37-.1-3.41h2.03l.13,2.08h.05c.62-1.2,2.08-2.37,4.16-2.37,1.74,0,4.45,1.04,4.45,5.36v7.51h-2.29v-7.25c0-2.03-.75-3.72-2.91-3.72-1.51,0-2.68,1.07-3.07,2.34-.1.29-.16.68-.16,1.07v7.57h-2.29v-9.18Z"/>
    </g>
    <g>
      <path class="cls-1" d="M2.81,475.08l1.66,6.4c.36,1.4.7,2.7.94,4h.08c.29-1.27.7-2.63,1.12-3.98l2.05-6.42h1.92l1.95,6.29c.47,1.51.83,2.83,1.12,4.11h.08c.21-1.27.55-2.6.96-4.08l1.79-6.32h2.26l-4.06,12.58h-2.08l-1.92-6.01c-.44-1.4-.81-2.65-1.12-4.13h-.05c-.31,1.51-.7,2.81-1.14,4.16l-2.03,5.98h-2.08l-3.8-12.58h2.34Z"/>
      <path class="cls-1" d="M27.9,487.67l-.18-1.59h-.08c-.7.99-2.05,1.87-3.85,1.87-2.55,0-3.85-1.79-3.85-3.61,0-3.04,2.7-4.71,7.57-4.68v-.26c0-1.04-.29-2.91-2.86-2.91-1.17,0-2.39.36-3.28.94l-.52-1.51c1.04-.68,2.55-1.12,4.13-1.12,3.85,0,4.78,2.63,4.78,5.15v4.71c0,1.09.05,2.16.21,3.02h-2.08ZM27.56,481.24c-2.5-.05-5.33.39-5.33,2.83,0,1.48.99,2.18,2.16,2.18,1.64,0,2.68-1.04,3.04-2.11.08-.23.13-.49.13-.73v-2.18Z"/>
      <path class="cls-1" d="M36.01,471.55c.03.78-.55,1.4-1.46,1.4-.81,0-1.38-.62-1.38-1.4s.6-1.43,1.43-1.43,1.4.62,1.4,1.43ZM33.46,487.67v-12.58h2.29v12.58h-2.29Z"/>
      <path class="cls-1" d="M39.23,485.33c.68.44,1.87.91,3.02.91,1.66,0,2.44-.83,2.44-1.87,0-1.09-.65-1.69-2.34-2.31-2.26-.81-3.33-2.05-3.33-3.56,0-2.03,1.64-3.69,4.34-3.69,1.27,0,2.39.36,3.09.78l-.57,1.66c-.49-.31-1.4-.73-2.57-.73-1.35,0-2.11.78-2.11,1.72,0,1.04.75,1.51,2.39,2.13,2.18.83,3.3,1.92,3.3,3.8,0,2.21-1.72,3.77-4.71,3.77-1.38,0-2.65-.34-3.54-.86l.57-1.74Z"/>
      <path class="cls-1" d="M52.6,471.47v3.61h3.28v1.74h-3.28v6.79c0,1.56.44,2.44,1.72,2.44.6,0,1.04-.08,1.33-.16l.1,1.72c-.44.18-1.14.31-2.03.31-1.07,0-1.92-.34-2.47-.96-.65-.68-.88-1.79-.88-3.28v-6.86h-1.95v-1.74h1.95v-3.02l2.24-.6Z"/>
      <path class="cls-1" d="M0,490.92v-1.3h56.55v1.3H0Z"/>
      <path class="cls-2" d="M1.9,500.41h2.29v18.46H1.9v-18.46Z"/>
      <path class="cls-2" d="M15,518.87l-.18-1.59h-.08c-.7.99-2.05,1.87-3.85,1.87-2.55,0-3.85-1.79-3.85-3.61,0-3.04,2.7-4.71,7.57-4.68v-.26c0-1.04-.29-2.91-2.86-2.91-1.17,0-2.39.36-3.28.94l-.52-1.51c1.04-.68,2.55-1.12,4.13-1.12,3.85,0,4.78,2.63,4.78,5.15v4.71c0,1.09.05,2.16.21,3.02h-2.08ZM14.66,512.44c-2.5-.05-5.33.39-5.33,2.83,0,1.48.99,2.18,2.16,2.18,1.64,0,2.68-1.04,3.04-2.11.08-.23.13-.49.13-.73v-2.18Z"/>
      <path class="cls-2" d="M28.83,502.67v3.61h3.28v1.74h-3.28v6.79c0,1.56.44,2.44,1.72,2.44.6,0,1.04-.08,1.33-.16l.1,1.72c-.44.18-1.14.31-2.03.31-1.07,0-1.92-.34-2.47-.96-.65-.68-.88-1.79-.88-3.28v-6.86h-1.95v-1.74h1.95v-3.02l2.24-.6Z"/>
      <path class="cls-2" d="M41.65,518.87l-.18-1.59h-.08c-.7.99-2.05,1.87-3.85,1.87-2.55,0-3.85-1.79-3.85-3.61,0-3.04,2.7-4.71,7.57-4.68v-.26c0-1.04-.29-2.91-2.86-2.91-1.17,0-2.39.36-3.28.94l-.52-1.51c1.04-.68,2.55-1.12,4.13-1.12,3.85,0,4.78,2.63,4.78,5.15v4.71c0,1.09.05,2.16.21,3.02h-2.08ZM41.31,512.44c-2.5-.05-5.33.39-5.33,2.83,0,1.48.99,2.18,2.16,2.18,1.64,0,2.68-1.04,3.04-2.11.08-.23.13-.49.13-.73v-2.18Z"/>
      <path class="cls-2" d="M49.76,502.75c.03.78-.55,1.4-1.46,1.4-.81,0-1.38-.62-1.38-1.4s.6-1.43,1.43-1.43,1.4.62,1.4,1.43ZM47.22,518.87v-12.58h2.29v12.58h-2.29Z"/>
      <path class="cls-2" d="M53.3,500.41h2.29v18.46h-2.29v-18.46Z"/>
      <path class="cls-2" d="M59.44,500.41h2.29v18.46h-2.29v-18.46Z"/>
      <path class="cls-2" d="M66.84,512.99c.05,3.09,2.03,4.37,4.32,4.37,1.64,0,2.63-.29,3.48-.65l.39,1.64c-.81.36-2.18.78-4.19.78-3.87,0-6.19-2.55-6.19-6.34s2.24-6.79,5.9-6.79c4.11,0,5.2,3.61,5.2,5.93,0,.47-.05.83-.08,1.07h-8.84ZM73.55,511.35c.03-1.46-.6-3.72-3.17-3.72-2.31,0-3.33,2.13-3.51,3.72h6.68Z"/>
    </g>
    <g>
      <path class="cls-1" d="M117.77,691.73c0-1.61-.05-2.91-.1-4.11h2.05l.1,2.16h.05c.94-1.53,2.42-2.44,4.47-2.44,3.04,0,5.33,2.57,5.33,6.4,0,4.52-2.76,6.76-5.72,6.76-1.66,0-3.12-.73-3.87-1.98h-.05v6.84h-2.26v-13.62ZM120.03,695.08c0,.34.05.65.1.94.42,1.59,1.79,2.68,3.43,2.68,2.42,0,3.82-1.98,3.82-4.86,0-2.52-1.33-4.68-3.74-4.68-1.56,0-3.02,1.12-3.46,2.83-.08.29-.16.62-.16.94v2.16Z"/>
      <path class="cls-1" d="M133.84,694.33c.05,3.09,2.03,4.37,4.32,4.37,1.64,0,2.63-.29,3.48-.65l.39,1.64c-.81.36-2.18.78-4.19.78-3.87,0-6.19-2.55-6.19-6.34s2.24-6.79,5.9-6.79c4.11,0,5.2,3.61,5.2,5.93,0,.47-.05.83-.08,1.07h-8.84ZM140.55,692.69c.03-1.46-.6-3.72-3.17-3.72-2.31,0-3.33,2.13-3.51,3.72h6.68Z"/>
      <path class="cls-1" d="M145.59,691.03c0-1.3-.03-2.37-.1-3.41h2.03l.13,2.08h.05c.62-1.2,2.08-2.37,4.16-2.37,1.74,0,4.45,1.04,4.45,5.36v7.51h-2.29v-7.25c0-2.03-.75-3.72-2.91-3.72-1.51,0-2.68,1.07-3.07,2.34-.1.29-.16.68-.16,1.07v7.57h-2.29v-9.18Z"/>
      <path class="cls-1" d="M162.57,684.08c.03.78-.55,1.4-1.46,1.4-.81,0-1.38-.62-1.38-1.4s.6-1.43,1.43-1.43,1.4.62,1.4,1.43ZM160.02,700.2v-12.58h2.29v12.58h-2.29Z"/>
      <path class="cls-1" d="M165.79,697.86c.68.44,1.87.91,3.02.91,1.66,0,2.44-.83,2.44-1.87,0-1.09-.65-1.69-2.34-2.31-2.26-.81-3.33-2.05-3.33-3.56,0-2.03,1.64-3.69,4.34-3.69,1.27,0,2.39.36,3.09.78l-.57,1.66c-.49-.31-1.4-.73-2.57-.73-1.35,0-2.11.78-2.11,1.72,0,1.04.75,1.51,2.39,2.13,2.18.83,3.3,1.92,3.3,3.8,0,2.21-1.72,3.77-4.71,3.77-1.38,0-2.65-.34-3.54-.86l.57-1.74Z"/>
      <path class="cls-1" d="M115.87,703.45v-1.3h58.63v1.3h-58.63Z"/>
      <path class="cls-2" d="M117.77,712.94h2.29v18.46h-2.29v-18.46Z"/>
      <path class="cls-2" d="M125.18,725.53c.05,3.09,2.03,4.37,4.32,4.37,1.64,0,2.63-.29,3.48-.65l.39,1.64c-.81.36-2.18.78-4.19.78-3.87,0-6.19-2.55-6.19-6.34s2.24-6.79,5.9-6.79c4.11,0,5.2,3.61,5.2,5.93,0,.47-.05.83-.08,1.07h-8.84ZM131.89,723.89c.03-1.46-.6-3.72-3.17-3.72-2.31,0-3.33,2.13-3.51,3.72h6.68Z"/>
      <path class="cls-2" d="M142.44,722.93c0-1.61-.05-2.91-.1-4.11h2.05l.1,2.16h.05c.94-1.53,2.42-2.44,4.47-2.44,3.04,0,5.33,2.57,5.33,6.4,0,4.52-2.76,6.76-5.72,6.76-1.66,0-3.12-.73-3.87-1.98h-.05v6.84h-2.26v-13.62ZM144.71,726.28c0,.34.05.65.1.94.42,1.59,1.79,2.68,3.43,2.68,2.42,0,3.82-1.98,3.82-4.86,0-2.52-1.33-4.68-3.74-4.68-1.56,0-3.02,1.12-3.46,2.83-.08.29-.16.62-.16.94v2.16Z"/>
      <path class="cls-2" d="M158.51,725.53c.05,3.09,2.03,4.37,4.32,4.37,1.64,0,2.63-.29,3.48-.65l.39,1.64c-.81.36-2.18.78-4.19.78-3.88,0-6.19-2.55-6.19-6.34s2.24-6.79,5.9-6.79c4.11,0,5.2,3.61,5.2,5.93,0,.47-.05.83-.08,1.07h-8.84ZM165.22,723.89c.03-1.46-.6-3.72-3.17-3.72-2.31,0-3.33,2.13-3.51,3.72h6.68ZM165.77,713.39l-3.17,3.72h-1.64l2.29-3.72h2.52Z"/>
      <path class="cls-2" d="M170.26,722.23c0-1.3-.03-2.37-.1-3.41h2.03l.13,2.08h.05c.62-1.2,2.08-2.37,4.16-2.37,1.74,0,4.45,1.04,4.45,5.36v7.51h-2.29v-7.25c0-2.03-.75-3.72-2.91-3.72-1.51,0-2.68,1.07-3.07,2.34-.1.29-.16.68-.16,1.07v7.57h-2.29v-9.18Z"/>
      <path class="cls-2" d="M187.24,715.28c.03.78-.55,1.4-1.46,1.4-.81,0-1.38-.62-1.38-1.4s.6-1.43,1.43-1.43,1.4.62,1.4,1.43ZM184.69,731.4v-12.58h2.29v12.58h-2.29Z"/>
      <path class="cls-2" d="M190.46,729.06c.68.44,1.87.91,3.02.91,1.66,0,2.44-.83,2.44-1.87,0-1.09-.65-1.69-2.34-2.31-2.26-.81-3.33-2.05-3.33-3.56,0-2.03,1.64-3.69,4.34-3.69,1.27,0,2.39.36,3.09.78l-.57,1.66c-.49-.31-1.4-.73-2.57-.73-1.35,0-2.11.78-2.11,1.72,0,1.04.75,1.51,2.39,2.13,2.18.83,3.3,1.92,3.3,3.8,0,2.21-1.72,3.77-4.71,3.77-1.38,0-2.65-.34-3.54-.86l.57-1.74Z"/>
    </g>
    <g>
      <path class="cls-1" d="M450.97,0h2.29v7.85h.05c.36-.65.94-1.22,1.64-1.61.68-.39,1.48-.65,2.34-.65,1.69,0,4.39,1.04,4.39,5.38v7.49h-2.29v-7.23c0-2.03-.75-3.74-2.91-3.74-1.48,0-2.65,1.04-3.07,2.29-.13.31-.16.65-.16,1.09v7.59h-2.29V0Z"/>
      <path class="cls-1" d="M466.68,12.58c.05,3.09,2.03,4.37,4.32,4.37,1.64,0,2.63-.29,3.48-.65l.39,1.64c-.81.36-2.18.78-4.19.78-3.87,0-6.19-2.55-6.19-6.34s2.24-6.79,5.9-6.79c4.11,0,5.2,3.61,5.2,5.93,0,.47-.05.83-.08,1.07h-8.84ZM473.38,10.95c.03-1.46-.6-3.72-3.17-3.72-2.31,0-3.33,2.13-3.51,3.72h6.68Z"/>
      <path class="cls-1" d="M485.4,18.46l-.18-1.59h-.08c-.7.99-2.05,1.87-3.85,1.87-2.55,0-3.85-1.79-3.85-3.61,0-3.04,2.7-4.71,7.57-4.68v-.26c0-1.04-.29-2.91-2.86-2.91-1.17,0-2.39.36-3.28.94l-.52-1.51c1.04-.68,2.55-1.12,4.13-1.12,3.85,0,4.78,2.63,4.78,5.15v4.71c0,1.09.05,2.16.21,3.02h-2.08ZM485.06,12.04c-2.5-.05-5.33.39-5.33,2.83,0,1.48.99,2.18,2.16,2.18,1.64,0,2.68-1.04,3.04-2.11.08-.23.13-.49.13-.73v-2.18Z"/>
      <path class="cls-1" d="M501.83,0v15.21c0,1.12.03,2.39.1,3.25h-2.05l-.1-2.18h-.05c-.7,1.4-2.24,2.47-4.29,2.47-3.04,0-5.38-2.57-5.38-6.4-.03-4.19,2.57-6.76,5.64-6.76,1.92,0,3.22.91,3.8,1.92h.05V0h2.29ZM499.54,11c0-.29-.03-.68-.1-.96-.34-1.46-1.59-2.65-3.3-2.65-2.37,0-3.77,2.08-3.77,4.86,0,2.55,1.25,4.65,3.72,4.65,1.53,0,2.94-1.01,3.35-2.73.08-.31.1-.62.1-.99v-2.18Z"/>
      <path class="cls-1" d="M449.07,21.71v-1.3h54.65v1.3h-54.65Z"/>
      <path class="cls-2" d="M450.97,31.2h2.29v18.46h-2.29v-18.46Z"/>
      <path class="cls-2" d="M464.08,49.66l-.18-1.59h-.08c-.7.99-2.05,1.87-3.85,1.87-2.55,0-3.85-1.79-3.85-3.61,0-3.04,2.7-4.71,7.57-4.68v-.26c0-1.04-.29-2.91-2.86-2.91-1.17,0-2.39.36-3.28.94l-.52-1.51c1.04-.68,2.55-1.12,4.13-1.12,3.85,0,4.78,2.63,4.78,5.15v4.71c0,1.09.05,2.16.21,3.02h-2.08ZM463.74,43.24c-2.5-.05-5.33.39-5.33,2.83,0,1.48.99,2.18,2.16,2.18,1.64,0,2.68-1.04,3.04-2.11.08-.23.13-.49.13-.73v-2.18Z"/>
      <path class="cls-2" d="M477.91,33.46v3.61h3.28v1.74h-3.28v6.79c0,1.56.44,2.44,1.72,2.44.6,0,1.04-.08,1.33-.16l.1,1.72c-.44.18-1.14.31-2.03.31-1.07,0-1.92-.34-2.47-.96-.65-.68-.88-1.79-.88-3.28v-6.86h-1.95v-1.74h1.95v-3.02l2.24-.6Z"/>
      <path class="cls-2" d="M484.88,43.78c.05,3.09,2.03,4.37,4.32,4.37,1.64,0,2.63-.29,3.48-.65l.39,1.64c-.81.36-2.18.78-4.19.78-3.87,0-6.19-2.55-6.19-6.34s2.24-6.79,5.9-6.79c4.11,0,5.2,3.61,5.2,5.93,0,.47-.05.83-.08,1.07h-8.84ZM491.58,42.15c.03-1.46-.6-3.72-3.17-3.72-2.31,0-3.33,2.13-3.51,3.72h6.68ZM489.29,31.64l2.5,3.72h-1.74l-1.51-2.47h-.05l-1.51,2.47h-1.72l2.47-3.72h1.56Z"/>
      <path class="cls-2" d="M499.38,33.46v3.61h3.28v1.74h-3.28v6.79c0,1.56.44,2.44,1.72,2.44.6,0,1.04-.08,1.33-.16l.1,1.72c-.44.18-1.14.31-2.03.31-1.07,0-1.92-.34-2.47-.96-.65-.68-.88-1.79-.88-3.28v-6.86h-1.95v-1.74h1.95v-3.02l2.24-.6Z"/>
      <path class="cls-2" d="M506.35,43.78c.05,3.09,2.03,4.37,4.32,4.37,1.64,0,2.63-.29,3.48-.65l.39,1.64c-.81.36-2.18.78-4.19.78-3.87,0-6.19-2.55-6.19-6.34s2.24-6.79,5.9-6.79c4.11,0,5.2,3.61,5.2,5.93,0,.47-.05.83-.08,1.07h-8.84ZM513.06,42.15c.03-1.46-.6-3.72-3.17-3.72-2.31,0-3.33,2.13-3.51,3.72h6.68Z"/>
    </g>
    <g>
      <path class="cls-1" d="M86.91,47.9v-10.84h-1.77v-1.74h1.77v-.6c0-1.77.39-3.38,1.46-4.39.86-.83,2-1.17,3.07-1.17.81,0,1.51.18,1.95.36l-.31,1.77c-.34-.16-.81-.29-1.46-.29-1.95,0-2.44,1.72-2.44,3.64v.68h3.04v1.74h-3.04v10.84h-2.26Z"/>
      <path class="cls-1" d="M101.24,47.9l-.18-1.59h-.08c-.7.99-2.05,1.87-3.85,1.87-2.55,0-3.85-1.79-3.85-3.61,0-3.04,2.7-4.71,7.57-4.68v-.26c0-1.04-.29-2.91-2.86-2.91-1.17,0-2.39.36-3.28.94l-.52-1.51c1.04-.68,2.55-1.12,4.13-1.12,3.85,0,4.78,2.63,4.78,5.15v4.71c0,1.09.05,2.16.21,3.02h-2.08ZM100.9,41.48c-2.5-.05-5.33.39-5.33,2.83,0,1.48.99,2.18,2.16,2.18,1.64,0,2.68-1.04,3.04-2.11.08-.23.13-.49.13-.73v-2.18Z"/>
      <path class="cls-1" d="M115.77,47.43c-.6.31-1.92.73-3.61.73-3.8,0-6.27-2.57-6.27-6.42s2.65-6.68,6.76-6.68c1.35,0,2.55.34,3.17.65l-.52,1.77c-.55-.31-1.4-.6-2.65-.6-2.89,0-4.45,2.13-4.45,4.76,0,2.91,1.87,4.71,4.37,4.71,1.3,0,2.16-.34,2.81-.62l.39,1.72Z"/>
      <path class="cls-1" d="M119.56,42.02c.05,3.09,2.03,4.37,4.32,4.37,1.64,0,2.63-.29,3.48-.65l.39,1.64c-.81.36-2.18.78-4.19.78-3.87,0-6.19-2.55-6.19-6.34s2.24-6.79,5.9-6.79c4.11,0,5.2,3.61,5.2,5.93,0,.47-.05.83-.08,1.07h-8.84ZM126.27,40.38c.03-1.46-.6-3.72-3.17-3.72-2.31,0-3.33,2.13-3.51,3.72h6.68Z"/>
      <path class="cls-1" d="M84.78,51.15v-1.3h44.64v1.3h-44.64Z"/>
      <path class="cls-2" d="M86.68,60.64h2.29v18.46h-2.29v-18.46Z"/>
      <path class="cls-2" d="M94.08,73.22c.05,3.09,2.03,4.37,4.32,4.37,1.64,0,2.63-.29,3.48-.65l.39,1.64c-.81.36-2.18.78-4.19.78-3.88,0-6.19-2.55-6.19-6.34s2.24-6.79,5.9-6.79c4.11,0,5.2,3.61,5.2,5.93,0,.47-.05.83-.08,1.07h-8.84ZM100.79,71.58c.03-1.46-.6-3.72-3.17-3.72-2.31,0-3.33,2.13-3.51,3.72h6.68Z"/>
      <path class="cls-2" d="M112.23,66.51l2.47,7.07c.42,1.14.75,2.18,1.01,3.22h.08c.29-1.04.65-2.08,1.07-3.22l2.44-7.07h2.39l-4.94,12.58h-2.18l-4.78-12.58h2.44Z"/>
      <path class="cls-2" d="M126.4,62.98c.03.78-.55,1.4-1.46,1.4-.81,0-1.38-.62-1.38-1.4s.6-1.43,1.43-1.43,1.4.62,1.4,1.43ZM123.85,79.1v-12.58h2.29v12.58h-2.29Z"/>
      <path class="cls-2" d="M129.63,76.76c.68.44,1.87.91,3.02.91,1.66,0,2.44-.83,2.44-1.87,0-1.09-.65-1.69-2.34-2.31-2.26-.81-3.33-2.05-3.33-3.56,0-2.03,1.64-3.69,4.34-3.69,1.27,0,2.39.36,3.09.78l-.57,1.66c-.49-.31-1.4-.73-2.57-.73-1.35,0-2.11.78-2.11,1.72,0,1.04.75,1.51,2.39,2.13,2.18.83,3.3,1.92,3.3,3.8,0,2.21-1.72,3.77-4.71,3.77-1.38,0-2.65-.34-3.54-.86l.57-1.74Z"/>
      <path class="cls-2" d="M147.2,79.1l-.18-1.59h-.08c-.7.99-2.05,1.87-3.85,1.87-2.55,0-3.85-1.79-3.85-3.61,0-3.04,2.7-4.71,7.57-4.68v-.26c0-1.04-.29-2.91-2.86-2.91-1.17,0-2.39.36-3.28.94l-.52-1.51c1.04-.68,2.55-1.12,4.13-1.12,3.85,0,4.78,2.63,4.78,5.15v4.71c0,1.09.05,2.16.21,3.02h-2.08ZM146.86,72.68c-2.5-.05-5.33.39-5.33,2.83,0,1.48.99,2.18,2.16,2.18,1.64,0,2.68-1.04,3.04-2.11.08-.23.13-.49.13-.73v-2.18Z"/>
      <path class="cls-2" d="M163.61,66.51c-.05.91-.1,1.92-.1,3.46v7.31c0,2.89-.57,4.65-1.79,5.75-1.22,1.14-2.99,1.51-4.58,1.51s-3.17-.36-4.19-1.04l.57-1.74c.83.52,2.13.99,3.69.99,2.34,0,4.06-1.22,4.06-4.39v-1.4h-.05c-.7,1.17-2.05,2.11-4,2.11-3.12,0-5.36-2.65-5.36-6.14,0-4.26,2.78-6.68,5.67-6.68,2.18,0,3.38,1.14,3.93,2.18h.05l.1-1.9h2ZM161.24,71.48c0-.39-.03-.73-.13-1.04-.42-1.33-1.53-2.42-3.2-2.42-2.18,0-3.74,1.85-3.74,4.76,0,2.47,1.25,4.52,3.72,4.52,1.4,0,2.68-.88,3.17-2.34.13-.39.18-.83.18-1.22v-2.26Z"/>
      <path class="cls-2" d="M168.57,73.22c.05,3.09,2.03,4.37,4.32,4.37,1.64,0,2.63-.29,3.48-.65l.39,1.64c-.81.36-2.18.78-4.19.78-3.88,0-6.19-2.55-6.19-6.34s2.24-6.79,5.9-6.79c4.11,0,5.2,3.61,5.2,5.93,0,.47-.05.83-.08,1.07h-8.84ZM175.28,71.58c.03-1.46-.6-3.72-3.17-3.72-2.31,0-3.33,2.13-3.51,3.72h6.68Z"/>
    </g>
    <g>
      <path class="cls-1" d="M559.68,208.05l-.18-1.59h-.08c-.7.99-2.05,1.87-3.85,1.87-2.55,0-3.85-1.79-3.85-3.61,0-3.04,2.7-4.71,7.57-4.68v-.26c0-1.04-.29-2.91-2.86-2.91-1.17,0-2.39.36-3.28.94l-.52-1.51c1.04-.68,2.55-1.12,4.13-1.12,3.85,0,4.78,2.63,4.78,5.15v4.71c0,1.09.05,2.16.21,3.02h-2.08ZM559.34,201.63c-2.5-.05-5.33.39-5.33,2.83,0,1.48.99,2.18,2.16,2.18,1.64,0,2.68-1.04,3.04-2.11.08-.23.13-.49.13-.73v-2.18Z"/>
      <path class="cls-1" d="M565.25,199.39c0-1.48-.03-2.76-.1-3.93h2l.08,2.47h.1c.57-1.69,1.95-2.76,3.48-2.76.26,0,.44.03.65.08v2.16c-.23-.05-.47-.08-.78-.08-1.61,0-2.76,1.22-3.07,2.94-.05.31-.1.68-.1,1.07v6.71h-2.26v-8.66Z"/>
      <path class="cls-1" d="M573.85,198.87c0-1.3-.03-2.37-.1-3.41h2l.1,2.03h.08c.7-1.2,1.87-2.31,3.95-2.31,1.72,0,3.02,1.04,3.56,2.52h.05c.39-.7.88-1.25,1.4-1.64.75-.57,1.59-.88,2.78-.88,1.66,0,4.13,1.09,4.13,5.46v7.41h-2.24v-7.12c0-2.42-.88-3.87-2.73-3.87-1.3,0-2.31.96-2.7,2.08-.1.31-.18.73-.18,1.14v7.77h-2.24v-7.54c0-2-.88-3.46-2.63-3.46-1.43,0-2.47,1.14-2.83,2.29-.13.34-.18.73-.18,1.12v7.59h-2.24v-9.18Z"/>
      <path class="cls-1" d="M593.61,209.09l7.25-18.85h1.77l-7.28,18.85h-1.74Z"/>
      <path class="cls-1" d="M614.98,204.62c0,1.3.03,2.44.1,3.43h-2.03l-.13-2.05h-.05c-.6,1.01-1.92,2.34-4.16,2.34-1.98,0-4.34-1.09-4.34-5.51v-7.36h2.29v6.97c0,2.39.73,4,2.81,4,1.53,0,2.6-1.07,3.02-2.08.13-.34.21-.75.21-1.17v-7.72h2.29v9.15Z"/>
      <path class="cls-1" d="M618.78,199.57c0-1.61-.05-2.91-.1-4.11h2.05l.1,2.16h.05c.94-1.53,2.42-2.44,4.47-2.44,3.04,0,5.33,2.57,5.33,6.4,0,4.52-2.76,6.76-5.72,6.76-1.66,0-3.12-.73-3.87-1.98h-.05v6.84h-2.26v-13.62ZM621.04,202.93c0,.34.05.65.1.94.42,1.59,1.79,2.68,3.43,2.68,2.42,0,3.82-1.98,3.82-4.86,0-2.52-1.33-4.68-3.74-4.68-1.56,0-3.02,1.12-3.46,2.83-.08.29-.16.62-.16.94v2.16Z"/>
      <path class="cls-1" d="M633.57,199.57c0-1.61-.05-2.91-.1-4.11h2.05l.1,2.16h.05c.94-1.53,2.42-2.44,4.47-2.44,3.04,0,5.33,2.57,5.33,6.4,0,4.52-2.76,6.76-5.72,6.76-1.66,0-3.12-.73-3.87-1.98h-.05v6.84h-2.26v-13.62ZM635.83,202.93c0,.34.05.65.1.94.42,1.59,1.79,2.68,3.43,2.68,2.42,0,3.82-1.98,3.82-4.86,0-2.52-1.33-4.68-3.74-4.68-1.56,0-3.02,1.12-3.46,2.83-.08.29-.16.62-.16.94v2.16Z"/>
      <path class="cls-1" d="M649.64,202.17c.05,3.09,2.03,4.37,4.32,4.37,1.64,0,2.63-.29,3.48-.65l.39,1.64c-.81.36-2.18.78-4.19.78-3.87,0-6.19-2.55-6.19-6.34s2.24-6.79,5.9-6.79c4.11,0,5.2,3.61,5.2,5.93,0,.47-.05.83-.08,1.07h-8.84ZM656.35,200.54c.03-1.46-.6-3.72-3.17-3.72-2.31,0-3.33,2.13-3.51,3.72h6.68Z"/>
      <path class="cls-1" d="M661.39,199.39c0-1.48-.03-2.76-.1-3.93h2l.08,2.47h.1c.57-1.69,1.95-2.76,3.48-2.76.26,0,.44.03.65.08v2.16c-.23-.05-.47-.08-.78-.08-1.61,0-2.76,1.22-3.07,2.94-.05.31-.1.68-.1,1.07v6.71h-2.26v-8.66Z"/>
      <path class="cls-1" d="M682.37,208.05l-.18-1.59h-.08c-.7.99-2.05,1.87-3.85,1.87-2.55,0-3.85-1.79-3.85-3.61,0-3.04,2.7-4.71,7.57-4.68v-.26c0-1.04-.29-2.91-2.86-2.91-1.17,0-2.39.36-3.28.94l-.52-1.51c1.04-.68,2.55-1.12,4.13-1.12,3.85,0,4.78,2.63,4.78,5.15v4.71c0,1.09.05,2.16.21,3.02h-2.08ZM682.04,201.63c-2.5-.05-5.33.39-5.33,2.83,0,1.48.99,2.18,2.16,2.18,1.64,0,2.68-1.04,3.04-2.11.08-.23.13-.49.13-.73v-2.18Z"/>
      <path class="cls-1" d="M687.94,199.39c0-1.48-.03-2.76-.1-3.93h2l.08,2.47h.1c.57-1.69,1.95-2.76,3.48-2.76.26,0,.44.03.65.08v2.16c-.23-.05-.47-.08-.78-.08-1.61,0-2.76,1.22-3.07,2.94-.05.31-.1.68-.1,1.07v6.71h-2.26v-8.66Z"/>
      <path class="cls-1" d="M696.54,198.87c0-1.3-.03-2.37-.1-3.41h2l.1,2.03h.08c.7-1.2,1.87-2.31,3.95-2.31,1.72,0,3.02,1.04,3.56,2.52h.05c.39-.7.88-1.25,1.4-1.64.75-.57,1.59-.88,2.78-.88,1.66,0,4.13,1.09,4.13,5.46v7.41h-2.24v-7.12c0-2.42-.88-3.87-2.73-3.87-1.3,0-2.31.96-2.7,2.08-.1.31-.18.73-.18,1.14v7.77h-2.24v-7.54c0-2-.88-3.46-2.63-3.46-1.43,0-2.47,1.14-2.83,2.29-.13.34-.18.73-.18,1.12v7.59h-2.24v-9.18Z"/>
      <path class="cls-1" d="M550.82,211.3v-1.3h165.51v1.3h-165.51Z"/>
      <path class="cls-2" d="M552.71,220.79h2.29v18.46h-2.29v-18.46Z"/>
      <path class="cls-2" d="M560.12,233.37c.05,3.09,2.03,4.37,4.32,4.37,1.64,0,2.63-.29,3.48-.65l.39,1.64c-.81.36-2.18.78-4.19.78-3.87,0-6.19-2.55-6.19-6.34s2.24-6.79,5.9-6.79c4.11,0,5.2,3.61,5.2,5.93,0,.47-.05.83-.08,1.07h-8.84ZM566.83,231.74c.03-1.46-.6-3.72-3.17-3.72-2.31,0-3.33,2.13-3.51,3.72h6.68Z"/>
      <path class="cls-2" d="M577.28,239.25c.05-.86.1-2.13.1-3.25v-15.21h2.26v7.9h.05c.81-1.4,2.26-2.31,4.29-2.31,3.12,0,5.33,2.6,5.3,6.42,0,4.5-2.83,6.73-5.64,6.73-1.82,0-3.28-.7-4.21-2.37h-.08l-.1,2.08h-1.98ZM579.65,234.21c0,.29.05.57.1.83.44,1.59,1.77,2.68,3.43,2.68,2.39,0,3.82-1.95,3.82-4.84,0-2.52-1.3-4.68-3.74-4.68-1.56,0-3.02,1.07-3.48,2.81-.05.26-.13.57-.13.94v2.26Z"/>
      <path class="cls-2" d="M592.18,230.59c0-1.48-.03-2.76-.1-3.93h2l.08,2.47h.1c.57-1.69,1.95-2.76,3.48-2.76.26,0,.44.03.65.08v2.16c-.23-.05-.47-.08-.78-.08-1.61,0-2.76,1.22-3.07,2.94-.05.31-.1.68-.1,1.07v6.71h-2.26v-8.66Z"/>
      <path class="cls-2" d="M607.52,239.25l-.18-1.59h-.08c-.7.99-2.05,1.87-3.85,1.87-2.55,0-3.85-1.79-3.85-3.61,0-3.04,2.7-4.71,7.57-4.68v-.26c0-1.04-.29-2.91-2.86-2.91-1.17,0-2.39.36-3.28.94l-.52-1.51c1.04-.68,2.55-1.12,4.13-1.12,3.85,0,4.78,2.63,4.78,5.15v4.71c0,1.09.05,2.16.21,3.02h-2.08ZM607.18,232.83c-2.5-.05-5.33.39-5.33,2.83,0,1.48.99,2.18,2.16,2.18,1.64,0,2.68-1.04,3.04-2.11.08-.23.13-.49.13-.73v-2.18Z"/>
      <path class="cls-2" d="M612.77,236.91c.68.44,1.87.91,3.02.91,1.66,0,2.44-.83,2.44-1.87,0-1.09-.65-1.69-2.34-2.31-2.26-.81-3.33-2.05-3.33-3.56,0-2.03,1.64-3.69,4.34-3.69,1.27,0,2.39.36,3.09.78l-.57,1.66c-.49-.31-1.4-.73-2.57-.73-1.35,0-2.11.78-2.11,1.72,0,1.04.75,1.51,2.39,2.13,2.18.83,3.3,1.92,3.3,3.8,0,2.21-1.72,3.77-4.71,3.77-1.38,0-2.65-.34-3.54-.86l.57-1.74Z"/>
    </g>
    <g>
      <path class="cls-1" d="M675.91,378.35v-10.84h-1.77v-1.74h1.77v-.6c0-1.77.39-3.38,1.46-4.39.86-.83,2-1.17,3.07-1.17.81,0,1.51.18,1.95.36l-.31,1.77c-.34-.16-.81-.29-1.46-.29-1.95,0-2.44,1.72-2.44,3.64v.68h3.04v1.74h-3.04v10.84h-2.26Z"/>
      <path class="cls-1" d="M694.32,371.96c0,4.65-3.22,6.68-6.27,6.68-3.41,0-6.03-2.5-6.03-6.47,0-4.21,2.76-6.68,6.24-6.68s6.06,2.63,6.06,6.47ZM684.34,372.09c0,2.76,1.59,4.84,3.82,4.84s3.82-2.05,3.82-4.89c0-2.13-1.07-4.84-3.77-4.84s-3.88,2.5-3.88,4.89Z"/>
      <path class="cls-1" d="M697.21,369.69c0-1.48-.03-2.76-.1-3.93h2l.08,2.47h.1c.57-1.69,1.95-2.76,3.48-2.76.26,0,.44.03.65.08v2.16c-.23-.05-.47-.08-.78-.08-1.61,0-2.76,1.22-3.07,2.94-.05.31-.1.68-.1,1.07v6.71h-2.26v-8.66Z"/>
      <path class="cls-1" d="M706.72,372.48c.05,3.09,2.03,4.37,4.32,4.37,1.64,0,2.63-.29,3.48-.65l.39,1.64c-.81.36-2.18.78-4.19.78-3.87,0-6.19-2.55-6.19-6.34s2.24-6.79,5.9-6.79c4.11,0,5.2,3.61,5.2,5.93,0,.47-.05.83-.08,1.07h-8.84ZM713.43,370.84c.03-1.46-.6-3.72-3.17-3.72-2.31,0-3.33,2.13-3.51,3.72h6.68Z"/>
      <path class="cls-1" d="M725.44,378.35l-.18-1.59h-.08c-.7.99-2.05,1.87-3.85,1.87-2.55,0-3.85-1.79-3.85-3.61,0-3.04,2.7-4.71,7.57-4.68v-.26c0-1.04-.29-2.91-2.86-2.91-1.17,0-2.39.36-3.28.94l-.52-1.51c1.04-.68,2.55-1.12,4.13-1.12,3.85,0,4.78,2.63,4.78,5.15v4.71c0,1.09.05,2.16.21,3.02h-2.08ZM725.11,371.93c-2.5-.05-5.33.39-5.33,2.83,0,1.48.99,2.18,2.16,2.18,1.64,0,2.68-1.04,3.04-2.11.08-.23.13-.49.13-.73v-2.18Z"/>
      <path class="cls-1" d="M731.01,369.69c0-1.48-.03-2.76-.1-3.93h2l.08,2.47h.1c.57-1.69,1.95-2.76,3.48-2.76.26,0,.44.03.65.08v2.16c-.23-.05-.47-.08-.78-.08-1.61,0-2.76,1.22-3.07,2.94-.05.31-.1.68-.1,1.07v6.71h-2.26v-8.66Z"/>
      <path class="cls-1" d="M739.61,369.17c0-1.3-.03-2.37-.1-3.41h2l.1,2.03h.08c.7-1.2,1.87-2.31,3.95-2.31,1.72,0,3.02,1.04,3.56,2.52h.05c.39-.7.88-1.25,1.4-1.64.75-.57,1.59-.88,2.78-.88,1.66,0,4.13,1.09,4.13,5.46v7.41h-2.24v-7.12c0-2.42-.88-3.87-2.73-3.87-1.3,0-2.31.96-2.7,2.08-.1.31-.18.73-.18,1.14v7.77h-2.24v-7.54c0-2-.88-3.46-2.63-3.46-1.43,0-2.47,1.14-2.83,2.29-.13.34-.18.73-.18,1.12v7.59h-2.24v-9.18Z"/>
      <path class="cls-1" d="M673.78,381.6v-1.3h85.62v1.3h-85.62Z"/>
      <path class="cls-2" d="M675.68,391.09h2.29v18.46h-2.29v-18.46Z"/>
      <path class="cls-2" d="M684.86,391.74c-.6,2.18-1.72,4.97-2.44,6.16l-1.46.18c.57-1.53,1.25-4.24,1.53-6.11l2.37-.23Z"/>
      <path class="cls-2" d="M693.85,409.55l-.18-1.59h-.08c-.7.99-2.05,1.87-3.85,1.87-2.55,0-3.85-1.79-3.85-3.61,0-3.04,2.7-4.71,7.57-4.68v-.26c0-1.04-.29-2.91-2.86-2.91-1.17,0-2.39.36-3.28.94l-.52-1.51c1.04-.68,2.55-1.12,4.13-1.12,3.85,0,4.78,2.63,4.78,5.15v4.71c0,1.09.05,2.16.21,3.02h-2.08ZM693.52,403.13c-2.5-.05-5.33.39-5.33,2.83,0,1.48.99,2.18,2.16,2.18,1.64,0,2.68-1.04,3.04-2.11.08-.23.13-.49.13-.73v-2.18Z"/>
      <path class="cls-2" d="M700.09,396.97l2.47,7.07c.42,1.14.75,2.18,1.01,3.22h.08c.29-1.04.65-2.08,1.07-3.22l2.44-7.07h2.39l-4.94,12.58h-2.18l-4.78-12.58h2.44Z"/>
      <path class="cls-2" d="M718.58,409.55l-.18-1.59h-.08c-.7.99-2.05,1.87-3.85,1.87-2.55,0-3.85-1.79-3.85-3.61,0-3.04,2.7-4.71,7.57-4.68v-.26c0-1.04-.29-2.91-2.86-2.91-1.17,0-2.39.36-3.28.94l-.52-1.51c1.04-.68,2.55-1.12,4.13-1.12,3.85,0,4.78,2.63,4.78,5.15v4.71c0,1.09.05,2.16.21,3.02h-2.08ZM718.24,403.13c-2.5-.05-5.33.39-5.33,2.83,0,1.48.99,2.18,2.16,2.18,1.64,0,2.68-1.04,3.04-2.11.08-.23.13-.49.13-.73v-2.18Z"/>
      <path class="cls-2" d="M724.14,400.37c0-1.3-.03-2.37-.1-3.41h2.03l.13,2.08h.05c.62-1.2,2.08-2.37,4.16-2.37,1.74,0,4.45,1.04,4.45,5.36v7.51h-2.29v-7.25c0-2.03-.75-3.72-2.91-3.72-1.51,0-2.68,1.07-3.07,2.34-.1.29-.16.68-.16,1.07v7.57h-2.29v-9.18Z"/>
      <path class="cls-2" d="M741.23,393.35v3.61h3.28v1.74h-3.28v6.79c0,1.56.44,2.44,1.72,2.44.6,0,1.04-.08,1.33-.16l.1,1.72c-.44.18-1.14.31-2.03.31-1.07,0-1.92-.34-2.47-.96-.65-.68-.88-1.79-.88-3.28v-6.86h-1.95v-1.74h1.95v-3.02l2.24-.6Z"/>
      <path class="cls-2" d="M752.25,401.67v1.69h-6.42v-1.69h6.42Z"/>
      <path class="cls-2" d="M754.82,409.55c.05-.86.1-2.13.1-3.25v-15.21h2.26v7.9h.05c.81-1.4,2.26-2.31,4.29-2.31,3.12,0,5.33,2.6,5.3,6.42,0,4.5-2.83,6.73-5.64,6.73-1.82,0-3.28-.7-4.21-2.37h-.08l-.1,2.08h-1.98ZM757.19,404.51c0,.29.05.57.1.83.44,1.59,1.77,2.68,3.43,2.68,2.39,0,3.82-1.95,3.82-4.84,0-2.52-1.3-4.68-3.74-4.68-1.56,0-3.02,1.07-3.48,2.81-.05.26-.13.57-.13.94v2.26Z"/>
      <path class="cls-2" d="M769.72,400.89c0-1.48-.03-2.76-.1-3.93h2l.08,2.47h.1c.57-1.69,1.95-2.76,3.48-2.76.26,0,.44.03.65.08v2.16c-.23-.05-.47-.08-.78-.08-1.61,0-2.76,1.22-3.07,2.94-.05.31-.1.68-.1,1.07v6.71h-2.26v-8.66Z"/>
      <path class="cls-2" d="M785.06,409.55l-.18-1.59h-.08c-.7.99-2.05,1.87-3.85,1.87-2.55,0-3.85-1.79-3.85-3.61,0-3.04,2.7-4.71,7.57-4.68v-.26c0-1.04-.29-2.91-2.86-2.91-1.17,0-2.39.36-3.28.94l-.52-1.51c1.04-.68,2.55-1.12,4.13-1.12,3.85,0,4.78,2.63,4.78,5.15v4.71c0,1.09.05,2.16.21,3.02h-2.08ZM784.72,403.13c-2.5-.05-5.33.39-5.33,2.83,0,1.48.99,2.18,2.16,2.18,1.64,0,2.68-1.04,3.04-2.11.08-.23.13-.49.13-.73v-2.18Z"/>
      <path class="cls-2" d="M790.31,407.21c.68.44,1.87.91,3.02.91,1.66,0,2.44-.83,2.44-1.87,0-1.09-.65-1.69-2.34-2.31-2.26-.81-3.33-2.05-3.33-3.56,0-2.03,1.64-3.69,4.34-3.69,1.27,0,2.39.36,3.09.78l-.57,1.66c-.49-.31-1.4-.73-2.57-.73-1.35,0-2.11.78-2.11,1.72,0,1.04.75,1.51,2.39,2.13,2.18.83,3.3,1.92,3.3,3.8,0,2.21-1.72,3.77-4.71,3.77-1.38,0-2.65-.34-3.54-.86l.57-1.74Z"/>
      <path class="cls-2" d="M800.48,390.49c0-1-.02-1.82-.08-2.62h1.54l.08,1.56h.06c.54-.92,1.44-1.78,3.04-1.78,1.32,0,2.32.8,2.74,1.94h.04c.3-.54.68-.96,1.08-1.26.58-.44,1.22-.68,2.14-.68,1.28,0,3.18.84,3.18,4.2v5.7h-1.72v-5.48c0-1.86-.68-2.98-2.1-2.98-1,0-1.78.74-2.08,1.6-.08.24-.14.56-.14.88v5.98h-1.72v-5.8c0-1.54-.68-2.66-2.02-2.66-1.1,0-1.9.88-2.18,1.76-.1.26-.14.56-.14.86v5.84h-1.72v-7.06Z"/>
    </g>
    <g>
      <path class="cls-1" d="M621.86,457.53l1.66,6.4c.36,1.4.7,2.7.94,4h.08c.29-1.27.7-2.63,1.12-3.98l2.05-6.42h1.92l1.95,6.29c.47,1.51.83,2.83,1.12,4.11h.08c.21-1.27.55-2.6.96-4.08l1.79-6.32h2.26l-4.06,12.58h-2.08l-1.92-6.01c-.44-1.4-.81-2.65-1.12-4.13h-.05c-.31,1.51-.7,2.81-1.14,4.16l-2.03,5.98h-2.08l-3.8-12.58h2.34Z"/>
      <path class="cls-1" d="M640.09,461.46c0-1.48-.03-2.76-.1-3.93h2l.08,2.47h.1c.57-1.69,1.95-2.76,3.48-2.76.26,0,.44.03.65.08v2.16c-.23-.05-.47-.08-.78-.08-1.61,0-2.76,1.22-3.07,2.94-.05.31-.1.68-.1,1.07v6.71h-2.26v-8.66Z"/>
      <path class="cls-1" d="M651.24,454c.03.78-.55,1.4-1.46,1.4-.81,0-1.38-.62-1.38-1.4s.6-1.43,1.43-1.43,1.4.62,1.4,1.43ZM648.69,470.12v-12.58h2.29v12.58h-2.29Z"/>
      <path class="cls-1" d="M654.46,467.78c.68.44,1.87.91,3.02.91,1.66,0,2.44-.83,2.44-1.87,0-1.09-.65-1.69-2.34-2.31-2.26-.81-3.33-2.05-3.33-3.56,0-2.03,1.64-3.69,4.34-3.69,1.27,0,2.39.36,3.09.78l-.57,1.66c-.49-.31-1.4-.73-2.57-.73-1.35,0-2.11.78-2.11,1.72,0,1.04.75,1.51,2.39,2.13,2.18.83,3.3,1.92,3.3,3.8,0,2.21-1.72,3.77-4.71,3.77-1.38,0-2.65-.34-3.54-.86l.57-1.74Z"/>
      <path class="cls-1" d="M667.83,453.92v3.61h3.28v1.74h-3.28v6.79c0,1.56.44,2.44,1.72,2.44.6,0,1.04-.08,1.33-.16l.1,1.72c-.44.18-1.14.31-2.03.31-1.07,0-1.92-.34-2.47-.96-.65-.68-.88-1.79-.88-3.28v-6.86h-1.95v-1.74h1.95v-3.02l2.24-.6Z"/>
      <path class="cls-1" d="M619.05,473.37v-1.3h52.73v1.3h-52.73Z"/>
      <path class="cls-2" d="M620.95,482.86h2.29v18.46h-2.29v-18.46Z"/>
      <path class="cls-2" d="M628.36,495.44c.05,3.09,2.03,4.37,4.32,4.37,1.64,0,2.63-.29,3.48-.65l.39,1.64c-.81.36-2.18.78-4.19.78-3.87,0-6.19-2.55-6.19-6.34s2.24-6.79,5.9-6.79c4.11,0,5.2,3.61,5.2,5.93,0,.47-.05.83-.08,1.07h-8.84ZM635.07,493.8c.03-1.46-.6-3.72-3.17-3.72-2.31,0-3.33,2.13-3.51,3.72h6.68Z"/>
      <path class="cls-2" d="M645.62,492.84c0-1.61-.05-2.91-.1-4.11h2.05l.1,2.16h.05c.94-1.53,2.42-2.44,4.47-2.44,3.04,0,5.33,2.57,5.33,6.4,0,4.52-2.76,6.76-5.72,6.76-1.66,0-3.12-.73-3.87-1.98h-.05v6.84h-2.26v-13.62ZM647.89,496.19c0,.34.05.65.1.94.42,1.59,1.79,2.68,3.43,2.68,2.42,0,3.82-1.98,3.82-4.86,0-2.52-1.33-4.68-3.74-4.68-1.56,0-3.02,1.12-3.46,2.83-.08.29-.16.62-.16.94v2.16Z"/>
      <path class="cls-2" d="M671.81,494.92c0,4.65-3.22,6.68-6.27,6.68-3.41,0-6.03-2.5-6.03-6.47,0-4.21,2.76-6.68,6.24-6.68s6.06,2.63,6.06,6.47ZM661.82,495.05c0,2.76,1.59,4.84,3.82,4.84s3.82-2.05,3.82-4.89c0-2.13-1.07-4.84-3.77-4.84s-3.88,2.5-3.88,4.89Z"/>
      <path class="cls-2" d="M677.24,485.2c.03.78-.55,1.4-1.46,1.4-.81,0-1.38-.62-1.38-1.4s.6-1.43,1.43-1.43,1.4.62,1.4,1.43ZM674.69,501.32v-12.58h2.29v12.58h-2.29Z"/>
      <path class="cls-2" d="M691.62,488.73c-.05.91-.1,1.92-.1,3.46v7.31c0,2.89-.57,4.65-1.79,5.75-1.22,1.14-2.99,1.51-4.58,1.51s-3.17-.36-4.19-1.04l.57-1.74c.83.52,2.13.99,3.69.99,2.34,0,4.06-1.22,4.06-4.39v-1.4h-.05c-.7,1.17-2.05,2.11-4,2.11-3.12,0-5.36-2.65-5.36-6.14,0-4.26,2.78-6.68,5.67-6.68,2.18,0,3.38,1.14,3.93,2.18h.05l.1-1.9h2ZM689.25,493.7c0-.39-.03-.73-.13-1.04-.42-1.33-1.53-2.42-3.2-2.42-2.18,0-3.74,1.85-3.74,4.76,0,2.47,1.25,4.52,3.72,4.52,1.4,0,2.68-.88,3.17-2.34.13-.39.18-.83.18-1.22v-2.26Z"/>
      <path class="cls-2" d="M695.15,492.14c0-1.3-.03-2.37-.1-3.41h2.03l.13,2.08h.05c.62-1.2,2.08-2.37,4.16-2.37,1.74,0,4.45,1.04,4.45,5.36v7.51h-2.29v-7.25c0-2.03-.75-3.72-2.91-3.72-1.51,0-2.68,1.07-3.07,2.34-.1.29-.16.68-.16,1.07v7.57h-2.29v-9.18Z"/>
      <path class="cls-2" d="M710.86,495.44c.05,3.09,2.03,4.37,4.32,4.37,1.64,0,2.63-.29,3.48-.65l.39,1.64c-.81.36-2.18.78-4.19.78-3.87,0-6.19-2.55-6.19-6.34s2.24-6.79,5.9-6.79c4.11,0,5.2,3.61,5.2,5.93,0,.47-.05.83-.08,1.07h-8.84ZM717.57,493.8c.03-1.46-.6-3.72-3.17-3.72-2.31,0-3.33,2.13-3.51,3.72h6.68Z"/>
      <path class="cls-2" d="M725.37,485.12v3.61h3.28v1.74h-3.28v6.79c0,1.56.44,2.44,1.72,2.44.6,0,1.04-.08,1.33-.16l.1,1.72c-.44.18-1.14.31-2.03.31-1.07,0-1.92-.34-2.47-.96-.65-.68-.88-1.79-.88-3.28v-6.86h-1.95v-1.74h1.95v-3.02l2.24-.6Z"/>
    </g>
    <g>
      <path class="cls-1" d="M72.19,234.03c-.6.31-1.92.73-3.61.73-3.8,0-6.27-2.57-6.27-6.42s2.65-6.68,6.76-6.68c1.35,0,2.55.34,3.17.65l-.52,1.77c-.55-.31-1.4-.6-2.65-.6-2.89,0-4.45,2.13-4.45,4.76,0,2.91,1.87,4.71,4.37,4.71,1.3,0,2.16-.34,2.81-.62l.39,1.72Z"/>
      <path class="cls-1" d="M74.87,216.04h2.29v7.85h.05c.36-.65.94-1.22,1.64-1.61.68-.39,1.48-.65,2.34-.65,1.69,0,4.39,1.04,4.39,5.38v7.49h-2.29v-7.23c0-2.03-.75-3.74-2.91-3.74-1.48,0-2.65,1.04-3.07,2.29-.13.31-.16.65-.16,1.09v7.59h-2.29v-18.46Z"/>
      <path class="cls-1" d="M90.57,228.62c.05,3.09,2.03,4.37,4.32,4.37,1.64,0,2.63-.29,3.48-.65l.39,1.64c-.81.36-2.18.78-4.19.78-3.88,0-6.19-2.55-6.19-6.34s2.24-6.79,5.9-6.79c4.11,0,5.2,3.61,5.2,5.93,0,.47-.05.83-.08,1.07h-8.84ZM97.28,226.98c.03-1.46-.6-3.72-3.17-3.72-2.31,0-3.33,2.13-3.51,3.72h6.68Z"/>
      <path class="cls-1" d="M102.01,232.16c.68.44,1.87.91,3.02.91,1.66,0,2.44-.83,2.44-1.87,0-1.09-.65-1.69-2.34-2.31-2.26-.81-3.33-2.05-3.33-3.56,0-2.03,1.64-3.69,4.34-3.69,1.27,0,2.39.36,3.09.78l-.57,1.66c-.49-.31-1.4-.73-2.57-.73-1.35,0-2.11.78-2.11,1.72,0,1.04.75,1.51,2.39,2.13,2.18.83,3.3,1.92,3.3,3.8,0,2.21-1.72,3.77-4.71,3.77-1.38,0-2.65-.34-3.54-.86l.57-1.74Z"/>
      <path class="cls-1" d="M115.38,218.3v3.61h3.28v1.74h-3.28v6.79c0,1.56.44,2.44,1.72,2.44.6,0,1.04-.08,1.33-.16l.1,1.72c-.44.18-1.14.31-2.03.31-1.07,0-1.92-.34-2.47-.96-.65-.68-.88-1.79-.88-3.28v-6.86h-1.95v-1.74h1.95v-3.02l2.24-.6Z"/>
      <path class="cls-1" d="M61.32,237.75v-1.3h58v1.3h-58Z"/>
      <path class="cls-2" d="M63.22,247.24h2.29v18.46h-2.29v-18.46Z"/>
      <path class="cls-2" d="M76.33,265.7l-.18-1.59h-.08c-.7.99-2.05,1.87-3.85,1.87-2.55,0-3.85-1.79-3.85-3.61,0-3.04,2.7-4.71,7.57-4.68v-.26c0-1.04-.29-2.91-2.86-2.91-1.17,0-2.39.36-3.28.94l-.52-1.51c1.04-.68,2.55-1.12,4.13-1.12,3.85,0,4.78,2.63,4.78,5.15v4.71c0,1.09.05,2.16.21,3.02h-2.08ZM75.99,259.28c-2.5-.05-5.33.39-5.33,2.83,0,1.48.99,2.18,2.16,2.18,1.64,0,2.68-1.04,3.04-2.11.08-.23.13-.49.13-.73v-2.18Z"/>
      <path class="cls-2" d="M87.4,257.22c0-1.61-.05-2.91-.1-4.11h2.05l.1,2.16h.05c.94-1.53,2.42-2.44,4.47-2.44,3.04,0,5.33,2.57,5.33,6.4,0,4.52-2.76,6.76-5.72,6.76-1.66,0-3.12-.73-3.87-1.98h-.05v6.84h-2.26v-13.62ZM89.66,260.58c0,.34.05.65.1.94.42,1.59,1.79,2.68,3.43,2.68,2.42,0,3.82-1.98,3.82-4.86,0-2.52-1.33-4.68-3.74-4.68-1.56,0-3.02,1.12-3.46,2.83-.08.29-.16.62-.16.94v2.16Z"/>
      <path class="cls-2" d="M113.58,259.3c0,4.65-3.22,6.68-6.27,6.68-3.41,0-6.03-2.5-6.03-6.47,0-4.21,2.76-6.68,6.24-6.68s6.06,2.63,6.06,6.47ZM103.6,259.43c0,2.76,1.59,4.84,3.82,4.84s3.82-2.05,3.82-4.89c0-2.13-1.07-4.84-3.77-4.84s-3.88,2.5-3.88,4.89Z"/>
      <path class="cls-2" d="M119.02,249.58c.03.78-.55,1.4-1.46,1.4-.81,0-1.38-.62-1.38-1.4s.6-1.43,1.43-1.43,1.4.62,1.4,1.43ZM116.47,265.7v-12.58h2.29v12.58h-2.29Z"/>
      <path class="cls-2" d="M125.31,249.5v3.61h3.28v1.74h-3.28v6.79c0,1.56.44,2.44,1.72,2.44.6,0,1.04-.08,1.33-.16l.1,1.72c-.44.18-1.14.31-2.03.31-1.07,0-1.92-.34-2.47-.96-.65-.68-.88-1.79-.88-3.28v-6.86h-1.95v-1.74h1.95v-3.02l2.24-.6Z"/>
      <path class="cls-2" d="M131.16,257.04c0-1.48-.03-2.76-.1-3.93h2l.08,2.47h.1c.57-1.69,1.95-2.76,3.48-2.76.26,0,.44.03.65.08v2.16c-.23-.05-.47-.08-.78-.08-1.61,0-2.76,1.22-3.07,2.94-.05.31-.1.68-.1,1.07v6.71h-2.26v-8.66Z"/>
      <path class="cls-2" d="M142.31,249.58c.03.78-.55,1.4-1.46,1.4-.81,0-1.38-.62-1.38-1.4s.6-1.43,1.43-1.43,1.4.62,1.4,1.43ZM139.76,265.7v-12.58h2.29v12.58h-2.29Z"/>
      <path class="cls-2" d="M145.85,256.52c0-1.3-.03-2.37-.1-3.41h2.03l.13,2.08h.05c.62-1.2,2.08-2.37,4.16-2.37,1.74,0,4.45,1.04,4.45,5.36v7.51h-2.29v-7.25c0-2.03-.75-3.72-2.91-3.72-1.51,0-2.68,1.07-3.07,2.34-.1.29-.16.68-.16,1.07v7.57h-2.29v-9.18Z"/>
      <path class="cls-2" d="M161.55,259.82c.05,3.09,2.03,4.37,4.32,4.37,1.64,0,2.63-.29,3.48-.65l.39,1.64c-.81.36-2.18.78-4.19.78-3.87,0-6.19-2.55-6.19-6.34s2.24-6.79,5.9-6.79c4.11,0,5.2,3.61,5.2,5.93,0,.47-.05.83-.08,1.07h-8.84ZM168.26,258.18c.03-1.46-.6-3.72-3.17-3.72-2.31,0-3.33,2.13-3.51,3.72h6.68Z"/>
    </g>
    <g>
      <path class="cls-1" d="M502.52,77.44c.05,3.09,2.03,4.37,4.32,4.37,1.64,0,2.63-.29,3.48-.65l.39,1.64c-.81.36-2.18.78-4.19.78-3.87,0-6.19-2.55-6.19-6.34s2.24-6.79,5.9-6.79c4.11,0,5.2,3.61,5.2,5.93,0,.47-.05.83-.08,1.07h-8.84ZM509.23,75.81c.03-1.46-.6-3.72-3.17-3.72-2.31,0-3.33,2.13-3.51,3.72h6.68Z"/>
      <path class="cls-1" d="M521.24,83.32l-.18-1.59h-.08c-.7.99-2.05,1.87-3.85,1.87-2.55,0-3.85-1.79-3.85-3.61,0-3.04,2.7-4.71,7.57-4.68v-.26c0-1.04-.29-2.91-2.86-2.91-1.17,0-2.39.36-3.28.94l-.52-1.51c1.04-.68,2.55-1.12,4.13-1.12,3.85,0,4.78,2.63,4.78,5.15v4.71c0,1.09.05,2.16.21,3.02h-2.08ZM520.91,76.9c-2.5-.05-5.33.39-5.33,2.83,0,1.48.99,2.18,2.16,2.18,1.64,0,2.68-1.04,3.04-2.11.08-.23.13-.49.13-.73v-2.18Z"/>
      <path class="cls-1" d="M526.81,74.66c0-1.48-.03-2.76-.1-3.93h2l.08,2.47h.1c.57-1.69,1.95-2.76,3.48-2.76.26,0,.44.03.65.08v2.16c-.23-.05-.47-.08-.78-.08-1.61,0-2.76,1.22-3.07,2.94-.05.31-.1.68-.1,1.07v6.71h-2.26v-8.66Z"/>
      <path class="cls-1" d="M499.35,86.57v-1.3h34.06v1.3h-34.06Z"/>
      <path class="cls-2" d="M501.25,96.06h2.29v18.46h-2.29v-18.46Z"/>
      <path class="cls-2" d="M510.43,96.71c-.6,2.18-1.72,4.97-2.44,6.16l-1.46.18c.57-1.53,1.25-4.24,1.53-6.11l2.37-.23Z"/>
      <path class="cls-2" d="M522.31,108.12c0,4.65-3.22,6.68-6.27,6.68-3.41,0-6.03-2.5-6.03-6.47,0-4.21,2.76-6.68,6.24-6.68s6.06,2.63,6.06,6.47ZM512.33,108.25c0,2.76,1.59,4.84,3.82,4.84s3.82-2.05,3.82-4.89c0-2.13-1.07-4.84-3.77-4.84s-3.87,2.5-3.87,4.89Z"/>
      <path class="cls-2" d="M525.2,105.86c0-1.48-.03-2.76-.1-3.93h2l.08,2.47h.1c.57-1.69,1.95-2.76,3.48-2.76.26,0,.44.03.65.08v2.16c-.23-.05-.47-.08-.78-.08-1.61,0-2.76,1.22-3.07,2.94-.05.31-.1.68-.1,1.07v6.71h-2.26v-8.66Z"/>
      <path class="cls-2" d="M534.71,108.64c.05,3.09,2.03,4.37,4.32,4.37,1.64,0,2.63-.29,3.48-.65l.39,1.64c-.81.36-2.18.78-4.19.78-3.87,0-6.19-2.55-6.19-6.34s2.24-6.79,5.9-6.79c4.11,0,5.2,3.61,5.2,5.93,0,.47-.05.83-.08,1.07h-8.84ZM541.42,107.01c.03-1.46-.6-3.72-3.17-3.72-2.31,0-3.33,2.13-3.51,3.72h6.68Z"/>
      <path class="cls-2" d="M549.01,98.4c.03.78-.55,1.4-1.46,1.4-.81,0-1.38-.62-1.38-1.4s.6-1.43,1.43-1.43,1.4.62,1.4,1.43ZM546.46,114.52v-12.58h2.29v12.58h-2.29Z"/>
      <path class="cls-2" d="M552.55,96.06h2.29v18.46h-2.29v-18.46Z"/>
      <path class="cls-2" d="M558.68,96.06h2.29v18.46h-2.29v-18.46Z"/>
      <path class="cls-2" d="M566.09,108.64c.05,3.09,2.03,4.37,4.32,4.37,1.64,0,2.63-.29,3.48-.65l.39,1.64c-.81.36-2.18.78-4.19.78-3.87,0-6.19-2.55-6.19-6.34s2.24-6.79,5.9-6.79c4.11,0,5.2,3.61,5.2,5.93,0,.47-.05.83-.08,1.07h-8.84ZM572.8,107.01c.03-1.46-.6-3.72-3.17-3.72-2.31,0-3.33,2.13-3.51,3.72h6.68Z"/>
      <path class="cls-2" d="M577.59,102.52v-8.34h-1.36v-1.34h1.36v-.46c0-1.36.3-2.6,1.12-3.38.66-.64,1.54-.9,2.36-.9.62,0,1.16.14,1.5.28l-.24,1.36c-.26-.12-.62-.22-1.12-.22-1.5,0-1.88,1.32-1.88,2.8v.52h2.34v1.34h-2.34v8.34h-1.74Z"/>
    </g>
  </g>
</svg>