<?xml version="1.0" encoding="UTF-8"?>
<svg id="Layer_1" data-name="Layer 1" xmlns="http://www.w3.org/2000/svg" viewBox="0 0 220.62 331.55">
  <path d="M133.79,127.44c-1.21,1.85-2.21,4.53-2.42,6.9-1.14,13.12,1.08,27.55.31,40.79.47,35.91,6.83,71.32,7.9,107.13.39,13.18,2.25,33.39-7.41,43.76-6.68,7.17-14.87,4.37-19.38-3.38-6.91-11.88-5.04-35.51-4.47-49.23,1.65-40.12,9.8-80.9,8.22-121.07-.21-5.31-1-16.69-3.11-21.23-2.71-5.82-8.22-9.62-11.85-14.71-6.33-8.85-4.83-15.85-4.33-26,1.09-21.96,3.31-43.83,5.37-65.73.65-6.93.68-15.38,1.92-22.1.51-2.79,2.79-2.07,3.16.6.44,3.21-.11,7.96-.03,11.4.24,9.84.45,19.84.66,29.68.32,15.17.91,30.29,1,45.46.99,1.91,2.26.87,2.47-.87.64-5.47.32-11.53.61-17.09.75-14.22,1.82-28.42,2.55-42.64.45-8.79-.04-17.82,1.27-26.54.34-2.29,2.59-1.66,2.84.28.33,2.56.17,6.67.3,9.5,1.03,24.07.99,48.34,2.54,72.36.12,1.92-.76,7.3,2.45,4.37-.13-1.58.32-3.18.39-4.66,1.23-24.55,1.88-49.11,3.46-73.65.2-3.17,0-6.4.53-9.56.39-.92,2.22-1.01,2.57.15.4,1.35.57,4.67.7,6.26,2.08,25.6,1.46,52.29,4.11,77.74.09.83.28,3.51.48,3.95.8,1.73,1.64-.18,1.75-1.4.59-6.47-.2-14.21-.03-20.89.07-2.68.59-5.83.66-8.51.47-18.56.57-37.22.98-55.65.05-2.21,2.53-3.05,3.1-.28s.38,6.05.66,8.82c2.35,23.61,4.26,47.38,5.04,71.12.28,8.69,1.63,20.72-1.56,28.76-3.09,7.78-9.25,9.83-13.4,16.15ZM116.85,45.39c-.73,7.08-.58,14.22-.95,21.33-.33,6.29-.9,12.68-1.26,18.97-.19,3.35.6,8.44-4.58,8.06-2.85-.21-3.44-2.48-3.64-4.91-.61-7.46-.45-16.48-.65-24-.18-6.64.82-22.26-.71-27.73-.09-.33-.07-.96-.53-.88-.46,5.74-1.4,11.49-1.9,17.22-.7,8.08-1,16.25-1.59,24.33s-2.19,17.43-1.59,25.61c.88,11.97,11.73,16.63,16.41,26.26,1.91,3.94,1.43,5.09,1.96,9.1,3.88,29.21-.2,60.78-2.87,90.09-2.28,25.04-5.9,50.65-4.12,75.86.54,7.65,4.57,25.47,15.5,22.11,7.63-2.34,10.46-17.77,10.75-24.64,1.78-42.23-8.4-85.65-8.24-127.99.72-13.01-1.29-26.92-.3-39.83.9-11.67,9.64-13.28,14.79-21.86,3.82-6.35,2.84-12.12,2.88-19.24.08-15.12-1.29-30.37-2.51-45.5-.27-3.38-.04-6.94-.64-10.27-.78.53-.9,2.67-.96,3.62-.99,15.19.15,31.3-.94,46.47-.18,2.45-.23,4.6-3.08,5.15-3.3.65-4.5-2.15-4.78-4.87-1.36-12.91-1.06-26.76-1.92-39.79l-.65-9.94-1.19,3.08c-.77,14.07-1.49,28.18-2.3,42.26-.18,3.07,1.09,9.14-3.3,9.66-5.59.66-4.69-4.19-4.89-7.76-.58-10.16-.85-20.56-1.29-30.63-.12-2.71.04-5.07-.39-7.82-.06-.37-.08-1.53-.54-1.51Z"/>
  <path d="M57.34,111.97c-.29.28-.78.23-1.06.52-4.49,4.39-10.96,9.51-11.1,16.18s1.13,13.14,1.51,19.6c2.69,45.45,3.86,91.02,5.05,136.54.31,11.81,3.41,35.71-6.65,43.89-8.4,6.83-15.99.42-18.6-8.21-3.51-11.61-2.19-30.04-1.9-42.32.97-40.62,4.05-81.15,5.98-121.7.39-8.19,1.73-18.13.92-26.18-1.5-14.92-17.71-21.08-25.05-33.41C-4.56,78.38.1,47.89,8.72,29.05,16.36,12.35,34.49-6.41,51.75,11.73c13.21,13.89,22.18,45.59,23.38,64.47.96,14.97-7.7,25.96-17.79,35.77ZM57.87,107.12c18.67-18.87,16.21-31.09,9.77-55.34C63.21,35.15,49.3-5.62,25.55,11.43,6.98,24.77-1.36,65.95,4.82,86.8c3.56,12.01,12.2,17.8,20.56,25.9,9.48,9.19,8.98,15.85,8.68,28.3-.44,18.88-1.52,37.72-2.53,56.56-1.86,34.53-5.44,70.04-4.09,104.6.27,6.91.18,21.82,7.29,25.58,8.62,4.56,13.95-8.26,14.5-14.83.87-10.28-.03-21.83-.3-32.24-1.2-46.97-3.02-94.03-6.01-140.94-.29-4.53-1.22-11.77.25-15.86,2.12-5.88,10.22-12.21,14.7-16.74Z"/>
  <path d="M196.36,2.21c12.51,9.29,14.81,32.05,16.54,46.5,3.27,27.26,5.24,54.73,6.96,82.16.43,6.85,1.54,10.82-.16,17.86-2.28,9.44-6.95,13.8-11.6,21.58-6.39,10.7-3.36,23.23-2.19,34.86,2.97,29.61,6.63,59.29,7.61,89.1.37,11.4,2.93,34.52-14.04,35.55-18.95,1.16-15.73-22.73-15.96-34.95-1.52-80.22-1.65-160.28-1.02-240.49.11-13.84-.59-28.82.38-42.66.55-7.79,5.16-15.69,13.47-9.52ZM188.68,3.45c-.29.21-1.38,1.99-1.52,2.42-1.81,5.47-1.24,9.11-1.4,14.71-1.32,44.66-.42,89.67-.32,134.29.12,49.4-.71,98.91,1.26,148.22.31,7.8-1.83,17.43,5.89,22.24,6.06,3.78,12.33,1.07,15.9-4.53s2.7-17.38,2.55-24.03c-.72-31.4-5.42-62.74-8.51-93.89-1.12-11.33-3.14-23.23,2.58-33.69,2.57-4.71,7.04-8.63,9.3-13.77,4.41-10.05,3.36-15.34,2.63-25.82-1.82-25.93-3.56-51.91-6.64-77.74-1.8-15.1-3.02-33.81-13.59-45.5-1.67-1.85-5.61-4.68-8.11-2.91Z"/>
</svg>