<?xml version="1.0" encoding="UTF-8"?>
<svg id="Layer_1" data-name="Layer 1" xmlns="http://www.w3.org/2000/svg" viewBox="0 0 143.69 245.55">
  <path d="M68.74,94.46c-.17,1.79.12,4.11.88,5.9,4.17,9.9,11.25,19.48,15.74,29.33,14,25.74,32.05,48.89,46.44,74.34,5.29,9.36,14.32,23.25,11.29,34.41-2.09,7.71-9.08,8.81-15.28,4.93-9.5-5.95-17.14-23.72-21.95-33.84-14.06-29.59-23.69-62.13-40.1-90.53-2.17-3.76-7.07-11.67-10.32-14.14-4.17-3.17-9.59-3.82-14.15-6.11-7.93-3.98-9.52-9.61-13.01-17.12-7.56-16.27-14.27-32.9-21.12-49.5C5,26.87,1.81,20.76.15,15.44c-.69-2.21,1.23-2.56,2.51-.77,1.54,2.15,2.95,5.79,4.32,8.24,3.91,7.02,7.87,14.15,11.76,21.18,6,10.83,12.17,21.52,18.01,32.44,1.44,1,1.97-.23,1.45-1.57-1.61-4.19-4.15-8.44-6.06-12.57-4.86-10.55-9.49-21.21-14.37-31.75-3.02-6.52-6.8-12.85-9.17-19.64-.62-1.79,1.24-2.18,2.16-.88,1.21,1.72,2.66,4.75,3.83,6.75,9.9,16.98,19.1,34.52,29.35,51.27.82,1.34,2.23,5.56,3.43,2.23-.7-1.09-.98-2.41-1.49-3.52-8.45-18.19-17.32-36.17-25.51-54.49-1.06-2.37-2.44-4.62-3.25-7.11-.06-.81,1.22-1.58,1.91-.87.8.82,2.18,3.15,2.88,4.25,11.24,17.69,20.94,37.19,32.53,54.56.38.57,1.54,2.43,1.85,2.67,1.23.95,1.11-.75.73-1.68-2.04-4.9-5.55-10.19-7.96-15.07-.97-1.96-1.79-4.43-2.76-6.39-6.72-13.58-13.74-27.09-20.46-40.55-.81-1.61.67-3.17,2.13-1.38s2.58,4.22,3.83,6.12c10.68,16.15,21.1,32.59,30.68,49.43,3.51,6.16,9.06,14.33,9.81,21.35.73,6.79-2.94,10.61-3.53,16.76ZM25.31,41.66c2.17,5.39,4.99,10.49,7.42,15.76,2.15,4.67,4.17,9.5,6.3,14.17,1.14,2.5,3.64,5.86-.24,7.56-2.13.93-3.43-.49-4.49-2.16-3.28-5.15-6.59-11.72-9.6-17.08-2.65-4.73-7.87-16.38-11.06-19.75-.19-.2-.42-.66-.72-.44,1.85,4.32,3.36,8.83,5.18,13.16,2.57,6.1,5.45,12.11,8.11,18.17s5.04,13.42,8.59,19.1c5.19,8.31,14.8,7.55,21.83,12.72,2.88,2.12,2.97,3.14,4.88,5.83,13.91,19.62,22.96,43.96,32.18,66.13,7.88,18.95,15,38.81,25.87,56.34,3.3,5.32,12.98,16.65,19.6,10.07,4.62-4.59.8-16.81-1.61-21.88-14.77-31.16-38.63-58.64-54.62-89.27-4.43-9.67-11.17-18.95-15.36-28.64-3.79-8.76,1.91-13.25,2.37-21.41.34-6.04-2.56-9.83-5.23-14.98-5.69-10.94-12.48-21.43-19.11-31.89-1.48-2.34-2.67-5-4.37-7.17-.36.68.37,2.27.69,2.98,5.06,11.34,12.01,22.54,16.99,33.9.8,1.83,1.58,3.41-.26,4.89-2.13,1.72-4.06.16-5.31-1.7-5.89-8.81-10.94-18.91-16.52-28l-4.25-6.93.31,2.67c4.79,10.45,9.64,20.91,14.41,31.38,1.04,2.28,4.26,6.19,1.29,8.23-3.79,2.6-4.98-1.24-6.48-3.74-4.28-7.12-8.43-14.52-12.58-21.62-1.12-1.91-1.9-3.68-3.26-5.5-.19-.25-.64-1.08-.96-.89Z"/>
</svg>