<?xml version="1.0" encoding="UTF-8"?>
<svg id="Layer_1" data-name="Layer 1" xmlns="http://www.w3.org/2000/svg" viewBox="0 0 278.2 305.4">
  <path d="M114.35,86.97c-.04.49-.52.84-.55,1.33-.54,7.62-2.31,17.51,2.94,23.69,5.08,5.98,11.63,11.06,17.19,16.63,39.12,39.24,76.93,79.82,114.73,120.33,9.8,10.51,31.91,29.79,29.34,45.35-2.14,13-14.22,13.28-23.57,7.52-12.57-7.74-26.23-25.6-35.87-37.02-31.88-37.79-61.77-77.2-92.72-115.7-6.25-7.78-13.04-17.91-20.28-24.6-13.4-12.38-33.13-4.92-49.78-10.24C30.85,106.3,10.51,74.76,3.16,50.64-3.35,29.26-1.97-2.46,28.4.15c23.23,2,56.98,23.65,73.31,39.88,12.95,12.87,13.92,29.87,12.64,46.94ZM110.92,82.13c1.79-32.25-10.31-41.4-35.74-58.3C57.73,12.24,12.17-13.68,4.28,21.02-1.88,48.15,23.74,92.39,46.19,106.4c12.93,8.07,25.48,6.37,39.62,7.01,16.05.73,20.96,7.2,30.74,18.77,14.82,17.55,29.04,35.59,43.32,53.58,26.16,32.96,51.53,68.2,80.65,98.6,5.82,6.07,17.76,19.74,27.27,17.43,11.53-2.8,6.05-18.77,1.25-25.2-7.5-10.06-17.64-19.87-26.28-29.14-38.98-41.83-78.6-83.23-119.17-123.56-3.92-3.89-10.6-9.73-12.56-14.65-2.81-7.06-.53-19.37-.11-27.11Z"/>
</svg>